<svg xmlns="http://www.w3.org/2000/svg" viewBox="0 0 143.1 158.51"><defs><style>.cls-1{fill:#fff;}</style></defs><title>Ресурс 2</title><g id="Слой_2" data-name="Слой 2"><g id="Var1"><g id="Иконки"><path id="viber" class="cls-1" d="M127.36,14.71c-5.84-5-12.69-8-20-9.93A143.53,143.53,0,0,0,51.2,1.32c-9.59,1.3-18.85,3.83-27.38,8.61-10,5.62-16.89,13.71-19.94,24.93A114.46,114.46,0,0,0,.24,59.26C-.37,71.44,0,83.53,3.14,95.41,6.75,109.15,14.59,119.27,28,124.66c1.47.59,2.84,1.39,4.3,2a2.66,2.66,0,0,1,1.75,2.91c-.07,9.5,0,19,0,28.94,3.52-3.41,6-5.91,7.73-7.92,5.29-6,10.3-11,15.81-16.64,2.8-2.88,1.62-2.74,6-2.67,5.1.08,13.12.28,18.19-.11,9.68-.76,19.28-2,28.61-4.8,11.86-3.56,21.36-9.91,26.18-21.9a70.92,70.92,0,0,0,3.32-9.72c4.63-19.08,4-38.2.14-57.29C138.18,28.59,134.39,20.71,127.36,14.71ZM68.42,26.28c.1-1.84,1.15-2.55,2.88-2.47,14.73.71,25.81,5.08,34.34,16.56,5,6.73,7.69,15.8,8,24.24,0,1.25.06,2.51,0,3.76s-.69,2.46-2.26,2.48S109,70,108.86,68.4a56.93,56.93,0,0,0-4-18.06c-4.6-11.2-13.42-17.23-24.75-20.14A54.31,54.31,0,0,0,71,28.54C69.59,28.43,68.32,28.13,68.42,26.28ZM83.27,41.91a49,49,0,0,0-9.17-2.34c-1.52-.22-2.61-1-2.33-2.81a2.43,2.43,0,0,1,3-2.2c10.28,1,18.31,4.72,23.83,13.62a27.38,27.38,0,0,1,3.88,14.49c-.16,3.13-.64,3.94-2.43,3.89-2.61-.07-2.23-2.21-2.43-3.79a48.29,48.29,0,0,0-1.49-7.15A19.22,19.22,0,0,0,83.27,41.91ZM92,59.25a16.43,16.43,0,0,1-.24,2,2.17,2.17,0,0,1-2.22,1.86,2.22,2.22,0,0,1-2.28-1.82A22.28,22.28,0,0,1,86.79,59a9.47,9.47,0,0,0-7.28-8c-.51-.14-1-.21-1.54-.35-1.3-.36-2.91-.39-3-2.29,0-1.57,1.16-2.51,3.32-2.64A12.14,12.14,0,0,1,83.37,47C88.78,49.67,91.31,53.38,92,59.25Zm21.64,43.64A21.75,21.75,0,0,1,99,115.55a10.55,10.55,0,0,1-7.14-.87C60.74,101.42,38.22,79.53,25.47,47.94a17,17,0,0,1-1.37-6.82c0-8.14,7.15-15.66,15-16.09a7.33,7.33,0,0,1,5.59,2.07A59.38,59.38,0,0,1,57.82,45c1.76,3.69,1,6.3-2.13,8.94-.51.42-1.06.8-1.59,1.19-4.19,3.06-5.12,6.19-3.12,11A40.05,40.05,0,0,0,66.83,84.92a33.77,33.77,0,0,0,8.65,4.3,6.19,6.19,0,0,0,7-2.33c.21-.25.4-.52.59-.79,4-5.56,8.32-6.52,14.14-2.91a115.75,115.75,0,0,1,14.17,10.45C114.44,96.22,115.21,99.26,113.61,102.89Z"/></g></g></g></svg>