<?xml version="1.0" encoding="UTF-8" standalone="no"?>
<!DOCTYPE svg  PUBLIC '-//W3C//DTD SVG 1.1//EN'  'http://www.w3.org/Graphics/SVG/1.1/DTD/svg11.dtd'>
<svg xmlns="http://www.w3.org/2000/svg" version="1.1">
<defs>
<font id="AvenirNext-Heavy" horiz-adv-x="360">
<font-face cap-height="708" x-height="526" font-family="Avenir Next Heavy" units-per-em="1000" ascent="800" panose-1="2 11 9 3 2 2 2 2 2 4" unicode-range="U+000D-FB02" descent="-200" font-weight="900" underline-position="-200" bbox="-163 -250 1237 971" underline-thickness="50"/>
<missing-glyph d="M512 718v-718h-512v718h512zM462 50v617h-412v-617h412zM225 234l-2 17q0 56 13 81q7 13 18 27.5t28 31.5q16 15 26 26.5t15 21t7 18t2 17.5q0 36 -22.5 60.5t-53.5 24.5t-53.5 -22t-28.5 -73l-50 8q7 72 44 104.5t91 32.5t89 -35.5t35 -95.5q0 -32 -12.5 -58.5 t-50.5 -61.5q-37 -33 -43 -52q-6 -20 -6 -72h-46zM222 117v67h56v-67h-56z" horiz-adv-x="512"/>
<glyph glyph-name="IJ" d="M613 -20q-48 0 -91 14t-77.5 38t-59.5 57t-35 71l204 78q4 -16 14.5 -28.5t28.5 -12.5q23 0 31 15.5t8 39.5v456h239v-446q0 -48 -10.5 -98t-39.5 -91t-80 -67t-132 -26zM66 708h240v-708h-240v708z" horiz-adv-x="938" unicode="IJ"/>
<glyph glyph-name="ij" d="M386 678q0 24 9.5 45.5t26 37.5t38.5 25.5t46 9.5t45.5 -9.5t38 -25.5t26 -37.5t9.5 -45.5q0 -25 -9.5 -46.5t-26 -37t-38 -24.5t-45.5 -9t-46 9t-38.5 24.5t-26 37t-9.5 46.5zM621 12q0 -51 -10.5 -96.5t-37.5 -80t-73 -55t-116 -20.5q-20 0 -48 3t-48 9l12 188 q11 -3 20.5 -4t16.5 -1q26 0 39.5 14.5t13.5 49.5v507h231v-514zM50 678q0 24 9.5 45.5t26 37.5t38.5 25.5t47 9.5q24 0 45 -9.5t37.5 -25.5t26 -37.5t9.5 -45.5q0 -25 -9.5 -46.5t-26 -37t-37.5 -24.5t-45 -9q-25 0 -47 9t-38.5 24.5t-26 37t-9.5 46.5zM54 526h231v-526 h-231v526z" horiz-adv-x="675" unicode="ij"/>
<glyph glyph-name="napostrophe" d="M248 708l-87 -177h-164l62 177h189zM218 526h225v-58h2q20 29 59.5 50.5t90.5 21.5q55 0 91.5 -20t58 -51.5t30 -70.5t8.5 -78v-320h-232v280q0 40 -12.5 56t-37.5 16q-23 0 -37.5 -18.5t-14.5 -53.5v-280h-231v526z" horiz-adv-x="831" unicode='&quot;n'/>
<glyph glyph-name="fi" d="M426 598q-9 4 -21 6.5t-24 2.5q-34 0 -47.5 -21t-13.5 -53v-7h111v-165h-111v-361h-230v361h-90v165h90v12q0 49 11.5 94t39.5 79.5t75.5 54.5t119.5 20q23 0 53.5 -3.5t51.5 -11.5zM467 678q0 24 9.5 45.5t26 37.5t38.5 25.5t47 9.5q24 0 45 -9.5t37.5 -25.5t26 -37.5 t9.5 -45.5q0 -25 -9.5 -46.5t-26 -37t-37.5 -24.5t-45 -9q-25 0 -47 9t-38.5 24.5t-26 37t-9.5 46.5zM471 526h231v-526h-231v526z" horiz-adv-x="756" unicode="fi"/>
<glyph glyph-name="fl" d="M426 598q-9 4 -21 6.5t-24 2.5q-34 0 -47.5 -21t-13.5 -53v-7h111v-165h-111v-361h-230v361h-90v165h90v12q0 49 11.5 94t39.5 79.5t75.5 54.5t119.5 20q23 0 53.5 -3.5t51.5 -11.5zM470 756h236v-756h-236v756z" horiz-adv-x="759" unicode="fl"/>
<glyph glyph-name=".notdef" d="M512 718v-718h-512v718h512zM462 50v617h-412v-617h412zM225 234l-2 17q0 56 13 81q7 13 18 27.5t28 31.5q16 15 26 26.5t15 21t7 18t2 17.5q0 36 -22.5 60.5t-53.5 24.5t-53.5 -22t-28.5 -73l-50 8q7 72 44 104.5t91 32.5t89 -35.5t35 -95.5q0 -32 -12.5 -58.5 t-50.5 -61.5q-37 -33 -43 -52q-6 -20 -6 -72h-46zM222 117v67h56v-67h-56z" horiz-adv-x="512"/>
<glyph glyph-name=".null" horiz-adv-x="500"/>
<glyph glyph-name=".null" horiz-adv-x="500"/>
<glyph glyph-name="nonmarkingreturn" horiz-adv-x="0" unicode=""/>
<glyph glyph-name="space" horiz-adv-x="250" unicode=" "/>
<glyph glyph-name="exclam" d="M104 708h240v-448h-240v448zM224 -16q-26 0 -48.5 9.5t-39.5 25.5t-26.5 38t-9.5 48q0 25 9.5 47t26.5 38.5t39.5 26t48.5 9.5t48.5 -9.5t39.5 -26t26.5 -38.5t9.5 -47q0 -26 -9.5 -48t-26.5 -38t-39.5 -25.5t-48.5 -9.5z" horiz-adv-x="448" unicode="!"/>
<glyph glyph-name="quotedbl" d="M81 708h173v-282h-173v282zM303 708h172v-282h-172v282z" horiz-adv-x="556" unicode='&quot;'/>
<glyph glyph-name="numbersign" d="M285 321h41l10 66h-42zM471 321h77v-134h-95l-27 -187h-145l26 187h-40l-27 -187h-145l26 187h-76v134h95l10 66h-77v134h95l26 187h146l-27 -187h41l27 187h145l-27 -187h76v-134h-95z" horiz-adv-x="620" unicode="#"/>
<glyph glyph-name="dollar" d="M401 714q66 -4 131.5 -29.5t116.5 -70.5l-148 -147q-24 29 -59 44t-63 15q-26 0 -42 -7t-16 -24q0 -16 16.5 -23.5t53.5 -19.5q38 -12 80 -27.5t77.5 -40t58.5 -61t23 -89.5q0 -56 -20 -99t-53 -73.5t-76.5 -47.5t-90.5 -21v-76h-102v75q-70 5 -135.5 32t-112.5 67 l145 154q12 -13 29.5 -25t37.5 -21.5t41.5 -15t43.5 -5.5q20 0 36.5 7t16.5 25q0 10 -5.5 17t-19.5 14t-38.5 15.5t-61.5 20.5q-36 12 -69 28t-58.5 39.5t-40.5 56.5t-15 78q0 53 18 93.5t48 69t69.5 46t81.5 24.5v74h102v-72z" horiz-adv-x="700" unicode="$"/>
<glyph glyph-name="percent" d="M208 16l420 723l97 -55l-419 -721zM711 241q-24 0 -42 -17.5t-18 -42.5q0 -24 18 -41t42 -17q23 0 41 17t18 41q0 25 -18 42.5t-41 17.5zM711 -12q-41 0 -76.5 15t-62.5 41.5t-42.5 61.5t-15.5 75q0 41 15.5 76.5t42.5 61.5t62.5 41t76.5 15q40 0 76 -15t62.5 -41 t42 -61.5t15.5 -76.5q0 -40 -15.5 -75t-42 -61.5t-62.5 -41.5t-76 -15zM224 586q-24 0 -42 -17.5t-18 -42.5q0 -24 18 -41t42 -17q23 0 41 17t18 41q0 25 -18 42.5t-41 17.5zM224 333q-41 0 -76.5 15t-62.5 41.5t-42.5 61.5t-15.5 75q0 41 15.5 76.5t42.5 61.5t62.5 41 t76.5 15q40 0 76 -15t62.5 -41t42 -61.5t15.5 -76.5q0 -40 -15.5 -75t-42 -61.5t-62.5 -41.5t-76 -15z" horiz-adv-x="935" unicode="%"/>
<glyph glyph-name="ampersand" d="M304 273q-14 -5 -26.5 -18t-12.5 -37q0 -15 6 -25t16 -17t22 -10t23 -3q19 0 35.5 6t24.5 15zM366 575q-23 0 -34.5 -14t-11.5 -32q0 -17 10 -32t27 -28q23 9 38 24.5t15 35.5t-11 33t-33 13zM520 51q-32 -28 -81.5 -46.5t-118.5 -18.5q-51 0 -101 12t-89.5 38t-64.5 68 t-25 101q0 34 11 63.5t29.5 53t44 42t54.5 30.5q-29 26 -49 62.5t-20 82.5q0 52 23.5 88t60.5 58.5t82 32.5t88 10q44 0 87.5 -10.5t78.5 -33.5t57 -59.5t22 -88.5q0 -33 -11 -59.5t-30 -48t-43.5 -39t-52.5 -32.5l49 -46l55 79h249l-170 -207l192 -183h-278z" horiz-adv-x="840" unicode="&amp;"/>
<glyph glyph-name="quotesingle" d="M81 708h172v-282h-172v282z" horiz-adv-x="334" unicode="&apos;"/>
<glyph glyph-name="parenleft" d="M18 288q0 122 37 244.5t112 225.5l153 -56q-133 -184 -133 -414t133 -414l-153 -56q-75 103 -112 225.5t-37 244.5z" unicode="("/>
<glyph glyph-name="parenright" d="M342 288q0 -122 -37 -244.5t-112 -225.5l-153 56q133 184 133 414t-133 414l153 56q75 -103 112 -225.5t37 -244.5z" unicode=")"/>
<glyph glyph-name="asterisk" d="M457 374l-121 -83l-74 95l-71 -90l-120 83l74 89l-117 37l48 130l114 -38v111h149v-112l116 35l44 -130l-114 -34z" horiz-adv-x="527" unicode="*"/>
<glyph glyph-name="plus" d="M253 378v198h158v-198h206v-150h-204v-198h-158v198h-206v150h204z" horiz-adv-x="666" unicode="+"/>
<glyph glyph-name="comma" d="M14 -120l82 313h218l-114 -313h-186z" unicode=","/>
<glyph glyph-name="hyphen" d="M30 371h276v-172h-276v172z" horiz-adv-x="336" unicode="-"/>
<glyph glyph-name="period" d="M48 113q0 27 10.5 50.5t29 41t43 28t51.5 10.5q26 0 49.5 -10.5t41.5 -28t28.5 -41t10.5 -50.5t-10.5 -51t-28.5 -41t-41.5 -27t-49.5 -10q-27 0 -51.5 10t-43 27t-29 41t-10.5 51z" unicode="."/>
<glyph glyph-name="slash" d="M-3 -11l303 778l158 -48l-304 -778z" horiz-adv-x="455" unicode="/"/>
<glyph glyph-name="zero" d="M350 523q-22 0 -36 -15t-22 -39t-11 -53.5t-3 -57.5q0 -29 3 -59.5t11 -55.5t22 -40.5t36 -15.5t36.5 15.5t22 40.5t10.5 55.5t3 59.5q0 28 -3 57.5t-10.5 53.5t-22 39t-36.5 15zM350 -20q-65 0 -114 17t-84 46t-58.5 67t-37 80t-19 85t-5.5 83q0 39 5.5 82t19 84t37 78 t58.5 65t84 44.5t114 16.5q98 0 160 -35.5t97 -90t48 -120t13 -124.5q0 -39 -5.5 -82.5t-19 -85.5t-36.5 -80t-58.5 -67t-84.5 -46t-114 -17z" horiz-adv-x="700" unicode="0"/>
<glyph glyph-name="one" d="M288 456l-119 -82l-112 174l251 160h220v-708h-240v456z" horiz-adv-x="700" unicode="1"/>
<glyph glyph-name="two" d="M346 409q17 13 28 29t11 33q0 20 -12.5 35t-39.5 15q-29 0 -48 -23t-21 -62l-227 26q7 69 36 119t72.5 83t97 48.5t110.5 15.5q52 0 103.5 -13t91.5 -40.5t65 -71.5t25 -106q0 -44 -11.5 -77.5t-31 -59.5t-44 -47t-51.5 -40l-104 -74h244v-199h-574v185z" horiz-adv-x="700" unicode="2"/>
<glyph glyph-name="three" d="M533 371q27 -9 49.5 -25t38.5 -37t24.5 -45.5t8.5 -49.5q0 -62 -26 -106.5t-68 -73t-95 -41.5t-107 -13t-106.5 12.5t-96 39.5t-76 68t-46.5 98l222 52q6 -26 29.5 -48t60.5 -22q10 0 21 2.5t20 8t15 14.5t6 23q0 32 -28 42t-75 10h-68v164h76q38 0 61 10.5t23 40.5 q0 23 -18 32t-38 9q-25 0 -46 -15.5t-26 -45.5l-221 47q18 58 51 97.5t75.5 63.5t91 34.5t95.5 10.5t97 -11.5t91 -37t67 -65t26 -95.5q0 -60 -31.5 -95.5t-76.5 -48.5v-4z" horiz-adv-x="700" unicode="3"/>
<glyph glyph-name="four" d="M371 490l-118 -179h122v179h-4zM588 0h-216v125h-341v194l268 389h288v-397h96v-186h-95v-125z" horiz-adv-x="700" unicode="4"/>
<glyph glyph-name="five" d="M650 238q0 -74 -27 -123.5t-69.5 -79.5t-95 -42.5t-103.5 -12.5q-54 0 -106 14.5t-95 42.5t-73 68.5t-40 92.5l220 56q6 -29 29.5 -50.5t56.5 -21.5q26 0 46 12t20 42q0 18 -11.5 29.5t-29.5 18.5t-40.5 9.5t-44.5 2.5q-16 0 -38.5 -1.5t-47.5 -4.5t-50.5 -7t-48.5 -8 l25 433h481v-198h-280l-4 -51q14 2 28 3.5t25 1.5q55 0 104.5 -13t87 -40.5t59.5 -70.5t22 -102z" horiz-adv-x="700" unicode="5"/>
<glyph glyph-name="six" d="M350 320q-32 0 -52.5 -20.5t-20.5 -50.5q0 -31 20.5 -52t52.5 -21q34 0 54.5 21t20.5 52q0 30 -20.5 50.5t-54.5 20.5zM418 486q46 0 89.5 -15.5t77.5 -45.5t54.5 -74t20.5 -101q0 -67 -25 -117.5t-68 -84.5t-99 -51t-118 -17t-118 16.5t-99 49.5t-68 83.5t-25 118.5 q0 67 26.5 125.5t61.5 107.5l162 227h289l-163 -211l-9 -11h11z" horiz-adv-x="700" unicode="6"/>
<glyph glyph-name="seven" d="M116 0l269 510h-304v198h564v-169l-253 -539h-276z" horiz-adv-x="700" unicode="7"/>
<glyph glyph-name="eight" d="M526 368q51 -19 84.5 -61.5t33.5 -102.5t-25.5 -102.5t-67 -69.5t-94 -39.5t-107.5 -12.5t-108 12t-94 39t-66.5 69.5t-25.5 102.5q0 58 32.5 100t85.5 64v3q-44 17 -75 55.5t-31 93.5t24 95t63.5 65t90.5 37t104 12q52 0 103 -12t90.5 -37t64 -65t24.5 -95t-29 -93.5 t-77 -54.5v-3zM350 277q-31 0 -46.5 -18t-15.5 -41t15.5 -40.5t46.5 -17.5t46.5 17.5t15.5 40.5t-15.5 41t-46.5 18zM350 551q-27 0 -42.5 -16.5t-15.5 -35.5q0 -20 15.5 -37t42.5 -17t42.5 17t15.5 37q0 19 -15.5 35.5t-42.5 16.5z" horiz-adv-x="700" unicode="8"/>
<glyph glyph-name="nine" d="M350 390q32 0 52.5 20.5t20.5 50.5q0 31 -20.5 52t-52.5 21q-34 0 -54.5 -21t-20.5 -52q0 -30 20.5 -50.5t54.5 -20.5zM282 222q-46 0 -89.5 15.5t-77.5 45.5t-54.5 74t-20.5 101q0 67 25 117.5t68 84.5t99 51t118 17t118 -16.5t99 -49.5t68 -83.5t25 -118.5 q0 -67 -26.5 -125.5t-61.5 -107.5l-162 -227h-289l167 216l5 6h-11z" horiz-adv-x="700" unicode="9"/>
<glyph glyph-name="colon" d="M66 409q0 25 10 47.5t27 39t40 26t49 9.5q24 0 46.5 -9.5t39 -26t26.5 -39t10 -47.5q0 -26 -10 -48t-26.5 -38t-39 -25.5t-46.5 -9.5q-26 0 -49 9.5t-40 25.5t-27 38t-10 48zM66 115q0 25 10 47.5t27 39t40 26t49 9.5q24 0 46.5 -9.5t39 -26t26.5 -39t10 -47.5 q0 -26 -10 -48t-26.5 -38t-39 -25.5t-46.5 -9.5q-26 0 -49 9.5t-40 25.5t-27 38t-10 48z" horiz-adv-x="380" unicode=":"/>
<glyph glyph-name="semicolon" d="M66 409q0 25 10 47.5t27 39t40 26t49 9.5q24 0 46.5 -9.5t39 -26t26.5 -39t10 -47.5q0 -26 -10 -48t-26.5 -38t-39 -25.5t-46.5 -9.5q-26 0 -49 9.5t-40 25.5t-27 38t-10 48zM13 -120l82 313h218l-114 -313h-186z" horiz-adv-x="380" unicode=";"/>
<glyph glyph-name="less" d="M588 32q-128 51 -255 101.5t-255 101.5v134q128 51 255 101.5t255 101.5v-162q-69 -29 -137 -55.5t-137 -55.5q69 -26 137 -51.5t137 -51.5v-164z" horiz-adv-x="666" unicode="&lt;"/>
<glyph glyph-name="equal" d="M610 282v-144h-554v144h554zM610 472v-144h-554v144h554z" horiz-adv-x="666" unicode="="/>
<glyph glyph-name="greater" d="M78 572q128 -51 255 -101.5t255 -101.5v-134q-128 -51 -255 -101.5t-255 -101.5v164q69 26 137 51.5t137 51.5q-69 29 -137 55.5t-137 55.5v162z" horiz-adv-x="666" unicode="&gt;"/>
<glyph glyph-name="question" d="M446 328q-21 -13 -28.5 -25t-7.5 -25v-26h-213v37q0 30 7.5 52.5t20.5 40.5t31 33.5t39 30.5l17 12q16 11 24.5 21.5t8.5 22.5q0 21 -12.5 29.5t-29.5 8.5q-33 0 -47 -23.5t-14 -54.5l-215 28q6 64 31.5 109.5t64 74t86 41.5t98.5 13q46 0 94 -10.5t87 -35t64 -65 t25 -99.5q0 -35 -9 -62t-26 -49.5t-41.5 -41.5t-54.5 -37zM304 -16q-26 0 -48.5 9.5t-39.5 25.5t-26.5 38t-9.5 48q0 25 9.5 47t26.5 38.5t39.5 26t48.5 9.5t48.5 -9.5t39.5 -26t26.5 -38.5t9.5 -47q0 -26 -9.5 -48t-26.5 -38t-39.5 -25.5t-48.5 -9.5z" horiz-adv-x="587" unicode="?"/>
<glyph glyph-name="at" d="M405 443q-12 0 -23 -8.5t-19 -22.5t-13 -32t-5 -37q0 -26 9.5 -43t31.5 -17q14 0 25.5 9t19 23t11.5 31t4 34q0 26 -8 44.5t-33 18.5zM617 534l-19 -108q-8 -41 -13 -69.5t-5 -43.5q0 -11 5 -20.5t19 -9.5q9 0 19 5t18.5 17.5t14.5 34.5t6 56q0 56 -18 98t-50.5 70 t-78 42t-100.5 14q-58 0 -106.5 -20t-83 -55.5t-53.5 -84.5t-19 -106q0 -60 20.5 -108.5t57.5 -82.5t88 -52.5t112 -18.5q57 0 111.5 18t93.5 50l75 -85q-112 -93 -294 -93q-84 0 -156 27.5t-124.5 76.5t-82 117t-29.5 150q0 80 31 148t84 118t123.5 78.5t150.5 28.5 q73 0 140 -21.5t117.5 -63.5t80.5 -104t30 -143q0 -53 -14.5 -96t-42 -73.5t-67.5 -47.5t-91 -17q-40 0 -67.5 15t-38.5 44h-2q-11 -21 -40 -40t-73 -19q-34 0 -61.5 13.5t-47 37.5t-30 57t-10.5 71q0 43 13 83t37 71t58.5 50t77.5 19q39 0 62 -17t29 -35h2l5 24h136z" horiz-adv-x="800" unicode="@"/>
<glyph glyph-name="A" d="M386 461l-58 -175h115zM263 708h253l276 -708h-259l-37 104h-225l-35 -104h-252z" horiz-adv-x="776" unicode="A"/>
<glyph glyph-name="B" d="M529 368q25 -6 49 -19.5t43 -34t30 -47.5t11 -60q0 -58 -23.5 -97.5t-62 -64t-88 -35t-101.5 -10.5h-321v708h291q43 0 91.5 -6.5t89.5 -26t68 -57t27 -98.5q0 -57 -28.5 -94t-75.5 -55v-3zM288 283v-96h71q28 0 45.5 12.5t17.5 36.5q0 14 -7.5 23t-18.5 14.5t-23.5 7.5 t-23.5 2h-61zM288 523v-87h64q25 0 41 11.5t16 35.5q0 20 -17 30t-45 10h-59z" horiz-adv-x="693" unicode="B"/>
<glyph glyph-name="C" d="M34 354q0 85 30 154t82 118t122.5 75.5t150.5 26.5q82 0 155 -26.5t122 -71.5l-146 -176q-20 26 -50 39.5t-67 13.5q-30 0 -56 -10.5t-45.5 -30.5t-30.5 -48.5t-11 -63.5t11.5 -62.5t31 -47.5t45.5 -30.5t55 -10.5q41 0 70.5 17t46.5 40l146 -175q-48 -48 -118 -76.5 t-159 -28.5q-80 0 -150.5 27t-122.5 76.5t-82 118t-30 152.5z" horiz-adv-x="696" unicode="C"/>
<glyph glyph-name="D" d="M295 506v-302h44q84 0 129 36.5t45 119.5q0 69 -45 107.5t-120 38.5h-53zM66 0v708h264q84 0 160.5 -16.5t135 -57t93.5 -107.5t35 -169q0 -93 -33.5 -161t-89.5 -111.5t-129 -64.5t-152 -21h-284z" horiz-adv-x="788" unicode="D"/>
<glyph glyph-name="E" d="M66 708h487v-198h-263v-61h247v-185h-247v-66h280v-198h-504v708z" horiz-adv-x="603" unicode="E"/>
<glyph glyph-name="F" d="M299 434h216v-194h-215v-240h-234v708h478v-199h-245v-75z" horiz-adv-x="581" unicode="F"/>
<glyph glyph-name="G" d="M426 -18q-84 0 -155.5 26t-124 74.5t-82.5 117.5t-30 154t30 154t82 118t122 75.5t150 26.5q83 0 157.5 -27t121.5 -74l-139 -167q-22 26 -52 41.5t-74 15.5q-29 0 -56.5 -11.5t-48.5 -33t-34 -51.5t-13 -67q0 -74 38.5 -120.5t123.5 -46.5q15 0 31 2.5t25 7.5v54h-114 v187h325v-387q-25 -15 -57.5 -27.5t-69 -21.5t-76.5 -14.5t-80 -5.5z" horiz-adv-x="762" unicode="G"/>
<glyph glyph-name="H" d="M498 269h-194v-269h-238v708h237v-240h194v240h239v-708h-238v269z" horiz-adv-x="802" unicode="H"/>
<glyph glyph-name="I" d="M66 708h240v-708h-240v708z" horiz-adv-x="372" unicode="I"/>
<glyph glyph-name="J" d="M248 -20q-48 0 -91 14t-77.5 38t-59.5 57t-35 71l204 78q4 -16 14.5 -28.5t28.5 -12.5q23 0 31 15.5t8 39.5v456h239v-446q0 -48 -10.5 -98t-39.5 -91t-80 -67t-132 -26z" horiz-adv-x="573" unicode="J"/>
<glyph glyph-name="K" d="M300 282h-2v-282h-232v708h231v-261h2l189 261h280l-266 -324l279 -384h-292z" horiz-adv-x="763" unicode="K"/>
<glyph glyph-name="L" d="M66 708h240v-504h235v-204h-475v708z" horiz-adv-x="549" unicode="L"/>
<glyph glyph-name="M" d="M277 400l11 -400h-222v708h311l128 -381h5l111 381h321v-708h-231l7 398l-6 1l-132 -399h-168l-130 400h-5z" horiz-adv-x="1008" unicode="M"/>
<glyph glyph-name="N" d="M66 708h237l202 -359h4l-10 359h226v-708h-243l-196 338h-4l10 -338h-226v708z" horiz-adv-x="791" unicode="N"/>
<glyph glyph-name="O" d="M287 358q0 -35 10.5 -64t29 -50t44.5 -32.5t56 -11.5t55.5 11.5t44.5 32.5t29.5 50t10.5 64q0 34 -10.5 62.5t-29.5 48t-44.5 30.5t-55.5 11t-56 -11t-44.5 -30.5t-29 -48t-10.5 -62.5zM34 358q0 85 30 153.5t82.5 116.5t124.5 74t156 26t156 -26t125 -74t83 -116.5 t30 -153.5t-30 -155t-83 -119.5t-125 -76.5t-156 -27t-156 27t-124.5 76.5t-82.5 119.5t-30 155z" horiz-adv-x="855" unicode="O"/>
<glyph glyph-name="P" d="M303 523v-114h50q27 0 49.5 13.5t22.5 45.5q0 17 -6 27.5t-16.5 16.5t-23.5 8.5t-26 2.5h-50zM303 228v-228h-237v708h304q54 0 106 -11.5t93 -39t66 -73t25 -114.5q0 -66 -24.5 -112t-65 -75t-93 -42t-107.5 -13h-67z" horiz-adv-x="684" unicode="P"/>
<glyph glyph-name="Q" d="M287 358q0 -35 10.5 -64t29 -50t44.5 -32.5t56 -11.5t55.5 11.5t44.5 32.5t29.5 50t10.5 64q0 34 -10.5 62.5t-29.5 48t-44.5 30.5t-55.5 11t-56 -11t-44.5 -30.5t-29 -48t-10.5 -62.5zM740 180l112 7v-187h-438q-84 0 -154 23.5t-120 69.5t-78 113.5t-28 155.5 q0 81 30 148.5t82.5 116t124.5 75t156 26.5t155 -26.5t122.5 -73.5t80.5 -113t29 -144q0 -30 -6.5 -59t-17 -53.5t-24 -44t-26.5 -30.5v-4z" horiz-adv-x="864" unicode="Q"/>
<glyph glyph-name="R" d="M294 409h47q12 0 26.5 2t27 8.5t21 18t8.5 30.5t-7 30t-18 16.5t-24 7t-24 1.5h-57v-114zM66 708h305q52 0 103.5 -10.5t92 -37t65.5 -71t25 -111.5q0 -65 -32 -114.5t-92 -76.5l180 -287h-274l-136 253h-7v-253h-230v708z" horiz-adv-x="714" unicode="R"/>
<glyph glyph-name="S" d="M298 -20q-43 0 -84.5 7.5t-80 22t-72.5 34t-61 43.5l145 158q25 -27 66.5 -48t85.5 -21q20 0 36.5 7t16.5 26q0 10 -5.5 17t-19.5 14.5t-38.5 16.5t-61.5 21q-36 12 -69 28.5t-58.5 40.5t-40.5 57.5t-15 80.5q0 66 27 112t69.5 75.5t95.5 42.5t105 13q70 0 142.5 -27 t127.5 -78l-148 -151q-24 30 -59 45.5t-63 15.5q-26 0 -42 -7.5t-16 -24.5q0 -16 16.5 -24t53.5 -20q38 -12 80 -28t77.5 -41.5t58.5 -62.5t23 -92q0 -64 -25.5 -111.5t-67 -79t-93.5 -47t-106 -15.5z" horiz-adv-x="617" unicode="S"/>
<glyph glyph-name="T" d="M419 0h-238v507h-174v201h586v-201h-174v-507z" horiz-adv-x="600" unicode="T"/>
<glyph glyph-name="U" d="M384 -20q-83 0 -144.5 23t-102.5 63t-61 94.5t-20 117.5v430h238v-404q0 -51 24.5 -79.5t69.5 -28.5t69.5 28.5t24.5 79.5v404h237v-430q0 -63 -21.5 -117.5t-63.5 -94.5t-104.5 -63t-145.5 -23z" horiz-adv-x="775" unicode="U"/>
<glyph glyph-name="V" d="M-16 708h269l117 -438h4l112 438h269l-256 -708h-264z" horiz-adv-x="739" unicode="V"/>
<glyph glyph-name="W" d="M433 0h-240l-193 708h252l76 -398h4l82 398h249l89 -398h4l77 398h244l-197 -708h-240l-100 400h-4z" horiz-adv-x="1077" unicode="W"/>
<glyph glyph-name="X" d="M393 207l-123 -207h-282l253 369l-240 339h287l112 -186l107 186h280l-236 -336l261 -372h-291z" horiz-adv-x="800" unicode="X"/>
<glyph glyph-name="Y" d="M481 0h-238v290l-267 418h287l112 -208l107 208h280l-281 -418v-290z" horiz-adv-x="738" unicode="Y"/>
<glyph glyph-name="Z" d="M44 199l265 312h-254v197h565v-172l-282 -333h290v-203h-584v199z" horiz-adv-x="672" unicode="Z"/>
<glyph glyph-name="bracketleft" d="M42 732h252v-137h-87v-614h87v-137h-252v888z" unicode="["/>
<glyph glyph-name="backslash" d="M-3 719l158 48l303 -778l-157 -48z" horiz-adv-x="455" unicode="\"/>
<glyph glyph-name="bracketright" d="M318 -156h-252v137h87v614h-87v137h252v-888z" unicode="]"/>
<glyph glyph-name="asciicircum" d="M77 343q51 92 101.5 182.5t101.5 182.5h154q51 -92 100.5 -182.5t100.5 -182.5h-178q-25 47 -50.5 93.5t-50.5 93.5q-26 -47 -50.5 -93.5t-50.5 -93.5h-178z" horiz-adv-x="714" unicode="^"/>
<glyph glyph-name="underscore" d="M0 -75h500v-110h-500v110z" horiz-adv-x="500" unicode="_"/>
<glyph glyph-name="grave" d="M-36 728h212l111 -144h-169z" unicode="`"/>
<glyph glyph-name="a" d="M332 334q0 24 -16.5 35.5t-43.5 11.5q-32 0 -60.5 -13.5t-50.5 -31.5l-115 114q48 46 114 71t136 25q75 0 124 -21t77.5 -58t40 -86t11.5 -104v-277h-209v42h-2q-20 -30 -57 -43t-72 -13q-31 0 -63.5 9t-59 29t-43.5 52t-17 79q0 55 28.5 89.5t72.5 54t98.5 26.5t106.5 7 v2zM334 218q-51 0 -82 -11t-31 -41q0 -11 5 -18.5t13 -12.5t17.5 -7.5t17.5 -2.5q33 0 53 21t20 54v18h-13z" horiz-adv-x="591" unicode="a"/>
<glyph glyph-name="b" d="M448 265q0 35 -22 61t-64 26q-41 0 -65.5 -26t-24.5 -61q0 -37 24.5 -63t65.5 -26q42 0 64 25.5t22 63.5zM662 265q0 -52 -15.5 -102t-45.5 -89.5t-75 -63.5t-104 -24q-49 0 -93 18.5t-67 50.5h-2v-55h-207v756h230v-272h2q23 27 61 41.5t76 14.5q59 0 104 -24t75 -63 t45.5 -88t15.5 -100z" horiz-adv-x="694" unicode="b"/>
<glyph glyph-name="c" d="M339 -20q-67 0 -123 20t-97 57t-64 89t-23 117q0 64 23.5 116.5t65.5 89.5t98.5 57t122.5 20q27 0 54.5 -4.5t53 -12.5t47 -18t36.5 -22l-115 -166q-12 14 -31.5 21.5t-37.5 7.5q-17 0 -33 -5.5t-28.5 -17t-20.5 -28t-8 -38.5t8 -38.5t20.5 -27t28.5 -16t33 -5.5 q20 0 39 7.5t31 20.5l116 -162q-33 -26 -85.5 -44t-110.5 -18z" horiz-adv-x="526" unicode="c"/>
<glyph glyph-name="d" d="M246 265q0 -38 22 -63.5t64 -25.5q41 0 65.5 26t24.5 63q0 35 -24.5 61t-65.5 26q-42 0 -64 -26t-22 -61zM32 265q0 51 15.5 100t45.5 88t75 63t104 24q38 0 76 -14.5t61 -41.5h2v272h230v-756h-207v55h-2q-23 -32 -67 -50.5t-93 -18.5q-59 0 -104 24t-75 63.5 t-45.5 89.5t-15.5 102z" horiz-adv-x="694" unicode="d"/>
<glyph glyph-name="e" d="M602 258q0 -13 -0.5 -26.5t-1.5 -22.5h-354q1 -14 9.5 -25t21 -19t28 -12t31.5 -4q32 0 53.5 11.5t32.5 25.5l164 -83q-35 -57 -101.5 -90t-154.5 -33q-57 0 -111 18t-95.5 53.5t-66.5 88.5t-25 123q0 65 23 117.5t62.5 89t93 56.5t114.5 20q62 0 113 -21.5t87.5 -60 t56.5 -91.5t20 -115zM403 333q0 28 -20.5 46t-55.5 18q-38 0 -59 -21t-24 -43h159z" horiz-adv-x="630" unicode="e"/>
<glyph glyph-name="f" d="M426 598q-9 4 -21 6.5t-24 2.5q-34 0 -47.5 -21t-13.5 -53v-7h111v-165h-111v-361h-230v361h-90v165h90v12q0 49 11.5 94t39.5 79.5t75.5 54.5t119.5 20q23 0 53.5 -3.5t51.5 -11.5z" horiz-adv-x="424" unicode="f"/>
<glyph glyph-name="g" d="M246 265q0 -38 22 -63.5t64 -25.5q41 0 65.5 26t24.5 63q0 35 -24.5 61t-65.5 26q-42 0 -64 -26t-22 -61zM32 265q0 51 15.5 100t45.5 88t75 63t104 24q42 0 82.5 -16t66.5 -51h3v53h217v-472q0 -86 -28 -143t-74.5 -90.5t-105.5 -47t-120 -13.5q-75 0 -150 19.5 t-131 57.5l101 153q38 -29 80 -42.5t80 -13.5q25 0 47.5 6.5t39.5 19t27 31t10 42.5v23h-3q-19 -22 -56.5 -39t-85.5 -17q-61 0 -106 21.5t-75 58t-44.5 84.5t-14.5 101z" horiz-adv-x="697" unicode="g"/>
<glyph glyph-name="h" d="M430 540q55 0 91.5 -20t58 -51.5t30 -70.5t8.5 -78v-320h-232v280q0 40 -12.5 56t-37.5 16q-20 0 -36 -17.5t-16 -55.5v-279h-231v756h231v-288h2q20 29 57 50.5t87 21.5z" horiz-adv-x="666" unicode="h"/>
<glyph glyph-name="i" d="M50 678q0 24 9.5 45.5t26 37.5t38.5 25.5t47 9.5q24 0 45 -9.5t37.5 -25.5t26 -37.5t9.5 -45.5q0 -25 -9.5 -46.5t-26 -37t-37.5 -24.5t-45 -9q-25 0 -47 9t-38.5 24.5t-26 37t-9.5 46.5zM54 526h231v-526h-231v526z" horiz-adv-x="339" unicode="i"/>
<glyph glyph-name="j" d="M57 678q0 24 9.5 45.5t26 37.5t38.5 25.5t46 9.5t45.5 -9.5t38 -25.5t26 -37.5t9.5 -45.5q0 -25 -9.5 -46.5t-26 -37t-38 -24.5t-45.5 -9t-46 9t-38.5 24.5t-26 37t-9.5 46.5zM292 12q0 -51 -10.5 -96.5t-37.5 -80t-73 -55t-116 -20.5q-20 0 -48 3t-48 9l12 188 q11 -3 20.5 -4t16.5 -1q26 0 39.5 14.5t13.5 49.5v507h231v-514z" horiz-adv-x="346" unicode="j"/>
<glyph glyph-name="k" d="M284 229v-229h-231v756h231v-431h3l125 201h268l-170 -237l169 -289h-269l-123 229h-3z" horiz-adv-x="670" unicode="k"/>
<glyph glyph-name="l" d="M53 756h236v-756h-236v756z" horiz-adv-x="342" unicode="l"/>
<glyph glyph-name="m" d="M375 0v276q0 40 -10 58t-33 18q-17 0 -32.5 -16t-15.5 -57v-279h-231v526h225v-58h2q10 13 24.5 25.5t33 23t41.5 17t50 6.5q52 0 90 -18.5t60 -57.5q26 32 64 54t96 22q56 0 92.5 -22t58 -55t30 -71.5t8.5 -71.5v-320h-231v280q0 43 -10.5 57.5t-32.5 14.5 q-20 0 -34 -18.5t-14 -54.5v-279h-231z" horiz-adv-x="976" unicode="m"/>
<glyph glyph-name="n" d="M53 526h225v-58h2q20 29 59.5 50.5t90.5 21.5q55 0 91.5 -20t58 -51.5t30 -70.5t8.5 -78v-320h-232v280q0 40 -12.5 56t-37.5 16q-23 0 -37.5 -18.5t-14.5 -53.5v-280h-231v526z" horiz-adv-x="666" unicode="n"/>
<glyph glyph-name="o" d="M331 352q-38 0 -61.5 -26t-23.5 -61q0 -37 24 -63t62 -26t62 26t24 63q0 35 -24.5 61t-62.5 26zM632 265q0 -68 -24.5 -121t-66 -89.5t-96 -55.5t-114.5 -19q-59 0 -113.5 19t-95.5 55.5t-65.5 89.5t-24.5 121q0 67 24.5 119.5t65.5 88.5t95.5 54.5t113.5 18.5 q60 0 114.5 -18.5t96 -54.5t66 -88.5t24.5 -119.5z" horiz-adv-x="664" unicode="o"/>
<glyph glyph-name="p" d="M448 265q0 35 -22 61t-64 26q-41 0 -65.5 -26t-24.5 -61q0 -37 24.5 -63t65.5 -26q42 0 64 25.5t22 63.5zM423 -14q-39 0 -77 14.5t-62 40.5h-2v-281h-229v766h217v-53h2q29 33 70 50t80 17q59 0 104 -24t75 -63t45.5 -88t15.5 -100q0 -52 -15.5 -102t-45.5 -89.5 t-74.5 -63.5t-103.5 -24z" horiz-adv-x="694" unicode="p"/>
<glyph glyph-name="q" d="M246 265q0 -38 22 -63.5t64 -25.5q41 0 65.5 26t24.5 63q0 35 -24.5 61t-65.5 26q-42 0 -64 -26t-22 -61zM271 -14q-59 0 -103.5 24t-74.5 63.5t-45.5 89.5t-15.5 102q0 51 15.5 100t45.5 88t75 63t104 24q39 0 80 -17t70 -50h2v53h217v-766h-229v281h-2 q-24 -26 -62 -40.5t-77 -14.5z" horiz-adv-x="694" unicode="q"/>
<glyph glyph-name="r" d="M53 526h222v-60h2q17 32 50.5 53t78.5 21q27 0 44 -5l-18 -196q-11 3 -24.5 4.5t-24.5 1.5q-45 0 -72 -26t-27 -64v-255h-231v526z" horiz-adv-x="445" unicode="r"/>
<glyph glyph-name="s" d="M484 167q0 -53 -22.5 -89t-57 -57.5t-75.5 -31t-78 -9.5q-68 0 -133.5 19.5t-113.5 55.5l113 131q24 -22 56.5 -35.5t62.5 -13.5q12 0 22.5 4.5t10.5 16.5q0 13 -18.5 20.5t-64.5 18.5q-25 6 -51 17.5t-47.5 30.5t-35.5 46.5t-14 65.5q0 51 22.5 87t57 58.5t75 33 t76.5 10.5q61 0 121 -18t108 -50l-108 -129q-25 16 -51 25t-51 9q-17 0 -28 -4.5t-11 -17.5q0 -10 12.5 -15.5t57.5 -14.5q31 -6 60.5 -18.5t53 -32t37.5 -47.5t14 -66z" horiz-adv-x="513" unicode="s"/>
<glyph glyph-name="t" d="M282 -14q-106 0 -157 45.5t-51 141.5v188h-74v165h73v118h224v-118h114v-165h-114v-140q0 -38 16.5 -51.5t45.5 -13.5q11 0 23 2t19 4v-158q-18 -8 -50.5 -13t-68.5 -5z" horiz-adv-x="421" unicode="t"/>
<glyph glyph-name="u" d="M610 0h-225v58h-2q-20 -29 -59.5 -50.5t-90.5 -21.5q-56 0 -92 19.5t-57.5 51t-30 71t-8.5 78.5v320h232v-278q0 -40 12.5 -56t37.5 -16q23 0 37.5 18.5t14.5 53.5v278h231v-526z" horiz-adv-x="663" unicode="u"/>
<glyph glyph-name="v" d="M-8 526h256l75 -284h4l72 284h247l-203 -526h-251z" horiz-adv-x="638" unicode="v"/>
<glyph glyph-name="w" d="M404 0h-229l-180 526h247l66 -272h4l68 272h222l73 -272h3l64 272h236l-182 -526h-230l-81 270h-2z" horiz-adv-x="973" unicode="w"/>
<glyph glyph-name="x" d="M338 119l-86 -119h-260l203 270l-189 256h262l76 -110l75 110h254l-189 -256l199 -270h-264z" horiz-adv-x="675" unicode="x"/>
<glyph glyph-name="y" d="M205 20l-213 506h256l78 -277h4l69 277h247l-216 -558q-19 -49 -43 -87.5t-56 -65.5t-75.5 -41t-101.5 -14q-18 0 -37 1.5t-36.5 4t-32.5 5t-25 5.5l29 190q13 -5 31.5 -8.5t33.5 -3.5q38 0 56.5 15.5t27.5 39.5z" horiz-adv-x="638" unicode="y"/>
<glyph glyph-name="z" d="M33 161l197 194h-192v171h479v-150l-213 -205h219v-171h-490v161z" horiz-adv-x="557" unicode="z"/>
<glyph glyph-name="braceleft" d="M0 359q30 0 47.5 13.5t17.5 56.5v132q0 34 8.5 65t26.5 54.5t46 37.5t68 14h96v-137h-34q-29 0 -39.5 -19t-10.5 -41v-135q0 -29 -9 -49.5t-21.5 -33.5t-27.5 -20t-27 -8v-2q12 -2 27 -8.5t27.5 -19.5t21.5 -33.5t9 -49.5v-135q0 -22 10.5 -41t39.5 -19h34v-137h-96 q-40 0 -68 14t-46 37.5t-26.5 54.5t-8.5 65v132q0 43 -17.5 56.5t-47.5 13.5v142z" unicode="{"/>
<glyph glyph-name="bar" d="M49 750h172v-1000h-172v1000z" horiz-adv-x="269" unicode="|"/>
<glyph glyph-name="braceright" d="M360 217q-30 0 -47.5 -13.5t-17.5 -56.5v-132q0 -34 -8.5 -65t-26.5 -54.5t-46 -37.5t-68 -14h-96v137h34q29 0 39.5 19t10.5 41v135q0 29 9 49.5t21.5 33.5t27.5 19.5t27 8.5v2q-12 1 -27 8t-27.5 20t-21.5 33.5t-9 49.5v135q0 22 -10.5 41t-39.5 19h-34v137h96 q40 0 68 -14t46 -37.5t26.5 -54.5t8.5 -65v-132q0 -43 17.5 -56.5t47.5 -13.5v-142z" unicode="}"/>
<glyph glyph-name="asciitilde" d="M355 384q21 -14 34.5 -21t23 -10t17.5 -3.5t19 -0.5q24 0 46 18.5t38 48.5l74 -135q-35 -58 -77 -82t-82 -24q-32 0 -60 8.5t-61 29.5q-20 12 -34 19t-24.5 10.5t-18.5 4t-16 0.5q-11 0 -24.5 -3.5t-27.5 -11.5t-27 -20.5t-22 -30.5l-74 135q18 30 40.5 50.5t46 33 t46.5 17.5t43 5q37 0 63 -9t57 -29z" horiz-adv-x="666" unicode="~"/>
<glyph glyph-name="uni00A0" horiz-adv-x="250" unicode=" "/>
<glyph glyph-name="exclamdown" d="M344 270v-448h-240v448h240zM224 546q26 0 48.5 -9.5t39.5 -25.5t26.5 -38.5t9.5 -47.5t-9.5 -47t-26.5 -38.5t-39.5 -26t-48.5 -9.5t-48.5 9.5t-39.5 26t-26.5 38.5t-9.5 47t9.5 47.5t26.5 38.5t39.5 25.5t48.5 9.5z" horiz-adv-x="448" unicode="¡"/>
<glyph glyph-name="cent" d="M341 -13q-54 8 -98.5 31t-77 58.5t-50 82.5t-17.5 104q0 55 18 102t50 82.5t76.5 58.5t98.5 32v64h109v-61q45 -4 85 -18.5t64 -33.5l-115 -166q-12 14 -31.5 21.5t-37.5 7.5q-17 0 -33 -5.5t-28.5 -17t-20.5 -28t-8 -38.5t8 -38.5t20.5 -27t28.5 -16t33 -5.5 q20 0 39 7.5t31 20.5l116 -162q-26 -21 -66 -36.5t-85 -20.5v-57h-109v59z" horiz-adv-x="700" unicode="¢"/>
<glyph glyph-name="sterling" d="M553 495q-12 14 -32 22.5t-40 8.5q-24 0 -39.5 -6t-24.5 -16.5t-12.5 -24t-3.5 -28.5v-9h145v-162h-145v-87h251v-193h-572v193h92v87h-92v162h92v28q0 46 17.5 92.5t52.5 83t88.5 59.5t124.5 23q81 0 139 -23.5t93 -57.5z" horiz-adv-x="700" unicode="£"/>
<glyph glyph-name="currency" d="M352 385q-18 1 -34 -7t-27 -20t-17 -28t-7 -33q0 -39 24 -65t61 -26q36 0 60 26t24 65q0 17 -6 33t-18 28q-10 12 -26 20t-34 7zM575 424q15 -26 23 -58t9 -69q0 -75 -34 -132l81 -81l-94 -95l-85 85q-56 -28 -123 -28q-30 0 -60 6t-65 24l-87 -87l-94 95l83 83 q-31 56 -31 130q0 70 30 124l-82 82l95 94l84 -83q58 29 127 29q70 0 125 -28l82 82l95 -94z" horiz-adv-x="700" unicode="¤"/>
<glyph glyph-name="yen" d="M644 458v-140h-184v-47h184v-140h-184v-131h-216v131h-181v140h181v47h-181v140h100l-158 250h253l98 -217l98 217h247l-157 -250h100z" horiz-adv-x="700" unicode="¥"/>
<glyph glyph-name="brokenbar" d="M221 200v-406h-172v406h172zM221 718v-406h-172v406h172z" horiz-adv-x="269" unicode="¦"/>
<glyph glyph-name="section" d="M250 345q-7 -4 -11.5 -12t-4.5 -16q0 -22 22 -32t56 -22l81 -28q13 8 13 26q0 19 -21 31.5t-53 23.5zM539 158q23 -16 34 -44.5t11 -57.5q0 -61 -27 -101.5t-68.5 -64.5t-91.5 -34t-96 -10q-42 0 -84 9t-80.5 26t-71.5 41.5t-55 56.5l157 130q15 -22 33.5 -37t38 -24 t39 -13t34.5 -4q14 0 26 5.5t12 15.5q0 8 -4 14t-15.5 11.5t-31 12t-50.5 15.5q-52 15 -91 31t-65.5 37.5t-40 50t-13.5 68.5q0 45 19.5 76.5t51.5 51.5q-21 20 -31 48t-10 62q0 54 26 92t65 61t84.5 33.5t85.5 10.5q97 0 166.5 -33.5t104.5 -96.5l-166 -110 q-15 26 -41.5 41t-49.5 15q-17 0 -30 -6t-13 -17q0 -6 4 -11t15 -10.5t30 -11.5t49 -15q49 -15 87 -32t64 -39.5t40 -52.5t14 -70q0 -38 -16 -69t-49 -51z" horiz-adv-x="650" unicode="§"/>
<glyph glyph-name="dieresis" d="M-44 678q0 20 8 38t22 31.5t32 21.5t39 8q20 0 38 -8t31.5 -21.5t21.5 -31.5t8 -38q0 -21 -8 -38.5t-21.5 -31t-31.5 -21t-38 -7.5q-42 0 -71.5 28t-29.5 70zM205 678q0 20 8 38t22 31.5t32 21.5t39 8q20 0 38 -8t31.5 -21.5t21.5 -31.5t8 -38q0 -21 -8 -38.5t-21.5 -31 t-31.5 -21t-38 -7.5q-42 0 -71.5 28t-29.5 70z" unicode="¨"/>
<glyph glyph-name="copyright" d="M80 353q0 -66 24 -124q24 -57 68 -101q43 -44 101 -69t124 -25q67 0 125 25t102 69t70 101q26 58 26 124q0 67 -25 125t-69 102t-101 68q-58 26 -124 26q-67 0 -125 -26t-102 -68q-44 -44 -68 -102q-26 -58 -26 -125zM20 353q0 79 30 147t82 120q52 50 120 80 q70 30 149 30q78 0 147 -30q68 -30 120 -80q52 -52 82 -120t30 -147t-30 -147t-82 -119t-120 -80q-69 -29 -147 -29q-79 0 -149 29t-120 80q-52 51 -82 119t-30 147zM596 515l-98 -80q-14 19 -35 27t-46 9q-24 0 -42 -10q-19 -11 -31 -27t-18 -37t-7 -43q1 -22 7 -43t19 -37 t33 -28q20 -10 45 -10q23 0 45 8t35 25l92 -88q-32 -31 -77 -49t-97 -18q-51 0 -96 16t-79 46t-54 76q-20 44 -19 101q0 55 20 99q19 44 53 75t79 47t96 17q52 0 99 -20t76 -56z" horiz-adv-x="800" unicode="©"/>
<glyph glyph-name="ordfeminine" d="M221 611q0 13 -9.5 19t-25.5 6q-20 0 -36.5 -7t-29.5 -17l-69 61q29 25 68 38.5t80 13.5q45 0 74 -11.5t46 -31t23.5 -46t6.5 -56.5v-149h-124v23h-1q-11 -17 -33.5 -23.5t-42.5 -6.5q-18 0 -37.5 4.5t-35 15.5t-26 28t-10.5 43q0 29 17 47.5t43 29t58.5 14.5t63.5 4v1z M221 547q-29 0 -46.5 -5.5t-17.5 -21.5q0 -11 10.5 -15.5t19.5 -4.5q19 0 30.5 10.5t11.5 27.5v9h-8z" horiz-adv-x="390" unicode="ª"/>
<glyph glyph-name="guillemotleft" d="M17 274l176 248l129 -83l-115 -165l115 -165l-129 -83zM247 274l175 248l130 -83l-115 -165l115 -165l-130 -83z" horiz-adv-x="580" unicode="«"/>
<glyph glyph-name="logicalnot" d="M447 314h-410v144h568v-315h-158v171z" horiz-adv-x="666" unicode="¬"/>
<glyph glyph-name="uni00AD" d="M30 371h276v-172h-276v172z" horiz-adv-x="336" unicode="­"/>
<glyph glyph-name="registered" d="M108 492q0 -39 15 -74t41.5 -61.5t61.5 -41.5t75 -15t74.5 15t60.5 41.5t41 61.5t15 74q0 40 -15 75t-41 61t-60.5 41t-74.5 15t-75 -15t-61.5 -41t-41.5 -61t-15 -75zM72 492q0 47 18 88.5t49 72t73 48.5t89 18t88.5 -18t72 -48.5t48.5 -72t18 -88.5t-18 -88 t-48.5 -71.5t-72 -48t-88.5 -17.5t-89 17.5t-73 48t-49 71.5t-18 88zM339 365l-44 94h-16v-94h-88v266h114q21 0 43 -4t39 -14t28 -26.5t11 -41.5q0 -55 -48 -74l61 -106h-100zM305 521q12 0 20 6.5t8 16.5q0 8 -8.5 13t-19.5 5h-26v-41h26z" horiz-adv-x="600" unicode="®"/>
<glyph glyph-name="macron" d="M0 707h360v-96h-360v96z" unicode="¯"/>
<glyph glyph-name="degree" d="M317 554q0 41 -28 69t-69 28t-69 -28t-28 -69t28 -69t69 -28t69 28t28 69zM399 554q0 -39 -13.5 -71.5t-37.5 -56.5t-56.5 -37.5t-71.5 -13.5t-71.5 13.5t-56.5 37.5t-37.5 56.5t-13.5 71.5t13.5 71.5t37.5 56.5t56.5 37.5t71.5 13.5t71.5 -13.5t56.5 -37.5t37.5 -56.5 t13.5 -71.5z" horiz-adv-x="440" unicode="°"/>
<glyph glyph-name="plusminus" d="M31 182h604v-152h-604v152zM251 606h164v-121h220v-152h-220v-121h-164v121h-220v152h220v121z" horiz-adv-x="666" unicode="±"/>
<glyph glyph-name="twosuperior" d="M235 526q8 7 13.5 14.5t5.5 18.5q0 12 -7.5 21t-24.5 9q-18 0 -30 -14t-14 -39l-143 16q4 44 22.5 75.5t45.5 52t61 30.5t70 10q33 0 65 -8t57.5 -25t41.5 -45t16 -67q0 -27 -7.5 -48t-19.5 -37.5t-27.5 -30t-32.5 -25.5l-66 -46h154v-126h-362v117z" horiz-adv-x="450" unicode="²"/>
<glyph glyph-name="threesuperior" d="M349 496q33 -11 50 -38.5t17 -60.5q0 -39 -16 -66.5t-41.5 -45.5t-57.5 -26t-65 -8t-65 8t-59 24.5t-46.5 42.5t-28.5 62l136 33q4 -17 17.5 -31t33.5 -14q16 0 29 6.5t13 23.5q0 20 -17 26.5t-46 6.5h-42v103h47q26 0 38.5 7t12.5 24q0 11 -8.5 19t-26.5 8 q-14 0 -27.5 -10.5t-16.5 -29.5l-134 31q10 36 31 61t47 40t56 21.5t59 6.5t59 -7t54.5 -22t40 -38.5t15.5 -57.5q0 -41 -17 -64.5t-42 -34.5z" horiz-adv-x="450" unicode="³"/>
<glyph glyph-name="acute" d="M73 584l111 144h212l-154 -144h-169z" unicode="´"/>
<glyph glyph-name="mu" d="M314 526v-263q0 -14 3.5 -32.5t11 -35t20 -28t31.5 -11.5q41 0 56.5 29t15.5 71v270h234v-526h-226v37q-14 -17 -34 -28t-51 -11q-37 0 -61 16v-238h-234v750h234z" horiz-adv-x="758" unicode="µ"/>
<glyph glyph-name="paragraph" d="M432 566h-52v-699h-154v463q-100 5 -156.5 52.5t-56.5 132.5q0 60 22 97.5t58 59t83 29t97 7.5h314v-841h-155v699z" horiz-adv-x="646" unicode="¶"/>
<glyph glyph-name="periodcentered" d="M48 289q0 27 10.5 50.5t29 41t43 28t51.5 10.5q26 0 49.5 -10.5t41.5 -28t28.5 -41t10.5 -50.5t-10.5 -51t-28.5 -41t-41.5 -27t-49.5 -10q-27 0 -51.5 10t-43 27t-29 41t-10.5 51z" unicode="·"/>
<glyph glyph-name="cedilla" d="M159 -240q-16 0 -33.5 1.5t-35.5 4.5t-34.5 7.5t-29.5 9.5l34 78q17 -8 41.5 -12t43.5 -4q15 0 27.5 4.5t12.5 16.5q0 11 -11.5 14.5t-25.5 3.5q-23 0 -41 -6l-44 34l75 88h117l-50 -53q5 1 16 1q17 0 35 -3.5t33 -13.5t24.5 -26.5t9.5 -41.5q0 -31 -16.5 -51t-41 -31.5 t-53 -16t-53.5 -4.5z" unicode="¸"/>
<glyph glyph-name="onesuperior" d="M198 550l-75 -52l-71 110l158 100h139v-446h-151v288z" horiz-adv-x="450" unicode="¹"/>
<glyph glyph-name="ordmasculine" d="M195 622q-20 0 -32.5 -14t-12.5 -32q0 -20 13 -34t33 -14t33 14t13 34q0 18 -13.5 32t-33.5 14zM357 576q0 -37 -13 -65.5t-35.5 -48t-52 -30t-61.5 -10.5t-60.5 10.5t-51 30t-35.5 48t-13 65.5q0 36 13 64t35.5 47t51 29t60.5 10t61.5 -10t52 -29t35.5 -47t13 -64z" horiz-adv-x="390" unicode="º"/>
<glyph glyph-name="guillemotright" d="M28 109l115 165l-115 165l130 83l175 -248l-175 -248zM258 109l115 165l-115 165l130 83l175 -248l-175 -248z" horiz-adv-x="580" unicode="»"/>
<glyph glyph-name="onequarter" d="M287 13l346 726l99 -45l-346 -721zM198 550l-75 -52l-71 110l158 100h139v-446h-151v288zM771 309l-75 -113h77v113h-2zM907 0h-136v79h-215v122l169 245h182v-250h60v-117h-60v-79z" horiz-adv-x="1000" unicode="¼"/>
<glyph glyph-name="onehalf" d="M287 13l346 726l99 -45l-346 -721zM796 264q8 7 13.5 14.5t5.5 18.5q0 12 -7.5 21t-24.5 9q-18 0 -30 -14t-14 -39l-143 16q4 44 22.5 75.5t45.5 52t61 30.5t70 10q33 0 65 -8t57.5 -25t41.5 -45t16 -67q0 -27 -7.5 -48t-19.5 -37.5t-27.5 -30t-32.5 -25.5l-66 -46h154 v-126h-362v117zM198 550l-75 -52l-71 110l158 100h139v-446h-151v288z" horiz-adv-x="1000" unicode="½"/>
<glyph glyph-name="threequarters" d="M287 13l346 726l99 -45l-346 -721zM349 496q33 -11 50 -38.5t17 -60.5q0 -39 -16 -66.5t-41.5 -45.5t-57.5 -26t-65 -8t-65 8t-59 24.5t-46.5 42.5t-28.5 62l136 33q4 -17 17.5 -31t33.5 -14q16 0 29 6.5t13 23.5q0 20 -17 26.5t-46 6.5h-42v103h47q26 0 38.5 7t12.5 24 q0 11 -8.5 19t-26.5 8q-14 0 -27.5 -10.5t-16.5 -29.5l-134 31q10 36 31 61t47 40t56 21.5t59 6.5t59 -7t54.5 -22t40 -38.5t15.5 -57.5q0 -41 -17 -64.5t-42 -34.5zM771 309l-75 -113h77v113h-2zM907 0h-136v79h-215v122l169 245h182v-250h60v-117h-60v-79z" horiz-adv-x="1000" unicode="¾"/>
<glyph glyph-name="questiondown" d="M136 202q21 13 28.5 25t7.5 25v26h213v-37q0 -30 -7.5 -52.5t-20.5 -40.5t-31 -33.5t-39 -30.5l-17 -12q-16 -11 -24.5 -21.5t-8.5 -22.5q0 -21 12.5 -29.5t29.5 -8.5q33 0 47 23.5t14 54.5l215 -28q-6 -65 -31.5 -110t-64 -73.5t-86 -41.5t-98.5 -13q-47 0 -95 10.5 t-87 35t-63.5 65t-24.5 99.5q0 34 9 61.5t26 50t41.5 41.5t54.5 37zM278 546q26 0 48.5 -9.5t39.5 -25.5t26.5 -38.5t9.5 -47.5t-9.5 -47t-26.5 -38.5t-39.5 -26t-48.5 -9.5t-48.5 9.5t-39.5 26t-26.5 38.5t-9.5 47t9.5 47.5t26.5 38.5t39.5 25.5t48.5 9.5z" horiz-adv-x="587" unicode="¿"/>
<glyph glyph-name="Agrave" d="M177 908h212l111 -144h-169zM386 461l-58 -175h115zM263 708h253l276 -708h-259l-37 104h-225l-35 -104h-252z" horiz-adv-x="776" unicode="À"/>
<glyph glyph-name="Aacute" d="M278 764l111 144h212l-154 -144h-169zM386 461l-58 -175h115zM263 708h253l276 -708h-259l-37 104h-225l-35 -104h-252z" horiz-adv-x="776" unicode="Á"/>
<glyph glyph-name="Acircumflex" d="M389 832l-67 -68h-152l137 144h169l134 -144h-154zM386 461l-58 -175h115zM263 708h253l276 -708h-259l-37 104h-225l-35 -104h-252z" horiz-adv-x="776" unicode="Â"/>
<glyph glyph-name="Atilde" d="M578 900q-2 -30 -10 -55t-22.5 -44t-35 -29.5t-46.5 -10.5q-21 0 -40.5 6t-40.5 17q-24 13 -36 17.5t-27 4.5q-16 0 -25 -10.5t-12 -25.5h-80q3 57 32 96.5t81 39.5q23 0 42 -6.5t41 -17.5q23 -12 36 -17t29 -5t23.5 10t11.5 30h79zM386 461l-58 -175h115zM263 708h253 l276 -708h-259l-37 104h-225l-35 -104h-252z" horiz-adv-x="776" unicode="Ã"/>
<glyph glyph-name="Adieresis" d="M166 858q0 20 8 38t22 31.5t32 21.5t39 8q20 0 38 -8t31.5 -21.5t21.5 -31.5t8 -38q0 -21 -8 -38.5t-21.5 -31t-31.5 -21t-38 -7.5q-42 0 -71.5 28t-29.5 70zM415 858q0 20 8 38t22 31.5t32 21.5t39 8q20 0 38 -8t31.5 -21.5t21.5 -31.5t8 -38q0 -21 -8 -38.5t-21.5 -31 t-31.5 -21t-38 -7.5q-42 0 -71.5 28t-29.5 70zM386 461l-58 -175h115zM263 708h253l276 -708h-259l-37 104h-225l-35 -104h-252z" horiz-adv-x="776" unicode="Ä"/>
<glyph glyph-name="Aring" d="M449 857q0 25 -17.5 42t-42.5 17t-42.5 -17t-17.5 -42t17.5 -42t42.5 -17t42.5 17t17.5 42zM504 857q0 -24 -9.5 -45t-25 -36.5t-36.5 -24t-44 -8.5t-44 8.5t-37 24t-25 36.5t-9 45t9 45t25 36.5t37 24t44 8.5t44 -8.5t36.5 -24t25 -36.5t9.5 -45zM386 461l-58 -175h115z M263 708h253l276 -708h-259l-37 104h-225l-35 -104h-252z" horiz-adv-x="776" unicode="Å"/>
<glyph glyph-name="AE" d="M386 286h106v224h-4zM492 104h-177l-49 -104h-266l354 708h610v-198h-253v-61h237v-185h-237v-66h270v-198h-489v104z" horiz-adv-x="1014" unicode="Æ"/>
<glyph glyph-name="Ccedilla" d="M389 -240q-16 0 -33.5 1.5t-35.5 4.5t-34.5 7.5t-29.5 9.5l34 78q17 -8 41.5 -12t43.5 -4q15 0 27.5 4.5t12.5 16.5q0 11 -11.5 14.5t-25.5 3.5q-23 0 -41 -6l-44 34l62 73q-69 10 -127.5 40.5t-101.5 78.5t-67.5 111.5t-24.5 138.5q0 85 30 154t82 118t122.5 75.5 t150.5 26.5q82 0 155 -26.5t122 -71.5l-146 -176q-20 26 -50 39.5t-67 13.5q-30 0 -56 -10.5t-45.5 -30.5t-30.5 -48.5t-11 -63.5t11.5 -62.5t31 -47.5t45.5 -30.5t55 -10.5q41 0 70.5 17t46.5 40l146 -175q-41 -41 -98.5 -67.5t-129.5 -34.5l-33 -36q5 1 16 1q17 0 35 -3.5 t33 -13.5t24.5 -26.5t9.5 -41.5q0 -31 -16.5 -51t-41 -31.5t-53 -16t-53.5 -4.5z" horiz-adv-x="696" unicode="Ç"/>
<glyph glyph-name="Egrave" d="M108 908h212l111 -144h-169zM66 708h487v-198h-263v-61h247v-185h-247v-66h280v-198h-504v708z" horiz-adv-x="603" unicode="È"/>
<glyph glyph-name="Eacute" d="M192 764l111 144h212l-154 -144h-169zM66 708h487v-198h-263v-61h247v-185h-247v-66h280v-198h-504v708z" horiz-adv-x="603" unicode="É"/>
<glyph glyph-name="Ecircumflex" d="M311 832l-67 -68h-152l137 144h169l134 -144h-154zM66 708h487v-198h-263v-61h247v-185h-247v-66h280v-198h-504v708z" horiz-adv-x="603" unicode="Ê"/>
<glyph glyph-name="Edieresis" d="M87 858q0 20 8 38t22 31.5t32 21.5t39 8q20 0 38 -8t31.5 -21.5t21.5 -31.5t8 -38q0 -21 -8 -38.5t-21.5 -31t-31.5 -21t-38 -7.5q-42 0 -71.5 28t-29.5 70zM336 858q0 20 8 38t22 31.5t32 21.5t39 8q20 0 38 -8t31.5 -21.5t21.5 -31.5t8 -38q0 -21 -8 -38.5t-21.5 -31 t-31.5 -21t-38 -7.5q-42 0 -71.5 28t-29.5 70zM66 708h487v-198h-263v-61h247v-185h-247v-66h280v-198h-504v708z" horiz-adv-x="603" unicode="Ë"/>
<glyph glyph-name="Igrave" d="M-18 908h212l111 -144h-169zM66 708h240v-708h-240v708z" horiz-adv-x="372" unicode="Ì"/>
<glyph glyph-name="Iacute" d="M66 764l111 144h212l-154 -144h-169zM66 708h240v-708h-240v708z" horiz-adv-x="372" unicode="Í"/>
<glyph glyph-name="Icircumflex" d="M187 832l-67 -68h-152l137 144h169l134 -144h-154zM66 708h240v-708h-240v708z" horiz-adv-x="372" unicode="Î"/>
<glyph glyph-name="Idieresis" d="M-36 858q0 20 8 38t22 31.5t32 21.5t39 8q20 0 38 -8t31.5 -21.5t21.5 -31.5t8 -38q0 -21 -8 -38.5t-21.5 -31t-31.5 -21t-38 -7.5q-42 0 -71.5 28t-29.5 70zM213 858q0 20 8 38t22 31.5t32 21.5t39 8q20 0 38 -8t31.5 -21.5t21.5 -31.5t8 -38q0 -21 -8 -38.5t-21.5 -31 t-31.5 -21t-38 -7.5q-42 0 -71.5 28t-29.5 70zM66 708h240v-708h-240v708z" horiz-adv-x="372" unicode="Ï"/>
<glyph glyph-name="Eth" d="M423 428v-142h-128v-82h44q84 0 129 36.5t45 119.5q0 69 -45 107.5t-120 38.5h-53v-78h128zM12 286v142h54v280h264q84 0 160.5 -16.5t135 -57t93.5 -107.5t35 -169q0 -93 -33.5 -161t-89.5 -111.5t-129 -64.5t-152 -21h-284v286h-54z" horiz-adv-x="788" unicode="Ð"/>
<glyph glyph-name="Ntilde" d="M587 900q-2 -30 -10 -55t-22.5 -44t-35 -29.5t-46.5 -10.5q-21 0 -40.5 6t-40.5 17q-24 13 -36 17.5t-27 4.5q-16 0 -25 -10.5t-12 -25.5h-80q3 57 32 96.5t81 39.5q23 0 42 -6.5t41 -17.5q23 -12 36 -17t29 -5t23.5 10t11.5 30h79zM66 708h237l202 -359h4l-10 359h226 v-708h-243l-196 338h-4l10 -338h-226v708z" horiz-adv-x="791" unicode="Ñ"/>
<glyph glyph-name="Ograve" d="M215 908h212l111 -144h-169zM287 358q0 -35 10.5 -64t29 -50t44.5 -32.5t56 -11.5t55.5 11.5t44.5 32.5t29.5 50t10.5 64q0 34 -10.5 62.5t-29.5 48t-44.5 30.5t-55.5 11t-56 -11t-44.5 -30.5t-29 -48t-10.5 -62.5zM34 358q0 85 30 153.5t82.5 116.5t124.5 74t156 26 t156 -26t125 -74t83 -116.5t30 -153.5t-30 -155t-83 -119.5t-125 -76.5t-156 -27t-156 27t-124.5 76.5t-82.5 119.5t-30 155z" horiz-adv-x="855" unicode="Ò"/>
<glyph glyph-name="Oacute" d="M319 764l111 144h212l-154 -144h-169zM287 358q0 -35 10.5 -64t29 -50t44.5 -32.5t56 -11.5t55.5 11.5t44.5 32.5t29.5 50t10.5 64q0 34 -10.5 62.5t-29.5 48t-44.5 30.5t-55.5 11t-56 -11t-44.5 -30.5t-29 -48t-10.5 -62.5zM34 358q0 85 30 153.5t82.5 116.5t124.5 74 t156 26t156 -26t125 -74t83 -116.5t30 -153.5t-30 -155t-83 -119.5t-125 -76.5t-156 -27t-156 27t-124.5 76.5t-82.5 119.5t-30 155z" horiz-adv-x="855" unicode="Ó"/>
<glyph glyph-name="Ocircumflex" d="M426 832l-67 -68h-152l137 144h169l134 -144h-154zM287 358q0 -35 10.5 -64t29 -50t44.5 -32.5t56 -11.5t55.5 11.5t44.5 32.5t29.5 50t10.5 64q0 34 -10.5 62.5t-29.5 48t-44.5 30.5t-55.5 11t-56 -11t-44.5 -30.5t-29 -48t-10.5 -62.5zM34 358q0 85 30 153.5 t82.5 116.5t124.5 74t156 26t156 -26t125 -74t83 -116.5t30 -153.5t-30 -155t-83 -119.5t-125 -76.5t-156 -27t-156 27t-124.5 76.5t-82.5 119.5t-30 155z" horiz-adv-x="855" unicode="Ô"/>
<glyph glyph-name="Otilde" d="M615 900q-2 -30 -10 -55t-22.5 -44t-35 -29.5t-46.5 -10.5q-21 0 -40.5 6t-40.5 17q-24 13 -36 17.5t-27 4.5q-16 0 -25 -10.5t-12 -25.5h-80q3 57 32 96.5t81 39.5q23 0 42 -6.5t41 -17.5q23 -12 36 -17t29 -5t23.5 10t11.5 30h79zM287 358q0 -35 10.5 -64t29 -50 t44.5 -32.5t56 -11.5t55.5 11.5t44.5 32.5t29.5 50t10.5 64q0 34 -10.5 62.5t-29.5 48t-44.5 30.5t-55.5 11t-56 -11t-44.5 -30.5t-29 -48t-10.5 -62.5zM34 358q0 85 30 153.5t82.5 116.5t124.5 74t156 26t156 -26t125 -74t83 -116.5t30 -153.5t-30 -155t-83 -119.5 t-125 -76.5t-156 -27t-156 27t-124.5 76.5t-82.5 119.5t-30 155z" horiz-adv-x="855" unicode="Õ"/>
<glyph glyph-name="Odieresis" d="M203 858q0 20 8 38t22 31.5t32 21.5t39 8q20 0 38 -8t31.5 -21.5t21.5 -31.5t8 -38q0 -21 -8 -38.5t-21.5 -31t-31.5 -21t-38 -7.5q-42 0 -71.5 28t-29.5 70zM452 858q0 20 8 38t22 31.5t32 21.5t39 8q20 0 38 -8t31.5 -21.5t21.5 -31.5t8 -38q0 -21 -8 -38.5t-21.5 -31 t-31.5 -21t-38 -7.5q-42 0 -71.5 28t-29.5 70zM287 358q0 -35 10.5 -64t29 -50t44.5 -32.5t56 -11.5t55.5 11.5t44.5 32.5t29.5 50t10.5 64q0 34 -10.5 62.5t-29.5 48t-44.5 30.5t-55.5 11t-56 -11t-44.5 -30.5t-29 -48t-10.5 -62.5zM34 358q0 85 30 153.5t82.5 116.5 t124.5 74t156 26t156 -26t125 -74t83 -116.5t30 -153.5t-30 -155t-83 -119.5t-125 -76.5t-156 -27t-156 27t-124.5 76.5t-82.5 119.5t-30 155z" horiz-adv-x="855" unicode="Ö"/>
<glyph glyph-name="multiply" d="M164 575q43 -42 85.5 -81.5t85.5 -81.5q42 40 83 81t83 81l56 -52l56 -52q-42 -42 -83.5 -82.5t-83.5 -82.5q44 -41 86.5 -82t86.5 -82q-28 -28 -57 -56t-57 -56q-43 42 -85.5 82.5t-85.5 82.5q-44 -42 -85.5 -82.5t-85.5 -82.5q-28 27 -56 52.5t-56 52.5q42 42 84.5 84 t84.5 84q-43 41 -86 81t-86 81q29 27 58 55.5t58 55.5z" horiz-adv-x="666" unicode="×"/>
<glyph glyph-name="Oslash" d="M425 191q38 0 67 13.5t48 36.5t28.5 53t9.5 63q0 38 -10 63l-201 -220q11 -5 26.5 -7t31.5 -2zM427 522q-38 0 -67 -14t-48 -37t-28.5 -53t-9.5 -63q0 -40 9 -62l201 220q-23 9 -57 9zM427 -20q-62 0 -118.5 15t-95.5 45l-93 -101l-94 80l92 100q-41 47 -62.5 107.5 t-21.5 131.5q0 85 30 153.5t82.5 116.5t125 74t156.5 26q60 0 112.5 -13.5t97.5 -39.5l90 102l94 -81l-89 -96q88 -97 88 -242q0 -85 -30 -155t-83 -119.5t-125 -76.5t-156 -27z" horiz-adv-x="855" unicode="Ø"/>
<glyph glyph-name="Ugrave" d="M175 908h212l111 -144h-169zM384 -20q-83 0 -144.5 23t-102.5 63t-61 94.5t-20 117.5v430h238v-404q0 -51 24.5 -79.5t69.5 -28.5t69.5 28.5t24.5 79.5v404h237v-430q0 -63 -21.5 -117.5t-63.5 -94.5t-104.5 -63t-145.5 -23z" horiz-adv-x="775" unicode="Ù"/>
<glyph glyph-name="Uacute" d="M280 764l111 144h212l-154 -144h-169zM384 -20q-83 0 -144.5 23t-102.5 63t-61 94.5t-20 117.5v430h238v-404q0 -51 24.5 -79.5t69.5 -28.5t69.5 28.5t24.5 79.5v404h237v-430q0 -63 -21.5 -117.5t-63.5 -94.5t-104.5 -63t-145.5 -23z" horiz-adv-x="775" unicode="Ú"/>
<glyph glyph-name="Ucircumflex" d="M388 832l-67 -68h-152l137 144h169l134 -144h-154zM384 -20q-83 0 -144.5 23t-102.5 63t-61 94.5t-20 117.5v430h238v-404q0 -51 24.5 -79.5t69.5 -28.5t69.5 28.5t24.5 79.5v404h237v-430q0 -63 -21.5 -117.5t-63.5 -94.5t-104.5 -63t-145.5 -23z" horiz-adv-x="775" unicode="Û"/>
<glyph glyph-name="Udieresis" d="M165 858q0 20 8 38t22 31.5t32 21.5t39 8q20 0 38 -8t31.5 -21.5t21.5 -31.5t8 -38q0 -21 -8 -38.5t-21.5 -31t-31.5 -21t-38 -7.5q-42 0 -71.5 28t-29.5 70zM414 858q0 20 8 38t22 31.5t32 21.5t39 8q20 0 38 -8t31.5 -21.5t21.5 -31.5t8 -38q0 -21 -8 -38.5t-21.5 -31 t-31.5 -21t-38 -7.5q-42 0 -71.5 28t-29.5 70zM384 -20q-83 0 -144.5 23t-102.5 63t-61 94.5t-20 117.5v430h238v-404q0 -51 24.5 -79.5t69.5 -28.5t69.5 28.5t24.5 79.5v404h237v-430q0 -63 -21.5 -117.5t-63.5 -94.5t-104.5 -63t-145.5 -23z" horiz-adv-x="775" unicode="Ü"/>
<glyph glyph-name="Yacute" d="M286 764l111 144h212l-154 -144h-169zM481 0h-238v290l-267 418h287l112 -208l107 208h280l-281 -418v-290z" horiz-adv-x="738" unicode="Ý"/>
<glyph glyph-name="Thorn" d="M303 422v-114h50q27 0 49.5 13.5t22.5 45.5q0 17 -6 27.5t-16.5 16.5t-23.5 8.5t-26 2.5h-50zM303 127v-127h-237v708h237v-101h67q54 0 106 -11.5t93 -39t66 -73t25 -114.5q0 -66 -24.5 -112t-65 -75t-93 -42t-107.5 -13h-67z" horiz-adv-x="684" unicode="Þ"/>
<glyph glyph-name="germandbls" d="M557 410q59 -15 98 -61.5t39 -125.5q0 -61 -20.5 -106t-56.5 -74.5t-85.5 -44t-108.5 -14.5q-26 0 -54 4t-54 10v169q14 -5 30.5 -7.5t26.5 -2.5q38 0 64 17.5t26 59.5q0 45 -30 63t-75 18h-34v169h33q27 0 47 14.5t20 43.5q0 25 -17.5 38t-43.5 13q-42 0 -60 -27.5 t-18 -65.5v-500h-231v493q0 130 80.5 202.5t238.5 72.5q54 0 105 -12t91 -37t64 -64t24 -93q0 -62 -29.5 -99t-69.5 -53z" horiz-adv-x="727" unicode="ß"/>
<glyph glyph-name="agrave" d="M86 728h212l111 -144h-169zM332 334q0 24 -16.5 35.5t-43.5 11.5q-32 0 -60.5 -13.5t-50.5 -31.5l-115 114q48 46 114 71t136 25q75 0 124 -21t77.5 -58t40 -86t11.5 -104v-277h-209v42h-2q-20 -30 -57 -43t-72 -13q-31 0 -63.5 9t-59 29t-43.5 52t-17 79q0 55 28.5 89.5 t72.5 54t98.5 26.5t106.5 7v2zM334 218q-51 0 -82 -11t-31 -41q0 -11 5 -18.5t13 -12.5t17.5 -7.5t17.5 -2.5q33 0 53 21t20 54v18h-13z" horiz-adv-x="591" unicode="à"/>
<glyph glyph-name="aacute" d="M191 584l111 144h212l-154 -144h-169zM332 334q0 24 -16.5 35.5t-43.5 11.5q-32 0 -60.5 -13.5t-50.5 -31.5l-115 114q48 46 114 71t136 25q75 0 124 -21t77.5 -58t40 -86t11.5 -104v-277h-209v42h-2q-20 -30 -57 -43t-72 -13q-31 0 -63.5 9t-59 29t-43.5 52t-17 79 q0 55 28.5 89.5t72.5 54t98.5 26.5t106.5 7v2zM334 218q-51 0 -82 -11t-31 -41q0 -11 5 -18.5t13 -12.5t17.5 -7.5t17.5 -2.5q33 0 53 21t20 54v18h-13z" horiz-adv-x="591" unicode="á"/>
<glyph glyph-name="acircumflex" d="M300 652l-67 -68h-152l137 144h169l134 -144h-154zM332 334q0 24 -16.5 35.5t-43.5 11.5q-32 0 -60.5 -13.5t-50.5 -31.5l-115 114q48 46 114 71t136 25q75 0 124 -21t77.5 -58t40 -86t11.5 -104v-277h-209v42h-2q-20 -30 -57 -43t-72 -13q-31 0 -63.5 9t-59 29t-43.5 52 t-17 79q0 55 28.5 89.5t72.5 54t98.5 26.5t106.5 7v2zM334 218q-51 0 -82 -11t-31 -41q0 -11 5 -18.5t13 -12.5t17.5 -7.5t17.5 -2.5q33 0 53 21t20 54v18h-13z" horiz-adv-x="591" unicode="â"/>
<glyph glyph-name="atilde" d="M489 720q-2 -30 -10 -55t-22.5 -44t-35 -29.5t-46.5 -10.5q-21 0 -40.5 6t-40.5 17q-24 13 -36 17.5t-27 4.5q-16 0 -25 -10.5t-12 -25.5h-80q3 57 32 96.5t81 39.5q23 0 42 -6.5t41 -17.5q23 -12 36 -17t29 -5t23.5 10t11.5 30h79zM332 334q0 24 -16.5 35.5t-43.5 11.5 q-32 0 -60.5 -13.5t-50.5 -31.5l-115 114q48 46 114 71t136 25q75 0 124 -21t77.5 -58t40 -86t11.5 -104v-277h-209v42h-2q-20 -30 -57 -43t-72 -13q-31 0 -63.5 9t-59 29t-43.5 52t-17 79q0 55 28.5 89.5t72.5 54t98.5 26.5t106.5 7v2zM334 218q-51 0 -82 -11t-31 -41 q0 -11 5 -18.5t13 -12.5t17.5 -7.5t17.5 -2.5q33 0 53 21t20 54v18h-13z" horiz-adv-x="591" unicode="ã"/>
<glyph glyph-name="adieresis" d="M77 678q0 20 8 38t22 31.5t32 21.5t39 8q20 0 38 -8t31.5 -21.5t21.5 -31.5t8 -38q0 -21 -8 -38.5t-21.5 -31t-31.5 -21t-38 -7.5q-42 0 -71.5 28t-29.5 70zM326 678q0 20 8 38t22 31.5t32 21.5t39 8q20 0 38 -8t31.5 -21.5t21.5 -31.5t8 -38q0 -21 -8 -38.5t-21.5 -31 t-31.5 -21t-38 -7.5q-42 0 -71.5 28t-29.5 70zM332 334q0 24 -16.5 35.5t-43.5 11.5q-32 0 -60.5 -13.5t-50.5 -31.5l-115 114q48 46 114 71t136 25q75 0 124 -21t77.5 -58t40 -86t11.5 -104v-277h-209v42h-2q-20 -30 -57 -43t-72 -13q-31 0 -63.5 9t-59 29t-43.5 52t-17 79 q0 55 28.5 89.5t72.5 54t98.5 26.5t106.5 7v2zM334 218q-51 0 -82 -11t-31 -41q0 -11 5 -18.5t13 -12.5t17.5 -7.5t17.5 -2.5q33 0 53 21t20 54v18h-13z" horiz-adv-x="591" unicode="ä"/>
<glyph glyph-name="aring" d="M361 677q0 25 -17.5 42t-42.5 17t-42.5 -17t-17.5 -42t17.5 -42t42.5 -17t42.5 17t17.5 42zM416 677q0 -24 -9.5 -45t-25 -36.5t-36.5 -24t-44 -8.5t-44 8.5t-37 24t-25 36.5t-9 45t9 45t25 36.5t37 24t44 8.5t44 -8.5t36.5 -24t25 -36.5t9.5 -45zM332 334 q0 24 -16.5 35.5t-43.5 11.5q-32 0 -60.5 -13.5t-50.5 -31.5l-115 114q48 46 114 71t136 25q75 0 124 -21t77.5 -58t40 -86t11.5 -104v-277h-209v42h-2q-20 -30 -57 -43t-72 -13q-31 0 -63.5 9t-59 29t-43.5 52t-17 79q0 55 28.5 89.5t72.5 54t98.5 26.5t106.5 7v2zM334 218 q-51 0 -82 -11t-31 -41q0 -11 5 -18.5t13 -12.5t17.5 -7.5t17.5 -2.5q33 0 53 21t20 54v18h-13z" horiz-adv-x="591" unicode="å"/>
<glyph glyph-name="ae" d="M689 333q0 28 -20.5 46t-55.5 18q-38 0 -59 -21t-24 -43h159zM333 216q-50 0 -79.5 -10.5t-29.5 -39.5q0 -20 17.5 -29.5t33.5 -9.5q32 0 51 20t19 52v17h-12zM616 -20q-25 0 -51.5 5.5t-50.5 16t-45 26t-36 34.5q-27 -35 -74.5 -55.5t-129.5 -20.5q-35 0 -71 9t-65.5 29 t-48 52t-18.5 79q0 55 28.5 89.5t72.5 54t98.5 26.5t106.5 7v2q0 24 -16.5 35.5t-43.5 11.5q-32 0 -61 -13.5t-50 -31.5l-115 114q48 46 114 71t136 25q62 0 100 -18t58 -43q28 26 68.5 43.5t88.5 17.5q62 0 113 -21.5t87.5 -60t56.5 -91.5t20 -115q0 -13 -0.5 -26.5 t-1.5 -22.5h-354q1 -14 9.5 -25t21 -19t28 -12t31.5 -4q32 0 53.5 11.5t32.5 25.5l164 -83q-35 -57 -101.5 -90t-154.5 -33z" horiz-adv-x="916" unicode="æ"/>
<glyph glyph-name="ccedilla" d="M283 -240q-16 0 -33.5 1.5t-35.5 4.5t-34.5 7.5t-29.5 9.5l34 78q17 -8 41.5 -12t43.5 -4q15 0 27.5 4.5t12.5 16.5q0 11 -11.5 14.5t-25.5 3.5q-23 0 -41 -6l-44 34l66 78q-50 11 -90.5 35t-69.5 59t-45 80t-16 99q0 64 23.5 116.5t65.5 89.5t98.5 57t122.5 20 q27 0 54.5 -4.5t53 -12.5t47 -18t36.5 -22l-115 -166q-12 14 -31.5 21.5t-37.5 7.5q-17 0 -33 -5.5t-28.5 -17t-20.5 -28t-8 -38.5t8 -38.5t20.5 -27t28.5 -16t33 -5.5q20 0 39 7.5t31 20.5l116 -162q-30 -24 -76 -41t-98 -20l-32 -34q5 1 16 1q17 0 35 -3.5t33 -13.5 t24.5 -26.5t9.5 -41.5q0 -31 -16.5 -51t-41 -31.5t-53 -16t-53.5 -4.5z" horiz-adv-x="526" unicode="ç"/>
<glyph glyph-name="egrave" d="M114 728h212l111 -144h-169zM602 258q0 -13 -0.5 -26.5t-1.5 -22.5h-354q1 -14 9.5 -25t21 -19t28 -12t31.5 -4q32 0 53.5 11.5t32.5 25.5l164 -83q-35 -57 -101.5 -90t-154.5 -33q-57 0 -111 18t-95.5 53.5t-66.5 88.5t-25 123q0 65 23 117.5t62.5 89t93 56.5t114.5 20 q62 0 113 -21.5t87.5 -60t56.5 -91.5t20 -115zM403 333q0 28 -20.5 46t-55.5 18q-38 0 -59 -21t-24 -43h159z" horiz-adv-x="630" unicode="è"/>
<glyph glyph-name="eacute" d="M219 584l111 144h212l-154 -144h-169zM602 258q0 -13 -0.5 -26.5t-1.5 -22.5h-354q1 -14 9.5 -25t21 -19t28 -12t31.5 -4q32 0 53.5 11.5t32.5 25.5l164 -83q-35 -57 -101.5 -90t-154.5 -33q-57 0 -111 18t-95.5 53.5t-66.5 88.5t-25 123q0 65 23 117.5t62.5 89t93 56.5 t114.5 20q62 0 113 -21.5t87.5 -60t56.5 -91.5t20 -115zM403 333q0 28 -20.5 46t-55.5 18q-38 0 -59 -21t-24 -43h159z" horiz-adv-x="630" unicode="é"/>
<glyph glyph-name="ecircumflex" d="M332 652l-67 -68h-152l137 144h169l134 -144h-154zM602 258q0 -13 -0.5 -26.5t-1.5 -22.5h-354q1 -14 9.5 -25t21 -19t28 -12t31.5 -4q32 0 53.5 11.5t32.5 25.5l164 -83q-35 -57 -101.5 -90t-154.5 -33q-57 0 -111 18t-95.5 53.5t-66.5 88.5t-25 123q0 65 23 117.5 t62.5 89t93 56.5t114.5 20q62 0 113 -21.5t87.5 -60t56.5 -91.5t20 -115zM403 333q0 28 -20.5 46t-55.5 18q-38 0 -59 -21t-24 -43h159z" horiz-adv-x="630" unicode="ê"/>
<glyph glyph-name="edieresis" d="M106 678q0 20 8 38t22 31.5t32 21.5t39 8q20 0 38 -8t31.5 -21.5t21.5 -31.5t8 -38q0 -21 -8 -38.5t-21.5 -31t-31.5 -21t-38 -7.5q-42 0 -71.5 28t-29.5 70zM355 678q0 20 8 38t22 31.5t32 21.5t39 8q20 0 38 -8t31.5 -21.5t21.5 -31.5t8 -38q0 -21 -8 -38.5t-21.5 -31 t-31.5 -21t-38 -7.5q-42 0 -71.5 28t-29.5 70zM602 258q0 -13 -0.5 -26.5t-1.5 -22.5h-354q1 -14 9.5 -25t21 -19t28 -12t31.5 -4q32 0 53.5 11.5t32.5 25.5l164 -83q-35 -57 -101.5 -90t-154.5 -33q-57 0 -111 18t-95.5 53.5t-66.5 88.5t-25 123q0 65 23 117.5t62.5 89 t93 56.5t114.5 20q62 0 113 -21.5t87.5 -60t56.5 -91.5t20 -115zM403 333q0 28 -20.5 46t-55.5 18q-38 0 -59 -21t-24 -43h159z" horiz-adv-x="630" unicode="ë"/>
<glyph glyph-name="igrave" d="M-40 728h212l111 -144h-169zM54 526h231v-526h-231v526z" horiz-adv-x="339" unicode="ì"/>
<glyph glyph-name="iacute" d="M62 584l111 144h212l-154 -144h-169zM54 526h231v-526h-231v526z" horiz-adv-x="339" unicode="í"/>
<glyph glyph-name="icircumflex" d="M172 652l-67 -68h-152l137 144h169l134 -144h-154zM54 526h231v-526h-231v526z" horiz-adv-x="339" unicode="î"/>
<glyph glyph-name="idieresis" d="M-52 678q0 20 8 38t22 31.5t32 21.5t39 8q20 0 38 -8t31.5 -21.5t21.5 -31.5t8 -38q0 -21 -8 -38.5t-21.5 -31t-31.5 -21t-38 -7.5q-42 0 -71.5 28t-29.5 70zM197 678q0 20 8 38t22 31.5t32 21.5t39 8q20 0 38 -8t31.5 -21.5t21.5 -31.5t8 -38q0 -21 -8 -38.5t-21.5 -31 t-31.5 -21t-38 -7.5q-42 0 -71.5 28t-29.5 70zM54 526h231v-526h-231v526z" horiz-adv-x="339" unicode="ï"/>
<glyph glyph-name="eth" d="M351 532q-15 15 -29 27t-26 22l-107 -43l-110 89l107 43q-8 7 -29 21.5t-41 27.5l176 94q29 -20 48.5 -36.5t36.5 -31.5l112 45l121 -94l-127 -49q70 -74 109.5 -157.5t39.5 -192.5q0 -81 -24.5 -140.5t-66 -99t-96 -58.5t-114.5 -19q-59 0 -113.5 19t-95.5 55.5 t-65.5 89.5t-24.5 121q0 64 21.5 114.5t59.5 85t89.5 52.5t110.5 18q6 0 15 -1t21 -3zM331 352q-38 0 -61.5 -26t-23.5 -61q0 -37 24 -63t62 -26t62 26t24 63q0 35 -24.5 61t-62.5 26z" horiz-adv-x="664" unicode="ð"/>
<glyph glyph-name="ntilde" d="M519 720q-2 -30 -10 -55t-22.5 -44t-35 -29.5t-46.5 -10.5q-21 0 -40.5 6t-40.5 17q-24 13 -36 17.5t-27 4.5q-16 0 -25 -10.5t-12 -25.5h-80q3 57 32 96.5t81 39.5q23 0 42 -6.5t41 -17.5q23 -12 36 -17t29 -5t23.5 10t11.5 30h79zM53 526h225v-58h2q20 29 59.5 50.5 t90.5 21.5q55 0 91.5 -20t58 -51.5t30 -70.5t8.5 -78v-320h-232v280q0 40 -12.5 56t-37.5 16q-23 0 -37.5 -18.5t-14.5 -53.5v-280h-231v526z" horiz-adv-x="666" unicode="ñ"/>
<glyph glyph-name="ograve" d="M118 728h212l111 -144h-169zM331 352q-38 0 -61.5 -26t-23.5 -61q0 -37 24 -63t62 -26t62 26t24 63q0 35 -24.5 61t-62.5 26zM632 265q0 -68 -24.5 -121t-66 -89.5t-96 -55.5t-114.5 -19q-59 0 -113.5 19t-95.5 55.5t-65.5 89.5t-24.5 121q0 67 24.5 119.5t65.5 88.5 t95.5 54.5t113.5 18.5q60 0 114.5 -18.5t96 -54.5t66 -88.5t24.5 -119.5z" horiz-adv-x="664" unicode="ò"/>
<glyph glyph-name="oacute" d="M224 584l111 144h212l-154 -144h-169zM331 352q-38 0 -61.5 -26t-23.5 -61q0 -37 24 -63t62 -26t62 26t24 63q0 35 -24.5 61t-62.5 26zM632 265q0 -68 -24.5 -121t-66 -89.5t-96 -55.5t-114.5 -19q-59 0 -113.5 19t-95.5 55.5t-65.5 89.5t-24.5 121q0 67 24.5 119.5 t65.5 88.5t95.5 54.5t113.5 18.5q60 0 114.5 -18.5t96 -54.5t66 -88.5t24.5 -119.5z" horiz-adv-x="664" unicode="ó"/>
<glyph glyph-name="ocircumflex" d="M332 652l-67 -68h-152l137 144h169l134 -144h-154zM331 352q-38 0 -61.5 -26t-23.5 -61q0 -37 24 -63t62 -26t62 26t24 63q0 35 -24.5 61t-62.5 26zM632 265q0 -68 -24.5 -121t-66 -89.5t-96 -55.5t-114.5 -19q-59 0 -113.5 19t-95.5 55.5t-65.5 89.5t-24.5 121 q0 67 24.5 119.5t65.5 88.5t95.5 54.5t113.5 18.5q60 0 114.5 -18.5t96 -54.5t66 -88.5t24.5 -119.5z" horiz-adv-x="664" unicode="ô"/>
<glyph glyph-name="otilde" d="M521 720q-2 -30 -10 -55t-22.5 -44t-35 -29.5t-46.5 -10.5q-21 0 -40.5 6t-40.5 17q-24 13 -36 17.5t-27 4.5q-16 0 -25 -10.5t-12 -25.5h-80q3 57 32 96.5t81 39.5q23 0 42 -6.5t41 -17.5q23 -12 36 -17t29 -5t23.5 10t11.5 30h79zM331 352q-38 0 -61.5 -26t-23.5 -61 q0 -37 24 -63t62 -26t62 26t24 63q0 35 -24.5 61t-62.5 26zM632 265q0 -68 -24.5 -121t-66 -89.5t-96 -55.5t-114.5 -19q-59 0 -113.5 19t-95.5 55.5t-65.5 89.5t-24.5 121q0 67 24.5 119.5t65.5 88.5t95.5 54.5t113.5 18.5q60 0 114.5 -18.5t96 -54.5t66 -88.5t24.5 -119.5 z" horiz-adv-x="664" unicode="õ"/>
<glyph glyph-name="odieresis" d="M108 678q0 20 8 38t22 31.5t32 21.5t39 8q20 0 38 -8t31.5 -21.5t21.5 -31.5t8 -38q0 -21 -8 -38.5t-21.5 -31t-31.5 -21t-38 -7.5q-42 0 -71.5 28t-29.5 70zM357 678q0 20 8 38t22 31.5t32 21.5t39 8q20 0 38 -8t31.5 -21.5t21.5 -31.5t8 -38q0 -21 -8 -38.5t-21.5 -31 t-31.5 -21t-38 -7.5q-42 0 -71.5 28t-29.5 70zM331 352q-38 0 -61.5 -26t-23.5 -61q0 -37 24 -63t62 -26t62 26t24 63q0 35 -24.5 61t-62.5 26zM632 265q0 -68 -24.5 -121t-66 -89.5t-96 -55.5t-114.5 -19q-59 0 -113.5 19t-95.5 55.5t-65.5 89.5t-24.5 121q0 67 24.5 119.5 t65.5 88.5t95.5 54.5t113.5 18.5q60 0 114.5 -18.5t96 -54.5t66 -88.5t24.5 -119.5z" horiz-adv-x="664" unicode="ö"/>
<glyph glyph-name="divide" d="M79 230v147h508v-147h-508zM235 111q0 19 8 36t21.5 29.5t31.5 20t38 7.5t37.5 -7.5t31 -20t21 -29.5t7.5 -36t-7.5 -36.5t-21 -30.5t-31 -20.5t-37.5 -7.5t-38 7.5t-31.5 20.5t-21.5 30.5t-8 36.5zM235 495q0 19 8 36t21.5 29.5t31.5 20t38 7.5t37.5 -7.5t31 -20 t21 -29.5t7.5 -36q0 -40 -28.5 -67.5t-68.5 -27.5q-20 0 -38 7.5t-31.5 20t-21.5 30t-8 37.5z" horiz-adv-x="666" unicode="÷"/>
<glyph glyph-name="oslash" d="M324 366q-41 0 -64.5 -25.5t-23.5 -64.5q0 -12 2 -20l107 108q-6 2 -21 2zM334 170q41 0 64.5 25t23.5 64q0 13 -3 21l-107 -107q6 -3 22 -3zM580 422q27 -30 39.5 -70.5t12.5 -86.5q0 -65 -24 -117.5t-65 -90t-96 -57.5t-116 -20q-42 0 -82.5 10.5t-72.5 32.5l-80 -80 l-86 84l76 75q-25 29 -39.5 71t-14.5 91q0 65 23.5 117.5t64.5 89t95 56t116 19.5q45 0 86 -11t72 -32l73 71l87 -84z" horiz-adv-x="664" unicode="ø"/>
<glyph glyph-name="ugrave" d="M109 728h212l111 -144h-169zM610 0h-225v58h-2q-20 -29 -59.5 -50.5t-90.5 -21.5q-56 0 -92 19.5t-57.5 51t-30 71t-8.5 78.5v320h232v-278q0 -40 12.5 -56t37.5 -16q23 0 37.5 18.5t14.5 53.5v278h231v-526z" horiz-adv-x="663" unicode="ù"/>
<glyph glyph-name="uacute" d="M232 584l111 144h212l-154 -144h-169zM610 0h-225v58h-2q-20 -29 -59.5 -50.5t-90.5 -21.5q-56 0 -92 19.5t-57.5 51t-30 71t-8.5 78.5v320h232v-278q0 -40 12.5 -56t37.5 -16q23 0 37.5 18.5t14.5 53.5v278h231v-526z" horiz-adv-x="663" unicode="ú"/>
<glyph glyph-name="ucircumflex" d="M327 652l-67 -68h-152l137 144h169l134 -144h-154zM610 0h-225v58h-2q-20 -29 -59.5 -50.5t-90.5 -21.5q-56 0 -92 19.5t-57.5 51t-30 71t-8.5 78.5v320h232v-278q0 -40 12.5 -56t37.5 -16q23 0 37.5 18.5t14.5 53.5v278h231v-526z" horiz-adv-x="663" unicode="û"/>
<glyph glyph-name="udieresis" d="M104 678q0 20 8 38t22 31.5t32 21.5t39 8q20 0 38 -8t31.5 -21.5t21.5 -31.5t8 -38q0 -21 -8 -38.5t-21.5 -31t-31.5 -21t-38 -7.5q-42 0 -71.5 28t-29.5 70zM353 678q0 20 8 38t22 31.5t32 21.5t39 8q20 0 38 -8t31.5 -21.5t21.5 -31.5t8 -38q0 -21 -8 -38.5t-21.5 -31 t-31.5 -21t-38 -7.5q-42 0 -71.5 28t-29.5 70zM610 0h-225v58h-2q-20 -29 -59.5 -50.5t-90.5 -21.5q-56 0 -92 19.5t-57.5 51t-30 71t-8.5 78.5v320h232v-278q0 -40 12.5 -56t37.5 -16q23 0 37.5 18.5t14.5 53.5v278h231v-526z" horiz-adv-x="663" unicode="ü"/>
<glyph glyph-name="yacute" d="M238 584l111 144h212l-154 -144h-169zM205 20l-213 506h256l78 -277h4l69 277h247l-216 -558q-19 -49 -43 -87.5t-56 -65.5t-75.5 -41t-101.5 -14q-18 0 -37 1.5t-36.5 4t-32.5 5t-25 5.5l29 190q13 -5 31.5 -8.5t33.5 -3.5q38 0 56.5 15.5t27.5 39.5z" horiz-adv-x="638" unicode="ý"/>
<glyph glyph-name="thorn" d="M448 265q0 35 -22 61t-64 26q-41 0 -65.5 -26t-24.5 -61q0 -37 24.5 -63t65.5 -26q42 0 64 25.5t22 63.5zM422 540q59 0 104 -24t75 -63t45.5 -88t15.5 -100q0 -52 -15.5 -102t-45.5 -89.5t-74.5 -63.5t-103.5 -24q-39 0 -77 14.5t-62 40.5h-2v-281h-229v996h229v-271h2 q24 26 62 40.5t76 14.5z" horiz-adv-x="694" unicode="þ"/>
<glyph glyph-name="ydieresis" d="M103 678q0 20 8 38t22 31.5t32 21.5t39 8q20 0 38 -8t31.5 -21.5t21.5 -31.5t8 -38q0 -21 -8 -38.5t-21.5 -31t-31.5 -21t-38 -7.5q-42 0 -71.5 28t-29.5 70zM352 678q0 20 8 38t22 31.5t32 21.5t39 8q20 0 38 -8t31.5 -21.5t21.5 -31.5t8 -38q0 -21 -8 -38.5t-21.5 -31 t-31.5 -21t-38 -7.5q-42 0 -71.5 28t-29.5 70zM205 20l-213 506h256l78 -277h4l69 277h247l-216 -558q-19 -49 -43 -87.5t-56 -65.5t-75.5 -41t-101.5 -14q-18 0 -37 1.5t-36.5 4t-32.5 5t-25 5.5l29 190q13 -5 31.5 -8.5t33.5 -3.5q38 0 56.5 15.5t27.5 39.5z" horiz-adv-x="638" unicode="ÿ"/>
<glyph glyph-name="Amacron" d="M206 887h360v-96h-360v96zM386 461l-58 -175h115zM263 708h253l276 -708h-259l-37 104h-225l-35 -104h-252z" horiz-adv-x="776" unicode="Ā"/>
<glyph glyph-name="amacron" d="M123 707h360v-96h-360v96zM332 334q0 24 -16.5 35.5t-43.5 11.5q-32 0 -60.5 -13.5t-50.5 -31.5l-115 114q48 46 114 71t136 25q75 0 124 -21t77.5 -58t40 -86t11.5 -104v-277h-209v42h-2q-20 -30 -57 -43t-72 -13q-31 0 -63.5 9t-59 29t-43.5 52t-17 79q0 55 28.5 89.5 t72.5 54t98.5 26.5t106.5 7v2zM334 218q-51 0 -82 -11t-31 -41q0 -11 5 -18.5t13 -12.5t17.5 -7.5t17.5 -2.5q33 0 53 21t20 54v18h-13z" horiz-adv-x="591" unicode="ā"/>
<glyph glyph-name="Abreve" d="M385 764q-33 0 -64 6.5t-55.5 23t-41 44.5t-19.5 70h110q1 -12 8.5 -20t17.5 -12t22 -5.5t22 -1.5t22 1.5t22.5 5.5t17.5 12t8 20h110q-3 -42 -19 -70t-41 -44.5t-56 -23t-64 -6.5zM386 461l-58 -175h115zM263 708h253l276 -708h-259l-37 104h-225l-35 -104h-252z" horiz-adv-x="776" unicode="Ă"/>
<glyph glyph-name="abreve" d="M305 584q-33 0 -64 6.5t-55.5 23t-41 44.5t-19.5 70h110q1 -12 8.5 -20t17.5 -12t22 -5.5t22 -1.5t22 1.5t22.5 5.5t17.5 12t8 20h110q-3 -42 -19 -70t-41 -44.5t-56 -23t-64 -6.5zM332 334q0 24 -16.5 35.5t-43.5 11.5q-32 0 -60.5 -13.5t-50.5 -31.5l-115 114 q48 46 114 71t136 25q75 0 124 -21t77.5 -58t40 -86t11.5 -104v-277h-209v42h-2q-20 -30 -57 -43t-72 -13q-31 0 -63.5 9t-59 29t-43.5 52t-17 79q0 55 28.5 89.5t72.5 54t98.5 26.5t106.5 7v2zM334 218q-51 0 -82 -11t-31 -41q0 -11 5 -18.5t13 -12.5t17.5 -7.5t17.5 -2.5 q33 0 53 21t20 54v18h-13z" horiz-adv-x="591" unicode="ă"/>
<glyph glyph-name="Aogonek" d="M386 461l-58 -175h115zM541 -240q-20 0 -42.5 4t-41.5 14.5t-31 29t-12 46.5q0 24 11 45t28 39t38.5 33.5t41.5 28.5l-37 104h-225l-35 -104h-252l279 708h253l276 -708h-122q-64 -45 -88.5 -69.5t-24.5 -42.5q0 -20 23 -20q26 0 56 18l44 -83q-28 -18 -64.5 -30.5 t-74.5 -12.5z" horiz-adv-x="776" unicode="Ą"/>
<glyph glyph-name="aogonek" d="M334 218q-51 0 -82 -11t-31 -41q0 -11 5 -18.5t13 -12.5t17.5 -7.5t17.5 -2.5q33 0 53 21t20 54v18h-13zM347 -240q-20 0 -42.5 4t-41.5 14.5t-31 29t-12 46.5q0 24 11 45t28 39t38.5 33.5t41.5 28.5h1v42h-2q-20 -30 -57 -43t-72 -13q-31 0 -63.5 9t-59 29t-43.5 52 t-17 79q0 55 28.5 89.5t72.5 54t98.5 26.5t106.5 7v2q0 24 -16.5 35.5t-43.5 11.5q-32 0 -60.5 -13.5t-50.5 -31.5l-115 114q48 46 114 71t136 25q75 0 124 -21t77.5 -58t40 -86t11.5 -104v-277h-73q-64 -45 -88.5 -69.5t-24.5 -42.5q0 -20 23 -20q26 0 56 18l44 -83 q-28 -18 -64.5 -30.5t-74.5 -12.5z" horiz-adv-x="591" unicode="ą"/>
<glyph glyph-name="Cacute" d="M315 764l111 144h212l-154 -144h-169zM34 354q0 85 30 154t82 118t122.5 75.5t150.5 26.5q82 0 155 -26.5t122 -71.5l-146 -176q-20 26 -50 39.5t-67 13.5q-30 0 -56 -10.5t-45.5 -30.5t-30.5 -48.5t-11 -63.5t11.5 -62.5t31 -47.5t45.5 -30.5t55 -10.5q41 0 70.5 17 t46.5 40l146 -175q-48 -48 -118 -76.5t-159 -28.5q-80 0 -150.5 27t-122.5 76.5t-82 118t-30 152.5z" horiz-adv-x="696" unicode="Ć"/>
<glyph glyph-name="cacute" d="M232 584l111 144h212l-154 -144h-169zM339 -20q-67 0 -123 20t-97 57t-64 89t-23 117q0 64 23.5 116.5t65.5 89.5t98.5 57t122.5 20q27 0 54.5 -4.5t53 -12.5t47 -18t36.5 -22l-115 -166q-12 14 -31.5 21.5t-37.5 7.5q-17 0 -33 -5.5t-28.5 -17t-20.5 -28t-8 -38.5 t8 -38.5t20.5 -27t28.5 -16t33 -5.5q20 0 39 7.5t31 20.5l116 -162q-33 -26 -85.5 -44t-110.5 -18z" horiz-adv-x="526" unicode="ć"/>
<glyph glyph-name="Ccircumflex" d="M432 832l-67 -68h-152l137 144h169l134 -144h-154zM34 354q0 85 30 154t82 118t122.5 75.5t150.5 26.5q82 0 155 -26.5t122 -71.5l-146 -176q-20 26 -50 39.5t-67 13.5q-30 0 -56 -10.5t-45.5 -30.5t-30.5 -48.5t-11 -63.5t11.5 -62.5t31 -47.5t45.5 -30.5t55 -10.5 q41 0 70.5 17t46.5 40l146 -175q-48 -48 -118 -76.5t-159 -28.5q-80 0 -150.5 27t-122.5 76.5t-82 118t-30 152.5z" horiz-adv-x="696" unicode="Ĉ"/>
<glyph glyph-name="ccircumflex" d="M339 652l-67 -68h-152l137 144h169l134 -144h-154zM339 -20q-67 0 -123 20t-97 57t-64 89t-23 117q0 64 23.5 116.5t65.5 89.5t98.5 57t122.5 20q27 0 54.5 -4.5t53 -12.5t47 -18t36.5 -22l-115 -166q-12 14 -31.5 21.5t-37.5 7.5q-17 0 -33 -5.5t-28.5 -17t-20.5 -28 t-8 -38.5t8 -38.5t20.5 -27t28.5 -16t33 -5.5q20 0 39 7.5t31 20.5l116 -162q-33 -26 -85.5 -44t-110.5 -18z" horiz-adv-x="526" unicode="ĉ"/>
<glyph glyph-name="Cdotaccent" d="M318 858q0 22 8.5 41t23.5 33.5t34.5 23t42.5 8.5q21 0 40.5 -8.5t34 -23t23 -33.5t8.5 -41t-8.5 -41t-23 -33.5t-34 -22.5t-40.5 -8q-23 0 -42.5 8t-34.5 22.5t-23.5 33.5t-8.5 41zM34 354q0 85 30 154t82 118t122.5 75.5t150.5 26.5q82 0 155 -26.5t122 -71.5 l-146 -176q-20 26 -50 39.5t-67 13.5q-30 0 -56 -10.5t-45.5 -30.5t-30.5 -48.5t-11 -63.5t11.5 -62.5t31 -47.5t45.5 -30.5t55 -10.5q41 0 70.5 17t46.5 40l146 -175q-48 -48 -118 -76.5t-159 -28.5q-80 0 -150.5 27t-122.5 76.5t-82 118t-30 152.5z" horiz-adv-x="696" unicode="Ċ"/>
<glyph glyph-name="cdotaccent" d="M232 678q0 22 8.5 41t23.5 33.5t34.5 23t42.5 8.5q21 0 40.5 -8.5t34 -23t23 -33.5t8.5 -41t-8.5 -41t-23 -33.5t-34 -22.5t-40.5 -8q-23 0 -42.5 8t-34.5 22.5t-23.5 33.5t-8.5 41zM339 -20q-67 0 -123 20t-97 57t-64 89t-23 117q0 64 23.5 116.5t65.5 89.5t98.5 57 t122.5 20q27 0 54.5 -4.5t53 -12.5t47 -18t36.5 -22l-115 -166q-12 14 -31.5 21.5t-37.5 7.5q-17 0 -33 -5.5t-28.5 -17t-20.5 -28t-8 -38.5t8 -38.5t20.5 -27t28.5 -16t33 -5.5q20 0 39 7.5t31 20.5l116 -162q-33 -26 -85.5 -44t-110.5 -18z" horiz-adv-x="526" unicode="ċ"/>
<glyph glyph-name="Ccaron" d="M654 908l-134 -144h-169l-137 144h152l67 -68l67 68h154zM34 354q0 85 30 154t82 118t122.5 75.5t150.5 26.5q82 0 155 -26.5t122 -71.5l-146 -176q-20 26 -50 39.5t-67 13.5q-30 0 -56 -10.5t-45.5 -30.5t-30.5 -48.5t-11 -63.5t11.5 -62.5t31 -47.5t45.5 -30.5 t55 -10.5q41 0 70.5 17t46.5 40l146 -175q-48 -48 -118 -76.5t-159 -28.5q-80 0 -150.5 27t-122.5 76.5t-82 118t-30 152.5z" horiz-adv-x="696" unicode="Č"/>
<glyph glyph-name="ccaron" d="M560 728l-134 -144h-169l-137 144h152l67 -68l67 68h154zM339 -20q-67 0 -123 20t-97 57t-64 89t-23 117q0 64 23.5 116.5t65.5 89.5t98.5 57t122.5 20q27 0 54.5 -4.5t53 -12.5t47 -18t36.5 -22l-115 -166q-12 14 -31.5 21.5t-37.5 7.5q-17 0 -33 -5.5t-28.5 -17 t-20.5 -28t-8 -38.5t8 -38.5t20.5 -27t28.5 -16t33 -5.5q20 0 39 7.5t31 20.5l116 -162q-33 -26 -85.5 -44t-110.5 -18z" horiz-adv-x="526" unicode="č"/>
<glyph glyph-name="Dcaron" d="M581 908l-134 -144h-169l-137 144h152l67 -68l67 68h154zM295 506v-302h44q84 0 129 36.5t45 119.5q0 69 -45 107.5t-120 38.5h-53zM66 0v708h264q84 0 160.5 -16.5t135 -57t93.5 -107.5t35 -169q0 -93 -33.5 -161t-89.5 -111.5t-129 -64.5t-152 -21h-284z" horiz-adv-x="788" unicode="Ď"/>
<glyph glyph-name="dcaron" d="M909 708l-87 -177h-164l62 177h189zM246 265q0 -38 22 -63.5t64 -25.5q41 0 65.5 26t24.5 63q0 35 -24.5 61t-65.5 26q-42 0 -64 -26t-22 -61zM32 265q0 51 15.5 100t45.5 88t75 63t104 24q38 0 76 -14.5t61 -41.5h2v272h230v-756h-207v55h-2q-23 -32 -67 -50.5 t-93 -18.5q-59 0 -104 24t-75 63.5t-45.5 89.5t-15.5 102z" horiz-adv-x="694" unicode="ď"/>
<glyph glyph-name="Dcroat" d="M423 428v-142h-128v-82h44q84 0 129 36.5t45 119.5q0 69 -45 107.5t-120 38.5h-53v-78h128zM12 286v142h54v280h264q84 0 160.5 -16.5t135 -57t93.5 -107.5t35 -169q0 -93 -33.5 -161t-89.5 -111.5t-129 -64.5t-152 -21h-284v286h-54z" horiz-adv-x="788" unicode="Đ"/>
<glyph glyph-name="dcroat" d="M246 265q0 -38 22 -63.5t64 -25.5q41 0 65.5 26t24.5 63q0 35 -24.5 61t-65.5 26q-42 0 -64 -26t-22 -61zM293 680h118v76h230v-76h33v-110h-33v-570h-207v55h-2q-23 -32 -67 -50.5t-93 -18.5q-59 0 -104 24t-75 63.5t-45.5 89.5t-15.5 102q0 51 15.5 100t45.5 88t75 63 t104 24q38 0 76 -14.5t61 -41.5h2v86h-118v110z" horiz-adv-x="694" unicode="đ"/>
<glyph glyph-name="Emacron" d="M126 887h360v-96h-360v96zM66 708h487v-198h-263v-61h247v-185h-247v-66h280v-198h-504v708z" horiz-adv-x="603" unicode="Ē"/>
<glyph glyph-name="emacron" d="M152 707h360v-96h-360v96zM602 258q0 -13 -0.5 -26.5t-1.5 -22.5h-354q1 -14 9.5 -25t21 -19t28 -12t31.5 -4q32 0 53.5 11.5t32.5 25.5l164 -83q-35 -57 -101.5 -90t-154.5 -33q-57 0 -111 18t-95.5 53.5t-66.5 88.5t-25 123q0 65 23 117.5t62.5 89t93 56.5t114.5 20 q62 0 113 -21.5t87.5 -60t56.5 -91.5t20 -115zM403 333q0 28 -20.5 46t-55.5 18q-38 0 -59 -21t-24 -43h159z" horiz-adv-x="630" unicode="ē"/>
<glyph glyph-name="Ebreve" d="M313 764q-33 0 -64 6.5t-55.5 23t-41 44.5t-19.5 70h110q1 -12 8.5 -20t17.5 -12t22 -5.5t22 -1.5t22 1.5t22.5 5.5t17.5 12t8 20h110q-3 -42 -19 -70t-41 -44.5t-56 -23t-64 -6.5zM66 708h487v-198h-263v-61h247v-185h-247v-66h280v-198h-504v708z" horiz-adv-x="603" unicode="Ĕ"/>
<glyph glyph-name="ebreve" d="M330 584q-33 0 -64 6.5t-55.5 23t-41 44.5t-19.5 70h110q1 -12 8.5 -20t17.5 -12t22 -5.5t22 -1.5t22 1.5t22.5 5.5t17.5 12t8 20h110q-3 -42 -19 -70t-41 -44.5t-56 -23t-64 -6.5zM602 258q0 -13 -0.5 -26.5t-1.5 -22.5h-354q1 -14 9.5 -25t21 -19t28 -12t31.5 -4 q32 0 53.5 11.5t32.5 25.5l164 -83q-35 -57 -101.5 -90t-154.5 -33q-57 0 -111 18t-95.5 53.5t-66.5 88.5t-25 123q0 65 23 117.5t62.5 89t93 56.5t114.5 20q62 0 113 -21.5t87.5 -60t56.5 -91.5t20 -115zM403 333q0 28 -20.5 46t-55.5 18q-38 0 -59 -21t-24 -43h159z" horiz-adv-x="630" unicode="ĕ"/>
<glyph glyph-name="Edotaccent" d="M207 858q0 22 8.5 41t23.5 33.5t34.5 23t42.5 8.5q21 0 40.5 -8.5t34 -23t23 -33.5t8.5 -41t-8.5 -41t-23 -33.5t-34 -22.5t-40.5 -8q-23 0 -42.5 8t-34.5 22.5t-23.5 33.5t-8.5 41zM66 708h487v-198h-263v-61h247v-185h-247v-66h280v-198h-504v708z" horiz-adv-x="603" unicode="Ė"/>
<glyph glyph-name="edotaccent" d="M222 678q0 22 8.5 41t23.5 33.5t34.5 23t42.5 8.5q21 0 40.5 -8.5t34 -23t23 -33.5t8.5 -41t-8.5 -41t-23 -33.5t-34 -22.5t-40.5 -8q-23 0 -42.5 8t-34.5 22.5t-23.5 33.5t-8.5 41zM602 258q0 -13 -0.5 -26.5t-1.5 -22.5h-354q1 -14 9.5 -25t21 -19t28 -12t31.5 -4 q32 0 53.5 11.5t32.5 25.5l164 -83q-35 -57 -101.5 -90t-154.5 -33q-57 0 -111 18t-95.5 53.5t-66.5 88.5t-25 123q0 65 23 117.5t62.5 89t93 56.5t114.5 20q62 0 113 -21.5t87.5 -60t56.5 -91.5t20 -115zM403 333q0 28 -20.5 46t-55.5 18q-38 0 -59 -21t-24 -43h159z" horiz-adv-x="630" unicode="ė"/>
<glyph glyph-name="Eogonek" d="M66 708h487v-198h-263v-61h247v-185h-247v-66h280v-198h-22q-64 -45 -88.5 -69.5t-24.5 -42.5q0 -20 23 -20q26 0 56 18l44 -83q-28 -18 -64.5 -30.5t-74.5 -12.5q-20 0 -42.5 4t-41.5 14.5t-31 29t-12 46.5q0 24 11 45t28 39t38.5 33.5t41.5 28.5h-345v708z" horiz-adv-x="603" unicode="Ę"/>
<glyph glyph-name="eogonek" d="M403 333q0 28 -20.5 46t-55.5 18q-38 0 -59 -21t-24 -43h159zM305 -240q-20 0 -42.5 4t-41.5 14.5t-31 29t-12 46.5q0 21 8 39t21.5 34.5t30.5 31t35 26.5q-49 7 -92.5 28.5t-76.5 56.5t-52.5 83.5t-19.5 109.5q0 65 23 117.5t62.5 89t93 56.5t114.5 20q62 0 113 -21.5 t87.5 -60t56.5 -91.5t20 -115q0 -13 -0.5 -26.5t-1.5 -22.5h-354q1 -14 9.5 -25t21 -19t28 -12t31.5 -4q32 0 53.5 11.5t32.5 25.5l164 -83q-26 -42 -68 -70.5t-98 -41.5q-28 -20 -47 -35.5t-30.5 -27.5t-16.5 -21.5t-5 -18.5q0 -20 23 -20q26 0 56 18l44 -83 q-28 -18 -64.5 -30.5t-74.5 -12.5z" horiz-adv-x="630" unicode="ę"/>
<glyph glyph-name="Ecaron" d="M533 908l-134 -144h-169l-137 144h152l67 -68l67 68h154zM66 708h487v-198h-263v-61h247v-185h-247v-66h280v-198h-504v708z" horiz-adv-x="603" unicode="Ě"/>
<glyph glyph-name="ecaron" d="M551 728l-134 -144h-169l-137 144h152l67 -68l67 68h154zM602 258q0 -13 -0.5 -26.5t-1.5 -22.5h-354q1 -14 9.5 -25t21 -19t28 -12t31.5 -4q32 0 53.5 11.5t32.5 25.5l164 -83q-35 -57 -101.5 -90t-154.5 -33q-57 0 -111 18t-95.5 53.5t-66.5 88.5t-25 123 q0 65 23 117.5t62.5 89t93 56.5t114.5 20q62 0 113 -21.5t87.5 -60t56.5 -91.5t20 -115zM403 333q0 28 -20.5 46t-55.5 18q-38 0 -59 -21t-24 -43h159z" horiz-adv-x="630" unicode="ě"/>
<glyph glyph-name="Gcircumflex" d="M430 832l-67 -68h-152l137 144h169l134 -144h-154zM426 -18q-84 0 -155.5 26t-124 74.5t-82.5 117.5t-30 154t30 154t82 118t122 75.5t150 26.5q83 0 157.5 -27t121.5 -74l-139 -167q-22 26 -52 41.5t-74 15.5q-29 0 -56.5 -11.5t-48.5 -33t-34 -51.5t-13 -67 q0 -74 38.5 -120.5t123.5 -46.5q15 0 31 2.5t25 7.5v54h-114v187h325v-387q-25 -15 -57.5 -27.5t-69 -21.5t-76.5 -14.5t-80 -5.5z" horiz-adv-x="762" unicode="Ĝ"/>
<glyph glyph-name="gcircumflex" d="M360 652l-67 -68h-152l137 144h169l134 -144h-154zM246 265q0 -38 22 -63.5t64 -25.5q41 0 65.5 26t24.5 63q0 35 -24.5 61t-65.5 26q-42 0 -64 -26t-22 -61zM32 265q0 51 15.5 100t45.5 88t75 63t104 24q42 0 82.5 -16t66.5 -51h3v53h217v-472q0 -86 -28 -143 t-74.5 -90.5t-105.5 -47t-120 -13.5q-75 0 -150 19.5t-131 57.5l101 153q38 -29 80 -42.5t80 -13.5q25 0 47.5 6.5t39.5 19t27 31t10 42.5v23h-3q-19 -22 -56.5 -39t-85.5 -17q-61 0 -106 21.5t-75 58t-44.5 84.5t-14.5 101z" horiz-adv-x="697" unicode="ĝ"/>
<glyph glyph-name="Gbreve" d="M421 764q-33 0 -64 6.5t-55.5 23t-41 44.5t-19.5 70h110q1 -12 8.5 -20t17.5 -12t22 -5.5t22 -1.5t22 1.5t22.5 5.5t17.5 12t8 20h110q-3 -42 -19 -70t-41 -44.5t-56 -23t-64 -6.5zM426 -18q-84 0 -155.5 26t-124 74.5t-82.5 117.5t-30 154t30 154t82 118t122 75.5 t150 26.5q83 0 157.5 -27t121.5 -74l-139 -167q-22 26 -52 41.5t-74 15.5q-29 0 -56.5 -11.5t-48.5 -33t-34 -51.5t-13 -67q0 -74 38.5 -120.5t123.5 -46.5q15 0 31 2.5t25 7.5v54h-114v187h325v-387q-25 -15 -57.5 -27.5t-69 -21.5t-76.5 -14.5t-80 -5.5z" horiz-adv-x="762" unicode="Ğ"/>
<glyph glyph-name="gbreve" d="M353 584q-33 0 -64 6.5t-55.5 23t-41 44.5t-19.5 70h110q1 -12 8.5 -20t17.5 -12t22 -5.5t22 -1.5t22 1.5t22.5 5.5t17.5 12t8 20h110q-3 -42 -19 -70t-41 -44.5t-56 -23t-64 -6.5zM246 265q0 -38 22 -63.5t64 -25.5q41 0 65.5 26t24.5 63q0 35 -24.5 61t-65.5 26 q-42 0 -64 -26t-22 -61zM32 265q0 51 15.5 100t45.5 88t75 63t104 24q42 0 82.5 -16t66.5 -51h3v53h217v-472q0 -86 -28 -143t-74.5 -90.5t-105.5 -47t-120 -13.5q-75 0 -150 19.5t-131 57.5l101 153q38 -29 80 -42.5t80 -13.5q25 0 47.5 6.5t39.5 19t27 31t10 42.5v23h-3 q-19 -22 -56.5 -39t-85.5 -17q-61 0 -106 21.5t-75 58t-44.5 84.5t-14.5 101z" horiz-adv-x="697" unicode="ğ"/>
<glyph glyph-name="Gdotaccent" d="M309 858q0 22 8.5 41t23.5 33.5t34.5 23t42.5 8.5q21 0 40.5 -8.5t34 -23t23 -33.5t8.5 -41t-8.5 -41t-23 -33.5t-34 -22.5t-40.5 -8q-23 0 -42.5 8t-34.5 22.5t-23.5 33.5t-8.5 41zM426 -18q-84 0 -155.5 26t-124 74.5t-82.5 117.5t-30 154t30 154t82 118t122 75.5 t150 26.5q83 0 157.5 -27t121.5 -74l-139 -167q-22 26 -52 41.5t-74 15.5q-29 0 -56.5 -11.5t-48.5 -33t-34 -51.5t-13 -67q0 -74 38.5 -120.5t123.5 -46.5q15 0 31 2.5t25 7.5v54h-114v187h325v-387q-25 -15 -57.5 -27.5t-69 -21.5t-76.5 -14.5t-80 -5.5z" horiz-adv-x="762" unicode="Ġ"/>
<glyph glyph-name="gdotaccent" d="M251 678q0 22 8.5 41t23.5 33.5t34.5 23t42.5 8.5q21 0 40.5 -8.5t34 -23t23 -33.5t8.5 -41t-8.5 -41t-23 -33.5t-34 -22.5t-40.5 -8q-23 0 -42.5 8t-34.5 22.5t-23.5 33.5t-8.5 41zM246 265q0 -38 22 -63.5t64 -25.5q41 0 65.5 26t24.5 63q0 35 -24.5 61t-65.5 26 q-42 0 -64 -26t-22 -61zM32 265q0 51 15.5 100t45.5 88t75 63t104 24q42 0 82.5 -16t66.5 -51h3v53h217v-472q0 -86 -28 -143t-74.5 -90.5t-105.5 -47t-120 -13.5q-75 0 -150 19.5t-131 57.5l101 153q38 -29 80 -42.5t80 -13.5q25 0 47.5 6.5t39.5 19t27 31t10 42.5v23h-3 q-19 -22 -56.5 -39t-85.5 -17q-61 0 -106 21.5t-75 58t-44.5 84.5t-14.5 101z" horiz-adv-x="697" unicode="ġ"/>
<glyph glyph-name="Gcommaaccent" d="M526 -45l-93 -195h-164l68 195h189zM426 -18q-84 0 -155.5 26t-124 74.5t-82.5 117.5t-30 154t30 154t82 118t122 75.5t150 26.5q83 0 157.5 -27t121.5 -74l-139 -167q-22 26 -52 41.5t-74 15.5q-29 0 -56.5 -11.5t-48.5 -33t-34 -51.5t-13 -67q0 -74 38.5 -120.5 t123.5 -46.5q15 0 31 2.5t25 7.5v54h-114v187h325v-387q-25 -15 -57.5 -27.5t-69 -21.5t-76.5 -14.5t-80 -5.5z" horiz-adv-x="762" unicode="Ģ"/>
<glyph glyph-name="gcommaaccent" d="M236 584l93 195h164l-68 -195h-189zM246 265q0 -38 22 -63.5t64 -25.5q41 0 65.5 26t24.5 63q0 35 -24.5 61t-65.5 26q-42 0 -64 -26t-22 -61zM32 265q0 51 15.5 100t45.5 88t75 63t104 24q42 0 82.5 -16t66.5 -51h3v53h217v-472q0 -86 -28 -143t-74.5 -90.5t-105.5 -47 t-120 -13.5q-75 0 -150 19.5t-131 57.5l101 153q38 -29 80 -42.5t80 -13.5q25 0 47.5 6.5t39.5 19t27 31t10 42.5v23h-3q-19 -22 -56.5 -39t-85.5 -17q-61 0 -106 21.5t-75 58t-44.5 84.5t-14.5 101z" horiz-adv-x="697" unicode="ģ"/>
<glyph glyph-name="Hcircumflex" d="M401 832l-67 -68h-152l137 144h169l134 -144h-154zM498 269h-194v-269h-238v708h237v-240h194v240h239v-708h-238v269z" horiz-adv-x="802" unicode="Ĥ"/>
<glyph glyph-name="hcircumflex" d="M335 864l-67 -68h-152l137 144h169l134 -144h-154zM430 540q55 0 91.5 -20t58 -51.5t30 -70.5t8.5 -78v-320h-232v280q0 40 -12.5 56t-37.5 16q-20 0 -36 -17.5t-16 -55.5v-279h-231v756h231v-288h2q20 29 57 50.5t87 21.5z" horiz-adv-x="666" unicode="ĥ"/>
<glyph glyph-name="Hbar" d="M497 468v52h-194v-52h194zM498 269h-194v-269h-238v708h237v-78h194v78h239v-708h-238v269z" horiz-adv-x="802" unicode="Ħ"/>
<glyph glyph-name="hbar" d="M20 680h33v76h231v-76h117v-110h-117v-102h2q20 29 57 50.5t87 21.5q55 0 91.5 -20t58 -51.5t30 -70.5t8.5 -78v-320h-232v280q0 40 -12.5 56t-37.5 16q-20 0 -36 -17.5t-16 -55.5v-279h-231v570h-33v110z" horiz-adv-x="666" unicode="ħ"/>
<glyph glyph-name="Itilde" d="M374 900q-2 -30 -10 -55t-22.5 -44t-35 -29.5t-46.5 -10.5q-21 0 -40.5 6t-40.5 17q-24 13 -36 17.5t-27 4.5q-16 0 -25 -10.5t-12 -25.5h-80q3 57 32 96.5t81 39.5q23 0 42 -6.5t41 -17.5q23 -12 36 -17t29 -5t23.5 10t11.5 30h79zM66 708h240v-708h-240v708z" horiz-adv-x="372" unicode="Ĩ"/>
<glyph glyph-name="itilde" d="M358 720q-2 -30 -10 -55t-22.5 -44t-35 -29.5t-46.5 -10.5q-21 0 -40.5 6t-40.5 17q-24 13 -36 17.5t-27 4.5q-16 0 -25 -10.5t-12 -25.5h-80q3 57 32 96.5t81 39.5q23 0 42 -6.5t41 -17.5q23 -12 36 -17t29 -5t23.5 10t11.5 30h79zM54 526h231v-526h-231v526z" horiz-adv-x="339" unicode="ĩ"/>
<glyph glyph-name="Imacron" d="M6 887h360v-96h-360v96zM66 708h240v-708h-240v708z" horiz-adv-x="372" unicode="Ī"/>
<glyph glyph-name="imacron" d="M-9 707h360v-96h-360v96zM54 526h231v-526h-231v526z" horiz-adv-x="339" unicode="ī"/>
<glyph glyph-name="Iogonek" d="M66 708h240v-708h-18q-64 -45 -88.5 -69.5t-24.5 -42.5q0 -20 23 -20q26 0 56 18l44 -83q-28 -18 -64.5 -30.5t-74.5 -12.5q-20 0 -42.5 4t-41.5 14.5t-31 29t-12 46.5q0 24 11 45t28 39t38.5 33.5t41.5 28.5h-85v708z" horiz-adv-x="372" unicode="Į"/>
<glyph glyph-name="iogonek" d="M50 678q0 24 9.5 45.5t26 37.5t38.5 25.5t47 9.5q24 0 45 -9.5t37.5 -25.5t26 -37.5t9.5 -45.5q0 -25 -9.5 -46.5t-26 -37t-37.5 -24.5t-45 -9q-25 0 -47 9t-38.5 24.5t-26 37t-9.5 46.5zM54 526h231v-526h-9q-64 -45 -88.5 -69.5t-24.5 -42.5q0 -20 23 -20q26 0 56 18 l44 -83q-28 -18 -64.5 -30.5t-74.5 -12.5q-20 0 -42.5 4t-41.5 14.5t-31 29t-12 46.5q0 24 11 45t28 39t38.5 33.5t41.5 28.5h-85v526z" horiz-adv-x="339" unicode="į"/>
<glyph glyph-name="Idotaccent" d="M78 858q0 22 8.5 41t23.5 33.5t34.5 23t42.5 8.5q21 0 40.5 -8.5t34 -23t23 -33.5t8.5 -41t-8.5 -41t-23 -33.5t-34 -22.5t-40.5 -8q-23 0 -42.5 8t-34.5 22.5t-23.5 33.5t-8.5 41zM66 708h240v-708h-240v708z" horiz-adv-x="372" unicode="İ"/>
<glyph glyph-name="dotlessi" d="M54 526h231v-526h-231v526z" horiz-adv-x="339" unicode="ı"/>
<glyph glyph-name="Jcircumflex" d="M390 832l-67 -68h-152l137 144h169l134 -144h-154zM248 -20q-48 0 -91 14t-77.5 38t-59.5 57t-35 71l204 78q4 -16 14.5 -28.5t28.5 -12.5q23 0 31 15.5t8 39.5v456h239v-446q0 -48 -10.5 -98t-39.5 -91t-80 -67t-132 -26z" horiz-adv-x="573" unicode="Ĵ"/>
<glyph glyph-name="jcircumflex" d="M179 652l-67 -68h-152l137 144h169l134 -144h-154zM292 12q0 -51 -10.5 -96.5t-37.5 -80t-73 -55t-116 -20.5q-20 0 -48 3t-48 9l12 188q11 -3 20.5 -4t16.5 -1q26 0 39.5 14.5t13.5 49.5v507h231v-514z" horiz-adv-x="346" unicode="ĵ"/>
<glyph glyph-name="Kcommaaccent" d="M506 -45l-93 -195h-164l68 195h189zM300 282h-2v-282h-232v708h231v-261h2l189 261h280l-266 -324l279 -384h-292z" horiz-adv-x="763" unicode="Ķ"/>
<glyph glyph-name="kcommaaccent" d="M453 -45l-93 -195h-164l68 195h189zM284 229v-229h-231v756h231v-431h3l125 201h268l-170 -237l169 -289h-269l-123 229h-3z" horiz-adv-x="674" unicode="ķ"/>
<glyph glyph-name="Lacute" d="M98 764l111 144h212l-154 -144h-169zM66 708h240v-504h235v-204h-475v708z" horiz-adv-x="549" unicode="Ĺ"/>
<glyph glyph-name="lacute" d="M53 792l111 144h212l-154 -144h-169zM53 756h236v-756h-236v756z" horiz-adv-x="342" unicode="ĺ"/>
<glyph glyph-name="Lcommaaccent" d="M409 -45l-93 -195h-164l68 195h189zM66 708h240v-504h235v-204h-475v708z" horiz-adv-x="549" unicode="Ļ"/>
<glyph glyph-name="lcommaaccent" d="M277 -46l-93 -195h-164l68 195h189zM53 756h236v-756h-236v756z" horiz-adv-x="342" unicode="ļ"/>
<glyph glyph-name="Lcaron" d="M585 708l-87 -177h-164l62 177h189zM66 708h240v-504h235v-204h-475v708z" horiz-adv-x="549" unicode="Ľ"/>
<glyph glyph-name="lcaron" d="M557 708l-87 -177h-164l62 177h189zM53 756h236v-756h-236v756z" horiz-adv-x="342" unicode="ľ"/>
<glyph glyph-name="Ldot" d="M352 388q0 22 8.5 41t23.5 33.5t34.5 23t42.5 8.5q21 0 40.5 -8.5t34 -23t23 -33.5t8.5 -41t-8.5 -41t-23 -33.5t-34 -22.5t-40.5 -8q-23 0 -42.5 8t-34.5 22.5t-23.5 33.5t-8.5 41zM66 708h240v-504h235v-204h-475v708z" horiz-adv-x="549" unicode="Ŀ"/>
<glyph glyph-name="ldot" d="M325 388q0 22 8.5 41t23.5 33.5t34.5 23t42.5 8.5q21 0 40.5 -8.5t34 -23t23 -33.5t8.5 -41t-8.5 -41t-23 -33.5t-34 -22.5t-40.5 -8q-23 0 -42.5 8t-34.5 22.5t-23.5 33.5t-8.5 41zM53 756h236v-756h-236v756z" horiz-adv-x="524" unicode="ŀ"/>
<glyph glyph-name="Lslash" d="M11 94v190l55 48v376h240v-204l170 146v-189l-170 -145v-112h235v-204h-475v142z" horiz-adv-x="549" unicode="Ł"/>
<glyph glyph-name="lslash" d="M289 0h-236v221l-41 -38v194l41 39v340h236v-159l41 38v-194l-41 -39v-402z" horiz-adv-x="342" unicode="ł"/>
<glyph glyph-name="Nacute" d="M288 764l111 144h212l-154 -144h-169zM66 708h237l202 -359h4l-10 359h226v-708h-243l-196 338h-4l10 -338h-226v708z" horiz-adv-x="791" unicode="Ń"/>
<glyph glyph-name="nacute" d="M223 584l111 144h212l-154 -144h-169zM53 526h225v-58h2q20 29 59.5 50.5t90.5 21.5q55 0 91.5 -20t58 -51.5t30 -70.5t8.5 -78v-320h-232v280q0 40 -12.5 56t-37.5 16q-23 0 -37.5 -18.5t-14.5 -53.5v-280h-231v526z" horiz-adv-x="666" unicode="ń"/>
<glyph glyph-name="Ncommaaccent" d="M504 -45l-93 -195h-164l68 195h189zM66 708h237l202 -359h4l-10 359h226v-708h-243l-196 338h-4l10 -338h-226v708z" horiz-adv-x="791" unicode="Ņ"/>
<glyph glyph-name="ncommaaccent" d="M437 -45l-93 -195h-164l68 195h189zM53 526h225v-58h2q20 29 59.5 50.5t90.5 21.5q55 0 91.5 -20t58 -51.5t30 -70.5t8.5 -78v-320h-232v280q0 40 -12.5 56t-37.5 16q-23 0 -37.5 -18.5t-14.5 -53.5v-280h-231v526z" horiz-adv-x="666" unicode="ņ"/>
<glyph glyph-name="Ncaron" d="M618 908l-134 -144h-169l-137 144h152l67 -68l67 68h154zM66 708h237l202 -359h4l-10 359h226v-708h-243l-196 338h-4l10 -338h-226v708z" horiz-adv-x="791" unicode="Ň"/>
<glyph glyph-name="ncaron" d="M554 728l-134 -144h-169l-137 144h152l67 -68l67 68h154zM53 526h225v-58h2q20 29 59.5 50.5t90.5 21.5q55 0 91.5 -20t58 -51.5t30 -70.5t8.5 -78v-320h-232v280q0 40 -12.5 56t-37.5 16q-23 0 -37.5 -18.5t-14.5 -53.5v-280h-231v526z" horiz-adv-x="666" unicode="ň"/>
<glyph glyph-name="Omacron" d="M248 887h360v-96h-360v96zM287 358q0 -35 10.5 -64t29 -50t44.5 -32.5t56 -11.5t55.5 11.5t44.5 32.5t29.5 50t10.5 64q0 34 -10.5 62.5t-29.5 48t-44.5 30.5t-55.5 11t-56 -11t-44.5 -30.5t-29 -48t-10.5 -62.5zM34 358q0 85 30 153.5t82.5 116.5t124.5 74t156 26 t156 -26t125 -74t83 -116.5t30 -153.5t-30 -155t-83 -119.5t-125 -76.5t-156 -27t-156 27t-124.5 76.5t-82.5 119.5t-30 155z" horiz-adv-x="855" unicode="Ō"/>
<glyph glyph-name="omacron" d="M153 707h360v-96h-360v96zM331 352q-38 0 -61.5 -26t-23.5 -61q0 -37 24 -63t62 -26t62 26t24 63q0 35 -24.5 61t-62.5 26zM632 265q0 -68 -24.5 -121t-66 -89.5t-96 -55.5t-114.5 -19q-59 0 -113.5 19t-95.5 55.5t-65.5 89.5t-24.5 121q0 67 24.5 119.5t65.5 88.5 t95.5 54.5t113.5 18.5q60 0 114.5 -18.5t96 -54.5t66 -88.5t24.5 -119.5z" horiz-adv-x="664" unicode="ō"/>
<glyph glyph-name="Obreve" d="M427 764q-33 0 -64 6.5t-55.5 23t-41 44.5t-19.5 70h110q1 -12 8.5 -20t17.5 -12t22 -5.5t22 -1.5t22 1.5t22.5 5.5t17.5 12t8 20h110q-3 -42 -19 -70t-41 -44.5t-56 -23t-64 -6.5zM287 358q0 -35 10.5 -64t29 -50t44.5 -32.5t56 -11.5t55.5 11.5t44.5 32.5t29.5 50 t10.5 64q0 34 -10.5 62.5t-29.5 48t-44.5 30.5t-55.5 11t-56 -11t-44.5 -30.5t-29 -48t-10.5 -62.5zM34 358q0 85 30 153.5t82.5 116.5t124.5 74t156 26t156 -26t125 -74t83 -116.5t30 -153.5t-30 -155t-83 -119.5t-125 -76.5t-156 -27t-156 27t-124.5 76.5t-82.5 119.5 t-30 155z" horiz-adv-x="855" unicode="Ŏ"/>
<glyph glyph-name="obreve" d="M333 584q-33 0 -64 6.5t-55.5 23t-41 44.5t-19.5 70h110q1 -12 8.5 -20t17.5 -12t22 -5.5t22 -1.5t22 1.5t22.5 5.5t17.5 12t8 20h110q-3 -42 -19 -70t-41 -44.5t-56 -23t-64 -6.5zM331 352q-38 0 -61.5 -26t-23.5 -61q0 -37 24 -63t62 -26t62 26t24 63q0 35 -24.5 61 t-62.5 26zM632 265q0 -68 -24.5 -121t-66 -89.5t-96 -55.5t-114.5 -19q-59 0 -113.5 19t-95.5 55.5t-65.5 89.5t-24.5 121q0 67 24.5 119.5t65.5 88.5t95.5 54.5t113.5 18.5q60 0 114.5 -18.5t96 -54.5t66 -88.5t24.5 -119.5z" horiz-adv-x="664" unicode="ŏ"/>
<glyph glyph-name="Ohungarumlaut" d="M469 764l111 144h212l-154 -144h-169zM226 764l111 144h212l-154 -144h-169zM287 358q0 -35 10.5 -64t29 -50t44.5 -32.5t56 -11.5t55.5 11.5t44.5 32.5t29.5 50t10.5 64q0 34 -10.5 62.5t-29.5 48t-44.5 30.5t-55.5 11t-56 -11t-44.5 -30.5t-29 -48t-10.5 -62.5zM34 358 q0 85 30 153.5t82.5 116.5t124.5 74t156 26t156 -26t125 -74t83 -116.5t30 -153.5t-30 -155t-83 -119.5t-125 -76.5t-156 -27t-156 27t-124.5 76.5t-82.5 119.5t-30 155z" horiz-adv-x="855" unicode="Ő"/>
<glyph glyph-name="ohungarumlaut" d="M365 584l111 144h212l-154 -144h-169zM122 584l111 144h212l-154 -144h-169zM331 352q-38 0 -61.5 -26t-23.5 -61q0 -37 24 -63t62 -26t62 26t24 63q0 35 -24.5 61t-62.5 26zM632 265q0 -68 -24.5 -121t-66 -89.5t-96 -55.5t-114.5 -19q-59 0 -113.5 19t-95.5 55.5 t-65.5 89.5t-24.5 121q0 67 24.5 119.5t65.5 88.5t95.5 54.5t113.5 18.5q60 0 114.5 -18.5t96 -54.5t66 -88.5t24.5 -119.5z" horiz-adv-x="664" unicode="ő"/>
<glyph glyph-name="OE" d="M487 198v312h-34q-78 0 -123 -39.5t-45 -122.5q0 -34 12 -62t33 -47.5t50 -30t64 -10.5h43zM957 708v-198h-253v-61h238v-185h-238v-66h270v-198h-522q-84 0 -159.5 17.5t-133 59t-91.5 109.5t-34 170q0 93 34 160t91.5 109.5t133 62.5t159.5 20h505z" horiz-adv-x="1007" unicode="Œ"/>
<glyph glyph-name="oe" d="M768 333q0 28 -20.5 46t-55.5 18q-38 0 -59 -21t-24 -43h159zM331 352q-38 0 -61.5 -26t-23.5 -61q0 -37 24 -63t62 -26t62 26t24 63q0 35 -24.5 61t-62.5 26zM693 546q61 0 111.5 -21.5t86.5 -60t56 -91.5t20 -115q0 -13 -0.5 -26.5t-1.5 -22.5h-354q1 -14 9.5 -25 t21 -19t28 -12t31.5 -4q32 0 53.5 11.5t32.5 25.5l164 -83q-35 -57 -101 -90t-152 -33q-63 0 -112 21.5t-75 50.5q-27 -32 -72 -52t-108 -20q-59 0 -113.5 19t-95.5 55.5t-65.5 89.5t-24.5 121q0 67 24.5 119.5t65.5 88.5t95.5 54.5t113.5 18.5q62 0 108 -23t72 -55 q29 32 76 55t106 23z" horiz-adv-x="995" unicode="œ"/>
<glyph glyph-name="Racute" d="M231 764l111 144h212l-154 -144h-169zM294 409h47q12 0 26.5 2t27 8.5t21 18t8.5 30.5t-7 30t-18 16.5t-24 7t-24 1.5h-57v-114zM66 708h305q52 0 103.5 -10.5t92 -37t65.5 -71t25 -111.5q0 -65 -32 -114.5t-92 -76.5l180 -287h-274l-136 253h-7v-253h-230v708z" horiz-adv-x="714" unicode="Ŕ"/>
<glyph glyph-name="racute" d="M108 584l111 144h212l-154 -144h-169zM53 526h222v-60h2q17 32 50.5 53t78.5 21q27 0 44 -5l-18 -196q-11 3 -24.5 4.5t-24.5 1.5q-45 0 -72 -26t-27 -64v-255h-231v526z" horiz-adv-x="445" unicode="ŕ"/>
<glyph glyph-name="Rcommaaccent" d="M471 -45l-93 -195h-164l68 195h189zM294 409h47q12 0 26.5 2t27 8.5t21 18t8.5 30.5t-7 30t-18 16.5t-24 7t-24 1.5h-57v-114zM66 708h305q52 0 103.5 -10.5t92 -37t65.5 -71t25 -111.5q0 -65 -32 -114.5t-92 -76.5l180 -287h-274l-136 253h-7v-253h-230v708z" horiz-adv-x="714" unicode="Ŗ"/>
<glyph glyph-name="rcommaaccent" d="M275 -46l-93 -195h-164l68 195h189zM53 526h222v-60h2q17 32 50.5 53t78.5 21q27 0 44 -5l-18 -196q-11 3 -24.5 4.5t-24.5 1.5q-45 0 -72 -26t-27 -64v-255h-231v526z" horiz-adv-x="445" unicode="ŗ"/>
<glyph glyph-name="Rcaron" d="M560 908l-134 -144h-169l-137 144h152l67 -68l67 68h154zM294 409h47q12 0 26.5 2t27 8.5t21 18t8.5 30.5t-7 30t-18 16.5t-24 7t-24 1.5h-57v-114zM66 708h305q52 0 103.5 -10.5t92 -37t65.5 -71t25 -111.5q0 -65 -32 -114.5t-92 -76.5l180 -287h-274l-136 253h-7v-253 h-230v708z" horiz-adv-x="714" unicode="Ř"/>
<glyph glyph-name="rcaron" d="M470 728l-134 -144h-169l-137 144h152l67 -68l67 68h154zM53 526h222v-60h2q17 32 50.5 53t78.5 21q27 0 44 -5l-18 -196q-11 3 -24.5 4.5t-24.5 1.5q-45 0 -72 -26t-27 -64v-255h-231v526z" horiz-adv-x="445" unicode="ř"/>
<glyph glyph-name="Sacute" d="M227 764l111 144h212l-154 -144h-169zM298 -20q-43 0 -84.5 7.5t-80 22t-72.5 34t-61 43.5l145 158q25 -27 66.5 -48t85.5 -21q20 0 36.5 7t16.5 26q0 10 -5.5 17t-19.5 14.5t-38.5 16.5t-61.5 21q-36 12 -69 28.5t-58.5 40.5t-40.5 57.5t-15 80.5q0 66 27 112t69.5 75.5 t95.5 42.5t105 13q70 0 142.5 -27t127.5 -78l-148 -151q-24 30 -59 45.5t-63 15.5q-26 0 -42 -7.5t-16 -24.5q0 -16 16.5 -24t53.5 -20q38 -12 80 -28t77.5 -41.5t58.5 -62.5t23 -92q0 -64 -25.5 -111.5t-67 -79t-93.5 -47t-106 -15.5z" horiz-adv-x="617" unicode="Ś"/>
<glyph glyph-name="sacute" d="M164 584l111 144h212l-154 -144h-169zM484 167q0 -53 -22.5 -89t-57 -57.5t-75.5 -31t-78 -9.5q-68 0 -133.5 19.5t-113.5 55.5l113 131q24 -22 56.5 -35.5t62.5 -13.5q12 0 22.5 4.5t10.5 16.5q0 13 -18.5 20.5t-64.5 18.5q-25 6 -51 17.5t-47.5 30.5t-35.5 46.5 t-14 65.5q0 51 22.5 87t57 58.5t75 33t76.5 10.5q61 0 121 -18t108 -50l-108 -129q-25 16 -51 25t-51 9q-17 0 -28 -4.5t-11 -17.5q0 -10 12.5 -15.5t57.5 -14.5q31 -6 60.5 -18.5t53 -32t37.5 -47.5t14 -66z" horiz-adv-x="513" unicode="ś"/>
<glyph glyph-name="Scircumflex" d="M337 832l-67 -68h-152l137 144h169l134 -144h-154zM298 -20q-43 0 -84.5 7.5t-80 22t-72.5 34t-61 43.5l145 158q25 -27 66.5 -48t85.5 -21q20 0 36.5 7t16.5 26q0 10 -5.5 17t-19.5 14.5t-38.5 16.5t-61.5 21q-36 12 -69 28.5t-58.5 40.5t-40.5 57.5t-15 80.5 q0 66 27 112t69.5 75.5t95.5 42.5t105 13q70 0 142.5 -27t127.5 -78l-148 -151q-24 30 -59 45.5t-63 15.5q-26 0 -42 -7.5t-16 -24.5q0 -16 16.5 -24t53.5 -20q38 -12 80 -28t77.5 -41.5t58.5 -62.5t23 -92q0 -64 -25.5 -111.5t-67 -79t-93.5 -47t-106 -15.5z" horiz-adv-x="617" unicode="Ŝ"/>
<glyph glyph-name="scircumflex" d="M283 652l-67 -68h-152l137 144h169l134 -144h-154zM484 167q0 -53 -22.5 -89t-57 -57.5t-75.5 -31t-78 -9.5q-68 0 -133.5 19.5t-113.5 55.5l113 131q24 -22 56.5 -35.5t62.5 -13.5q12 0 22.5 4.5t10.5 16.5q0 13 -18.5 20.5t-64.5 18.5q-25 6 -51 17.5t-47.5 30.5 t-35.5 46.5t-14 65.5q0 51 22.5 87t57 58.5t75 33t76.5 10.5q61 0 121 -18t108 -50l-108 -129q-25 16 -51 25t-51 9q-17 0 -28 -4.5t-11 -17.5q0 -10 12.5 -15.5t57.5 -14.5q31 -6 60.5 -18.5t53 -32t37.5 -47.5t14 -66z" horiz-adv-x="513" unicode="ŝ"/>
<glyph glyph-name="Scedilla" d="M273 -240q-16 0 -33.5 1.5t-35.5 4.5t-34.5 7.5t-29.5 9.5l34 78q17 -8 41.5 -12t43.5 -4q15 0 27.5 4.5t12.5 16.5q0 11 -11.5 14.5t-25.5 3.5q-23 0 -41 -6l-44 34l61 72q-69 9 -131 36t-107 67l145 158q25 -27 66.5 -48t85.5 -21q20 0 36.5 7t16.5 26q0 10 -5.5 17 t-19.5 14.5t-38.5 16.5t-61.5 21q-36 12 -69 28.5t-58.5 40.5t-40.5 57.5t-15 80.5q0 66 27 112t69.5 75.5t95.5 42.5t105 13q70 0 142.5 -27t127.5 -78l-148 -151q-24 30 -59 45.5t-63 15.5q-26 0 -42 -7.5t-16 -24.5q0 -16 16.5 -24t53.5 -20q38 -12 80 -28t77.5 -41.5 t58.5 -62.5t23 -92q0 -56 -19.5 -99t-52.5 -74t-75.5 -49.5t-88.5 -25.5l-35 -38q5 1 16 1q17 0 35 -3.5t33 -13.5t24.5 -26.5t9.5 -41.5q0 -31 -16.5 -51t-41 -31.5t-53 -16t-53.5 -4.5z" horiz-adv-x="617" unicode="Ş"/>
<glyph glyph-name="scedilla" d="M227 -240q-16 0 -33.5 1.5t-35.5 4.5t-34.5 7.5t-29.5 9.5l34 78q17 -8 41.5 -12t43.5 -4q15 0 27.5 4.5t12.5 16.5q0 11 -11.5 14.5t-25.5 3.5q-23 0 -41 -6l-44 34l61 72q-54 7 -102.5 24.5t-85.5 46.5l113 131q24 -22 56.5 -35.5t62.5 -13.5q12 0 22.5 4.5t10.5 16.5 q0 13 -18.5 20.5t-64.5 18.5q-25 6 -51 17.5t-47.5 30.5t-35.5 46.5t-14 65.5q0 51 22.5 87t57 58.5t75 33t76.5 10.5q61 0 121 -18t108 -50l-108 -129q-25 16 -51 25t-51 9q-17 0 -28 -4.5t-11 -17.5q0 -10 12.5 -15.5t57.5 -14.5q31 -6 60.5 -18.5t53 -32t37.5 -47.5 t14 -66q0 -43 -15.5 -74.5t-40 -53.5t-56 -34.5t-63.5 -18.5l-36 -39q5 1 16 1q17 0 35 -3.5t33 -13.5t24.5 -26.5t9.5 -41.5q0 -31 -16.5 -51t-41 -31.5t-53 -16t-53.5 -4.5z" horiz-adv-x="513" unicode="ş"/>
<glyph glyph-name="Scaron" d="M558 908l-134 -144h-169l-137 144h152l67 -68l67 68h154zM298 -20q-43 0 -84.5 7.5t-80 22t-72.5 34t-61 43.5l145 158q25 -27 66.5 -48t85.5 -21q20 0 36.5 7t16.5 26q0 10 -5.5 17t-19.5 14.5t-38.5 16.5t-61.5 21q-36 12 -69 28.5t-58.5 40.5t-40.5 57.5t-15 80.5 q0 66 27 112t69.5 75.5t95.5 42.5t105 13q70 0 142.5 -27t127.5 -78l-148 -151q-24 30 -59 45.5t-63 15.5q-26 0 -42 -7.5t-16 -24.5q0 -16 16.5 -24t53.5 -20q38 -12 80 -28t77.5 -41.5t58.5 -62.5t23 -92q0 -64 -25.5 -111.5t-67 -79t-93.5 -47t-106 -15.5z" horiz-adv-x="617" unicode="Š"/>
<glyph glyph-name="scaron" d="M496 728l-134 -144h-169l-137 144h152l67 -68l67 68h154zM484 167q0 -53 -22.5 -89t-57 -57.5t-75.5 -31t-78 -9.5q-68 0 -133.5 19.5t-113.5 55.5l113 131q24 -22 56.5 -35.5t62.5 -13.5q12 0 22.5 4.5t10.5 16.5q0 13 -18.5 20.5t-64.5 18.5q-25 6 -51 17.5t-47.5 30.5 t-35.5 46.5t-14 65.5q0 51 22.5 87t57 58.5t75 33t76.5 10.5q61 0 121 -18t108 -50l-108 -129q-25 16 -51 25t-51 9q-17 0 -28 -4.5t-11 -17.5q0 -10 12.5 -15.5t57.5 -14.5q31 -6 60.5 -18.5t53 -32t37.5 -47.5t14 -66z" horiz-adv-x="513" unicode="š"/>
<glyph glyph-name="Tcommaaccent" d="M407 -45l-93 -195h-164l68 195h189zM419 0h-238v507h-174v201h586v-201h-174v-507z" horiz-adv-x="600" unicode="Ţ"/>
<glyph glyph-name="tcommaaccent" d="M352 -45l-93 -195h-164l68 195h189zM282 -14q-106 0 -157 45.5t-51 141.5v188h-74v165h73v118h224v-118h114v-165h-114v-140q0 -38 16.5 -51.5t45.5 -13.5q11 0 23 2t19 4v-158q-18 -8 -50.5 -13t-68.5 -5z" horiz-adv-x="421" unicode="ţ"/>
<glyph glyph-name="Tcaron" d="M521 908l-134 -144h-169l-137 144h152l67 -68l67 68h154zM419 0h-238v507h-174v201h586v-201h-174v-507z" horiz-adv-x="600" unicode="Ť"/>
<glyph glyph-name="tcaron" d="M567 731l-87 -177h-164l62 177h189zM282 -14q-106 0 -157 45.5t-51 141.5v188h-74v165h73v118h224v-118h114v-165h-114v-140q0 -38 16.5 -51.5t45.5 -13.5q11 0 23 2t19 4v-158q-18 -8 -50.5 -13t-68.5 -5z" horiz-adv-x="421" unicode="ť"/>
<glyph glyph-name="Tbar" d="M76 431h105v76h-174v201h586v-201h-174v-76h103v-110h-103v-321h-238v321h-105v110z" horiz-adv-x="600" unicode="Ŧ"/>
<glyph glyph-name="tbar" d="M10 319h64v42h-74v165h73v118h224v-118h114v-165h-114v-42h82v-110h-82q3 -31 19 -42t43 -11q11 0 23 2t19 4v-158q-18 -8 -50.5 -13t-68.5 -5q-106 0 -157 45.5t-51 141.5v36h-64v110z" horiz-adv-x="421" unicode="ŧ"/>
<glyph glyph-name="Utilde" d="M577 900q-2 -30 -10 -55t-22.5 -44t-35 -29.5t-46.5 -10.5q-21 0 -40.5 6t-40.5 17q-24 13 -36 17.5t-27 4.5q-16 0 -25 -10.5t-12 -25.5h-80q3 57 32 96.5t81 39.5q23 0 42 -6.5t41 -17.5q23 -12 36 -17t29 -5t23.5 10t11.5 30h79zM384 -20q-83 0 -144.5 23t-102.5 63 t-61 94.5t-20 117.5v430h238v-404q0 -51 24.5 -79.5t69.5 -28.5t69.5 28.5t24.5 79.5v404h237v-430q0 -63 -21.5 -117.5t-63.5 -94.5t-104.5 -63t-145.5 -23z" horiz-adv-x="775" unicode="Ũ"/>
<glyph glyph-name="utilde" d="M516 720q-2 -30 -10 -55t-22.5 -44t-35 -29.5t-46.5 -10.5q-21 0 -40.5 6t-40.5 17q-24 13 -36 17.5t-27 4.5q-16 0 -25 -10.5t-12 -25.5h-80q3 57 32 96.5t81 39.5q23 0 42 -6.5t41 -17.5q23 -12 36 -17t29 -5t23.5 10t11.5 30h79zM610 0h-225v58h-2 q-20 -29 -59.5 -50.5t-90.5 -21.5q-56 0 -92 19.5t-57.5 51t-30 71t-8.5 78.5v320h232v-278q0 -40 12.5 -56t37.5 -16q23 0 37.5 18.5t14.5 53.5v278h231v-526z" horiz-adv-x="663" unicode="ũ"/>
<glyph glyph-name="Umacron" d="M208 887h360v-96h-360v96zM384 -20q-83 0 -144.5 23t-102.5 63t-61 94.5t-20 117.5v430h238v-404q0 -51 24.5 -79.5t69.5 -28.5t69.5 28.5t24.5 79.5v404h237v-430q0 -63 -21.5 -117.5t-63.5 -94.5t-104.5 -63t-145.5 -23z" horiz-adv-x="775" unicode="Ū"/>
<glyph glyph-name="umacron" d="M147 707h360v-96h-360v96zM610 0h-225v58h-2q-20 -29 -59.5 -50.5t-90.5 -21.5q-56 0 -92 19.5t-57.5 51t-30 71t-8.5 78.5v320h232v-278q0 -40 12.5 -56t37.5 -16q23 0 37.5 18.5t14.5 53.5v278h231v-526z" horiz-adv-x="663" unicode="ū"/>
<glyph glyph-name="Ubreve" d="M388 764q-33 0 -64 6.5t-55.5 23t-41 44.5t-19.5 70h110q1 -12 8.5 -20t17.5 -12t22 -5.5t22 -1.5t22 1.5t22.5 5.5t17.5 12t8 20h110q-3 -42 -19 -70t-41 -44.5t-56 -23t-64 -6.5zM384 -20q-83 0 -144.5 23t-102.5 63t-61 94.5t-20 117.5v430h238v-404q0 -51 24.5 -79.5 t69.5 -28.5t69.5 28.5t24.5 79.5v404h237v-430q0 -63 -21.5 -117.5t-63.5 -94.5t-104.5 -63t-145.5 -23z" horiz-adv-x="775" unicode="Ŭ"/>
<glyph glyph-name="ubreve" d="M327 584q-33 0 -64 6.5t-55.5 23t-41 44.5t-19.5 70h110q1 -12 8.5 -20t17.5 -12t22 -5.5t22 -1.5t22 1.5t22.5 5.5t17.5 12t8 20h110q-3 -42 -19 -70t-41 -44.5t-56 -23t-64 -6.5zM610 0h-225v58h-2q-20 -29 -59.5 -50.5t-90.5 -21.5q-56 0 -92 19.5t-57.5 51t-30 71 t-8.5 78.5v320h232v-278q0 -40 12.5 -56t37.5 -16q23 0 37.5 18.5t14.5 53.5v278h231v-526z" horiz-adv-x="663" unicode="ŭ"/>
<glyph glyph-name="Uring" d="M449 857q0 25 -17.5 42t-42.5 17t-42.5 -17t-17.5 -42t17.5 -42t42.5 -17t42.5 17t17.5 42zM504 857q0 -24 -9.5 -45t-25 -36.5t-36.5 -24t-44 -8.5t-44 8.5t-37 24t-25 36.5t-9 45t9 45t25 36.5t37 24t44 8.5t44 -8.5t36.5 -24t25 -36.5t9.5 -45zM384 -20 q-83 0 -144.5 23t-102.5 63t-61 94.5t-20 117.5v430h238v-404q0 -51 24.5 -79.5t69.5 -28.5t69.5 28.5t24.5 79.5v404h237v-430q0 -63 -21.5 -117.5t-63.5 -94.5t-104.5 -63t-145.5 -23z" horiz-adv-x="775" unicode="Ů"/>
<glyph glyph-name="uring" d="M385 677q0 25 -17.5 42t-42.5 17t-42.5 -17t-17.5 -42t17.5 -42t42.5 -17t42.5 17t17.5 42zM440 677q0 -24 -9.5 -45t-25 -36.5t-36.5 -24t-44 -8.5t-44 8.5t-37 24t-25 36.5t-9 45t9 45t25 36.5t37 24t44 8.5t44 -8.5t36.5 -24t25 -36.5t9.5 -45zM610 0h-225v58h-2 q-20 -29 -59.5 -50.5t-90.5 -21.5q-56 0 -92 19.5t-57.5 51t-30 71t-8.5 78.5v320h232v-278q0 -40 12.5 -56t37.5 -16q23 0 37.5 18.5t14.5 53.5v278h231v-526z" horiz-adv-x="663" unicode="ů"/>
<glyph glyph-name="Uhungarumlaut" d="M423 764l111 144h212l-154 -144h-169zM180 764l111 144h212l-154 -144h-169zM384 -20q-83 0 -144.5 23t-102.5 63t-61 94.5t-20 117.5v430h238v-404q0 -51 24.5 -79.5t69.5 -28.5t69.5 28.5t24.5 79.5v404h237v-430q0 -63 -21.5 -117.5t-63.5 -94.5t-104.5 -63 t-145.5 -23z" horiz-adv-x="775" unicode="Ű"/>
<glyph glyph-name="uhungarumlaut" d="M362 584l111 144h212l-154 -144h-169zM119 584l111 144h212l-154 -144h-169zM610 0h-225v58h-2q-20 -29 -59.5 -50.5t-90.5 -21.5q-56 0 -92 19.5t-57.5 51t-30 71t-8.5 78.5v320h232v-278q0 -40 12.5 -56t37.5 -16q23 0 37.5 18.5t14.5 53.5v278h231v-526z" horiz-adv-x="663" unicode="ű"/>
<glyph glyph-name="Uogonek" d="M375 -240q-20 0 -42.5 4t-41.5 14.5t-31 29t-12 46.5q0 20 7.5 38t20.5 34t29.5 30t33.5 26q-72 6 -125 31t-88 64.5t-52.5 90.5t-17.5 110v430h238v-404q0 -51 24.5 -79.5t69.5 -28.5t69.5 28.5t24.5 79.5v404h237v-430q0 -52 -14.5 -98t-43 -83t-70.5 -64t-98 -40 q-58 -41 -80 -64.5t-22 -40.5q0 -20 23 -20q26 0 56 18l44 -83q-28 -18 -64.5 -30.5t-74.5 -12.5z" horiz-adv-x="775" unicode="Ų"/>
<glyph glyph-name="uogonek" d="M397 -240q-20 0 -42.5 4t-41.5 14.5t-31 29t-12 46.5q0 24 11 45t28 39t38.5 33.5t41.5 28.5h-4v58h-2q-20 -29 -59.5 -50.5t-90.5 -21.5q-56 0 -92 19.5t-57.5 51t-30 71t-8.5 78.5v320h232v-278q0 -40 12.5 -56t37.5 -16q23 0 37.5 18.5t14.5 53.5v278h231v-526h-84 q-64 -45 -88.5 -69.5t-24.5 -42.5q0 -20 23 -20q26 0 56 18l44 -83q-28 -18 -64.5 -30.5t-74.5 -12.5z" horiz-adv-x="663" unicode="ų"/>
<glyph glyph-name="Wcircumflex" d="M537 832l-67 -68h-152l137 144h169l134 -144h-154zM433 0h-240l-193 708h252l76 -398h4l82 398h249l89 -398h4l77 398h244l-197 -708h-240l-100 400h-4z" horiz-adv-x="1077" unicode="Ŵ"/>
<glyph glyph-name="wcircumflex" d="M492 652l-67 -68h-152l137 144h169l134 -144h-154zM404 0h-229l-180 526h247l66 -272h4l68 272h222l73 -272h3l64 272h236l-182 -526h-230l-81 270h-2z" horiz-adv-x="973" unicode="ŵ"/>
<glyph glyph-name="Ycircumflex" d="M374 832l-67 -68h-152l137 144h169l134 -144h-154zM481 0h-238v290l-267 418h287l112 -208l107 208h280l-281 -418v-290z" horiz-adv-x="738" unicode="Ŷ"/>
<glyph glyph-name="ycircumflex" d="M327 652l-67 -68h-152l137 144h169l134 -144h-154zM205 20l-213 506h256l78 -277h4l69 277h247l-216 -558q-19 -49 -43 -87.5t-56 -65.5t-75.5 -41t-101.5 -14q-18 0 -37 1.5t-36.5 4t-32.5 5t-25 5.5l29 190q13 -5 31.5 -8.5t33.5 -3.5q38 0 56.5 15.5t27.5 39.5z" horiz-adv-x="638" unicode="ŷ"/>
<glyph glyph-name="Ydieresis" d="M151 858q0 20 8 38t22 31.5t32 21.5t39 8q20 0 38 -8t31.5 -21.5t21.5 -31.5t8 -38q0 -21 -8 -38.5t-21.5 -31t-31.5 -21t-38 -7.5q-42 0 -71.5 28t-29.5 70zM400 858q0 20 8 38t22 31.5t32 21.5t39 8q20 0 38 -8t31.5 -21.5t21.5 -31.5t8 -38q0 -21 -8 -38.5t-21.5 -31 t-31.5 -21t-38 -7.5q-42 0 -71.5 28t-29.5 70zM481 0h-238v290l-267 418h287l112 -208l107 208h280l-281 -418v-290z" horiz-adv-x="738" unicode="Ÿ"/>
<glyph glyph-name="Zacute" d="M242 764l111 144h212l-154 -144h-169zM44 199l265 312h-254v197h565v-172l-282 -333h290v-203h-584v199z" horiz-adv-x="672" unicode="Ź"/>
<glyph glyph-name="zacute" d="M175 584l111 144h212l-154 -144h-169zM33 161l197 194h-192v171h479v-150l-213 -205h219v-171h-490v161z" horiz-adv-x="557" unicode="ź"/>
<glyph glyph-name="Zdotaccent" d="M232 858q0 22 8.5 41t23.5 33.5t34.5 23t42.5 8.5q21 0 40.5 -8.5t34 -23t23 -33.5t8.5 -41t-8.5 -41t-23 -33.5t-34 -22.5t-40.5 -8q-23 0 -42.5 8t-34.5 22.5t-23.5 33.5t-8.5 41zM44 199l265 312h-254v197h565v-172l-282 -333h290v-203h-584v199z" horiz-adv-x="672" unicode="Ż"/>
<glyph glyph-name="zdotaccent" d="M175 678q0 22 8.5 41t23.5 33.5t34.5 23t42.5 8.5q21 0 40.5 -8.5t34 -23t23 -33.5t8.5 -41t-8.5 -41t-23 -33.5t-34 -22.5t-40.5 -8q-23 0 -42.5 8t-34.5 22.5t-23.5 33.5t-8.5 41zM33 161l197 194h-192v171h479v-150l-213 -205h219v-171h-490v161z" horiz-adv-x="557" unicode="ż"/>
<glyph glyph-name="Zcaron" d="M564 908l-134 -144h-169l-137 144h152l67 -68l67 68h154zM44 199l265 312h-254v197h565v-172l-282 -333h290v-203h-584v199z" horiz-adv-x="672" unicode="Ž"/>
<glyph glyph-name="zcaron" d="M504 728l-134 -144h-169l-137 144h152l67 -68l67 68h154zM33 161l197 194h-192v171h479v-150l-213 -205h219v-171h-490v161z" horiz-adv-x="557" unicode="ž"/>
<glyph glyph-name="florin" d="M597 526q-18 11 -33.5 16t-26.5 5q-23 0 -38 -11t-24 -49l-7 -36h132v-147h-162l-52 -254q-9 -42 -26 -76.5t-45 -59.5t-68 -39t-95 -14q-38 0 -79 9t-71 26l77 162q15 -11 29.5 -15.5t24.5 -4.5q24 0 36.5 17.5t19.5 49.5l41 199h-114v147h139q11 54 25.5 104t42 88.5 t72.5 61.5t116 23q54 0 97.5 -11.5t70.5 -28.5z" horiz-adv-x="700" unicode="ƒ"/>
<glyph glyph-name="Scommaaccent" d="M414 -45l-93 -195h-164l68 195h189zM298 -20q-43 0 -84.5 7.5t-80 22t-72.5 34t-61 43.5l145 158q25 -27 66.5 -48t85.5 -21q20 0 36.5 7t16.5 26q0 10 -5.5 17t-19.5 14.5t-38.5 16.5t-61.5 21q-36 12 -69 28.5t-58.5 40.5t-40.5 57.5t-15 80.5q0 66 27 112t69.5 75.5 t95.5 42.5t105 13q70 0 142.5 -27t127.5 -78l-148 -151q-24 30 -59 45.5t-63 15.5q-26 0 -42 -7.5t-16 -24.5q0 -16 16.5 -24t53.5 -20q38 -12 80 -28t77.5 -41.5t58.5 -62.5t23 -92q0 -64 -25.5 -111.5t-67 -79t-93.5 -47t-106 -15.5z" horiz-adv-x="617" unicode="Ș"/>
<glyph glyph-name="scommaaccent" d="M356 -45l-93 -195h-164l68 195h189zM484 167q0 -53 -22.5 -89t-57 -57.5t-75.5 -31t-78 -9.5q-68 0 -133.5 19.5t-113.5 55.5l113 131q24 -22 56.5 -35.5t62.5 -13.5q12 0 22.5 4.5t10.5 16.5q0 13 -18.5 20.5t-64.5 18.5q-25 6 -51 17.5t-47.5 30.5t-35.5 46.5t-14 65.5 q0 51 22.5 87t57 58.5t75 33t76.5 10.5q61 0 121 -18t108 -50l-108 -129q-25 16 -51 25t-51 9q-17 0 -28 -4.5t-11 -17.5q0 -10 12.5 -15.5t57.5 -14.5q31 -6 60.5 -18.5t53 -32t37.5 -47.5t14 -66z" horiz-adv-x="513" unicode="ș"/>
<glyph glyph-name="uni021A" d="M407 -45l-93 -195h-164l68 195h189zM419 0h-238v507h-174v201h586v-201h-174v-507z" horiz-adv-x="600" unicode="Ț"/>
<glyph glyph-name="uni021B" d="M352 -45l-93 -195h-164l68 195h189zM282 -14q-106 0 -157 45.5t-51 141.5v188h-74v165h73v118h224v-118h114v-165h-114v-140q0 -38 16.5 -51.5t45.5 -13.5q11 0 23 2t19 4v-158q-18 -8 -50.5 -13t-68.5 -5z" horiz-adv-x="421" unicode="ț"/>
<glyph glyph-name="circumflex" d="M179 652l-67 -68h-152l137 144h169l134 -144h-154z" unicode="ˆ"/>
<glyph glyph-name="caron" d="M400 728l-134 -144h-169l-137 144h152l67 -68l67 68h154z" unicode="ˇ"/>
<glyph glyph-name="uni02C9" d="M0 887h360v-96h-360v96z" unicode="ˉ"/>
<glyph glyph-name="breve" d="M180 584q-33 0 -64 6.5t-55.5 23t-41 44.5t-19.5 70h110q1 -12 8.5 -20t17.5 -12t22 -5.5t22 -1.5t22 1.5t22.5 5.5t17.5 12t8 20h110q-3 -42 -19 -70t-41 -44.5t-56 -23t-64 -6.5z" unicode="˘"/>
<glyph glyph-name="dotaccent" d="M72 678q0 22 8.5 41t23.5 33.5t34.5 23t42.5 8.5q21 0 40.5 -8.5t34 -23t23 -33.5t8.5 -41t-8.5 -41t-23 -33.5t-34 -22.5t-40.5 -8q-23 0 -42.5 8t-34.5 22.5t-23.5 33.5t-8.5 41z" unicode="˙"/>
<glyph glyph-name="ring" d="M240 677q0 25 -17.5 42t-42.5 17t-42.5 -17t-17.5 -42t17.5 -42t42.5 -17t42.5 17t17.5 42zM295 677q0 -24 -9.5 -45t-25 -36.5t-36.5 -24t-44 -8.5t-44 8.5t-37 24t-25 36.5t-9 45t9 45t25 36.5t37 24t44 8.5t44 -8.5t36.5 -24t25 -36.5t9.5 -45z" unicode="˚"/>
<glyph glyph-name="ogonek" d="M159 -240q-20 0 -42.5 4t-41.5 14.5t-31 29t-12 46.5q0 24 11 45t28 39t38.5 33.5t41.5 28.5h137q-64 -45 -88.5 -69.5t-24.5 -42.5q0 -20 23 -20q26 0 56 18l44 -83q-28 -18 -64.5 -30.5t-74.5 -12.5z" unicode="˛"/>
<glyph glyph-name="tilde" d="M367 720q-2 -30 -10 -55t-22.5 -44t-35 -29.5t-46.5 -10.5q-21 0 -40.5 6t-40.5 17q-24 13 -36 17.5t-27 4.5q-16 0 -25 -10.5t-12 -25.5h-80q3 57 32 96.5t81 39.5q23 0 42 -6.5t41 -17.5q23 -12 36 -17t29 -5t23.5 10t11.5 30h79z" unicode="˜"/>
<glyph glyph-name="hungarumlaut" d="M188 584l111 144h212l-154 -144h-169zM-55 584l111 144h212l-154 -144h-169z" unicode="˝"/>
<glyph glyph-name="uni034F" horiz-adv-x="0" unicode="͏"/>
<glyph glyph-name="uni0394" d="M432 189q-19 58 -38 115t-39 115q-18 -58 -36 -115t-36 -115h149zM10 0q66 179 133 354t133 354h165q72 -179 142 -354t142 -354h-715z" horiz-adv-x="735" unicode="Δ"/>
<glyph glyph-name="uni03A9" d="M419 0v279q51 12 72 48t21 86q0 52 -34 86t-87 34q-26 0 -48 -9t-39 -25.5t-26.5 -38.5t-9.5 -48q0 -49 21 -85t74 -48v-279h-313v181h142v11q-32 10 -58.5 31.5t-45 52t-28.5 68.5t-10 82q0 72 27.5 127.5t74 92.5t108.5 56t131 19q70 0 132 -19t108.5 -56t74 -92 t27.5 -127q0 -44 -10.5 -82.5t-29 -69t-44.5 -52t-57 -31.5v-11h141v-181h-314z" horiz-adv-x="783" unicode="Ω"/>
<glyph glyph-name="uni03BC" d="M314 526v-263q0 -14 3.5 -32.5t11 -35t20 -28t31.5 -11.5q41 0 56.5 29t15.5 71v270h234v-526h-226v37q-14 -17 -34 -28t-51 -11q-37 0 -61 16v-238h-234v750h234z" horiz-adv-x="758" unicode="μ"/>
<glyph glyph-name="pi" d="M686 23q-23 -17 -55.5 -26t-61.5 -9q-81 0 -124.5 34.5t-43.5 115.5v202h-84v-340h-223v340h-53v186h644v-186h-67v-150q0 -11 7.5 -19.5t21.5 -8.5q10 0 17.5 3t21.5 11v-153z" horiz-adv-x="739" unicode="π"/>
<glyph glyph-name="uni200B" horiz-adv-x="0" unicode="​"/>
<glyph glyph-name="uni200C" horiz-adv-x="0" unicode="‌"/>
<glyph glyph-name="uni200D" horiz-adv-x="0" unicode="‍"/>
<glyph glyph-name="endash" d="M30 345h340v-120h-340v120z" horiz-adv-x="400" unicode="–"/>
<glyph glyph-name="emdash" d="M30 345h540v-120h-540v120z" horiz-adv-x="600" unicode="—"/>
<glyph glyph-name="quoteleft" d="M42 426l99 282h164l-74 -282h-189z" horiz-adv-x="342" unicode="‘"/>
<glyph glyph-name="quoteright" d="M300 708l-99 -282h-164l74 282h189z" horiz-adv-x="342" unicode="’"/>
<glyph glyph-name="quotesinglbase" d="M300 156l-99 -282h-164l74 282h189z" horiz-adv-x="342" unicode="‚"/>
<glyph glyph-name="quotedblleft" d="M42 426l99 282h164l-79 -282h-184zM273 426l94 282h164l-74 -282h-184z" horiz-adv-x="568" unicode="“"/>
<glyph glyph-name="quotedblright" d="M526 708l-99 -282h-164l79 282h184zM295 708l-94 -282h-164l74 282h184z" horiz-adv-x="568" unicode="”"/>
<glyph glyph-name="quotedblbase" d="M526 156l-99 -282h-164l79 282h184zM295 156l-94 -282h-164l74 282h184z" horiz-adv-x="568" unicode="„"/>
<glyph glyph-name="dagger" d="M399 -133h-184v474h-181v170h180v197h184v-197h187v-170h-186v-474z" horiz-adv-x="619" unicode="†"/>
<glyph glyph-name="daggerdbl" d="M401 -133h-183v169h-184v164h184v175h-184v164h183v169h183v-169h185v-164h-185v-175h185v-164h-184v-169z" horiz-adv-x="619" unicode="‡"/>
<glyph glyph-name="bullet" d="M73 354q0 37 14 69t38 56t56 38t69 14t69 -14t56 -38t38 -56t14 -69t-14 -69t-38 -56t-56 -38t-69 -14t-69 14t-56 38t-38 56t-14 69z" horiz-adv-x="500" unicode="•"/>
<glyph glyph-name="ellipsis" d="M699 113q0 27 10.5 50.5t29 41t43 28t51.5 10.5q26 0 49.5 -10.5t41.5 -28t28.5 -41t10.5 -50.5t-10.5 -51t-28.5 -41t-41.5 -27t-49.5 -10q-27 0 -51.5 10t-43 27t-29 41t-10.5 51zM366 113q0 27 10.5 50.5t29 41t43 28t51.5 10.5q26 0 49.5 -10.5t41.5 -28t28.5 -41 t10.5 -50.5t-10.5 -51t-28.5 -41t-41.5 -27t-49.5 -10q-27 0 -51.5 10t-43 27t-29 41t-10.5 51zM34 113q0 27 10.5 50.5t29 41t43 28t51.5 10.5q26 0 49.5 -10.5t41.5 -28t28.5 -41t10.5 -50.5t-10.5 -51t-28.5 -41t-41.5 -27t-49.5 -10q-27 0 -51.5 10t-43 27t-29 41 t-10.5 51z" horiz-adv-x="1000" unicode="…"/>
<glyph glyph-name="perthousand" d="M208 13l346 726l99 -45l-346 -721zM1053 225q-23 0 -39.5 -16.5t-16.5 -39.5t16.5 -38.5t39.5 -15.5q22 0 38.5 15.5t16.5 38.5t-16.5 39.5t-38.5 16.5zM1053 -12q-38 0 -71.5 14t-59 39t-40 57.5t-14.5 70.5t14.5 71.5t40 58t59 38.5t71.5 14t71.5 -14t58.5 -38.5 t39.5 -58t14.5 -71.5t-14.5 -70.5t-39.5 -57.5t-58.5 -39t-71.5 -14zM651 225q-23 0 -39.5 -16.5t-16.5 -39.5t16.5 -38.5t39.5 -15.5q22 0 38.5 15.5t16.5 38.5t-16.5 39.5t-38.5 16.5zM651 -12q-38 0 -71.5 14t-59 39t-40 57.5t-14.5 70.5t14.5 71.5t40 58t59 38.5 t71.5 14t71.5 -14t58.5 -38.5t39.5 -58t14.5 -71.5t-14.5 -70.5t-39.5 -57.5t-58.5 -39t-71.5 -14zM212 594q-23 0 -39.5 -16.5t-16.5 -39.5t16.5 -38.5t39.5 -15.5q22 0 38.5 15.5t16.5 38.5t-16.5 39.5t-38.5 16.5zM212 357q-38 0 -71.5 14t-59 39t-40 57.5t-14.5 70.5 t14.5 71.5t40 58t59 38.5t71.5 14t71.5 -14t58.5 -38.5t39.5 -58t14.5 -71.5t-14.5 -70.5t-39.5 -57.5t-58.5 -39t-71.5 -14z" horiz-adv-x="1264" unicode="‰"/>
<glyph glyph-name="guilsinglleft" d="M17 274l176 248l129 -83l-115 -165l115 -165l-129 -83z" horiz-adv-x="350" unicode="‹"/>
<glyph glyph-name="guilsinglright" d="M28 109l115 165l-115 165l130 83l175 -248l-175 -248z" horiz-adv-x="350" unicode="›"/>
<glyph glyph-name="fraction" d="M-163 13l346 726l99 -45l-346 -721z" horiz-adv-x="100" unicode="⁄"/>
<glyph glyph-name="Euro" d="M119 335q-1 7 -1 12v10v8t1 11h-87l47 131h58q19 55 53.5 96t81.5 69t104 42t120 14q18 0 40.5 -1.5t45.5 -4.5t44 -7.5t37 -10.5l-66 -167q-20 7 -50 12t-56 5q-18 0 -36 -3t-34.5 -9t-29.5 -14.5t-20 -20.5h232l-46 -131h-227q-1 -7 -1 -11v-8v-10t1 -12h217l-43 -129 h-145q13 -22 48.5 -34.5t73.5 -12.5q35 0 68.5 7.5t53.5 19.5l30 -173q-26 -14 -70.5 -23.5t-104.5 -9.5q-62 0 -114.5 16t-94 45t-70.5 71t-44 94h-105l42 129h47z" horiz-adv-x="700" unicode="€"/>
<glyph glyph-name="afii61289" d="M336 557q0 25 -9 43.5t-26 18.5q-15 0 -25 -19.5t-10 -49.5v-157q39 40 54.5 81t15.5 83zM465 56q-43 -35 -86.5 -52.5t-94.5 -17.5q-42 0 -74.5 12t-54.5 32t-33 47.5t-11 59.5v25l-54 -45h-2l-54 84l109 86v233q0 42 14 78.5t39.5 64t61 43t77.5 15.5q37 0 66.5 -11.5 t50.5 -31.5t32 -49t11 -63q0 -77 -48 -149.5t-148 -153.5v-101q0 -35 18 -49t39 -14q36 0 88 37h2z" horiz-adv-x="500" unicode="ℓ"/>
<glyph glyph-name="trademark" d="M446 708h164l89 -248l83 248h163v-412h-112v245h-2l-92 -245h-91l-89 245h-2v-245h-111v412zM152 605h-112v103h346v-103h-112v-309h-122v309z" horiz-adv-x="1000" unicode="™"/>
<glyph glyph-name="Omega" d="M419 0v279q51 12 72 48t21 86q0 52 -34 86t-87 34q-26 0 -48 -9t-39 -25.5t-26.5 -38.5t-9.5 -48q0 -49 21 -85t74 -48v-279h-313v181h142v11q-32 10 -58.5 31.5t-45 52t-28.5 68.5t-10 82q0 72 27.5 127.5t74 92.5t108.5 56t131 19q70 0 132 -19t108.5 -56t74 -92 t27.5 -127q0 -44 -10.5 -82.5t-29 -69t-44.5 -52t-57 -31.5v-11h141v-181h-314z" horiz-adv-x="783" unicode="Ω"/>
<glyph glyph-name="estimated" d="M210 355v-240q76 -78 192 -78q83 0 144 37.5t112 121.5l46 -28q-30 -48 -61.5 -82t-67.5 -55.5t-78.5 -32t-94.5 -10.5q-78 0 -141 28.5t-108 78.5t-69 116.5t-24 143.5t24 143.5t69 116t108 77.5t141 28q76 0 139.5 -27t108.5 -75.5t70 -115.5t25 -147h-535zM595 402 v193q-82 79 -194 79t-191 -79v-193h385z" horiz-adv-x="800" unicode="℮"/>
<glyph glyph-name="partialdiff" d="M456 305q-15 9 -33.5 12.5t-33.5 3.5q-35 0 -55 -19t-20 -56q0 -21 6.5 -35.5t16.5 -24t20.5 -13.5t19.5 -4q45 0 61 34t18 100v2zM664 360q0 -36 -4.5 -78t-16 -83.5t-32 -79.5t-53 -67.5t-78 -47t-107.5 -17.5q-59 0 -109.5 17t-87.5 49.5t-57.5 78.5t-20.5 104 q0 49 16.5 92t49 74.5t81.5 50t114 18.5q21 0 44.5 -4.5t42.5 -12.5q-4 32 -27 55.5t-76 23.5q-31 0 -71 -13.5t-84 -49.5q-24 38 -47.5 77t-47.5 77q57 50 125.5 73.5t137.5 23.5q90 0 149 -34t94.5 -86.5t50 -116.5t14.5 -124z" horiz-adv-x="776" unicode="∂"/>
<glyph glyph-name="Delta" d="M432 189q-19 58 -38 115t-39 115q-18 -58 -36 -115t-36 -115h149zM10 0q66 179 133 354t133 354h165q72 -179 142 -354t142 -354h-715z" horiz-adv-x="735" unicode="∆"/>
<glyph glyph-name="product" d="M521 -214v837h-277v-837h-188v1000h655v-1000h-190z" horiz-adv-x="765" unicode="∏"/>
<glyph glyph-name="summation" d="M27 -214v133q70 94 140.5 186.5t140.5 186.5q-67 91 -135 180.5t-135 180.5v133h615v-163h-382q59 -83 118.5 -165t118.5 -165q-63 -87 -126.5 -172t-126.5 -172h409v-163h-637z" horiz-adv-x="684" unicode="∑"/>
<glyph glyph-name="minus" d="M592 376v-144h-518v144h518z" horiz-adv-x="666" unicode="−"/>
<glyph glyph-name="uni2215" d="M-163 13l346 726l99 -45l-346 -721z" horiz-adv-x="100" unicode="∕"/>
<glyph glyph-name="uni2219" d="M48 289q0 27 10.5 50.5t29 41t43 28t51.5 10.5q26 0 49.5 -10.5t41.5 -28t28.5 -41t10.5 -50.5t-10.5 -51t-28.5 -41t-41.5 -27t-49.5 -10q-27 0 -51.5 10t-43 27t-29 41t-10.5 51z" unicode="∙"/>
<glyph glyph-name="radical" d="M609 786q-54 -251 -108.5 -500t-108.5 -500h-146q-34 71 -69 141.5t-69 141.5q-13 -6 -25.5 -11.5t-25.5 -11.5q-17 35 -33.5 69t-33.5 69q51 22 101 45t101 45q23 -52 47.5 -102.5t47.5 -102.5q38 181 74 358.5t74 358.5h174z" horiz-adv-x="601" unicode="√"/>
<glyph glyph-name="infinity" d="M338 265q-22 20 -47.5 38t-48.5 18q-22 0 -36.5 -16t-14.5 -39q0 -25 14.5 -39.5t39.5 -14.5t48.5 16t44.5 37zM668 266q0 26 -14.5 41t-39.5 15q-26 0 -50 -18.5t-43 -38.5q20 -22 44.5 -38t51.5 -16q23 0 37 15.5t14 39.5zM814 269q0 -41 -13 -77.5t-38 -63.5t-62 -43 t-84 -16q-61 0 -106.5 28t-80.5 66q-18 -19 -37 -36t-41 -29.5t-48.5 -20t-57.5 -7.5q-46 0 -83 15t-63.5 42t-40.5 63t-14 78q0 40 13.5 76t38.5 62t61.5 41.5t83.5 15.5q33 0 60 -8t49.5 -22t42 -32t36.5 -37q17 20 36.5 38t42.5 32t50 22t59 8q46 0 82.5 -15.5t62 -41.5 t38.5 -62t13 -76z" horiz-adv-x="859" unicode="∞"/>
<glyph glyph-name="integral" d="M552 683q0 -33 -22 -57.5t-58 -24.5q-15 0 -26 5t-19 12.5t-13.5 15.5t-11.5 14q-4 -10 -6 -22q-1 -9 -1 -18v1v-7q0 -10 0.5 -18.5t0.5 -15.5v20q0 9 -1 20v-6v-10q0 -17 0.5 -34t0.5 -34v-409q0 -26 -0.5 -54t-3.5 -54q-3 -41 -12.5 -80.5t-30.5 -70.5t-56 -50t-89 -19 q-20 0 -44 6t-44.5 18.5t-34.5 33t-14 50.5q0 19 10 36q11 18 29.5 28.5t41.5 10.5q15 0 25 -5t17 -11.5t12.5 -14t11.5 -12.5q4 11 5.5 24t1.5 24q1 5 1 10v10q0 10 -0.5 19.5t-0.5 18.5v486q0 46 7.5 93t28.5 85.5t59 62.5t100 24q17 0 40.5 -5t44.5 -16.5t36 -31 t15 -48.5z" horiz-adv-x="655" unicode="∫"/>
<glyph glyph-name="approxequal" d="M619 251q-4 -32 -14 -66.5t-29.5 -63.5t-50.5 -47.5t-76 -18.5q-31 0 -64 9.5t-64.5 21t-60.5 21t-53 9.5q-14 0 -24.5 -13t-15.5 -43h-121q3 37 14 74.5t31 67.5t51 49t74 19q31 0 61.5 -9t60.5 -19.5t60.5 -19t61.5 -8.5q24 0 36 37h123zM619 485q-5 -59 -21 -99.5 t-40 -65.5t-53 -36t-59 -11t-61.5 9t-62.5 20.5t-60.5 20.5t-54.5 9q-14 0 -23.5 -11.5t-14.5 -29.5h-121q3 37 14 71.5t32 61.5t53.5 43.5t78.5 16.5q30 0 59 -8t58 -18t57.5 -18t57.5 -8q16 0 25.5 11t12.5 42h123z" horiz-adv-x="666" unicode="≈"/>
<glyph glyph-name="notequal" d="M315 58l-74 -148q-35 17 -71 33.5t-71 33.5q11 20 22 40.5t22 40.5h-74v152h153q11 23 24 45t24 45h-201v152h280q20 36 39 73.5t39 73.5q35 -16 70 -33t70 -33q-11 -20 -21.5 -40.5t-21.5 -40.5h73v-152h-152q-11 -23 -24 -45t-24 -45h200v-152h-282z" horiz-adv-x="666" unicode="≠"/>
<glyph glyph-name="lessequal" d="M588 163q-128 51 -255 101.5t-255 101.5v134q128 51 255 101.5t255 101.5v-162q-69 -29 -137 -55.5t-137 -55.5q69 -26 137 -51.5t137 -51.5v-164zM78 7v139h510v-139h-510z" horiz-adv-x="666" unicode="≤"/>
<glyph glyph-name="greaterequal" d="M78 163v164q69 26 137 51.5t137 51.5q-69 29 -137 55.5t-137 55.5v162q128 -51 255 -101.5t255 -101.5v-134q-128 -51 -255 -101.5t-255 -101.5zM78 7v139h510v-139h-510z" horiz-adv-x="666" unicode="≥"/>
<glyph glyph-name="lozenge" d="M395 356q-21 49 -43.5 98.5t-43.5 98.5q-22 -49 -42 -98.5t-42 -98.5q22 -49 42 -98t42 -98q21 49 43.5 98t43.5 98zM568 356q-48 -98 -95 -195.5t-95 -195.5h-140q-46 98 -92.5 195.5t-92.5 195.5q48 98 93.5 195.5t93.5 195.5h138q48 -98 95 -195.5t95 -195.5z" horiz-adv-x="619" unicode="◊"/>
<glyph glyph-name="dotlessj" d="M292 12q0 -51 -10.5 -96.5t-37.5 -80t-73 -55t-116 -20.5q-20 0 -48 3t-48 9l12 188q11 -3 20.5 -4t16.5 -1q26 0 39.5 14.5t13.5 49.5v507h231v-514z" horiz-adv-x="346" unicode=""/>
<glyph glyph-name="commaaccent" d="M290 -45l-93 -195h-164l68 195h189z" unicode=""/>
<glyph glyph-name="uniF8FF" d="M678 237q19 -29 44.5 -51.5t43.5 -27.5q-5 -14 -9 -25t-8 -19q-23 -50 -48 -78q-40 -44 -58 -57q-26 -17 -60 -17q-29 0 -69 17q-38 16 -59 16q-19 0 -75 -22q-30 -11 -48 -11q-49 0 -103 58q-22 23 -44 56q-41 60 -61 115.5t-20 127.5q0 88 54 159q58 76 146 76 q42 0 71 -12q63 -26 78 -26q27 0 57 12q66 26 90 26q58 0 90 -23q15 -12 60 -64q-42 -19 -67 -59.5t-25 -86.5q0 -55 20 -84zM484 664q24 29 55 43.5t52 14.5q0 -67 -46 -119t-110 -52q0 31 14 61q8 17 35 52z" horiz-adv-x="876" unicode=""/>
<glyph glyph-name="thorn.sc" d="M286 276h40q32 0 47 14t15 35q0 19 -14.5 32.5t-45.5 13.5h-42v-95zM286 112v-112h-225v594h225v-67h76q63 0 108.5 -14.5t74.5 -40.5t43 -62.5t14 -81.5q0 -50 -17 -90t-49 -68t-77.5 -43t-102.5 -15h-70z" horiz-adv-x="614"/>
<glyph glyph-name="cent.sc" d="M321 -13q-54 8 -98.5 31t-77 58.5t-50 82.5t-17.5 104q0 55 18 102t50 82.5t76.5 58.5t98.5 32v64h109v-61q45 -4 85 -18.5t64 -33.5l-115 -166q-12 14 -31.5 21.5t-37.5 7.5q-17 0 -33 -5.5t-28.5 -17t-20.5 -28t-8 -38.5t8 -38.5t20.5 -27t28.5 -16t33 -5.5 q20 0 39 7.5t31 20.5l116 -162q-26 -21 -66 -36.5t-85 -20.5v-57h-109v59z" horiz-adv-x="640"/>
<glyph glyph-name="ordfeminine.sc" d="M196 619l-25 -75h49zM128 722h138l111 -291h-128l-13 42h-81l-14 -42h-126z" horiz-adv-x="390"/>
<glyph glyph-name="florin.sc" d="M511 424q-11 10 -21.5 13t-21.5 3q-12 0 -22.5 -8t-15.5 -33l-7 -40h103v-138h-128l-27 -140q-7 -35 -20.5 -65t-37.5 -53t-60.5 -36t-89.5 -13q-16 0 -34 2t-35.5 6t-33.5 10.5t-28 14.5l60 155q12 -10 23.5 -12.5t19.5 -2.5q16 0 26.5 10t15.5 36l17 88h-67v138h92 l17 84q10 49 30 81.5t48 52t62 27.5t72 8q43 0 78 -9t62 -26z" horiz-adv-x="640"/>
<glyph glyph-name="questiondown.sc" d="M279 611q52 0 86 -32t34 -83q0 -24 -9 -45t-25 -36t-38 -24t-48 -9t-48 9t-38 24t-25 36t-9 45q0 51 34 83t86 32zM148 299q36 16 36 41v9h197v-20q0 -47 -24.5 -74t-64.5 -49l-11 -6q-12 -7 -22 -15.5t-10 -18.5q0 -14 10 -22.5t25 -8.5q29 0 40 17.5t11 35.5l196 -22 q-6 -50 -28.5 -85.5t-57.5 -58t-80.5 -32.5t-96.5 -10q-41 0 -81.5 8.5t-73 28.5t-53 52.5t-20.5 81.5q0 30 7.5 53t21.5 40t34 30.5t45 24.5z" horiz-adv-x="550"/>
<glyph glyph-name="ampersand.sc" d="M279 226q-13 -4 -22.5 -15t-9.5 -25q0 -12 5.5 -20t13.5 -13.5t17 -7.5t16 -2q31 0 49 16zM344 478q-17 0 -28 -12.5t-11 -26.5q0 -25 31 -47q26 7 36.5 19t10.5 26q0 17 -10.5 29t-28.5 12zM479 28q-34 -23 -80.5 -35.5t-92.5 -12.5q-60 0 -108.5 12.5t-83 37t-53.5 60 t-19 82.5q0 60 34 100.5t89 59.5q-53 42 -53 109q0 37 16.5 68.5t47 55t73.5 36.5t96 13t94.5 -12.5t70 -34.5t43.5 -52.5t15 -66.5q0 -56 -33 -93t-90 -60l40 -35l45 52h256l-165 -169l160 -143h-274z" horiz-adv-x="800"/>
<glyph glyph-name="percent.sc" d="M199 17l344 592l93 -54l-345 -592zM648 99q21 0 36 13.5t15 36.5t-15 36.5t-36 13.5q-20 0 -35.5 -13.5t-15.5 -36.5t15.5 -36.5t35.5 -13.5zM648 -17q-33 0 -63.5 12t-54 33.5t-37 52t-13.5 67.5t13.5 67.5t37 52t54 33t63.5 11.5q34 0 64.5 -11.5t54 -33t37 -52 t13.5 -67.5t-13.5 -67.5t-37 -52t-54 -33.5t-64.5 -12zM203 399q21 0 36 13.5t15 36.5t-15 36.5t-36 13.5q-20 0 -35.5 -13.5t-15.5 -36.5t15.5 -36.5t35.5 -13.5zM203 283q-33 0 -63.5 12t-54 33.5t-37 52t-13.5 67.5t13.5 67.5t37 52t54 33t63.5 11.5q34 0 64.5 -11.5 t54 -33t37 -52t13.5 -67.5t-13.5 -67.5t-37 -52t-54 -33.5t-64.5 -12z" horiz-adv-x="850"/>
<glyph glyph-name="dollar.sc" d="M279 646h97v-53q54 -6 105 -23.5t93 -46.5l-115 -136q-26 17 -53.5 26.5t-53.5 9.5q-17 0 -29.5 -5t-12.5 -19q0 -5 2.5 -9t10.5 -7.5t22 -8t38 -9.5q33 -6 64.5 -18.5t56.5 -33t40 -50t15 -69.5q0 -46 -17 -79.5t-44.5 -57t-62 -36.5t-69.5 -19v-64h-98v62 q-60 6 -116.5 26t-98.5 52l118 138q26 -23 60.5 -37.5t66.5 -14.5q12 0 23.5 4.5t11.5 17.5q0 14 -19.5 23t-67.5 20q-26 6 -53.5 18t-50.5 31.5t-38 48t-15 68.5q0 45 17 79t44 58t61 38t68 20v56z" horiz-adv-x="640"/>
<glyph glyph-name="exclam.sc" d="M93 594h234v-343h-234v343zM210 -17q-52 0 -86 32t-34 83q0 24 9 45t25 36t38 24t48 9t48 -9t38 -24t25 -36t9 -45q0 -51 -34 -83t-86 -32z" horiz-adv-x="420"/>
<glyph glyph-name="zero.sc" d="M320 440q-20 0 -33 -13t-21 -33t-11 -45t-3 -49q0 -25 3 -50.5t11 -46.5t21 -34t33 -13t33.5 13t21 34t10.5 46.5t3 50.5q0 24 -3 49t-10.5 45t-21 33t-33.5 13zM320 -20q-88 0 -144.5 31.5t-89 79t-45 103.5t-12.5 106t12.5 105.5t45 102t89 76.5t144.5 30t144.5 -30 t89 -76.5t45 -102t12.5 -105.5t-12.5 -106t-45 -103.5t-89 -79t-144.5 -31.5z" horiz-adv-x="640"/>
<glyph glyph-name="one.sc" d="M252 367l-103 -66l-105 160l214 133h232v-594h-238v367z" horiz-adv-x="640"/>
<glyph glyph-name="two.sc" d="M322 346q17 13 22.5 25t5.5 23q0 12 -8.5 23t-25.5 11q-18 0 -33.5 -14.5t-16.5 -49.5l-220 27q6 58 33 100t66.5 69.5t87.5 40.5t95 13q43 0 90 -10.5t86 -34.5t64.5 -63t25.5 -95q0 -29 -6.5 -53t-20.5 -45t-36 -40.5t-52 -39.5l-89 -60h204v-173h-524v159z" horiz-adv-x="640"/>
<glyph glyph-name="three.sc" d="M489 312q53 -12 79.5 -48.5t26.5 -81.5q0 -55 -23.5 -93.5t-62 -62.5t-88 -35t-100.5 -11q-49 0 -95 10t-83.5 32t-64.5 55t-39 80l211 53q4 -24 22 -38t42 -14q17 0 32.5 9t15.5 28q0 26 -22 34.5t-60 8.5h-60v132h67q32 0 50 9.5t18 32.5q0 17 -12 24.5t-29 7.5 t-33 -11.5t-20 -33.5l-210 48q16 49 45 81t66 51t79.5 27t84.5 8q49 0 95.5 -10t83 -32t58.5 -56t22 -82q0 -43 -23.5 -74.5t-72.5 -44.5v-3z" horiz-adv-x="640"/>
<glyph glyph-name="four.sc" d="M325 393l-88 -132h91v132h-3zM538 0h-210v105h-297v178l215 311h292v-333h75v-156h-75v-105z" horiz-adv-x="640"/>
<glyph glyph-name="five.sc" d="M584 200q0 -62 -24 -104t-62 -68t-86.5 -37t-96.5 -11t-92.5 10t-80.5 32t-62.5 55.5t-39.5 80.5l211 55q6 -28 23.5 -40t34.5 -12q25 0 36.5 11t11.5 26q0 17 -8 28t-22 17t-32.5 8t-39.5 2q-13 0 -33.5 -2t-43.5 -5t-46.5 -7t-42.5 -8l25 363h439v-166h-239l-4 -42 q12 2 24 3t21 1q46 0 87.5 -11t73 -34t50 -59t18.5 -86z" horiz-adv-x="640"/>
<glyph glyph-name="six.sc" d="M323 276q-25 0 -42.5 -17t-17.5 -44q0 -26 17.5 -43.5t42.5 -17.5t42.5 17.5t17.5 43.5q0 27 -17.5 44t-42.5 17zM376 408h8t8 -1q46 -3 84.5 -16.5t66 -38t43 -60.5t15.5 -82q0 -53 -20 -95.5t-56.5 -72.5t-87.5 -46t-114 -16q-62 0 -113 15t-88.5 44t-58 71.5 t-20.5 97.5q0 56 19 106t57 101l133 179h273l-141 -176z" horiz-adv-x="640"/>
<glyph glyph-name="seven.sc" d="M104 0l225 418h-251v176h489v-178l-203 -416h-260z" horiz-adv-x="640"/>
<glyph glyph-name="eight.sc" d="M495 309q45 -15 76.5 -52t31.5 -87q0 -51 -25 -87t-65 -59t-90.5 -33.5t-102.5 -10.5t-103 10.5t-91 33t-65 58.5t-25 87q0 49 31 85t79 54v3q-39 13 -68.5 45.5t-29.5 78.5q0 47 23.5 81t62 55.5t87 32t99.5 10.5q49 0 98 -10.5t87.5 -32t62.5 -55.5t24 -81 q0 -46 -27 -78.5t-70 -44.5v-3zM320 244q-27 0 -41.5 -16t-14.5 -39q0 -22 14.5 -37t41.5 -15q29 0 41.5 15t12.5 37q0 23 -12.5 39t-41.5 16zM320 468q-24 0 -38 -15t-14 -32q0 -19 14 -34t38 -15q25 0 39 15t14 34q0 17 -14 32t-39 15z" horiz-adv-x="640"/>
<glyph glyph-name="nine.sc" d="M315 324q25 0 42.5 17t17.5 44q0 26 -17.5 43.5t-42.5 17.5t-42 -17.5t-17 -43.5q0 -27 17 -44t42 -17zM262 186h-7t-8 1q-46 3 -84.5 16.5t-66 38t-43 60t-15.5 82.5q0 53 20 95.5t56.5 72.5t87.5 46t113 16q61 0 112.5 -15t88.5 -44t58 -71.5t21 -97.5 q0 -56 -19.5 -106t-57.5 -101l-131 -179h-273l141 176z" horiz-adv-x="640"/>
<glyph glyph-name="zero.onum" d="M373 412q-24 0 -43.5 -9t-34 -24.5t-22 -36t-7.5 -42.5q0 -24 7.5 -44.5t22 -36.5t34 -25t43.5 -9t43.5 9t34 25t22 36.5t7.5 44.5q0 22 -8 42.5t-22 36t-33.5 24.5t-43.5 9zM706 299q0 -77 -27 -136t-73 -100t-106 -62t-127 -21q-66 0 -126.5 21t-106.5 62t-73 100 t-27 136q0 75 27 134t73 99t106.5 61t126.5 21q67 0 127 -21t106 -61t73 -99t27 -134z" horiz-adv-x="746"/>
<glyph glyph-name="one.onum" d="M212 367l-103 -66l-105 160l214 133h232v-594h-238v367z" horiz-adv-x="550"/>
<glyph glyph-name="two.onum" d="M102 192q66 31 114.5 56t80 46.5t46.5 40.5t15 39q0 26 -15.5 39t-38.5 13q-28 0 -47.5 -18t-27.5 -43l-196 59q15 41 39.5 75.5t60 60t82.5 40t107 14.5q44 0 93 -9t90.5 -32t68.5 -64.5t27 -105.5q0 -45 -16.5 -79t-42 -59.5t-55 -44t-56.5 -30.5l-17 -8v-2h199v-180 h-560v169z" horiz-adv-x="660"/>
<glyph glyph-name="three.onum" d="M535 400q-23 -14 -49.5 -29t-52 -29.5t-49 -26.5t-41.5 -21v-3q5 1 10.5 1.5t12.5 0.5q38 0 74 -12.5t64 -38t45 -64t17 -89.5q0 -78 -33 -128t-84 -79t-112.5 -40.5t-118.5 -11.5q-32 0 -77.5 4t-89.5 12l34 199q29 -5 60.5 -8t51.5 -3q21 0 43.5 2t41.5 9t31 18.5 t12 31.5q0 16 -11 26.5t-28.5 16.5t-38.5 8.5t-41 2.5t-52 -3t-66 -11l-39 158q20 9 47 22t57 28t60.5 30t57.5 29v4h-219v188h483v-194z" horiz-adv-x="600"/>
<glyph glyph-name="four.onum" d="M256 186h120v179h219v-179h88v-186h-87v-170h-223v170h-342v194l232 420h242z" horiz-adv-x="700"/>
<glyph glyph-name="five.onum" d="M549 100q0 -55 -15.5 -96.5t-41.5 -71.5t-60.5 -49.5t-72.5 -31.5t-78 -16.5t-76 -4.5q-31 0 -71 3t-93 12l33 198q29 -4 58 -6t46 -2q25 0 48.5 2.5t41.5 9.5t29 20t11 34q0 19 -10 31.5t-25.5 19.5t-35.5 9.5t-39 2.5q-29 0 -65.5 -4.5t-78.5 -12.5l30 447h450v-198 h-243l-9 -75q9 2 17 2.5t15 0.5q51 0 94 -13.5t74.5 -41.5t49 -70t17.5 -99z" horiz-adv-x="600"/>
<glyph glyph-name="six.onum" d="M588 669q-29 -23 -59 -48t-57 -49.5t-50 -47t-38 -40.5l1 -2q7 2 16.5 3t17.5 1q46 0 89 -15.5t77 -45.5t54.5 -74t20.5 -101q0 -67 -25 -117.5t-68 -84.5t-99 -51t-118 -17q-61 0 -117 14.5t-99 47t-68.5 86t-25.5 131.5q0 77 32.5 149t81 135.5t104.5 117.5t103 95z M350 320q-32 0 -52.5 -20.5t-20.5 -50.5q0 -31 20.5 -52t52.5 -21q34 0 54.5 21t20.5 52q0 30 -20.5 50.5t-54.5 20.5z" horiz-adv-x="700"/>
<glyph glyph-name="seven.onum" d="M587 425q-39 -79 -78.5 -163t-76 -164.5t-67.5 -151.5t-53 -124l-245 48q25 53 59 123t70 142.5t70.5 141.5t60.5 119h-287v198h547v-169z" horiz-adv-x="620"/>
<glyph glyph-name="eight.onum" d="M526 368q51 -19 84.5 -61.5t33.5 -102.5t-25.5 -102.5t-67 -69.5t-94 -39.5t-107.5 -12.5t-108 12t-94 39t-66.5 69.5t-25.5 102.5q0 58 32.5 100t85.5 64v3q-44 17 -75 55.5t-31 93.5t24 95t63.5 65t90.5 37t104 12q52 0 103 -12t90.5 -37t64 -65t24.5 -95t-29 -93.5 t-77 -54.5v-3zM350 277q-31 0 -46.5 -18t-15.5 -41t15.5 -40.5t46.5 -17.5t46.5 17.5t15.5 40.5t-15.5 41t-46.5 18zM350 551q-27 0 -42.5 -16.5t-15.5 -35.5q0 -20 15.5 -37t42.5 -17t42.5 17t15.5 37q0 19 -15.5 35.5t-42.5 16.5z" horiz-adv-x="700"/>
<glyph glyph-name="nine.onum" d="M105 -97q34 29 66 58.5t59.5 57t49.5 51t36 40.5l-1 2q-7 -2 -16.5 -3t-17.5 -1q-46 0 -89.5 15.5t-77 45.5t-54 74t-20.5 101q0 67 25 117.5t68 84.5t99 51t118 17t118 -16t99 -50t68 -87.5t25 -128.5q0 -49 -15 -98.5t-40.5 -97.5t-59 -93t-70 -86t-73.5 -76.5 t-70 -64.5zM350 274q32 0 52.5 20.5t20.5 50.5q0 31 -20.5 52t-52.5 21q-34 0 -54.5 -21t-20.5 -52q0 -30 20.5 -50.5t54.5 -20.5z" horiz-adv-x="700"/>
<glyph glyph-name="Euro.sc" d="M124 279q-1 7 -1 10.5v8.5v6.5t1 9.5h-80l37 100h54q15 51 44.5 88.5t71 62.5t91.5 37t106 12q36 0 74.5 -5.5t70.5 -16.5l-58 -148q-14 7 -38 12t-50 5q-30 0 -54.5 -12t-36.5 -35h173l-35 -100h-162q-1 -5 -1 -8.5v-7.5v-9.5t1 -9.5h152l-34 -98h-95q11 -21 36.5 -30 t49.5 -9q29 0 54.5 6.5t46.5 17.5l27 -156q-27 -14 -66.5 -22t-88.5 -8q-111 0 -183.5 54t-96.5 147h-87l33 98h44z" horiz-adv-x="640"/>
<glyph glyph-name="sterling.sc" d="M464 425q-23 26 -53 26q-22 0 -36.5 -11.5t-14.5 -34.5v-23h122v-138h-122v-77h211v-167h-481v167h77v77h-77v138h77v28q0 45 15.5 82.5t44.5 64.5t70.5 42t94.5 15q58 0 103.5 -18.5t74.5 -46.5z" horiz-adv-x="640"/>
<glyph glyph-name="yen.sc" d="M580 367v-100h-154v-57h154v-100h-154v-110h-214v110h-151v100h151v57h-151v100h86l-145 227h229l91 -182l92 182h224l-144 -227h86z" horiz-adv-x="640"/>
<glyph glyph-name="perthousand.sc" d="M199 17l344 592l93 -54l-345 -592zM1009 99q21 0 36 13.5t15 36.5t-15 36.5t-36 13.5q-20 0 -35.5 -13.5t-15.5 -36.5t15.5 -36.5t35.5 -13.5zM1009 -17q-33 0 -63.5 12t-54 33.5t-37 52t-13.5 67.5t13.5 67.5t37 52t54 33t63.5 11.5q34 0 64.5 -11.5t54 -33t37 -52 t13.5 -67.5t-13.5 -67.5t-37 -52t-54 -33.5t-64.5 -12zM648 99q21 0 36 13.5t15 36.5t-15 36.5t-36 13.5q-20 0 -35.5 -13.5t-15.5 -36.5t15.5 -36.5t35.5 -13.5zM648 -17q-33 0 -63.5 12t-54 33.5t-37 52t-13.5 67.5t13.5 67.5t37 52t54 33t63.5 11.5q34 0 64.5 -11.5 t54 -33t37 -52t13.5 -67.5t-13.5 -67.5t-37 -52t-54 -33.5t-64.5 -12zM203 399q21 0 36 13.5t15 36.5t-15 36.5t-36 13.5q-20 0 -35.5 -13.5t-15.5 -36.5t15.5 -36.5t35.5 -13.5zM203 283q-33 0 -63.5 12t-54 33.5t-37 52t-13.5 67.5t13.5 67.5t37 52t54 33t63.5 11.5 q34 0 64.5 -11.5t54 -33t37 -52t13.5 -67.5t-13.5 -67.5t-37 -52t-54 -33.5t-64.5 -12z" horiz-adv-x="1200"/>
<glyph glyph-name="question.sc" d="M291 -17q-52 0 -86 32t-34 83q0 24 9 45t25 36t38 24t48 9t48 -9t38 -24t25 -36t9 -45q0 -51 -34 -83t-86 -32zM422 295q-36 -16 -36 -41v-9h-197v20q0 47 24.5 74t64.5 49l11 6q12 7 22 15.5t10 18.5q0 14 -10 22.5t-25 8.5q-29 0 -40 -17.5t-11 -35.5l-196 22 q6 50 28.5 85.5t57.5 58t80.5 32.5t96.5 10q41 0 81.5 -8.5t73 -28.5t53 -52.5t20.5 -81.5q0 -30 -7.5 -53t-21.5 -40t-34 -30.5t-45 -24.5z" horiz-adv-x="550"/>
<glyph glyph-name="exclamdown.sc" d="M327 343v-343h-234v343h234zM210 611q52 0 86 -32t34 -83q0 -24 -9 -45t-25 -36t-38 -24t-48 -9t-48 9t-38 24t-25 36t-9 45q0 51 34 83t86 32z" horiz-adv-x="420"/>
<glyph glyph-name="a.sc" d="M342 384l-49 -154h97zM222 594h246l228 -594h-245l-27 85h-166l-27 -85h-241z" horiz-adv-x="686"/>
<glyph glyph-name="b.sc" d="M276 359h52q16 0 31 10t15 31q0 23 -15 31.5t-31 8.5h-52v-81zM276 155h59q20 0 33.5 11t13.5 33q0 23 -15 32.5t-35 9.5h-56v-86zM340 594q42 0 84.5 -5.5t76.5 -22t55.5 -47.5t21.5 -83q0 -94 -89 -121v-4q53 -8 84 -43t31 -96q0 -49 -20 -82t-53.5 -53t-79 -28.5 t-96.5 -8.5h-294v594h279z" horiz-adv-x="636"/>
<glyph glyph-name="c.sc" d="M370 -20q-75 0 -137.5 22.5t-107.5 64t-70 100.5t-25 131t26 130t71.5 99.5t108.5 64t137 22.5q30 0 61 -5t59.5 -13.5t52.5 -20t41 -24.5l-122 -176q-15 18 -38.5 27t-45.5 9q-21 0 -41.5 -7t-36.5 -21.5t-25.5 -35.5t-9.5 -49q0 -29 9.5 -50t25.5 -35t36.5 -21t41.5 -7 q24 0 47.5 10.5t37.5 26.5l123 -173q-37 -29 -95.5 -49t-123.5 -20z" horiz-adv-x="579"/>
<glyph glyph-name="d.sc" d="M283 187h15q60 0 94 25.5t34 88.5q0 53 -32 80.5t-89 27.5h-22v-222zM61 0v594h234q72 0 138 -14t116.5 -48t80 -90.5t29.5 -141.5q0 -78 -28.5 -135t-76 -93.5t-110.5 -54t-132 -17.5h-251z" horiz-adv-x="689"/>
<glyph glyph-name="e.sc" d="M61 594h428v-166h-212v-52h199v-153h-199v-56h227v-167h-443v594z" horiz-adv-x="543"/>
<glyph glyph-name="f.sc" d="M287 362h174v-162h-173v-200h-227v594h424v-166h-198v-66z" horiz-adv-x="513"/>
<glyph glyph-name="g.sc" d="M364 -20q-72 0 -133.5 22.5t-106 64t-69.5 100t-25 130.5t26 130.5t70.5 100t105 64t129.5 22.5q81 0 138 -20t102 -56l-129 -157q-40 37 -99 37q-21 0 -41.5 -7.5t-37 -23t-26.5 -39t-10 -54.5q0 -63 29.5 -97t84.5 -34q8 0 21 2t27 6v43h-95v142h286v-307 q-21 -14 -49 -26.5t-60 -22t-67 -15t-71 -5.5z" horiz-adv-x="650"/>
<glyph glyph-name="h.sc" d="M422 219h-128v-219h-233v594h232v-199h128v199h234v-594h-233v219z" horiz-adv-x="716"/>
<glyph glyph-name="i.sc" d="M61 594h236v-594h-236v594z" horiz-adv-x="358"/>
<glyph glyph-name="j.sc" d="M245 -20q-100 0 -164.5 43.5t-88.5 123.5l182 79q8 -39 41 -39q20 0 27.5 13.5t7.5 30.5v363h236v-377q0 -45 -13 -87.5t-42 -76t-74.5 -53.5t-111.5 -20z" horiz-adv-x="541"/>
<glyph glyph-name="k.sc" d="M286 234h-1v-234h-224v594h223v-216h2l115 216h269l-186 -271l197 -323h-280z" horiz-adv-x="671"/>
<glyph glyph-name="l.sc" d="M61 594h234v-410h184v-184h-418v594z" horiz-adv-x="499"/>
<glyph glyph-name="m.sc" d="M272 310h-4l4 -310h-211v594h290l88 -300h5l79 300h299v-594h-224l3 310h-4l-82 -310h-161z" horiz-adv-x="883"/>
<glyph glyph-name="n.sc" d="M61 594h231l140 -271h4l-7 271h220v-594h-235l-135 256h-4l7 -256h-221v594z" horiz-adv-x="710"/>
<glyph glyph-name="o.sc" d="M363 412q-24 0 -43.5 -9t-34 -24.5t-22 -36t-7.5 -42.5q0 -24 7.5 -44.5t22 -36.5t34 -25t43.5 -9t43.5 9t34 25t22 36.5t7.5 44.5q0 22 -8 42.5t-22 36t-33.5 24.5t-43.5 9zM696 299q0 -77 -27 -136t-73 -100t-106 -62t-127 -21q-66 0 -126.5 21t-106.5 62t-73 100 t-27 136q0 75 27 134t73 99t106.5 61t126.5 21q67 0 127 -21t106 -61t73 -99t27 -134z" horiz-adv-x="726"/>
<glyph glyph-name="p.sc" d="M291 334h39q9 0 18.5 2.5t17.5 8.5t13.5 16t5.5 25q0 16 -6 26.5t-14.5 16t-18.5 7.5t-19 2h-36v-104zM291 0h-230v594h282q51 0 98 -10t82.5 -33.5t57 -62.5t21.5 -97q0 -55 -21 -94.5t-56 -65t-82.5 -37.5t-99.5 -12h-52v-182z" horiz-adv-x="614"/>
<glyph glyph-name="q.sc" d="M363 412q-24 0 -43.5 -9.5t-34 -25t-22 -36t-7.5 -42.5q0 -24 7.5 -45t22 -36.5t34 -25t43.5 -9.5t43.5 9.5t33.5 25t21.5 36.5t7.5 45q0 22 -7.5 42.5t-21.5 36t-33.5 25t-43.5 9.5zM696 312q0 -48 -17.5 -88.5t-43.5 -60.5v-3l98 7v-167h-376q-68 0 -127.5 18.5 t-104 55.5t-70 93t-25.5 131t27.5 134t73.5 99.5t107 61.5t127 21q67 0 127 -20t105.5 -58.5t72 -94.5t26.5 -129z" horiz-adv-x="734"/>
<glyph glyph-name="r.sc" d="M282 343h39q24 0 40 12.5t16 38.5q0 23 -14.5 33.5t-35.5 10.5h-45v-95zM61 594h288q53 0 98.5 -10t79 -33t52.5 -60t19 -90q0 -63 -25 -105.5t-73 -61.5l148 -234h-264l-95 202h-7v-202h-221v594z" horiz-adv-x="642"/>
<glyph glyph-name="s.sc" d="M542 189q0 -59 -25.5 -99t-64 -64.5t-84.5 -35t-87 -10.5q-76 0 -150 22t-127 63l126 147q27 -25 63.5 -40t70.5 -15q14 0 25.5 4.5t11.5 18.5t-20 24t-71 22q-28 6 -57.5 18.5t-54 33.5t-40.5 51.5t-16 72.5q0 58 25.5 98t63.5 65.5t83.5 37t86.5 11.5q68 0 135 -20 t121 -56l-121 -145q-28 18 -57 28t-57 10q-19 0 -31.5 -5t-12.5 -19q0 -6 2.5 -10t11 -8t23.5 -8.5t40 -9.5q35 -7 68.5 -20.5t60 -35t42.5 -52.5t16 -74z" horiz-adv-x="571"/>
<glyph glyph-name="t.sc" d="M380 0h-231v413h-142v181h515v-181h-142v-413z" horiz-adv-x="529"/>
<glyph glyph-name="u.sc" d="M345 -20q-72 0 -126.5 20t-91 55.5t-55 83t-18.5 102.5v353h236v-332q0 -77 58 -77q27 0 42.5 19.5t15.5 57.5v332h234v-353q0 -55 -18 -102.5t-55 -83t-92 -55.5t-130 -20z" horiz-adv-x="694"/>
<glyph glyph-name="v.sc" d="M-18 594h258l79 -334h4l76 334h249l-200 -594h-269z" horiz-adv-x="630"/>
<glyph glyph-name="w.sc" d="M410 0h-233l-183 594h251l67 -307h4l69 307h226l74 -307h3l65 307h240l-185 -594h-233l-83 305h-2z" horiz-adv-x="987"/>
<glyph glyph-name="x.sc" d="M346 138l-87 -138h-263l205 304l-191 289h265l77 -128l75 128h257l-191 -289l201 -304h-267z" horiz-adv-x="690"/>
<glyph glyph-name="y.sc" d="M426 0h-231v208l-215 386h262l77 -198l77 198h256l-226 -386v-208z" horiz-adv-x="632"/>
<glyph glyph-name="z.sc" d="M38 181l216 229h-207v184h507v-169l-232 -241h242v-184h-526v181z" horiz-adv-x="590"/>
<glyph glyph-name="aacute.sc" d="M237 654l111 144h212l-154 -144h-169zM342 384l-49 -154h97zM222 594h246l228 -594h-245l-27 85h-166l-27 -85h-241z" horiz-adv-x="686"/>
<glyph glyph-name="acircumflex.sc" d="M343 722l-67 -68h-152l137 144h169l134 -144h-154zM342 384l-49 -154h97zM222 594h246l228 -594h-245l-27 85h-166l-27 -85h-241z" horiz-adv-x="686"/>
<glyph glyph-name="adieresis.sc" d="M119 748q0 20 8 38t22 31.5t32 21.5t39 8q20 0 38 -8t31.5 -21.5t21.5 -31.5t8 -38q0 -21 -8 -38.5t-21.5 -31t-31.5 -21t-38 -7.5q-42 0 -71.5 28t-29.5 70zM368 748q0 20 8 38t22 31.5t32 21.5t39 8q20 0 38 -8t31.5 -21.5t21.5 -31.5t8 -38q0 -21 -8 -38.5t-21.5 -31 t-31.5 -21t-38 -7.5q-42 0 -71.5 28t-29.5 70zM342 384l-49 -154h97zM222 594h246l228 -594h-245l-27 85h-166l-27 -85h-241z" horiz-adv-x="686"/>
<glyph glyph-name="aring.sc" d="M403 747q0 25 -17.5 42t-42.5 17t-42.5 -17t-17.5 -42t17.5 -42t42.5 -17t42.5 17t17.5 42zM458 747q0 -24 -9.5 -45t-25 -36.5t-36.5 -24t-44 -8.5t-44 8.5t-37 24t-25 36.5t-9 45t9 45t25 36.5t37 24t44 8.5t44 -8.5t36.5 -24t25 -36.5t9.5 -45zM342 384l-49 -154h97z M222 594h246l228 -594h-245l-27 85h-166l-27 -85h-241z" horiz-adv-x="686"/>
<glyph glyph-name="amacron.sc" d="M163 777h360v-96h-360v96zM342 384l-49 -154h97zM222 594h246l228 -594h-245l-27 85h-166l-27 -85h-241z" horiz-adv-x="686"/>
<glyph glyph-name="ae.sc" d="M319 250h89v178h-7zM834 428h-212v-52h199v-153h-199v-56h227v-167h-441v95h-149l-44 -95h-253l297 594h575v-166z" horiz-adv-x="888"/>
<glyph glyph-name="agrave.sc" d="M129 798h212l111 -144h-169zM342 384l-49 -154h97zM222 594h246l228 -594h-245l-27 85h-166l-27 -85h-241z" horiz-adv-x="686"/>
<glyph glyph-name="atilde.sc" d="M530 790q-2 -30 -10 -55t-22.5 -44t-35 -29.5t-46.5 -10.5q-21 0 -40.5 6t-40.5 17q-24 13 -36 17.5t-27 4.5q-16 0 -25 -10.5t-12 -25.5h-80q3 57 32 96.5t81 39.5q23 0 42 -6.5t41 -17.5q23 -12 36 -17t29 -5t23.5 10t11.5 30h79zM342 384l-49 -154h97zM222 594h246 l228 -594h-245l-27 85h-166l-27 -85h-241z" horiz-adv-x="686"/>
<glyph glyph-name="aogonek.sc" d="M459 -240q-20 0 -42.5 4t-41.5 14.5t-31 29t-12 46.5q0 24 11 45t28 39t38.5 33.5t41.5 28.5l-27 85h-166l-27 -85h-241l232 594h246l228 -594h-108q-64 -45 -88.5 -69.5t-24.5 -42.5q0 -20 23 -20q26 0 56 18l44 -83q-28 -18 -64.5 -30.5t-74.5 -12.5zM342 384l-49 -154 h97z" horiz-adv-x="686"/>
<glyph glyph-name="abreve.sc" d="M343 654q-33 0 -64 6.5t-55.5 23t-41 44.5t-19.5 70h110q1 -12 8.5 -20t17.5 -12t22 -5.5t22 -1.5t22 1.5t22.5 5.5t17.5 12t8 20h110q-3 -42 -19 -70t-41 -44.5t-56 -23t-64 -6.5zM342 384l-49 -154h97zM222 594h246l228 -594h-245l-27 85h-166l-27 -85h-241z" horiz-adv-x="686"/>
<glyph glyph-name="cacute.sc" d="M244 654l111 144h212l-154 -144h-169zM370 -20q-75 0 -137.5 22.5t-107.5 64t-70 100.5t-25 131t26 130t71.5 99.5t108.5 64t137 22.5q30 0 61 -5t59.5 -13.5t52.5 -20t41 -24.5l-122 -176q-15 18 -38.5 27t-45.5 9q-21 0 -41.5 -7t-36.5 -21.5t-25.5 -35.5t-9.5 -49 q0 -29 9.5 -50t25.5 -35t36.5 -21t41.5 -7q24 0 47.5 10.5t37.5 26.5l123 -173q-37 -29 -95.5 -49t-123.5 -20z" horiz-adv-x="579"/>
<glyph glyph-name="ccaron.sc" d="M596 798l-134 -144h-169l-137 144h152l67 -68l67 68h154zM370 -20q-75 0 -137.5 22.5t-107.5 64t-70 100.5t-25 131t26 130t71.5 99.5t108.5 64t137 22.5q30 0 61 -5t59.5 -13.5t52.5 -20t41 -24.5l-122 -176q-15 18 -38.5 27t-45.5 9q-21 0 -41.5 -7t-36.5 -21.5 t-25.5 -35.5t-9.5 -49q0 -29 9.5 -50t25.5 -35t36.5 -21t41.5 -7q24 0 47.5 10.5t37.5 26.5l123 -173q-37 -29 -95.5 -49t-123.5 -20z" horiz-adv-x="579"/>
<glyph glyph-name="cdotaccent.sc" d="M267 748q0 22 8.5 41t23.5 33.5t34.5 23t42.5 8.5q21 0 40.5 -8.5t34 -23t23 -33.5t8.5 -41t-8.5 -41t-23 -33.5t-34 -22.5t-40.5 -8q-23 0 -42.5 8t-34.5 22.5t-23.5 33.5t-8.5 41zM370 -20q-75 0 -137.5 22.5t-107.5 64t-70 100.5t-25 131t26 130t71.5 99.5t108.5 64 t137 22.5q30 0 61 -5t59.5 -13.5t52.5 -20t41 -24.5l-122 -176q-15 18 -38.5 27t-45.5 9q-21 0 -41.5 -7t-36.5 -21.5t-25.5 -35.5t-9.5 -49q0 -29 9.5 -50t25.5 -35t36.5 -21t41.5 -7q24 0 47.5 10.5t37.5 26.5l123 -173q-37 -29 -95.5 -49t-123.5 -20z" horiz-adv-x="579"/>
<glyph glyph-name="ccedilla.sc" d="M327 -240q-16 0 -33.5 1.5t-35.5 4.5t-34.5 7.5t-29.5 9.5l34 78q17 -8 41.5 -12t43.5 -4q15 0 27.5 4.5t12.5 16.5q0 11 -11.5 14.5t-25.5 3.5q-23 0 -41 -6l-44 34l63 75q-59 10 -108 36.5t-83.5 66.5t-53.5 92.5t-19 115.5q0 72 26 130t71.5 99.5t108.5 64t137 22.5 q30 0 61 -5t59.5 -13.5t52.5 -20t41 -24.5l-122 -176q-15 18 -38.5 27t-45.5 9q-21 0 -41.5 -7t-36.5 -21.5t-25.5 -35.5t-9.5 -49q0 -29 9.5 -50t25.5 -35t36.5 -21t41.5 -7q24 0 47.5 10.5t37.5 26.5l123 -173q-32 -26 -80 -44t-103 -23l-33 -35q5 1 16 1q17 0 35 -3.5 t33 -13.5t24.5 -26.5t9.5 -41.5q0 -31 -16.5 -51t-41 -31.5t-53 -16t-53.5 -4.5z" horiz-adv-x="579"/>
<glyph glyph-name="ccircumflex.sc" d="M375 722l-67 -68h-152l137 144h169l134 -144h-154zM370 -20q-75 0 -137.5 22.5t-107.5 64t-70 100.5t-25 131t26 130t71.5 99.5t108.5 64t137 22.5q30 0 61 -5t59.5 -13.5t52.5 -20t41 -24.5l-122 -176q-15 18 -38.5 27t-45.5 9q-21 0 -41.5 -7t-36.5 -21.5t-25.5 -35.5 t-9.5 -49q0 -29 9.5 -50t25.5 -35t36.5 -21t41.5 -7q24 0 47.5 10.5t37.5 26.5l123 -173q-37 -29 -95.5 -49t-123.5 -20z" horiz-adv-x="579"/>
<glyph glyph-name="dcaron.sc" d="M548 798l-134 -144h-169l-137 144h152l67 -68l67 68h154zM283 187h15q60 0 94 25.5t34 88.5q0 53 -32 80.5t-89 27.5h-22v-222zM61 0v594h234q72 0 138 -14t116.5 -48t80 -90.5t29.5 -141.5q0 -78 -28.5 -135t-76 -93.5t-110.5 -54t-132 -17.5h-251z" horiz-adv-x="689"/>
<glyph glyph-name="dcroat.sc" d="M277 231v-52h15q32 0 57.5 6.5t43.5 21t28 37.5t10 57q0 57 -34.5 86.5t-97.5 29.5h-22v-48h73v-138h-73zM61 0v231h-54v138h54v225h234q72 0 138 -14t116.5 -48t80 -90.5t29.5 -141.5q0 -78 -28.5 -135t-76 -93.5t-110.5 -54t-132 -17.5h-251z" horiz-adv-x="689"/>
<glyph glyph-name="egrave.sc" d="M93 798h212l111 -144h-169zM61 594h428v-166h-212v-52h199v-153h-199v-56h227v-167h-443v594z" horiz-adv-x="543"/>
<glyph glyph-name="ecircumflex.sc" d="M275 722l-67 -68h-152l137 144h169l134 -144h-154zM61 594h428v-166h-212v-52h199v-153h-199v-56h227v-167h-443v594z" horiz-adv-x="543"/>
<glyph glyph-name="ecaron.sc" d="M493 798l-134 -144h-169l-137 144h152l67 -68l67 68h154zM61 594h428v-166h-212v-52h199v-153h-199v-56h227v-167h-443v594z" horiz-adv-x="543"/>
<glyph glyph-name="edieresis.sc" d="M50 748q0 20 8 38t22 31.5t32 21.5t39 8q20 0 38 -8t31.5 -21.5t21.5 -31.5t8 -38q0 -21 -8 -38.5t-21.5 -31t-31.5 -21t-38 -7.5q-42 0 -71.5 28t-29.5 70zM299 748q0 20 8 38t22 31.5t32 21.5t39 8q20 0 38 -8t31.5 -21.5t21.5 -31.5t8 -38q0 -21 -8 -38.5t-21.5 -31 t-31.5 -21t-38 -7.5q-42 0 -71.5 28t-29.5 70zM61 594h428v-166h-212v-52h199v-153h-199v-56h227v-167h-443v594z" horiz-adv-x="543"/>
<glyph glyph-name="ebreve.sc" d="M274 654q-33 0 -64 6.5t-55.5 23t-41 44.5t-19.5 70h110q1 -12 8.5 -20t17.5 -12t22 -5.5t22 -1.5t22 1.5t22.5 5.5t17.5 12t8 20h110q-3 -42 -19 -70t-41 -44.5t-56 -23t-64 -6.5zM61 594h428v-166h-212v-52h199v-153h-199v-56h227v-167h-443v594z" horiz-adv-x="543"/>
<glyph glyph-name="eogonek.sc" d="M61 594h428v-166h-212v-52h199v-153h-199v-56h227v-167h-26q-64 -45 -88.5 -69.5t-24.5 -42.5q0 -20 23 -20q26 0 56 18l44 -83q-28 -18 -64.5 -30.5t-74.5 -12.5q-20 0 -42.5 4t-41.5 14.5t-31 29t-12 46.5q0 24 11 45t28 39t38.5 33.5t41.5 28.5h-280v594z" horiz-adv-x="543"/>
<glyph glyph-name="emacron.sc" d="M94 777h360v-96h-360v96zM61 594h428v-166h-212v-52h199v-153h-199v-56h227v-167h-443v594z" horiz-adv-x="543"/>
<glyph glyph-name="eacute.sc" d="M161 654l111 144h212l-154 -144h-169zM61 594h428v-166h-212v-52h199v-153h-199v-56h227v-167h-443v594z" horiz-adv-x="543"/>
<glyph glyph-name="edotaccent.sc" d="M168 748q0 22 8.5 41t23.5 33.5t34.5 23t42.5 8.5q21 0 40.5 -8.5t34 -23t23 -33.5t8.5 -41t-8.5 -41t-23 -33.5t-34 -22.5t-40.5 -8q-23 0 -42.5 8t-34.5 22.5t-23.5 33.5t-8.5 41zM61 594h428v-166h-212v-52h199v-153h-199v-56h227v-167h-443v594z" horiz-adv-x="543"/>
<glyph glyph-name="gdotaccent.sc" d="M258 748q0 22 8.5 41t23.5 33.5t34.5 23t42.5 8.5q21 0 40.5 -8.5t34 -23t23 -33.5t8.5 -41t-8.5 -41t-23 -33.5t-34 -22.5t-40.5 -8q-23 0 -42.5 8t-34.5 22.5t-23.5 33.5t-8.5 41zM364 -20q-72 0 -133.5 22.5t-106 64t-69.5 100t-25 130.5t26 130.5t70.5 100t105 64 t129.5 22.5q81 0 138 -20t102 -56l-129 -157q-40 37 -99 37q-21 0 -41.5 -7.5t-37 -23t-26.5 -39t-10 -54.5q0 -63 29.5 -97t84.5 -34q8 0 21 2t27 6v43h-95v142h286v-307q-21 -14 -49 -26.5t-60 -22t-67 -15t-71 -5.5z" horiz-adv-x="650"/>
<glyph glyph-name="gbreve.sc" d="M365 654q-33 0 -64 6.5t-55.5 23t-41 44.5t-19.5 70h110q1 -12 8.5 -20t17.5 -12t22 -5.5t22 -1.5t22 1.5t22.5 5.5t17.5 12t8 20h110q-3 -42 -19 -70t-41 -44.5t-56 -23t-64 -6.5zM364 -20q-72 0 -133.5 22.5t-106 64t-69.5 100t-25 130.5t26 130.5t70.5 100t105 64 t129.5 22.5q81 0 138 -20t102 -56l-129 -157q-40 37 -99 37q-21 0 -41.5 -7.5t-37 -23t-26.5 -39t-10 -54.5q0 -63 29.5 -97t84.5 -34q8 0 21 2t27 6v43h-95v142h286v-307q-21 -14 -49 -26.5t-60 -22t-67 -15t-71 -5.5z" horiz-adv-x="650"/>
<glyph glyph-name="gcommaaccent.sc" d="M457 -45l-93 -195h-164l68 195h189zM364 -20q-72 0 -133.5 22.5t-106 64t-69.5 100t-25 130.5t26 130.5t70.5 100t105 64t129.5 22.5q81 0 138 -20t102 -56l-129 -157q-40 37 -99 37q-21 0 -41.5 -7.5t-37 -23t-26.5 -39t-10 -54.5q0 -63 29.5 -97t84.5 -34q8 0 21 2 t27 6v43h-95v142h286v-307q-21 -14 -49 -26.5t-60 -22t-67 -15t-71 -5.5z" horiz-adv-x="650"/>
<glyph glyph-name="gcircumflex.sc" d="M365 722l-67 -68h-152l137 144h169l134 -144h-154zM364 -20q-72 0 -133.5 22.5t-106 64t-69.5 100t-25 130.5t26 130.5t70.5 100t105 64t129.5 22.5q81 0 138 -20t102 -56l-129 -157q-40 37 -99 37q-21 0 -41.5 -7.5t-37 -23t-26.5 -39t-10 -54.5q0 -63 29.5 -97 t84.5 -34q8 0 21 2t27 6v43h-95v142h286v-307q-21 -14 -49 -26.5t-60 -22t-67 -15t-71 -5.5z" horiz-adv-x="650"/>
<glyph glyph-name="hbar.sc" d="M421 372v63h-128v-63h128zM422 202h-128v-202h-233v594h232v-69h128v69h234v-594h-233v202z" horiz-adv-x="716"/>
<glyph glyph-name="hcircumflex.sc" d="M357 722l-67 -68h-152l137 144h169l134 -144h-154zM422 219h-128v-219h-233v594h232v-199h128v199h234v-594h-233v219z" horiz-adv-x="716"/>
<glyph glyph-name="iogonek.sc" d="M61 594h236v-594q-64 -45 -88.5 -69.5t-24.5 -42.5q0 -20 23 -20q26 0 56 18l44 -83q-28 -18 -64.5 -30.5t-74.5 -12.5q-20 0 -42.5 4t-41.5 14.5t-31 29t-12 46.5q0 24 11 45t28 39t38.5 33.5t41.5 28.5h-99v594z" horiz-adv-x="358"/>
<glyph glyph-name="iacute.sc" d="M76 654l111 144h212l-154 -144h-169zM61 594h236v-594h-236v594z" horiz-adv-x="358"/>
<glyph glyph-name="itilde.sc" d="M366 790q-2 -30 -10 -55t-22.5 -44t-35 -29.5t-46.5 -10.5q-21 0 -40.5 6t-40.5 17q-24 13 -36 17.5t-27 4.5q-16 0 -25 -10.5t-12 -25.5h-80q3 57 32 96.5t81 39.5q23 0 42 -6.5t41 -17.5q23 -12 36 -17t29 -5t23.5 10t11.5 30h79zM61 594h236v-594h-236v594z" horiz-adv-x="358"/>
<glyph glyph-name="idotaccent.sc" d="M68 748q0 22 8.5 41t23.5 33.5t34.5 23t42.5 8.5q21 0 40.5 -8.5t34 -23t23 -33.5t8.5 -41t-8.5 -41t-23 -33.5t-34 -22.5t-40.5 -8q-23 0 -42.5 8t-34.5 22.5t-23.5 33.5t-8.5 41zM61 594h236v-594h-236v594z" horiz-adv-x="358"/>
<glyph glyph-name="icircumflex.sc" d="M180 722l-67 -68h-152l137 144h169l134 -144h-154zM61 594h236v-594h-236v594z" horiz-adv-x="358"/>
<glyph glyph-name="idieresis.sc" d="M-45 748q0 20 8 38t22 31.5t32 21.5t39 8q20 0 38 -8t31.5 -21.5t21.5 -31.5t8 -38q0 -21 -8 -38.5t-21.5 -31t-31.5 -21t-38 -7.5q-42 0 -71.5 28t-29.5 70zM204 748q0 20 8 38t22 31.5t32 21.5t39 8q20 0 38 -8t31.5 -21.5t21.5 -31.5t8 -38q0 -21 -8 -38.5t-21.5 -31 t-31.5 -21t-38 -7.5q-42 0 -71.5 28t-29.5 70zM61 594h236v-594h-236v594z" horiz-adv-x="358"/>
<glyph glyph-name="imacron.sc" d="M-1 777h360v-96h-360v96zM61 594h236v-594h-236v594z" horiz-adv-x="358"/>
<glyph glyph-name="igrave.sc" d="M-43 798h212l111 -144h-169zM61 594h236v-594h-236v594z" horiz-adv-x="358"/>
<glyph glyph-name="jcircumflex.sc" d="M368 722l-67 -68h-152l137 144h169l134 -144h-154zM245 -20q-100 0 -164.5 43.5t-88.5 123.5l182 79q8 -39 41 -39q20 0 27.5 13.5t7.5 30.5v363h236v-377q0 -45 -13 -87.5t-42 -76t-74.5 -53.5t-111.5 -20z" horiz-adv-x="541"/>
<glyph glyph-name="kcommaaccent.sc" d="M451 -45l-93 -195h-164l68 195h189zM286 234h-1v-234h-224v594h223v-216h2l115 216h269l-186 -271l197 -323h-280z" horiz-adv-x="671"/>
<glyph glyph-name="lslash.sc" d="M61 147l-55 -42v190l55 42v257h228v-101l96 73v-189l-96 -73v-120h190v-184h-418v147z" horiz-adv-x="499"/>
<glyph glyph-name="lacute.sc" d="M91 654l111 144h212l-154 -144h-169zM61 594h234v-410h184v-184h-418v594z" horiz-adv-x="499"/>
<glyph glyph-name="lcaron.sc" d="M573 594l-93 -195h-164l68 195h189zM61 594h234v-410h184v-184h-418v594z" horiz-adv-x="539"/>
<glyph glyph-name="lcommaaccent.sc" d="M375 -45l-93 -195h-164l68 195h189zM61 594h234v-410h184v-184h-418v594z" horiz-adv-x="499"/>
<glyph glyph-name="ldot.sc" d="M337 348q0 22 8.5 41t23.5 33.5t34.5 23t42.5 8.5q21 0 40.5 -8.5t34 -23t23 -33.5t8.5 -41t-8.5 -41t-23 -33.5t-34 -22.5t-40.5 -8q-23 0 -42.5 8t-34.5 22.5t-23.5 33.5t-8.5 41zM61 594h234v-410h184v-184h-418v594z" horiz-adv-x="530"/>
<glyph glyph-name="nacute.sc" d="M249 654l111 144h212l-154 -144h-169zM61 594h231l140 -271h4l-7 271h220v-594h-235l-135 256h-4l7 -256h-221v594z" horiz-adv-x="710"/>
<glyph glyph-name="ncommaaccent.sc" d="M458 -45l-93 -195h-164l68 195h189zM61 594h231l140 -271h4l-7 271h220v-594h-235l-135 256h-4l7 -256h-221v594z" horiz-adv-x="710"/>
<glyph glyph-name="ncaron.sc" d="M576 798l-134 -144h-169l-137 144h152l67 -68l67 68h154zM61 594h231l140 -271h4l-7 271h220v-594h-235l-135 256h-4l7 -256h-221v594z" horiz-adv-x="710"/>
<glyph glyph-name="ntilde.sc" d="M544 790q-2 -30 -10 -55t-22.5 -44t-35 -29.5t-46.5 -10.5q-21 0 -40.5 6t-40.5 17q-24 13 -36 17.5t-27 4.5q-16 0 -25 -10.5t-12 -25.5h-80q3 57 32 96.5t81 39.5q23 0 42 -6.5t41 -17.5q23 -12 36 -17t29 -5t23.5 10t11.5 30h79zM61 594h231l140 -271h4l-7 271h220 v-594h-235l-135 256h-4l7 -256h-221v594z" horiz-adv-x="710"/>
<glyph glyph-name="ograve.sc" d="M148 798h212l111 -144h-169zM363 412q-24 0 -43.5 -9t-34 -24.5t-22 -36t-7.5 -42.5q0 -24 7.5 -44.5t22 -36.5t34 -25t43.5 -9t43.5 9t34 25t22 36.5t7.5 44.5q0 22 -8 42.5t-22 36t-33.5 24.5t-43.5 9zM696 299q0 -77 -27 -136t-73 -100t-106 -62t-127 -21 q-66 0 -126.5 21t-106.5 62t-73 100t-27 136q0 75 27 134t73 99t106.5 61t126.5 21q67 0 127 -21t106 -61t73 -99t27 -134z" horiz-adv-x="726"/>
<glyph glyph-name="oacute.sc" d="M240 654l111 144h212l-154 -144h-169zM363 412q-24 0 -43.5 -9t-34 -24.5t-22 -36t-7.5 -42.5q0 -24 7.5 -44.5t22 -36.5t34 -25t43.5 -9t43.5 9t34 25t22 36.5t7.5 44.5q0 22 -8 42.5t-22 36t-33.5 24.5t-43.5 9zM696 299q0 -77 -27 -136t-73 -100t-106 -62t-127 -21 q-66 0 -126.5 21t-106.5 62t-73 100t-27 136q0 75 27 134t73 99t106.5 61t126.5 21q67 0 127 -21t106 -61t73 -99t27 -134z" horiz-adv-x="726"/>
<glyph glyph-name="ocircumflex.sc" d="M362 722l-67 -68h-152l137 144h169l134 -144h-154zM363 412q-24 0 -43.5 -9t-34 -24.5t-22 -36t-7.5 -42.5q0 -24 7.5 -44.5t22 -36.5t34 -25t43.5 -9t43.5 9t34 25t22 36.5t7.5 44.5q0 22 -8 42.5t-22 36t-33.5 24.5t-43.5 9zM696 299q0 -77 -27 -136t-73 -100t-106 -62 t-127 -21q-66 0 -126.5 21t-106.5 62t-73 100t-27 136q0 75 27 134t73 99t106.5 61t126.5 21q67 0 127 -21t106 -61t73 -99t27 -134z" horiz-adv-x="726"/>
<glyph glyph-name="omacron.sc" d="M182 777h360v-96h-360v96zM363 412q-24 0 -43.5 -9t-34 -24.5t-22 -36t-7.5 -42.5q0 -24 7.5 -44.5t22 -36.5t34 -25t43.5 -9t43.5 9t34 25t22 36.5t7.5 44.5q0 22 -8 42.5t-22 36t-33.5 24.5t-43.5 9zM696 299q0 -77 -27 -136t-73 -100t-106 -62t-127 -21 q-66 0 -126.5 21t-106.5 62t-73 100t-27 136q0 75 27 134t73 99t106.5 61t126.5 21q67 0 127 -21t106 -61t73 -99t27 -134z" horiz-adv-x="726"/>
<glyph glyph-name="obreve.sc" d="M362 654q-33 0 -64 6.5t-55.5 23t-41 44.5t-19.5 70h110q1 -12 8.5 -20t17.5 -12t22 -5.5t22 -1.5t22 1.5t22.5 5.5t17.5 12t8 20h110q-3 -42 -19 -70t-41 -44.5t-56 -23t-64 -6.5zM363 412q-24 0 -43.5 -9t-34 -24.5t-22 -36t-7.5 -42.5q0 -24 7.5 -44.5t22 -36.5 t34 -25t43.5 -9t43.5 9t34 25t22 36.5t7.5 44.5q0 22 -8 42.5t-22 36t-33.5 24.5t-43.5 9zM696 299q0 -77 -27 -136t-73 -100t-106 -62t-127 -21q-66 0 -126.5 21t-106.5 62t-73 100t-27 136q0 75 27 134t73 99t106.5 61t126.5 21q67 0 127 -21t106 -61t73 -99t27 -134z" horiz-adv-x="726"/>
<glyph glyph-name="oslash.sc" d="M363 412q-24 0 -43.5 -9t-34 -24.5t-22 -36t-7.5 -42.5q0 -16 3 -31l134 139q-13 4 -30 4zM470 300q0 15 -5 32l-136 -142q17 -5 34 -5q24 0 43.5 9t34 25t22 36.5t7.5 44.5zM696 299q0 -77 -27 -136t-73 -100t-106 -62t-127 -21q-102 0 -184 47l-70 -73l-85 78l68 71 q-29 38 -45.5 87t-16.5 109q0 75 27 134t73 99t106.5 61t126.5 21q99 0 179 -44l80 83l85 -78l-77 -80q31 -38 48.5 -87t17.5 -109z" horiz-adv-x="726"/>
<glyph glyph-name="odieresis.sc" d="M138 748q0 20 8 38t22 31.5t32 21.5t39 8q20 0 38 -8t31.5 -21.5t21.5 -31.5t8 -38q0 -21 -8 -38.5t-21.5 -31t-31.5 -21t-38 -7.5q-42 0 -71.5 28t-29.5 70zM387 748q0 20 8 38t22 31.5t32 21.5t39 8q20 0 38 -8t31.5 -21.5t21.5 -31.5t8 -38q0 -21 -8 -38.5t-21.5 -31 t-31.5 -21t-38 -7.5q-42 0 -71.5 28t-29.5 70zM363 412q-24 0 -43.5 -9t-34 -24.5t-22 -36t-7.5 -42.5q0 -24 7.5 -44.5t22 -36.5t34 -25t43.5 -9t43.5 9t34 25t22 36.5t7.5 44.5q0 22 -8 42.5t-22 36t-33.5 24.5t-43.5 9zM696 299q0 -77 -27 -136t-73 -100t-106 -62 t-127 -21q-66 0 -126.5 21t-106.5 62t-73 100t-27 136q0 75 27 134t73 99t106.5 61t126.5 21q67 0 127 -21t106 -61t73 -99t27 -134z" horiz-adv-x="726"/>
<glyph glyph-name="otilde.sc" d="M551 790q-2 -30 -10 -55t-22.5 -44t-35 -29.5t-46.5 -10.5q-21 0 -40.5 6t-40.5 17q-24 13 -36 17.5t-27 4.5q-16 0 -25 -10.5t-12 -25.5h-80q3 57 32 96.5t81 39.5q23 0 42 -6.5t41 -17.5q23 -12 36 -17t29 -5t23.5 10t11.5 30h79zM363 412q-24 0 -43.5 -9t-34 -24.5 t-22 -36t-7.5 -42.5q0 -24 7.5 -44.5t22 -36.5t34 -25t43.5 -9t43.5 9t34 25t22 36.5t7.5 44.5q0 22 -8 42.5t-22 36t-33.5 24.5t-43.5 9zM696 299q0 -77 -27 -136t-73 -100t-106 -62t-127 -21q-66 0 -126.5 21t-106.5 62t-73 100t-27 136q0 75 27 134t73 99t106.5 61 t126.5 21q67 0 127 -21t106 -61t73 -99t27 -134z" horiz-adv-x="726"/>
<glyph glyph-name="ohungarumlaut.sc" d="M399 654l111 144h212l-154 -144h-169zM156 654l111 144h212l-154 -144h-169zM363 412q-24 0 -43.5 -9t-34 -24.5t-22 -36t-7.5 -42.5q0 -24 7.5 -44.5t22 -36.5t34 -25t43.5 -9t43.5 9t34 25t22 36.5t7.5 44.5q0 22 -8 42.5t-22 36t-33.5 24.5t-43.5 9zM696 299 q0 -77 -27 -136t-73 -100t-106 -62t-127 -21q-66 0 -126.5 21t-106.5 62t-73 100t-27 136q0 75 27 134t73 99t106.5 61t126.5 21q67 0 127 -21t106 -61t73 -99t27 -134z" horiz-adv-x="726"/>
<glyph glyph-name="racute.sc" d="M199 654l111 144h212l-154 -144h-169zM282 343h39q24 0 40 12.5t16 38.5q0 23 -14.5 33.5t-35.5 10.5h-45v-95zM61 594h288q53 0 98.5 -10t79 -33t52.5 -60t19 -90q0 -63 -25 -105.5t-73 -61.5l148 -234h-264l-95 202h-7v-202h-221v594z" horiz-adv-x="642"/>
<glyph glyph-name="rcommaaccent.sc" d="M438 -45l-93 -195h-164l68 195h189zM282 343h39q24 0 40 12.5t16 38.5q0 23 -14.5 33.5t-35.5 10.5h-45v-95zM61 594h288q53 0 98.5 -10t79 -33t52.5 -60t19 -90q0 -63 -25 -105.5t-73 -61.5l148 -234h-264l-95 202h-7v-202h-221v594z" horiz-adv-x="642"/>
<glyph glyph-name="rcaron.sc" d="M539 798l-134 -144h-169l-137 144h152l67 -68l67 68h154zM282 343h39q24 0 40 12.5t16 38.5q0 23 -14.5 33.5t-35.5 10.5h-45v-95zM61 594h288q53 0 98.5 -10t79 -33t52.5 -60t19 -90q0 -63 -25 -105.5t-73 -61.5l148 -234h-264l-95 202h-7v-202h-221v594z" horiz-adv-x="642"/>
<glyph glyph-name="sacute.sc" d="M186 654l111 144h212l-154 -144h-169zM542 189q0 -59 -25.5 -99t-64 -64.5t-84.5 -35t-87 -10.5q-76 0 -150 22t-127 63l126 147q27 -25 63.5 -40t70.5 -15q14 0 25.5 4.5t11.5 18.5t-20 24t-71 22q-28 6 -57.5 18.5t-54 33.5t-40.5 51.5t-16 72.5q0 58 25.5 98 t63.5 65.5t83.5 37t86.5 11.5q68 0 135 -20t121 -56l-121 -145q-28 18 -57 28t-57 10q-19 0 -31.5 -5t-12.5 -19q0 -6 2.5 -10t11 -8t23.5 -8.5t40 -9.5q35 -7 68.5 -20.5t60 -35t42.5 -52.5t16 -74z" horiz-adv-x="571"/>
<glyph glyph-name="scaron.sc" d="M522 798l-134 -144h-169l-137 144h152l67 -68l67 68h154zM542 189q0 -59 -25.5 -99t-64 -64.5t-84.5 -35t-87 -10.5q-76 0 -150 22t-127 63l126 147q27 -25 63.5 -40t70.5 -15q14 0 25.5 4.5t11.5 18.5t-20 24t-71 22q-28 6 -57.5 18.5t-54 33.5t-40.5 51.5t-16 72.5 q0 58 25.5 98t63.5 65.5t83.5 37t86.5 11.5q68 0 135 -20t121 -56l-121 -145q-28 18 -57 28t-57 10q-19 0 -31.5 -5t-12.5 -19q0 -6 2.5 -10t11 -8t23.5 -8.5t40 -9.5q35 -7 68.5 -20.5t60 -35t42.5 -52.5t16 -74z" horiz-adv-x="571"/>
<glyph glyph-name="scommaaccent.sc" d="M386 -45l-93 -195h-164l68 195h189zM542 189q0 -59 -25.5 -99t-64 -64.5t-84.5 -35t-87 -10.5q-76 0 -150 22t-127 63l126 147q27 -25 63.5 -40t70.5 -15q14 0 25.5 4.5t11.5 18.5t-20 24t-71 22q-28 6 -57.5 18.5t-54 33.5t-40.5 51.5t-16 72.5q0 58 25.5 98t63.5 65.5 t83.5 37t86.5 11.5q68 0 135 -20t121 -56l-121 -145q-28 18 -57 28t-57 10q-19 0 -31.5 -5t-12.5 -19q0 -6 2.5 -10t11 -8t23.5 -8.5t40 -9.5q35 -7 68.5 -20.5t60 -35t42.5 -52.5t16 -74z" horiz-adv-x="571"/>
<glyph glyph-name="scedilla.sc" d="M248 -240q-16 0 -33.5 1.5t-35.5 4.5t-34.5 7.5t-29.5 9.5l34 78q17 -8 41.5 -12t43.5 -4q15 0 27.5 4.5t12.5 16.5q0 11 -11.5 14.5t-25.5 3.5q-23 0 -41 -6l-44 34l61 73q-60 8 -114 28t-95 52l126 147q27 -25 63.5 -40t70.5 -15q14 0 25.5 4.5t11.5 18.5t-20 24 t-71 22q-28 6 -57.5 18.5t-54 33.5t-40.5 51.5t-16 72.5q0 58 25.5 98t63.5 65.5t83.5 37t86.5 11.5q68 0 135 -20t121 -56l-121 -145q-28 18 -57 28t-57 10q-19 0 -31.5 -5t-12.5 -19q0 -6 2.5 -10t11 -8t23.5 -8.5t40 -9.5q35 -7 68.5 -20.5t60 -35t42.5 -52.5t16 -74 q0 -51 -19 -87.5t-50 -61.5t-69 -38.5t-76 -18.5l-34 -36q5 1 16 1q17 0 35 -3.5t33 -13.5t24.5 -26.5t9.5 -41.5q0 -31 -16.5 -51t-41 -31.5t-53 -16t-53.5 -4.5z" horiz-adv-x="571"/>
<glyph glyph-name="scircumflex.sc" d="M300 722l-67 -68h-152l137 144h169l134 -144h-154zM542 189q0 -59 -25.5 -99t-64 -64.5t-84.5 -35t-87 -10.5q-76 0 -150 22t-127 63l126 147q27 -25 63.5 -40t70.5 -15q14 0 25.5 4.5t11.5 18.5t-20 24t-71 22q-28 6 -57.5 18.5t-54 33.5t-40.5 51.5t-16 72.5 q0 58 25.5 98t63.5 65.5t83.5 37t86.5 11.5q68 0 135 -20t121 -56l-121 -145q-28 18 -57 28t-57 10q-19 0 -31.5 -5t-12.5 -19q0 -6 2.5 -10t11 -8t23.5 -8.5t40 -9.5q35 -7 68.5 -20.5t60 -35t42.5 -52.5t16 -74z" horiz-adv-x="571"/>
<glyph glyph-name="germandbls.sc" d="M1113 189q0 -59 -25.5 -99t-64 -64.5t-84.5 -35t-87 -10.5q-76 0 -150 22t-127 63l126 147q27 -25 63.5 -40t70.5 -15q14 0 25.5 4.5t11.5 18.5t-20 24t-71 22q-28 6 -57.5 18.5t-54 33.5t-40.5 51.5t-16 72.5q0 58 25.5 98t63.5 65.5t83.5 37t86.5 11.5q68 0 135 -20 t121 -56l-121 -145q-28 18 -57 28t-57 10q-19 0 -31.5 -5t-12.5 -19q0 -6 2.5 -10t11 -8t23.5 -8.5t40 -9.5q35 -7 68.5 -20.5t60 -35t42.5 -52.5t16 -74zM542 189q0 -59 -25.5 -99t-64 -64.5t-84.5 -35t-87 -10.5q-76 0 -150 22t-127 63l126 147q27 -25 63.5 -40t70.5 -15 q14 0 25.5 4.5t11.5 18.5t-20 24t-71 22q-28 6 -57.5 18.5t-54 33.5t-40.5 51.5t-16 72.5q0 58 25.5 98t63.5 65.5t83.5 37t86.5 11.5q68 0 135 -20t121 -56l-121 -145q-28 18 -57 28t-57 10q-19 0 -31.5 -5t-12.5 -19q0 -6 2.5 -10t11 -8t23.5 -8.5t40 -9.5 q35 -7 68.5 -20.5t60 -35t42.5 -52.5t16 -74z" horiz-adv-x="1142"/>
<glyph glyph-name="tcommaaccent.sc" d="M370 -45l-93 -195h-164l68 195h189zM380 0h-231v413h-142v181h515v-181h-142v-413z" horiz-adv-x="529"/>
<glyph glyph-name="tcaron.sc" d="M486 798l-134 -144h-169l-137 144h152l67 -68l67 68h154zM380 0h-231v413h-142v181h515v-181h-142v-413z" horiz-adv-x="529"/>
<glyph glyph-name="tbar.sc" d="M57 335h92v78h-142v181h515v-181h-142v-78h92v-100h-92v-235h-231v235h-92v100z" horiz-adv-x="529"/>
<glyph glyph-name="uogonek.sc" d="M344 -240q-20 0 -42.5 4t-41.5 14.5t-31 29t-12 46.5q0 20 7.5 38t20.5 34t29.5 30t33.5 26q-63 5 -110.5 26.5t-79.5 56t-48 79.5t-16 97v353h236v-332q0 -77 58 -77q27 0 42.5 19.5t15.5 57.5v332h234v-353q0 -85 -41.5 -149t-127.5 -93q-63 -44 -87 -68.5t-24 -42.5 q0 -20 23 -20q26 0 56 18l44 -83q-28 -18 -64.5 -30.5t-74.5 -12.5z" horiz-adv-x="694"/>
<glyph glyph-name="uacute.sc" d="M250 654l111 144h212l-154 -144h-169zM345 -20q-72 0 -126.5 20t-91 55.5t-55 83t-18.5 102.5v353h236v-332q0 -77 58 -77q27 0 42.5 19.5t15.5 57.5v332h234v-353q0 -55 -18 -102.5t-55 -83t-92 -55.5t-130 -20z" horiz-adv-x="694"/>
<glyph glyph-name="ugrave.sc" d="M139 798h212l111 -144h-169zM345 -20q-72 0 -126.5 20t-91 55.5t-55 83t-18.5 102.5v353h236v-332q0 -77 58 -77q27 0 42.5 19.5t15.5 57.5v332h234v-353q0 -55 -18 -102.5t-55 -83t-92 -55.5t-130 -20z" horiz-adv-x="694"/>
<glyph glyph-name="ucircumflex.sc" d="M346 722l-67 -68h-152l137 144h169l134 -144h-154zM345 -20q-72 0 -126.5 20t-91 55.5t-55 83t-18.5 102.5v353h236v-332q0 -77 58 -77q27 0 42.5 19.5t15.5 57.5v332h234v-353q0 -55 -18 -102.5t-55 -83t-92 -55.5t-130 -20z" horiz-adv-x="694"/>
<glyph glyph-name="udieresis.sc" d="M124 748q0 20 8 38t22 31.5t32 21.5t39 8q20 0 38 -8t31.5 -21.5t21.5 -31.5t8 -38q0 -21 -8 -38.5t-21.5 -31t-31.5 -21t-38 -7.5q-42 0 -71.5 28t-29.5 70zM373 748q0 20 8 38t22 31.5t32 21.5t39 8q20 0 38 -8t31.5 -21.5t21.5 -31.5t8 -38q0 -21 -8 -38.5t-21.5 -31 t-31.5 -21t-38 -7.5q-42 0 -71.5 28t-29.5 70zM345 -20q-72 0 -126.5 20t-91 55.5t-55 83t-18.5 102.5v353h236v-332q0 -77 58 -77q27 0 42.5 19.5t15.5 57.5v332h234v-353q0 -55 -18 -102.5t-55 -83t-92 -55.5t-130 -20z" horiz-adv-x="694"/>
<glyph glyph-name="ubreve.sc" d="M348 654q-33 0 -64 6.5t-55.5 23t-41 44.5t-19.5 70h110q1 -12 8.5 -20t17.5 -12t22 -5.5t22 -1.5t22 1.5t22.5 5.5t17.5 12t8 20h110q-3 -42 -19 -70t-41 -44.5t-56 -23t-64 -6.5zM345 -20q-72 0 -126.5 20t-91 55.5t-55 83t-18.5 102.5v353h236v-332q0 -77 58 -77 q27 0 42.5 19.5t15.5 57.5v332h234v-353q0 -55 -18 -102.5t-55 -83t-92 -55.5t-130 -20z" horiz-adv-x="694"/>
<glyph glyph-name="uhungarumlaut.sc" d="M385 654l111 144h212l-154 -144h-169zM142 654l111 144h212l-154 -144h-169zM345 -20q-72 0 -126.5 20t-91 55.5t-55 83t-18.5 102.5v353h236v-332q0 -77 58 -77q27 0 42.5 19.5t15.5 57.5v332h234v-353q0 -55 -18 -102.5t-55 -83t-92 -55.5t-130 -20z" horiz-adv-x="694"/>
<glyph glyph-name="umacron.sc" d="M167 777h360v-96h-360v96zM345 -20q-72 0 -126.5 20t-91 55.5t-55 83t-18.5 102.5v353h236v-332q0 -77 58 -77q27 0 42.5 19.5t15.5 57.5v332h234v-353q0 -55 -18 -102.5t-55 -83t-92 -55.5t-130 -20z" horiz-adv-x="694"/>
<glyph glyph-name="utilde.sc" d="M537 790q-2 -30 -10 -55t-22.5 -44t-35 -29.5t-46.5 -10.5q-21 0 -40.5 6t-40.5 17q-24 13 -36 17.5t-27 4.5q-16 0 -25 -10.5t-12 -25.5h-80q3 57 32 96.5t81 39.5q23 0 42 -6.5t41 -17.5q23 -12 36 -17t29 -5t23.5 10t11.5 30h79zM345 -20q-72 0 -126.5 20t-91 55.5 t-55 83t-18.5 102.5v353h236v-332q0 -77 58 -77q27 0 42.5 19.5t15.5 57.5v332h234v-353q0 -55 -18 -102.5t-55 -83t-92 -55.5t-130 -20z" horiz-adv-x="694"/>
<glyph glyph-name="uring.sc" d="M408 747q0 25 -17.5 42t-42.5 17t-42.5 -17t-17.5 -42t17.5 -42t42.5 -17t42.5 17t17.5 42zM463 747q0 -24 -9.5 -45t-25 -36.5t-36.5 -24t-44 -8.5t-44 8.5t-37 24t-25 36.5t-9 45t9 45t25 36.5t37 24t44 8.5t44 -8.5t36.5 -24t25 -36.5t9.5 -45zM345 -20 q-72 0 -126.5 20t-91 55.5t-55 83t-18.5 102.5v353h236v-332q0 -77 58 -77q27 0 42.5 19.5t15.5 57.5v332h234v-353q0 -55 -18 -102.5t-55 -83t-92 -55.5t-130 -20z" horiz-adv-x="694"/>
<glyph glyph-name="wcircumflex.sc" d="M495 722l-67 -68h-152l137 144h169l134 -144h-154zM410 0h-233l-183 594h251l67 -307h4l69 307h226l74 -307h3l65 307h240l-185 -594h-233l-83 305h-2z" horiz-adv-x="987"/>
<glyph glyph-name="ycircumflex.sc" d="M318 722l-67 -68h-152l137 144h169l134 -144h-154zM426 0h-231v208l-215 386h262l77 -198l77 198h256l-226 -386v-208z" horiz-adv-x="632"/>
<glyph glyph-name="yacute.sc" d="M209 654l111 144h212l-154 -144h-169zM426 0h-231v208l-215 386h262l77 -198l77 198h256l-226 -386v-208z" horiz-adv-x="632"/>
<glyph glyph-name="ydieresis.sc" d="M96 748q0 20 8 38t22 31.5t32 21.5t39 8q20 0 38 -8t31.5 -21.5t21.5 -31.5t8 -38q0 -21 -8 -38.5t-21.5 -31t-31.5 -21t-38 -7.5q-42 0 -71.5 28t-29.5 70zM345 748q0 20 8 38t22 31.5t32 21.5t39 8q20 0 38 -8t31.5 -21.5t21.5 -31.5t8 -38q0 -21 -8 -38.5t-21.5 -31 t-31.5 -21t-38 -7.5q-42 0 -71.5 28t-29.5 70zM426 0h-231v208l-215 386h262l77 -198l77 198h256l-226 -386v-208z" horiz-adv-x="632"/>
<glyph glyph-name="zacute.sc" d="M183 654l111 144h212l-154 -144h-169zM38 181l216 229h-207v184h507v-169l-232 -241h242v-184h-526v181z" horiz-adv-x="590"/>
<glyph glyph-name="zdotaccent.sc" d="M194 748q0 22 8.5 41t23.5 33.5t34.5 23t42.5 8.5q21 0 40.5 -8.5t34 -23t23 -33.5t8.5 -41t-8.5 -41t-23 -33.5t-34 -22.5t-40.5 -8q-23 0 -42.5 8t-34.5 22.5t-23.5 33.5t-8.5 41zM38 181l216 229h-207v184h507v-169l-232 -241h242v-184h-526v181z" horiz-adv-x="590"/>
<glyph glyph-name="zcaron.sc" d="M527 798l-134 -144h-169l-137 144h152l67 -68l67 68h154zM38 181l216 229h-207v184h507v-169l-232 -241h242v-184h-526v181z" horiz-adv-x="590"/>
<glyph glyph-name="ij.sc" d="M604 -20q-100 0 -164.5 43.5t-88.5 123.5l182 79q8 -39 41 -39q20 0 27.5 13.5t7.5 30.5v363h236v-377q0 -45 -13 -87.5t-42 -76t-74.5 -53.5t-111.5 -20zM61 594h236v-594h-236v594z" horiz-adv-x="900"/>
<glyph glyph-name="oe.sc" d="M284 297q0 -31 10 -53.5t26.5 -37t37 -21.5t42.5 -7h26v238h-26q-22 0 -42.5 -7.5t-37 -22.5t-26.5 -37.5t-10 -51.5zM847 428h-212v-52h199v-153h-199v-56h227v-167h-447q-73 0 -139 14.5t-116 48t-79.5 90t-29.5 140.5q0 75 28 131t76 94t111 57t132 19h449v-166z" horiz-adv-x="901"/>
<glyph glyph-name="eth.sc" d="M277 231v-52h15q32 0 57.5 6.5t43.5 21t28 37.5t10 57q0 57 -34.5 86.5t-97.5 29.5h-22v-48h73v-138h-73zM61 0v231h-54v138h54v225h234q72 0 138 -14t116.5 -48t80 -90.5t29.5 -141.5q0 -78 -28.5 -135t-76 -93.5t-110.5 -54t-132 -17.5h-251z" horiz-adv-x="689"/>
</font>
</defs>
</svg>
