<?xml version="1.0" encoding="UTF-8" standalone="no"?>
<!DOCTYPE svg  PUBLIC '-//W3C//DTD SVG 1.1//EN'  'http://www.w3.org/Graphics/SVG/1.1/DTD/svg11.dtd'>
<svg xmlns="http://www.w3.org/2000/svg" version="1.1">
<defs>
<font id="AvenirNext-Medium" horiz-adv-x="849">
<font-face units-per-em="1000" descent="-200" cap-height="708" font-family="Avenir Next Medium" unicode-range="U+000D-FE48" x-height="474" underline-thickness="50" font-weight="500" underline-position="-200" bbox="-440 -436 1369 1199" panose-1="2 11 6 3 2 2 2 2 2 4" ascent="800"/>
<missing-glyph d="M512 718v-718h-512v718h512zM462 50v617h-412v-617h412zM225 234l-2 17q0 56 13 81q7 13 18 27.5t28 31.5q16 15 26 26.5t15 21t7 18t2 17.5q0 36 -22.5 60.5t-53.5 24.5t-53.5 -22t-28.5 -73l-50 8q7 72 44 104.5t91 32.5t89 -35.5t35 -95.5q0 -32 -12.5 -58.5 t-50.5 -61.5q-37 -33 -43 -52q-6 -20 -6 -72h-46zM222 117v67h56v-67h-56z" horiz-adv-x="512"/>
<glyph glyph-name="IJ" unicode="IJ" d="M370 158q8 -38 35 -63t67 -25q32 0 52.5 12t32.5 32.5t17 48t5 58.5v487h99v-491q0 -37 -8 -78t-30 -76t-61.5 -58t-101.5 -23q-81 0 -132 42t-67 108zM185 0h-99v708h99v-708z" horiz-adv-x="758"/>
<glyph glyph-name="ij" unicode="ij" d="M448 645q0 -26 -18.5 -43t-44.5 -17t-44.5 17.5t-18.5 42.5q0 26 18.5 43.5t44.5 17.5t44.5 -17.5t18.5 -43.5zM234 -154q20 -5 38 -5q21 0 34 8t20 21.5t9.5 32t2.5 39.5v532h94v-535q0 -36 -6.5 -68t-23.5 -57t-47 -39.5t-77 -14.5q-13 0 -28 2t-26 4zM192 645 q0 -26 -18.5 -43t-44.5 -17t-44 17.5t-18 42.5q0 26 18 43.5t44 17.5t44.5 -17.5t18.5 -43.5zM176 0h-94v474h94v-474z" horiz-adv-x="515"/>
<glyph glyph-name="napostrophe" unicode='&quot;n' d="M67 518h-79l64 190h93zM186 474q2 -18 3 -40.5t1 -37.5h3q9 19 24.5 35.5t35.5 29t44 19.5t50 7q46 0 79 -15.5t55 -41.5t32.5 -61t10.5 -75v-294h-94v263q0 29 -4.5 55t-16.5 46t-33 32t-54 12q-56 0 -91.5 -42.5t-35.5 -113.5v-252h-94v372q0 19 -1 49t-3 53h89z" horiz-adv-x="602"/>
<glyph glyph-name="fi" unicode="fi" d="M507 645q0 -26 -18.5 -43t-44.5 -17t-44 17.5t-18 42.5q0 26 18 43.5t44 17.5t44.5 -17.5t18.5 -43.5zM491 0h-94v474h94v-474zM304 397h-110v-397h-94v397h-94v77h94v99q0 42 9.5 77.5t31 61.5t55 41t81.5 15q34 0 59 -7l-11 -81q-11 3 -22 5t-25 2q-27 0 -43.5 -9.5 t-25.5 -25.5t-12 -36.5t-3 -42.5v-99h110v-77z" horiz-adv-x="574"/>
<glyph glyph-name="fl" unicode="fl" d="M304 397h-110v-397h-94v397h-94v77h94v99q0 42 9.5 77.5t31 61.5t55 41t81.5 15q34 0 59 -7l-11 -81q-11 3 -22 5t-25 2q-27 0 -43.5 -9.5t-25.5 -25.5t-12 -36.5t-3 -42.5v-99h110v-77zM491 0h-94v756h94v-756z" horiz-adv-x="574"/>
<glyph glyph-name=".notdef" d="M512 718v-718h-512v718h512zM462 50v617h-412v-617h412zM225 234l-2 17q0 56 13 81q7 13 18 27.5t28 31.5q16 15 26 26.5t15 21t7 18t2 17.5q0 36 -22.5 60.5t-53.5 24.5t-53.5 -22t-28.5 -73l-50 8q7 72 44 104.5t91 32.5t89 -35.5t35 -95.5q0 -32 -12.5 -58.5 t-50.5 -61.5q-37 -33 -43 -52q-6 -20 -6 -72h-46zM222 117v67h56v-67h-56z" horiz-adv-x="512"/>
<glyph glyph-name=".null" horiz-adv-x="500"/>
<glyph glyph-name=".null" horiz-adv-x="500"/>
<glyph glyph-name="nonmarkingreturn" unicode="" horiz-adv-x="0"/>
<glyph glyph-name="space" unicode=" " horiz-adv-x="250"/>
<glyph glyph-name="exclam" unicode="!" d="M234 60q0 -26 -19 -46t-48 -20q-28 0 -47.5 19.5t-19.5 45.5q0 27 19 46.5t48 19.5t48 -19t19 -46zM216 207h-99v501h99v-501z" horiz-adv-x="334"/>
<glyph glyph-name="quotedbl" unicode='&quot;' d="M251 708h82v-250h-82v250zM90 708h82v-250h-82v250z" horiz-adv-x="423"/>
<glyph glyph-name="numbersign" unicode="#" d="M221 284h118l19 141h-117zM137 211h-96v73h106l19 141h-98v73h109l29 210h75l-30 -210h118l29 210h75l-30 -210h90v-73h-100l-20 -141h93v-73h-102l-30 -211h-75l30 211h-118l-30 -211h-74z" horiz-adv-x="574"/>
<glyph glyph-name="dollar" unicode="$" d="M264 641q-44 -3 -75 -31.5t-31 -78.5q0 -48 29.5 -73.5t76.5 -39.5v223zM315 69q22 1 42 9t35.5 22.5t25 36.5t9.5 52q0 48 -32 76t-80 44v-240zM264 323q-39 11 -75.5 26.5t-64 39t-44.5 56.5t-17 80q0 44 16.5 79t44 59.5t64 39t76.5 16.5v70h51v-69q52 -1 105.5 -19.5 t91.5 -56.5l-68 -63q-23 29 -58.5 44t-70.5 16v-238q38 -13 75.5 -29t67 -40.5t47.5 -59.5t18 -84q0 -47 -16.5 -84t-45 -63t-66.5 -39.5t-80 -14.5v-72h-51v72q-67 2 -124 27.5t-99 71.5l73 62q13 -19 32 -34t39 -25.5t40.5 -16t38.5 -5.5v254z" horiz-adv-x="595"/>
<glyph glyph-name="percent" unicode="%" d="M253 -32l-68 33l434 739l67 -33zM312 543q0 19 -7.5 36.5t-20 30t-30 20t-36.5 7.5q-20 0 -37 -7.5t-29.5 -20t-20 -30t-7.5 -36.5q0 -20 7.5 -37t20 -29.5t29.5 -20t37 -7.5q19 0 36.5 7.5t30 20t20 29.5t7.5 37zM41 543q0 37 14 69t38 56t56 38t69 14t69 -14t56 -38 t38 -56t14 -69t-14 -69t-38 -56t-56 -38t-69 -14t-69 14t-56 38t-38 56t-14 69zM746 165q0 19 -7.5 36.5t-20 30t-30 20t-36.5 7.5q-20 0 -37 -7.5t-29.5 -20t-20 -30t-7.5 -36.5q0 -20 7.5 -37t20 -29.5t29.5 -20t37 -7.5q19 0 36.5 7.5t30 20t20 29.5t7.5 37zM475 165 q0 37 14 69t38 56t56 38t69 14t69 -14t56 -38t38 -56t14 -69t-14 -69t-38 -56t-56 -38t-69 -14t-69 14t-56 38t-38 56t-14 69z" horiz-adv-x="870"/>
<glyph glyph-name="ampersand" unicode="&amp;" d="M262 332q-52 -22 -83 -55t-31 -87q0 -28 11 -51t29.5 -39t42.5 -24.5t49 -8.5q51 0 86 22.5t64 66.5zM407 558q0 38 -25.5 64t-65.5 26q-41 0 -68 -26t-27 -68q0 -17 6.5 -34t16.5 -33.5t22.5 -30.5t24.5 -25q22 10 43 22t37 28t26 35t10 42zM550 167l162 -167h-131 l-88 93q-40 -50 -90.5 -78t-124.5 -28q-46 0 -88 13t-73.5 38.5t-50 63t-18.5 86.5q0 40 13.5 71.5t35.5 56.5t51 44t59 33q-34 35 -57.5 74.5t-23.5 87.5q0 43 15.5 75t42 53.5t60.5 32t71 10.5t70 -10.5t58 -31.5t40 -52t15 -72q0 -35 -12.5 -63t-33.5 -51t-48.5 -41 t-57.5 -32l141 -145l89 150h110z" horiz-adv-x="723"/>
<glyph glyph-name="quotesingle" unicode="&apos;" d="M90 708h82v-250h-82v250z" horiz-adv-x="262"/>
<glyph glyph-name="parenleft" unicode="(" d="M119 288q0 -110 35 -214.5t94 -186.5l-68 -44q-66 89 -106 204t-40 241t40 241t106 204l68 -44q-59 -82 -94 -186.5t-35 -214.5z" horiz-adv-x="315"/>
<glyph glyph-name="parenright" unicode=")" d="M196 288q0 110 -35 214.5t-94 186.5l68 44q66 -89 106 -204t40 -241t-40 -241t-106 -204l-68 44q59 82 94 186.5t35 214.5z" horiz-adv-x="315"/>
<glyph glyph-name="asterisk" unicode="*" d="M389 620l27 -76l-127 -41l81 -109l-64 -48l-84 113l-84 -113l-64 48l81 109l-127 41l27 76l127 -41v129h80v-129z" horiz-adv-x="454"/>
<glyph glyph-name="plus" unicode="+" d="M374 344h222v-82h-222v-222h-82v222h-222v82h222v222h82v-222z" horiz-adv-x="666"/>
<glyph glyph-name="comma" unicode="," d="M114 -133h-80l69 250h94z" horiz-adv-x="260"/>
<glyph glyph-name="hyphen" unicode="-" d="M276 204h-232v80h232v-80z" horiz-adv-x="320"/>
<glyph glyph-name="period" unicode="." d="M197 60q0 -26 -19 -46t-48 -20q-28 0 -47.5 19.5t-19.5 45.5q0 27 19 46.5t48 19.5t48 -19t19 -46z" horiz-adv-x="260"/>
<glyph glyph-name="slash" unicode="/" d="M69 -33l-71 24l307 751l71 -26z" horiz-adv-x="380"/>
<glyph glyph-name="zero" unicode="0" d="M298 645q-44 0 -72 -28.5t-43.5 -72t-21.5 -94.5t-6 -96t6 -96t21.5 -94t43.5 -71.5t72 -28.5q43 0 70.5 28.5t43.5 71.5t22 94t6 96t-6 96t-22 94.5t-43.5 72t-70.5 28.5zM298 726q63 0 108.5 -29t75 -79.5t43.5 -118.5t14 -145q0 -78 -14 -145.5t-43.5 -118t-75 -79.5 t-108.5 -29t-109 29t-75.5 79.5t-43.5 118t-14 145.5q0 77 14 145t43.5 118.5t75.5 79.5t109 29z" horiz-adv-x="595"/>
<glyph glyph-name="one" unicode="1" d="M379 0h-97v590l-134 -112l-57 67l201 163h87v-708z" horiz-adv-x="595"/>
<glyph glyph-name="two" unicode="2" d="M522 0h-462v93l282 280q32 33 55 69t23 81q0 28 -10 50.5t-27 38.5t-40 24.5t-49 8.5q-54 0 -89 -34.5t-44 -88.5l-95 16q6 40 25.5 74.5t49.5 60t69.5 39.5t84.5 14q44 0 84.5 -13t71.5 -38t49.5 -63t18.5 -87q0 -34 -9 -63t-24.5 -55t-36.5 -49.5t-44 -46.5l-230 -224 h347v-87z" horiz-adv-x="595"/>
<glyph glyph-name="three" unicode="3" d="M213 410h31q30 0 58.5 5.5t50.5 19t35.5 36.5t13.5 57q0 27 -10 48.5t-27.5 36.5t-40 23.5t-47.5 8.5q-45 0 -76.5 -23t-47.5 -64l-88 31q26 64 83.5 100.5t132.5 36.5q44 0 83.5 -12.5t69.5 -36.5t47.5 -60t17.5 -83q0 -30 -9.5 -56t-26 -47t-39.5 -36t-50 -22v-2 q31 -6 57.5 -21t45.5 -37.5t30 -51.5t11 -63q0 -53 -20 -93.5t-53 -67.5t-76 -41t-88 -14q-84 0 -148 38t-93 118l90 30q16 -46 54.5 -75t94.5 -29q27 0 52.5 8.5t45.5 25.5t32 42t12 59q0 37 -16 62t-41.5 40.5t-57.5 22t-63 6.5h-30v80z" horiz-adv-x="595"/>
<glyph glyph-name="four" unicode="4" d="M357 597h-2l-224 -355h226v355zM451 242h102v-83h-102v-159h-94v159h-326v88l301 461h119v-466z" horiz-adv-x="595"/>
<glyph glyph-name="five" unicode="5" d="M490 622h-292l-6 -186q20 7 44.5 10t46.5 3q51 0 94.5 -15.5t75 -44.5t49.5 -70.5t18 -92.5q0 -56 -19 -101t-52 -76.5t-78 -49t-98 -17.5q-83 0 -140 38.5t-86 103.5l88 35q17 -43 53.5 -69t84.5 -26q31 0 58 11t47 31t31.5 48t11.5 62q0 40 -13.5 69.5t-36.5 48.5 t-53 28t-63 9q-40 0 -82 -11t-75 -28l10 376h382v-86z" horiz-adv-x="595"/>
<glyph glyph-name="six" unicode="6" d="M150 214q0 -31 10.5 -58.5t30 -47.5t46.5 -32t60 -12t59.5 11t46 31.5t30 48t10.5 60.5q0 32 -10.5 59t-29 47t-45.5 31t-60 11t-60.5 -11t-47 -31t-30 -47t-10.5 -60zM231 423l1 -2q15 9 40 14t48 5q46 0 86.5 -16.5t70.5 -46t47 -70.5t17 -89q0 -53 -18.5 -96.5 t-51.5 -74.5t-77.5 -48t-96.5 -17q-53 0 -98 17.5t-77.5 48.5t-51 74t-18.5 93q0 58 19 105t50 96l185 292h115z" horiz-adv-x="595"/>
<glyph glyph-name="seven" unicode="7" d="M515 620l-284 -620h-111l295 622h-351v86h451v-88z" horiz-adv-x="595"/>
<glyph glyph-name="eight" unicode="8" d="M159 198q0 -30 10 -55t28.5 -42.5t44 -27.5t56.5 -10q30 0 55.5 10t43.5 27.5t28.5 42.5t10.5 55q0 29 -10.5 53.5t-28.5 42.5t-43.5 28t-55.5 10t-55.5 -10t-44 -28t-29 -42.5t-10.5 -53.5zM182 530q0 -24 8.5 -45t24 -36.5t37 -24.5t46.5 -9q24 0 45 9t37 24.5t25 36.5 t9 45q0 25 -9.5 46.5t-25 37t-36.5 24t-45 8.5q-25 0 -46.5 -8.5t-37 -24t-24 -37t-8.5 -46.5zM401 373q28 -7 52.5 -23.5t42.5 -39.5t28.5 -53t10.5 -64q0 -50 -19 -89t-51.5 -66t-75.5 -41.5t-91 -14.5t-91.5 14.5t-76 41.5t-51.5 66t-19 89q0 35 10.5 65t29 53t43 38.5 t51.5 23.5v2q-48 17 -78.5 58t-30.5 100q0 44 17 79.5t46 61t67.5 39t82.5 13.5q43 0 82 -13.5t67.5 -38t45.5 -60t17 -79.5q0 -58 -30.5 -101t-78.5 -59v-2z" horiz-adv-x="595"/>
<glyph glyph-name="nine" unicode="9" d="M446 494q0 31 -10.5 58.5t-30 48t-46.5 32.5t-60 12t-60 -11.5t-46.5 -31.5t-30 -48t-10.5 -61q0 -32 10.5 -59t29.5 -47t46 -31t60 -11t60.5 11t47 31t30 47t10.5 60zM365 286l-1 1q-15 -9 -41 -14q-12 -2 -24.5 -3.5t-23.5 -1.5q-47 0 -87 16.5t-70 46t-47 70.5t-17 89 q0 53 18.5 96.5t51.5 74.5t78 48t97 17t97 -17.5t77.5 -48.5t51 -74t18.5 -93q0 -58 -19 -105t-49 -96l-185 -292h-115z" horiz-adv-x="595"/>
<glyph glyph-name="colon" unicode=":" d="M217 60q0 -26 -19 -46t-48 -20q-28 0 -47.5 19.5t-19.5 45.5q0 27 19 46.5t48 19.5t48 -19t19 -46zM217 415q0 -27 -19 -46.5t-48 -19.5q-28 0 -47.5 19t-19.5 46q0 26 19 46t48 20t48 -19.5t19 -45.5z" horiz-adv-x="300"/>
<glyph glyph-name="semicolon" unicode=";" d="M123 -133h-80l69 250h94zM217 415q0 -27 -19 -46.5t-48 -19.5q-28 0 -47.5 19t-19.5 46q0 26 19 46t48 20t48 -19.5t19 -45.5z" horiz-adv-x="300"/>
<glyph glyph-name="less" unicode="&lt;" d="M589 479l-385 -176l383 -176v-85l-508 231v60l510 231v-85z" horiz-adv-x="666"/>
<glyph glyph-name="equal" unicode="=" d="M596 261v-81h-526v81h526zM596 426v-81h-526v81h526z" horiz-adv-x="666"/>
<glyph glyph-name="greater" unicode="&gt;" d="M79 564l508 -231v-60l-508 -231v85l383 176l-383 176v85z" horiz-adv-x="666"/>
<glyph glyph-name="question" unicode="?" d="M326 60q0 -26 -19 -46t-48 -20q-28 0 -47.5 19.5t-19.5 45.5q0 27 19 46.5t48 19.5t48 -19t19 -46zM301 201h-94v48q0 26 5 47t14.5 38t23 32.5t30.5 31.5l37 35q22 19 36.5 41.5t14.5 57.5q0 48 -30.5 76.5t-78.5 28.5q-50 0 -80 -32t-35 -78l-96 11q6 43 25 77.5 t47.5 58.5t65.5 36.5t79 12.5t78.5 -12t64.5 -35.5t44 -58t16 -79.5q0 -32 -7 -56t-19.5 -43.5t-30.5 -36.5t-39 -35q-20 -17 -34 -30.5t-22 -27.5t-11.5 -31t-3.5 -42v-35z" horiz-adv-x="500"/>
<glyph glyph-name="at" unicode="@" d="M728 102q-59 -62 -139.5 -91t-173.5 -29q-86 0 -156.5 27.5t-120.5 76.5t-77.5 117.5t-27.5 149.5q0 80 30 148t82 118t121.5 78.5t148.5 28.5q68 0 132 -20t113.5 -60t79 -100t29.5 -141q0 -60 -16 -106t-43 -77t-62.5 -46.5t-74.5 -15.5q-42 0 -64.5 20.5t-22.5 49.5 h-5q-6 -11 -17 -23.5t-27 -23t-35.5 -17t-43.5 -6.5q-68 0 -106 45.5t-38 117.5q0 42 14 83t40 72.5t62.5 51t81.5 19.5q38 0 65 -16.5t36 -40.5h2l9 42h76l-39 -188q-3 -14 -6.5 -35t-3.5 -36q0 -17 7 -31t33 -14q22 0 40.5 12.5t31.5 34.5t20.5 53t7.5 67q0 63 -20.5 111 t-57.5 80.5t-88 49t-111 16.5q-66 0 -120 -23t-93 -64t-60 -96.5t-21 -119.5q0 -68 22.5 -123t62.5 -93.5t95.5 -59.5t122.5 -21q85 0 146.5 26.5t112.5 74.5zM412 478q-27 0 -47.5 -14.5t-34.5 -37.5t-21 -51t-7 -55q0 -13 3 -28.5t11 -29t22 -22.5t36 -9q31 0 52 15.5 t34.5 38t19.5 49t6 48.5q0 18 -3.5 35t-12 30.5t-22.5 22t-36 8.5z" horiz-adv-x="800"/>
<glyph glyph-name="A" unicode="A" d="M221 261h265l-132 332zM115 0h-110l307 708h90l304 -708h-112l-72 174h-336z" horiz-adv-x="711"/>
<glyph glyph-name="B" unicode="B" d="M185 84h124q31 0 62.5 5.5t57 19.5t41 37.5t15.5 59.5q0 63 -43 91t-124 28h-133v-241zM185 409h129q28 0 53.5 6.5t44.5 20t30 34t11 49.5q0 57 -42 81.5t-113 24.5h-113v-216zM86 708h244q40 0 80 -9t71.5 -30t51 -55t19.5 -85q0 -59 -34 -99t-90 -55v-2 q34 -4 63 -17.5t50 -35.5t32.5 -52t11.5 -67q0 -51 -21 -89t-57 -62.5t-84.5 -37t-103.5 -12.5h-233v708z" horiz-adv-x="642"/>
<glyph glyph-name="C" unicode="C" d="M693 110q-42 -57 -109 -92.5t-161 -35.5q-81 0 -149.5 27.5t-118 77t-77.5 118t-28 150.5q0 83 28.5 151.5t79 117t119.5 75.5t150 27q36 0 73 -7t71 -21t62 -34.5t48 -47.5l-78 -60q-26 36 -73.5 59.5t-102.5 23.5q-62 0 -111.5 -22.5t-84.5 -61.5t-54 -90.5t-19 -109.5 q0 -60 18.5 -112t53 -90.5t84 -60.5t110.5 -22q60 0 109 24t81 70z" horiz-adv-x="708"/>
<glyph glyph-name="D" unicode="D" d="M185 87h124q64 0 118.5 18t94 52t61.5 84t22 113q0 66 -22 116t-61.5 83.5t-94 51t-118.5 17.5h-124v-535zM86 708h243q68 0 136 -20t123 -63t89 -110t34 -161q0 -91 -34 -157.5t-89 -110t-123 -65t-136 -21.5h-243v708z" horiz-adv-x="761"/>
<glyph glyph-name="E" unicode="E" d="M185 88h370v-88h-469v708h454v-87h-355v-212h334v-85h-334v-236z" horiz-adv-x="601"/>
<glyph glyph-name="F" unicode="F" d="M185 0h-99v708h442v-87h-343v-220h321v-85h-321v-316z" horiz-adv-x="568"/>
<glyph glyph-name="G" unicode="G" d="M620 562q-32 35 -81.5 56t-110.5 21q-62 0 -112 -22.5t-85 -61.5t-54 -90.5t-19 -109.5q0 -59 19 -111t54 -90.5t86 -60.5t114 -22q50 0 92 9t73 26v197h-157v84h255v-343q-56 -30 -122 -46t-144 -16q-83 0 -152.5 27.5t-119.5 77t-78 118t-28 150.5q0 83 28.5 151.5 t79 117t119.5 75.5t150 27q85 0 151.5 -25t110.5 -67z" horiz-adv-x="778"/>
<glyph glyph-name="H" unicode="H" d="M86 708h99v-296h358v296h100v-708h-100v324h-358v-324h-99v708z" horiz-adv-x="729"/>
<glyph glyph-name="I" unicode="I" d="M185 0h-99v708h99v-708z" horiz-adv-x="271"/>
<glyph glyph-name="J" unicode="J" d="M107 158q8 -38 35 -63t67 -25q32 0 52.5 12t32.5 32.5t17 48t5 58.5v487h99v-491q0 -37 -8 -78t-30 -76t-61.5 -58t-101.5 -23q-81 0 -132 42t-67 108z" horiz-adv-x="495"/>
<glyph glyph-name="K" unicode="K" d="M185 396h2l316 312h137l-344 -324l365 -384h-142l-332 366h-2v-366h-99v708h99v-312z" horiz-adv-x="659"/>
<glyph glyph-name="L" unicode="L" d="M185 88h316v-88h-415v708h99v-620z" horiz-adv-x="511"/>
<glyph glyph-name="M" unicode="M" d="M452 164h2l209 544h154v-708h-99v592h-2l-235 -592h-63l-234 592h-2v-592h-96v708h154z" horiz-adv-x="903"/>
<glyph glyph-name="N" unicode="N" d="M585 142h2v566h99v-708h-125l-374 578h-2v-578h-99v708h129z" horiz-adv-x="772"/>
<glyph glyph-name="O" unicode="O" d="M693 355q0 58 -19 109.5t-54 90.5t-84.5 61.5t-111.5 22.5q-61 0 -110.5 -22.5t-84 -61.5t-53.5 -90.5t-19 -109.5q0 -59 19 -111t54 -90.5t84 -60.5t110 -22t111 22t85 60.5t54 90.5t19 111zM800 355q0 -82 -28.5 -150.5t-78.5 -118t-119 -77t-150 -27.5t-149.5 27.5 t-118.5 77t-78 118t-28 150.5q0 83 28 151.5t78 117t118.5 75.5t149.5 27t150 -27t119 -75.5t78.5 -117t28.5 -151.5z"/>
<glyph glyph-name="P" unicode="P" d="M185 395h105q36 0 66.5 6.5t52.5 20t34 35.5t12 54t-12.5 53.5t-34 35t-51.5 19t-65 5.5h-107v-229zM86 708h216q57 0 104 -11.5t80 -35.5t51 -61t18 -89q0 -53 -19.5 -91t-54 -62t-82 -35.5t-102.5 -11.5h-112v-311h-99v708z" horiz-adv-x="595"/>
<glyph glyph-name="Q" unicode="Q" d="M157 363q0 -58 18.5 -108.5t52.5 -87.5t82 -58.5t108 -21.5q58 0 106.5 21.5t82.5 58.5t53 87.5t19 108.5q0 57 -18 107t-52 87.5t-82 59.5t-108 22t-108 -22t-82.5 -59.5t-53 -87.5t-18.5 -107zM834 0h-416q-81 0 -148.5 26t-116.5 73t-76 114t-27 150q0 80 28 146.5 t77 114.5t116.5 75t147.5 27q79 0 146 -27t116 -75t76.5 -114.5t27.5 -146.5q0 -95 -40 -166t-106 -112v-2h195v-83z" horiz-adv-x="846"/>
<glyph glyph-name="R" unicode="R" d="M185 398h114q35 0 65 6t52.5 19.5t35.5 35t13 53.5t-13 53.5t-34.5 34.5t-50.5 18.5t-61 5.5h-121v-226zM185 0h-99v708h227q51 0 97 -10.5t80.5 -33.5t54.5 -60.5t20 -91.5q0 -78 -48 -126t-124 -61l198 -325h-120l-180 315h-106v-315z" horiz-adv-x="614"/>
<glyph glyph-name="S" unicode="S" d="M438 577q-21 29 -57 47.5t-81 18.5q-24 0 -48.5 -6.5t-44.5 -21t-32.5 -36t-12.5 -51.5q0 -29 11.5 -48.5t31 -33t46 -23t56.5 -19.5q36 -11 73 -25t67 -37t49 -57.5t19 -87.5q0 -55 -20.5 -95.5t-54.5 -67t-78.5 -39.5t-91.5 -13q-67 0 -129.5 26t-103.5 77l77 65 q25 -37 67 -60t91 -23q25 0 50 7t45.5 22t33.5 37.5t13 54.5t-13.5 53.5t-36.5 36.5t-53.5 25.5t-64.5 21.5q-34 10 -67 24.5t-59 37t-42 55.5t-16 82q0 53 21.5 91t56 63t78 36.5t87.5 11.5q62 0 116 -22t87 -59z" horiz-adv-x="569"/>
<glyph glyph-name="T" unicode="T" d="M334 0h-99v621h-227v87h553v-87h-227v-621z" horiz-adv-x="569"/>
<glyph glyph-name="U" unicode="U" d="M356 -18q-70 0 -122 23.5t-86 62.5t-50.5 89.5t-16.5 104.5v446h99v-440q0 -36 9 -71.5t29.5 -63.5t54 -45t83.5 -17q49 0 83 17t54.5 45t29.5 63.5t9 71.5v440h99v-446q0 -54 -16.5 -104.5t-50.5 -89.5t-86 -62.5t-122 -23.5z" horiz-adv-x="712"/>
<glyph glyph-name="V" unicode="V" d="M321 128h3l213 580h107l-278 -708h-92l-276 708h110z" horiz-adv-x="642"/>
<glyph glyph-name="W" unicode="W" d="M273 144h2l166 564h109l165 -564h2l156 564h105l-208 -708h-103l-172 569h-2l-172 -569h-103l-208 708h107z" horiz-adv-x="988"/>
<glyph glyph-name="X" unicode="X" d="M334 444l168 264h116l-226 -335l257 -373h-125l-194 298l-190 -298h-122l253 375l-228 333h121z" horiz-adv-x="668"/>
<glyph glyph-name="Y" unicode="Y" d="M362 0h-100v306l-265 402h122l196 -320l197 320h115l-265 -402v-306z" horiz-adv-x="624"/>
<glyph glyph-name="Z" unicode="Z" d="M553 621l-400 -533h406v-88h-526v87l399 534h-391v87h512v-87z" horiz-adv-x="592"/>
<glyph glyph-name="bracketleft" unicode="[" d="M236 666h-93v-756h93v-66h-177v888h177v-66z" horiz-adv-x="315"/>
<glyph glyph-name="backslash" unicode="\" d="M4 716l70 26l308 -751l-71 -24z" horiz-adv-x="380"/>
<glyph glyph-name="bracketright" unicode="]" d="M79 -90h93v756h-93v66h177v-888h-177v66z" horiz-adv-x="315"/>
<glyph glyph-name="asciicircum" unicode="^" d="M300 708h66l226 -399h-91l-169 300l-167 -300h-91z" horiz-adv-x="666"/>
<glyph glyph-name="underscore" unicode="_" d="M0 -75h500v-63h-500v63z" horiz-adv-x="500"/>
<glyph glyph-name="grave" unicode="`" d="M-34 708h113l100 -144h-77z" horiz-adv-x="250"/>
<glyph glyph-name="a" unicode="a" d="M353 226q-35 0 -72.5 -3t-68 -12t-50.5 -27t-20 -48q0 -21 8.5 -35t22.5 -23t31 -12.5t35 -3.5q66 0 101.5 39.5t35.5 99.5v25h-23zM376 307q0 53 -32 78.5t-85 25.5q-40 0 -75.5 -15.5t-59.5 -39.5l-50 60q35 33 85.5 52t108.5 19q51 0 88.5 -14.5t61.5 -39.5t36 -59 t12 -73v-207q0 -24 1.5 -50.5t5.5 -43.5h-85q-8 34 -8 68h-3q-26 -38 -65.5 -59t-93.5 -21q-28 0 -58.5 7.5t-55.5 24.5t-41.5 45t-16.5 69q0 54 29 85.5t76 48t106 21.5t119 5v13z" horiz-adv-x="542"/>
<glyph glyph-name="b" unicode="b" d="M489 238q0 33 -10 64t-30 55t-49.5 38t-68.5 14q-36 0 -65.5 -14t-50.5 -38t-32.5 -55t-11.5 -65t11.5 -65t32.5 -54.5t50.5 -37.5t65.5 -14q39 0 68.5 14.5t49.5 38.5t30 55t10 64zM174 75v-75h-91v756h94v-353h3q24 35 67 59.5t102 24.5q53 0 96.5 -19t75 -53 t48.5 -79.5t17 -97.5t-17 -98t-48 -80t-75 -53.5t-99 -19.5q-51 0 -97 22.5t-74 65.5h-2z" horiz-adv-x="636"/>
<glyph glyph-name="c" unicode="c" d="M413 354q-15 23 -45 38.5t-64 15.5q-37 0 -65.5 -14t-48.5 -37.5t-30.5 -54.5t-10.5 -65t10.5 -65t30.5 -54.5t49 -37.5t66 -14q36 0 65.5 14t48.5 38l63 -57q-30 -35 -75 -54.5t-102 -19.5q-55 0 -101.5 18t-80.5 50.5t-53.5 78.5t-19.5 103q0 56 19 102t53 79t80.5 51 t100.5 18q50 0 99.5 -20t78.5 -58z" horiz-adv-x="494"/>
<glyph glyph-name="d" unicode="d" d="M147 238q0 -33 10 -64t30 -55t49 -38.5t68 -14.5q36 0 65.5 14t50.5 37.5t32.5 54.5t11.5 65t-11.5 65t-32.5 55t-50.5 38t-65.5 14q-39 0 -68 -14t-49 -38t-30 -55t-10 -64zM459 75q-27 -43 -73.5 -65.5t-97.5 -22.5q-55 0 -99 19.5t-75 53.5t-48 80t-17 98t17 97.5 t48.5 79.5t75.5 53t97 19q58 0 101 -24.5t68 -59.5h2v353h94v-756h-91v75h-2z" horiz-adv-x="635"/>
<glyph glyph-name="e" unicode="e" d="M523 241v-16t-1 -16h-376q1 -30 13.5 -56.5t33.5 -46t48.5 -30.5t58.5 -11q48 0 83 21t55 51l66 -53q-38 -50 -89.5 -73.5t-114.5 -23.5q-54 0 -100 18t-79 50.5t-52 78.5t-19 102q0 55 18.5 101.5t51.5 79.5t78 51.5t97 18.5t94.5 -17t72 -49t45.5 -77.5t16 -102.5z M428 279q-1 28 -9.5 52.5t-25 42.5t-41 28.5t-57.5 10.5q-30 0 -56.5 -10.5t-46 -28.5t-32 -42.5t-14.5 -52.5h282z" horiz-adv-x="573"/>
<glyph glyph-name="f" unicode="f" d="M304 397h-110v-397h-94v397h-94v77h94v99q0 42 9.5 77.5t31 61.5t55 41t81.5 15q34 0 59 -7l-11 -81q-11 3 -22 5t-25 2q-27 0 -43.5 -9.5t-25.5 -25.5t-12 -36.5t-3 -42.5v-99h110v-77z" horiz-adv-x="310"/>
<glyph glyph-name="g" unicode="g" d="M147 242q0 -33 10.5 -63t31 -53t49.5 -37t66 -14q36 0 66 13t51 35.5t32.5 53t11.5 65.5q0 34 -11.5 64t-33 53t-51 36.5t-65.5 13.5q-37 0 -66 -13.5t-49.5 -36t-31 -53t-10.5 -64.5zM118 -81q31 -35 77.5 -56t95.5 -21q47 0 79 13.5t51.5 37t28 55.5t8.5 69v61h-2 q-26 -40 -71 -61t-96 -21q-54 0 -98.5 19t-75.5 52t-48 77.5t-17 95.5t17 96t48 78.5t75 53t98 19.5q51 0 97.5 -22t73.5 -67h2v76h91v-450q0 -52 -13 -99.5t-44 -84t-81 -58.5t-124 -22q-62 0 -124.5 22.5t-107.5 63.5z" horiz-adv-x="632"/>
<glyph glyph-name="h" unicode="h" d="M179 402q17 35 58 60t92 25q46 0 79 -15.5t55 -41.5t32.5 -61t10.5 -75v-294h-94v262q0 29 -4.5 55t-16.5 46t-32.5 32t-53.5 12q-56 0 -92 -42.5t-36 -113.5v-251h-94v756h94v-354h2z" horiz-adv-x="584"/>
<glyph glyph-name="i" unicode="i" d="M192 645q0 -26 -18.5 -43t-44.5 -17t-44 17.5t-18 42.5q0 26 18 43.5t44 17.5t44.5 -17.5t18.5 -43.5zM176 0h-94v474h94v-474z" horiz-adv-x="259"/>
<glyph glyph-name="j" unicode="j" d="M193 645q0 -26 -18.5 -43t-44.5 -17t-44.5 17.5t-18.5 42.5q0 26 18.5 43.5t44.5 17.5t44.5 -17.5t18.5 -43.5zM-21 -154q20 -5 38 -5q21 0 34 8t20 21.5t9.5 32t2.5 39.5v532h94v-535q0 -36 -6.5 -68t-23.5 -57t-47 -39.5t-77 -14.5q-13 0 -28 2t-26 4z" horiz-adv-x="260"/>
<glyph glyph-name="k" unicode="k" d="M177 268h3l199 206h126l-222 -215l241 -259h-130l-214 246h-3v-246h-94v756h94v-488z" horiz-adv-x="527"/>
<glyph glyph-name="l" unicode="l" d="M177 0h-94v756h94v-756z" horiz-adv-x="260"/>
<glyph glyph-name="m" unicode="m" d="M173 396q18 38 57.5 64.5t93.5 26.5q48 0 86.5 -22t60.5 -73q24 46 67 70.5t94 24.5q46 0 79 -15.5t55 -41.5t32.5 -61t10.5 -75v-294h-94v263q0 29 -5 55t-17 46t-32 32t-51 12q-32 0 -55 -13.5t-37.5 -35t-21 -48.5t-6.5 -55v-256h-94v282q0 28 -5 51t-17 39.5t-31 26 t-47 9.5q-52 0 -86.5 -42.5t-34.5 -113.5v-252h-94v372q0 19 -1 49t-3 53h89q2 -18 3 -40.5t1 -37.5h3z" horiz-adv-x="887"/>
<glyph glyph-name="n" unicode="n" d="M166 474q2 -18 3 -40.5t1 -37.5h3q9 19 24.5 35.5t35.5 29t44 19.5t50 7q46 0 79 -15.5t55 -41.5t32.5 -61t10.5 -75v-294h-94v263q0 29 -4.5 55t-16.5 46t-33 32t-54 12q-56 0 -91.5 -42.5t-35.5 -113.5v-252h-94v372q0 19 -1 49t-3 53h89z" horiz-adv-x="582"/>
<glyph glyph-name="o" unicode="o" d="M463 238q0 34 -10.5 65t-30.5 54.5t-49.5 37.5t-67.5 14t-67.5 -14t-49.5 -37.5t-30.5 -54.5t-10.5 -65t10.5 -65t30.5 -55t49.5 -38t67.5 -14t67.5 14t49.5 38t30.5 55t10.5 65zM561 238q0 -55 -19.5 -101t-54 -79.5t-81.5 -52t-101 -18.5t-101 18.5t-81 52t-53.5 79.5 t-19.5 101t19.5 100.5t53.5 78.5t81 51.5t101 18.5t101 -18.5t81.5 -51.5t54 -78.5t19.5 -100.5z" horiz-adv-x="610"/>
<glyph glyph-name="p" unicode="p" d="M487 238q0 33 -10 64t-30 55t-49.5 38t-68.5 14q-36 0 -65.5 -14t-50.5 -38t-32.5 -55t-11.5 -65t11.5 -65t32.5 -54.5t50.5 -37.5t65.5 -14q39 0 68.5 14.5t49.5 38.5t30 55t10 64zM175 -240h-94v714h92v-74h3q23 38 67.5 62.5t103.5 24.5q53 0 96.5 -19t75 -53 t48.5 -79.5t17 -97.5t-17 -98t-48 -80t-75 -53.5t-99 -19.5q-51 0 -96 22t-71 62h-3v-311z" horiz-adv-x="634"/>
<glyph glyph-name="q" unicode="q" d="M147 238q0 -33 10 -64t30 -55t49 -38.5t68 -14.5q36 0 65.5 14t50.5 37.5t32.5 54.5t11.5 65t-11.5 65t-32.5 55t-50.5 38t-65.5 14q-39 0 -68 -14t-49 -38t-30 -55t-10 -64zM456 71q-26 -40 -71.5 -62t-96.5 -22q-55 0 -99 19.5t-75 53.5t-48 80t-17 98t17 97.5 t48.5 79.5t75.5 53t97 19q58 0 102.5 -24.5t68.5 -62.5h3v74h91v-714h-94v311h-2z" horiz-adv-x="633"/>
<glyph glyph-name="r" unicode="r" d="M81 372q0 19 -1 49t-3 53h89q2 -18 3 -41.5t1 -38.5h3q20 42 58.5 67.5t86.5 25.5q22 0 37 -4l-4 -87q-20 5 -43 5q-34 0 -59 -12.5t-41.5 -33.5t-24.5 -48.5t-8 -57.5v-249h-94v372z" horiz-adv-x="362"/>
<glyph glyph-name="s" unicode="s" d="M337 354q-16 26 -45 42.5t-65 16.5q-16 0 -32 -3.5t-28.5 -11t-20 -19t-7.5 -28.5q0 -30 27 -44.5t81 -26.5q34 -8 63 -19t50.5 -27.5t33.5 -39.5t12 -54q0 -42 -16 -71t-42.5 -47.5t-60.5 -26.5t-70 -8q-54 0 -105.5 21t-85.5 64l67 57q19 -28 52.5 -47t73.5 -19 q18 0 34.5 3.5t30 11.5t21.5 21t8 33q0 33 -31.5 49t-92.5 30q-24 6 -48.5 14.5t-44.5 23.5t-32.5 37.5t-12.5 55.5q0 38 15.5 65.5t40.5 45t57 26t66 8.5q51 0 98.5 -20t73.5 -58z" horiz-adv-x="444"/>
<glyph glyph-name="t" unicode="t" d="M313 397h-126v-247q0 -43 16 -61.5t51 -18.5q13 0 28 3t27 9l3 -77q-17 -6 -37.5 -9.5t-42.5 -3.5q-67 0 -102.5 37t-35.5 111v257h-91v77h91v136h93v-136h126v-77z" horiz-adv-x="329"/>
<glyph glyph-name="u" unicode="u" d="M415 0q-2 18 -3 40.5t-1 37.5h-2q-18 -38 -60.5 -64.5t-94.5 -26.5q-46 0 -79.5 15t-55 41.5t-32 61.5t-10.5 75v294h94v-262q0 -29 4.5 -55.5t16.5 -46.5t33 -32t54 -12q57 0 92 42.5t35 113.5v252h94v-372q0 -19 1 -49t3 -53h-89z" horiz-adv-x="582"/>
<glyph glyph-name="v" unicode="v" d="M304 0h-102l-193 474h104l139 -373h2l140 373h100z" horiz-adv-x="504"/>
<glyph glyph-name="w" unicode="w" d="M116 474l107 -362h2l113 362h99l115 -362h2l107 362h99l-157 -474h-98l-117 356h-2l-116 -356h-98l-158 474h102z" horiz-adv-x="773"/>
<glyph glyph-name="x" unicode="x" d="M197 249l-173 225h116l116 -163l117 163h110l-171 -224l191 -250h-117l-132 185l-134 -185h-113z" horiz-adv-x="511"/>
<glyph glyph-name="y" unicode="y" d="M261 102h2l131 372h100l-230 -586q-12 -30 -26 -53.5t-33 -40t-44.5 -25.5t-60.5 -9q-15 0 -30.5 1.5t-31.5 5.5l9 83q24 -8 47 -8q37 0 55 20.5t33 58.5l30 79l-203 474h105z" horiz-adv-x="504"/>
<glyph glyph-name="z" unicode="z" d="M419 397l-270 -318h281v-79h-397v77l268 320h-255v77h373v-77z" horiz-adv-x="462"/>
<glyph glyph-name="braceleft" unicode="{" d="M5 325q30 0 52 21t22 69v188q0 34 9.5 58.5t26 40.5t38 23t44.5 7h68v-69h-51q-17 0 -27 -6.5t-15 -17t-7 -23t-2 -25.5v-183q0 -33 -10.5 -55t-25.5 -35.5t-31 -20.5t-26 -8v-2q10 -1 26 -7t31 -19.5t25.5 -36.5t10.5 -59v-180q0 -13 2 -25.5t7 -23t15 -17t27 -6.5h51 v-69h-68q-23 0 -44.5 7t-38 23t-26 40t-9.5 59v184q0 51 -22 72.5t-52 21.5v74z" horiz-adv-x="315"/>
<glyph glyph-name="bar" unicode="|" d="M152 750v-1000h-82v1000h82z" horiz-adv-x="222"/>
<glyph glyph-name="braceright" unicode="}" d="M310 251q-30 0 -52 -21.5t-22 -72.5v-184q0 -35 -9.5 -59t-26 -40t-38 -23t-44.5 -7h-68v69h52q16 0 26 6.5t15 17t7 23t2 25.5v180q0 36 10.5 59t25.5 36.5t31 19.5t27 7v2q-11 1 -27 8t-31 20.5t-25.5 35.5t-10.5 55v183q0 13 -2 25.5t-7 23t-15 17t-26 6.5h-52v69h68 q23 0 44.5 -7t38 -23t26 -40.5t9.5 -58.5v-188q0 -48 22 -69t52 -21v-74z" horiz-adv-x="315"/>
<glyph glyph-name="asciitilde" unicode="~" d="M340 346q19 -12 33 -20t25 -12t20.5 -5.5t20.5 -1.5q50 0 87 68l59 -55q-18 -29 -36 -48t-36.5 -30t-36.5 -15t-35 -4q-29 0 -55 8t-61 30q-19 12 -32.5 19.5t-24.5 11.5t-20.5 5.5t-20.5 1.5q-50 0 -87 -68l-59 55q35 58 72.5 78t71.5 20q30 0 55.5 -8t59.5 -30z" horiz-adv-x="666"/>
<glyph glyph-name="uni00A0" unicode=" " horiz-adv-x="250"/>
<glyph glyph-name="exclamdown" unicode="¡" d="M234 427q0 -27 -19 -46t-48 -19t-48 19.5t-19 46.5q0 26 19.5 45.5t47.5 19.5q29 0 48 -20t19 -46zM117 -221v501h99v-501h-99z" horiz-adv-x="334"/>
<glyph glyph-name="cent" unicode="¢" d="M350 70q32 1 58.5 16t43.5 37l64 -60q-32 -37 -76 -55t-90 -20v-66h-51v67q-50 5 -90 26t-68 54t-43 76t-15 93t15 92.5t43 75t68 53t90 26.5v65h51v-64q47 -2 90.5 -19.5t75.5 -55.5l-66 -60q-17 22 -42.5 36.5t-57.5 16.5v-334zM299 403q-60 -11 -91.5 -57.5 t-31.5 -108.5t32 -108t91 -58v332z" horiz-adv-x="595"/>
<glyph glyph-name="sterling" unicode="£" d="M434 325h-166v-241h263v-84h-461v84h100v241h-97v72h97v88q0 40 11.5 82.5t38 78t70.5 58t109 22.5q48 0 90.5 -15t74.5 -45l-59 -67q-19 21 -47 33.5t-61 12.5q-40 0 -65 -16.5t-39.5 -41.5t-19.5 -54t-5 -54v-82h166v-72z" horiz-adv-x="595"/>
<glyph glyph-name="currency" unicode="¤" d="M299 437q-35 0 -63 -12.5t-48 -34t-30.5 -50t-10.5 -61.5t10.5 -61.5t30.5 -50.5t48 -34.5t63 -12.5t63.5 12.5t48.5 34.5t30.5 50.5t10.5 61.5t-10.5 61.5t-30.5 50t-48.5 34t-63.5 12.5zM494 420q21 -29 32 -64t11 -77t-12.5 -79t-32.5 -66l84 -85l-51 -52l-87 85 q-28 -20 -63 -31t-76 -11q-38 0 -74 12t-65 32l-88 -87l-52 52l86 88q-19 28 -31 64.5t-12 77.5q0 42 10.5 76t29.5 63l-83 84l52 51l84 -82q29 20 65.5 32.5t77.5 12.5q42 0 78 -12.5t64 -32.5l83 82l52 -51z" horiz-adv-x="595"/>
<glyph glyph-name="yen" unicode="¥" d="M250 228v91h-170v66h145l-212 323h115l174 -294l170 294h110l-208 -323h141v-66h-170v-91h170v-66h-170v-162h-95v162h-170v66h170z" horiz-adv-x="595"/>
<glyph glyph-name="brokenbar" unicode="¦" d="M152 175v-350h-82v350h82zM152 675v-350h-82v350h82z" horiz-adv-x="222"/>
<glyph glyph-name="section" unicode="§" d="M259 402q-12 -3 -25.5 -9.5t-24 -16t-17.5 -23t-7 -31.5q0 -19 7.5 -33t20.5 -24.5t30.5 -19t36.5 -17.5l84 -36q23 8 41 28.5t18 49.5q0 21 -7.5 36t-20 26.5t-28.5 20t-33 16.5zM431 584q-14 26 -43 45t-68 19t-69 -20t-30 -58q0 -20 8.5 -35.5t24.5 -29t40 -25 t55 -24.5q35 -15 65.5 -30.5t53 -36t35 -46.5t12.5 -60q0 -45 -25 -79.5t-60 -50.5q61 -41 61 -120q0 -44 -17.5 -76.5t-46 -53.5t-65 -31.5t-74.5 -10.5q-65 0 -123.5 28t-89.5 86l83 46q17 -41 54 -59.5t76 -18.5q16 0 34.5 4.5t34.5 14t26 25.5t10 40q0 21 -8 36.5 t-25.5 28.5t-44.5 25.5t-66 29.5q-32 14 -60.5 28.5t-49.5 32.5t-33.5 42t-12.5 58q0 52 29 87t71 52q-27 17 -48 44.5t-21 72.5q0 41 17 71.5t44.5 50.5t62.5 30t71 10q63 0 110.5 -24t72.5 -66z" horiz-adv-x="595"/>
<glyph glyph-name="dieresis" unicode="¨" d="M160 645q0 24 17.5 42.5t44.5 18.5q26 0 44 -17.5t18 -43.5q0 -25 -18 -42.5t-44 -17.5q-27 0 -44.5 18.5t-17.5 41.5zM-34 645q0 24 17.5 42.5t44.5 18.5q26 0 44 -17.5t18 -43.5q0 -25 -18 -42.5t-44 -17.5q-27 0 -44.5 18.5t-17.5 41.5z" horiz-adv-x="250"/>
<glyph glyph-name="copyright" unicode="©" d="M515 473q-17 23 -44.5 33.5t-53.5 10.5q-33 0 -60.5 -12t-47 -33t-30.5 -50t-11 -62q0 -71 39.5 -115t106.5 -44q35 0 61.5 13.5t43.5 36.5l61 -43q-29 -36 -70.5 -56t-96.5 -20q-50 0 -92.5 16.5t-73 46.5t-47.5 72t-17 93q0 52 18 93.5t49.5 70.5t74 45t92.5 16 q21 0 43 -4t43 -12t39 -20.5t31 -29.5zM80 353q0 -66 25.5 -124t69 -101.5t102 -68.5t124.5 -25t124 25t101.5 68.5t68.5 101.5t25 124t-25 124.5t-68.5 102t-101.5 69t-124 25.5t-124.5 -25.5t-102 -69t-69 -102t-25.5 -124.5zM20 353q0 79 30 147.5t81.5 119.5t121 80.5 t148.5 29.5q78 0 147 -29.5t120.5 -80.5t81.5 -119.5t30 -147.5q0 -78 -30 -146.5t-81.5 -119.5t-120.5 -80t-147 -29q-79 0 -148.5 29t-121 80t-81.5 119.5t-30 146.5z" horiz-adv-x="800"/>
<glyph glyph-name="ordfeminine" unicode="ª" d="M246 560h-16q-17 0 -36 -1.5t-35 -6.5t-26.5 -14t-10.5 -25q0 -21 15.5 -28.5t34.5 -7.5q36 0 55 19.5t19 53.5v10zM247 468h-1q-11 -19 -34.5 -31.5t-54.5 -12.5q-17 0 -35.5 4.5t-34.5 14.5t-26 27t-10 42q0 31 18 50t46 29.5t63 13.5t68 3v7q0 26 -19 39t-46 13 q-23 0 -43.5 -9t-34.5 -23l-36 43q24 23 56 34t64 11q38 0 62.5 -10.5t39 -28t20 -39t5.5 -42.5v-172h-67v37z" horiz-adv-x="380"/>
<glyph glyph-name="guillemotleft" unicode="«" d="M335 244l115 -175l-61 -43l-146 218l146 217l61 -42zM132 244l116 -175l-62 -43l-146 218l146 217l61 -42z" horiz-adv-x="500"/>
<glyph glyph-name="logicalnot" unicode="¬" d="M596 139h-81v206h-445v81h526v-287z" horiz-adv-x="666"/>
<glyph glyph-name="uni00AD" unicode="­" d="M276 204h-232v80h232v-80z" horiz-adv-x="320"/>
<glyph glyph-name="registered" unicode="®" d="M108 493q0 -39 15 -74t41 -61.5t61 -41.5t75 -15t75 15t61 41.5t41 61.5t15 74q0 40 -15 75t-41 61t-61 41t-75 15t-75 -15t-61 -41t-41 -61t-15 -75zM72 493q0 47 18 88.5t49 72t72.5 48.5t88.5 18t88.5 -18t72.5 -48.5t49 -72t18 -88.5t-18 -88t-49 -71.5t-72.5 -48 t-88.5 -17.5t-88.5 17.5t-72.5 48t-49 71.5t-18 88zM355 368l-55 99h-36v-99h-61v256h110q18 0 35 -4t31 -13t22.5 -24.5t8.5 -38.5q0 -26 -14.5 -43t-36.5 -25l68 -108h-72zM311 511q14 0 25.5 9t11.5 24q0 16 -13 23t-24 7h-47v-63h47z" horiz-adv-x="600"/>
<glyph glyph-name="macron" unicode="¯" d="M273 597h-296v67h296v-67z" horiz-adv-x="250"/>
<glyph glyph-name="degree" unicode="°" d="M291 565q0 19 -7 36t-19.5 29.5t-29 19.5t-35.5 7t-35.5 -7t-29 -19.5t-19.5 -29.5t-7 -36q0 -38 26.5 -64.5t64.5 -26.5t64.5 26.5t26.5 64.5zM355 565q0 -33 -12 -61t-33 -48.5t-49 -32.5t-61 -12t-61 12t-49 32.5t-33 48.5t-12 61t12 61t33 49t49 33t61 12t61 -12 t49 -33t33 -49t12 -61z" horiz-adv-x="400"/>
<glyph glyph-name="plusminus" unicode="±" d="M70 121h526v-81h-526v81zM70 419h223v150h81v-150h222v-81h-222v-147h-81v147h-223v81z" horiz-adv-x="666"/>
<glyph glyph-name="twosuperior" unicode="²" d="M333 286h-283v67l164 165q16 17 28 35.5t12 42.5q0 26 -17 40.5t-43 14.5q-27 0 -45 -18.5t-23 -49.5l-74 10q8 55 47 90.5t95 35.5q27 0 52 -7.5t44 -23t30.5 -38.5t11.5 -54q0 -43 -21.5 -73t-48.5 -56l-114 -112h185v-69z" horiz-adv-x="385"/>
<glyph glyph-name="threesuperior" unicode="³" d="M143 538h27q32 0 56 14t24 49q0 24 -18 38.5t-43 14.5q-22 0 -39.5 -14t-26.5 -37l-68 23q18 45 54.5 69.5t81.5 24.5q28 0 52.5 -7t43 -21.5t29 -36.5t10.5 -51q0 -34 -18 -58t-44 -35q32 -10 52.5 -37t20.5 -64q0 -33 -12.5 -57t-33 -40.5t-46.5 -24.5t-54 -8 q-51 0 -91 24.5t-60 80.5l71 22q9 -27 29 -43.5t49 -16.5q27 0 50 15.5t23 49.5q0 19 -8.5 31t-21.5 19.5t-29.5 10.5t-32.5 3h-27v62z" horiz-adv-x="385"/>
<glyph glyph-name="acute" unicode="´" d="M148 564h-77l100 144h113z" horiz-adv-x="250"/>
<glyph glyph-name="mu" unicode="µ" d="M413 0q-2 18 -3 40.5t-1 37.5h-2q-18 -38 -60.5 -64.5t-94.5 -26.5q-25 0 -47.5 8t-35.5 22v-257h-94v714h94v-262q0 -29 4.5 -55.5t16.5 -46.5t33 -32t54 -12q57 0 92 42.5t35 113.5v252h94v-372q0 -19 1 -49t3 -53h-89z" horiz-adv-x="578"/>
<glyph glyph-name="paragraph" unicode="¶" d="M523 -126h-78v771h-115v-771h-79v453q-47 0 -86 14t-67 39t-43.5 58.5t-15.5 72.5q0 99 63 148t168 49h253v-834z" horiz-adv-x="600"/>
<glyph glyph-name="periodcentered" unicode="·" d="M198 303q0 -26 -19 -46t-48 -20t-48.5 19.5t-19.5 45.5q0 27 19.5 47t48.5 20q28 0 47.5 -19.5t19.5 -46.5z" horiz-adv-x="260"/>
<glyph glyph-name="cedilla" unicode="¸" d="M121 -69q7 2 13 2h14q17 0 33.5 -4t30 -13t22 -24t8.5 -37q0 -26 -12 -43.5t-30.5 -28t-41 -14.5t-43.5 -4q-26 0 -54 6t-49 17l20 42q37 -17 77 -17q8 0 18.5 2t20 6.5t16 12.5t6.5 21q0 22 -17 30t-37 8q-9 0 -20 -2t-21 -5l-20 20l62 94h50z" horiz-adv-x="250"/>
<glyph glyph-name="onesuperior" unicode="¹" d="M247 282h-78v332l-68 -59l-46 51l125 102h67v-426z" horiz-adv-x="385"/>
<glyph glyph-name="ordmasculine" unicode="º" d="M267 574q0 33 -19.5 57.5t-57.5 24.5t-57 -24.5t-19 -57.5q0 -32 19 -57t57 -25t57.5 25t19.5 57zM342 574q0 -32 -11.5 -59.5t-31.5 -47t-48 -30.5t-61 -11t-61 11t-48 30.5t-31.5 47t-11.5 59.5q0 33 11.5 60t31.5 46.5t48 30.5t61 11t61 -11t48 -30.5t31.5 -46.5 t11.5 -60z" horiz-adv-x="380"/>
<glyph glyph-name="guillemotright" unicode="»" d="M111 461l146 -217l-146 -218l-61 43l115 175l-115 175zM314 461l146 -217l-146 -218l-62 43l116 175l-115 175z" horiz-adv-x="500"/>
<glyph glyph-name="onequarter" unicode="¼" d="M227 -35l-58 31l451 743l57 -31zM247 282h-78v332l-68 -59l-46 51l125 102h67v-426zM672 332l-109 -174h112v174h-3zM746 158h59v-67h-59v-91h-71v91h-189v64l177 271h83v-268z" horiz-adv-x="870"/>
<glyph glyph-name="onehalf" unicode="½" d="M227 -35l-58 31l451 743l57 -31zM811 0h-283v67l164 165q16 17 28 35.5t12 42.5q0 26 -17 40.5t-43 14.5q-27 0 -45 -18.5t-23 -49.5l-74 10q8 55 47 90.5t95 35.5q27 0 52 -7.5t44 -23t30.5 -38.5t11.5 -54q0 -43 -21.5 -73t-48.5 -56l-114 -112h185v-69zM247 282h-78 v332l-68 -59l-46 51l125 102h67v-426z" horiz-adv-x="870"/>
<glyph glyph-name="threequarters" unicode="¾" d="M143 538h27q32 0 56 14t24 49q0 24 -18 38.5t-43 14.5q-22 0 -39.5 -14t-26.5 -37l-68 23q18 45 54.5 69.5t81.5 24.5q28 0 52.5 -7t43 -21.5t29 -36.5t10.5 -51q0 -34 -18 -58t-44 -35q32 -10 52.5 -37t20.5 -64q0 -33 -12.5 -57t-33 -40.5t-46.5 -24.5t-54 -8 q-51 0 -91 24.5t-60 80.5l71 22q9 -27 29 -43.5t49 -16.5q27 0 50 15.5t23 49.5q0 19 -8.5 31t-21.5 19.5t-29.5 10.5t-32.5 3h-27v62zM227 -35l-58 31l451 743l57 -31zM672 332l-109 -174h112v174h-3zM746 158h59v-67h-59v-91h-71v91h-189v64l177 271h83v-268z" horiz-adv-x="870"/>
<glyph glyph-name="questiondown" unicode="¿" d="M180 427q0 26 19 46t48 20q28 0 47.5 -19.5t19.5 -45.5q0 -27 -19 -46.5t-48 -19.5t-48 19t-19 46zM205 286h94v-48q0 -26 -5 -47t-14.5 -38t-23 -32.5t-30.5 -31.5l-37 -35q-22 -19 -36.5 -41.5t-14.5 -57.5q0 -48 30.5 -76.5t78.5 -28.5q50 0 80 32t35 78l96 -11 q-6 -43 -25 -77.5t-47.5 -58.5t-65.5 -36.5t-79 -12.5t-78.5 12t-64.5 35.5t-44 58t-16 79.5q0 32 7 56t19.5 43.5t30.5 36.5t39 35q20 17 33.5 30.5t22 27.5t12 31t3.5 42v35z" horiz-adv-x="500"/>
<glyph glyph-name="Agrave" unicode="À" d="M183 908h114l100 -144h-77zM221 261h265l-132 332zM115 0h-110l307 708h90l304 -708h-112l-72 174h-336z" horiz-adv-x="711"/>
<glyph glyph-name="Aacute" unicode="Á" d="M398 764h-76l99 144h114zM221 261h265l-132 332zM115 0h-110l307 708h90l304 -708h-112l-72 174h-336z" horiz-adv-x="711"/>
<glyph glyph-name="Acircumflex" unicode="Â" d="M525 764h-91l-75 99l-76 -99h-90l112 144h108zM221 261h265l-132 332zM115 0h-110l307 708h90l304 -708h-112l-72 174h-336z" horiz-adv-x="711"/>
<glyph glyph-name="Atilde" unicode="Ã" d="M185 772q4 22 10.5 42.5t18.5 37t29.5 26.5t43.5 10q19 0 38.5 -6t36.5 -14q20 -9 36.5 -15.5t30.5 -6.5q22 0 32.5 14.5t15.5 31.5h54q-4 -22 -10.5 -42.5t-18.5 -37t-30 -26.5t-43 -10q-19 0 -39 6.5t-38 14.5q-18 9 -34.5 15t-30.5 6q-21 0 -31.5 -14.5t-15.5 -31.5 h-55zM221 261h265l-132 332zM115 0h-110l307 708h90l304 -708h-112l-72 174h-336z" horiz-adv-x="711"/>
<glyph glyph-name="Adieresis" unicode="Ä" d="M392 845q0 24 17.5 42.5t44.5 18.5q26 0 44 -17.5t18 -43.5q0 -25 -18 -42.5t-44 -17.5q-27 0 -44.5 18.5t-17.5 41.5zM198 845q0 24 17.5 42.5t44.5 18.5q26 0 44 -17.5t18 -43.5q0 -25 -18 -42.5t-44 -17.5q-27 0 -44.5 18.5t-17.5 41.5zM221 261h265l-132 332zM115 0 h-110l307 708h90l304 -708h-112l-72 174h-336z" horiz-adv-x="711"/>
<glyph glyph-name="Aring" unicode="Å" d="M418 853q0 25 -17.5 41.5t-42.5 16.5t-42 -17t-17 -42q0 -24 17 -40.5t42 -16.5t42.5 16.5t17.5 41.5zM459 853q0 -43 -29.5 -71t-71.5 -28q-21 0 -39 7.5t-31.5 20.5t-21.5 31t-8 39q0 43 29 71t71 28t71.5 -28t29.5 -70zM221 261h265l-132 332zM115 0h-110l307 708h90 l304 -708h-112l-72 174h-336z" horiz-adv-x="711"/>
<glyph glyph-name="AE" unicode="Æ" d="M524 278v343h-14l-217 -343h231zM623 88h346v-88h-445v192h-283l-121 -192h-118l457 708h495v-87h-331v-212h310v-85h-310v-236z" horiz-adv-x="1015"/>
<glyph glyph-name="Ccedilla" unicode="Ç" d="M693 110q-40 -54 -104 -89t-152 -38l-34 -52q7 2 13 2h14q17 0 33.5 -4t30 -13t22 -24t8.5 -37q0 -26 -12 -43.5t-30.5 -28t-41 -14.5t-43.5 -4q-26 0 -54 6t-49 17l20 42q37 -17 77 -17q8 0 18.5 2t20 6.5t16 12.5t6.5 21q0 22 -17 30t-37 8q-9 0 -20 -2t-21 -5l-20 20 l51 78q-75 6 -137 35.5t-106.5 78.5t-69.5 114.5t-25 142.5q0 83 28.5 151.5t79 117t119.5 75.5t150 27q36 0 73 -7t71 -21t62 -34.5t48 -47.5l-78 -60q-26 36 -73.5 59.5t-102.5 23.5q-62 0 -111.5 -22.5t-84.5 -61.5t-54 -90.5t-19 -109.5q0 -60 18.5 -112t53 -90.5 t84 -60.5t110.5 -22q60 0 109 24t81 70z" horiz-adv-x="708"/>
<glyph glyph-name="Egrave" unicode="È" d="M176 908h114l100 -144h-77zM185 88h370v-88h-469v708h454v-87h-355v-212h334v-85h-334v-236z" horiz-adv-x="601"/>
<glyph glyph-name="Eacute" unicode="É" d="M338 764h-76l99 144h114zM185 88h370v-88h-469v708h454v-87h-355v-212h334v-85h-334v-236z" horiz-adv-x="601"/>
<glyph glyph-name="Ecircumflex" unicode="Ê" d="M484 764h-91l-75 99l-76 -99h-90l112 144h108zM185 88h370v-88h-469v708h454v-87h-355v-212h334v-85h-334v-236z" horiz-adv-x="601"/>
<glyph glyph-name="Edieresis" unicode="Ë" d="M352 845q0 24 17.5 42.5t44.5 18.5q26 0 44 -17.5t18 -43.5q0 -25 -18 -42.5t-44 -17.5q-27 0 -44.5 18.5t-17.5 41.5zM158 845q0 24 17.5 42.5t44.5 18.5q26 0 44 -17.5t18 -43.5q0 -25 -18 -42.5t-44 -17.5q-27 0 -44.5 18.5t-17.5 41.5zM185 88h370v-88h-469v708h454 v-87h-355v-212h334v-85h-334v-236z" horiz-adv-x="601"/>
<glyph glyph-name="Igrave" unicode="Ì" d="M-28 908h114l100 -144h-77zM185 0h-99v708h99v-708z" horiz-adv-x="271"/>
<glyph glyph-name="Iacute" unicode="Í" d="M161 764h-76l99 144h114zM185 0h-99v708h99v-708z" horiz-adv-x="271"/>
<glyph glyph-name="Icircumflex" unicode="Î" d="M300 764h-91l-75 99l-76 -99h-90l112 144h108zM185 0h-99v708h99v-708z" horiz-adv-x="271"/>
<glyph glyph-name="Idieresis" unicode="Ï" d="M171 845q0 24 17.5 42.5t44.5 18.5q26 0 44 -17.5t18 -43.5q0 -25 -18 -42.5t-44 -17.5q-27 0 -44.5 18.5t-17.5 41.5zM-23 845q0 24 17.5 42.5t44.5 18.5q26 0 44 -17.5t18 -43.5q0 -25 -18 -42.5t-44 -17.5q-27 0 -44.5 18.5t-17.5 41.5zM185 0h-99v708h99v-708z" horiz-adv-x="271"/>
<glyph glyph-name="Eth" unicode="Ð" d="M182 90h117q70 0 125.5 19t94.5 53.5t60 83t21 108.5t-19.5 108.5t-56.5 83t-91.5 53.5t-123.5 19h-127v-213h237v-70h-237v-245zM82 335h-69v70h69v303h258q68 0 133.5 -22t117.5 -66t83.5 -110.5t31.5 -155.5q0 -90 -34 -156.5t-88 -110.5t-120.5 -65.5t-131.5 -21.5 h-250v335z" horiz-adv-x="761"/>
<glyph glyph-name="Ntilde" unicode="Ñ" d="M211 772q4 22 10.5 42.5t18.5 37t29.5 26.5t43.5 10q19 0 38.5 -6t36.5 -14q20 -9 36.5 -15.5t30.5 -6.5q22 0 32.5 14.5t15.5 31.5h54q-4 -22 -10.5 -42.5t-18.5 -37t-30 -26.5t-43 -10q-19 0 -39 6.5t-38 14.5q-18 9 -34.5 15t-30.5 6q-21 0 -31.5 -14.5t-15.5 -31.5 h-55zM585 142h2v566h99v-708h-125l-374 578h-2v-578h-99v708h129z" horiz-adv-x="772"/>
<glyph glyph-name="Ograve" unicode="Ò" d="M272 908h114l100 -144h-77zM693 355q0 58 -19 109.5t-54 90.5t-84.5 61.5t-111.5 22.5q-61 0 -110.5 -22.5t-84 -61.5t-53.5 -90.5t-19 -109.5q0 -59 19 -111t54 -90.5t84 -60.5t110 -22t111 22t85 60.5t54 90.5t19 111zM800 355q0 -82 -28.5 -150.5t-78.5 -118t-119 -77 t-150 -27.5t-149.5 27.5t-118.5 77t-78 118t-28 150.5q0 83 28 151.5t78 117t118.5 75.5t149.5 27t150 -27t119 -75.5t78.5 -117t28.5 -151.5z"/>
<glyph glyph-name="Oacute" unicode="Ó" d="M447 764h-76l99 144h114zM693 355q0 58 -19 109.5t-54 90.5t-84.5 61.5t-111.5 22.5q-61 0 -110.5 -22.5t-84 -61.5t-53.5 -90.5t-19 -109.5q0 -59 19 -111t54 -90.5t84 -60.5t110 -22t111 22t85 60.5t54 90.5t19 111zM800 355q0 -82 -28.5 -150.5t-78.5 -118t-119 -77 t-150 -27.5t-149.5 27.5t-118.5 77t-78 118t-28 150.5q0 83 28 151.5t78 117t118.5 75.5t149.5 27t150 -27t119 -75.5t78.5 -117t28.5 -151.5z"/>
<glyph glyph-name="Ocircumflex" unicode="Ô" d="M590 764h-91l-75 99l-76 -99h-90l112 144h108zM693 355q0 58 -19 109.5t-54 90.5t-84.5 61.5t-111.5 22.5q-61 0 -110.5 -22.5t-84 -61.5t-53.5 -90.5t-19 -109.5q0 -59 19 -111t54 -90.5t84 -60.5t110 -22t111 22t85 60.5t54 90.5t19 111zM800 355q0 -82 -28.5 -150.5 t-78.5 -118t-119 -77t-150 -27.5t-149.5 27.5t-118.5 77t-78 118t-28 150.5q0 83 28 151.5t78 117t118.5 75.5t149.5 27t150 -27t119 -75.5t78.5 -117t28.5 -151.5z"/>
<glyph glyph-name="Otilde" unicode="Õ" d="M251 772q4 22 10.5 42.5t18.5 37t29.5 26.5t43.5 10q19 0 38.5 -6t36.5 -14q20 -9 36.5 -15.5t30.5 -6.5q22 0 32.5 14.5t15.5 31.5h54q-4 -22 -10.5 -42.5t-18.5 -37t-30 -26.5t-43 -10q-19 0 -39 6.5t-38 14.5q-18 9 -34.5 15t-30.5 6q-21 0 -31.5 -14.5t-15.5 -31.5 h-55zM693 355q0 58 -19 109.5t-54 90.5t-84.5 61.5t-111.5 22.5q-61 0 -110.5 -22.5t-84 -61.5t-53.5 -90.5t-19 -109.5q0 -59 19 -111t54 -90.5t84 -60.5t110 -22t111 22t85 60.5t54 90.5t19 111zM800 355q0 -82 -28.5 -150.5t-78.5 -118t-119 -77t-150 -27.5t-149.5 27.5 t-118.5 77t-78 118t-28 150.5q0 83 28 151.5t78 117t118.5 75.5t149.5 27t150 -27t119 -75.5t78.5 -117t28.5 -151.5z"/>
<glyph glyph-name="Odieresis" unicode="Ö" d="M459 845q0 24 17.5 42.5t44.5 18.5q26 0 44 -17.5t18 -43.5q0 -25 -18 -42.5t-44 -17.5q-27 0 -44.5 18.5t-17.5 41.5zM265 845q0 24 17.5 42.5t44.5 18.5q26 0 44 -17.5t18 -43.5q0 -25 -18 -42.5t-44 -17.5q-27 0 -44.5 18.5t-17.5 41.5zM693 355q0 58 -19 109.5 t-54 90.5t-84.5 61.5t-111.5 22.5q-61 0 -110.5 -22.5t-84 -61.5t-53.5 -90.5t-19 -109.5q0 -59 19 -111t54 -90.5t84 -60.5t110 -22t111 22t85 60.5t54 90.5t19 111zM800 355q0 -82 -28.5 -150.5t-78.5 -118t-119 -77t-150 -27.5t-149.5 27.5t-118.5 77t-78 118t-28 150.5 q0 83 28 151.5t78 117t118.5 75.5t149.5 27t150 -27t119 -75.5t78.5 -117t28.5 -151.5z"/>
<glyph glyph-name="multiply" unicode="×" d="M333 360l170 171l57 -56l-170 -171l172 -173l-59 -58l-171 170l-170 -170l-58 58l172 170l-171 174l57 56z" horiz-adv-x="666"/>
<glyph glyph-name="Oslash" unicode="Ø" d="M251 130q33 -29 76 -45t97 -16q62 0 112.5 22.5t86 61t54.5 90.5t19 112q0 54 -15.5 102.5t-46.5 86.5zM592 585q-31 26 -73.5 40.5t-94.5 14.5q-63 0 -113 -22.5t-85 -61t-53.5 -90.5t-18.5 -111q0 -109 57 -181zM699 617q48 -49 74.5 -115t26.5 -147q0 -82 -28.5 -150 t-78.5 -117.5t-119 -77t-150 -28.5q-70 0 -130 20.5t-108 58.5l-81 -87l-43 39l81 88q-45 48 -69 113t-24 141q0 83 28 151.5t78 117t118.5 75.5t149.5 27q66 0 124.5 -18t105.5 -53l81 87l43 -39z"/>
<glyph glyph-name="Ugrave" unicode="Ù" d="M186 908h114l100 -144h-77zM356 -18q-70 0 -122 23.5t-86 62.5t-50.5 89.5t-16.5 104.5v446h99v-440q0 -36 9 -71.5t29.5 -63.5t54 -45t83.5 -17q49 0 83 17t54.5 45t29.5 63.5t9 71.5v440h99v-446q0 -54 -16.5 -104.5t-50.5 -89.5t-86 -62.5t-122 -23.5z" horiz-adv-x="712"/>
<glyph glyph-name="Uacute" unicode="Ú" d="M371 764h-76l99 144h114zM356 -18q-70 0 -122 23.5t-86 62.5t-50.5 89.5t-16.5 104.5v446h99v-440q0 -36 9 -71.5t29.5 -63.5t54 -45t83.5 -17q49 0 83 17t54.5 45t29.5 63.5t9 71.5v440h99v-446q0 -54 -16.5 -104.5t-50.5 -89.5t-86 -62.5t-122 -23.5z" horiz-adv-x="712"/>
<glyph glyph-name="Ucircumflex" unicode="Û" d="M520 764h-91l-75 99l-76 -99h-90l112 144h108zM356 -18q-70 0 -122 23.5t-86 62.5t-50.5 89.5t-16.5 104.5v446h99v-440q0 -36 9 -71.5t29.5 -63.5t54 -45t83.5 -17q49 0 83 17t54.5 45t29.5 63.5t9 71.5v440h99v-446q0 -54 -16.5 -104.5t-50.5 -89.5t-86 -62.5 t-122 -23.5z" horiz-adv-x="712"/>
<glyph glyph-name="Udieresis" unicode="Ü" d="M391 845q0 24 17.5 42.5t44.5 18.5q26 0 44 -17.5t18 -43.5q0 -25 -18 -42.5t-44 -17.5q-27 0 -44.5 18.5t-17.5 41.5zM197 845q0 24 17.5 42.5t44.5 18.5q26 0 44 -17.5t18 -43.5q0 -25 -18 -42.5t-44 -17.5q-27 0 -44.5 18.5t-17.5 41.5zM356 -18q-70 0 -122 23.5 t-86 62.5t-50.5 89.5t-16.5 104.5v446h99v-440q0 -36 9 -71.5t29.5 -63.5t54 -45t83.5 -17q49 0 83 17t54.5 45t29.5 63.5t9 71.5v440h99v-446q0 -54 -16.5 -104.5t-50.5 -89.5t-86 -62.5t-122 -23.5z" horiz-adv-x="712"/>
<glyph glyph-name="Yacute" unicode="Ý" d="M345 764h-76l99 144h114zM362 0h-100v306l-265 402h122l196 -320l197 320h115l-265 -402v-306z" horiz-adv-x="624"/>
<glyph glyph-name="Thorn" unicode="Þ" d="M185 250h102q36 0 66.5 6t52.5 19.5t34 35t12 53.5q0 31 -12.5 52.5t-34 35t-51.5 19.5t-65 6h-104v-227zM86 708h99v-146h117q57 0 104 -12t80 -36.5t51 -61.5t18 -87q0 -54 -19.5 -92t-54 -62t-82 -35t-102.5 -11h-112v-165h-99v708z" horiz-adv-x="595"/>
<glyph glyph-name="germandbls" unicode="ß" d="M174 0h-94v525q0 45 11.5 89t38 78t70 55t107.5 21q43 0 80 -13.5t64.5 -38t43 -58.5t15.5 -76q0 -56 -29.5 -96.5t-81.5 -57.5v-2q38 -6 69 -23t52.5 -43.5t33.5 -61.5t12 -76q0 -52 -17 -95t-48.5 -74t-76.5 -48t-101 -17q-34 0 -71 8v79q11 -3 28.5 -5t30.5 -2 q72 0 115 42t43 116q0 39 -13 68.5t-36.5 48.5t-55 28.5t-68.5 9.5h-11v82h11q53 0 86.5 28t33.5 82q0 49 -30.5 80.5t-82.5 31.5q-40 0 -65 -15.5t-39.5 -39.5t-19.5 -53t-5 -56v-521z" horiz-adv-x="612"/>
<glyph glyph-name="agrave" unicode="à" d="M120 708h113l100 -144h-77zM353 226q-35 0 -72.5 -3t-68 -12t-50.5 -27t-20 -48q0 -21 8.5 -35t22.5 -23t31 -12.5t35 -3.5q66 0 101.5 39.5t35.5 99.5v25h-23zM376 307q0 53 -32 78.5t-85 25.5q-40 0 -75.5 -15.5t-59.5 -39.5l-50 60q35 33 85.5 52t108.5 19 q51 0 88.5 -14.5t61.5 -39.5t36 -59t12 -73v-207q0 -24 1.5 -50.5t5.5 -43.5h-85q-8 34 -8 68h-3q-26 -38 -65.5 -59t-93.5 -21q-28 0 -58.5 7.5t-55.5 24.5t-41.5 45t-16.5 69q0 54 29 85.5t76 48t106 21.5t119 5v13z" horiz-adv-x="542"/>
<glyph glyph-name="aacute" unicode="á" d="M304 564h-77l100 144h113zM353 226q-35 0 -72.5 -3t-68 -12t-50.5 -27t-20 -48q0 -21 8.5 -35t22.5 -23t31 -12.5t35 -3.5q66 0 101.5 39.5t35.5 99.5v25h-23zM376 307q0 53 -32 78.5t-85 25.5q-40 0 -75.5 -15.5t-59.5 -39.5l-50 60q35 33 85.5 52t108.5 19 q51 0 88.5 -14.5t61.5 -39.5t36 -59t12 -73v-207q0 -24 1.5 -50.5t5.5 -43.5h-85q-8 34 -8 68h-3q-26 -38 -65.5 -59t-93.5 -21q-28 0 -58.5 7.5t-55.5 24.5t-41.5 45t-16.5 69q0 54 29 85.5t76 48t106 21.5t119 5v13z" horiz-adv-x="542"/>
<glyph glyph-name="acircumflex" unicode="â" d="M434 564h-91l-75 99l-76 -99h-90l112 144h108zM353 226q-35 0 -72.5 -3t-68 -12t-50.5 -27t-20 -48q0 -21 8.5 -35t22.5 -23t31 -12.5t35 -3.5q66 0 101.5 39.5t35.5 99.5v25h-23zM376 307q0 53 -32 78.5t-85 25.5q-40 0 -75.5 -15.5t-59.5 -39.5l-50 60q35 33 85.5 52 t108.5 19q51 0 88.5 -14.5t61.5 -39.5t36 -59t12 -73v-207q0 -24 1.5 -50.5t5.5 -43.5h-85q-8 34 -8 68h-3q-26 -38 -65.5 -59t-93.5 -21q-28 0 -58.5 7.5t-55.5 24.5t-41.5 45t-16.5 69q0 54 29 85.5t76 48t106 21.5t119 5v13z" horiz-adv-x="542"/>
<glyph glyph-name="atilde" unicode="ã" d="M95 572q4 22 10.5 42.5t18.5 37t29.5 26.5t43.5 10q19 0 38.5 -6t36.5 -14q20 -9 36.5 -15.5t30.5 -6.5q22 0 32.5 14.5t15.5 31.5h54q-4 -22 -10.5 -42.5t-18.5 -37t-30 -26.5t-43 -10q-19 0 -39 6.5t-38 14.5q-18 9 -34.5 15t-30.5 6q-21 0 -31.5 -14.5t-15.5 -31.5 h-55zM353 226q-35 0 -72.5 -3t-68 -12t-50.5 -27t-20 -48q0 -21 8.5 -35t22.5 -23t31 -12.5t35 -3.5q66 0 101.5 39.5t35.5 99.5v25h-23zM376 307q0 53 -32 78.5t-85 25.5q-40 0 -75.5 -15.5t-59.5 -39.5l-50 60q35 33 85.5 52t108.5 19q51 0 88.5 -14.5t61.5 -39.5t36 -59 t12 -73v-207q0 -24 1.5 -50.5t5.5 -43.5h-85q-8 34 -8 68h-3q-26 -38 -65.5 -59t-93.5 -21q-28 0 -58.5 7.5t-55.5 24.5t-41.5 45t-16.5 69q0 54 29 85.5t76 48t106 21.5t119 5v13z" horiz-adv-x="542"/>
<glyph glyph-name="adieresis" unicode="ä" d="M304 645q0 24 17.5 42.5t44.5 18.5q26 0 44 -17.5t18 -43.5q0 -25 -18 -42.5t-44 -17.5q-27 0 -44.5 18.5t-17.5 41.5zM110 645q0 24 17.5 42.5t44.5 18.5q26 0 44 -17.5t18 -43.5q0 -25 -18 -42.5t-44 -17.5q-27 0 -44.5 18.5t-17.5 41.5zM353 226q-35 0 -72.5 -3 t-68 -12t-50.5 -27t-20 -48q0 -21 8.5 -35t22.5 -23t31 -12.5t35 -3.5q66 0 101.5 39.5t35.5 99.5v25h-23zM376 307q0 53 -32 78.5t-85 25.5q-40 0 -75.5 -15.5t-59.5 -39.5l-50 60q35 33 85.5 52t108.5 19q51 0 88.5 -14.5t61.5 -39.5t36 -59t12 -73v-207q0 -24 1.5 -50.5 t5.5 -43.5h-85q-8 34 -8 68h-3q-26 -38 -65.5 -59t-93.5 -21q-28 0 -58.5 7.5t-55.5 24.5t-41.5 45t-16.5 69q0 54 29 85.5t76 48t106 21.5t119 5v13z" horiz-adv-x="542"/>
<glyph glyph-name="aring" unicode="å" d="M327 653q0 24 -17.5 40t-41.5 16q-23 0 -40.5 -16t-17.5 -40t17.5 -40.5t40.5 -16.5q24 0 41.5 16t17.5 41zM369 653q0 -43 -29.5 -71t-71.5 -28q-21 0 -39 7.5t-31.5 20.5t-21.5 31t-8 39q0 43 29 71t71 28t71.5 -28t29.5 -70zM353 226q-35 0 -72.5 -3t-68 -12 t-50.5 -27t-20 -48q0 -21 8.5 -35t22.5 -23t31 -12.5t35 -3.5q66 0 101.5 39.5t35.5 99.5v25h-23zM376 307q0 53 -32 78.5t-85 25.5q-40 0 -75.5 -15.5t-59.5 -39.5l-50 60q35 33 85.5 52t108.5 19q51 0 88.5 -14.5t61.5 -39.5t36 -59t12 -73v-207q0 -24 1.5 -50.5 t5.5 -43.5h-85q-8 34 -8 68h-3q-26 -38 -65.5 -59t-93.5 -21q-28 0 -58.5 7.5t-55.5 24.5t-41.5 45t-16.5 69q0 54 29 85.5t76 48t106 21.5t119 5v13z" horiz-adv-x="542"/>
<glyph glyph-name="ae" unicode="æ" d="M419 85q-29 -54 -82.5 -75.5t-118.5 -21.5q-28 0 -58.5 6.5t-55.5 21.5t-41.5 40.5t-16.5 64.5q0 52 24 83.5t67.5 48t104 21.5t134.5 5v11q0 67 -32 94t-85 27q-40 0 -75.5 -15.5t-59.5 -39.5l-50 60q35 33 85.5 52t108.5 19q40 0 69 -8.5t48.5 -21.5t31 -28.5 t17.5 -29.5q28 39 69 63.5t104 24.5q51 0 92 -17t69.5 -49t44 -77.5t15.5 -102.5v-16t-1 -16h-364q1 -30 13 -56.5t32.5 -46t47 -30.5t56.5 -11q47 0 80.5 21t53.5 51l63 -53q-37 -50 -86.5 -73.5t-110.5 -23.5q-63 0 -114 25.5t-79 72.5zM734 279q0 28 -8.5 52.5 t-24.5 42.5t-40 28.5t-55 10.5q-29 0 -54.5 -10.5t-45 -28.5t-31.5 -42.5t-13 -52.5h272zM350 209q-44 0 -82 -2.5t-66 -10.5t-44 -23t-16 -40q0 -21 8.5 -34.5t22 -22t31 -12t36.5 -3.5q66 0 100 33t34 90v25h-24z" horiz-adv-x="877"/>
<glyph glyph-name="ccedilla" unicode="ç" d="M413 354q-15 23 -45 38.5t-64 15.5q-37 0 -65.5 -14t-48.5 -37.5t-30.5 -54.5t-10.5 -65t10.5 -65t30.5 -54.5t49 -37.5t66 -14q36 0 65.5 14t48.5 38l63 -57q-29 -33 -70 -52.5t-95 -21.5l-37 -56q7 2 13 2h14q17 0 33.5 -4t30 -13t22 -24t8.5 -37q0 -26 -12 -43.5 t-30.5 -28t-41 -14.5t-43.5 -4q-26 0 -54 6t-49 17l20 42q37 -17 77 -17q8 0 18.5 2t20 6.5t16 12.5t6.5 21q0 22 -17 30t-37 8q-9 0 -20 -2t-21 -5l-20 20l55 83q-48 6 -88 26t-69.5 52t-45.5 75t-16 95q0 56 19 102t53 79t80.5 51t100.5 18q50 0 99.5 -20t78.5 -58z" horiz-adv-x="494"/>
<glyph glyph-name="egrave" unicode="è" d="M134 708h113l100 -144h-77zM523 241v-16t-1 -16h-376q1 -30 13.5 -56.5t33.5 -46t48.5 -30.5t58.5 -11q48 0 83 21t55 51l66 -53q-38 -50 -89.5 -73.5t-114.5 -23.5q-54 0 -100 18t-79 50.5t-52 78.5t-19 102q0 55 18.5 101.5t51.5 79.5t78 51.5t97 18.5t94.5 -17t72 -49 t45.5 -77.5t16 -102.5zM428 279q-1 28 -9.5 52.5t-25 42.5t-41 28.5t-57.5 10.5q-30 0 -56.5 -10.5t-46 -28.5t-32 -42.5t-14.5 -52.5h282z" horiz-adv-x="573"/>
<glyph glyph-name="eacute" unicode="é" d="M322 564h-77l100 144h113zM523 241v-16t-1 -16h-376q1 -30 13.5 -56.5t33.5 -46t48.5 -30.5t58.5 -11q48 0 83 21t55 51l66 -53q-38 -50 -89.5 -73.5t-114.5 -23.5q-54 0 -100 18t-79 50.5t-52 78.5t-19 102q0 55 18.5 101.5t51.5 79.5t78 51.5t97 18.5t94.5 -17t72 -49 t45.5 -77.5t16 -102.5zM428 279q-1 28 -9.5 52.5t-25 42.5t-41 28.5t-57.5 10.5q-30 0 -56.5 -10.5t-46 -28.5t-32 -42.5t-14.5 -52.5h282z" horiz-adv-x="573"/>
<glyph glyph-name="ecircumflex" unicode="ê" d="M467 564h-91l-75 99l-76 -99h-90l112 144h108zM523 241v-16t-1 -16h-376q1 -30 13.5 -56.5t33.5 -46t48.5 -30.5t58.5 -11q48 0 83 21t55 51l66 -53q-38 -50 -89.5 -73.5t-114.5 -23.5q-54 0 -100 18t-79 50.5t-52 78.5t-19 102q0 55 18.5 101.5t51.5 79.5t78 51.5 t97 18.5t94.5 -17t72 -49t45.5 -77.5t16 -102.5zM428 279q-1 28 -9.5 52.5t-25 42.5t-41 28.5t-57.5 10.5q-30 0 -56.5 -10.5t-46 -28.5t-32 -42.5t-14.5 -52.5h282z" horiz-adv-x="573"/>
<glyph glyph-name="edieresis" unicode="ë" d="M335 645q0 24 17.5 42.5t44.5 18.5q26 0 44 -17.5t18 -43.5q0 -25 -18 -42.5t-44 -17.5q-27 0 -44.5 18.5t-17.5 41.5zM141 645q0 24 17.5 42.5t44.5 18.5q26 0 44 -17.5t18 -43.5q0 -25 -18 -42.5t-44 -17.5q-27 0 -44.5 18.5t-17.5 41.5zM523 241v-16t-1 -16h-376 q1 -30 13.5 -56.5t33.5 -46t48.5 -30.5t58.5 -11q48 0 83 21t55 51l66 -53q-38 -50 -89.5 -73.5t-114.5 -23.5q-54 0 -100 18t-79 50.5t-52 78.5t-19 102q0 55 18.5 101.5t51.5 79.5t78 51.5t97 18.5t94.5 -17t72 -49t45.5 -77.5t16 -102.5zM428 279q-1 28 -9.5 52.5 t-25 42.5t-41 28.5t-57.5 10.5q-30 0 -56.5 -10.5t-46 -28.5t-32 -42.5t-14.5 -52.5h282z" horiz-adv-x="573"/>
<glyph glyph-name="igrave" unicode="ì" d="M-36 708h113l100 -144h-77zM176 0h-94v474h94v-474z" horiz-adv-x="259"/>
<glyph glyph-name="iacute" unicode="í" d="M159 564h-77l100 144h113zM176 0h-94v474h94v-474z" horiz-adv-x="259"/>
<glyph glyph-name="icircumflex" unicode="î" d="M296 564h-91l-75 99l-76 -99h-90l112 144h108zM176 0h-94v474h94v-474z" horiz-adv-x="259"/>
<glyph glyph-name="idieresis" unicode="ï" d="M165 645q0 24 17.5 42.5t44.5 18.5q26 0 44 -17.5t18 -43.5q0 -25 -18 -42.5t-44 -17.5q-27 0 -44.5 18.5t-17.5 41.5zM-29 645q0 24 17.5 42.5t44.5 18.5q26 0 44 -17.5t18 -43.5q0 -25 -18 -42.5t-44 -17.5q-27 0 -44.5 18.5t-17.5 41.5zM176 0h-94v474h94v-474z" horiz-adv-x="259"/>
<glyph glyph-name="eth" unicode="ð" d="M142 237q0 -34 10.5 -64.5t30.5 -54t50 -37.5t68 -14t67.5 14t49.5 37.5t30.5 54t10.5 64.5t-10.5 64.5t-30.5 54t-49.5 37.5t-67.5 14t-68 -14t-50 -37.5t-30.5 -54t-10.5 -64.5zM371 659q38 -39 72 -84t59 -95.5t39.5 -105t14.5 -112.5q0 -53 -15 -103t-46 -88 t-79.5 -61t-114.5 -23q-55 0 -102 18.5t-81 51.5t-53 79t-19 101t19 101t53 79t80 51.5t99 18.5q38 0 69.5 -11.5t60.5 -37.5l2 2q-26 50 -62 97t-79 83l-110 -53l-48 47l110 53q-20 19 -44 37t-45 33l77 47q26 -20 51 -41t42 -37l108 53l52 -46z" horiz-adv-x="610"/>
<glyph glyph-name="ntilde" unicode="ñ" d="M121 572q4 22 10.5 42.5t18.5 37t29.5 26.5t43.5 10q19 0 38.5 -6t36.5 -14q20 -9 36.5 -15.5t30.5 -6.5q22 0 32.5 14.5t15.5 31.5h54q-4 -22 -10.5 -42.5t-18.5 -37t-30 -26.5t-43 -10q-19 0 -39 6.5t-38 14.5q-18 9 -34.5 15t-30.5 6q-21 0 -31.5 -14.5t-15.5 -31.5 h-55zM166 474q2 -18 3 -40.5t1 -37.5h3q9 19 24.5 35.5t35.5 29t44 19.5t50 7q46 0 79 -15.5t55 -41.5t32.5 -61t10.5 -75v-294h-94v263q0 29 -4.5 55t-16.5 46t-33 32t-54 12q-56 0 -91.5 -42.5t-35.5 -113.5v-252h-94v372q0 19 -1 49t-3 53h89z" horiz-adv-x="582"/>
<glyph glyph-name="ograve" unicode="ò" d="M147 708h113l100 -144h-77zM463 238q0 34 -10.5 65t-30.5 54.5t-49.5 37.5t-67.5 14t-67.5 -14t-49.5 -37.5t-30.5 -54.5t-10.5 -65t10.5 -65t30.5 -55t49.5 -38t67.5 -14t67.5 14t49.5 38t30.5 55t10.5 65zM561 238q0 -55 -19.5 -101t-54 -79.5t-81.5 -52t-101 -18.5 t-101 18.5t-81 52t-53.5 79.5t-19.5 101t19.5 100.5t53.5 78.5t81 51.5t101 18.5t101 -18.5t81.5 -51.5t54 -78.5t19.5 -100.5z" horiz-adv-x="610"/>
<glyph glyph-name="oacute" unicode="ó" d="M325 564h-77l100 144h113zM463 238q0 34 -10.5 65t-30.5 54.5t-49.5 37.5t-67.5 14t-67.5 -14t-49.5 -37.5t-30.5 -54.5t-10.5 -65t10.5 -65t30.5 -55t49.5 -38t67.5 -14t67.5 14t49.5 38t30.5 55t10.5 65zM561 238q0 -55 -19.5 -101t-54 -79.5t-81.5 -52t-101 -18.5 t-101 18.5t-81 52t-53.5 79.5t-19.5 101t19.5 100.5t53.5 78.5t81 51.5t101 18.5t101 -18.5t81.5 -51.5t54 -78.5t19.5 -100.5z" horiz-adv-x="610"/>
<glyph glyph-name="ocircumflex" unicode="ô" d="M472 564h-91l-75 99l-76 -99h-90l112 144h108zM463 238q0 34 -10.5 65t-30.5 54.5t-49.5 37.5t-67.5 14t-67.5 -14t-49.5 -37.5t-30.5 -54.5t-10.5 -65t10.5 -65t30.5 -55t49.5 -38t67.5 -14t67.5 14t49.5 38t30.5 55t10.5 65zM561 238q0 -55 -19.5 -101t-54 -79.5 t-81.5 -52t-101 -18.5t-101 18.5t-81 52t-53.5 79.5t-19.5 101t19.5 100.5t53.5 78.5t81 51.5t101 18.5t101 -18.5t81.5 -51.5t54 -78.5t19.5 -100.5z" horiz-adv-x="610"/>
<glyph glyph-name="otilde" unicode="õ" d="M133 572q4 22 10.5 42.5t18.5 37t29.5 26.5t43.5 10q19 0 38.5 -6t36.5 -14q20 -9 36.5 -15.5t30.5 -6.5q22 0 32.5 14.5t15.5 31.5h54q-4 -22 -10.5 -42.5t-18.5 -37t-30 -26.5t-43 -10q-19 0 -39 6.5t-38 14.5q-18 9 -34.5 15t-30.5 6q-21 0 -31.5 -14.5t-15.5 -31.5 h-55zM463 238q0 34 -10.5 65t-30.5 54.5t-49.5 37.5t-67.5 14t-67.5 -14t-49.5 -37.5t-30.5 -54.5t-10.5 -65t10.5 -65t30.5 -55t49.5 -38t67.5 -14t67.5 14t49.5 38t30.5 55t10.5 65zM561 238q0 -55 -19.5 -101t-54 -79.5t-81.5 -52t-101 -18.5t-101 18.5t-81 52 t-53.5 79.5t-19.5 101t19.5 100.5t53.5 78.5t81 51.5t101 18.5t101 -18.5t81.5 -51.5t54 -78.5t19.5 -100.5z" horiz-adv-x="610"/>
<glyph glyph-name="odieresis" unicode="ö" d="M341 645q0 24 17.5 42.5t44.5 18.5q26 0 44 -17.5t18 -43.5q0 -25 -18 -42.5t-44 -17.5q-27 0 -44.5 18.5t-17.5 41.5zM147 645q0 24 17.5 42.5t44.5 18.5q26 0 44 -17.5t18 -43.5q0 -25 -18 -42.5t-44 -17.5q-27 0 -44.5 18.5t-17.5 41.5zM463 238q0 34 -10.5 65 t-30.5 54.5t-49.5 37.5t-67.5 14t-67.5 -14t-49.5 -37.5t-30.5 -54.5t-10.5 -65t10.5 -65t30.5 -55t49.5 -38t67.5 -14t67.5 14t49.5 38t30.5 55t10.5 65zM561 238q0 -55 -19.5 -101t-54 -79.5t-81.5 -52t-101 -18.5t-101 18.5t-81 52t-53.5 79.5t-19.5 101t19.5 100.5 t53.5 78.5t81 51.5t101 18.5t101 -18.5t81.5 -51.5t54 -78.5t19.5 -100.5z" horiz-adv-x="610"/>
<glyph glyph-name="divide" unicode="÷" d="M398 469q0 -26 -18.5 -45.5t-46.5 -19.5t-46.5 19.5t-18.5 45.5t18.5 45.5t46.5 19.5t46.5 -19.5t18.5 -45.5zM398 132q0 -26 -18.5 -45.5t-46.5 -19.5t-46.5 19.5t-18.5 45.5t18.5 45.5t46.5 19.5t46.5 -19.5t18.5 -45.5zM596 262h-526v82h526v-82z" horiz-adv-x="666"/>
<glyph glyph-name="oslash" unicode="ø" d="M203 98q41 -35 101 -35q40 0 70.5 14.5t51 39t31 56t10.5 65.5q0 27 -7.5 54t-21.5 46zM406 377q-18 17 -45 26t-56 9q-39 0 -69 -14.5t-50.5 -39t-31 -56t-10.5 -65.5q0 -28 7 -55t21 -46zM501 401q28 -32 44 -73.5t16 -90.5q0 -55 -19.5 -101t-54 -79t-81.5 -51.5 t-101 -18.5q-47 0 -87 13.5t-72 37.5l-68 -69l-36 36l66 68q-28 32 -43 73.5t-15 90.5q0 55 19.5 101t53.5 79t81 51.5t101 18.5q93 0 158 -51l68 70l37 -35z" horiz-adv-x="610"/>
<glyph glyph-name="ugrave" unicode="ù" d="M131 708h113l100 -144h-77zM415 0q-2 18 -3 40.5t-1 37.5h-2q-18 -38 -60.5 -64.5t-94.5 -26.5q-46 0 -79.5 15t-55 41.5t-32 61.5t-10.5 75v294h94v-262q0 -29 4.5 -55.5t16.5 -46.5t33 -32t54 -12q57 0 92 42.5t35 113.5v252h94v-372q0 -19 1 -49t3 -53h-89z" horiz-adv-x="582"/>
<glyph glyph-name="uacute" unicode="ú" d="M316 564h-77l100 144h113zM415 0q-2 18 -3 40.5t-1 37.5h-2q-18 -38 -60.5 -64.5t-94.5 -26.5q-46 0 -79.5 15t-55 41.5t-32 61.5t-10.5 75v294h94v-262q0 -29 4.5 -55.5t16.5 -46.5t33 -32t54 -12q57 0 92 42.5t35 113.5v252h94v-372q0 -19 1 -49t3 -53h-89z" horiz-adv-x="582"/>
<glyph glyph-name="ucircumflex" unicode="û" d="M457 564h-91l-75 99l-76 -99h-90l112 144h108zM415 0q-2 18 -3 40.5t-1 37.5h-2q-18 -38 -60.5 -64.5t-94.5 -26.5q-46 0 -79.5 15t-55 41.5t-32 61.5t-10.5 75v294h94v-262q0 -29 4.5 -55.5t16.5 -46.5t33 -32t54 -12q57 0 92 42.5t35 113.5v252h94v-372q0 -19 1 -49 t3 -53h-89z" horiz-adv-x="582"/>
<glyph glyph-name="udieresis" unicode="ü" d="M325 645q0 24 17.5 42.5t44.5 18.5q26 0 44 -17.5t18 -43.5q0 -25 -18 -42.5t-44 -17.5q-27 0 -44.5 18.5t-17.5 41.5zM131 645q0 24 17.5 42.5t44.5 18.5q26 0 44 -17.5t18 -43.5q0 -25 -18 -42.5t-44 -17.5q-27 0 -44.5 18.5t-17.5 41.5zM415 0q-2 18 -3 40.5t-1 37.5 h-2q-18 -38 -60.5 -64.5t-94.5 -26.5q-46 0 -79.5 15t-55 41.5t-32 61.5t-10.5 75v294h94v-262q0 -29 4.5 -55.5t16.5 -46.5t33 -32t54 -12q57 0 92 42.5t35 113.5v252h94v-372q0 -19 1 -49t3 -53h-89z" horiz-adv-x="582"/>
<glyph glyph-name="yacute" unicode="ý" d="M286 564h-77l100 144h113zM261 102h2l131 372h100l-230 -586q-12 -30 -26 -53.5t-33 -40t-44.5 -25.5t-60.5 -9q-15 0 -30.5 1.5t-31.5 5.5l9 83q24 -8 47 -8q37 0 55 20.5t33 58.5l30 79l-203 474h105z" horiz-adv-x="504"/>
<glyph glyph-name="thorn" unicode="þ" d="M487 238q0 33 -10 64t-30 55t-49.5 38t-68.5 14q-36 0 -65.5 -14t-50.5 -38t-32.5 -55t-11.5 -65t11.5 -65t32.5 -54.5t50.5 -37.5t65.5 -14q39 0 68.5 14.5t49.5 38.5t30 55t10 64zM175 -240h-93v996h93v-356h3q22 38 66 62.5t103 24.5q53 0 96.5 -19t75 -53t48.5 -79.5 t17 -97.5t-17 -98t-48 -80t-75 -53.5t-99 -19.5q-51 0 -96 22t-71 62h-3v-311z" horiz-adv-x="636"/>
<glyph glyph-name="ydieresis" unicode="ÿ" d="M295 645q0 24 17.5 42.5t44.5 18.5q26 0 44 -17.5t18 -43.5q0 -25 -18 -42.5t-44 -17.5q-27 0 -44.5 18.5t-17.5 41.5zM101 645q0 24 17.5 42.5t44.5 18.5q26 0 44 -17.5t18 -43.5q0 -25 -18 -42.5t-44 -17.5q-27 0 -44.5 18.5t-17.5 41.5zM261 102h2l131 372h100 l-230 -586q-12 -30 -26 -53.5t-33 -40t-44.5 -25.5t-60.5 -9q-15 0 -30.5 1.5t-31.5 5.5l9 83q24 -8 47 -8q37 0 55 20.5t33 58.5l30 79l-203 474h105z" horiz-adv-x="504"/>
<glyph glyph-name="Amacron" unicode="Ā" d="M502 797h-296v67h296v-67zM221 261h265l-132 332zM115 0h-110l307 708h90l304 -708h-112l-72 174h-336z" horiz-adv-x="711"/>
<glyph glyph-name="amacron" unicode="ā" d="M418 597h-296v67h296v-67zM353 226q-35 0 -72.5 -3t-68 -12t-50.5 -27t-20 -48q0 -21 8.5 -35t22.5 -23t31 -12.5t35 -3.5q66 0 101.5 39.5t35.5 99.5v25h-23zM376 307q0 53 -32 78.5t-85 25.5q-40 0 -75.5 -15.5t-59.5 -39.5l-50 60q35 33 85.5 52t108.5 19 q51 0 88.5 -14.5t61.5 -39.5t36 -59t12 -73v-207q0 -24 1.5 -50.5t5.5 -43.5h-85q-8 34 -8 68h-3q-26 -38 -65.5 -59t-93.5 -21q-28 0 -58.5 7.5t-55.5 24.5t-41.5 45t-16.5 69q0 54 29 85.5t76 48t106 21.5t119 5v13z" horiz-adv-x="542"/>
<glyph glyph-name="Abreve" unicode="Ă" d="M513 908q-6 -69 -49.5 -103.5t-109.5 -34.5q-67 0 -110.5 34.5t-48.5 103.5h56q7 -38 36 -55t67 -17q41 0 68 15.5t36 56.5h55zM221 261h265l-132 332zM115 0h-110l307 708h90l304 -708h-112l-72 174h-336z" horiz-adv-x="711"/>
<glyph glyph-name="abreve" unicode="ă" d="M428 708q-6 -69 -49.5 -103.5t-109.5 -34.5q-67 0 -110.5 34.5t-48.5 103.5h56q7 -38 36 -55t67 -17q41 0 68 15.5t36 56.5h55zM353 226q-35 0 -72.5 -3t-68 -12t-50.5 -27t-20 -48q0 -21 8.5 -35t22.5 -23t31 -12.5t35 -3.5q66 0 101.5 39.5t35.5 99.5v25h-23zM376 307 q0 53 -32 78.5t-85 25.5q-40 0 -75.5 -15.5t-59.5 -39.5l-50 60q35 33 85.5 52t108.5 19q51 0 88.5 -14.5t61.5 -39.5t36 -59t12 -73v-207q0 -24 1.5 -50.5t5.5 -43.5h-85q-8 34 -8 68h-3q-26 -38 -65.5 -59t-93.5 -21q-28 0 -58.5 7.5t-55.5 24.5t-41.5 45t-16.5 69 q0 54 29 85.5t76 48t106 21.5t119 5v13z" horiz-adv-x="542"/>
<glyph glyph-name="Aogonek" unicode="Ą" d="M221 261h265l-132 332zM693 -189q-20 -17 -44.5 -27t-50.5 -10q-19 0 -36.5 6t-31 17t-21.5 27.5t-8 36.5q0 21 8.5 41.5t21.5 38.5t29.5 34t31.5 28l-70 171h-336l-71 -174h-110l307 708h90l304 -708h-63q-28 -27 -50.5 -58t-22.5 -61q0 -20 14 -33.5t34 -13.5 q14 0 28 6t25 16z" horiz-adv-x="711"/>
<glyph glyph-name="aogonek" unicode="ą" d="M353 226q-35 0 -72.5 -3t-68 -12t-50.5 -27t-20 -48q0 -21 8.5 -35t22.5 -23t31 -12.5t35 -3.5q66 0 101.5 39.5t35.5 99.5v25h-23zM487 -189q-20 -17 -44.5 -27t-50.5 -10q-19 0 -36.5 6t-31 17t-21.5 27.5t-8 36.5q0 21 8.5 41.5t22 38.5t29.5 34t32 28q-4 15 -5.5 32 t-1.5 33h-3q-26 -38 -65.5 -59t-93.5 -21q-28 0 -58.5 7.5t-55.5 24.5t-41.5 45t-16.5 69q0 54 29 85.5t76 48t106 21.5t119 5v13q0 53 -32 78.5t-85 25.5q-40 0 -75.5 -15.5t-59.5 -39.5l-50 60q35 33 85.5 52t108.5 19q51 0 88.5 -14.5t61.5 -39.5t36 -59t12 -73v-207 q0 -24 1.5 -50.5t5.5 -43.5h-36q-28 -27 -50.5 -58t-22.5 -61q0 -20 14 -33.5t34 -13.5q14 0 28 6t25 16z" horiz-adv-x="542"/>
<glyph glyph-name="Cacute" unicode="Ć" d="M431 764h-76l99 144h114zM693 110q-42 -57 -109 -92.5t-161 -35.5q-81 0 -149.5 27.5t-118 77t-77.5 118t-28 150.5q0 83 28.5 151.5t79 117t119.5 75.5t150 27q36 0 73 -7t71 -21t62 -34.5t48 -47.5l-78 -60q-26 36 -73.5 59.5t-102.5 23.5q-62 0 -111.5 -22.5 t-84.5 -61.5t-54 -90.5t-19 -109.5q0 -60 18.5 -112t53 -90.5t84 -60.5t110.5 -22q60 0 109 24t81 70z" horiz-adv-x="708"/>
<glyph glyph-name="cacute" unicode="ć" d="M320 564h-77l100 144h113zM413 354q-15 23 -45 38.5t-64 15.5q-37 0 -65.5 -14t-48.5 -37.5t-30.5 -54.5t-10.5 -65t10.5 -65t30.5 -54.5t49 -37.5t66 -14q36 0 65.5 14t48.5 38l63 -57q-30 -35 -75 -54.5t-102 -19.5q-55 0 -101.5 18t-80.5 50.5t-53.5 78.5t-19.5 103 q0 56 19 102t53 79t80.5 51t100.5 18q50 0 99.5 -20t78.5 -58z" horiz-adv-x="494"/>
<glyph glyph-name="Ccircumflex" unicode="Ĉ" d="M589 764h-91l-75 99l-76 -99h-90l112 144h108zM693 110q-42 -57 -109 -92.5t-161 -35.5q-81 0 -149.5 27.5t-118 77t-77.5 118t-28 150.5q0 83 28.5 151.5t79 117t119.5 75.5t150 27q36 0 73 -7t71 -21t62 -34.5t48 -47.5l-78 -60q-26 36 -73.5 59.5t-102.5 23.5 q-62 0 -111.5 -22.5t-84.5 -61.5t-54 -90.5t-19 -109.5q0 -60 18.5 -112t53 -90.5t84 -60.5t110.5 -22q60 0 109 24t81 70z" horiz-adv-x="708"/>
<glyph glyph-name="ccircumflex" unicode="ĉ" d="M469 564h-91l-75 99l-76 -99h-90l112 144h108zM413 354q-15 23 -45 38.5t-64 15.5q-37 0 -65.5 -14t-48.5 -37.5t-30.5 -54.5t-10.5 -65t10.5 -65t30.5 -54.5t49 -37.5t66 -14q36 0 65.5 14t48.5 38l63 -57q-30 -35 -75 -54.5t-102 -19.5q-55 0 -101.5 18t-80.5 50.5 t-53.5 78.5t-19.5 103q0 56 19 102t53 79t80.5 51t100.5 18q50 0 99.5 -20t78.5 -58z" horiz-adv-x="494"/>
<glyph glyph-name="Cdotaccent" unicode="Ċ" d="M486 845q0 -26 -18.5 -43t-44.5 -17t-44 17.5t-18 42.5q0 26 18 43.5t44 17.5t44.5 -17.5t18.5 -43.5zM693 110q-42 -57 -109 -92.5t-161 -35.5q-81 0 -149.5 27.5t-118 77t-77.5 118t-28 150.5q0 83 28.5 151.5t79 117t119.5 75.5t150 27q36 0 73 -7t71 -21t62 -34.5 t48 -47.5l-78 -60q-26 36 -73.5 59.5t-102.5 23.5q-62 0 -111.5 -22.5t-84.5 -61.5t-54 -90.5t-19 -109.5q0 -60 18.5 -112t53 -90.5t84 -60.5t110.5 -22q60 0 109 24t81 70z" horiz-adv-x="708"/>
<glyph glyph-name="cdotaccent" unicode="ċ" d="M363 645q0 -26 -18.5 -43t-44.5 -17t-44 17.5t-18 42.5q0 26 18 43.5t44 17.5t44.5 -17.5t18.5 -43.5zM413 354q-15 23 -45 38.5t-64 15.5q-37 0 -65.5 -14t-48.5 -37.5t-30.5 -54.5t-10.5 -65t10.5 -65t30.5 -54.5t49 -37.5t66 -14q36 0 65.5 14t48.5 38l63 -57 q-30 -35 -75 -54.5t-102 -19.5q-55 0 -101.5 18t-80.5 50.5t-53.5 78.5t-19.5 103q0 56 19 102t53 79t80.5 51t100.5 18q50 0 99.5 -20t78.5 -58z" horiz-adv-x="494"/>
<glyph glyph-name="Ccaron" unicode="Č" d="M476 764h-107l-111 144h90l76 -99l76 99h88zM693 110q-42 -57 -109 -92.5t-161 -35.5q-81 0 -149.5 27.5t-118 77t-77.5 118t-28 150.5q0 83 28.5 151.5t79 117t119.5 75.5t150 27q36 0 73 -7t71 -21t62 -34.5t48 -47.5l-78 -60q-26 36 -73.5 59.5t-102.5 23.5 q-62 0 -111.5 -22.5t-84.5 -61.5t-54 -90.5t-19 -109.5q0 -60 18.5 -112t53 -90.5t84 -60.5t110.5 -22q60 0 109 24t81 70z" horiz-adv-x="708"/>
<glyph glyph-name="ccaron" unicode="č" d="M357 564h-107l-111 144h90l76 -99l76 99h88zM413 354q-15 23 -45 38.5t-64 15.5q-37 0 -65.5 -14t-48.5 -37.5t-30.5 -54.5t-10.5 -65t10.5 -65t30.5 -54.5t49 -37.5t66 -14q36 0 65.5 14t48.5 38l63 -57q-30 -35 -75 -54.5t-102 -19.5q-55 0 -101.5 18t-80.5 50.5 t-53.5 78.5t-19.5 103q0 56 19 102t53 79t80.5 51t100.5 18q50 0 99.5 -20t78.5 -58z" horiz-adv-x="494"/>
<glyph glyph-name="Dcaron" unicode="Ď" d="M397 764h-107l-111 144h90l76 -99l76 99h88zM185 87h124q64 0 118.5 18t94 52t61.5 84t22 113q0 66 -22 116t-61.5 83.5t-94 51t-118.5 17.5h-124v-535zM86 708h243q68 0 136 -20t123 -63t89 -110t34 -161q0 -91 -34 -157.5t-89 -110t-123 -65t-136 -21.5h-243v708z" horiz-adv-x="761"/>
<glyph glyph-name="dcaron" unicode="ď" d="M665 518h-79l64 190h93zM147 238q0 -33 10 -64t30 -55t49 -38.5t68 -14.5q36 0 65.5 14t50.5 37.5t32.5 54.5t11.5 65t-11.5 65t-32.5 55t-50.5 38t-65.5 14q-39 0 -68 -14t-49 -38t-30 -55t-10 -64zM459 75q-27 -43 -73.5 -65.5t-97.5 -22.5q-55 0 -99 19.5t-75 53.5 t-48 80t-17 98t17 97.5t48.5 79.5t75.5 53t97 19q58 0 101 -24.5t68 -59.5h2v353h94v-756h-91v75h-2z" horiz-adv-x="635"/>
<glyph glyph-name="Dcroat" unicode="Đ" d="M182 90h117q70 0 125.5 19t94.5 53.5t60 83t21 108.5t-19.5 108.5t-56.5 83t-91.5 53.5t-123.5 19h-127v-213h237v-70h-237v-245zM82 335h-69v70h69v303h258q68 0 133.5 -22t117.5 -66t83.5 -110.5t31.5 -155.5q0 -90 -34 -156.5t-88 -110.5t-120.5 -65.5t-131.5 -21.5 h-250v335z" horiz-adv-x="761"/>
<glyph glyph-name="dcroat" unicode="đ" d="M147 238q0 -33 10 -64t30 -55t49 -38.5t68 -14.5q36 0 65.5 14t50.5 37.5t32.5 54.5t11.5 65t-11.5 65t-32.5 55t-50.5 38t-65.5 14q-39 0 -68 -14t-49 -38t-30 -55t-10 -64zM458 633v123h94v-123h56v-63h-56v-570h-91v75h-2q-27 -43 -73.5 -65.5t-97.5 -22.5 q-55 0 -99 19.5t-75 53.5t-48 80t-17 98t17 97.5t48.5 79.5t75.5 53t97 19q58 0 101 -24.5t68 -59.5h2v167h-163v63h163z" horiz-adv-x="635"/>
<glyph glyph-name="Emacron" unicode="Ē" d="M462 797h-296v67h296v-67zM185 88h370v-88h-469v708h454v-87h-355v-212h334v-85h-334v-236z" horiz-adv-x="601"/>
<glyph glyph-name="emacron" unicode="ē" d="M444 597h-296v67h296v-67zM523 241v-16t-1 -16h-376q1 -30 13.5 -56.5t33.5 -46t48.5 -30.5t58.5 -11q48 0 83 21t55 51l66 -53q-38 -50 -89.5 -73.5t-114.5 -23.5q-54 0 -100 18t-79 50.5t-52 78.5t-19 102q0 55 18.5 101.5t51.5 79.5t78 51.5t97 18.5t94.5 -17t72 -49 t45.5 -77.5t16 -102.5zM428 279q-1 28 -9.5 52.5t-25 42.5t-41 28.5t-57.5 10.5q-30 0 -56.5 -10.5t-46 -28.5t-32 -42.5t-14.5 -52.5h282z" horiz-adv-x="573"/>
<glyph glyph-name="Ebreve" unicode="Ĕ" d="M476 908q-6 -69 -49.5 -103.5t-109.5 -34.5q-67 0 -110.5 34.5t-48.5 103.5h56q7 -38 36 -55t67 -17q41 0 68 15.5t36 56.5h55zM185 88h370v-88h-469v708h454v-87h-355v-212h334v-85h-334v-236z" horiz-adv-x="601"/>
<glyph glyph-name="ebreve" unicode="ĕ" d="M458 708q-6 -69 -49.5 -103.5t-109.5 -34.5q-67 0 -110.5 34.5t-48.5 103.5h56q7 -38 36 -55t67 -17q41 0 68 15.5t36 56.5h55zM523 241v-16t-1 -16h-376q1 -30 13.5 -56.5t33.5 -46t48.5 -30.5t58.5 -11q48 0 83 21t55 51l66 -53q-38 -50 -89.5 -73.5t-114.5 -23.5 q-54 0 -100 18t-79 50.5t-52 78.5t-19 102q0 55 18.5 101.5t51.5 79.5t78 51.5t97 18.5t94.5 -17t72 -49t45.5 -77.5t16 -102.5zM428 279q-1 28 -9.5 52.5t-25 42.5t-41 28.5t-57.5 10.5q-30 0 -56.5 -10.5t-46 -28.5t-32 -42.5t-14.5 -52.5h282z" horiz-adv-x="573"/>
<glyph glyph-name="Edotaccent" unicode="Ė" d="M377 845q0 -26 -18.5 -43t-44.5 -17t-44 17.5t-18 42.5q0 26 18 43.5t44 17.5t44.5 -17.5t18.5 -43.5zM185 88h370v-88h-469v708h454v-87h-355v-212h334v-85h-334v-236z" horiz-adv-x="601"/>
<glyph glyph-name="edotaccent" unicode="ė" d="M359 645q0 -26 -18.5 -43t-44.5 -17t-44 17.5t-18 42.5q0 26 18 43.5t44 17.5t44.5 -17.5t18.5 -43.5zM523 241v-16t-1 -16h-376q1 -30 13.5 -56.5t33.5 -46t48.5 -30.5t58.5 -11q48 0 83 21t55 51l66 -53q-38 -50 -89.5 -73.5t-114.5 -23.5q-54 0 -100 18t-79 50.5 t-52 78.5t-19 102q0 55 18.5 101.5t51.5 79.5t78 51.5t97 18.5t94.5 -17t72 -49t45.5 -77.5t16 -102.5zM428 279q-1 28 -9.5 52.5t-25 42.5t-41 28.5t-57.5 10.5q-30 0 -56.5 -10.5t-46 -28.5t-32 -42.5t-14.5 -52.5h282z" horiz-adv-x="573"/>
<glyph glyph-name="Eogonek" unicode="Ę" d="M590 -189q-20 -17 -44.5 -27t-50.5 -10q-19 0 -36.5 6t-31 17t-21.5 27.5t-8 36.5t8 39.5t20.5 37.5t28 34t30.5 28h-399v708h454v-87h-355v-212h334v-85h-334v-236h370v-88h-15q-28 -27 -50.5 -58t-22.5 -61q0 -20 14 -33.5t34 -13.5q14 0 28 6t25 16z" horiz-adv-x="601"/>
<glyph glyph-name="eogonek" unicode="ę" d="M428 279q-1 28 -9.5 52.5t-25 42.5t-41 28.5t-57.5 10.5q-30 0 -56.5 -10.5t-46 -28.5t-32 -42.5t-14.5 -52.5h282zM400 -189q-20 -17 -44.5 -27t-50.5 -10q-19 0 -36.5 6t-31 17t-21.5 27.5t-8 36.5q0 36 22.5 69t50.5 58q-51 3 -93 22t-73 51.5t-48 76.5t-17 98 q0 55 18.5 101.5t51.5 79.5t78 51.5t97 18.5t94.5 -17t72 -49t45.5 -77.5t16 -102.5v-16t-1 -16h-376q1 -30 13.5 -56.5t33.5 -46t48.5 -30.5t58.5 -11q48 0 83 21t55 51l66 -53q-64 -82 -164 -94q-25 -26 -44 -54t-19 -55q0 -20 14 -33.5t34 -13.5q14 0 28 6t25 16z" horiz-adv-x="573"/>
<glyph glyph-name="Ecaron" unicode="Ě" d="M370 764h-107l-111 144h90l76 -99l76 99h88zM185 88h370v-88h-469v708h454v-87h-355v-212h334v-85h-334v-236z" horiz-adv-x="601"/>
<glyph glyph-name="ecaron" unicode="ě" d="M349 564h-107l-111 144h90l76 -99l76 99h88zM523 241v-16t-1 -16h-376q1 -30 13.5 -56.5t33.5 -46t48.5 -30.5t58.5 -11q48 0 83 21t55 51l66 -53q-38 -50 -89.5 -73.5t-114.5 -23.5q-54 0 -100 18t-79 50.5t-52 78.5t-19 102q0 55 18.5 101.5t51.5 79.5t78 51.5t97 18.5 t94.5 -17t72 -49t45.5 -77.5t16 -102.5zM428 279q-1 28 -9.5 52.5t-25 42.5t-41 28.5t-57.5 10.5q-30 0 -56.5 -10.5t-46 -28.5t-32 -42.5t-14.5 -52.5h282z" horiz-adv-x="573"/>
<glyph glyph-name="Gcircumflex" unicode="Ĝ" d="M593 764h-91l-75 99l-76 -99h-90l112 144h108zM620 562q-32 35 -81.5 56t-110.5 21q-62 0 -112 -22.5t-85 -61.5t-54 -90.5t-19 -109.5q0 -59 19 -111t54 -90.5t86 -60.5t114 -22q50 0 92 9t73 26v197h-157v84h255v-343q-56 -30 -122 -46t-144 -16q-83 0 -152.5 27.5 t-119.5 77t-78 118t-28 150.5q0 83 28.5 151.5t79 117t119.5 75.5t150 27q85 0 151.5 -25t110.5 -67z" horiz-adv-x="778"/>
<glyph glyph-name="gcircumflex" unicode="ĝ" d="M476 564h-91l-75 99l-76 -99h-90l112 144h108zM147 242q0 -33 10.5 -63t31 -53t49.5 -37t66 -14q36 0 66 13t51 35.5t32.5 53t11.5 65.5q0 34 -11.5 64t-33 53t-51 36.5t-65.5 13.5q-37 0 -66 -13.5t-49.5 -36t-31 -53t-10.5 -64.5zM118 -81q31 -35 77.5 -56t95.5 -21 q47 0 79 13.5t51.5 37t28 55.5t8.5 69v61h-2q-26 -40 -71 -61t-96 -21q-54 0 -98.5 19t-75.5 52t-48 77.5t-17 95.5t17 96t48 78.5t75 53t98 19.5q51 0 97.5 -22t73.5 -67h2v76h91v-450q0 -52 -13 -99.5t-44 -84t-81 -58.5t-124 -22q-62 0 -124.5 22.5t-107.5 63.5z" horiz-adv-x="632"/>
<glyph glyph-name="Gbreve" unicode="Ğ" d="M586 908q-6 -69 -49.5 -103.5t-109.5 -34.5q-67 0 -110.5 34.5t-48.5 103.5h56q7 -38 36 -55t67 -17q41 0 68 15.5t36 56.5h55zM620 562q-32 35 -81.5 56t-110.5 21q-62 0 -112 -22.5t-85 -61.5t-54 -90.5t-19 -109.5q0 -59 19 -111t54 -90.5t86 -60.5t114 -22q50 0 92 9 t73 26v197h-157v84h255v-343q-56 -30 -122 -46t-144 -16q-83 0 -152.5 27.5t-119.5 77t-78 118t-28 150.5q0 83 28.5 151.5t79 117t119.5 75.5t150 27q85 0 151.5 -25t110.5 -67z" horiz-adv-x="778"/>
<glyph glyph-name="gbreve" unicode="ğ" d="M465 708q-6 -69 -49.5 -103.5t-109.5 -34.5q-67 0 -110.5 34.5t-48.5 103.5h56q7 -38 36 -55t67 -17q41 0 68 15.5t36 56.5h55zM147 242q0 -33 10.5 -63t31 -53t49.5 -37t66 -14q36 0 66 13t51 35.5t32.5 53t11.5 65.5q0 34 -11.5 64t-33 53t-51 36.5t-65.5 13.5 q-37 0 -66 -13.5t-49.5 -36t-31 -53t-10.5 -64.5zM118 -81q31 -35 77.5 -56t95.5 -21q47 0 79 13.5t51.5 37t28 55.5t8.5 69v61h-2q-26 -40 -71 -61t-96 -21q-54 0 -98.5 19t-75.5 52t-48 77.5t-17 95.5t17 96t48 78.5t75 53t98 19.5q51 0 97.5 -22t73.5 -67h2v76h91v-450 q0 -52 -13 -99.5t-44 -84t-81 -58.5t-124 -22q-62 0 -124.5 22.5t-107.5 63.5z" horiz-adv-x="632"/>
<glyph glyph-name="Gdotaccent" unicode="Ġ" d="M489 845q0 -26 -18.5 -43t-44.5 -17t-44 17.5t-18 42.5q0 26 18 43.5t44 17.5t44.5 -17.5t18.5 -43.5zM620 562q-32 35 -81.5 56t-110.5 21q-62 0 -112 -22.5t-85 -61.5t-54 -90.5t-19 -109.5q0 -59 19 -111t54 -90.5t86 -60.5t114 -22q50 0 92 9t73 26v197h-157v84h255 v-343q-56 -30 -122 -46t-144 -16q-83 0 -152.5 27.5t-119.5 77t-78 118t-28 150.5q0 83 28.5 151.5t79 117t119.5 75.5t150 27q85 0 151.5 -25t110.5 -67z" horiz-adv-x="778"/>
<glyph glyph-name="gdotaccent" unicode="ġ" d="M380 645q0 -26 -18.5 -43t-44.5 -17t-44 17.5t-18 42.5q0 26 18 43.5t44 17.5t44.5 -17.5t18.5 -43.5zM147 242q0 -33 10.5 -63t31 -53t49.5 -37t66 -14q36 0 66 13t51 35.5t32.5 53t11.5 65.5q0 34 -11.5 64t-33 53t-51 36.5t-65.5 13.5q-37 0 -66 -13.5t-49.5 -36 t-31 -53t-10.5 -64.5zM118 -81q31 -35 77.5 -56t95.5 -21q47 0 79 13.5t51.5 37t28 55.5t8.5 69v61h-2q-26 -40 -71 -61t-96 -21q-54 0 -98.5 19t-75.5 52t-48 77.5t-17 95.5t17 96t48 78.5t75 53t98 19.5q51 0 97.5 -22t73.5 -67h2v76h91v-450q0 -52 -13 -99.5t-44 -84 t-81 -58.5t-124 -22q-62 0 -124.5 22.5t-107.5 63.5z" horiz-adv-x="632"/>
<glyph glyph-name="Gcommaaccent" unicode="Ģ" d="M412 -235h-79l64 190h93zM620 562q-32 35 -81.5 56t-110.5 21q-62 0 -112 -22.5t-85 -61.5t-54 -90.5t-19 -109.5q0 -59 19 -111t54 -90.5t86 -60.5t114 -22q50 0 92 9t73 26v197h-157v84h255v-343q-56 -30 -122 -46t-144 -16q-83 0 -152.5 27.5t-119.5 77t-78 118 t-28 150.5q0 83 28.5 151.5t79 117t119.5 75.5t150 27q85 0 151.5 -25t110.5 -67z" horiz-adv-x="778"/>
<glyph glyph-name="gcommaaccent" unicode="ģ" d="M350 754h79l-64 -190h-93zM147 242q0 -33 10.5 -63t31 -53t49.5 -37t66 -14q36 0 66 13t51 35.5t32.5 53t11.5 65.5q0 34 -11.5 64t-33 53t-51 36.5t-65.5 13.5q-37 0 -66 -13.5t-49.5 -36t-31 -53t-10.5 -64.5zM118 -81q31 -35 77.5 -56t95.5 -21q47 0 79 13.5t51.5 37 t28 55.5t8.5 69v61h-2q-26 -40 -71 -61t-96 -21q-54 0 -98.5 19t-75.5 52t-48 77.5t-17 95.5t17 96t48 78.5t75 53t98 19.5q51 0 97.5 -22t73.5 -67h2v76h91v-450q0 -52 -13 -99.5t-44 -84t-81 -58.5t-124 -22q-62 0 -124.5 22.5t-107.5 63.5z" horiz-adv-x="632"/>
<glyph glyph-name="Hcircumflex" unicode="Ĥ" d="M530 764h-91l-75 99l-76 -99h-90l112 144h108zM86 708h99v-296h358v296h100v-708h-100v324h-358v-324h-99v708z" horiz-adv-x="729"/>
<glyph glyph-name="hcircumflex" unicode="ĥ" d="M461 796h-91l-75 99l-76 -99h-90l112 144h108zM179 402q17 35 58 60t92 25q46 0 79 -15.5t55 -41.5t32.5 -61t10.5 -75v-294h-94v262q0 29 -4.5 55t-16.5 46t-32.5 32t-53.5 12q-56 0 -92 -42.5t-36 -113.5v-251h-94v756h94v-354h2z" horiz-adv-x="584"/>
<glyph glyph-name="Hbar" unicode="Ħ" d="M543 412v88h-358v-88h358zM86 708h99v-145h358v145h100v-708h-100v324h-358v-324h-99v708z" horiz-adv-x="729"/>
<glyph glyph-name="hbar" unicode="ħ" d="M83 633v123h94v-123h164v-63h-164v-168h2q17 35 58 60t92 25q46 0 79.5 -15.5t55.5 -41.5t32.5 -61t10.5 -75v-294h-95v262q0 29 -4.5 55t-16.5 46t-32.5 32t-53.5 12q-56 0 -92 -42.5t-36 -113.5v-251h-94v570h-54v63h54z" horiz-adv-x="584"/>
<glyph glyph-name="Itilde" unicode="Ĩ" d="M-38 772q4 22 10.5 42.5t18.5 37t29.5 26.5t43.5 10q19 0 38.5 -6t36.5 -14q20 -9 36.5 -15.5t30.5 -6.5q22 0 32.5 14.5t15.5 31.5h54q-4 -22 -10.5 -42.5t-18.5 -37t-30 -26.5t-43 -10q-19 0 -39 6.5t-38 14.5q-18 9 -34.5 15t-30.5 6q-21 0 -31.5 -14.5t-15.5 -31.5 h-55zM185 0h-99v708h99v-708z" horiz-adv-x="271"/>
<glyph glyph-name="itilde" unicode="ĩ" d="M-42 572q4 22 10.5 42.5t18.5 37t29.5 26.5t43.5 10q19 0 38.5 -6t36.5 -14q20 -9 36.5 -15.5t30.5 -6.5q22 0 32.5 14.5t15.5 31.5h54q-4 -22 -10.5 -42.5t-18.5 -37t-30 -26.5t-43 -10q-19 0 -39 6.5t-38 14.5q-18 9 -34.5 15t-30.5 6q-21 0 -31.5 -14.5t-15.5 -31.5 h-55zM176 0h-94v474h94v-474z" horiz-adv-x="259"/>
<glyph glyph-name="Imacron" unicode="Ī" d="M282 797h-296v67h296v-67zM185 0h-99v708h99v-708z" horiz-adv-x="271"/>
<glyph glyph-name="imacron" unicode="ī" d="M278 597h-296v67h296v-67zM176 0h-94v474h94v-474z" horiz-adv-x="259"/>
<glyph glyph-name="Ibreve" unicode="Ĭ" d="M185 0h-99v708h99v-708zM294 921q-6 -69 -49.5 -103.5t-109.5 -34.5q-67 0 -110.5 34.5t-48.5 103.5h56q7 -38 36 -55t67 -17q41 0 68 15.5t36 56.5h55z" horiz-adv-x="271"/>
<glyph glyph-name="ibreve" unicode="ĭ" d="M176 0h-94v474h94v-474zM288 687q-6 -69 -49.5 -103.5t-109.5 -34.5q-67 0 -110.5 34.5t-48.5 103.5h56q7 -38 36 -55t67 -17q41 0 68 15.5t36 56.5h55z" horiz-adv-x="259"/>
<glyph glyph-name="Iogonek" unicode="Į" d="M227 -189q-20 -17 -44.5 -27t-50.5 -10q-19 0 -36.5 6t-31 17t-21.5 27.5t-8 36.5t8 39.5t20.5 37.5t28 34t30.5 28h-36v708h99v-708h-8q-28 -27 -50.5 -58t-22.5 -61q0 -20 14 -33.5t34 -13.5q14 0 28 6t25 16z" horiz-adv-x="271"/>
<glyph glyph-name="iogonek" unicode="į" d="M192 645q0 -26 -18.5 -43t-44.5 -17t-44 17.5t-18 42.5q0 26 18 43.5t44 17.5t44.5 -17.5t18.5 -43.5zM215 -189q-20 -17 -44.5 -27t-50.5 -10q-19 0 -36.5 6t-31 17t-21.5 27.5t-8 36.5t8 39.5t20.5 37.5t28 34t30.5 28h-28v474h94v-474h-11q-28 -27 -50.5 -58 t-22.5 -61q0 -20 14 -33.5t34 -13.5q14 0 28 6t25 16z" horiz-adv-x="259"/>
<glyph glyph-name="Idotaccent" unicode="İ" d="M200 845q0 -26 -18.5 -43t-44.5 -17t-44 17.5t-18 42.5q0 26 18 43.5t44 17.5t44.5 -17.5t18.5 -43.5zM185 0h-99v708h99v-708z" horiz-adv-x="271"/>
<glyph glyph-name="dotlessi" unicode="ı" d="M176 0h-94v474h94v-474z" horiz-adv-x="259"/>
<glyph glyph-name="Jcircumflex" unicode="Ĵ" d="M531 764h-91l-75 99l-76 -99h-90l112 144h108zM107 158q8 -38 35 -63t67 -25q32 0 52.5 12t32.5 32.5t17 48t5 58.5v487h99v-491q0 -37 -8 -78t-30 -76t-61.5 -58t-101.5 -23q-81 0 -132 42t-67 108z" horiz-adv-x="495"/>
<glyph glyph-name="jcircumflex" unicode="ĵ" d="M294 564h-91l-75 99l-76 -99h-90l112 144h108zM-21 -154q20 -5 38 -5q21 0 34 8t20 21.5t9.5 32t2.5 39.5v532h94v-535q0 -36 -6.5 -68t-23.5 -57t-47 -39.5t-77 -14.5q-13 0 -28 2t-26 4z" horiz-adv-x="260"/>
<glyph glyph-name="Kcommaaccent" unicode="Ķ" d="M322 -235h-79l64 190h93zM185 396h2l316 312h137l-344 -324l365 -384h-142l-332 366h-2v-366h-99v708h99v-312z" horiz-adv-x="659"/>
<glyph glyph-name="kcommaaccent" unicode="ķ" d="M255 -235h-79l64 190h93zM177 268h3l199 206h126l-222 -215l241 -259h-130l-214 246h-3v-246h-94v756h94v-488z" horiz-adv-x="527"/>
<glyph glyph-name="Lacute" unicode="Ĺ" d="M166 764h-76l99 144h114zM185 88h316v-88h-415v708h99v-620z" horiz-adv-x="511"/>
<glyph glyph-name="lacute" unicode="ĺ" d="M160 792h-77l100 144h113zM177 0h-94v756h94v-756z" horiz-adv-x="260"/>
<glyph glyph-name="Lcommaaccent" unicode="Ļ" d="M277 -235h-79l64 190h93zM185 88h316v-88h-415v708h99v-620z" horiz-adv-x="511"/>
<glyph glyph-name="lcommaaccent" unicode="ļ" d="M115 -235h-79l64 190h93zM177 0h-94v756h94v-756z" horiz-adv-x="260"/>
<glyph glyph-name="Lcaron" unicode="Ľ" d="M308 518h-79l64 190h93zM185 88h316v-88h-415v708h99v-620z" horiz-adv-x="511"/>
<glyph glyph-name="lcaron" unicode="ľ" d="M291 518h-79l64 190h93zM177 0h-94v756h94v-756z" horiz-adv-x="260"/>
<glyph glyph-name="Ldot" unicode="Ŀ" d="M449 335q0 -26 -18.5 -43t-44.5 -17t-44 17.5t-18 42.5q0 26 18 43.5t44 17.5t44.5 -17.5t18.5 -43.5zM185 88h316v-88h-415v708h99v-620z" horiz-adv-x="511"/>
<glyph glyph-name="ldot" unicode="ŀ" d="M364 335q0 -26 -18.5 -43t-44.5 -17t-44 17.5t-18 42.5q0 26 18 43.5t44 17.5t44.5 -17.5t18.5 -43.5zM177 0h-94v756h94v-756z" horiz-adv-x="350"/>
<glyph glyph-name="Lslash" unicode="Ł" d="M185 385l211 184v-90l-211 -184v-207h316v-88h-415v221l-76 -66v91l76 65v397h99v-323z" horiz-adv-x="511"/>
<glyph glyph-name="lslash" unicode="ł" d="M176 480l75 76v-90l-75 -75v-391h-93v314l-75 -76v92l75 75v351h93v-276z" horiz-adv-x="260"/>
<glyph glyph-name="Nacute" unicode="Ń" d="M391 764h-76l99 144h114zM585 142h2v566h99v-708h-125l-374 578h-2v-578h-99v708h129z" horiz-adv-x="772"/>
<glyph glyph-name="nacute" unicode="ń" d="M310 564h-77l100 144h113zM166 474q2 -18 3 -40.5t1 -37.5h3q9 19 24.5 35.5t35.5 29t44 19.5t50 7q46 0 79 -15.5t55 -41.5t32.5 -61t10.5 -75v-294h-94v263q0 29 -4.5 55t-16.5 46t-33 32t-54 12q-56 0 -91.5 -42.5t-35.5 -113.5v-252h-94v372q0 19 -1 49t-3 53h89z " horiz-adv-x="582"/>
<glyph glyph-name="Ncommaaccent" unicode="Ņ" d="M377 -235h-79l64 190h93zM585 142h2v566h99v-708h-125l-374 578h-2v-578h-99v708h129z" horiz-adv-x="772"/>
<glyph glyph-name="ncommaaccent" unicode="ņ" d="M277 -235h-79l64 190h93zM166 474q2 -18 3 -40.5t1 -37.5h3q9 19 24.5 35.5t35.5 29t44 19.5t50 7q46 0 79 -15.5t55 -41.5t32.5 -61t10.5 -75v-294h-94v263q0 29 -4.5 55t-16.5 46t-33 32t-54 12q-56 0 -91.5 -42.5t-35.5 -113.5v-252h-94v372q0 19 -1 49t-3 53h89z" horiz-adv-x="582"/>
<glyph glyph-name="Ncaron" unicode="Ň" d="M442 764h-107l-111 144h90l76 -99l76 99h88zM585 142h2v566h99v-708h-125l-374 578h-2v-578h-99v708h129z" horiz-adv-x="772"/>
<glyph glyph-name="ncaron" unicode="ň" d="M345 564h-107l-111 144h90l76 -99l76 99h88zM166 474q2 -18 3 -40.5t1 -37.5h3q9 19 24.5 35.5t35.5 29t44 19.5t50 7q46 0 79 -15.5t55 -41.5t32.5 -61t10.5 -75v-294h-94v263q0 29 -4.5 55t-16.5 46t-33 32t-54 12q-56 0 -91.5 -42.5t-35.5 -113.5v-252h-94v372 q0 19 -1 49t-3 53h89z" horiz-adv-x="582"/>
<glyph glyph-name="Omacron" unicode="Ō" d="M573 797h-296v67h296v-67zM693 355q0 58 -19 109.5t-54 90.5t-84.5 61.5t-111.5 22.5q-61 0 -110.5 -22.5t-84 -61.5t-53.5 -90.5t-19 -109.5q0 -59 19 -111t54 -90.5t84 -60.5t110 -22t111 22t85 60.5t54 90.5t19 111zM800 355q0 -82 -28.5 -150.5t-78.5 -118t-119 -77 t-150 -27.5t-149.5 27.5t-118.5 77t-78 118t-28 150.5q0 83 28 151.5t78 117t118.5 75.5t149.5 27t150 -27t119 -75.5t78.5 -117t28.5 -151.5z"/>
<glyph glyph-name="omacron" unicode="ō" d="M454 597h-296v67h296v-67zM463 238q0 34 -10.5 65t-30.5 54.5t-49.5 37.5t-67.5 14t-67.5 -14t-49.5 -37.5t-30.5 -54.5t-10.5 -65t10.5 -65t30.5 -55t49.5 -38t67.5 -14t67.5 14t49.5 38t30.5 55t10.5 65zM561 238q0 -55 -19.5 -101t-54 -79.5t-81.5 -52t-101 -18.5 t-101 18.5t-81 52t-53.5 79.5t-19.5 101t19.5 100.5t53.5 78.5t81 51.5t101 18.5t101 -18.5t81.5 -51.5t54 -78.5t19.5 -100.5z" horiz-adv-x="610"/>
<glyph glyph-name="Obreve" unicode="Ŏ" d="M583 908q-6 -69 -49.5 -103.5t-109.5 -34.5q-67 0 -110.5 34.5t-48.5 103.5h56q7 -38 36 -55t67 -17q41 0 68 15.5t36 56.5h55zM693 355q0 58 -19 109.5t-54 90.5t-84.5 61.5t-111.5 22.5q-61 0 -110.5 -22.5t-84 -61.5t-53.5 -90.5t-19 -109.5q0 -59 19 -111t54 -90.5 t84 -60.5t110 -22t111 22t85 60.5t54 90.5t19 111zM800 355q0 -82 -28.5 -150.5t-78.5 -118t-119 -77t-150 -27.5t-149.5 27.5t-118.5 77t-78 118t-28 150.5q0 83 28 151.5t78 117t118.5 75.5t149.5 27t150 -27t119 -75.5t78.5 -117t28.5 -151.5z"/>
<glyph glyph-name="obreve" unicode="ŏ" d="M465 708q-6 -69 -49.5 -103.5t-109.5 -34.5q-67 0 -110.5 34.5t-48.5 103.5h56q7 -38 36 -55t67 -17q41 0 68 15.5t36 56.5h55zM463 238q0 34 -10.5 65t-30.5 54.5t-49.5 37.5t-67.5 14t-67.5 -14t-49.5 -37.5t-30.5 -54.5t-10.5 -65t10.5 -65t30.5 -55t49.5 -38 t67.5 -14t67.5 14t49.5 38t30.5 55t10.5 65zM561 238q0 -55 -19.5 -101t-54 -79.5t-81.5 -52t-101 -18.5t-101 18.5t-81 52t-53.5 79.5t-19.5 101t19.5 100.5t53.5 78.5t81 51.5t101 18.5t101 -18.5t81.5 -51.5t54 -78.5t19.5 -100.5z" horiz-adv-x="610"/>
<glyph glyph-name="Ohungarumlaut" unicode="Ő" d="M546 764h-77l100 144h113zM363 764h-77l100 144h114zM693 355q0 58 -19 109.5t-54 90.5t-84.5 61.5t-111.5 22.5q-61 0 -110.5 -22.5t-84 -61.5t-53.5 -90.5t-19 -109.5q0 -59 19 -111t54 -90.5t84 -60.5t110 -22t111 22t85 60.5t54 90.5t19 111zM800 355 q0 -82 -28.5 -150.5t-78.5 -118t-119 -77t-150 -27.5t-149.5 27.5t-118.5 77t-78 118t-28 150.5q0 83 28 151.5t78 117t118.5 75.5t149.5 27t150 -27t119 -75.5t78.5 -117t28.5 -151.5z"/>
<glyph glyph-name="ohungarumlaut" unicode="ő" d="M432 564h-77l100 144h113zM249 564h-77l100 144h114zM463 238q0 34 -10.5 65t-30.5 54.5t-49.5 37.5t-67.5 14t-67.5 -14t-49.5 -37.5t-30.5 -54.5t-10.5 -65t10.5 -65t30.5 -55t49.5 -38t67.5 -14t67.5 14t49.5 38t30.5 55t10.5 65zM561 238q0 -55 -19.5 -101t-54 -79.5 t-81.5 -52t-101 -18.5t-101 18.5t-81 52t-53.5 79.5t-19.5 101t19.5 100.5t53.5 78.5t81 51.5t101 18.5t101 -18.5t81.5 -51.5t54 -78.5t19.5 -100.5z" horiz-adv-x="610"/>
<glyph glyph-name="OE" unicode="Œ" d="M452 621q-64 0 -118.5 -17t-94 -51t-61.5 -83.5t-22 -115.5q0 -63 22 -112.5t61.5 -83.5t94 -52t118.5 -18h60v533h-60zM942 708v-87h-331v-212h310v-85h-310v-236h346v-88h-525q-68 0 -136 21.5t-123 65t-89 110t-34 157.5q0 94 34 161t89 110t123 63t136 20h510z" horiz-adv-x="1003"/>
<glyph glyph-name="oe" unicode="œ" d="M832 279q-1 28 -9.5 52.5t-25.5 42.5t-41.5 28.5t-57.5 10.5q-30 0 -56.5 -10.5t-46 -28.5t-32 -42.5t-14.5 -52.5h283zM463 238q0 34 -10.5 65t-30.5 54.5t-49.5 37.5t-67.5 14t-68 -14t-50 -37.5t-30.5 -54.5t-10.5 -65t10.5 -65t30.5 -55t50 -38t68 -14t67.5 14 t49.5 38t30.5 55t10.5 65zM698 487q53 0 95 -17t71.5 -49t45.5 -77.5t16 -102.5v-16t-1 -16h-377q2 -31 14.5 -57t33.5 -45.5t48.5 -30.5t58.5 -11q49 0 83.5 21t54.5 51l65 -53q-75 -97 -204 -97q-66 0 -117.5 27.5t-81.5 74.5q-31 -47 -83 -74.5t-118 -27.5 q-54 0 -100.5 18.5t-80 52t-52.5 79.5t-19 101t19 100.5t52.5 78.5t80 51.5t100.5 18.5q66 0 118.5 -28t83.5 -75q31 46 80.5 74.5t113.5 28.5z" horiz-adv-x="975"/>
<glyph glyph-name="Racute" unicode="Ŕ" d="M298 764h-76l99 144h114zM185 398h114q35 0 65 6t52.5 19.5t35.5 35t13 53.5t-13 53.5t-34.5 34.5t-50.5 18.5t-61 5.5h-121v-226zM185 0h-99v708h227q51 0 97 -10.5t80.5 -33.5t54.5 -60.5t20 -91.5q0 -78 -48 -126t-124 -61l198 -325h-120l-180 315h-106v-315z" horiz-adv-x="614"/>
<glyph glyph-name="racute" unicode="ŕ" d="M181 564h-77l100 144h113zM81 372q0 19 -1 49t-3 53h89q2 -18 3 -41.5t1 -38.5h3q20 42 58.5 67.5t86.5 25.5q22 0 37 -4l-4 -87q-20 5 -43 5q-34 0 -59 -12.5t-41.5 -33.5t-24.5 -48.5t-8 -57.5v-249h-94v372z" horiz-adv-x="362"/>
<glyph glyph-name="Rcommaaccent" unicode="Ŗ" d="M301 -235h-79l64 190h93zM185 398h114q35 0 65 6t52.5 19.5t35.5 35t13 53.5t-13 53.5t-34.5 34.5t-50.5 18.5t-61 5.5h-121v-226zM185 0h-99v708h227q51 0 97 -10.5t80.5 -33.5t54.5 -60.5t20 -91.5q0 -78 -48 -126t-124 -61l198 -325h-120l-180 315h-106v-315z" horiz-adv-x="614"/>
<glyph glyph-name="rcommaaccent" unicode="ŗ" d="M114 -235h-79l64 190h93zM81 372q0 19 -1 49t-3 53h89q2 -18 3 -41.5t1 -38.5h3q20 42 58.5 67.5t86.5 25.5q22 0 37 -4l-4 -87q-20 5 -43 5q-34 0 -59 -12.5t-41.5 -33.5t-24.5 -48.5t-8 -57.5v-249h-94v372z" horiz-adv-x="362"/>
<glyph glyph-name="Rcaron" unicode="Ř" d="M347 764h-107l-111 144h90l76 -99l76 99h88zM185 398h114q35 0 65 6t52.5 19.5t35.5 35t13 53.5t-13 53.5t-34.5 34.5t-50.5 18.5t-61 5.5h-121v-226zM185 0h-99v708h227q51 0 97 -10.5t80.5 -33.5t54.5 -60.5t20 -91.5q0 -78 -48 -126t-124 -61l198 -325h-120l-180 315 h-106v-315z" horiz-adv-x="614"/>
<glyph glyph-name="rcaron" unicode="ř" d="M266 564h-107l-111 144h90l76 -99l76 99h88zM81 372q0 19 -1 49t-3 53h89q2 -18 3 -41.5t1 -38.5h3q20 42 58.5 67.5t86.5 25.5q22 0 37 -4l-4 -87q-20 5 -43 5q-34 0 -59 -12.5t-41.5 -33.5t-24.5 -48.5t-8 -57.5v-249h-94v372z" horiz-adv-x="362"/>
<glyph glyph-name="Sacute" unicode="Ś" d="M306 764h-76l99 144h114zM438 577q-21 29 -57 47.5t-81 18.5q-24 0 -48.5 -6.5t-44.5 -21t-32.5 -36t-12.5 -51.5q0 -29 11.5 -48.5t31 -33t46 -23t56.5 -19.5q36 -11 73 -25t67 -37t49 -57.5t19 -87.5q0 -55 -20.5 -95.5t-54.5 -67t-78.5 -39.5t-91.5 -13 q-67 0 -129.5 26t-103.5 77l77 65q25 -37 67 -60t91 -23q25 0 50 7t45.5 22t33.5 37.5t13 54.5t-13.5 53.5t-36.5 36.5t-53.5 25.5t-64.5 21.5q-34 10 -67 24.5t-59 37t-42 55.5t-16 82q0 53 21.5 91t56 63t78 36.5t87.5 11.5q62 0 116 -22t87 -59z" horiz-adv-x="569"/>
<glyph glyph-name="sacute" unicode="ś" d="M236 564h-77l100 144h113zM337 354q-16 26 -45 42.5t-65 16.5q-16 0 -32 -3.5t-28.5 -11t-20 -19t-7.5 -28.5q0 -30 27 -44.5t81 -26.5q34 -8 63 -19t50.5 -27.5t33.5 -39.5t12 -54q0 -42 -16 -71t-42.5 -47.5t-60.5 -26.5t-70 -8q-54 0 -105.5 21t-85.5 64l67 57 q19 -28 52.5 -47t73.5 -19q18 0 34.5 3.5t30 11.5t21.5 21t8 33q0 33 -31.5 49t-92.5 30q-24 6 -48.5 14.5t-44.5 23.5t-32.5 37.5t-12.5 55.5q0 38 15.5 65.5t40.5 45t57 26t66 8.5q51 0 98.5 -20t73.5 -58z" horiz-adv-x="444"/>
<glyph glyph-name="Scircumflex" unicode="Ŝ" d="M469 764h-91l-75 99l-76 -99h-90l112 144h108zM438 577q-21 29 -57 47.5t-81 18.5q-24 0 -48.5 -6.5t-44.5 -21t-32.5 -36t-12.5 -51.5q0 -29 11.5 -48.5t31 -33t46 -23t56.5 -19.5q36 -11 73 -25t67 -37t49 -57.5t19 -87.5q0 -55 -20.5 -95.5t-54.5 -67t-78.5 -39.5 t-91.5 -13q-67 0 -129.5 26t-103.5 77l77 65q25 -37 67 -60t91 -23q25 0 50 7t45.5 22t33.5 37.5t13 54.5t-13.5 53.5t-36.5 36.5t-53.5 25.5t-64.5 21.5q-34 10 -67 24.5t-59 37t-42 55.5t-16 82q0 53 21.5 91t56 63t78 36.5t87.5 11.5q62 0 116 -22t87 -59z" horiz-adv-x="569"/>
<glyph glyph-name="scircumflex" unicode="ŝ" d="M399 564h-91l-75 99l-76 -99h-90l112 144h108zM337 354q-16 26 -45 42.5t-65 16.5q-16 0 -32 -3.5t-28.5 -11t-20 -19t-7.5 -28.5q0 -30 27 -44.5t81 -26.5q34 -8 63 -19t50.5 -27.5t33.5 -39.5t12 -54q0 -42 -16 -71t-42.5 -47.5t-60.5 -26.5t-70 -8q-54 0 -105.5 21 t-85.5 64l67 57q19 -28 52.5 -47t73.5 -19q18 0 34.5 3.5t30 11.5t21.5 21t8 33q0 33 -31.5 49t-92.5 30q-24 6 -48.5 14.5t-44.5 23.5t-32.5 37.5t-12.5 55.5q0 38 15.5 65.5t40.5 45t57 26t66 8.5q51 0 98.5 -20t73.5 -58z" horiz-adv-x="444"/>
<glyph glyph-name="Scedilla" unicode="Ş" d="M438 577q-21 29 -57 47.5t-81 18.5q-24 0 -48.5 -6.5t-44.5 -21t-32.5 -36t-12.5 -51.5q0 -29 11.5 -48.5t31 -33t46 -23t56.5 -19.5q36 -11 73 -25t67 -37t49 -57.5t19 -87.5q0 -50 -16.5 -87.5t-45 -63.5t-65.5 -41.5t-79 -20.5l-35 -53q7 2 13 2h14q17 0 33.5 -4 t30 -13t22 -24t8.5 -37q0 -26 -12 -43.5t-30.5 -28t-41 -14.5t-43.5 -4q-26 0 -54 6t-49 17l20 42q37 -17 77 -17q8 0 18.5 2t20 6.5t16 12.5t6.5 21q0 22 -17 30t-37 8q-9 0 -20 -2t-21 -5l-20 20l50 76q-64 2 -123.5 28t-97.5 75l77 65q25 -37 67 -60t91 -23q25 0 50 7 t45.5 22t33.5 37.5t13 54.5t-13.5 53.5t-36.5 36.5t-53.5 25.5t-64.5 21.5q-34 10 -67 24.5t-59 37t-42 55.5t-16 82q0 53 21.5 91t56 63t78 36.5t87.5 11.5q62 0 116 -22t87 -59z" horiz-adv-x="569"/>
<glyph glyph-name="scedilla" unicode="ş" d="M337 354q-16 26 -45 42.5t-65 16.5q-16 0 -32 -3.5t-28.5 -11t-20 -19t-7.5 -28.5q0 -30 27 -44.5t81 -26.5q34 -8 63 -19t50.5 -27.5t33.5 -39.5t12 -54q0 -38 -13.5 -65.5t-36 -46t-52.5 -28t-62 -12.5l-38 -57q7 2 13 2h14q17 0 33.5 -4t30 -13t22 -24t8.5 -37 q0 -26 -12 -43.5t-30.5 -28t-41 -14.5t-43.5 -4q-26 0 -54 6t-49 17l20 42q37 -17 77 -17q8 0 18.5 2t20 6.5t16 12.5t6.5 21q0 22 -17 30t-37 8q-9 0 -20 -2t-21 -5l-20 20l54 83q-48 4 -92 24.5t-74 58.5l67 57q19 -28 52.5 -47t73.5 -19q18 0 34.5 3.5t30 11.5t21.5 21 t8 33q0 33 -31.5 49t-92.5 30q-24 6 -48.5 14.5t-44.5 23.5t-32.5 37.5t-12.5 55.5q0 38 15.5 65.5t40.5 45t57 26t66 8.5q51 0 98.5 -20t73.5 -58z" horiz-adv-x="444"/>
<glyph glyph-name="Scaron" unicode="Š" d="M351 764h-107l-111 144h90l76 -99l76 99h88zM438 577q-21 29 -57 47.5t-81 18.5q-24 0 -48.5 -6.5t-44.5 -21t-32.5 -36t-12.5 -51.5q0 -29 11.5 -48.5t31 -33t46 -23t56.5 -19.5q36 -11 73 -25t67 -37t49 -57.5t19 -87.5q0 -55 -20.5 -95.5t-54.5 -67t-78.5 -39.5 t-91.5 -13q-67 0 -129.5 26t-103.5 77l77 65q25 -37 67 -60t91 -23q25 0 50 7t45.5 22t33.5 37.5t13 54.5t-13.5 53.5t-36.5 36.5t-53.5 25.5t-64.5 21.5q-34 10 -67 24.5t-59 37t-42 55.5t-16 82q0 53 21.5 91t56 63t78 36.5t87.5 11.5q62 0 116 -22t87 -59z" horiz-adv-x="569"/>
<glyph glyph-name="scaron" unicode="š" d="M284 564h-107l-111 144h90l76 -99l76 99h88zM337 354q-16 26 -45 42.5t-65 16.5q-16 0 -32 -3.5t-28.5 -11t-20 -19t-7.5 -28.5q0 -30 27 -44.5t81 -26.5q34 -8 63 -19t50.5 -27.5t33.5 -39.5t12 -54q0 -42 -16 -71t-42.5 -47.5t-60.5 -26.5t-70 -8q-54 0 -105.5 21 t-85.5 64l67 57q19 -28 52.5 -47t73.5 -19q18 0 34.5 3.5t30 11.5t21.5 21t8 33q0 33 -31.5 49t-92.5 30q-24 6 -48.5 14.5t-44.5 23.5t-32.5 37.5t-12.5 55.5q0 38 15.5 65.5t40.5 45t57 26t66 8.5q51 0 98.5 -20t73.5 -58z" horiz-adv-x="444"/>
<glyph glyph-name="Tcommaaccent" unicode="Ţ" d="M268 -69q7 2 13 2h14q17 0 33.5 -4t30 -13t22 -24t8.5 -37q0 -26 -12 -43.5t-30.5 -28t-41 -14.5t-43.5 -4q-26 0 -54 6t-49 17l20 42q37 -17 77 -17q8 0 18.5 2t20 6.5t16 12.5t6.5 21q0 22 -17 30t-37 8q-9 0 -20 -2t-21 -5l-20 20l62 94h-29v621h-227v87h553v-87h-227 v-621h-20z" horiz-adv-x="569"/>
<glyph glyph-name="tcommaaccent" unicode="ţ" d="M213 -69q7 2 13 2h14q18 0 34 -4t30 -13t22 -24t8 -37q0 -25 -12 -43t-30 -28t-42 -15q-22 -4 -43 -4q-26 0 -54 6t-49 17l20 42q37 -17 77 -17q9 0 19 2q10 3 20 7t16 12t6 21q0 22 -17 30t-37 8q-9 0 -20 -2t-21 -5l-20 20l58 88q13 -2 27 -2q11 0 22 1zM313 397v77 h-126v136h-93v-136h-91v-77h91v-257q0 -74 36 -111q28 -29 75 -35l4 6h50l-5 -7q10 1 20 3q20 4 38 9l-3 77q-12 -6 -27 -9t-28 -3q-35 0 -51 18t-16 62v247h126z" horiz-adv-x="329"/>
<glyph glyph-name="Tcaron" unicode="Ť" d="M336 764h-107l-111 144h90l76 -99l76 99h88zM334 0h-99v621h-227v87h553v-87h-227v-621z" horiz-adv-x="569"/>
<glyph glyph-name="tcaron" unicode="ť" d="M297 541h-79l64 190h93zM313 397h-126v-247q0 -43 16 -61.5t51 -18.5q13 0 28 3t27 9l3 -77q-17 -6 -37.5 -9.5t-42.5 -3.5q-67 0 -102.5 37t-35.5 111v257h-91v77h91v136h93v-136h126v-77z" horiz-adv-x="329"/>
<glyph glyph-name="Tbar" unicode="Ŧ" d="M235 525v96h-227v87h553v-87h-227v-96h163v-63h-163v-462h-99v462h-163v63h163z" horiz-adv-x="569"/>
<glyph glyph-name="tbar" unicode="ŧ" d="M94 304v93h-91v77h91v136h93v-136h126v-77h-126v-93h112v-63h-112v-91q0 -43 16 -61.5t51 -18.5q13 0 28 3t27 9l3 -77q-17 -6 -37.5 -9.5t-42.5 -3.5q-67 0 -102.5 37t-35.5 111v101h-82v63h82z" horiz-adv-x="329"/>
<glyph glyph-name="Utilde" unicode="Ũ" d="M179 772q4 22 10.5 42.5t18.5 37t29.5 26.5t43.5 10q19 0 38.5 -6t36.5 -14q20 -9 36.5 -15.5t30.5 -6.5q22 0 32.5 14.5t15.5 31.5h54q-4 -22 -10.5 -42.5t-18.5 -37t-30 -26.5t-43 -10q-19 0 -39 6.5t-38 14.5q-18 9 -34.5 15t-30.5 6q-21 0 -31.5 -14.5t-15.5 -31.5 h-55zM356 -18q-70 0 -122 23.5t-86 62.5t-50.5 89.5t-16.5 104.5v446h99v-440q0 -36 9 -71.5t29.5 -63.5t54 -45t83.5 -17q49 0 83 17t54.5 45t29.5 63.5t9 71.5v440h99v-446q0 -54 -16.5 -104.5t-50.5 -89.5t-86 -62.5t-122 -23.5z" horiz-adv-x="712"/>
<glyph glyph-name="utilde" unicode="ũ" d="M116 572q4 22 10.5 42.5t18.5 37t29.5 26.5t43.5 10q19 0 38.5 -6t36.5 -14q20 -9 36.5 -15.5t30.5 -6.5q22 0 32.5 14.5t15.5 31.5h54q-4 -22 -10.5 -42.5t-18.5 -37t-30 -26.5t-43 -10q-19 0 -39 6.5t-38 14.5q-18 9 -34.5 15t-30.5 6q-21 0 -31.5 -14.5t-15.5 -31.5 h-55zM415 0q-2 18 -3 40.5t-1 37.5h-2q-18 -38 -60.5 -64.5t-94.5 -26.5q-46 0 -79.5 15t-55 41.5t-32 61.5t-10.5 75v294h94v-262q0 -29 4.5 -55.5t16.5 -46.5t33 -32t54 -12q57 0 92 42.5t35 113.5v252h94v-372q0 -19 1 -49t3 -53h-89z" horiz-adv-x="582"/>
<glyph glyph-name="Umacron" unicode="Ū" d="M500 797h-296v67h296v-67zM356 -18q-70 0 -122 23.5t-86 62.5t-50.5 89.5t-16.5 104.5v446h99v-440q0 -36 9 -71.5t29.5 -63.5t54 -45t83.5 -17q49 0 83 17t54.5 45t29.5 63.5t9 71.5v440h99v-446q0 -54 -16.5 -104.5t-50.5 -89.5t-86 -62.5t-122 -23.5z" horiz-adv-x="712"/>
<glyph glyph-name="umacron" unicode="ū" d="M437 597h-296v67h296v-67zM415 0q-2 18 -3 40.5t-1 37.5h-2q-18 -38 -60.5 -64.5t-94.5 -26.5q-46 0 -79.5 15t-55 41.5t-32 61.5t-10.5 75v294h94v-262q0 -29 4.5 -55.5t16.5 -46.5t33 -32t54 -12q57 0 92 42.5t35 113.5v252h94v-372q0 -19 1 -49t3 -53h-89z" horiz-adv-x="582"/>
<glyph glyph-name="Ubreve" unicode="Ŭ" d="M516 908q-6 -69 -49.5 -103.5t-109.5 -34.5q-67 0 -110.5 34.5t-48.5 103.5h56q7 -38 36 -55t67 -17q41 0 68 15.5t36 56.5h55zM356 -18q-70 0 -122 23.5t-86 62.5t-50.5 89.5t-16.5 104.5v446h99v-440q0 -36 9 -71.5t29.5 -63.5t54 -45t83.5 -17q49 0 83 17t54.5 45 t29.5 63.5t9 71.5v440h99v-446q0 -54 -16.5 -104.5t-50.5 -89.5t-86 -62.5t-122 -23.5z" horiz-adv-x="712"/>
<glyph glyph-name="ubreve" unicode="ŭ" d="M449 708q-6 -69 -49.5 -103.5t-109.5 -34.5q-67 0 -110.5 34.5t-48.5 103.5h56q7 -38 36 -55t67 -17q41 0 68 15.5t36 56.5h55zM415 0q-2 18 -3 40.5t-1 37.5h-2q-18 -38 -60.5 -64.5t-94.5 -26.5q-46 0 -79.5 15t-55 41.5t-32 61.5t-10.5 75v294h94v-262 q0 -29 4.5 -55.5t16.5 -46.5t33 -32t54 -12q57 0 92 42.5t35 113.5v252h94v-372q0 -19 1 -49t3 -53h-89z" horiz-adv-x="582"/>
<glyph glyph-name="Uring" unicode="Ů" d="M412 853q0 25 -17.5 41.5t-42.5 16.5t-42 -17t-17 -42q0 -24 17 -40.5t42 -16.5t42.5 16.5t17.5 41.5zM453 853q0 -43 -29.5 -71t-71.5 -28q-21 0 -39 7.5t-31.5 20.5t-21.5 31t-8 39q0 43 29 71t71 28t71.5 -28t29.5 -70zM356 -18q-70 0 -122 23.5t-86 62.5t-50.5 89.5 t-16.5 104.5v446h99v-440q0 -36 9 -71.5t29.5 -63.5t54 -45t83.5 -17q49 0 83 17t54.5 45t29.5 63.5t9 71.5v440h99v-446q0 -54 -16.5 -104.5t-50.5 -89.5t-86 -62.5t-122 -23.5z" horiz-adv-x="712"/>
<glyph glyph-name="uring" unicode="ů" d="M347 653q0 24 -17.5 40t-41.5 16q-23 0 -40.5 -16t-17.5 -40t17.5 -40.5t40.5 -16.5q24 0 41.5 16t17.5 41zM389 653q0 -43 -29.5 -71t-71.5 -28q-21 0 -39 7.5t-31.5 20.5t-21.5 31t-8 39q0 43 29 71t71 28t71.5 -28t29.5 -70zM415 0q-2 18 -3 40.5t-1 37.5h-2 q-18 -38 -60.5 -64.5t-94.5 -26.5q-46 0 -79.5 15t-55 41.5t-32 61.5t-10.5 75v294h94v-262q0 -29 4.5 -55.5t16.5 -46.5t33 -32t54 -12q57 0 92 42.5t35 113.5v252h94v-372q0 -19 1 -49t3 -53h-89z" horiz-adv-x="582"/>
<glyph glyph-name="Uhungarumlaut" unicode="Ű" d="M474 764h-77l100 144h113zM291 764h-77l100 144h114zM356 -18q-70 0 -122 23.5t-86 62.5t-50.5 89.5t-16.5 104.5v446h99v-440q0 -36 9 -71.5t29.5 -63.5t54 -45t83.5 -17q49 0 83 17t54.5 45t29.5 63.5t9 71.5v440h99v-446q0 -54 -16.5 -104.5t-50.5 -89.5t-86 -62.5 t-122 -23.5z" horiz-adv-x="712"/>
<glyph glyph-name="uhungarumlaut" unicode="ű" d="M414 564h-77l100 144h113zM231 564h-77l100 144h114zM415 0q-2 18 -3 40.5t-1 37.5h-2q-18 -38 -60.5 -64.5t-94.5 -26.5q-46 0 -79.5 15t-55 41.5t-32 61.5t-10.5 75v294h94v-262q0 -29 4.5 -55.5t16.5 -46.5t33 -32t54 -12q57 0 92 42.5t35 113.5v252h94v-372 q0 -19 1 -49t3 -53h-89z" horiz-adv-x="582"/>
<glyph glyph-name="Uogonek" unicode="Ų" d="M470 -189q-20 -17 -44.5 -27t-50.5 -10q-19 0 -36.5 6t-31 17t-21.5 27.5t-8 36.5q0 34 20.5 65.5t46.5 56.5q-68 2 -117.5 25.5t-82 62t-48.5 88t-16 103.5v446h99v-440q0 -36 9 -71.5t29.5 -63.5t54 -45t83.5 -17q49 0 83 17t54.5 45t29.5 63.5t9 71.5v440h99v-446 q0 -49 -13.5 -95.5t-41.5 -84t-70.5 -63t-99.5 -33.5q-23 -25 -41 -52t-18 -53q0 -20 14 -33.5t34 -13.5q14 0 28 6t25 16z" horiz-adv-x="712"/>
<glyph glyph-name="uogonek" unicode="ų" d="M511 -189q-20 -17 -44.5 -27t-50.5 -10q-19 0 -36.5 6t-31 17t-21.5 27.5t-8 36.5q0 21 9 42t23 39.5t30.5 35t32.5 28.5q-2 17 -2.5 37.5t-0.5 34.5h-2q-18 -38 -60.5 -64.5t-94.5 -26.5q-46 0 -79.5 15t-55 41.5t-32 61.5t-10.5 75v294h94v-262q0 -29 4.5 -55.5 t16.5 -46.5t33 -32t54 -12q57 0 92 42.5t35 113.5v252h94v-372q0 -19 1 -49t3 -53h-43q-28 -27 -50.5 -58t-22.5 -61q0 -20 14 -33.5t34 -13.5q14 0 28 6t25 16z" horiz-adv-x="582"/>
<glyph glyph-name="Wcircumflex" unicode="Ŵ" d="M662 764h-91l-75 99l-76 -99h-90l112 144h108zM273 144h2l166 564h109l165 -564h2l156 564h105l-208 -708h-103l-172 569h-2l-172 -569h-103l-208 708h107z" horiz-adv-x="988"/>
<glyph glyph-name="wcircumflex" unicode="ŵ" d="M552 564h-91l-75 99l-76 -99h-90l112 144h108zM116 474l107 -362h2l113 362h99l115 -362h2l107 362h99l-157 -474h-98l-117 356h-2l-116 -356h-98l-158 474h102z" horiz-adv-x="773"/>
<glyph glyph-name="Ycircumflex" unicode="Ŷ" d="M480 764h-91l-75 99l-76 -99h-90l112 144h108zM362 0h-100v306l-265 402h122l196 -320l197 320h115l-265 -402v-306z" horiz-adv-x="624"/>
<glyph glyph-name="ycircumflex" unicode="ŷ" d="M426 564h-91l-75 99l-76 -99h-90l112 144h108zM261 102h2l131 372h100l-230 -586q-12 -30 -26 -53.5t-33 -40t-44.5 -25.5t-60.5 -9q-15 0 -30.5 1.5t-31.5 5.5l9 83q24 -8 47 -8q37 0 55 20.5t33 58.5l30 79l-203 474h105z" horiz-adv-x="504"/>
<glyph glyph-name="Ydieresis" unicode="Ÿ" d="M350 845q0 24 17.5 42.5t44.5 18.5q26 0 44 -17.5t18 -43.5q0 -25 -18 -42.5t-44 -17.5q-27 0 -44.5 18.5t-17.5 41.5zM156 845q0 24 17.5 42.5t44.5 18.5q26 0 44 -17.5t18 -43.5q0 -25 -18 -42.5t-44 -17.5q-27 0 -44.5 18.5t-17.5 41.5zM362 0h-100v306l-265 402h122 l196 -320l197 320h115l-265 -402v-306z" horiz-adv-x="624"/>
<glyph glyph-name="Zacute" unicode="Ź" d="M302 764h-76l99 144h114zM553 621l-400 -533h406v-88h-526v87l399 534h-391v87h512v-87z" horiz-adv-x="592"/>
<glyph glyph-name="zacute" unicode="ź" d="M241 564h-77l100 144h113zM419 397l-270 -318h281v-79h-397v77l268 320h-255v77h373v-77z" horiz-adv-x="462"/>
<glyph glyph-name="Zdotaccent" unicode="Ż" d="M359 845q0 -26 -18.5 -43t-44.5 -17t-44 17.5t-18 42.5q0 26 18 43.5t44 17.5t44.5 -17.5t18.5 -43.5zM553 621l-400 -533h406v-88h-526v87l399 534h-391v87h512v-87z" horiz-adv-x="592"/>
<glyph glyph-name="zdotaccent" unicode="ż" d="M301 645q0 -26 -18.5 -43t-44.5 -17t-44 17.5t-18 42.5q0 26 18 43.5t44 17.5t44.5 -17.5t18.5 -43.5zM419 397l-270 -318h281v-79h-397v77l268 320h-255v77h373v-77z" horiz-adv-x="462"/>
<glyph glyph-name="Zcaron" unicode="Ž" d="M351 764h-107l-111 144h90l76 -99l76 99h88zM553 621l-400 -533h406v-88h-526v87l399 534h-391v87h512v-87z" horiz-adv-x="592"/>
<glyph glyph-name="zcaron" unicode="ž" d="M290 564h-107l-111 144h90l76 -99l76 99h88zM419 397l-270 -318h281v-79h-397v77l268 320h-255v77h373v-77z" horiz-adv-x="462"/>
<glyph glyph-name="florin" unicode="ƒ" d="M472 350h-129l-62 -319q-7 -38 -20 -69t-33 -53.5t-49 -35t-69 -12.5q-24 0 -48 6t-44 18l38 71q11 -7 24.5 -10.5t25.5 -3.5q21 0 35.5 8.5t23.5 23t14.5 33.5t9.5 40l58 303h-111v73h125l25 127q6 34 17.5 65t31 54t48 37t69.5 14q29 0 55.5 -8t50.5 -22l-40 -71 q-13 8 -27 12.5t-29 4.5q-23 0 -38 -11t-24.5 -27t-14.5 -35.5t-8 -35.5l-20 -104h115v-73z" horiz-adv-x="595"/>
<glyph glyph-name="Ohorn" unicode="Ơ" d="M157 355q0 -59 19 -111t53.5 -90.5t84 -60.5t110.5 -22t111 22t85 60.5t54 90.5t19 111q0 58 -19 109.5t-54 90.5t-84.5 61.5t-111.5 22.5t-111 -22.5t-84 -61.5t-53.5 -90.5t-18.5 -109.5zM829 742q0 -62 -33.5 -94.5t-93.5 -34.5q48 -51 73 -117t25 -141 q0 -82 -28.5 -150.5t-78.5 -118t-119 -77t-150 -27.5t-149.5 27.5t-118.5 77t-78 118t-28 150.5q0 83 28 151.5t78 117t118.5 75.5t149.5 27q52 0 88.5 -9t64 -19.5t49.5 -19.5t46 -9q42 0 59 19t17 54q0 15 -4.5 31.5t-11.5 27.5l81 21q16 -32 16 -80z"/>
<glyph glyph-name="ohorn" unicode="ơ" d="M147 238q0 -34 10.5 -65t30.5 -55t49.5 -38t67.5 -14t67.5 14t49.5 38t30.5 55t10.5 65t-10.5 65t-30.5 54.5t-49.5 37.5t-67.5 14t-67.5 -14t-49.5 -37.5t-30.5 -54.5t-10.5 -65zM633 525q0 -62 -33 -94.5t-93 -34.5q27 -34 40.5 -74t13.5 -84q0 -55 -19.5 -101 t-54 -79.5t-81.5 -52t-101 -18.5t-101 18.5t-81 52t-53.5 79.5t-19.5 101t19.5 100.5t53.5 78.5t81 51.5t101 18.5q33 0 57 -5.5t43 -12.5t35.5 -12.5t34.5 -5.5q42 0 59.5 19.5t17.5 54.5q0 15 -4.5 31.5t-11.5 27.5l81 21q16 -32 16 -80z" horiz-adv-x="617"/>
<glyph glyph-name="Uhorn" unicode="Ư" d="M631 262q0 -54 -16.5 -104.5t-50.5 -89.5t-86 -62.5t-122 -23.5t-122 23.5t-86 62.5t-50.5 89.5t-16.5 104.5v446h99v-440q0 -37 9 -72.5t29.5 -63t54 -44.5t83.5 -17q49 0 83 17t54.5 44.5t29.5 63t9 72.5v440h67q42 0 59.5 19t17.5 55q0 15 -4.5 31t-11.5 28l81 21 q16 -33 16 -80q0 -63 -33.5 -95.5t-92.5 -34.5v-390z" horiz-adv-x="722"/>
<glyph glyph-name="uhorn" unicode="ư" d="M415 0q-2 18 -3 40.5t-1 37.5h-2q-18 -38 -60.5 -64.5t-94.5 -26.5q-46 0 -79.5 15t-55 41.5t-32 61.5t-10.5 75v294h94v-262q0 -29 4.5 -55.5t16.5 -46.5t33 -32t54 -12q57 0 92 42.5t35 113.5v252h62q42 0 60 19t18 55q0 15 -4.5 31t-11.5 28l81 21q16 -33 16 -80 q0 -63 -33.5 -95.5t-93.5 -34.5v-316q0 -19 1 -49t3 -53h-89z" horiz-adv-x="597"/>
<glyph glyph-name="clickdental" unicode="ǀ" d="M152 750v-1000h-82v1000h82z" horiz-adv-x="222"/>
<glyph glyph-name="clicklateral" unicode="ǁ" d="M152 750v-1000h-82v1000h82zM374 750v-1000h-82v1000h82z" horiz-adv-x="444"/>
<glyph glyph-name="clickretroflex" unicode="ǃ" d="M234 60q0 -26 -19 -46t-48 -20q-28 0 -47.5 19.5t-19.5 45.5q0 27 19 46.5t48 19.5t48 -19t19 -46zM216 207h-99v501h99v-501z" horiz-adv-x="334"/>
<glyph glyph-name="DZcaron" unicode="Ǆ" d="M185 87h124q64 0 118.5 18t94 52t61.5 84t22 113q0 66 -22 116t-61.5 83.5t-94 51t-118.5 17.5h-124v-535zM86 708h243q68 0 136 -20t123 -63t89 -110t34 -161q0 -91 -34 -157.5t-89 -110t-123 -65t-136 -21.5h-243v708zM1314 621l-400 -533h406v-88h-526v87l399 534 h-391v87h512v-87zM1110 783h-107l-111 144h90l76 -99l76 99h88z" horiz-adv-x="1603"/>
<glyph glyph-name="Dzcaron" unicode="ǅ" d="M185 87h124q64 0 118.5 18t94 52t61.5 84t22 113q0 66 -22 116t-61.5 83.5t-94 51t-118.5 17.5h-124v-535zM86 708h243q68 0 136 -20t123 -63t89 -110t34 -161q0 -91 -34 -157.5t-89 -110t-123 -65t-136 -21.5h-243v708zM1180 397l-270 -318h281v-79h-397v77l268 320 h-255v77h373v-77zM1045 549h-107l-111 144h90l76 -99l76 99h88z" horiz-adv-x="1473"/>
<glyph glyph-name="dzcaron" unicode="ǆ" d="M147 238q0 -33 10 -64t30 -55t49 -38.5t68 -14.5q36 0 65.5 14t50.5 37.5t32.5 54.5t11.5 65t-11.5 65t-32.5 55t-50.5 38t-65.5 14q-39 0 -68 -14t-49 -38t-30 -55t-10 -64zM459 75q-27 -43 -73.5 -65.5t-97.5 -22.5q-55 0 -99 19.5t-75 53.5t-48 80t-17 98t17 97.5 t48.5 79.5t75.5 53t97 19q58 0 101 -24.5t68 -59.5h2v353h94v-756h-91v75h-2zM1054 397l-270 -318h281v-79h-397v77l268 320h-255v77h373v-77zM919 549h-107l-111 144h90l76 -99l76 99h88z" horiz-adv-x="1347"/>
<glyph glyph-name="LJ" unicode="Ǉ" d="M185 88h316v-88h-415v708h99v-620zM618 158q8 -38 35 -63t67 -25q32 0 52.5 12t32.5 32.5t17 48t5 58.5v487h99v-491q0 -37 -8 -78t-30 -76t-61.5 -58t-101.5 -23q-81 0 -132 42t-67 108z" horiz-adv-x="1006"/>
<glyph glyph-name="Lj" unicode="ǈ" d="M185 88h316v-88h-415v708h99v-620zM704 645q0 -26 -18.5 -43t-44.5 -17t-44.5 17.5t-18.5 42.5q0 26 18.5 43.5t44.5 17.5t44.5 -17.5t18.5 -43.5zM490 -154q20 -5 38 -5q21 0 34 8t20 21.5t9.5 32t2.5 39.5v532h94v-535q0 -36 -6.5 -68t-23.5 -57t-47 -39.5t-77 -14.5 q-13 0 -28 2t-26 4z" horiz-adv-x="771"/>
<glyph glyph-name="lj" unicode="ǉ" d="M177 0h-94v756h94v-756zM453 645q0 -26 -18.5 -43t-44.5 -17t-44.5 17.5t-18.5 42.5q0 26 18.5 43.5t44.5 17.5t44.5 -17.5t18.5 -43.5zM239 -154q20 -5 38 -5q21 0 34 8t20 21.5t9.5 32t2.5 39.5v532h94v-535q0 -36 -6.5 -68t-23.5 -57t-47 -39.5t-77 -14.5q-13 0 -28 2 t-26 4z" horiz-adv-x="520"/>
<glyph glyph-name="NJ" unicode="Ǌ" d="M585 142h2v566h99v-708h-125l-374 578h-2v-578h-99v708h129zM879 158q8 -38 35 -63t67 -25q32 0 52.5 12t32.5 32.5t17 48t5 58.5v487h99v-491q0 -37 -8 -78t-30 -76t-61.5 -58t-101.5 -23q-81 0 -132 42t-67 108z" horiz-adv-x="1267"/>
<glyph glyph-name="Nj" unicode="ǋ" d="M585 142h2v566h99v-708h-125l-374 578h-2v-578h-99v708h129zM965 645q0 -26 -18.5 -43t-44.5 -17t-44.5 17.5t-18.5 42.5q0 26 18.5 43.5t44.5 17.5t44.5 -17.5t18.5 -43.5zM751 -154q20 -5 38 -5q21 0 34 8t20 21.5t9.5 32t2.5 39.5v532h94v-535q0 -36 -6.5 -68 t-23.5 -57t-47 -39.5t-77 -14.5q-13 0 -28 2t-26 4z" horiz-adv-x="1032"/>
<glyph glyph-name="nj" unicode="ǌ" d="M166 474q2 -18 3 -40.5t1 -37.5h3q9 19 24.5 35.5t35.5 29t44 19.5t50 7q46 0 79 -15.5t55 -41.5t32.5 -61t10.5 -75v-294h-94v263q0 29 -4.5 55t-16.5 46t-33 32t-54 12q-56 0 -91.5 -42.5t-35.5 -113.5v-252h-94v372q0 19 -1 49t-3 53h89zM775 645q0 -26 -18.5 -43 t-44.5 -17t-44.5 17.5t-18.5 42.5q0 26 18.5 43.5t44.5 17.5t44.5 -17.5t18.5 -43.5zM561 -154q20 -5 38 -5q21 0 34 8t20 21.5t9.5 32t2.5 39.5v532h94v-535q0 -36 -6.5 -68t-23.5 -57t-47 -39.5t-77 -14.5q-13 0 -28 2t-26 4z" horiz-adv-x="842"/>
<glyph glyph-name="Acaron" unicode="Ǎ" d="M221 261h265l-132 332zM115 0h-110l307 708h90l304 -708h-112l-72 174h-336zM408 783h-107l-111 144h90l76 -99l76 99h88z" horiz-adv-x="711"/>
<glyph glyph-name="acaron" unicode="ǎ" d="M353 226q-35 0 -72.5 -3t-68 -12t-50.5 -27t-20 -48q0 -21 8.5 -35t22.5 -23t31 -12.5t35 -3.5q66 0 101.5 39.5t35.5 99.5v25h-23zM376 307q0 53 -32 78.5t-85 25.5q-40 0 -75.5 -15.5t-59.5 -39.5l-50 60q35 33 85.5 52t108.5 19q51 0 88.5 -14.5t61.5 -39.5t36 -59 t12 -73v-207q0 -24 1.5 -50.5t5.5 -43.5h-85q-8 34 -8 68h-3q-26 -38 -65.5 -59t-93.5 -21q-28 0 -58.5 7.5t-55.5 24.5t-41.5 45t-16.5 69q0 54 29 85.5t76 48t106 21.5t119 5v13zM312 562h-107l-111 144h90l76 -99l76 99h88z" horiz-adv-x="542"/>
<glyph glyph-name="Icaron" unicode="Ǐ" d="M185 0h-99v708h99v-708zM188 783h-107l-111 144h90l76 -99l76 99h88z" horiz-adv-x="271"/>
<glyph glyph-name="icaron" unicode="ǐ" d="M176 0h-94v474h94v-474zM182 549h-107l-111 144h90l76 -99l76 99h88z" horiz-adv-x="259"/>
<glyph glyph-name="Ocaron" unicode="Ǒ" d="M693 355q0 58 -19 109.5t-54 90.5t-84.5 61.5t-111.5 22.5q-61 0 -110.5 -22.5t-84 -61.5t-53.5 -90.5t-19 -109.5q0 -59 19 -111t54 -90.5t84 -60.5t110 -22t111 22t85 60.5t54 90.5t19 111zM800 355q0 -82 -28.5 -150.5t-78.5 -118t-119 -77t-150 -27.5t-149.5 27.5 t-118.5 77t-78 118t-28 150.5q0 83 28 151.5t78 117t118.5 75.5t149.5 27t150 -27t119 -75.5t78.5 -117t28.5 -151.5zM478 801h-107l-111 144h90l76 -99l76 99h88z"/>
<glyph glyph-name="ocaron" unicode="ǒ" d="M463 238q0 34 -10.5 65t-30.5 54.5t-49.5 37.5t-67.5 14t-67.5 -14t-49.5 -37.5t-30.5 -54.5t-10.5 -65t10.5 -65t30.5 -55t49.5 -38t67.5 -14t67.5 14t49.5 38t30.5 55t10.5 65zM561 238q0 -55 -19.5 -101t-54 -79.5t-81.5 -52t-101 -18.5t-101 18.5t-81 52t-53.5 79.5 t-19.5 101t19.5 100.5t53.5 78.5t81 51.5t101 18.5t101 -18.5t81.5 -51.5t54 -78.5t19.5 -100.5zM358 562h-107l-111 144h90l76 -99l76 99h88z" horiz-adv-x="610"/>
<glyph glyph-name="Ucaron" unicode="Ǔ" d="M356 -18q-70 0 -122 23.5t-86 62.5t-50.5 89.5t-16.5 104.5v446h99v-440q0 -36 9 -71.5t29.5 -63.5t54 -45t83.5 -17q49 0 83 17t54.5 45t29.5 63.5t9 71.5v440h99v-446q0 -54 -16.5 -104.5t-50.5 -89.5t-86 -62.5t-122 -23.5zM409 783h-107l-111 144h90l76 -99l76 99h88 z" horiz-adv-x="712"/>
<glyph glyph-name="ucaron" unicode="ǔ" d="M415 0q-2 18 -3 40.5t-1 37.5h-2q-18 -38 -60.5 -64.5t-94.5 -26.5q-46 0 -79.5 15t-55 41.5t-32 61.5t-10.5 75v294h94v-262q0 -29 4.5 -55.5t16.5 -46.5t33 -32t54 -12q57 0 92 42.5t35 113.5v252h94v-372q0 -19 1 -49t3 -53h-89zM343 549h-107l-111 144h90l76 -99 l76 99h88z" horiz-adv-x="582"/>
<glyph glyph-name="Udieresismacron" unicode="Ǖ" d="M356 -18q-70 0 -122 23.5t-86 62.5t-50.5 89.5t-16.5 104.5v446h99v-440q0 -36 9 -71.5t29.5 -63.5t54 -45t83.5 -17q49 0 83 17t54.5 45t29.5 63.5t9 71.5v440h99v-446q0 -54 -16.5 -104.5t-50.5 -89.5t-86 -62.5t-122 -23.5zM391 843q0 24 17.5 42.5t44.5 18.5 q26 0 44 -17.5t18 -43.5q0 -25 -18 -42.5t-44 -17.5q-27 0 -44.5 18.5t-17.5 41.5zM197 843q0 24 17.5 42.5t44.5 18.5q26 0 44 -17.5t18 -43.5q0 -25 -18 -42.5t-44 -17.5q-27 0 -44.5 18.5t-17.5 41.5zM504 979h-296v67h296v-67z" horiz-adv-x="712"/>
<glyph glyph-name="udieresismacron" unicode="ǖ" d="M415 0q-2 18 -3 40.5t-1 37.5h-2q-18 -38 -60.5 -64.5t-94.5 -26.5q-46 0 -79.5 15t-55 41.5t-32 61.5t-10.5 75v294h94v-262q0 -29 4.5 -55.5t16.5 -46.5t33 -32t54 -12q57 0 92 42.5t35 113.5v252h94v-372q0 -19 1 -49t3 -53h-89zM325 609q0 24 17.5 42.5t44.5 18.5 q26 0 44 -17.5t18 -43.5q0 -25 -18 -42.5t-44 -17.5q-27 0 -44.5 18.5t-17.5 41.5zM131 609q0 24 17.5 42.5t44.5 18.5q26 0 44 -17.5t18 -43.5q0 -25 -18 -42.5t-44 -17.5q-27 0 -44.5 18.5t-17.5 41.5zM438 745h-296v67h296v-67z" horiz-adv-x="582"/>
<glyph glyph-name="Udieresisacute" unicode="Ǘ" d="M356 -18q-70 0 -122 23.5t-86 62.5t-50.5 89.5t-16.5 104.5v446h99v-440q0 -36 9 -71.5t29.5 -63.5t54 -45t83.5 -17q49 0 83 17t54.5 45t29.5 63.5t9 71.5v440h99v-446q0 -54 -16.5 -104.5t-50.5 -89.5t-86 -62.5t-122 -23.5zM391 843q0 24 17.5 42.5t44.5 18.5 q26 0 44 -17.5t18 -43.5q0 -25 -18 -42.5t-44 -17.5q-27 0 -44.5 18.5t-17.5 41.5zM197 843q0 24 17.5 42.5t44.5 18.5q26 0 44 -17.5t18 -43.5q0 -25 -18 -42.5t-44 -17.5q-27 0 -44.5 18.5t-17.5 41.5zM327 979h-77l100 144h113z" horiz-adv-x="712"/>
<glyph glyph-name="udieresisacute" unicode="ǘ" d="M415 0q-2 18 -3 40.5t-1 37.5h-2q-18 -38 -60.5 -64.5t-94.5 -26.5q-46 0 -79.5 15t-55 41.5t-32 61.5t-10.5 75v294h94v-262q0 -29 4.5 -55.5t16.5 -46.5t33 -32t54 -12q57 0 92 42.5t35 113.5v252h94v-372q0 -19 1 -49t3 -53h-89zM325 609q0 24 17.5 42.5t44.5 18.5 q26 0 44 -17.5t18 -43.5q0 -25 -18 -42.5t-44 -17.5q-27 0 -44.5 18.5t-17.5 41.5zM131 609q0 24 17.5 42.5t44.5 18.5q26 0 44 -17.5t18 -43.5q0 -25 -18 -42.5t-44 -17.5q-27 0 -44.5 18.5t-17.5 41.5zM261 745h-77l100 144h113z" horiz-adv-x="582"/>
<glyph glyph-name="Udieresiscaron" unicode="Ǚ" d="M356 -18q-70 0 -122 23.5t-86 62.5t-50.5 89.5t-16.5 104.5v446h99v-440q0 -36 9 -71.5t29.5 -63.5t54 -45t83.5 -17q49 0 83 17t54.5 45t29.5 63.5t9 71.5v440h99v-446q0 -54 -16.5 -104.5t-50.5 -89.5t-86 -62.5t-122 -23.5zM391 843q0 24 17.5 42.5t44.5 18.5 q26 0 44 -17.5t18 -43.5q0 -25 -18 -42.5t-44 -17.5q-27 0 -44.5 18.5t-17.5 41.5zM197 843q0 24 17.5 42.5t44.5 18.5q26 0 44 -17.5t18 -43.5q0 -25 -18 -42.5t-44 -17.5q-27 0 -44.5 18.5t-17.5 41.5zM409 979h-107l-111 144h90l76 -99l76 99h88z" horiz-adv-x="712"/>
<glyph glyph-name="udieresiscaron" unicode="ǚ" d="M415 0q-2 18 -3 40.5t-1 37.5h-2q-18 -38 -60.5 -64.5t-94.5 -26.5q-46 0 -79.5 15t-55 41.5t-32 61.5t-10.5 75v294h94v-262q0 -29 4.5 -55.5t16.5 -46.5t33 -32t54 -12q57 0 92 42.5t35 113.5v252h94v-372q0 -19 1 -49t3 -53h-89zM325 609q0 24 17.5 42.5t44.5 18.5 q26 0 44 -17.5t18 -43.5q0 -25 -18 -42.5t-44 -17.5q-27 0 -44.5 18.5t-17.5 41.5zM131 609q0 24 17.5 42.5t44.5 18.5q26 0 44 -17.5t18 -43.5q0 -25 -18 -42.5t-44 -17.5q-27 0 -44.5 18.5t-17.5 41.5zM343 745h-107l-111 144h90l76 -99l76 99h88z" horiz-adv-x="582"/>
<glyph glyph-name="Udieresisgrave" unicode="Ǜ" d="M356 -18q-70 0 -122 23.5t-86 62.5t-50.5 89.5t-16.5 104.5v446h99v-440q0 -36 9 -71.5t29.5 -63.5t54 -45t83.5 -17q49 0 83 17t54.5 45t29.5 63.5t9 71.5v440h99v-446q0 -54 -16.5 -104.5t-50.5 -89.5t-86 -62.5t-122 -23.5zM391 843q0 24 17.5 42.5t44.5 18.5 q26 0 44 -17.5t18 -43.5q0 -25 -18 -42.5t-44 -17.5q-27 0 -44.5 18.5t-17.5 41.5zM197 843q0 24 17.5 42.5t44.5 18.5q26 0 44 -17.5t18 -43.5q0 -25 -18 -42.5t-44 -17.5q-27 0 -44.5 18.5t-17.5 41.5zM250 1123h113l100 -144h-77z" horiz-adv-x="712"/>
<glyph glyph-name="udieresisgrave" unicode="ǜ" d="M415 0q-2 18 -3 40.5t-1 37.5h-2q-18 -38 -60.5 -64.5t-94.5 -26.5q-46 0 -79.5 15t-55 41.5t-32 61.5t-10.5 75v294h94v-262q0 -29 4.5 -55.5t16.5 -46.5t33 -32t54 -12q57 0 92 42.5t35 113.5v252h94v-372q0 -19 1 -49t3 -53h-89zM325 609q0 24 17.5 42.5t44.5 18.5 q26 0 44 -17.5t18 -43.5q0 -25 -18 -42.5t-44 -17.5q-27 0 -44.5 18.5t-17.5 41.5zM131 609q0 24 17.5 42.5t44.5 18.5q26 0 44 -17.5t18 -43.5q0 -25 -18 -42.5t-44 -17.5q-27 0 -44.5 18.5t-17.5 41.5zM184 889h113l100 -144h-77z" horiz-adv-x="582"/>
<glyph glyph-name="Adieresismacron" unicode="Ǟ" d="M221 261h265l-132 332zM115 0h-110l307 708h90l304 -708h-112l-72 174h-336zM390 843q0 24 17.5 42.5t44.5 18.5q26 0 44 -17.5t18 -43.5q0 -25 -18 -42.5t-44 -17.5q-27 0 -44.5 18.5t-17.5 41.5zM196 843q0 24 17.5 42.5t44.5 18.5q26 0 44 -17.5t18 -43.5 q0 -25 -18 -42.5t-44 -17.5q-27 0 -44.5 18.5t-17.5 41.5zM503 979h-296v67h296v-67z" horiz-adv-x="711"/>
<glyph glyph-name="adieresismacron" unicode="ǟ" d="M353 226q-35 0 -72.5 -3t-68 -12t-50.5 -27t-20 -48q0 -21 8.5 -35t22.5 -23t31 -12.5t35 -3.5q66 0 101.5 39.5t35.5 99.5v25h-23zM376 307q0 53 -32 78.5t-85 25.5q-40 0 -75.5 -15.5t-59.5 -39.5l-50 60q35 33 85.5 52t108.5 19q51 0 88.5 -14.5t61.5 -39.5t36 -59 t12 -73v-207q0 -24 1.5 -50.5t5.5 -43.5h-85q-8 34 -8 68h-3q-26 -38 -65.5 -59t-93.5 -21q-28 0 -58.5 7.5t-55.5 24.5t-41.5 45t-16.5 69q0 54 29 85.5t76 48t106 21.5t119 5v13zM294 622q0 24 17.5 42.5t44.5 18.5q26 0 44 -17.5t18 -43.5q0 -25 -18 -42.5t-44 -17.5 q-27 0 -44.5 18.5t-17.5 41.5zM100 622q0 24 17.5 42.5t44.5 18.5q26 0 44 -17.5t18 -43.5q0 -25 -18 -42.5t-44 -17.5q-27 0 -44.5 18.5t-17.5 41.5zM407 758h-296v67h296v-67z" horiz-adv-x="542"/>
<glyph glyph-name="Adotmacron" unicode="Ǡ" d="M221 261h265l-132 332zM115 0h-110l307 708h90l304 -708h-112l-72 174h-336zM418 843q0 -26 -18.5 -43t-44.5 -17t-44 17.5t-18 42.5q0 26 18 43.5t44 17.5t44.5 -17.5t18.5 -43.5zM503 979h-296v67h296v-67z" horiz-adv-x="711"/>
<glyph glyph-name="adotmacron" unicode="ǡ" d="M353 226q-35 0 -72.5 -3t-68 -12t-50.5 -27t-20 -48q0 -21 8.5 -35t22.5 -23t31 -12.5t35 -3.5q66 0 101.5 39.5t35.5 99.5v25h-23zM376 307q0 53 -32 78.5t-85 25.5q-40 0 -75.5 -15.5t-59.5 -39.5l-50 60q35 33 85.5 52t108.5 19q51 0 88.5 -14.5t61.5 -39.5t36 -59 t12 -73v-207q0 -24 1.5 -50.5t5.5 -43.5h-85q-8 34 -8 68h-3q-26 -38 -65.5 -59t-93.5 -21q-28 0 -58.5 7.5t-55.5 24.5t-41.5 45t-16.5 69q0 54 29 85.5t76 48t106 21.5t119 5v13zM322 622q0 -26 -18.5 -43t-44.5 -17t-44 17.5t-18 42.5q0 26 18 43.5t44 17.5t44.5 -17.5 t18.5 -43.5zM407 758h-296v67h296v-67z" horiz-adv-x="542"/>
<glyph glyph-name="AEmacron" unicode="Ǣ" d="M524 278v343h-14l-217 -343h231zM623 88h346v-88h-445v192h-283l-121 -192h-118l457 708h495v-87h-331v-212h310v-85h-310v-236zM633 783h-296v67h296v-67z" horiz-adv-x="1015"/>
<glyph glyph-name="aemacron" unicode="ǣ" d="M419 85q-29 -54 -82.5 -75.5t-118.5 -21.5q-28 0 -58.5 6.5t-55.5 21.5t-41.5 40.5t-16.5 64.5q0 52 24 83.5t67.5 48t104 21.5t134.5 5v11q0 67 -32 94t-85 27q-40 0 -75.5 -15.5t-59.5 -39.5l-50 60q35 33 85.5 52t108.5 19q40 0 69 -8.5t48.5 -21.5t31 -28.5 t17.5 -29.5q28 39 69 63.5t104 24.5q51 0 92 -17t69.5 -49t44 -77.5t15.5 -102.5v-16t-1 -16h-364q1 -30 13 -56.5t32.5 -46t47 -30.5t56.5 -11q47 0 80.5 21t53.5 51l63 -53q-37 -50 -86.5 -73.5t-110.5 -23.5q-63 0 -114 25.5t-79 72.5zM734 279q0 28 -8.5 52.5 t-24.5 42.5t-40 28.5t-55 10.5q-29 0 -54.5 -10.5t-45 -28.5t-31.5 -42.5t-13 -52.5h272zM350 209q-44 0 -82 -2.5t-66 -10.5t-44 -23t-16 -40q0 -21 8.5 -34.5t22 -22t31 -12t36.5 -3.5q66 0 100 33t34 90v25h-24zM585 562h-296v67h296v-67z" horiz-adv-x="877"/>
<glyph glyph-name="Gcaron" unicode="Ǧ" d="M620 562q-32 35 -81.5 56t-110.5 21q-62 0 -112 -22.5t-85 -61.5t-54 -90.5t-19 -109.5q0 -59 19 -111t54 -90.5t86 -60.5t114 -22q50 0 92 9t73 26v197h-157v84h255v-343q-56 -30 -122 -46t-144 -16q-83 0 -152.5 27.5t-119.5 77t-78 118t-28 150.5q0 83 28.5 151.5 t79 117t119.5 75.5t150 27q85 0 151.5 -25t110.5 -67zM425 801h-107l-111 144h90l76 -99l76 99h88z" horiz-adv-x="778"/>
<glyph glyph-name="gcaron" unicode="ǧ" d="M147 242q0 -33 10.5 -63t31 -53t49.5 -37t66 -14q36 0 66 13t51 35.5t32.5 53t11.5 65.5q0 34 -11.5 64t-33 53t-51 36.5t-65.5 13.5q-37 0 -66 -13.5t-49.5 -36t-31 -53t-10.5 -64.5zM118 -81q31 -35 77.5 -56t95.5 -21q47 0 79 13.5t51.5 37t28 55.5t8.5 69v61h-2 q-26 -40 -71 -61t-96 -21q-54 0 -98.5 19t-75.5 52t-48 77.5t-17 95.5t17 96t48 78.5t75 53t98 19.5q51 0 97.5 -22t73.5 -67h2v76h91v-450q0 -52 -13 -99.5t-44 -84t-81 -58.5t-124 -22q-62 0 -124.5 22.5t-107.5 63.5zM354 562h-107l-111 144h90l76 -99l76 99h88z" horiz-adv-x="632"/>
<glyph glyph-name="Kcaron" unicode="Ǩ" d="M185 396h2l316 312h137l-344 -324l365 -384h-142l-332 366h-2v-366h-99v708h99v-312zM426 783h-107l-111 144h90l76 -99l76 99h88z" horiz-adv-x="659"/>
<glyph glyph-name="kcaron" unicode="ǩ" d="M177 268h3l199 206h126l-222 -215l241 -259h-130l-214 246h-3v-246h-94v756h94v-488zM356 831h-107l-111 144h90l76 -99l76 99h88z" horiz-adv-x="527"/>
<glyph glyph-name="Oogonek" unicode="Ǫ" d="M693 355q0 58 -19 109.5t-54 90.5t-84.5 61.5t-111.5 22.5q-61 0 -110.5 -22.5t-84 -61.5t-53.5 -90.5t-19 -109.5q0 -59 19 -111t54 -90.5t84 -60.5t110 -22t111 22t85 60.5t54 90.5t19 111zM800 355q0 -82 -28.5 -150.5t-78.5 -118t-119 -77t-150 -27.5t-149.5 27.5 t-118.5 77t-78 118t-28 150.5q0 83 28 151.5t78 117t118.5 75.5t149.5 27t150 -27t119 -75.5t78.5 -117t28.5 -151.5zM521 -213q-20 -17 -44.5 -27t-50.5 -10q-19 0 -36.5 6t-31 17t-21.5 27.5t-8 36.5q0 21 9 42t23 39.5t30.5 35t32.5 28.5h54q-15 -14 -29 -29.5 t-25.5 -31.5t-18.5 -32t-7 -32q0 -20 14 -33.5t34 -13.5q14 0 28 6t25 16z"/>
<glyph glyph-name="oogonek" unicode="ǫ" d="M463 238q0 34 -10.5 65t-30.5 54.5t-49.5 37.5t-67.5 14t-67.5 -14t-49.5 -37.5t-30.5 -54.5t-10.5 -65t10.5 -65t30.5 -55t49.5 -38t67.5 -14t67.5 14t49.5 38t30.5 55t10.5 65zM561 238q0 -55 -19.5 -101t-54 -79.5t-81.5 -52t-101 -18.5t-101 18.5t-81 52t-53.5 79.5 t-19.5 101t19.5 100.5t53.5 78.5t81 51.5t101 18.5t101 -18.5t81.5 -51.5t54 -78.5t19.5 -100.5zM401 -208q-20 -17 -44.5 -27t-50.5 -10q-19 0 -36.5 6t-31 17t-21.5 27.5t-8 36.5q0 21 9 42t23 39.5t30.5 35t32.5 28.5h54q-15 -14 -29 -29.5t-25.5 -31.5t-18.5 -32t-7 -32 q0 -20 14 -33.5t34 -13.5q14 0 28 6t25 16z" horiz-adv-x="610"/>
<glyph glyph-name="Oogonekmacron" unicode="Ǭ" d="M693 355q0 58 -19 109.5t-54 90.5t-84.5 61.5t-111.5 22.5q-61 0 -110.5 -22.5t-84 -61.5t-53.5 -90.5t-19 -109.5q0 -59 19 -111t54 -90.5t84 -60.5t110 -22t111 22t85 60.5t54 90.5t19 111zM800 355q0 -82 -28.5 -150.5t-78.5 -118t-119 -77t-150 -27.5t-149.5 27.5 t-118.5 77t-78 118t-28 150.5q0 83 28 151.5t78 117t118.5 75.5t149.5 27t150 -27t119 -75.5t78.5 -117t28.5 -151.5zM521 -213q-20 -17 -44.5 -27t-50.5 -10q-19 0 -36.5 6t-31 17t-21.5 27.5t-8 36.5q0 21 9 42t23 39.5t30.5 35t32.5 28.5h54q-15 -14 -29 -29.5 t-25.5 -31.5t-18.5 -32t-7 -32q0 -20 14 -33.5t34 -13.5q14 0 28 6t25 16zM573 801h-296v67h296v-67z"/>
<glyph glyph-name="oogonekmacron" unicode="ǭ" d="M463 238q0 34 -10.5 65t-30.5 54.5t-49.5 37.5t-67.5 14t-67.5 -14t-49.5 -37.5t-30.5 -54.5t-10.5 -65t10.5 -65t30.5 -55t49.5 -38t67.5 -14t67.5 14t49.5 38t30.5 55t10.5 65zM561 238q0 -55 -19.5 -101t-54 -79.5t-81.5 -52t-101 -18.5t-101 18.5t-81 52t-53.5 79.5 t-19.5 101t19.5 100.5t53.5 78.5t81 51.5t101 18.5t101 -18.5t81.5 -51.5t54 -78.5t19.5 -100.5zM401 -208q-20 -17 -44.5 -27t-50.5 -10q-19 0 -36.5 6t-31 17t-21.5 27.5t-8 36.5q0 21 9 42t23 39.5t30.5 35t32.5 28.5h54q-15 -14 -29 -29.5t-25.5 -31.5t-18.5 -32t-7 -32 q0 -20 14 -33.5t34 -13.5q14 0 28 6t25 16zM453 562h-296v67h296v-67z" horiz-adv-x="610"/>
<glyph glyph-name="DZ" unicode="Ǳ" d="M185 87h124q64 0 118.5 18t94 52t61.5 84t22 113q0 66 -22 116t-61.5 83.5t-94 51t-118.5 17.5h-124v-535zM86 708h243q68 0 136 -20t123 -63t89 -110t34 -161q0 -91 -34 -157.5t-89 -110t-123 -65t-136 -21.5h-243v708zM1314 621l-400 -533h406v-88h-526v87l399 534 h-391v87h512v-87z" horiz-adv-x="1353"/>
<glyph glyph-name="Dz" unicode="ǲ" d="M185 87h124q64 0 118.5 18t94 52t61.5 84t22 113q0 66 -22 116t-61.5 83.5t-94 51t-118.5 17.5h-124v-535zM86 708h243q68 0 136 -20t123 -63t89 -110t34 -161q0 -91 -34 -157.5t-89 -110t-123 -65t-136 -21.5h-243v708zM1180 397l-270 -318h281v-79h-397v77l268 320 h-255v77h373v-77z" horiz-adv-x="1223"/>
<glyph glyph-name="dz" unicode="ǳ" d="M147 238q0 -33 10 -64t30 -55t49 -38.5t68 -14.5q36 0 65.5 14t50.5 37.5t32.5 54.5t11.5 65t-11.5 65t-32.5 55t-50.5 38t-65.5 14q-39 0 -68 -14t-49 -38t-30 -55t-10 -64zM459 75q-27 -43 -73.5 -65.5t-97.5 -22.5q-55 0 -99 19.5t-75 53.5t-48 80t-17 98t17 97.5 t48.5 79.5t75.5 53t97 19q58 0 101 -24.5t68 -59.5h2v353h94v-756h-91v75h-2zM1054 397l-270 -318h281v-79h-397v77l268 320h-255v77h373v-77z" horiz-adv-x="1097"/>
<glyph glyph-name="Gacute" unicode="Ǵ" d="M620 562q-32 35 -81.5 56t-110.5 21q-62 0 -112 -22.5t-85 -61.5t-54 -90.5t-19 -109.5q0 -59 19 -111t54 -90.5t86 -60.5t114 -22q50 0 92 9t73 26v197h-157v84h255v-343q-56 -30 -122 -46t-144 -16q-83 0 -152.5 27.5t-119.5 77t-78 118t-28 150.5q0 83 28.5 151.5 t79 117t119.5 75.5t150 27q85 0 151.5 -25t110.5 -67zM343 801h-77l100 144h113z" horiz-adv-x="778"/>
<glyph glyph-name="gacute" unicode="ǵ" d="M147 242q0 -33 10.5 -63t31 -53t49.5 -37t66 -14q36 0 66 13t51 35.5t32.5 53t11.5 65.5q0 34 -11.5 64t-33 53t-51 36.5t-65.5 13.5q-37 0 -66 -13.5t-49.5 -36t-31 -53t-10.5 -64.5zM118 -81q31 -35 77.5 -56t95.5 -21q47 0 79 13.5t51.5 37t28 55.5t8.5 69v61h-2 q-26 -40 -71 -61t-96 -21q-54 0 -98.5 19t-75.5 52t-48 77.5t-17 95.5t17 96t48 78.5t75 53t98 19.5q51 0 97.5 -22t73.5 -67h2v76h91v-450q0 -52 -13 -99.5t-44 -84t-81 -58.5t-124 -22q-62 0 -124.5 22.5t-107.5 63.5zM272 562h-77l100 144h113z" horiz-adv-x="632"/>
<glyph glyph-name="Ngrave" unicode="Ǹ" d="M585 142h2v566h99v-708h-125l-374 578h-2v-578h-99v708h129zM280 927h113l100 -144h-77z" horiz-adv-x="772"/>
<glyph glyph-name="ngrave" unicode="ǹ" d="M166 474q2 -18 3 -40.5t1 -37.5h3q9 19 24.5 35.5t35.5 29t44 19.5t50 7q46 0 79 -15.5t55 -41.5t32.5 -61t10.5 -75v-294h-94v263q0 29 -4.5 55t-16.5 46t-33 32t-54 12q-56 0 -91.5 -42.5t-35.5 -113.5v-252h-94v372q0 19 -1 49t-3 53h89zM184 706h113l100 -144h-77z " horiz-adv-x="582"/>
<glyph glyph-name="Aringacute" unicode="Ǻ" d="M221 261h265l-132 332zM115 0h-110l307 708h90l304 -708h-112l-72 174h-336zM414 882q0 24 -17.5 40t-41.5 16q-23 0 -40.5 -16t-17.5 -40t17.5 -40.5t40.5 -16.5q24 0 41.5 16t17.5 41zM456 882q0 -43 -29.5 -71t-71.5 -28q-21 0 -39 7.5t-31.5 20.5t-21.5 31t-8 39 q0 43 29 71t71 28t71.5 -28t29.5 -70zM326 1055h-77l100 144h113z" horiz-adv-x="711"/>
<glyph glyph-name="aringacute" unicode="ǻ" d="M353 226q-35 0 -72.5 -3t-68 -12t-50.5 -27t-20 -48q0 -21 8.5 -35t22.5 -23t31 -12.5t35 -3.5q66 0 101.5 39.5t35.5 99.5v25h-23zM376 307q0 53 -32 78.5t-85 25.5q-40 0 -75.5 -15.5t-59.5 -39.5l-50 60q35 33 85.5 52t108.5 19q51 0 88.5 -14.5t61.5 -39.5t36 -59 t12 -73v-207q0 -24 1.5 -50.5t5.5 -43.5h-85q-8 34 -8 68h-3q-26 -38 -65.5 -59t-93.5 -21q-28 0 -58.5 7.5t-55.5 24.5t-41.5 45t-16.5 69q0 54 29 85.5t76 48t106 21.5t119 5v13zM318 661q0 24 -17.5 40t-41.5 16q-23 0 -40.5 -16t-17.5 -40t17.5 -40.5t40.5 -16.5 q24 0 41.5 16t17.5 41zM360 661q0 -43 -29.5 -71t-71.5 -28q-21 0 -39 7.5t-31.5 20.5t-21.5 31t-8 39q0 43 29 71t71 28t71.5 -28t29.5 -70zM230 834h-77l100 144h113z" horiz-adv-x="542"/>
<glyph glyph-name="AEacute" unicode="Ǽ" d="M524 278v343h-14l-217 -343h231zM623 88h346v-88h-445v192h-283l-121 -192h-118l457 708h495v-87h-331v-212h310v-85h-310v-236zM456 783h-77l100 144h113z" horiz-adv-x="1015"/>
<glyph glyph-name="aeacute" unicode="ǽ" d="M419 85q-29 -54 -82.5 -75.5t-118.5 -21.5q-28 0 -58.5 6.5t-55.5 21.5t-41.5 40.5t-16.5 64.5q0 52 24 83.5t67.5 48t104 21.5t134.5 5v11q0 67 -32 94t-85 27q-40 0 -75.5 -15.5t-59.5 -39.5l-50 60q35 33 85.5 52t108.5 19q40 0 69 -8.5t48.5 -21.5t31 -28.5 t17.5 -29.5q28 39 69 63.5t104 24.5q51 0 92 -17t69.5 -49t44 -77.5t15.5 -102.5v-16t-1 -16h-364q1 -30 13 -56.5t32.5 -46t47 -30.5t56.5 -11q47 0 80.5 21t53.5 51l63 -53q-37 -50 -86.5 -73.5t-110.5 -23.5q-63 0 -114 25.5t-79 72.5zM734 279q0 28 -8.5 52.5 t-24.5 42.5t-40 28.5t-55 10.5q-29 0 -54.5 -10.5t-45 -28.5t-31.5 -42.5t-13 -52.5h272zM350 209q-44 0 -82 -2.5t-66 -10.5t-44 -23t-16 -40q0 -21 8.5 -34.5t22 -22t31 -12t36.5 -3.5q66 0 100 33t34 90v25h-24zM408 562h-77l100 144h113z" horiz-adv-x="877"/>
<glyph glyph-name="Oslashacute" unicode="Ǿ" d="M251 130q33 -29 76 -45t97 -16q62 0 112.5 22.5t86 61t54.5 90.5t19 112q0 54 -15.5 102.5t-46.5 86.5zM592 585q-31 26 -73.5 40.5t-94.5 14.5q-63 0 -113 -22.5t-85 -61t-53.5 -90.5t-18.5 -111q0 -109 57 -181zM699 617q48 -49 74.5 -115t26.5 -147q0 -82 -28.5 -150 t-78.5 -117.5t-119 -77t-150 -28.5q-70 0 -130 20.5t-108 58.5l-81 -87l-43 39l81 88q-45 48 -69 113t-24 141q0 83 28 151.5t78 117t118.5 75.5t149.5 27q66 0 124.5 -18t105.5 -53l81 87l43 -39zM396 817h-77l100 144h113z"/>
<glyph glyph-name="oslashacute" unicode="ǿ" d="M203 98q41 -35 101 -35q40 0 70.5 14.5t51 39t31 56t10.5 65.5q0 27 -7.5 54t-21.5 46zM406 377q-18 17 -45 26t-56 9q-39 0 -69 -14.5t-50.5 -39t-31 -56t-10.5 -65.5q0 -28 7 -55t21 -46zM501 401q28 -32 44 -73.5t16 -90.5q0 -55 -19.5 -101t-54 -79t-81.5 -51.5 t-101 -18.5q-47 0 -87 13.5t-72 37.5l-68 -69l-36 36l66 68q-28 32 -43 73.5t-15 90.5q0 55 19.5 101t53.5 79t81 51.5t101 18.5q93 0 158 -51l68 70l37 -35zM276 581h-77l100 144h113z" horiz-adv-x="610"/>
<glyph glyph-name="Adblgrave" unicode="Ȁ" d="M221 261h265l-132 332zM115 0h-110l307 708h90l304 -708h-112l-72 174h-336zM154 927h113l100 -144h-77zM344 927h113l100 -144h-77z" horiz-adv-x="711"/>
<glyph glyph-name="adblgrave" unicode="ȁ" d="M353 226q-35 0 -72.5 -3t-68 -12t-50.5 -27t-20 -48q0 -21 8.5 -35t22.5 -23t31 -12.5t35 -3.5q66 0 101.5 39.5t35.5 99.5v25h-23zM376 307q0 53 -32 78.5t-85 25.5q-40 0 -75.5 -15.5t-59.5 -39.5l-50 60q35 33 85.5 52t108.5 19q51 0 88.5 -14.5t61.5 -39.5t36 -59 t12 -73v-207q0 -24 1.5 -50.5t5.5 -43.5h-85q-8 34 -8 68h-3q-26 -38 -65.5 -59t-93.5 -21q-28 0 -58.5 7.5t-55.5 24.5t-41.5 45t-16.5 69q0 54 29 85.5t76 48t106 21.5t119 5v13zM58 706h113l100 -144h-77zM248 706h113l100 -144h-77z" horiz-adv-x="542"/>
<glyph glyph-name="Ainvertedbreve" unicode="Ȃ" d="M221 261h265l-132 332zM115 0h-110l307 708h90l304 -708h-112l-72 174h-336zM514 921q-6 -69 -49.5 -103.5t-109.5 -34.5q-67 0 -110.5 34.5t-48.5 103.5h56q7 -38 36 -55t67 -17q41 0 68 15.5t36 56.5h55z" horiz-adv-x="711"/>
<glyph glyph-name="ainvertedbreve" unicode="ȃ" d="M353 226q-35 0 -72.5 -3t-68 -12t-50.5 -27t-20 -48q0 -21 8.5 -35t22.5 -23t31 -12.5t35 -3.5q66 0 101.5 39.5t35.5 99.5v25h-23zM376 307q0 53 -32 78.5t-85 25.5q-40 0 -75.5 -15.5t-59.5 -39.5l-50 60q35 33 85.5 52t108.5 19q51 0 88.5 -14.5t61.5 -39.5t36 -59 t12 -73v-207q0 -24 1.5 -50.5t5.5 -43.5h-85q-8 34 -8 68h-3q-26 -38 -65.5 -59t-93.5 -21q-28 0 -58.5 7.5t-55.5 24.5t-41.5 45t-16.5 69q0 54 29 85.5t76 48t106 21.5t119 5v13zM418 700q-6 -69 -49.5 -103.5t-109.5 -34.5q-67 0 -110.5 34.5t-48.5 103.5h56 q7 -38 36 -55t67 -17q41 0 68 15.5t36 56.5h55z" horiz-adv-x="542"/>
<glyph glyph-name="Edblgrave" unicode="Ȅ" d="M185 88h370v-88h-469v708h454v-87h-355v-212h334v-85h-334v-236zM119 927h113l100 -144h-77zM309 927h113l100 -144h-77z" horiz-adv-x="601"/>
<glyph glyph-name="edblgrave" unicode="ȅ" d="M523 241v-16t-1 -16h-376q1 -30 13.5 -56.5t33.5 -46t48.5 -30.5t58.5 -11q48 0 83 21t55 51l66 -53q-38 -50 -89.5 -73.5t-114.5 -23.5q-54 0 -100 18t-79 50.5t-52 78.5t-19 102q0 55 18.5 101.5t51.5 79.5t78 51.5t97 18.5t94.5 -17t72 -49t45.5 -77.5t16 -102.5z M428 279q-1 28 -9.5 52.5t-25 42.5t-41 28.5t-57.5 10.5q-30 0 -56.5 -10.5t-46 -28.5t-32 -42.5t-14.5 -52.5h282zM85 706h113l100 -144h-77zM275 706h113l100 -144h-77z" horiz-adv-x="573"/>
<glyph glyph-name="Einvertedbreve" unicode="Ȇ" d="M185 88h370v-88h-469v708h454v-87h-355v-212h334v-85h-334v-236zM479 921q-6 -69 -49.5 -103.5t-109.5 -34.5q-67 0 -110.5 34.5t-48.5 103.5h56q7 -38 36 -55t67 -17q41 0 68 15.5t36 56.5h55z" horiz-adv-x="601"/>
<glyph glyph-name="einvertedbreve" unicode="ȇ" d="M523 241v-16t-1 -16h-376q1 -30 13.5 -56.5t33.5 -46t48.5 -30.5t58.5 -11q48 0 83 21t55 51l66 -53q-38 -50 -89.5 -73.5t-114.5 -23.5q-54 0 -100 18t-79 50.5t-52 78.5t-19 102q0 55 18.5 101.5t51.5 79.5t78 51.5t97 18.5t94.5 -17t72 -49t45.5 -77.5t16 -102.5z M428 279q-1 28 -9.5 52.5t-25 42.5t-41 28.5t-57.5 10.5q-30 0 -56.5 -10.5t-46 -28.5t-32 -42.5t-14.5 -52.5h282zM445 700q-6 -69 -49.5 -103.5t-109.5 -34.5q-67 0 -110.5 34.5t-48.5 103.5h56q7 -38 36 -55t67 -17q41 0 68 15.5t36 56.5h55z" horiz-adv-x="573"/>
<glyph glyph-name="Idblgrave" unicode="Ȉ" d="M185 0h-99v708h99v-708zM-66 927h113l100 -144h-77zM124 927h113l100 -144h-77z" horiz-adv-x="271"/>
<glyph glyph-name="idblgrave" unicode="ȉ" d="M176 0h-94v474h94v-474zM-72 693h113l100 -144h-77zM118 693h113l100 -144h-77z" horiz-adv-x="259"/>
<glyph glyph-name="Iinvertedbreve" unicode="Ȋ" d="M185 0h-99v708h99v-708zM294 921q-6 -69 -49.5 -103.5t-109.5 -34.5q-67 0 -110.5 34.5t-48.5 103.5h56q7 -38 36 -55t67 -17q41 0 68 15.5t36 56.5h55z" horiz-adv-x="271"/>
<glyph glyph-name="iinvertedbreve" unicode="ȋ" d="M176 0h-94v474h94v-474zM288 687q-6 -69 -49.5 -103.5t-109.5 -34.5q-67 0 -110.5 34.5t-48.5 103.5h56q7 -38 36 -55t67 -17q41 0 68 15.5t36 56.5h55z" horiz-adv-x="259"/>
<glyph glyph-name="Odblgrave" unicode="Ȍ" d="M693 355q0 58 -19 109.5t-54 90.5t-84.5 61.5t-111.5 22.5q-61 0 -110.5 -22.5t-84 -61.5t-53.5 -90.5t-19 -109.5q0 -59 19 -111t54 -90.5t84 -60.5t110 -22t111 22t85 60.5t54 90.5t19 111zM800 355q0 -82 -28.5 -150.5t-78.5 -118t-119 -77t-150 -27.5t-149.5 27.5 t-118.5 77t-78 118t-28 150.5q0 83 28 151.5t78 117t118.5 75.5t149.5 27t150 -27t119 -75.5t78.5 -117t28.5 -151.5zM224 945h113l100 -144h-77zM414 945h113l100 -144h-77z"/>
<glyph glyph-name="odblgrave" unicode="ȍ" d="M463 238q0 34 -10.5 65t-30.5 54.5t-49.5 37.5t-67.5 14t-67.5 -14t-49.5 -37.5t-30.5 -54.5t-10.5 -65t10.5 -65t30.5 -55t49.5 -38t67.5 -14t67.5 14t49.5 38t30.5 55t10.5 65zM561 238q0 -55 -19.5 -101t-54 -79.5t-81.5 -52t-101 -18.5t-101 18.5t-81 52t-53.5 79.5 t-19.5 101t19.5 100.5t53.5 78.5t81 51.5t101 18.5t101 -18.5t81.5 -51.5t54 -78.5t19.5 -100.5zM104 706h113l100 -144h-77zM294 706h113l100 -144h-77z" horiz-adv-x="610"/>
<glyph glyph-name="Oinvertedbreve" unicode="Ȏ" d="M693 355q0 58 -19 109.5t-54 90.5t-84.5 61.5t-111.5 22.5q-61 0 -110.5 -22.5t-84 -61.5t-53.5 -90.5t-19 -109.5q0 -59 19 -111t54 -90.5t84 -60.5t110 -22t111 22t85 60.5t54 90.5t19 111zM800 355q0 -82 -28.5 -150.5t-78.5 -118t-119 -77t-150 -27.5t-149.5 27.5 t-118.5 77t-78 118t-28 150.5q0 83 28 151.5t78 117t118.5 75.5t149.5 27t150 -27t119 -75.5t78.5 -117t28.5 -151.5zM584 939q-6 -69 -49.5 -103.5t-109.5 -34.5q-67 0 -110.5 34.5t-48.5 103.5h56q7 -38 36 -55t67 -17q41 0 68 15.5t36 56.5h55z"/>
<glyph glyph-name="oinvertedbreve" unicode="ȏ" d="M463 238q0 34 -10.5 65t-30.5 54.5t-49.5 37.5t-67.5 14t-67.5 -14t-49.5 -37.5t-30.5 -54.5t-10.5 -65t10.5 -65t30.5 -55t49.5 -38t67.5 -14t67.5 14t49.5 38t30.5 55t10.5 65zM561 238q0 -55 -19.5 -101t-54 -79.5t-81.5 -52t-101 -18.5t-101 18.5t-81 52t-53.5 79.5 t-19.5 101t19.5 100.5t53.5 78.5t81 51.5t101 18.5t101 -18.5t81.5 -51.5t54 -78.5t19.5 -100.5zM464 700q-6 -69 -49.5 -103.5t-109.5 -34.5q-67 0 -110.5 34.5t-48.5 103.5h56q7 -38 36 -55t67 -17q41 0 68 15.5t36 56.5h55z" horiz-adv-x="610"/>
<glyph glyph-name="Rdblgrave" unicode="Ȑ" d="M185 398h114q35 0 65 6t52.5 19.5t35.5 35t13 53.5t-13 53.5t-34.5 34.5t-50.5 18.5t-61 5.5h-121v-226zM185 0h-99v708h227q51 0 97 -10.5t80.5 -33.5t54.5 -60.5t20 -91.5q0 -78 -48 -126t-124 -61l198 -325h-120l-180 315h-106v-315zM137 927h113l100 -144h-77z M327 927h113l100 -144h-77z" horiz-adv-x="614"/>
<glyph glyph-name="rdblgrave" unicode="ȑ" d="M81 372q0 19 -1 49t-3 53h89q2 -18 3 -41.5t1 -38.5h3q20 42 58.5 67.5t86.5 25.5q22 0 37 -4l-4 -87q-20 5 -43 5q-34 0 -59 -12.5t-41.5 -33.5t-24.5 -48.5t-8 -57.5v-249h-94v372zM15 706h113l100 -144h-77zM205 706h113l100 -144h-77z" horiz-adv-x="362"/>
<glyph glyph-name="Rinvertedbreve" unicode="Ȓ" d="M185 398h114q35 0 65 6t52.5 19.5t35.5 35t13 53.5t-13 53.5t-34.5 34.5t-50.5 18.5t-61 5.5h-121v-226zM185 0h-99v708h227q51 0 97 -10.5t80.5 -33.5t54.5 -60.5t20 -91.5q0 -78 -48 -126t-124 -61l198 -325h-120l-180 315h-106v-315zM497 921q-6 -69 -49.5 -103.5 t-109.5 -34.5q-67 0 -110.5 34.5t-48.5 103.5h56q7 -38 36 -55t67 -17q41 0 68 15.5t36 56.5h55z" horiz-adv-x="614"/>
<glyph glyph-name="rinvertedbreve" unicode="ȓ" d="M81 372q0 19 -1 49t-3 53h89q2 -18 3 -41.5t1 -38.5h3q20 42 58.5 67.5t86.5 25.5q22 0 37 -4l-4 -87q-20 5 -43 5q-34 0 -59 -12.5t-41.5 -33.5t-24.5 -48.5t-8 -57.5v-249h-94v372zM375 700q-6 -69 -49.5 -103.5t-109.5 -34.5q-67 0 -110.5 34.5t-48.5 103.5h56 q7 -38 36 -55t67 -17q41 0 68 15.5t36 56.5h55z" horiz-adv-x="362"/>
<glyph glyph-name="Udblgrave" unicode="Ȕ" d="M356 -18q-70 0 -122 23.5t-86 62.5t-50.5 89.5t-16.5 104.5v446h99v-440q0 -36 9 -71.5t29.5 -63.5t54 -45t83.5 -17q49 0 83 17t54.5 45t29.5 63.5t9 71.5v440h99v-446q0 -54 -16.5 -104.5t-50.5 -89.5t-86 -62.5t-122 -23.5zM155 927h113l100 -144h-77zM345 927h113 l100 -144h-77z" horiz-adv-x="712"/>
<glyph glyph-name="udblgrave" unicode="ȕ" d="M415 0q-2 18 -3 40.5t-1 37.5h-2q-18 -38 -60.5 -64.5t-94.5 -26.5q-46 0 -79.5 15t-55 41.5t-32 61.5t-10.5 75v294h94v-262q0 -29 4.5 -55.5t16.5 -46.5t33 -32t54 -12q57 0 92 42.5t35 113.5v252h94v-372q0 -19 1 -49t3 -53h-89zM89 693h113l100 -144h-77zM279 693 h113l100 -144h-77z" horiz-adv-x="582"/>
<glyph glyph-name="Uinvertedbreve" unicode="Ȗ" d="M356 -18q-70 0 -122 23.5t-86 62.5t-50.5 89.5t-16.5 104.5v446h99v-440q0 -36 9 -71.5t29.5 -63.5t54 -45t83.5 -17q49 0 83 17t54.5 45t29.5 63.5t9 71.5v440h99v-446q0 -54 -16.5 -104.5t-50.5 -89.5t-86 -62.5t-122 -23.5zM515 921q-6 -69 -49.5 -103.5t-109.5 -34.5 q-67 0 -110.5 34.5t-48.5 103.5h56q7 -38 36 -55t67 -17q41 0 68 15.5t36 56.5h55z" horiz-adv-x="712"/>
<glyph glyph-name="uinvertedbreve" unicode="ȗ" d="M415 0q-2 18 -3 40.5t-1 37.5h-2q-18 -38 -60.5 -64.5t-94.5 -26.5q-46 0 -79.5 15t-55 41.5t-32 61.5t-10.5 75v294h94v-262q0 -29 4.5 -55.5t16.5 -46.5t33 -32t54 -12q57 0 92 42.5t35 113.5v252h94v-372q0 -19 1 -49t3 -53h-89zM449 687q-6 -69 -49.5 -103.5 t-109.5 -34.5q-67 0 -110.5 34.5t-48.5 103.5h56q7 -38 36 -55t67 -17q41 0 68 15.5t36 56.5h55z" horiz-adv-x="582"/>
<glyph glyph-name="Scommaaccent" unicode="Ș" d="M267 -235h-79l64 190h93zM438 577q-21 29 -57 47.5t-81 18.5q-24 0 -48.5 -6.5t-44.5 -21t-32.5 -36t-12.5 -51.5q0 -29 11.5 -48.5t31 -33t46 -23t56.5 -19.5q36 -11 73 -25t67 -37t49 -57.5t19 -87.5q0 -55 -20.5 -95.5t-54.5 -67t-78.5 -39.5t-91.5 -13 q-67 0 -129.5 26t-103.5 77l77 65q25 -37 67 -60t91 -23q25 0 50 7t45.5 22t33.5 37.5t13 54.5t-13.5 53.5t-36.5 36.5t-53.5 25.5t-64.5 21.5q-34 10 -67 24.5t-59 37t-42 55.5t-16 82q0 53 21.5 91t56 63t78 36.5t87.5 11.5q62 0 116 -22t87 -59z" horiz-adv-x="569"/>
<glyph glyph-name="scommaaccent" unicode="ș" d="M204 -235h-79l64 190h93zM337 354q-16 26 -45 42.5t-65 16.5q-16 0 -32 -3.5t-28.5 -11t-20 -19t-7.5 -28.5q0 -30 27 -44.5t81 -26.5q34 -8 63 -19t50.5 -27.5t33.5 -39.5t12 -54q0 -42 -16 -71t-42.5 -47.5t-60.5 -26.5t-70 -8q-54 0 -105.5 21t-85.5 64l67 57 q19 -28 52.5 -47t73.5 -19q18 0 34.5 3.5t30 11.5t21.5 21t8 33q0 33 -31.5 49t-92.5 30q-24 6 -48.5 14.5t-44.5 23.5t-32.5 37.5t-12.5 55.5q0 38 15.5 65.5t40.5 45t57 26t66 8.5q51 0 98.5 -20t73.5 -58z" horiz-adv-x="444"/>
<glyph glyph-name="uni021A" unicode="Ț" d="M269 -235h-79l64 190h93zM334 0h-99v621h-227v87h553v-87h-227v-621z" horiz-adv-x="569"/>
<glyph glyph-name="uni021B" unicode="ț" d="M183 -235h-79l64 190h93zM313 397h-126v-247q0 -43 16 -61.5t51 -18.5q13 0 28 3t27 9l3 -77q-17 -6 -37.5 -9.5t-42.5 -3.5q-67 0 -102.5 37t-35.5 111v257h-91v77h91v136h93v-136h126v-77z" horiz-adv-x="329"/>
<glyph glyph-name="Hcaron" unicode="Ȟ" d="M86 708h99v-296h358v296h100v-708h-100v324h-358v-324h-99v708zM417 783h-107l-111 144h90l76 -99l76 99h88z" horiz-adv-x="729"/>
<glyph glyph-name="hcaron" unicode="ȟ" d="M179 402q17 35 58 60t92 25q46 0 79 -15.5t55 -41.5t32.5 -61t10.5 -75v-294h-94v262q0 29 -4.5 55t-16.5 46t-32.5 32t-53.5 12q-56 0 -92 -42.5t-36 -113.5v-251h-94v756h94v-354h2zM347 831h-107l-111 144h90l76 -99l76 99h88z" horiz-adv-x="584"/>
<glyph glyph-name="Adotaccent" unicode="Ȧ" d="M221 261h265l-132 332zM115 0h-110l307 708h90l304 -708h-112l-72 174h-336zM418 843q0 -26 -18.5 -43t-44.5 -17t-44 17.5t-18 42.5q0 26 18 43.5t44 17.5t44.5 -17.5t18.5 -43.5z" horiz-adv-x="711"/>
<glyph glyph-name="adotaccent" unicode="ȧ" d="M353 226q-35 0 -72.5 -3t-68 -12t-50.5 -27t-20 -48q0 -21 8.5 -35t22.5 -23t31 -12.5t35 -3.5q66 0 101.5 39.5t35.5 99.5v25h-23zM376 307q0 53 -32 78.5t-85 25.5q-40 0 -75.5 -15.5t-59.5 -39.5l-50 60q35 33 85.5 52t108.5 19q51 0 88.5 -14.5t61.5 -39.5t36 -59 t12 -73v-207q0 -24 1.5 -50.5t5.5 -43.5h-85q-8 34 -8 68h-3q-26 -38 -65.5 -59t-93.5 -21q-28 0 -58.5 7.5t-55.5 24.5t-41.5 45t-16.5 69q0 54 29 85.5t76 48t106 21.5t119 5v13zM322 622q0 -26 -18.5 -43t-44.5 -17t-44 17.5t-18 42.5q0 26 18 43.5t44 17.5t44.5 -17.5 t18.5 -43.5z" horiz-adv-x="542"/>
<glyph glyph-name="Ecedilla" unicode="Ȩ" d="M185 88h370v-88h-469v708h454v-87h-355v-212h334v-85h-334v-236zM314 -69q7 2 13 2h14q17 0 33.5 -4t30 -13t22 -24t8.5 -37q0 -26 -12 -43.5t-30.5 -28t-41 -14.5t-43.5 -4q-26 0 -54 6t-49 17l20 42q37 -17 77 -17q8 0 18.5 2t20 6.5t16 12.5t6.5 21q0 22 -17 30t-37 8 q-9 0 -20 -2t-21 -5l-20 20l62 94h50z" horiz-adv-x="601"/>
<glyph glyph-name="ecedilla" unicode="ȩ" d="M523 241v-16t-1 -16h-376q1 -30 13.5 -56.5t33.5 -46t48.5 -30.5t58.5 -11q48 0 83 21t55 51l66 -53q-38 -50 -89.5 -73.5t-114.5 -23.5q-54 0 -100 18t-79 50.5t-52 78.5t-19 102q0 55 18.5 101.5t51.5 79.5t78 51.5t97 18.5t94.5 -17t72 -49t45.5 -77.5t16 -102.5z M428 279q-1 28 -9.5 52.5t-25 42.5t-41 28.5t-57.5 10.5q-30 0 -56.5 -10.5t-46 -28.5t-32 -42.5t-14.5 -52.5h282zM280 -82q7 2 13 2h14q17 0 33.5 -4t30 -13t22 -24t8.5 -37q0 -26 -12 -43.5t-30.5 -28t-41 -14.5t-43.5 -4q-26 0 -54 6t-49 17l20 42q37 -17 77 -17 q8 0 18.5 2t20 6.5t16 12.5t6.5 21q0 22 -17 30t-37 8q-9 0 -20 -2t-21 -5l-20 20l62 94h50z" horiz-adv-x="573"/>
<glyph glyph-name="Odieresismacron" unicode="Ȫ" d="M693 355q0 58 -19 109.5t-54 90.5t-84.5 61.5t-111.5 22.5q-61 0 -110.5 -22.5t-84 -61.5t-53.5 -90.5t-19 -109.5q0 -59 19 -111t54 -90.5t84 -60.5t110 -22t111 22t85 60.5t54 90.5t19 111zM800 355q0 -82 -28.5 -150.5t-78.5 -118t-119 -77t-150 -27.5t-149.5 27.5 t-118.5 77t-78 118t-28 150.5q0 83 28 151.5t78 117t118.5 75.5t149.5 27t150 -27t119 -75.5t78.5 -117t28.5 -151.5zM460 861q0 24 17.5 42.5t44.5 18.5q26 0 44 -17.5t18 -43.5q0 -25 -18 -42.5t-44 -17.5q-27 0 -44.5 18.5t-17.5 41.5zM266 861q0 24 17.5 42.5t44.5 18.5 q26 0 44 -17.5t18 -43.5q0 -25 -18 -42.5t-44 -17.5q-27 0 -44.5 18.5t-17.5 41.5zM573 997h-296v67h296v-67z"/>
<glyph glyph-name="odieresismacron" unicode="ȫ" d="M463 238q0 34 -10.5 65t-30.5 54.5t-49.5 37.5t-67.5 14t-67.5 -14t-49.5 -37.5t-30.5 -54.5t-10.5 -65t10.5 -65t30.5 -55t49.5 -38t67.5 -14t67.5 14t49.5 38t30.5 55t10.5 65zM561 238q0 -55 -19.5 -101t-54 -79.5t-81.5 -52t-101 -18.5t-101 18.5t-81 52t-53.5 79.5 t-19.5 101t19.5 100.5t53.5 78.5t81 51.5t101 18.5t101 -18.5t81.5 -51.5t54 -78.5t19.5 -100.5zM340 622q0 24 17.5 42.5t44.5 18.5q26 0 44 -17.5t18 -43.5q0 -25 -18 -42.5t-44 -17.5q-27 0 -44.5 18.5t-17.5 41.5zM146 622q0 24 17.5 42.5t44.5 18.5q26 0 44 -17.5 t18 -43.5q0 -25 -18 -42.5t-44 -17.5q-27 0 -44.5 18.5t-17.5 41.5zM453 758h-296v67h296v-67z" horiz-adv-x="610"/>
<glyph glyph-name="Otildemacron" unicode="Ȭ" d="M693 355q0 58 -19 109.5t-54 90.5t-84.5 61.5t-111.5 22.5q-61 0 -110.5 -22.5t-84 -61.5t-53.5 -90.5t-19 -109.5q0 -59 19 -111t54 -90.5t84 -60.5t110 -22t111 22t85 60.5t54 90.5t19 111zM800 355q0 -82 -28.5 -150.5t-78.5 -118t-119 -77t-150 -27.5t-149.5 27.5 t-118.5 77t-78 118t-28 150.5q0 83 28 151.5t78 117t118.5 75.5t149.5 27t150 -27t119 -75.5t78.5 -117t28.5 -151.5zM252 801q4 22 10.5 42.5t18.5 37t29.5 26.5t43.5 10q19 0 38.5 -6t36.5 -14q20 -9 36.5 -15.5t30.5 -6.5q22 0 32.5 14.5t15.5 31.5h54 q-4 -22 -10.5 -42.5t-18.5 -37t-30 -26.5t-43 -10q-19 0 -39 6.5t-38 14.5q-18 9 -34.5 15t-30.5 6q-21 0 -31.5 -14.5t-15.5 -31.5h-55zM573 996h-296v67h296v-67z"/>
<glyph glyph-name="otildemacron" unicode="ȭ" d="M463 238q0 34 -10.5 65t-30.5 54.5t-49.5 37.5t-67.5 14t-67.5 -14t-49.5 -37.5t-30.5 -54.5t-10.5 -65t10.5 -65t30.5 -55t49.5 -38t67.5 -14t67.5 14t49.5 38t30.5 55t10.5 65zM561 238q0 -55 -19.5 -101t-54 -79.5t-81.5 -52t-101 -18.5t-101 18.5t-81 52t-53.5 79.5 t-19.5 101t19.5 100.5t53.5 78.5t81 51.5t101 18.5t101 -18.5t81.5 -51.5t54 -78.5t19.5 -100.5zM132 562q4 22 10.5 42.5t18.5 37t29.5 26.5t43.5 10q19 0 38.5 -6t36.5 -14q20 -9 36.5 -15.5t30.5 -6.5q22 0 32.5 14.5t15.5 31.5h54q-4 -22 -10.5 -42.5t-18.5 -37 t-30 -26.5t-43 -10q-19 0 -39 6.5t-38 14.5q-18 9 -34.5 15t-30.5 6q-21 0 -31.5 -14.5t-15.5 -31.5h-55zM453 757h-296v67h296v-67z" horiz-adv-x="610"/>
<glyph glyph-name="Odotaccent" unicode="Ȯ" d="M693 355q0 58 -19 109.5t-54 90.5t-84.5 61.5t-111.5 22.5q-61 0 -110.5 -22.5t-84 -61.5t-53.5 -90.5t-19 -109.5q0 -59 19 -111t54 -90.5t84 -60.5t110 -22t111 22t85 60.5t54 90.5t19 111zM800 355q0 -82 -28.5 -150.5t-78.5 -118t-119 -77t-150 -27.5t-149.5 27.5 t-118.5 77t-78 118t-28 150.5q0 83 28 151.5t78 117t118.5 75.5t149.5 27t150 -27t119 -75.5t78.5 -117t28.5 -151.5zM488 861q0 -26 -18.5 -43t-44.5 -17t-44 17.5t-18 42.5q0 26 18 43.5t44 17.5t44.5 -17.5t18.5 -43.5z"/>
<glyph glyph-name="odotaccent" unicode="ȯ" d="M463 238q0 34 -10.5 65t-30.5 54.5t-49.5 37.5t-67.5 14t-67.5 -14t-49.5 -37.5t-30.5 -54.5t-10.5 -65t10.5 -65t30.5 -55t49.5 -38t67.5 -14t67.5 14t49.5 38t30.5 55t10.5 65zM561 238q0 -55 -19.5 -101t-54 -79.5t-81.5 -52t-101 -18.5t-101 18.5t-81 52t-53.5 79.5 t-19.5 101t19.5 100.5t53.5 78.5t81 51.5t101 18.5t101 -18.5t81.5 -51.5t54 -78.5t19.5 -100.5zM368 622q0 -26 -18.5 -43t-44.5 -17t-44 17.5t-18 42.5q0 26 18 43.5t44 17.5t44.5 -17.5t18.5 -43.5z" horiz-adv-x="610"/>
<glyph glyph-name="Odotaccentmacron" unicode="Ȱ" d="M693 355q0 58 -19 109.5t-54 90.5t-84.5 61.5t-111.5 22.5q-61 0 -110.5 -22.5t-84 -61.5t-53.5 -90.5t-19 -109.5q0 -59 19 -111t54 -90.5t84 -60.5t110 -22t111 22t85 60.5t54 90.5t19 111zM800 355q0 -82 -28.5 -150.5t-78.5 -118t-119 -77t-150 -27.5t-149.5 27.5 t-118.5 77t-78 118t-28 150.5q0 83 28 151.5t78 117t118.5 75.5t149.5 27t150 -27t119 -75.5t78.5 -117t28.5 -151.5zM488 861q0 -26 -18.5 -43t-44.5 -17t-44 17.5t-18 42.5q0 26 18 43.5t44 17.5t44.5 -17.5t18.5 -43.5zM573 997h-296v67h296v-67z"/>
<glyph glyph-name="odotaccentmacron" unicode="ȱ" d="M463 238q0 34 -10.5 65t-30.5 54.5t-49.5 37.5t-67.5 14t-67.5 -14t-49.5 -37.5t-30.5 -54.5t-10.5 -65t10.5 -65t30.5 -55t49.5 -38t67.5 -14t67.5 14t49.5 38t30.5 55t10.5 65zM561 238q0 -55 -19.5 -101t-54 -79.5t-81.5 -52t-101 -18.5t-101 18.5t-81 52t-53.5 79.5 t-19.5 101t19.5 100.5t53.5 78.5t81 51.5t101 18.5t101 -18.5t81.5 -51.5t54 -78.5t19.5 -100.5zM368 622q0 -26 -18.5 -43t-44.5 -17t-44 17.5t-18 42.5q0 26 18 43.5t44 17.5t44.5 -17.5t18.5 -43.5zM453 758h-296v67h296v-67z" horiz-adv-x="610"/>
<glyph glyph-name="Ymacron" unicode="Ȳ" d="M362 0h-100v306l-265 402h122l196 -320l197 320h115l-265 -402v-306zM460 783h-296v67h296v-67z" horiz-adv-x="624"/>
<glyph glyph-name="ymacron" unicode="ȳ" d="M261 102h2l131 372h100l-230 -586q-12 -30 -26 -53.5t-33 -40t-44.5 -25.5t-60.5 -9q-15 0 -30.5 1.5t-31.5 5.5l9 83q24 -8 47 -8q37 0 55 20.5t33 58.5l30 79l-203 474h105zM399 549h-296v67h296v-67z" horiz-adv-x="504"/>
<glyph glyph-name="commaturnedmod" unicode="ʻ" d="M125 708h79l-68 -250h-94z" horiz-adv-x="246"/>
<glyph glyph-name="afii57929" unicode="ʼ" d="M121 458h-79l69 250h93z" horiz-adv-x="246"/>
<glyph glyph-name="circumflex" unicode="ˆ" d="M291 564h-91l-75 99l-76 -99h-90l112 144h108z" horiz-adv-x="250"/>
<glyph glyph-name="caron" unicode="ˇ" d="M178 564h-107l-111 144h90l76 -99l76 99h88z" horiz-adv-x="250"/>
<glyph glyph-name="uni02C9" unicode="ˉ" d="M273 797h-296v67h296v-67z" horiz-adv-x="250"/>
<glyph glyph-name="breve" unicode="˘" d="M284 708q-6 -69 -49.5 -103.5t-109.5 -34.5q-67 0 -110.5 34.5t-48.5 103.5h56q7 -38 36 -55t67 -17q41 0 68 15.5t36 56.5h55z" horiz-adv-x="250"/>
<glyph glyph-name="dotaccent" unicode="˙" d="M188 645q0 -26 -18.5 -43t-44.5 -17t-44 17.5t-18 42.5q0 26 18 43.5t44 17.5t44.5 -17.5t18.5 -43.5z" horiz-adv-x="250"/>
<glyph glyph-name="ring" unicode="˚" d="M184 653q0 24 -17.5 40t-41.5 16q-23 0 -40.5 -16t-17.5 -40t17.5 -40.5t40.5 -16.5q24 0 41.5 16t17.5 41zM226 653q0 -43 -29.5 -71t-71.5 -28q-21 0 -39 7.5t-31.5 20.5t-21.5 31t-8 39q0 43 29 71t71 28t71.5 -28t29.5 -70z" horiz-adv-x="250"/>
<glyph glyph-name="ogonek" unicode="˛" d="M206 -189q-20 -17 -44.5 -27t-50.5 -10q-19 0 -36.5 6t-31 17t-21.5 27.5t-8 36.5q0 21 9 42t23 39.5t30.5 35t32.5 28.5h54q-15 -14 -29 -29.5t-25.5 -31.5t-18.5 -32t-7 -32q0 -20 14 -33.5t34 -13.5q14 0 28 6t25 16z" horiz-adv-x="250"/>
<glyph glyph-name="tilde" unicode="˜" d="M-48 572q4 22 10.5 42.5t18.5 37t29.5 26.5t43.5 10q19 0 38.5 -6t36.5 -14q20 -9 36.5 -15.5t30.5 -6.5q22 0 32.5 14.5t15.5 31.5h54q-4 -22 -10.5 -42.5t-18.5 -37t-30 -26.5t-43 -10q-19 0 -39 6.5t-38 14.5q-18 9 -34.5 15t-30.5 6q-21 0 -31.5 -14.5t-15.5 -31.5 h-55z" horiz-adv-x="250"/>
<glyph glyph-name="hungarumlaut" unicode="˝" d="M222 564h-77l100 144h113zM39 564h-77l100 144h114z" horiz-adv-x="250"/>
<glyph glyph-name="uni02EE" unicode="ˮ" d="M121 458h-79l69 250h93zM301 458h-79l69 250h93z" horiz-adv-x="426"/>
<glyph glyph-name="gravecmb" unicode="̀" d="M-250 708h113l100 -144h-77z" horiz-adv-x="0"/>
<glyph glyph-name="acutecmb" unicode="́" d="M-173 564h-77l100 144h113z" horiz-adv-x="0"/>
<glyph glyph-name="circumflexcmb" unicode="̂" d="M82 564h-91l-75 99l-76 -99h-90l112 144h108z" horiz-adv-x="0"/>
<glyph glyph-name="tildecmb" unicode="̃" d="M-250 572q4 22 10.5 42.5t18.5 37t29.5 26.5t43.5 10q19 0 38.5 -6t36.5 -14q20 -9 36.5 -15.5t30.5 -6.5q22 0 32.5 14.5t15.5 31.5h54q-4 -22 -10.5 -42.5t-18.5 -37t-30 -26.5t-43 -10q-19 0 -39 6.5t-38 14.5q-18 9 -34.5 15t-30.5 6q-21 0 -31.5 -14.5t-15.5 -31.5 h-55z" horiz-adv-x="0"/>
<glyph glyph-name="macroncmb" unicode="̄" d="M46 597h-296v67h296v-67z" horiz-adv-x="0"/>
<glyph glyph-name="brevecmb" unicode="̆" d="M68 708q-6 -69 -49.5 -103.5t-109.5 -34.5q-67 0 -110.5 34.5t-48.5 103.5h56q7 -38 36 -55t67 -17q41 0 68 15.5t36 56.5h55z" horiz-adv-x="0"/>
<glyph glyph-name="dotaccentcmb" unicode="̇" d="M-125 645q0 -26 -18.5 -43t-44.5 -17t-44 17.5t-18 42.5q0 26 18 43.5t44 17.5t44.5 -17.5t18.5 -43.5z" horiz-adv-x="0"/>
<glyph glyph-name="dieresiscmb" unicode="̈" d="M-56 645q0 24 17.5 42.5t44.5 18.5q26 0 44 -17.5t18 -43.5q0 -25 -18 -42.5t-44 -17.5q-27 0 -44.5 18.5t-17.5 41.5zM-250 645q0 24 17.5 42.5t44.5 18.5q26 0 44 -17.5t18 -43.5q0 -25 -18 -42.5t-44 -17.5q-27 0 -44.5 18.5t-17.5 41.5z" horiz-adv-x="0"/>
<glyph glyph-name="hookabovecomb" unicode="̉" d="M92 555q0 23 9.5 39.5t36.5 30.5q31 15 31 40q0 17 -10 26.5t-30 9.5q-21 0 -33 -11.5t-16 -37.5l-66 8q8 46 38.5 68.5t78.5 22.5q49 0 76.5 -24t27.5 -59q0 -53 -51 -76q-17 -8 -23.5 -17t-6.5 -20h-62z" horiz-adv-x="250"/>
<glyph glyph-name="ringcmb" unicode="̊" d="M-91 653q0 24 -17.5 40t-41.5 16q-23 0 -40.5 -16t-17.5 -40t17.5 -40.5t40.5 -16.5q24 0 41.5 16t17.5 41zM-49 653q0 -43 -29.5 -71t-71.5 -28q-21 0 -39 7.5t-31.5 20.5t-21.5 31t-8 39q0 43 29 71t71 28t71.5 -28t29.5 -70z" horiz-adv-x="0"/>
<glyph glyph-name="hungarumlautcmb" unicode="̋" d="M10 564h-77l100 144h113zM-173 564h-77l100 144h114z" horiz-adv-x="0"/>
<glyph glyph-name="caroncmb" unicode="̌" d="M-32 564h-107l-111 144h90l76 -99l76 99h88z" horiz-adv-x="0"/>
<glyph glyph-name="doublegravecmb" unicode="̏" d="M-440 708h113l100 -144h-77zM-250 708h113l100 -144h-77z" horiz-adv-x="0"/>
<glyph glyph-name="invertedbrevecmb" unicode="̑" d="M0 708q-6 -69 -49.5 -103.5t-109.5 -34.5q-67 0 -110.5 34.5t-48.5 103.5h56q7 -38 36 -55t67 -17q41 0 68 15.5t36 56.5h55z" horiz-adv-x="0"/>
<glyph glyph-name="horncmb" unicode="̛" d="M-220 474q42 0 60 19t18 55q0 15 -4 31t-12 28l81 21q16 -33 16 -80q1 -64 -33 -96t-94 -34h-10q-24 0 -43 4q-23 5 -39 12q-18 8 -33 18l1 22h92z" horiz-adv-x="0"/>
<glyph glyph-name="dotbelowcmb" unicode="̣" d="M-126 -135q0 -26 -19 -46t-48 -20q-28 0 -47.5 19.5t-19.5 45.5q0 27 19 46.5t48 19.5t48 -19t19 -46z" horiz-adv-x="0"/>
<glyph glyph-name="dieresisbelowcmb" unicode="̤" d="M-56 -131q0 24 17.5 42.5t44.5 18.5q26 0 44 -17.5t18 -43.5q0 -25 -18 -42.5t-44 -17.5q-27 0 -44.5 18.5t-17.5 41.5zM-250 -131q0 24 17.5 42.5t44.5 18.5q26 0 44 -17.5t18 -43.5q0 -25 -18 -42.5t-44 -17.5q-27 0 -44.5 18.5t-17.5 41.5z" horiz-adv-x="0"/>
<glyph glyph-name="ringbelowcmb" unicode="̥" d="M-91 -168q0 24 -17.5 40t-41.5 16q-23 0 -40.5 -16t-17.5 -40t17.5 -40.5t40.5 -16.5q24 0 41.5 16t17.5 41zM-49 -168q0 -43 -29.5 -71t-71.5 -28q-21 0 -39 7.5t-31.5 20.5t-21.5 31t-8 39q0 43 29 71t71 28t71.5 -28t29.5 -70z" horiz-adv-x="0"/>
<glyph glyph-name="commabelowcmb" unicode="̦" d="M-180 -320h-80l69 250h94z" horiz-adv-x="0"/>
<glyph glyph-name="cedillacmb" unicode="̧" d="M-141 -69q7 2 13 2h14q17 0 33.5 -4t30 -13t22 -24t8.5 -37q0 -26 -12 -43.5t-30.5 -28t-41 -14.5t-43.5 -4q-26 0 -54 6t-49 17l20 42q37 -17 77 -17q8 0 18.5 2t20 6.5t16 12.5t6.5 21q0 22 -17 30t-37 8q-9 0 -20 -2t-21 -5l-20 20l62 94h50z" horiz-adv-x="0"/>
<glyph glyph-name="ogonekcmb" unicode="̨" d="M-58 -189q-20 -17 -44.5 -27t-50.5 -10q-19 0 -36.5 6t-31 17t-21.5 27.5t-8 36.5q0 21 9 42t23 39.5t30.5 35t32.5 28.5h54q-15 -14 -29 -29.5t-25.5 -31.5t-18.5 -32t-7 -32q0 -20 14 -33.5t34 -13.5q14 0 28 6t25 16z" horiz-adv-x="0"/>
<glyph glyph-name="circumflexbelowcmb" unicode="̭" d="M82 -214h-91l-75 99l-76 -99h-90l112 144h108z" horiz-adv-x="0"/>
<glyph glyph-name="brevebelowcmb" unicode="̮" d="M68 -70q-6 -69 -49.5 -103.5t-109.5 -34.5q-67 0 -110.5 34.5t-48.5 103.5h56q7 -38 36 -55t67 -17q41 0 68 15.5t36 56.5h55z" horiz-adv-x="0"/>
<glyph glyph-name="tildebelowcmb" unicode="̰" d="M-250 -190q4 22 10.5 42.5t18.5 37t29.5 26.5t43.5 10q19 0 38.5 -6t36.5 -14q20 -9 36.5 -15.5t30.5 -6.5q22 0 32.5 14.5t15.5 31.5h54q-4 -22 -10.5 -42.5t-18.5 -37t-30 -26.5t-43 -10q-19 0 -39 6.5t-38 14.5q-18 9 -34.5 15t-30.5 6q-21 0 -31.5 -14.5t-15.5 -31.5 h-55z" horiz-adv-x="0"/>
<glyph glyph-name="macronbelowcmb" unicode="̱" d="M46 -137h-296v67h296v-67z" horiz-adv-x="0"/>
<glyph glyph-name="gravetonecmb" unicode="̀" d="M-250 708h113l100 -144h-77z" horiz-adv-x="0"/>
<glyph glyph-name="acutetonecmb" unicode="́" d="M-173 564h-77l100 144h113z" horiz-adv-x="0"/>
<glyph glyph-name="dialytikatonoscmb" unicode="̈́" d="M-56 645q0 24 17.5 42.5t44.5 18.5q26 0 44 -17.5t18 -43.5q0 -25 -18 -42.5t-44 -17.5q-27 0 -44.5 18.5t-17.5 41.5zM-250 645q0 24 17.5 42.5t44.5 18.5q26 0 44 -17.5t18 -43.5q0 -25 -18 -42.5t-44 -17.5q-27 0 -44.5 18.5t-17.5 41.5zM-120 781h-77l100 144h113z " horiz-adv-x="0"/>
<glyph glyph-name="combininggraphemejoiner" unicode="͏" horiz-adv-x="0"/>
<glyph glyph-name="uni037E" unicode=";" d="M123 -133h-80l69 250h94zM217 415q0 -27 -19 -46.5t-48 -19.5q-28 0 -47.5 19t-19.5 46q0 26 19 46t48 20t48 -19.5t19 -45.5z" horiz-adv-x="300"/>
<glyph glyph-name="u0384" unicode="΄" d="M88 725h83l-10 -186h-62z" horiz-adv-x="260"/>
<glyph glyph-name="u0385" unicode="΅" d="M84 745h78l-10 -208h-57zM213 582q0 19 14 34t35 15q22 0 36 -15t14 -34q0 -20 -14 -35t-36 -15q-21 0 -35 15t-14 35zM-66 582q0 19 14 34t36 15q21 0 35 -15t14 -34q0 -20 -14 -35t-35 -15q-22 0 -36 15t-14 35z" horiz-adv-x="240"/>
<glyph glyph-name="u0386" unicode="Ά" d="M220 258h277l-138 342zM116 0h-106l304 708h94l302 -708h-108l-73 174h-342zM68 755h83l-10 -186h-62z" horiz-adv-x="714"/>
<glyph glyph-name="anoteleia" unicode="·" d="M198 303q0 -26 -19 -46t-48 -20t-48.5 19.5t-19.5 45.5q0 27 19.5 47t48.5 20q28 0 47.5 -19.5t19.5 -46.5z" horiz-adv-x="260"/>
<glyph glyph-name="u0388" unicode="Έ" d="M254 85h366v-85h-462v708h449v-85h-353v-215h330v-82h-330v-241zM0 755h82l-10 -186h-61z" horiz-adv-x="665"/>
<glyph glyph-name="u0389" unicode="Ή" d="M143 708h98v-297h358v297h97v-708h-97v325h-358v-325h-98v708zM0 755h82l-10 -186h-61z" horiz-adv-x="785"/>
<glyph glyph-name="u038A" unicode="Ί" d="M248 0h-98v708h98v-708zM0 755h82l-10 -186h-61z" horiz-adv-x="337"/>
<glyph glyph-name="u038C" unicode="Ό" d="M736 355q0 58 -19 109.5t-54 90.5t-85 62t-112 23t-112 -23t-85 -62t-54 -90.5t-19 -109.5q0 -59 19 -111t54 -91t85 -61.5t112 -22.5t112 22.5t85 61.5t54 91t19 111zM839 355q0 -82 -28 -150.5t-78 -118t-118.5 -77t-148.5 -27.5t-148.5 27.5t-118.5 77t-78 118 t-28 150.5t28 150t78 117t118.5 76.5t148.5 27.5t148.5 -27.5t118.5 -76.5t78 -117t28 -150zM0 755h82l-10 -186h-61z" horiz-adv-x="891"/>
<glyph glyph-name="u038E" unicode="Ύ" d="M492 0h-97v304l-265 404h120l197 -322l199 322h113l-267 -404v-304zM0 755h82l-10 -186h-61z" horiz-adv-x="754"/>
<glyph glyph-name="u038F" unicode="Ώ" d="M502 0v192q89 17 139 73t50 144q0 55 -18 97.5t-49.5 71t-76 43.5t-96.5 15q-53 0 -97 -15t-76.5 -43.5t-50.5 -71t-18 -97.5q0 -46 14 -83t39 -65t60.5 -45.5t78.5 -23.5v-192h-278v81h196v58q-47 10 -86 34t-67.5 59.5t-44 81t-15.5 98.5q0 73 27.5 130.5t75 97.5 t110.5 61t134 21q70 0 132.5 -21.5t108.5 -61.5t73 -97t27 -129q0 -50 -16.5 -95.5t-45.5 -82t-68 -62t-83 -34.5v-58h198v-81h-277zM0 738h82l-10 -186h-61z" horiz-adv-x="835"/>
<glyph glyph-name="u0390" unicode="ΐ" d="M202 0h-92v476h92v-476zM120 750h77l-10 -208h-56zM248 587q0 19 14 34t36 15q21 0 35 -15t14 -34t-14 -34.5t-35 -15.5q-22 0 -36 15.5t-14 34.5zM-31 587q0 19 14 34t36 15t36 -15t14 -34t-14 -34.5t-36 -15.5t-36 15.5t-14 34.5z" horiz-adv-x="313"/>
<glyph glyph-name="u0391" unicode="Α" d="M213 258h278l-138 342zM110 0h-106l304 708h94l302 -708h-109l-72 174h-342z" horiz-adv-x="707"/>
<glyph glyph-name="u0392" unicode="Β" d="M184 81h125q34 0 66 6.5t56.5 21.5t39 38.5t14.5 58.5q0 63 -44.5 93t-122.5 30h-134v-248zM184 405h132q25 0 50 6t44 19t31 34.5t12 52.5q0 30 -11.5 50.5t-32.5 34t-49 19.5t-61 6h-115v-222zM89 708h229q40 0 81.5 -8.5t74.5 -29t54 -55.5t21 -88q0 -57 -33.5 -98 t-89.5 -55v-2q34 -4 62.5 -17.5t49.5 -35.5t33 -52.5t12 -67.5q0 -48 -19.5 -85t-55 -62.5t-84.5 -38.5t-107 -13h-228v708z" horiz-adv-x="643"/>
<glyph glyph-name="u0393" unicode="Γ" d="M186 0h-97v708h413v-86h-316v-622z" horiz-adv-x="512"/>
<glyph glyph-name="u0394" unicode="Δ" d="M351 604l-213 -521h427zM35 0v76l269 632h98l272 -631v-77h-639z" horiz-adv-x="710"/>
<glyph glyph-name="u0395" unicode="Ε" d="M184 85h367v-85h-462v708h448v-85h-353v-215h331v-82h-331v-241z" horiz-adv-x="596"/>
<glyph glyph-name="u0396" unicode="Ζ" d="M549 628l-396 -542h402v-86h-522v83l394 540h-384v85h506v-80z" horiz-adv-x="588"/>
<glyph glyph-name="u0397" unicode="Η" d="M89 708h97v-297h358v297h97v-708h-97v325h-358v-325h-97v708z" horiz-adv-x="730"/>
<glyph glyph-name="u0398" unicode="Θ" d="M695 355q0 58 -19 109.5t-54 90.5t-85 62t-112 23t-112 -23t-85 -62t-54 -90.5t-19 -109.5q0 -59 19 -111t54 -91t85 -61.5t112 -22.5t112 22.5t85 61.5t54 91t19 111zM798 355q0 -82 -28 -150.5t-78 -118t-118.5 -77t-148.5 -27.5t-148.5 27.5t-118.5 77t-78 118 t-28 150.5t28 150t78 117t118.5 76.5t148.5 27.5t148.5 -27.5t118.5 -76.5t78 -117t28 -150zM652 399v-79h-455v79h455z" horiz-adv-x="850"/>
<glyph glyph-name="u0399" unicode="Ι" d="M186 0h-97v708h97v-708z" horiz-adv-x="275"/>
<glyph glyph-name="u039A" unicode="Κ" d="M185 398h2l315 310h132l-344 -322l363 -386h-136l-331 364h-1v-364h-96v708h96v-310z" horiz-adv-x="649"/>
<glyph glyph-name="u039B" unicode="Λ" d="M113 0h-106l298 708h97l298 -708h-107l-240 581z" horiz-adv-x="707"/>
<glyph glyph-name="u039C" unicode="Μ" d="M452 156h2l216 552h145v-708h-96l1 586h-3l-237 -586h-59l-236 586h-3l1 -586h-94v708h144z" horiz-adv-x="904"/>
<glyph glyph-name="u039D" unicode="Ν" d="M585 141h2l-1 567h96v-708h-117l-379 572h-2l1 -572h-96v708h117z" horiz-adv-x="771"/>
<glyph glyph-name="u039E" unicode="Ξ" d="M544 86v-86h-499v86h499zM504 407v-82h-431v82h431zM535 708v-86h-490v86h490z" horiz-adv-x="590"/>
<glyph glyph-name="u039F" unicode="Ο" d="M695 355q0 58 -19 109.5t-54 90.5t-85 62t-112 23t-112 -23t-85 -62t-54 -90.5t-19 -109.5q0 -59 19 -111t54 -91t85 -61.5t112 -22.5t112 22.5t85 61.5t54 91t19 111zM798 355q0 -82 -28 -150.5t-78 -118t-118.5 -77t-148.5 -27.5t-148.5 27.5t-118.5 77t-78 118 t-28 150.5t28 150t78 117t118.5 76.5t148.5 27.5t148.5 -27.5t118.5 -76.5t78 -117t28 -150z" horiz-adv-x="850"/>
<glyph glyph-name="u03A0" unicode="Π" d="M622 708v-708h-97v622h-339v-622h-97v708h533z" horiz-adv-x="710"/>
<glyph glyph-name="u03A1" unicode="Ρ" d="M186 393h109q75 0 117.5 29t42.5 89q0 62 -43 89t-116 27h-110v-234zM89 708h215q55 0 101 -11.5t79 -35.5t51 -61t18 -88t-19 -88.5t-52.5 -62t-80 -36.5t-100.5 -12h-115v-313h-97v708z" horiz-adv-x="595"/>
<glyph glyph-name="u03A3" unicode="Σ" d="M56 0v64l298 290v6l-298 283v65h496v-83h-357l287 -265v-8l-277 -269h357v-83h-506z" horiz-adv-x="607"/>
<glyph glyph-name="u03A4" unicode="Τ" d="M335 0h-97v623h-228v85h553v-85h-228v-623z" horiz-adv-x="573"/>
<glyph glyph-name="u03A5" unicode="Υ" d="M357 0h-97v304l-265 404h120l197 -322l199 322h113l-267 -404v-304z" horiz-adv-x="619"/>
<glyph glyph-name="u03A6" unicode="Φ" d="M716 354q0 47 -16 88.5t-46 73.5t-73.5 53t-98.5 27v-484q55 6 98.5 27t73.5 53t46 73.5t16 88.5zM151 354q0 -48 16 -89.5t46 -73.5t74 -53t100 -27v485q-56 -6 -100 -26.5t-74 -53t-46 -74t-16 -88.5zM482 683q73 -6 135 -32t107 -69t70 -100.5t25 -127.5t-25 -128 t-70 -101t-107 -69t-135 -32v-80h-95v80q-74 6 -136.5 32t-107.5 69t-70.5 101t-25.5 128t25.5 128t70.5 100.5t107.5 68.5t136.5 32v74h95v-74z" horiz-adv-x="867"/>
<glyph glyph-name="u03A7" unicode="Χ" d="M332 439l177 269h115l-232 -336l259 -372h-121l-201 301l-198 -301h-119l257 373l-235 335h120z" horiz-adv-x="663"/>
<glyph glyph-name="u03A8" unicode="Ψ" d="M477 231h22q38 0 71.5 11t58.5 33.5t39.5 56.5t14.5 81v295h97v-306q0 -64 -22.5 -112t-61 -80t-90 -48t-109.5 -16h-20v-146h-97v146h-28q-58 0 -108 16t-87 48t-58.5 80t-21.5 112v306h97v-295q0 -47 14 -81t39 -56.5t58.5 -33.5t71.5 -11h23v477h97v-477z" horiz-adv-x="857"/>
<glyph glyph-name="u03A9" unicode="Ω" d="M437 0v192q88 17 138.5 73t50.5 144q0 55 -18 97.5t-50 71t-76 43.5t-97 15q-52 0 -96 -15t-76.5 -43.5t-50.5 -71t-18 -97.5q0 -92 52 -148t140 -69v-192h-278v81h195v58q-47 10 -86 34t-67 59.5t-44 81t-16 98.5q0 73 27.5 130.5t75 97.5t110.5 61t134 21t133 -21.5 t108.5 -61.5t73.5 -97t27 -129q0 -50 -16.5 -95.5t-45.5 -82t-68 -62t-84 -34.5v-58h199v-81h-277z" horiz-adv-x="769"/>
<glyph glyph-name="u03AA" unicode="Ϊ" d="M178 848q0 23 16.5 40.5t42.5 17.5t42.5 -17.5t16.5 -40.5t-16.5 -41t-42.5 -18t-42.5 18t-16.5 41zM-21 848q0 23 16.5 40.5t42.5 17.5t43 -17.5t17 -40.5t-17 -41t-43 -18t-42.5 18t-16.5 41zM186 0h-97v708h97v-708z" horiz-adv-x="275"/>
<glyph glyph-name="u03AB" unicode="Ϋ" d="M352 848q0 23 16.5 40.5t42.5 17.5t42.5 -17.5t16.5 -40.5t-16.5 -41t-42.5 -18t-42.5 18t-16.5 41zM153 848q0 23 17 40.5t43 17.5t42.5 -17.5t16.5 -40.5t-16.5 -41t-42.5 -18t-43 18t-17 41zM357 0h-97v304l-265 404h120l197 -322l199 322h113l-267 -404v-304z" horiz-adv-x="619"/>
<glyph glyph-name="u03AC" unicode="ά" d="M143 238q0 -35 10.5 -66.5t31.5 -55t51 -37.5t69 -14q36 0 66.5 13.5t52.5 37t34 55t12 67.5t-12 67.5t-34 55t-52.5 37t-66.5 13.5q-39 0 -69 -14t-51 -37.5t-31.5 -55t-10.5 -66.5zM464 75q-29 -42 -76 -65t-98 -23q-55 0 -99.5 20t-76 54t-48.5 79.5t-17 97.5t17 97.5 t48.5 79.5t76 53.5t99.5 19.5q51 0 96.5 -22.5t73.5 -63.5h2v74h93v-476h-89v75h-2zM288 745h83l-10 -186h-62z" horiz-adv-x="634"/>
<glyph glyph-name="u03AD" unicode="έ" d="M405 354q-12 17 -30 30q-16 11 -41.5 21t-63.5 10q-23 0 -45.5 -4.5t-40 -13t-28.5 -22t-11 -31.5t11 -31.5t29.5 -22t43 -12.5t52.5 -4h95v-70h-82q-83 0 -122.5 -16t-39.5 -54q0 -18 11.5 -31t30.5 -21.5t43 -12.5t49 -4q45 0 76 9.5t51 20.5q23 13 38 31l51 -54 l-15.5 -15.5t-40.5 -29t-68 -28t-99 -12.5q-46 0 -86.5 9.5t-71 27t-48 43t-17.5 57.5q0 31 12.5 53t31.5 36t40.5 20.5t38.5 8.5v2q-18 3 -36.5 11t-34.5 21.5t-26 32.5t-10 43q0 32 17 57.5t46.5 43.5t69 28t83.5 10q53 0 89.5 -12.5t60 -28.5t34.5 -30.5t14 -18.5z M293 745l-10 -186h-61l-11 186h82z" horiz-adv-x="506"/>
<glyph glyph-name="u03AE" unicode="ή" d="M169 476q2 -19 2.5 -40.5t0.5 -37.5h2q10 19 27 35.5t39 28.5t47 19t50 7q46 0 80.5 -15t57.5 -41t34.5 -62t11.5 -78v-532h-92v502q0 33 -5.5 60t-19 47t-36.5 31t-58 11q-57 0 -95.5 -41t-38.5 -122v-248h-93v363q0 23 -0.5 54.5t-2.5 58.5h89zM261 745h82l-10 -186 h-61z" horiz-adv-x="603"/>
<glyph glyph-name="u03AF" unicode="ί" d="M80 762h82l-10 -186h-61zM167 0h-93v476h93v-476z" horiz-adv-x="247"/>
<glyph glyph-name="u03B0" unicode="ΰ" d="M258 750h77l-10 -208h-56zM386 587q0 19 14 34t36 15q21 0 35 -15t14 -34t-14 -34.5t-35 -15.5q-22 0 -36 15.5t-14 34.5zM107 587q0 19 14 34t36 15t36 -15t14 -34t-14 -34.5t-36 -15.5t-36 15.5t-14 34.5zM293 -12q-58 0 -99 18t-66.5 47.5t-37 67.5t-11.5 78v277h93 v-264q0 -27 6 -53.5t20.5 -46.5t37.5 -32.5t58 -12.5q34 0 58 12.5t38.5 32.5t21 46.5t6.5 53.5v264h92v-277q0 -40 -12 -78t-38.5 -67.5t-67.5 -47.5t-99 -18z" horiz-adv-x="589"/>
<glyph glyph-name="u03B1" unicode="α" d="M143 238q0 -35 10.5 -66.5t31.5 -55t51 -37.5t69 -14q36 0 66.5 13.5t52.5 37t34 55t12 67.5t-12 67.5t-34 55t-52.5 37t-66.5 13.5q-39 0 -69 -14t-51 -37.5t-31.5 -55t-10.5 -66.5zM464 75q-29 -42 -76 -65t-98 -23q-55 0 -99.5 20t-76 54t-48.5 79.5t-17 97.5t17 97.5 t48.5 79.5t76 53.5t99.5 19.5q51 0 96.5 -22.5t73.5 -63.5h2v74h93v-476h-89v75h-2z" horiz-adv-x="634"/>
<glyph glyph-name="u03B2" unicode="β" d="M178 -240h-93v776q0 54 16.5 95.5t45 70t67.5 43t84 14.5q43 0 81.5 -13t68 -37t47 -59.5t17.5 -80.5q0 -35 -10.5 -63.5t-27 -50t-38 -34.5t-42.5 -16v-3q24 0 56.5 -11t62 -34t50 -60t20.5 -89q0 -49 -18.5 -89t-50 -69t-73.5 -45t-90 -16q-49 0 -82 15t-53 33 q-24 21 -38 48v-325zM178 234q0 -41 12 -72t33 -52t49.5 -31.5t61.5 -10.5q31 0 59 9.5t48.5 28t32.5 45.5t12 62q0 70 -46 108.5t-125 38.5h-62v75h52q49 0 82 31t33 87q0 59 -35.5 93.5t-87.5 34.5q-51 0 -85 -37t-34 -118v-292z" horiz-adv-x="638"/>
<glyph glyph-name="u03B3" unicode="γ" d="M327 -240h-93v280l-224 436h108l164 -351l157 351h102l-214 -436v-280z" horiz-adv-x="552"/>
<glyph glyph-name="u03B4" unicode="δ" d="M469 236q0 36 -11 67t-32 53.5t-51 35.5t-68 13t-68 -13t-50.5 -35.5t-31.5 -53.5t-11 -67t11 -67.5t31.5 -54t50.5 -35.5t68 -13t68 13t51 35.5t32 54t11 67.5zM85 624q0 31 17.5 55.5t50 41.5t77.5 26.5t100 9.5q48 0 86 -6t65 -14q32 -9 56 -20l-25 -81q-23 11 -53 20 q-26 8 -60.5 14t-76.5 6q-27 0 -51 -3t-42 -10t-29 -18t-11 -26q0 -12 7 -22.5t22 -20t39.5 -20t60.5 -23.5q39 -15 82 -38.5t79.5 -59.5t60 -85t23.5 -114q0 -53 -18.5 -98.5t-52 -79t-80.5 -52.5t-105 -19q-56 0 -103 18.5t-80.5 52t-52.5 79t-19 99.5q0 52 18.5 94.5 t49.5 73t71.5 48t84.5 19.5q5 1 10 1h10l3 4q-6 1 -17 5q-10 3 -28 9.5t-46 17.5q-15 6 -36.5 14.5t-40.5 22t-32.5 33t-13.5 46.5z" horiz-adv-x="615"/>
<glyph glyph-name="u03B5" unicode="ε" d="M405 354q-12 17 -30 30q-16 11 -41.5 21t-63.5 10q-23 0 -45.5 -4.5t-40 -13t-28.5 -22t-11 -31.5t11 -31.5t29.5 -22t43 -12.5t52.5 -4h95v-70h-82q-83 0 -122.5 -16t-39.5 -54q0 -18 11.5 -31t30.5 -21.5t43 -12.5t49 -4q45 0 76 9.5t51 20.5q23 13 38 31l51 -54 l-15.5 -15.5t-40.5 -29t-68 -28t-99 -12.5q-46 0 -86.5 9.5t-71 27t-48 43t-17.5 57.5q0 31 12.5 53t31.5 36t40.5 20.5t38.5 8.5v2q-18 3 -36.5 11t-34.5 21.5t-26 32.5t-10 43q0 32 17 57.5t46.5 43.5t69 28t83.5 10q53 0 89.5 -12.5t60 -28.5t34.5 -30.5t14 -18.5z" horiz-adv-x="506"/>
<glyph glyph-name="u03B6" unicode="ζ" d="M292 1q-42 9 -85 26t-77.5 47.5t-56.5 76.5t-22 112q0 78 28.5 142t72 115t95 90t99.5 69h-266v76h407v-68q-75 -49 -138 -96.5t-108 -98t-70 -106t-25 -120.5q0 -44 14 -76t41.5 -55.5t69 -40t95.5 -29.5q129 -29 131 -138q0 -39 -19 -69t-46 -52t-56 -35t-48 -18 l-60 57q21 6 45 15.5t44 22.5t33 30t13 38q0 22 -9 36.5t-24.5 24t-35.5 15t-42 9.5z" horiz-adv-x="516"/>
<glyph glyph-name="u03B7" unicode="η" d="M169 476q2 -19 2.5 -40.5t0.5 -37.5h2q10 19 27 35.5t39 28.5t47 19t50 7q46 0 80.5 -15t57.5 -41t34.5 -62t11.5 -78v-532h-92v502q0 33 -5.5 60t-19 47t-36.5 31t-58 11q-57 0 -95.5 -41t-38.5 -122v-248h-93v363q0 23 -0.5 54.5t-2.5 58.5h89z" horiz-adv-x="600"/>
<glyph glyph-name="u03B8" unicode="θ" d="M154 332q2 -59 11.5 -109t29 -86.5t48.5 -57t70 -20.5q42 0 72 21.5t48.5 58.5t28 86.5t11.5 105.5zM313 686q-41 0 -70 -21t-48.5 -58t-29 -87.5t-11.5 -108.5h319q-2 57 -11 107t-28.5 87.5t-49 59t-71.5 21.5zM313 761q67 0 115 -29.5t79 -82t45.5 -124t14.5 -154.5 t-14 -154t-44.5 -123t-79 -81.5t-116.5 -29.5t-116 29.5t-78 81.5t-44 123t-14 154t14.5 154.5t45 124t78 82t114.5 29.5z" horiz-adv-x="619"/>
<glyph glyph-name="u03B9" unicode="ι" d="M167 0h-93v476h93v-476z" horiz-adv-x="241"/>
<glyph glyph-name="u03BA" unicode="κ" d="M173 267h3l202 209h121l-225 -217l245 -259h-124l-219 244h-3v-244h-92v476h92v-209z" horiz-adv-x="551"/>
<glyph glyph-name="u03BB" unicode="λ" d="M124 0h-99l202 504l-22 59q-10 26 -18 45.5t-18.5 33t-26 20t-40.5 6.5q-23 0 -38 -5.5t-25 -10.5l-16 75q18 7 40 14t57 7q43 0 70 -10.5t45 -30.5t30.5 -48.5t26.5 -65.5l233 -593h-99l-150 401h-2z" horiz-adv-x="536"/>
<glyph glyph-name="u03BC" unicode="μ" d="M80 476h93v-254q0 -83 26.5 -118.5t92.5 -35.5q57 0 93.5 42.5t36.5 125.5v240h92v-373q0 -26 1.5 -51.5t3.5 -51.5h-95l-2 73h-2q-20 -36 -53.5 -60.5t-76.5 -24.5q-51 0 -78 21.5t-38 58.5h-2v-308h-92v716z" horiz-adv-x="600"/>
<glyph glyph-name="u03BD" unicode="ν" d="M305 0h-101l-192 476h103l139 -378h3l140 378h100z" horiz-adv-x="508"/>
<glyph glyph-name="u03BE" unicode="ξ" d="M51 182q0 45 18 77.5t47.5 55t66 35t74.5 17.5q-32 4 -66 13.5t-62 27.5t-46.5 47t-18.5 72q0 35 12.5 60.5t34 43.5t51 29t63.5 18v3h-161v73h387v-65q-70 -7 -124 -16.5t-91 -27t-56 -44t-19 -67.5q0 -32 14 -55t39 -38t59 -22t75 -7h94v-90h-124q-36 0 -66.5 -8 t-53.5 -24t-36 -38.5t-13 -51.5q0 -33 13 -55t39.5 -37t66.5 -25.5t95 -21.5q71 -15 99.5 -50t28.5 -83q0 -38 -19.5 -68t-46.5 -51.5t-56.5 -34.5t-49.5 -18l-63 52q19 4 43 13t45 22t35 30.5t14 38.5q0 38 -29.5 58.5t-91.5 30.5q-40 6 -79.5 17t-71 31.5t-51 52.5 t-19.5 80z" horiz-adv-x="511"/>
<glyph glyph-name="u03BF" unicode="ο" d="M471 238q0 36 -11.5 67.5t-32.5 55t-51 37t-68 13.5t-68 -13.5t-51 -37t-32 -55t-11 -67.5q0 -35 11 -66.5t32 -55t51 -37.5t68 -14t68 14t51 37.5t32.5 55t11.5 66.5zM565 238q0 -55 -19.5 -101t-54 -79.5t-81.5 -52t-102 -18.5t-101.5 18.5t-81 52t-54 79.5t-19.5 101 t19.5 101t54 79.5t81 52t101.5 18.5t102 -18.5t81.5 -52t54 -79.5t19.5 -101z" horiz-adv-x="617"/>
<glyph glyph-name="u03C0" unicode="π" d="M173 0h-93v476h421v-476h-93v401h-235v-401z" horiz-adv-x="581"/>
<glyph glyph-name="u03C1" unicode="ρ" d="M495 238q0 37 -10.5 68.5t-31.5 55t-51 36.5t-69 13q-36 0 -66 -13.5t-51.5 -36.5t-33 -54.5t-11.5 -68.5q0 -39 12 -71t33.5 -54.5t51.5 -35t65 -12.5q39 0 69 13.5t51 37t31.5 55t10.5 67.5zM174 -240h-91v474q0 61 20.5 109t55.5 80t81.5 49t97.5 17q55 0 101 -19 t79 -53t51.5 -80t18.5 -100t-18.5 -100t-51.5 -79t-79 -52t-101 -19q-49 0 -92 20.5t-69 55.5h-3v-303z" horiz-adv-x="640"/>
<glyph glyph-name="u03C2" unicode="ς" d="M325 71q24 -5 50.5 -14t48 -25.5t35.5 -42t14 -62.5q0 -39 -19 -69t-46 -52t-56 -35t-48 -18l-60 57q21 6 45 15.5t44 22.5t33 30t13 38q0 23 -9 37.5t-23 23t-30.5 12.5t-31.5 7t-38.5 8.5t-49 16t-51.5 27.5t-47 42.5t-34 61.5t-13 85q0 58 19.5 104.5t53.5 79.5 t80 50.5t99 17.5q57 0 106.5 -20.5t79.5 -60.5l-63 -56q-15 24 -45 41.5t-76 17.5q-35 0 -64 -11.5t-50.5 -33.5t-33.5 -54t-12 -72q0 -47 15.5 -76.5t40.5 -47.5t57 -28t66 -17z" horiz-adv-x="516"/>
<glyph glyph-name="u03C3" unicode="σ" d="M469 238q0 36 -11.5 67.5t-32.5 55t-51.5 37t-67.5 13.5t-67 -13.5t-51.5 -37t-33 -55t-11.5 -67.5t11.5 -67.5t33 -55t51.5 -37t67 -13.5t67.5 13.5t51.5 37t32.5 55t11.5 67.5zM502 400v-3q24 -25 41.5 -66.5t17.5 -94.5t-19 -98.5t-52.5 -79t-80.5 -52.5t-103 -19 t-102.5 19t-80 52.5t-52.5 79.5t-19 100t19 100t52.5 79.5t80 52.5t102.5 19q26 0 44.5 -2t36.5 -4t39 -4t52 -2h155v-77h-131z" horiz-adv-x="641"/>
<glyph glyph-name="u03C4" unicode="τ" d="M8 476h461v-75h-185v-401h-92v401h-184v75z" horiz-adv-x="477"/>
<glyph glyph-name="u03C5" unicode="υ" d="M293 -12q-58 0 -99 18t-66.5 47.5t-37 67.5t-11.5 78v277h93v-264q0 -27 6 -53.5t20.5 -46.5t37.5 -32.5t58 -12.5q34 0 58 12.5t38 32.5t20.5 46.5t6.5 53.5v264h93v-277q0 -40 -12.5 -78t-38.5 -67.5t-67 -47.5t-99 -18z" horiz-adv-x="589"/>
<glyph glyph-name="u03C6" unicode="φ" d="M52 245q0 53 18 93t46.5 69.5t63 48t68.5 28.5l37 -68q-24 -7 -48.5 -20.5t-45 -34.5t-33 -49t-12.5 -65q0 -47 16.5 -80.5t46 -55.5t70 -33t89.5 -12v414h128q54 0 102.5 -16.5t84.5 -47t57 -73.5t21 -97q0 -65 -26.5 -113.5t-69.5 -80.5t-98 -48t-111 -16v-228h-88v228 q-66 1 -123.5 17t-100.5 47.5t-67.5 79.5t-24.5 113zM667 247q0 48 -18.5 78.5t-46 47.5t-58 23.5t-54.5 6.5h-34v-337q45 0 84 11.5t67 34t44 56.5t16 79z" horiz-adv-x="813"/>
<glyph glyph-name="u03C7" unicode="χ" d="M133 476l149 -270l148 270h98l-192 -339l212 -376h-101l-167 307l-166 -307h-100l211 377l-192 338h100z" horiz-adv-x="561"/>
<glyph glyph-name="u03C8" unicode="ψ" d="M449 66q88 3 141.5 53t53.5 152v205h93v-222q0 -66 -22 -116t-61 -84t-91.5 -51.5t-113.5 -17.5v-225h-93v225q-62 0 -114.5 17.5t-91.5 51.5t-61 84t-22 116v222h93v-205q0 -101 53.5 -151.5t142.5 -53.5v410h93v-410z" horiz-adv-x="804"/>
<glyph glyph-name="u03C9" unicode="ω" d="M295 421q-80 -26 -119 -70.5t-39 -124.5q0 -34 7 -63t21 -50t34.5 -33t47.5 -12q48 0 79.5 39.5t31.5 118.5v86h93v-86q0 -79 31 -118t80 -39q27 0 47.5 11.5t34.5 32.5t21 50t7 63q0 80 -39 124.5t-119 70.5l48 62q38 -11 74.5 -31.5t65 -52.5t46 -76.5t17.5 -104.5 q0 -50 -13.5 -91.5t-39 -71.5t-62.5 -47t-83 -17q-67 0 -109.5 37.5t-50.5 105.5h-4q-10 -71 -53 -108t-108 -37q-46 0 -83 17t-62.5 47t-39 72t-13.5 93q0 62 17.5 107t46 76.5t65 51t74.5 30.5z" horiz-adv-x="809"/>
<glyph glyph-name="u03CA" unicode="ϊ" d="M172 650q0 23 16.5 40.5t42.5 17.5t43 -17.5t17 -40.5t-17 -41t-43 -18t-42.5 18t-16.5 41zM-26 650q0 23 16.5 40.5t42.5 17.5t42.5 -17.5t16.5 -40.5t-16.5 -41t-42.5 -18t-42.5 18t-16.5 41zM177 0h-92v476h92v-476z" horiz-adv-x="262"/>
<glyph glyph-name="u03CB" unicode="ϋ" d="M307 -12q-58 0 -99 18t-66.5 47.5t-37 67.5t-11.5 78v277h92v-264q0 -27 6.5 -53.5t20.5 -46.5t37.5 -32.5t58.5 -12.5q34 0 57.5 12.5t38 32.5t21 46.5t6.5 53.5v264h93v-277q0 -40 -12.5 -78t-38.5 -67.5t-67 -47.5t-99 -18zM345 650q0 23 16.5 40.5t42.5 17.5 t42.5 -17.5t16.5 -40.5t-16.5 -41t-42.5 -18t-42.5 18t-16.5 41zM146 650q0 23 16.5 40.5t42.5 17.5t43 -17.5t17 -40.5t-17 -41t-43 -18t-42.5 18t-16.5 41z" horiz-adv-x="589"/>
<glyph glyph-name="u03CC" unicode="ό" d="M268 732h82l-10 -185h-61zM471 238q0 36 -11.5 67.5t-32.5 55t-51 37t-68 13.5t-68 -13.5t-51 -37t-32 -55t-11 -67.5q0 -35 11 -66.5t32 -55t51 -37.5t68 -14t68 14t51 37.5t32.5 55t11.5 66.5zM565 238q0 -55 -19.5 -101t-54 -79.5t-81.5 -52t-102 -18.5t-101.5 18.5 t-81 52t-54 79.5t-19.5 101t19.5 101t54 79.5t81 52t101.5 18.5t102 -18.5t81.5 -52t54 -79.5t19.5 -101z" horiz-adv-x="617"/>
<glyph glyph-name="u03CD" unicode="ύ" d="M293 -12q-58 0 -99 18t-66.5 47.5t-37 67.5t-11.5 78v277h93v-264q0 -27 6 -53.5t20.5 -46.5t37.5 -32.5t58 -12.5q34 0 58 12.5t38.5 32.5t21 46.5t6.5 53.5v264h92v-277q0 -40 -12 -78t-38.5 -67.5t-67.5 -47.5t-99 -18zM254 725h83l-10 -186h-62z" horiz-adv-x="589"/>
<glyph glyph-name="u03CE" unicode="ώ" d="M295 421q-80 -26 -119 -70.5t-39 -124.5q0 -34 7 -63t21 -50t34.5 -33t47.5 -12q48 0 79.5 39.5t31.5 118.5v86h93v-86q0 -79 31 -118t80 -39q27 0 47.5 11.5t34.5 32.5t21 50t7 63q0 80 -39 124.5t-119 70.5l48 62q38 -11 74.5 -31.5t65 -52.5t46 -76.5t17.5 -104.5 q0 -50 -13.5 -91.5t-39 -71.5t-62.5 -47t-83 -17q-67 0 -109.5 37.5t-50.5 105.5h-4q-10 -71 -53 -108t-108 -37q-46 0 -83 17t-62.5 47t-39 72t-13.5 93q0 62 17.5 107t46 76.5t65 51t74.5 30.5zM443 725l-10 -186h-61l-11 186h82z" horiz-adv-x="809"/>
<glyph glyph-name="u0401" unicode="Ё" d="M356 848q0 23 16.5 40.5t42.5 17.5t42.5 -17.5t16.5 -40.5t-16.5 -41t-42.5 -18t-42.5 18t-16.5 41zM157 848q0 23 16.5 40.5t42.5 17.5t43 -17.5t17 -40.5t-17 -41t-43 -18t-42.5 18t-16.5 41zM184 85h367v-85h-462v708h448v-85h-353v-215h331v-82h-331v-241z" horiz-adv-x="596"/>
<glyph glyph-name="u0402" unicode="Ђ" d="M10 622v86h535v-86h-244v-165h123q65 0 113 -17.5t79.5 -48t47 -72.5t15.5 -91q0 -48 -16 -90t-47.5 -72.5t-78.5 -48.5t-110 -18l-34 1v86h49q26 0 51 9t44.5 26.5t31 43.5t11.5 61q0 67 -39 105.5t-119 38.5h-121v-370h-97v622h-194z" horiz-adv-x="727"/>
<glyph glyph-name="u0403" unicode="Ѓ" d="M186 0h-97v708h413v-86h-316v-622zM451 908l-136 -144h-75l101 144h110z" horiz-adv-x="526"/>
<glyph glyph-name="u0404" unicode="Є" d="M692 112q-18 -27 -44.5 -50.5t-60 -41t-74 -28t-88.5 -10.5q-82 0 -150.5 28t-118 77.5t-77 117.5t-27.5 149t28 149t78 117.5t118 77.5t149 28q82 0 149.5 -28.5t105.5 -81.5l-72 -64q-23 35 -70 61.5t-112 26.5q-55 0 -100.5 -18t-80 -50t-56.5 -75t-29 -94h398v-81 h-400q5 -54 26.5 -100.5t56.5 -80.5t82 -53t103 -19q59 0 109.5 23t86.5 74z" horiz-adv-x="725"/>
<glyph glyph-name="u0405" unicode="Ѕ" d="M440 576q-23 32 -59 50.5t-82 18.5q-24 0 -48.5 -7t-44.5 -21.5t-32.5 -36.5t-12.5 -53q0 -30 11.5 -49.5t31 -33t45.5 -23t54 -18.5q37 -12 75 -26.5t68.5 -37t50 -57.5t19.5 -88q0 -55 -21 -95t-55 -66t-77 -38.5t-88 -12.5q-68 0 -130.5 26.5t-103.5 77.5l75 64 q24 -37 65.5 -61.5t94.5 -24.5q25 0 50 7.5t45.5 22.5t33 38t12.5 54q0 33 -13 54.5t-35.5 36.5t-53 26t-64.5 22q-35 11 -68.5 25.5t-60 37t-43 55.5t-16.5 81q0 53 21.5 91.5t56 63t77 36t84.5 11.5q69 0 123 -24.5t85 -61.5z" horiz-adv-x="571"/>
<glyph glyph-name="u0406" unicode="І" d="M186 0h-97v708h97v-708z" horiz-adv-x="275"/>
<glyph glyph-name="u0407" unicode="Ї" d="M182 848q0 23 16.5 40.5t42.5 17.5t42.5 -17.5t16.5 -40.5t-16.5 -41t-42.5 -18t-42.5 18t-16.5 41zM-17 848q0 23 16.5 40.5t42.5 17.5t43 -17.5t17 -40.5t-17 -41t-43 -18t-42.5 18t-16.5 41zM190 0h-97v708h97v-708z" horiz-adv-x="280"/>
<glyph glyph-name="u0408" unicode="Ј" d="M106 158q8 -38 35 -64t69 -26q33 0 54.5 12t34 32.5t17.5 47.5t5 57v491h97v-494q0 -36 -8 -77t-30 -75.5t-61 -57t-101 -22.5q-80 0 -133 41.5t-67 107.5z" horiz-adv-x="501"/>
<glyph glyph-name="u0409" unicode="Љ" d="M550 329l100 -247q37 0 69 6.5t56 20.5t37.5 36.5t13.5 54.5q0 38 -15 63t-40.5 40t-59 20.5t-70.5 5.5h-91zM117 0h-102l286 708h95l121 -296h128q64 0 115.5 -13t88 -39t56 -67t19.5 -96q0 -43 -18 -79t-52.5 -62.5t-85 -41t-115.5 -14.5h-77l-229 592z" horiz-adv-x="955"/>
<glyph glyph-name="u040A" unicode="Њ" d="M593 330v-245h106q77 0 118.5 31.5t41.5 91.5q0 62 -42.5 92t-117.5 30h-106zM186 708v-294h310v294h97v-294h113q54 0 100 -13.5t79.5 -39.5t52 -66t18.5 -92q0 -50 -18.5 -87.5t-51.5 -63.5t-79 -39t-101 -13h-210v328h-310v-328h-97v708h97z" horiz-adv-x="1004"/>
<glyph glyph-name="u040B" unicode="Ћ" d="M301 369v-369h-97v622h-194v86h535v-86h-244v-167h148q59 0 101 -17.5t69 -49.5t40 -76t13 -98v-214h-97v176q0 46 -6.5 82t-23.5 60.5t-46 37.5t-75 13h-123z" horiz-adv-x="731"/>
<glyph glyph-name="u040C" unicode="Ќ" d="M370 764h-75l101 144h110zM89 0v708h97v-290q24 0 46.5 -1.5t44.5 -3.5l256 295h106l-263 -318q117 -40 183 -136t92 -254h-107q-15 88 -42.5 152t-70.5 104.5t-100.5 58t-128.5 17.5h-16v-332h-97z" horiz-adv-x="697"/>
<glyph glyph-name="u040E" unicode="Ў" d="M205 910q15 -35 47 -58t75 -23q45 0 77 23t45 58l60 -30q-9 -23 -25 -44q-16 -20 -39 -36t-53 -25t-65 -9t-65 9t-52 25q-24 16 -40 36q-16 21 -25 44zM19 708h108l209 -436l201 436h108l-263 -554q-18 -38 -38 -68t-45 -52t-57 -36q-32 -12 -72 -12q-46 0 -72 10t-41 22 l51 76q11 -8 29 -16t44 -8q32 0 56 24t47 67z" horiz-adv-x="649"/>
<glyph glyph-name="u040F" unicode="Џ" d="M527 86v622h97v-708h-215v-139h-89v139h-231v708h97v-622h341z" horiz-adv-x="713"/>
<glyph glyph-name="u0410" unicode="А" d="M213 258h278l-138 342zM110 0h-106l304 708h94l302 -708h-109l-72 174h-342z" horiz-adv-x="707"/>
<glyph glyph-name="u0411" unicode="Б" d="M89 0v708h428v-86h-331v-209h132q55 0 100.5 -13t78.5 -39t51 -64t18 -89t-19 -90t-52.5 -65.5t-79.5 -39.5t-100 -13h-226zM309 86q75 0 118.5 32t43.5 90q0 61 -44.5 90t-116.5 29h-124v-241h123z" horiz-adv-x="625"/>
<glyph glyph-name="u0412" unicode="В" d="M184 81h125q34 0 66 6.5t56.5 21.5t39 38.5t14.5 58.5q0 63 -44.5 93t-122.5 30h-134v-248zM184 405h132q25 0 50 6t44 19t31 34.5t12 52.5q0 30 -11.5 50.5t-32.5 34t-49 19.5t-61 6h-115v-222zM89 708h229q40 0 81.5 -8.5t74.5 -29t54 -55.5t21 -88q0 -57 -33.5 -98 t-89.5 -55v-2q34 -4 62.5 -17.5t49.5 -35.5t33 -52.5t12 -67.5q0 -48 -19.5 -85t-55 -62.5t-84.5 -38.5t-107 -13h-228v708z" horiz-adv-x="643"/>
<glyph glyph-name="u0413" unicode="Г" d="M186 0h-97v708h413v-86h-316v-622z" horiz-adv-x="524"/>
<glyph glyph-name="u0414" unicode="Д" d="M194 86h361l-181 513zM88 0v-139h-89v225h96l235 622h94l232 -622h98v-225h-90v139h-576z" horiz-adv-x="753"/>
<glyph glyph-name="u0415" unicode="Е" d="M184 85h367v-85h-462v708h448v-85h-353v-215h331v-82h-331v-241z" horiz-adv-x="596"/>
<glyph glyph-name="u0416" unicode="Ж" d="M445 331h-9q-120 0 -191.5 -81.5t-91.5 -249.5h-107q33 296 221 380l-220 328h107l203 -299q43 8 88 8v291h97v-291q24 0 46 -2t43 -6l203 299h106l-221 -328q189 -85 222 -380h-106q-40 331 -284 331h-9v-331h-97v331z" horiz-adv-x="988"/>
<glyph glyph-name="u0417" unicode="З" d="M209 407h51q34 0 64.5 7t53 21.5t35.5 37t13 53.5q0 57 -37.5 87.5t-98.5 30.5q-48 0 -82.5 -24.5t-52.5 -66.5l-80 44q31 63 88 96t135 33q49 0 91 -12.5t73 -36.5t48 -60t17 -83q0 -32 -13 -59t-33 -47t-45.5 -34t-50.5 -20v-2q29 -3 60 -13.5t57 -31t43 -52t17 -77.5 q0 -50 -20.5 -90t-56.5 -68t-84.5 -43t-103.5 -15q-50 0 -89.5 11.5t-69.5 32.5t-51.5 50t-36.5 64l85 40q22 -54 60.5 -85t107.5 -31q77 0 119 37t42 97q0 37 -15 62t-42.5 41t-65.5 23t-84 7h-48v76z" horiz-adv-x="622"/>
<glyph glyph-name="u0418" unicode="И" d="M188 139l382 569h116v-708h-97v572h-2l-382 -572h-116v708h97v-569h2z" horiz-adv-x="775"/>
<glyph glyph-name="u0419" unicode="Й" d="M567 708h119v-708h-97v572h-2l-380 -572h-118v708h97q0 -143 -0.5 -283.5t-0.5 -283.5h3zM265 910q14 -35 46.5 -58t75.5 -23q45 0 76.5 23t45.5 58l60 -30q-8 -23 -24.5 -44t-39.5 -36.5t-53 -24.5t-65 -9t-64.5 9t-53 24.5t-39.5 36.5t-25 44z" horiz-adv-x="774"/>
<glyph glyph-name="u041A" unicode="К" d="M89 0v708h97v-290q24 0 46.5 -1.5t44.5 -3.5l256 295h106l-263 -318q117 -40 183 -136t92 -254h-107q-15 88 -42.5 152t-70.5 104.5t-100.5 58t-128.5 17.5h-16v-332h-97z" horiz-adv-x="697"/>
<glyph glyph-name="u041B" unicode="Л" d="M109 0h-105l298 708h97l298 -708h-107l-241 581z" horiz-adv-x="686"/>
<glyph glyph-name="u041C" unicode="М" d="M452 156h2l216 552h145v-708h-96l1 586h-3l-237 -586h-59l-236 586h-3l1 -586h-94v708h144z" horiz-adv-x="904"/>
<glyph glyph-name="u041D" unicode="Н" d="M89 708h97v-297h358v297h97v-708h-97v325h-358v-325h-97v708z" horiz-adv-x="730"/>
<glyph glyph-name="u041E" unicode="О" d="M695 355q0 58 -19 109.5t-54 90.5t-85 62t-112 23t-112 -23t-85 -62t-54 -90.5t-19 -109.5q0 -59 19 -111t54 -91t85 -61.5t112 -22.5t112 22.5t85 61.5t54 91t19 111zM798 355q0 -82 -28 -150.5t-78 -118t-118.5 -77t-148.5 -27.5t-148.5 27.5t-118.5 77t-78 118 t-28 150.5t28 150t78 117t118.5 76.5t148.5 27.5t148.5 -27.5t118.5 -76.5t78 -117t28 -150z" horiz-adv-x="850"/>
<glyph glyph-name="u041F" unicode="П" d="M622 708v-708h-97v622h-339v-622h-97v708h533z" horiz-adv-x="710"/>
<glyph glyph-name="u0420" unicode="Р" d="M186 393h109q75 0 117.5 29t42.5 89q0 62 -43 89t-116 27h-110v-234zM89 708h215q55 0 101 -11.5t79 -35.5t51 -61t18 -88t-19 -88.5t-52.5 -62t-80 -36.5t-100.5 -12h-115v-313h-97v708z" horiz-adv-x="595"/>
<glyph glyph-name="u0421" unicode="С" d="M692 110q-19 -27 -46 -50t-60.5 -40.5t-74 -27.5t-87.5 -10q-81 0 -149 27.5t-117.5 77t-77.5 118t-28 149.5q0 82 28.5 150t78.5 117.5t118 77t148 27.5q38 0 75.5 -7.5t71 -21.5t61.5 -34.5t47 -46.5l-74 -62q-23 34 -70.5 60t-108.5 26q-63 0 -113 -23t-85 -62 t-54 -91t-19 -110q0 -59 19 -110.5t54 -90.5t85 -61.5t112 -22.5q59 0 109.5 23.5t83.5 72.5z" horiz-adv-x="714"/>
<glyph glyph-name="u0422" unicode="Т" d="M335 0h-97v623h-228v85h553v-85h-228v-623z" horiz-adv-x="573"/>
<glyph glyph-name="u0423" unicode="У" d="M127 708l209 -436l201 436h108l-263 -554q-18 -37 -38 -67.5t-45 -53t-56.5 -35t-72.5 -12.5q-46 0 -71.5 10.5t-41.5 21.5l51 76q11 -8 29 -16t44 -8q32 0 56 23.5t47 67.5l-265 547h108z" horiz-adv-x="649"/>
<glyph glyph-name="u0424" unicode="Ф" d="M716 354q0 47 -16 88.5t-46 73.5t-73.5 53t-98.5 27v-484q55 6 98.5 27t73.5 53t46 73.5t16 88.5zM151 354q0 -48 16 -89.5t46 -73.5t74 -53t100 -27v485q-56 -6 -100 -26.5t-74 -53t-46 -74t-16 -88.5zM482 683q73 -6 135 -32t107 -69t70 -100.5t25 -127.5t-25 -128 t-70 -101t-107 -69t-135 -32v-80h-95v80q-74 6 -136.5 32t-107.5 69t-70.5 101t-25.5 128t25.5 128t70.5 100.5t107.5 68.5t136.5 32v74h95v-74z" horiz-adv-x="867"/>
<glyph glyph-name="u0425" unicode="Х" d="M332 439l177 269h115l-232 -336l259 -372h-121l-201 301l-198 -301h-119l257 373l-235 335h120z" horiz-adv-x="663"/>
<glyph glyph-name="u0426" unicode="Ц" d="M89 0v708h97v-622h341v622h97v-622h84v-225h-89v139h-530z" horiz-adv-x="737"/>
<glyph glyph-name="u0427" unicode="Ч" d="M450 708h97v-708h-96v305h-163q-58 0 -100.5 17t-70.5 48t-41.5 75t-13.5 98v165h97v-129q0 -45 6.5 -80t22.5 -59t44 -36.5t70 -12.5h148v317z" horiz-adv-x="636"/>
<glyph glyph-name="u0428" unicode="Ш" d="M452 86v622h97v-622h259v622h97v-708h-816v708h97v-622h266z" horiz-adv-x="994"/>
<glyph glyph-name="u0429" unicode="Щ" d="M89 0v708h97v-622h266v622h97v-622h257v622h98v-622h94v-225h-89v139h-820z" horiz-adv-x="1027"/>
<glyph glyph-name="u042A" unicode="Ъ" d="M293 84h102q40 0 69.5 10t49 28t29.5 42t10 52q0 57 -40 92t-118 35h-102v-259zM293 708v-281h104q56 0 102.5 -13.5t80 -40.5t52 -66t18.5 -90t-21.5 -91.5t-60 -68t-91 -42.5t-114.5 -15h-167v622h-186v86h283z" horiz-adv-x="698"/>
<glyph glyph-name="u042B" unicode="Ы" d="M706 708v-708h-97v708h97zM186 84h102q79 0 118 31.5t39 99.5q0 58 -39.5 93t-117.5 35h-102v-259zM186 708v-281h103q56 0 102.5 -14.5t80.5 -42.5t52.5 -68.5t18.5 -91.5t-19 -90t-53 -66t-81 -40.5t-103 -13.5h-198v708h97z" horiz-adv-x="794"/>
<glyph glyph-name="u042C" unicode="Ь" d="M186 343v-259h108q79 0 118 37t39 94q0 59 -39.5 93.5t-117.5 34.5h-108zM89 708h97v-281h109q56 0 102.5 -14t80.5 -40.5t52.5 -65.5t18.5 -90t-19 -91.5t-53 -68t-81 -42.5t-103 -15h-204v708z" horiz-adv-x="596"/>
<glyph glyph-name="u042D" unicode="Э" d="M33 109l70 55q36 -50 92.5 -72.5t115.5 -22.5q56 0 101.5 19t79 53t53.5 80.5t25 100.5h-402v81h400q-7 52 -28 96t-55 75t-79.5 48.5t-100.5 17.5q-40 0 -72.5 -9.5t-57.5 -23.5t-42.5 -32t-26.5 -34l-63 62q18 26 45.5 48.5t62 39t75.5 26t87 9.5q85 0 152 -28 t113.5 -77.5t71 -117.5t24.5 -149t-26 -149t-74 -117.5t-115 -77.5t-149 -28q-48 0 -90 10t-77.5 27t-63.5 40t-46 50z" horiz-adv-x="726"/>
<glyph glyph-name="u042E" unicode="Ю" d="M411 355q0 -59 19 -111t54 -91t85 -61.5t112 -22.5t112 22.5t85 61.5t54 91t19 111q0 58 -19 109.5t-54 90.5t-85 62t-112 23t-112 -23t-85 -62t-54 -90.5t-19 -109.5zM186 708v-310h124q6 72 36.5 132t80 103.5t114.5 68t140 24.5q80 0 148.5 -27.5t118.5 -76.5t78 -117 t28 -150t-28 -150.5t-78 -118t-118.5 -77t-148.5 -27.5q-75 0 -140.5 24.5t-114.5 68.5t-79.5 104.5t-36.5 132.5h-124v-312h-97v708h97z" horiz-adv-x="1106"/>
<glyph glyph-name="u042F" unicode="Я" d="M224 347q-72 12 -115 53t-44 112q0 97 74 146.5t203 49.5h222v-708h-97v311h-76q-53 0 -96.5 -16.5t-75.5 -53.5t-52.5 -96.5t-28.5 -144.5h-106q4 63 20 118.5t41.5 100t58.5 76.5t72 50v2zM467 622h-116q-90 0 -136 -26.5t-46 -85.5q0 -53 45.5 -83t136.5 -30h116v225z " horiz-adv-x="653"/>
<glyph glyph-name="u0430" unicode="а" d="M358 230q-38 0 -76.5 -3t-70 -13t-51.5 -28.5t-20 -48.5q0 -22 9 -37t23 -24.5t32 -13.5t36 -4q33 0 58.5 11t43.5 30.5t27 45t9 54.5v31h-20zM377 307q0 54 -30.5 81t-85.5 27q-40 0 -75.5 -15t-59.5 -39l-50 56q32 32 83 52t111 20q42 0 77 -11t60.5 -33t40 -55.5 t15.5 -78.5q1 -14 1 -27v-27v-153q0 -27 1.5 -55t4.5 -49h-84q-2 17 -3.5 35t-1.5 35h-2q-29 -43 -69 -62.5t-94 -19.5q-27 0 -56.5 7.5t-54 25t-40.5 45t-16 68.5q0 54 28 85.5t74 48t105 21t121 4.5v14z" horiz-adv-x="542"/>
<glyph glyph-name="u0431" unicode="б" d="M462 229q0 36 -11 66t-31 51.5t-47.5 34t-61.5 12.5q-32 0 -61 -10t-50.5 -29.5t-34.5 -49t-13 -68.5q0 -38 11.5 -69.5t32 -54t50 -35t65.5 -12.5t64 13t47.5 35.5t29.5 52t10 63.5zM318 470q52 0 95.5 -17t75 -48.5t49 -76t17.5 -99.5q0 -56 -19.5 -100.5t-53 -76 t-78.5 -48.5t-96 -17q-53 0 -96.5 17t-75.5 48.5t-51 77.5t-22 104q-2 16 -2 32.5v33.5q4 104 25.5 180.5t62 127t102.5 75t148 24.5h142v-75h-144q-63 0 -106.5 -16.5t-71 -47.5t-43 -75t-22.5 -98q26 35 69.5 55t94.5 20z" horiz-adv-x="606"/>
<glyph glyph-name="u0432" unicode="в" d="M80 0v476h221q91 0 136 -35t45 -93q0 -27 -8.5 -45t-23 -29.5t-33.5 -18.5t-41 -13q26 -2 49.5 -9t41 -21t28 -35t10.5 -50q0 -57 -49 -92t-143 -35h-233zM173 70h81q32 0 60 1t49 7.5t33 21t12 40.5t-11.5 40t-32.5 21t-49.5 8t-62.5 1h-79v-140zM287 271 q45 0 72.5 13.5t27.5 54.5q0 24 -10.5 37t-29.5 20t-44.5 8.5t-55.5 1.5h-74v-135h114z" horiz-adv-x="551"/>
<glyph glyph-name="u0433" unicode="г" d="M173 0h-93v476h306v-75h-213v-401z" horiz-adv-x="400"/>
<glyph glyph-name="u0434" unicode="д" d="M261 307l-88 -231h224l-106 292zM85 -139h-84v215h77l164 400h96l152 -400h80v-215h-84v139h-401v-139z" horiz-adv-x="571"/>
<glyph glyph-name="u0435" unicode="е" d="M527 247v-16.5t-1 -17.5h-381q1 -32 13.5 -59.5t33.5 -47.5t49.5 -32t60.5 -12q50 0 85.5 22.5t54.5 51.5l67 -48q-40 -53 -92 -77t-115 -24q-53 0 -99 18t-79.5 51t-52.5 79t-19 102q0 55 18.5 101.5t51.5 80t77.5 52t96.5 18.5q55 0 98 -18.5t72.5 -51t45 -76.5 t15.5 -96zM437 279q-2 60 -38 99t-103 39q-31 0 -57.5 -11.5t-46.5 -30.5t-32.5 -44t-14.5 -52h292z" horiz-adv-x="578"/>
<glyph glyph-name="u0436" unicode="ж" d="M372 212q-44 -2 -79.5 -13t-64 -35.5t-49 -64.5t-33.5 -99h-102q25 102 69 164t118 92l-165 220h103l142 -194q29 5 61 6v188h92v-188q31 -2 60 -6l143 194h103l-166 -220q74 -30 118.5 -92t69.5 -164h-103q-13 59 -33.5 99t-48.5 64.5t-64 35.5t-79 13v-212h-92v212z " horiz-adv-x="836"/>
<glyph glyph-name="u0437" unicode="з" d="M102 354l-63 42q2 4 12 20t31.5 32.5t56 30t85.5 13.5q47 0 81.5 -11.5t57 -30t33.5 -43t11 -49.5q0 -49 -33 -79t-79 -35v-3q24 -1 47.5 -7.5t42 -20t29.5 -34t11 -49.5q0 -34 -15 -60.5t-42 -45t-64.5 -28.5t-82.5 -10q-53 0 -88 13t-56.5 29t-32 30t-13.5 16l59 50 q2 -2 10 -12.5t24 -22.5t40 -21.5t59 -9.5q52 0 81.5 20.5t29.5 57.5q0 32 -28 52t-84 20h-66v64h58q45 0 75.5 17t30.5 55q0 31 -25 55.5t-78 24.5q-35 0 -57 -11t-35 -24q-15 -16 -23 -35z" horiz-adv-x="471"/>
<glyph glyph-name="u0438" unicode="и" d="M444 357l-270 -357h-94v476h94v-347l270 347h94v-476h-94v357z" horiz-adv-x="618"/>
<glyph glyph-name="u0439" unicode="й" d="M207 707q11 -31 40 -52t69 -21t69 21t40 52l55 -27q-8 -22 -22 -40t-36 -32q-21 -14 -48 -22t-58 -9q-32 1 -58 9t-48 22q-21 14 -36 32t-22 40zM444 0v357l-270 -357h-94v476h94v-347l270 347h94v-476h-94z" horiz-adv-x="618"/>
<glyph glyph-name="u043A" unicode="к" d="M173 286q35 0 67 -6l154 196h103l-176 -220q39 -15 69 -38t53 -55t39.5 -72.5t29.5 -90.5h-103q-13 60 -33 99.5t-48.5 64t-67 35t-87.5 12.5v-211h-93v476h93v-190z" horiz-adv-x="556"/>
<glyph glyph-name="u043B" unicode="л" d="M407 0l-142 365l-149 -365h-99l202 476h95l190 -476h-97z" horiz-adv-x="521"/>
<glyph glyph-name="u043C" unicode="м" d="M160 476l195 -231l192 231h80v-476h-93v344l-166 -212h-28l-167 208v-340h-93v476h80z" horiz-adv-x="707"/>
<glyph glyph-name="u043D" unicode="н" d="M173 0h-93v476h93v-188h241v188h93v-476h-93v213h-241v-213z" horiz-adv-x="587"/>
<glyph glyph-name="u043E" unicode="о" d="M471 238q0 36 -11.5 67.5t-32.5 55t-51 37t-68 13.5t-68 -13.5t-51 -37t-32 -55t-11 -67.5q0 -35 11 -66.5t32 -55t51 -37.5t68 -14t68 14t51 37.5t32.5 55t11.5 66.5zM565 238q0 -55 -19.5 -101t-54 -79.5t-81.5 -52t-102 -18.5t-101.5 18.5t-81 52t-54 79.5t-19.5 101 t19.5 101t54 79.5t81 52t101.5 18.5t102 -18.5t81.5 -52t54 -79.5t19.5 -101z" horiz-adv-x="617"/>
<glyph glyph-name="u043F" unicode="п" d="M173 0h-93v476h419v-476h-93v401h-233v-401z" horiz-adv-x="579"/>
<glyph glyph-name="u0440" unicode="р" d="M495 238q0 35 -10.5 66.5t-31.5 55t-51 37.5t-69 14q-36 0 -66.5 -13.5t-52.5 -37t-34 -55t-12 -67.5t12 -67.5t34 -55t52.5 -37t66.5 -13.5q39 0 69 14t51 37.5t31.5 55t10.5 66.5zM176 -240h-93v716h91v-76h3q28 42 74 65t98 23q54 0 98.5 -19.5t76 -53.5t48.5 -79.5 t17 -97.5t-17 -97.5t-48.5 -79.5t-76 -54t-99.5 -20q-49 0 -95 22t-74 64h-3v-313z" horiz-adv-x="641"/>
<glyph glyph-name="u0441" unicode="с" d="M422 355q-16 25 -46.5 40.5t-65.5 15.5q-37 0 -67 -13.5t-51 -36.5t-32.5 -55t-11.5 -68t11.5 -68t32.5 -55t51 -36.5t67 -13.5q39 0 68.5 15t48.5 40l62 -56q-31 -35 -75.5 -56t-104.5 -21q-57 0 -104.5 18.5t-81 52t-52.5 79.5t-19 101t19 101t52.5 79.5t81 52 t104.5 18.5q49 0 98 -20t79 -58z" horiz-adv-x="501"/>
<glyph glyph-name="u0442" unicode="т" d="M13 476h418v-75h-167v-401h-93v401h-158v75z" horiz-adv-x="444"/>
<glyph glyph-name="u0443" unicode="у" d="M261 100h3l133 376h100l-209 -530q-16 -41 -31.5 -75t-35.5 -59t-48.5 -38.5t-71.5 -13.5q-17 0 -35 2t-34 5l10 82q11 -4 24 -6.5t27 -2.5q35 0 54.5 20.5t33.5 58.5l33 84l-202 473h103z" horiz-adv-x="508"/>
<glyph glyph-name="u0444" unicode="ф" d="M144 238q0 -36 10.5 -67.5t31 -55t49.5 -37t65 -14.5v348q-37 -1 -66 -14.5t-49 -37t-30.5 -55t-10.5 -67.5zM543 238q0 36 -10.5 67t-30.5 54.5t-49.5 37.5t-66.5 15v-348q37 1 66.5 14.5t49.5 37t30.5 55t10.5 67.5zM386 487q55 0 101 -19.5t79 -53t51.5 -79 t18.5 -97.5q0 -54 -18.5 -99.5t-51.5 -78.5t-79 -52t-101 -20v-232h-86v232q-53 1 -98.5 20t-78.5 52.5t-52 79t-19 98.5t18.5 98t51.5 78.5t78.5 52.5t99.5 20v269h86v-269z" horiz-adv-x="688"/>
<glyph glyph-name="u0445" unicode="х" d="M199 247l-175 229h114l119 -167l119 167h109l-173 -227l189 -249h-115l-131 184l-134 -184h-110z" horiz-adv-x="512"/>
<glyph glyph-name="u0446" unicode="ц" d="M80 0v476h93v-398h228v398h92v-398h78v-217h-84v139h-407z" horiz-adv-x="588"/>
<glyph glyph-name="u0447" unicode="ч" d="M48 476h92v-68q0 -45 3 -77t15.5 -52t38 -29.5t71.5 -9.5h98v236h92v-476h-92v160l-105 1q-65 0 -106.5 13.5t-65.5 39t-32.5 63t-8.5 86.5v113z" horiz-adv-x="539"/>
<glyph glyph-name="u0448" unicode="ш" d="M80 0v476h93v-401h190v401h93v-401h191v401h92v-476h-659z" horiz-adv-x="820"/>
<glyph glyph-name="u0449" unicode="щ" d="M80 0v476h93v-401h185v401h93v-401h186v401h92v-401h79v-214h-85v139h-643z" horiz-adv-x="824"/>
<glyph glyph-name="u044A" unicode="ъ" d="M240 70h82q51 0 83 18.5t32 70.5q0 26 -9 43t-25 27t-37.5 14t-46.5 4h-79v-177zM240 476v-160h99q53 0 89.5 -12t59.5 -33t33 -50t10 -62t-12 -62t-35.5 -50.5t-59 -34t-81.5 -12.5h-196v401h-134v75h227z" horiz-adv-x="574"/>
<glyph glyph-name="u044B" unicode="ы" d="M614 476v-476h-93v476h93zM173 70h83q51 0 83 18.5t32 70.5q0 26 -9 43t-25 27t-37.5 14t-46.5 4h-80v-177zM173 476v-160h85q57 0 96.5 -11t64 -31.5t35.5 -49.5t11 -65q0 -74 -51.5 -116.5t-154.5 -42.5h-179v476h93z" horiz-adv-x="694"/>
<glyph glyph-name="u044C" unicode="ь" d="M173 70h98q51 0 83.5 18.5t32.5 70.5q0 26 -9 43t-25 27t-38 14t-47 4h-95v-177zM173 476v-160h115q53 0 89.5 -12t59.5 -33t33.5 -50t10.5 -62t-12 -62t-36 -50.5t-59.5 -34t-81.5 -12.5h-212v476h93z" horiz-adv-x="525"/>
<glyph glyph-name="u044D" unicode="э" d="M107 336l-63 54q28 41 77.5 70t128.5 29q58 0 103.5 -19t77 -52.5t48 -79.5t16.5 -100t-19 -100t-52 -79.5t-79 -52.5t-100 -19q-60 0 -112 23.5t-94 77.5l66 52q18 -29 54 -52.5t86 -23.5q33 0 61.5 11.5t49.5 31.5t33.5 47t14.5 59h-246v65h245q-3 27 -15 51.5 t-31.5 43t-46.5 29.5t-61 11q-54 0 -89 -23t-53 -54z" horiz-adv-x="547"/>
<glyph glyph-name="u044E" unicode="ю" d="M678 238q0 36 -11.5 67.5t-32.5 55t-51 37t-67 13.5q-38 0 -68 -13.5t-51 -37t-32 -55t-11 -67.5q0 -35 11 -66.5t32 -55t51 -37.5t68 -14t68 14t51 37.5t32 55t11 66.5zM773 238q0 -55 -19.5 -101t-54 -79.5t-81.5 -52t-102 -18.5q-52 0 -97 17t-79 47.5t-54.5 72.5 t-24.5 92h-88v-216h-93v476h93v-185h92q8 44 30 80.5t55 62.5t75.5 40.5t90.5 14.5q55 0 102 -18.5t81.5 -52t54 -79.5t19.5 -101z" horiz-adv-x="824"/>
<glyph glyph-name="u044F" unicode="я" d="M163 330q0 -21 9.5 -34t25.5 -20t38 -9.5t47 -2.5h88v133h-89q-27 0 -49 -2t-37.5 -9t-24 -20.5t-8.5 -35.5zM302 188q-69 0 -106.5 -46t-47.5 -142h-103q10 87 46.5 145t94.5 76v3q-50 5 -83.5 32t-33.5 85q0 35 14.5 60.5t40 42t61.5 24.5t79 8h199v-476h-92v188h-69z " horiz-adv-x="537"/>
<glyph glyph-name="u0451" unicode="ё" d="M347 650q0 23 16.5 40.5t42.5 17.5t42.5 -17.5t16.5 -40.5t-16.5 -41t-42.5 -18t-42.5 18t-16.5 41zM148 650q0 23 17 40.5t43 17.5t42.5 -17.5t16.5 -40.5t-16.5 -41t-42.5 -18t-43 18t-17 41zM531 247v-16.5t-1 -17.5h-381q1 -32 13.5 -59.5t34 -47.5t49.5 -32t61 -12 q49 0 84.5 22.5t54.5 51.5l68 -48q-40 -53 -92.5 -77t-115.5 -24q-53 0 -99 18t-79.5 51t-52.5 79t-19 102q0 55 19 101.5t52 80t77.5 52t95.5 18.5q55 0 98 -18.5t72.5 -51t45 -76.5t15.5 -96zM441 279q-2 60 -37.5 99t-102.5 39q-32 0 -58.5 -11.5t-46.5 -30.5t-32 -44 t-14 -52h291z" horiz-adv-x="572"/>
<glyph glyph-name="u0452" unicode="ђ" d="M260 -115q7 -5 23.5 -11t32.5 -6q58 0 82.5 38.5t24.5 116.5v236q0 74 -25.5 113t-88.5 39q-26 0 -49 -10.5t-40.5 -31t-28 -51.5t-10.5 -73v-245h-93v574h-95v60h95v122h93v-122h178v-60h-178v-172h2q19 41 62 63.5t93 22.5q45 0 78.5 -14.5t55 -41t32.5 -63t11 -79.5 v-252v-49q-2 -42 -14.5 -78.5t-36.5 -63t-59.5 -42t-81.5 -15.5q-25 0 -54 7.5t-52 23.5z" horiz-adv-x="596"/>
<glyph glyph-name="u0453" unicode="ѓ" d="M254 544h-76l101 144h110zM173 0h-93v476h306v-75h-213v-401z" horiz-adv-x="403"/>
<glyph glyph-name="u0454" unicode="є" d="M509 390l-64 -54q-17 31 -52 54t-89 23q-34 0 -61 -11t-47 -29.5t-32 -43t-15 -51.5h246v-65h-246q2 -32 15 -59t34 -47t49.5 -31.5t61.5 -11.5q54 0 87.5 23.5t51.5 52.5l66 -52q-42 -54 -95 -77.5t-117 -23.5q-53 0 -97.5 19t-77 52.5t-51 79.5t-18.5 100t16.5 100 t48 79.5t77 52.5t103.5 19q79 0 128 -29t78 -70z" horiz-adv-x="564"/>
<glyph glyph-name="u0455" unicode="ѕ" d="M351 355q-17 27 -46.5 44t-66.5 17q-17 0 -32.5 -3.5t-28.5 -11t-20.5 -20t-7.5 -29.5q0 -30 25.5 -45.5t80.5 -27.5q77 -16 119.5 -48.5t42.5 -92.5q0 -42 -16.5 -70.5t-43 -46.5t-59.5 -26t-67 -8q-55 0 -107 21t-86 66l64 55q19 -29 53 -49t75 -20q19 0 36.5 4 t31 12.5t21.5 22t8 33.5q0 34 -32.5 50.5t-95.5 31.5q-22 5 -46 13.5t-44.5 23t-33.5 37.5t-13 57q0 38 15.5 65t40 44.5t56.5 26t65 8.5q25 0 50.5 -5.5t48 -16t42 -25.5t32.5 -34z" horiz-adv-x="462"/>
<glyph glyph-name="u0456" unicode="і" d="M191 650q0 -26 -18.5 -42t-41.5 -16q-24 0 -42 16.5t-18 41.5t18 42t42 17q23 0 41.5 -16.5t18.5 -42.5zM177 0h-92v476h92v-476z" horiz-adv-x="262"/>
<glyph glyph-name="u0457" unicode="ї" d="M172 650q0 23 16.5 40.5t42.5 17.5t43 -17.5t17 -40.5t-17 -41t-43 -18t-42.5 18t-16.5 41zM-26 650q0 23 16.5 40.5t42.5 17.5t42.5 -17.5t16.5 -40.5t-16.5 -41t-42.5 -18t-42.5 18t-16.5 41zM177 0h-92v476h92v-476z" horiz-adv-x="262"/>
<glyph glyph-name="u0458" unicode="ј" d="M192 650q0 -26 -18 -42t-42 -16q-23 0 -41 16.5t-18 41.5t18 42t41 17q24 0 42 -16.5t18 -42.5zM-19 -155q9 -3 20.5 -4.5t20.5 -1.5q26 0 39 11.5t18.5 32t6 47.5t0.5 57v489h93v-496q0 -38 -2.5 -77t-16.5 -71t-44.5 -52t-86.5 -20q-12 0 -28.5 1.5t-30.5 5.5z" horiz-adv-x="263"/>
<glyph glyph-name="u0459" unicode="љ" d="M385 247l66 -177h33q57 0 87 19.5t30 69.5q0 51 -29.5 69.5t-89.5 18.5h-97zM384 0l-131 365l-137 -365h-95l188 476h93l59 -160h142q54 0 91.5 -12.5t60 -34t32.5 -50t10 -60.5q0 -71 -50 -115t-143 -44h-120z" horiz-adv-x="724"/>
<glyph glyph-name="u045A" unicode="њ" d="M509 70h82q51 0 83.5 15.5t32.5 60.5q0 22 -9 37t-25 24t-38 13t-47 4h-79v-154zM173 476v-182h243v182h93v-182h99q53 0 89.5 -12t59.5 -32t33.5 -47t10.5 -57t-12 -56.5t-36 -46.5t-59.5 -31.5t-81.5 -11.5h-196v219h-243v-219h-93v476h93z" horiz-adv-x="845"/>
<glyph glyph-name="u045B" unicode="ћ" d="M183 402q9 19 24.5 35t36 27t44 17.5t48.5 6.5q46 0 80 -15t56 -41t32.5 -62t10.5 -78v-292h-92v262q0 33 -5.5 60t-18.5 47t-35 31t-55 11q-26 0 -49 -10.5t-40.5 -31t-28 -51t-10.5 -71.5v-247h-93v574h-95v60h95v122h93v-122h178v-60h-178v-172h2z" horiz-adv-x="595"/>
<glyph glyph-name="u045C" unicode="ќ" d="M299 544h-76l101 144h111zM173 286q35 0 67 -6l154 196h103l-176 -220q39 -15 69 -38t53 -55t39.5 -72.5t29.5 -90.5h-103q-13 60 -33 99.5t-48.5 64t-67 35t-87.5 12.5v-211h-93v476h93v-190z" horiz-adv-x="556"/>
<glyph glyph-name="u045E" unicode="ў" d="M115 476l146 -376h3l133 376h100l-209 -530q-16 -41 -32 -75t-35 -59q-21 -24 -49 -38t-71 -14q-17 0 -35 2t-34 5l10 82q11 -5 24 -7t27 -2q35 0 55 20t33 59l33 84l-202 473h103zM145 707q11 -31 40 -52t69 -21t69 21t40 52l55 -27q-8 -22 -22 -40t-36 -32 q-21 -14 -48 -22t-58 -9q-32 1 -58 9t-48 22q-21 14 -36 32t-22 40z" horiz-adv-x="508"/>
<glyph glyph-name="u045F" unicode="џ" d="M334 0v-139h-83v139h-171v476h93v-400h228v400h93v-476h-160z" horiz-adv-x="574"/>
<glyph glyph-name="u0490" unicode="Ґ" d="M181 0h-98v708h333v151h82v-237h-317v-622z" horiz-adv-x="529"/>
<glyph glyph-name="u0491" unicode="ґ" d="M173 0h-93v476h229v158h84v-233h-220v-401z" horiz-adv-x="416"/>
<glyph glyph-name="palochkacyrillic" unicode="Ӏ" d="M185 0h-99v708h99v-708z" horiz-adv-x="271"/>
<glyph glyph-name="Aiecyrillic" unicode="Ӕ" d="M524 278v343h-14l-217 -343h231zM623 88h346v-88h-445v192h-283l-121 -192h-118l457 708h495v-87h-331v-212h310v-85h-310v-236z" horiz-adv-x="1015"/>
<glyph glyph-name="aiecyrillic" unicode="ӕ" d="M419 85q-29 -54 -82.5 -75.5t-118.5 -21.5q-28 0 -58.5 6.5t-55.5 21.5t-41.5 40.5t-16.5 64.5q0 52 24 83.5t67.5 48t104 21.5t134.5 5v11q0 67 -32 94t-85 27q-40 0 -75.5 -15.5t-59.5 -39.5l-50 60q35 33 85.5 52t108.5 19q40 0 69 -8.5t48.5 -21.5t31 -28.5 t17.5 -29.5q28 39 69 63.5t104 24.5q51 0 92 -17t69.5 -49t44 -77.5t15.5 -102.5v-16t-1 -16h-364q1 -30 13 -56.5t32.5 -46t47 -30.5t56.5 -11q47 0 80.5 21t53.5 51l63 -53q-37 -50 -86.5 -73.5t-110.5 -23.5q-63 0 -114 25.5t-79 72.5zM734 279q0 28 -8.5 52.5 t-24.5 42.5t-40 28.5t-55 10.5q-29 0 -54.5 -10.5t-45 -28.5t-31.5 -42.5t-13 -52.5h272zM350 209q-44 0 -82 -2.5t-66 -10.5t-44 -23t-16 -40q0 -21 8.5 -34.5t22 -22t31 -12t36.5 -3.5q66 0 100 33t34 90v25h-24z" horiz-adv-x="877"/>
<glyph glyph-name="Aringbelow" unicode="Ḁ" d="M221 261h265l-132 332zM115 0h-110l307 708h90l304 -708h-112l-72 174h-336zM414 -173q0 24 -17.5 40t-41.5 16q-23 0 -40.5 -16t-17.5 -40t17.5 -40.5t40.5 -16.5q24 0 41.5 16t17.5 41zM456 -173q0 -43 -29.5 -71t-71.5 -28q-21 0 -39 7.5t-31.5 20.5t-21.5 31t-8 39 q0 43 29 71t71 28t71.5 -28t29.5 -70z" horiz-adv-x="711"/>
<glyph glyph-name="aringbelow" unicode="ḁ" d="M353 226q-35 0 -72.5 -3t-68 -12t-50.5 -27t-20 -48q0 -21 8.5 -35t22.5 -23t31 -12.5t35 -3.5q66 0 101.5 39.5t35.5 99.5v25h-23zM376 307q0 53 -32 78.5t-85 25.5q-40 0 -75.5 -15.5t-59.5 -39.5l-50 60q35 33 85.5 52t108.5 19q51 0 88.5 -14.5t61.5 -39.5t36 -59 t12 -73v-207q0 -24 1.5 -50.5t5.5 -43.5h-85q-8 34 -8 68h-3q-26 -38 -65.5 -59t-93.5 -21q-28 0 -58.5 7.5t-55.5 24.5t-41.5 45t-16.5 69q0 54 29 85.5t76 48t106 21.5t119 5v13zM318 -185q0 24 -17.5 40t-41.5 16q-23 0 -40.5 -16t-17.5 -40t17.5 -40.5t40.5 -16.5 q24 0 41.5 16t17.5 41zM360 -185q0 -43 -29.5 -71t-71.5 -28q-21 0 -39 7.5t-31.5 20.5t-21.5 31t-8 39q0 43 29 71t71 28t71.5 -28t29.5 -70z" horiz-adv-x="542"/>
<glyph glyph-name="uni1E02" unicode="Ḃ" d="M369 845q0 -26 -18.5 -43t-44.5 -17t-44 17.5t-18 42.5q0 26 18 43.5t44 17.5t44.5 -17.5t18.5 -43.5zM185 84h124q31 0 62.5 5.5t57 19.5t41 37.5t15.5 59.5q0 63 -43 91t-124 28h-133v-241zM185 409h129q28 0 53.5 6.5t44.5 20t30 34t11 49.5q0 57 -42 81.5t-113 24.5 h-113v-216zM86 708h244q40 0 80 -9t71.5 -30t51 -55t19.5 -85q0 -59 -34 -99t-90 -55v-2q34 -4 63 -17.5t50 -35.5t32.5 -52t11.5 -67q0 -51 -21 -89t-57 -62.5t-84.5 -37t-103.5 -12.5h-233v708z" horiz-adv-x="642"/>
<glyph glyph-name="uni1E03" unicode="ḃ" d="M380 845q0 -26 -18.5 -43t-44.5 -17t-44 17.5t-18 42.5q0 26 18 43.5t44 17.5t44.5 -17.5t18.5 -43.5zM489 238q0 33 -10 64t-30 55t-49.5 38t-68.5 14q-36 0 -65.5 -14t-50.5 -38t-32.5 -55t-11.5 -65t11.5 -65t32.5 -54.5t50.5 -37.5t65.5 -14q39 0 68.5 14.5 t49.5 38.5t30 55t10 64zM174 75v-75h-91v756h94v-353h3q24 35 67 59.5t102 24.5q53 0 96.5 -19t75 -53t48.5 -79.5t17 -97.5t-17 -98t-48 -80t-75 -53.5t-99 -19.5q-51 0 -97 22.5t-74 65.5h-2z" horiz-adv-x="636"/>
<glyph glyph-name="Bdotbelow" unicode="Ḅ" d="M185 84h124q31 0 62.5 5.5t57 19.5t41 37.5t15.5 59.5q0 63 -43 91t-124 28h-133v-241zM185 409h129q28 0 53.5 6.5t44.5 20t30 34t11 49.5q0 57 -42 81.5t-113 24.5h-113v-216zM86 708h244q40 0 80 -9t71.5 -30t51 -55t19.5 -85q0 -59 -34 -99t-90 -55v-2 q34 -4 63 -17.5t50 -35.5t32.5 -52t11.5 -67q0 -51 -21 -89t-57 -62.5t-84.5 -37t-103.5 -12.5h-233v708zM398 -136q0 -26 -18.5 -43t-44.5 -17t-44 17.5t-18 42.5q0 26 18 43.5t44 17.5t44.5 -17.5t18.5 -43.5z" horiz-adv-x="642"/>
</font>
</defs>
</svg>
