<?xml version="1.0" encoding="UTF-8" standalone="no"?>
<!DOCTYPE svg  PUBLIC '-//W3C//DTD SVG 1.1//EN'  'http://www.w3.org/Graphics/SVG/1.1/DTD/svg11.dtd'>
<svg version="1.1" xmlns="http://www.w3.org/2000/svg">
<defs>
<font id="AvenirNext-Regular" horiz-adv-x="572">
<font-face font-weight="400" font-family="Avenir Next" underline-thickness="50" units-per-em="1000" panose-1="2 11 5 3 2 2 2 2 2 4" cap-height="708" ascent="800" unicode-range="U+000D-FE48" descent="-200" bbox="-394 -411 1309 1192" underline-position="-200" x-height="468"/>
<missing-glyph d="M512 718v-718h-512v718h512zM462 50v617h-412v-617h412zM225 234l-2 17q0 56 13 81q7 13 18 27.5t28 31.5q16 15 26 26.5t15 21t7 18t2 17.5q0 36 -22.5 60.5t-53.5 24.5t-53.5 -22t-28.5 -73l-50 8q7 72 44 104.5t91 32.5t89 -35.5t35 -95.5q0 -32 -12.5 -58.5 t-50.5 -61.5q-37 -33 -43 -52q-6 -20 -6 -72h-46zM222 117v67h56v-67h-56z" horiz-adv-x="512"/>
<glyph glyph-name="IJ" d="M334 144q8 -42 37.5 -70.5t77.5 -28.5q37 0 61 13.5t38.5 36.5t20 52.5t5.5 61.5v499h72v-504q0 -35 -7.5 -74t-28.5 -72t-58 -54.5t-95 -21.5q-77 0 -127 40.5t-63 103.5zM166 0h-72v708h72v-708z" unicode="IJ" horiz-adv-x="734"/>
<glyph glyph-name="ij" d="M421 648q0 -21 -15 -34.5t-33 -13.5t-33 13.5t-15 34.5t15 34.5t33 13.5t33 -13.5t15 -34.5zM230 -176q10 -3 21.5 -4.5t21.5 -1.5q21 0 34 7.5t20 20.5t9.5 31.5t2.5 40.5v550h68v-561q0 -28 -6 -54.5t-21 -47t-40.5 -33t-65.5 -12.5q-11 0 -26 1.5t-28 5.5zM173 648 q0 -21 -15 -34.5t-33 -13.5t-33 13.5t-15 34.5t15 34.5t33 13.5t33 -13.5t15 -34.5zM159 0h-68v468h68v-468z" unicode="ij" horiz-adv-x="498"/>
<glyph glyph-name="napostrophe" d="M30 571h-57l62 185h71zM151 468q2 -19 3 -42t1 -38h2q20 41 65 66.5t95 25.5q89 0 133.5 -53t44.5 -140v-287h-68v259q0 37 -6 67t-20.5 51.5t-39 33.5t-61.5 12q-27 0 -52.5 -11t-45.5 -33.5t-32 -57t-12 -81.5v-240h-68v365q0 19 -1 49t-3 54h65z" unicode='&quot;n' horiz-adv-x="581"/>
<glyph glyph-name="fi" d="M288 411h-110v-411h-68v411h-98v57h98v128q0 80 39 126t120 46q13 0 28 -1.5t28 -5.5l-12 -60q-11 3 -22 5t-25 2q-27 0 -44.5 -9t-27 -25.5t-13 -38.5t-3.5 -47v-120h110v-57zM467 648q0 -21 -15 -34.5t-33 -13.5t-33 13.5t-15 34.5t15 34.5t33 13.5t33 -13.5t15 -34.5z M452 0h-68v468h68v-468z" unicode="fi" horiz-adv-x="544"/>
<glyph glyph-name="fl" d="M288 411h-110v-411h-68v411h-98v57h98v128q0 80 39 126t120 46q13 0 28 -1.5t28 -5.5l-12 -60q-11 3 -22 5t-25 2q-27 0 -44.5 -9t-27 -25.5t-13 -38.5t-3.5 -47v-120h110v-57zM452 0h-68v756h68v-756z" unicode="fl" horiz-adv-x="544"/>
<glyph glyph-name=".notdef" d="M512 718v-718h-512v718h512zM462 50v617h-412v-617h412zM225 234l-2 17q0 56 13 81q7 13 18 27.5t28 31.5q16 15 26 26.5t15 21t7 18t2 17.5q0 36 -22.5 60.5t-53.5 24.5t-53.5 -22t-28.5 -73l-50 8q7 72 44 104.5t91 32.5t89 -35.5t35 -95.5q0 -32 -12.5 -58.5 t-50.5 -61.5q-37 -33 -43 -52q-6 -20 -6 -72h-46zM222 117v67h56v-67h-56z" horiz-adv-x="512"/>
<glyph glyph-name=".null" horiz-adv-x="500"/>
<glyph glyph-name=".null" horiz-adv-x="500"/>
<glyph glyph-name="nonmarkingreturn" unicode="" horiz-adv-x="0"/>
<glyph glyph-name="space" unicode=" " horiz-adv-x="250"/>
<glyph glyph-name="exclam" d="M218 48q0 -21 -15 -37.5t-39 -16.5t-39 16.5t-15 37.5t15 37.5t39 16.5t39 -16.5t15 -37.5zM200 192h-72v516h72v-516z" unicode="!" horiz-adv-x="328"/>
<glyph glyph-name="quotedbl" d="M245 708h60v-235h-60v235zM100 708h60v-235h-60v235z" unicode='&quot;' horiz-adv-x="405"/>
<glyph glyph-name="numbersign" d="M206 274h133l22 162h-133zM137 214h-102v60h110l22 162h-108v60h117l29 212h61l-29 -212h133l29 212h61l-29 -212h90v-60h-99l-22 -162h95v-60h-103l-30 -214h-61l30 214h-133l-30 -214h-61z" unicode="#" horiz-adv-x="556"/>
<glyph glyph-name="dollar" d="M263 333q-34 10 -68.5 25t-62 38t-45 55.5t-17.5 78.5q0 43 15.5 77.5t42 59t61.5 38t74 15.5v72h48v-72q24 -1 49.5 -6t50 -15t46.5 -25t39 -35l-55 -42q-23 33 -58.5 49.5t-71.5 17.5v-275q38 -13 74.5 -29.5t65 -41t46 -58.5t17.5 -83q0 -42 -15.5 -76.5t-43 -59 t-64.5 -38.5t-80 -15v-72h-48v72q-68 2 -121.5 31t-89.5 75l57 40q13 -23 33 -39t41.5 -27t42.5 -16.5t37 -5.5v287zM311 46q22 1 45.5 8.5t42.5 23.5t31 41.5t12 62.5q0 51 -37 86t-94 53v-275zM263 664q-52 -2 -88 -36.5t-36 -91.5q0 -54 34 -84.5t90 -45.5v258z" unicode="$" horiz-adv-x="580"/>
<glyph glyph-name="percent" d="M217 -31l-52 27l451 743l51 -27zM735 163q0 25 -9.5 46t-25 36.5t-36.5 24t-45 8.5t-45 -8.5t-36.5 -24t-25 -36.5t-9.5 -46t9.5 -46t25 -36.5t36.5 -24t45 -8.5t45 8.5t36.5 24t25 36.5t9.5 46zM795 163q0 -37 -13.5 -69t-37.5 -55.5t-56 -37t-69 -13.5t-69 13.5t-56 37 t-37.5 55.5t-13.5 69t13.5 69t37.5 55.5t56 37t69 13.5t69 -13.5t56 -37t37.5 -55.5t13.5 -69zM330 545q0 25 -9.5 46t-25 36.5t-36.5 24t-45 8.5t-45 -8.5t-36.5 -24t-25 -36.5t-9.5 -46t9.5 -46t25 -36.5t36.5 -24t45 -8.5t45 8.5t36.5 24t25 36.5t9.5 46zM390 545 q0 -37 -13.5 -69t-37.5 -55.5t-56 -37t-69 -13.5t-69 13.5t-56 37t-37.5 55.5t-13.5 69t13.5 69t37.5 55.5t56 37t69 13.5t69 -13.5t56 -37t37.5 -55.5t13.5 -69z" unicode="%" horiz-adv-x="833"/>
<glyph glyph-name="ampersand" d="M253 348q-64 -29 -97 -68.5t-33 -96.5q0 -30 11.5 -55t32 -42.5t47.5 -27.5t57 -10q58 0 96.5 26t72.5 78zM404 567q0 44 -28.5 72t-71.5 28q-47 0 -77 -29.5t-30 -79.5q0 -19 8 -39.5t20 -38.5t25.5 -33t23.5 -23q24 11 47 24.5t41.5 30.5t30 39t11.5 49zM529 164 l159 -164h-100l-100 105q-44 -60 -95 -88.5t-123 -28.5q-45 0 -85.5 13t-70.5 37.5t-47.5 61t-17.5 84.5q0 40 12.5 72t34.5 57.5t52 45.5t65 35q-16 16 -31.5 35t-27.5 39.5t-19.5 43.5t-7.5 47q0 40 14 71t38 52.5t56 32.5t68 11q35 0 66 -10.5t54.5 -31t37 -50 t13.5 -67.5q0 -35 -13.5 -63t-36 -50.5t-51 -40t-58.5 -32.5l165 -170l98 172h81z" unicode="&amp;" horiz-adv-x="704"/>
<glyph glyph-name="quotesingle" d="M100 708h60v-235h-60v235z" unicode="&apos;" horiz-adv-x="260"/>
<glyph glyph-name="parenleft" d="M98 288q0 -58 10 -115t27.5 -110t41.5 -101t53 -88l-52 -33q-32 42 -58.5 92.5t-46 108t-30.5 119.5t-11 127q0 64 11 126.5t30.5 120t46 108t58.5 92.5l52 -33q-29 -40 -53 -88t-41.5 -101t-27.5 -110t-10 -115z" unicode="(" horiz-adv-x="300"/>
<glyph glyph-name="parenright" d="M202 288q0 58 -10 115t-27.5 110t-42 101t-52.5 88l52 33q31 -42 58 -92.5t46.5 -108t30.5 -120t11 -126.5q0 -65 -11 -127t-30.5 -119.5t-46.5 -108t-58 -92.5l-52 33q28 40 52.5 88t42 101t27.5 110t10 115z" unicode=")" horiz-adv-x="300"/>
<glyph glyph-name="asterisk" d="M252 565l140 45l21 -56l-141 -45l90 -121l-48 -36l-92 124l-92 -124l-48 36l90 121l-141 45l21 56l140 -45v143h60v-143z" unicode="*" horiz-adv-x="444"/>
<glyph glyph-name="plus" d="M363 333h225v-60h-225v-225h-60v225h-225v60h225v225h60v-225z" unicode="+" horiz-adv-x="666"/>
<glyph glyph-name="comma" d="M102 -140h-57l67 235h71z" unicode="," horiz-adv-x="260"/>
<glyph glyph-name="hyphen" d="M272 214h-224v57h224v-57z" unicode="-" horiz-adv-x="320"/>
<glyph glyph-name="period" d="M184 48q0 -21 -15 -37.5t-39 -16.5t-39 16.5t-15 37.5t15 37.5t39 16.5t39 -16.5t15 -37.5z" unicode="." horiz-adv-x="260"/>
<glyph glyph-name="slash" d="M63 -18l-58 19l303 725l57 -20z" unicode="/" horiz-adv-x="370"/>
<glyph glyph-name="zero" d="M290 665q-47 0 -78 -29t-49 -74t-25 -100.5t-7 -108.5t7 -108t25 -99.5t49 -73t78 -28.5q46 0 77 28.5t49 73t25.5 99.5t7.5 108t-7.5 108.5t-25.5 100.5t-49 74t-77 29zM290 726q66 0 110.5 -32.5t71.5 -85t38.5 -119.5t11.5 -136t-11.5 -135.5t-38.5 -119t-71.5 -84.5 t-110.5 -32q-67 0 -111.5 32t-71.5 84.5t-38 119t-11 135.5t11 136t38 119.5t71.5 85t111.5 32.5z" unicode="0" horiz-adv-x="580"/>
<glyph glyph-name="one" d="M358 0h-72v619l-128 -109l-44 50l180 148h64v-708z" unicode="1" horiz-adv-x="580"/>
<glyph glyph-name="two" d="M504 0h-453v75l290 293q16 16 31.5 34.5t27.5 38.5t19 42.5t7 46.5q0 31 -11 56t-30.5 42.5t-45 27t-53.5 9.5q-57 0 -96 -35.5t-50 -90.5l-71 14q7 37 26.5 69t48 55t64.5 36t78 13q43 0 81.5 -12.5t67.5 -37t46.5 -61t17.5 -84.5q0 -34 -9.5 -63t-25 -55t-36.5 -49.5 t-44 -46.5l-255 -253h375v-64z" unicode="2" horiz-adv-x="580"/>
<glyph glyph-name="three" d="M214 402h31q34 0 64 7t52.5 22.5t35.5 40.5t13 60q0 30 -11 54.5t-30.5 42t-45 27t-53.5 9.5q-45 0 -79.5 -21t-55.5 -62l-61 32q33 57 84 84.5t116 27.5q42 0 79.5 -12.5t66 -36.5t45 -59.5t16.5 -81.5q0 -63 -35 -105.5t-88 -56.5v-2q61 -13 102 -58.5t41 -117.5 q0 -51 -18.5 -90.5t-49.5 -67t-72.5 -42t-87.5 -14.5q-78 0 -136 37.5t-88 107.5l68 25q18 -51 60 -79.5t96 -28.5q30 0 58.5 10.5t50 30t34.5 47.5t13 64q0 40 -15.5 67.5t-41.5 44.5t-59 24.5t-68 7.5h-31v62z" unicode="3" horiz-adv-x="580"/>
<glyph glyph-name="four" d="M366 627h-2l-247 -393h249v393zM436 234h104v-63h-104v-171h-70v171h-324v70l300 467h94v-474z" unicode="4" horiz-adv-x="580"/>
<glyph glyph-name="five" d="M475 644h-295l-5 -219q23 8 48.5 12t49.5 4q50 0 92 -16t73 -45.5t48 -70.5t17 -90q0 -51 -17 -94.5t-48 -75t-74.5 -49.5t-95.5 -18q-77 0 -130 35t-82 94l65 29q19 -44 57.5 -70t85.5 -26q36 0 66.5 12.5t52.5 35t34.5 53.5t12.5 67q0 39 -13.5 70.5t-37 53.5t-55.5 34 t-70 12t-75.5 -10.5t-71.5 -28.5l7 365h361v-64z" unicode="5" horiz-adv-x="580"/>
<glyph glyph-name="six" d="M132 205q0 -35 11.5 -64.5t32.5 -51t50 -34t64 -12.5t64 12.5t50 34t32.5 51t11.5 64.5q0 34 -11 63.5t-31.5 51t-50 33.5t-65.5 12t-65.5 -12t-50 -33.5t-31.5 -51t-11 -63.5zM201 399l2 -2q16 12 45 19t56 7q46 0 85.5 -16t68.5 -44.5t45.5 -69t16.5 -88.5 q0 -50 -17 -91t-48 -70t-73 -45.5t-92 -16.5t-92 16.5t-73 45.5t-48 70t-17 91q0 55 19 102t45 90l193 311h83z" unicode="6" horiz-adv-x="580"/>
<glyph glyph-name="seven" d="M498 642l-285 -642h-81l293 644h-347v64h420v-66z" unicode="7" horiz-adv-x="580"/>
<glyph glyph-name="eight" d="M135 194q0 -32 11 -60t31.5 -48t49 -31.5t63.5 -11.5t63.5 11.5t49 31.5t31.5 48t11 60t-11 59t-31.5 47t-49 31t-63.5 11t-63.5 -11t-49 -31t-31.5 -47t-11 -59zM160 533q0 -28 10 -51t28 -40t41.5 -26.5t50.5 -9.5t50.5 9.5t41.5 26.5t28 40t10 51t-10 52.5t-27.5 42 t-41 27.5t-51.5 10t-51.5 -10t-41 -27.5t-27.5 -42t-10 -52.5zM383 375q58 -17 96 -67t38 -122q0 -47 -18.5 -84.5t-49.5 -64t-72.5 -41t-86.5 -14.5t-86.5 14.5t-72.5 41t-49.5 64t-18.5 84.5q0 36 10 66.5t28 55t42.5 41.5t53.5 26v2q-24 8 -43.5 23.5t-33.5 37t-22 47 t-8 52.5q0 43 16 78t43.5 59.5t63.5 38t77 13.5q40 0 76.5 -13.5t64 -38t43.5 -59.5t16 -78q0 -27 -8 -52.5t-22 -47t-33.5 -37t-43.5 -23.5v-2z" unicode="8" horiz-adv-x="580"/>
<glyph glyph-name="nine" d="M450 503q0 34 -11.5 64t-32.5 51.5t-50 34t-64 12.5t-64 -12.5t-50 -34t-32.5 -51.5t-11.5 -64t11 -63.5t31.5 -51t50 -33.5t65.5 -12t65.5 12t50 33.5t31.5 51t11 63.5zM381 309l-2 2q-16 -12 -45 -19t-56 -7q-46 0 -85.5 16t-68.5 44.5t-45.5 69t-16.5 88.5 q0 49 17 90.5t48 70.5t73 45.5t92 16.5t92 -16.5t73 -45.5t48 -70.5t17 -90.5q0 -55 -19 -102t-45 -90l-193 -311h-83z" unicode="9" horiz-adv-x="580"/>
<glyph glyph-name="colon" d="M204 48q0 -21 -15 -37.5t-39 -16.5t-39 16.5t-15 37.5t15 37.5t39 16.5t39 -16.5t15 -37.5zM204 420q0 -21 -15 -37.5t-39 -16.5t-39 16.5t-15 37.5t15 37.5t39 16.5t39 -16.5t15 -37.5z" unicode=":" horiz-adv-x="300"/>
<glyph glyph-name="semicolon" d="M118 -140h-60l67 235h74zM204 420q0 -21 -15 -37.5t-39 -16.5t-39 16.5t-15 37.5t15 37.5t39 16.5t39 -16.5t15 -37.5z" unicode=";" horiz-adv-x="300"/>
<glyph glyph-name="less" d="M588 504l-429 -201l429 -201v-60l-510 238v46l510 238v-60z" unicode="&lt;" horiz-adv-x="666"/>
<glyph glyph-name="equal" d="M588 258v-60h-510v60h510zM588 408v-60h-510v60h510z" unicode="=" horiz-adv-x="666"/>
<glyph glyph-name="greater" d="M78 564l510 -238v-46l-510 -238v60l429 201l-429 201v60z" unicode="&gt;" horiz-adv-x="666"/>
<glyph glyph-name="question" d="M300 48q0 -21 -15 -37.5t-39 -16.5t-39 16.5t-15 37.5t15 37.5t39 16.5t39 -16.5t15 -37.5zM274 192h-70v60q0 28 6.5 50.5t18 40.5t26 32.5t29.5 28.5l28 25q25 20 41.5 46t16.5 65q0 28 -10 50t-27 37t-39.5 23t-48.5 8q-54 0 -87.5 -33t-41.5 -84l-68 12 q15 78 68.5 122.5t131.5 44.5q40 0 75.5 -11.5t61.5 -34t41.5 -55.5t15.5 -75q0 -32 -7 -56t-19.5 -43t-29.5 -34.5t-36 -31.5q-21 -17 -35.5 -31t-23.5 -29.5t-13 -34.5t-4 -46v-46z" unicode="?" horiz-adv-x="482"/>
<glyph glyph-name="at" d="M731 101q-59 -60 -138.5 -89.5t-175.5 -29.5q-86 0 -156.5 27.5t-120.5 76.5t-77.5 117.5t-27.5 149.5q0 80 30 148t82 118t121.5 78.5t148.5 28.5q68 0 132 -20t113.5 -60t79 -100t29.5 -141q0 -60 -16 -106t-42.5 -77t-61.5 -46.5t-74 -15.5q-45 0 -66 22t-21 51h-4 q-5 -11 -16 -23.5t-27 -23.5t-36.5 -18.5t-45.5 -7.5q-34 0 -61 12.5t-45.5 34t-28.5 52t-10 66.5q0 42 14 82.5t39.5 72t62.5 50.5t83 19q38 0 65.5 -17.5t38.5 -42.5h4l10 45h62l-40 -186q-2 -7 -3.5 -17.5t-3.5 -22t-3 -22.5t-1 -18q0 -9 1.5 -17.5t7 -16t15 -12 t25.5 -4.5q25 0 45.5 14t35 38t22.5 57t8 71q0 65 -21.5 114.5t-60 83.5t-91 51t-115.5 17q-69 0 -125 -24t-96.5 -66t-62.5 -99.5t-22 -124.5q0 -71 23 -128t64.5 -97t99 -61.5t127.5 -21.5q89 0 154 27.5t116 77.5zM412 489q-30 0 -52.5 -15.5t-38.5 -39.5t-24 -54t-8 -59 q0 -14 3.5 -32t12.5 -34t24.5 -26.5t39.5 -10.5q34 0 58 17t39 42.5t22 54.5t7 54q0 19 -4 37.5t-13.5 33t-25.5 23.5t-40 9z" unicode="@" horiz-adv-x="800"/>
<glyph glyph-name="A" d="M193 252h312l-156 376zM89 0h-79l306 708h70l304 -708h-80l-78 186h-366z" unicode="A" horiz-adv-x="700"/>
<glyph glyph-name="B" d="M166 62h134q39 0 74.5 7.5t62 24t42.5 43t16 63.5q0 70 -47.5 104.5t-134.5 34.5h-147v-277zM166 398h145q26 0 52.5 6t48.5 20.5t35.5 38.5t13.5 59q0 34 -13.5 57.5t-36.5 38.5t-54 21.5t-66 6.5h-125v-248zM94 708h211q40 0 81 -8.5t73.5 -29t53 -55.5t20.5 -88 q0 -56 -34 -97.5t-91 -54.5v-2q69 -8 114.5 -53.5t45.5 -123.5q0 -44 -18.5 -80.5t-52.5 -62t-83 -39.5t-110 -14h-210v708z" unicode="B" horiz-adv-x="636"/>
<glyph glyph-name="C" d="M690 114q-18 -27 -43.5 -51t-59 -42t-74 -28.5t-88.5 -10.5q-80 0 -148 28t-117 77.5t-76.5 117.5t-27.5 149t28 149t77.5 117.5t117 77.5t146.5 28q39 0 76.5 -8t70.5 -22.5t60 -35t45 -46.5l-60 -44q-11 17 -29.5 34t-43.5 30t-54.5 21t-63.5 8q-69 0 -123.5 -25 t-92.5 -67.5t-58 -98.5t-20 -118t20.5 -118t58.5 -98.5t92.5 -67.5t122.5 -25q61 0 116 25t92 80z" unicode="C" horiz-adv-x="720"/>
<glyph glyph-name="D" d="M166 64h143q80 0 139.5 25t98.5 65.5t58.5 92.5t19.5 107t-19.5 107t-58.5 92.5t-98.5 65.5t-139.5 25h-143v-580zM94 708h235q66 0 132.5 -22t120 -66.5t86.5 -111t33 -154.5q0 -89 -33 -155t-86.5 -110.5t-120 -66.5t-132.5 -22h-235v708z" unicode="D" horiz-adv-x="757"/>
<glyph glyph-name="E" d="M166 64h379v-64h-451v708h439v-64h-367v-244h343v-63h-343v-273z" unicode="E" horiz-adv-x="592"/>
<glyph glyph-name="F" d="M166 0h-72v708h427v-64h-355v-246h330v-63h-330v-335z" unicode="F" horiz-adv-x="562"/>
<glyph glyph-name="G" d="M631 581q-37 39 -88 60.5t-117 21.5q-68 0 -122.5 -25t-92.5 -67.5t-58.5 -98.5t-20.5 -118t20.5 -118t58.5 -98t92.5 -67t122.5 -25q60 0 110 13t81 33v215h-165v63h237v-319q-58 -35 -125 -52t-139 -17q-80 0 -148 28t-117 77.5t-76.5 117.5t-27.5 149t28 149 t77.5 117.5t117 77.5t146.5 28q85 0 148 -25t108 -70z" unicode="G" horiz-adv-x="779"/>
<glyph glyph-name="H" d="M94 708h72v-307h386v307h72v-708h-72v335h-386v-335h-72v708z" unicode="H" horiz-adv-x="718"/>
<glyph glyph-name="I" d="M166 0h-72v708h72v-708z" unicode="I" horiz-adv-x="260"/>
<glyph glyph-name="J" d="M92 144q8 -42 37.5 -70.5t77.5 -28.5q37 0 61 13.5t38.5 36.5t20 52.5t5.5 61.5v499h72v-504q0 -35 -7.5 -74t-28.5 -72t-58 -54.5t-95 -21.5q-77 0 -127 40.5t-63 103.5z" unicode="J" horiz-adv-x="492"/>
<glyph glyph-name="K" d="M166 390h1l337 318h103l-357 -321l377 -387h-106l-354 377h-1v-377h-72v708h72v-318z" unicode="K" horiz-adv-x="628"/>
<glyph glyph-name="L" d="M166 64h330v-64h-402v708h72v-644z" unicode="L" horiz-adv-x="510"/>
<glyph glyph-name="M" d="M444 122h1l237 586h110v-708h-72v615h-2l-256 -615h-38l-256 615h-2v-615h-72v708h110z" unicode="M" horiz-adv-x="886"/>
<glyph glyph-name="N" d="M596 105h2v603h72v-708h-90l-412 609h-2v-609h-72v708h90z" unicode="N" horiz-adv-x="764"/>
<glyph glyph-name="O" d="M718 354q0 62 -20 118t-58 98.5t-92.5 67.5t-122.5 25t-122.5 -25t-92.5 -67.5t-58 -98.5t-20 -118t20 -118t58 -98t92.5 -67t122.5 -25t122.5 25t92.5 67t58 98t20 118zM794 354q0 -81 -28 -149t-77.5 -117.5t-117 -77.5t-146.5 -28t-146.5 28t-117 77.5t-77.5 117.5 t-28 149t28 149t77.5 117.5t117 77.5t146.5 28t146.5 -28t117 -77.5t77.5 -117.5t28 -149z" unicode="O" horiz-adv-x="850"/>
<glyph glyph-name="P" d="M166 390h122q85 0 129 33t44 96q0 66 -45.5 96.5t-127.5 30.5h-122v-256zM94 708h200q54 0 98 -11.5t75.5 -35t48.5 -59t17 -83.5t-17.5 -83.5t-49 -59t-76 -35.5t-98.5 -12h-126v-329h-72v708z" unicode="P" horiz-adv-x="580"/>
<glyph glyph-name="Q" d="M819 0h-405q-77 0 -142.5 27t-113.5 75.5t-75 115t-27 145.5t27 145.5t75 115t113.5 75.5t142.5 27q76 0 141.5 -27t113.5 -75.5t75 -115t27 -145.5q0 -94 -41.5 -171.5t-124.5 -125.5v-2h214v-64zM132 363q0 -60 19.5 -114t55.5 -95.5t88.5 -66t118.5 -24.5 q65 0 117.5 24.5t89 66t56.5 95.5t20 114t-20 114t-56.5 95.5t-89 66t-117.5 24.5q-66 0 -118.5 -24.5t-88.5 -66t-55.5 -95.5t-19.5 -114z" unicode="Q" horiz-adv-x="843"/>
<glyph glyph-name="R" d="M166 393h125q87 0 134 31.5t47 94.5q0 35 -13 59t-36 39t-56 22t-73 7h-128v-253zM166 0h-72v708h208q52 0 96.5 -10t77 -32.5t50.5 -58.5t18 -88q0 -39 -14 -71t-38 -55.5t-57 -37.5t-72 -18l207 -337h-88l-196 331h-120v-331z" unicode="R" horiz-adv-x="599"/>
<glyph glyph-name="S" d="M437 594q-23 32 -59 51.5t-87 19.5q-26 0 -53 -8t-49 -24.5t-35.5 -41.5t-13.5 -59t13 -56t34.5 -37.5t49 -25.5t57.5 -20q37 -12 74.5 -26t67.5 -36.5t49 -57t19 -87.5t-20.5 -91.5t-53 -63.5t-74 -37t-83.5 -12q-32 0 -64 6.5t-61 19.5t-54 33t-44 46l62 46 q23 -38 64.5 -63.5t97.5 -25.5q27 0 55 8.5t50.5 26t37 43t14.5 59.5q0 37 -14.5 61.5t-38.5 41t-55 27.5t-65 22q-35 11 -69 25t-61 36.5t-43.5 55.5t-16.5 81q0 51 20.5 88t53.5 61t73 35t79 11q72 0 123 -25.5t77 -60.5z" unicode="S" horiz-adv-x="564"/>
<glyph glyph-name="T" d="M321 0h-72v644h-237v64h546v-64h-237v-644z" unicode="T" horiz-adv-x="570"/>
<glyph glyph-name="U" d="M355 -18q-80 0 -131 27.5t-81 69.5t-41.5 91.5t-11.5 93.5v444h72v-436q0 -43 10 -83.5t32.5 -72t59.5 -51t91 -19.5t91 19.5t59.5 51t32.5 72t10 83.5v436h72v-444q0 -44 -11.5 -93.5t-41.5 -91.5t-81.5 -69.5t-130.5 -27.5z" unicode="U" horiz-adv-x="710"/>
<glyph glyph-name="V" d="M311 93h2l230 615h77l-271 -708h-76l-270 708h78z" unicode="V" horiz-adv-x="623"/>
<glyph glyph-name="W" d="M265 99h2l177 609h86l177 -609h2l173 609h76l-209 -708h-84l-178 608h-2l-178 -608h-84l-209 708h76z" unicode="W" horiz-adv-x="972"/>
<glyph glyph-name="X" d="M326 422l193 286h86l-235 -337l260 -371h-90l-216 319l-215 -319h-90l260 372l-237 336h90z" unicode="X" horiz-adv-x="649"/>
<glyph glyph-name="Y" d="M337 0h-72v305l-265 403h90l213 -343l215 343h84l-265 -403v-305z" unicode="Y" horiz-adv-x="602"/>
<glyph glyph-name="Z" d="M535 648l-413 -584h419v-64h-510v60l414 584h-403v64h493v-60z" unicode="Z"/>
<glyph glyph-name="bracketleft" d="M220 678h-96v-780h96v-54h-162v888h162v-54z" unicode="[" horiz-adv-x="300"/>
<glyph glyph-name="backslash" d="M5 706l57 20l303 -725l-58 -19z" unicode="\" horiz-adv-x="370"/>
<glyph glyph-name="bracketright" d="M80 -102h96v780h-96v54h162v-888h-162v54z" unicode="]" horiz-adv-x="300"/>
<glyph glyph-name="asciicircum" d="M309 708h48l229 -433h-62l-191 361l-191 -361h-62z" unicode="^" horiz-adv-x="666"/>
<glyph glyph-name="underscore" d="M0 -75h500v-50h-500v50z" unicode="_" horiz-adv-x="500"/>
<glyph glyph-name="grave" d="M-10 708h91l100 -144h-59z" unicode="`" horiz-adv-x="240"/>
<glyph glyph-name="a" d="M365 234q-42 0 -84.5 -3.5t-77 -14t-56.5 -30.5t-22 -53q0 -25 9.5 -42t25.5 -27.5t35.5 -15t39.5 -4.5q36 0 64 12.5t47 34t29 49.5t10 59v35h-20zM385 302q0 61 -32 91t-93 30q-42 0 -78 -15t-61 -40l-38 45q29 29 76.5 48t107.5 19q38 0 71 -10.5t58 -31.5t39 -53 t14 -75v-205q0 -27 2 -56t6 -49h-61q-3 17 -5 37t-2 39h-2q-32 -47 -72.5 -67.5t-97.5 -20.5q-27 0 -55.5 7.5t-52 24.5t-39 44t-15.5 66q0 54 27.5 85.5t73.5 47t105.5 20t123.5 4.5v15z" unicode="a" horiz-adv-x="534"/>
<glyph glyph-name="b" d="M509 234q0 39 -12 73.5t-34.5 60t-55.5 40.5t-75 15q-39 0 -72 -14.5t-57 -40t-37.5 -60t-13.5 -74.5t13.5 -74.5t37.5 -59.5t57 -39.5t72 -14.5q42 0 75 14.5t55.5 40t34.5 60t12 73.5zM160 79v-79h-68v756h68v-369h2q30 46 78 69.5t99 23.5q55 0 99.5 -19t76 -52 t49 -78t17.5 -97t-17.5 -97t-49 -78t-76 -52t-99.5 -19q-51 0 -99 23t-78 68h-2z" unicode="b" horiz-adv-x="637"/>
<glyph glyph-name="c" d="M427 361q-17 27 -49.5 44.5t-70.5 17.5q-41 0 -74 -14.5t-56.5 -40t-36 -60t-12.5 -74.5t12.5 -74t35.5 -59.5t56 -40t74 -14.5q45 0 76 17t51 44l51 -38q-30 -37 -73.5 -59t-104.5 -22q-57 0 -103 18.5t-78.5 51.5t-50.5 78t-18 98t18 98t50.5 78t78.5 51.5t103 18.5 q47 0 95.5 -20.5t78.5 -60.5z" unicode="c" horiz-adv-x="500"/>
<glyph glyph-name="d" d="M128 234q0 -39 12 -73.5t34.5 -60t55.5 -40t75 -14.5q39 0 72 14.5t57 39.5t37.5 59.5t13.5 74.5t-13.5 74.5t-37.5 60t-57 40t-72 14.5q-42 0 -75 -15t-55.5 -40.5t-34.5 -60t-12 -73.5zM475 79q-30 -45 -78 -68t-99 -23q-55 0 -99.5 19t-76 52t-49 78t-17.5 97t17.5 97 t49 78t76 52t99.5 19q51 0 99 -23.5t78 -69.5h2v369h68v-756h-68v79h-2z" unicode="d" horiz-adv-x="637"/>
<glyph glyph-name="e" d="M516 248v-15t-1 -17h-388q1 -35 14 -66t36 -54t54 -36.5t67 -13.5q53 0 91.5 24.5t58.5 56.5l51 -40q-42 -53 -92.5 -76t-108.5 -23q-52 0 -96.5 18.5t-76.5 51.5t-50.5 78t-18.5 98t18 98t50 78t75 51.5t93 18.5q55 0 97 -18.5t70 -50t42.5 -73.5t14.5 -90zM447 270 q-3 66 -42.5 109.5t-112.5 43.5q-34 0 -63 -12.5t-51 -34t-35 -49t-15 -57.5h319z" unicode="e"/>
<glyph glyph-name="f" d="M288 411h-110v-411h-68v411h-98v57h98v128q0 80 39 126t120 46q13 0 28 -1.5t28 -5.5l-12 -60q-11 3 -22 5t-25 2q-27 0 -44.5 -9t-27 -25.5t-13 -38.5t-3.5 -47v-120h110v-57z" unicode="f" horiz-adv-x="295"/>
<glyph glyph-name="g" d="M128 240q0 -37 12 -70t34.5 -58t55.5 -39.5t75 -14.5q39 0 72 13t57 37t37.5 57.5t13.5 74.5q0 37 -13.5 70t-37.5 58t-57 40t-72 15q-42 0 -75 -15t-55.5 -40t-34.5 -58t-12 -70zM115 -94q28 -36 76.5 -61t102.5 -25q50 0 85 14.5t56.5 39.5t31.5 58.5t10 71.5v88h-2 q-27 -44 -76.5 -68t-100.5 -24q-55 0 -99.5 18t-76 49.5t-49 75.5t-17.5 95q0 50 17.5 94t49 77t76 52t99.5 19q51 0 100 -24t77 -69h2v81h68v-464q0 -38 -10.5 -81t-39 -79t-77.5 -60t-127 -24q-65 0 -124 25t-101 69z" unicode="g" horiz-adv-x="632"/>
<glyph glyph-name="h" d="M162 391q19 41 63 65t94 24q89 0 133.5 -53t44.5 -140v-287h-68v259q0 37 -6 67t-20.5 51.5t-39 33.5t-61.5 12q-27 0 -52.5 -11t-45.5 -33.5t-32 -57t-12 -81.5v-240h-68v756h68v-365h2z" unicode="h" horiz-adv-x="583"/>
<glyph glyph-name="i" d="M173 648q0 -21 -15 -34.5t-33 -13.5t-33 13.5t-15 34.5t15 34.5t33 13.5t33 -13.5t15 -34.5zM159 0h-68v468h68v-468z" unicode="i" horiz-adv-x="250"/>
<glyph glyph-name="j" d="M174 648q0 -21 -15 -34.5t-33 -13.5t-33 13.5t-15 34.5t15 34.5t33 13.5t33 -13.5t15 -34.5zM-17 -176q10 -3 21.5 -4.5t21.5 -1.5q21 0 34 7.5t20 20.5t9.5 31.5t2.5 40.5v550h68v-561q0 -28 -6 -54.5t-21 -47t-40.5 -33t-65.5 -12.5q-11 0 -26 1.5t-28 5.5z" unicode="j" horiz-adv-x="251"/>
<glyph glyph-name="k" d="M160 257h3l216 211h98l-236 -214l260 -254h-100l-238 246h-3v-246h-68v756h68v-499z" unicode="k" horiz-adv-x="510"/>
<glyph glyph-name="l" d="M160 0h-68v756h68v-756z" unicode="l" horiz-adv-x="252"/>
<glyph glyph-name="m" d="M157 388q20 41 61.5 66.5t92.5 25.5q19 0 39.5 -4t40 -15.5t36 -30.5t28.5 -49q24 48 65.5 73.5t98.5 25.5q89 0 133.5 -53t44.5 -140v-287h-68v259q0 74 -27.5 119t-93.5 45q-37 0 -62.5 -15t-41 -39.5t-22.5 -55.5t-7 -64v-249h-68v273q0 34 -5 62t-17.5 47.5t-34.5 30 t-56 10.5q-24 0 -48.5 -11t-44 -33.5t-31.5 -57t-12 -81.5v-240h-68v365q0 19 -1 49t-3 54h65q2 -19 3 -42t1 -38h2z" unicode="m" horiz-adv-x="883"/>
<glyph glyph-name="n" d="M151 468q2 -19 3 -42t1 -38h2q20 41 65 66.5t95 25.5q89 0 133.5 -53t44.5 -140v-287h-68v259q0 37 -6 67t-20.5 51.5t-39 33.5t-61.5 12q-27 0 -52.5 -11t-45.5 -33.5t-32 -57t-12 -81.5v-240h-68v365q0 19 -1 49t-3 54h65z" unicode="n" horiz-adv-x="581"/>
<glyph glyph-name="o" d="M483 234q0 39 -12.5 73.5t-35.5 60t-56 40.5t-74 15t-73.5 -15t-55.5 -40.5t-35.5 -60t-12.5 -73.5t12.5 -73.5t35.5 -60t55.5 -40t73.5 -14.5t74 14.5t56 40t35.5 60t12.5 73.5zM555 234q0 -53 -18.5 -98t-51.5 -78t-79 -51.5t-101 -18.5q-54 0 -100 18.5t-79 51.5 t-51.5 78t-18.5 98t18.5 98t51.5 78t79 51.5t100 18.5q55 0 101 -18.5t79 -51.5t51.5 -78t18.5 -98z" unicode="o" horiz-adv-x="611"/>
<glyph glyph-name="p" d="M507 234q0 39 -12 73.5t-34.5 60t-55.5 40.5t-75 15q-39 0 -72 -14.5t-57 -40t-37.5 -60t-13.5 -74.5t13.5 -74.5t37.5 -59.5t57 -39.5t72 -14.5q42 0 75 14.5t55.5 40t34.5 60t12 73.5zM158 -240h-68v708h68v-81h3q29 46 77.5 69.5t98.5 23.5q55 0 99.5 -19t76 -52 t49 -78t17.5 -97t-17.5 -97t-49 -78t-76 -52t-99.5 -19q-50 0 -98.5 23.5t-77.5 67.5h-3v-319z" unicode="p" horiz-adv-x="635"/>
<glyph glyph-name="q" d="M128 234q0 -39 12 -73.5t34.5 -60t55.5 -40t75 -14.5q39 0 72 14.5t57 39.5t37.5 59.5t13.5 74.5t-13.5 74.5t-37.5 60t-57 40t-72 14.5q-42 0 -75 -15t-55.5 -40.5t-34.5 -60t-12 -73.5zM474 79q-29 -44 -77.5 -67.5t-98.5 -23.5q-55 0 -99.5 19t-76 52t-49 78t-17.5 97 t17.5 97t49 78t76 52t99.5 19q50 0 98.5 -23.5t77.5 -69.5h3v81h68v-708h-68v319h-3z" unicode="q" horiz-adv-x="635"/>
<glyph glyph-name="r" d="M90 365q0 19 -1 49t-3 54h65q2 -19 3 -42t1 -38h2q20 41 60 66.5t90 25.5q13 0 23.5 -1t21.5 -4l-9 -64q-6 2 -20 4t-28 2q-27 0 -52 -10t-43.5 -31.5t-30 -55t-11.5 -80.5v-240h-68v365z" unicode="r" horiz-adv-x="360"/>
<glyph glyph-name="s" d="M339 357q-15 29 -45.5 47.5t-69.5 18.5q-18 0 -36 -4t-32 -13t-22.5 -23t-8.5 -33q0 -33 27 -50.5t85 -29.5q83 -17 122.5 -49.5t39.5 -87.5q0 -40 -15.5 -67.5t-40.5 -45t-56.5 -25t-63.5 -7.5q-53 0 -103 22t-82 69l54 40q18 -31 53 -52t77 -21q22 0 42 4t35 14 t24 25.5t9 38.5q0 37 -35.5 55.5t-102.5 34.5q-21 5 -44.5 12.5t-43.5 22t-33 36.5t-13 55q0 36 14 61.5t37.5 42t53.5 24.5t62 8q49 0 95 -22t69 -62z" unicode="s" horiz-adv-x="444"/>
<glyph glyph-name="t" d="M301 411h-132v-273q0 -26 5 -43t14.5 -26.5t22.5 -13t28 -3.5q14 0 29.5 4t29.5 11l3 -59q-18 -7 -37.5 -10.5t-42.5 -3.5q-19 0 -40 5t-39 19t-29.5 38t-11.5 63v292h-97v57h97v132h68v-132h132v-57z" unicode="t" horiz-adv-x="317"/>
<glyph glyph-name="u" d="M430 0q-2 19 -3 42t-1 38h-2q-20 -41 -65 -66.5t-95 -25.5q-89 0 -133.5 53t-44.5 140v287h68v-259q0 -37 6 -67t20.5 -51.5t39 -33.5t61.5 -12q27 0 52.5 11t45.5 33.5t32 57t12 81.5v240h68v-365q0 -19 1 -49t3 -54h-65z" unicode="u" horiz-adv-x="581"/>
<glyph glyph-name="v" d="M282 0h-75l-191 468h76l152 -396h2l153 396h73z" unicode="v" horiz-adv-x="488"/>
<glyph glyph-name="w" d="M99 468l113 -380h2l126 380h66l128 -380h2l112 380h72l-148 -468h-74l-125 379h-2l-123 -379h-74l-148 468h73z" unicode="w" horiz-adv-x="746"/>
<glyph glyph-name="x" d="M200 242l-173 226h87l128 -178l128 178h82l-170 -223l186 -245h-88l-139 195l-143 -195h-82z" unicode="x" horiz-adv-x="484"/>
<glyph glyph-name="y" d="M251 73h2l145 395h74l-233 -589q-21 -54 -53.5 -86.5t-93.5 -32.5q-31 0 -61 6l7 62q24 -8 50 -8q35 0 55 21.5t35 61.5l38 98l-200 467h76z" unicode="y" horiz-adv-x="488"/>
<glyph glyph-name="z" d="M401 420l-280 -361h290v-59h-380v48l279 363h-265v57h356v-48z" unicode="z" horiz-adv-x="442"/>
<glyph glyph-name="braceleft" d="M0 318q39 0 59 29t20 82v178q0 35 9 59t24 38.5t34.5 21t40.5 6.5h63v-54h-48q-18 0 -29.5 -7.5t-17.5 -19.5t-8 -27t-2 -29v-178q0 -36 -10.5 -60.5t-25 -39t-29.5 -21t-24 -7.5v-2q9 -1 24 -7.5t29.5 -21t25 -39t10.5 -60.5v-178q0 -14 2 -29t8 -27t17.5 -19.5 t29.5 -7.5h48v-54h-63q-21 0 -40.5 6.5t-34.5 21t-24 38.5t-9 59v178q0 53 -20 82t-59 29v60z" unicode="{" horiz-adv-x="300"/>
<glyph glyph-name="bar" d="M141 750v-1000h-60v1000h60z" unicode="|" horiz-adv-x="222"/>
<glyph glyph-name="braceright" d="M300 258q-39 0 -59 -29t-20 -82v-178q0 -35 -9 -59t-24 -38.5t-34.5 -21t-40.5 -6.5h-63v54h48q18 0 29.5 7.5t17.5 19.5t8 27t2 29v178q0 36 10.5 60.5t25 39t29.5 21t24 7.5v2q-9 1 -24 7.5t-29.5 21t-25 39t-10.5 60.5v178q0 14 -2 29t-8 27t-17.5 19.5t-29.5 7.5h-48 v54h63q21 0 40.5 -6.5t34.5 -21t24 -38.5t9 -59v-178q0 -53 20 -82t59 -29v-60z" unicode="}" horiz-adv-x="300"/>
<glyph glyph-name="asciitilde" d="M577 328q-10 -16 -23.5 -32.5t-30.5 -30t-37.5 -22t-44.5 -8.5q-14 0 -26.5 1.5t-25.5 5.5t-27 11t-32 18q-31 20 -54 30t-49 10q-17 0 -32 -7t-27 -17.5t-21 -23.5t-16 -25l-42 40q11 16 24.5 32.5t30 30t37 22t44.5 8.5q28 0 53.5 -7.5t56.5 -27.5q29 -19 54 -30 t49 -11q17 0 32 7t27 18t21.5 24t16.5 24z" unicode="~" horiz-adv-x="666"/>
<glyph glyph-name="uni00A0" unicode=" " horiz-adv-x="250"/>
<glyph glyph-name="exclamdown" d="M218 431q0 -21 -15 -37.5t-39 -16.5t-39 16.5t-15 37.5t15 37.5t39 16.5t39 -16.5t15 -37.5zM200 -229h-72v516h72v-516z" unicode="¡" horiz-adv-x="328"/>
<glyph glyph-name="cent" d="M346 49q36 2 64 19.5t43 41.5l54 -41q-32 -38 -74 -58t-87 -22v-61h-48v63q-49 5 -88 25.5t-66 53t-41.5 74.5t-14.5 90t14.5 90t41.5 74.5t66 53t88 25.5v63h48v-61q45 -2 87 -22t74 -58l-54 -41q-15 24 -43 41.5t-64 19.5v-370zM298 417q-32 -6 -57.5 -22t-43.5 -40 t-27.5 -55t-9.5 -66t9.5 -66t27.5 -55t43.5 -40t57.5 -22v366z" unicode="¢" horiz-adv-x="580"/>
<glyph glyph-name="sterling" d="M417 335h-168v-275h262v-60h-436v60h102v275h-96v60h96v93q0 43 10.5 85.5t35 76.5t65.5 55t101 21q44 0 84.5 -14t70.5 -46l-47 -51q-20 23 -48 36.5t-63 13.5q-45 0 -72 -19t-41.5 -47t-19 -60t-4.5 -57v-87h168v-60z" unicode="£" horiz-adv-x="580"/>
<glyph glyph-name="currency" d="M292 457q-38 1 -69 -13t-53 -38t-34 -54q-12 -32 -11 -67q-1 -35 11 -67t34 -56t53 -38t69 -13q38 -1 69 13t53 38t33 56q12 32 12 67t-12 67q-11 32 -33 54q-22 24 -53 38t-69 13zM480 431q23 -29 35 -65t12 -81t-13 -83t-37 -68l86 -86l-39 -40l-88 87q-30 -23 -66 -35 t-78 -12q-82 0 -145 49l-89 -89l-40 40l88 89q-48 57 -48 148q0 43 12 79t33 65l-85 85l40 39l85 -84q30 23 67 37t82 13q44 0 81 -13t66 -37l84 84l40 -39z" unicode="¤" horiz-adv-x="580"/>
<glyph glyph-name="yen" d="M256 223v105h-165v54h145l-226 326h89l193 -300l192 300h86l-224 -326h143v-54h-165v-105h165v-54h-165v-169h-68v169h-165v54h165z" unicode="¥" horiz-adv-x="580"/>
<glyph glyph-name="brokenbar" d="M141 175v-350h-60v350h60zM141 675v-350h-60v350h60z" unicode="¦" horiz-adv-x="222"/>
<glyph glyph-name="section" d="M259 410q-14 -2 -29.5 -7.5t-29 -16t-22 -27t-8.5 -39.5q0 -20 7 -34.5t21 -26t34 -21.5t46 -21l66 -30q12 3 25 10t23.5 18t17.5 26t7 35q0 22 -7.5 39t-21 29.5t-31 22t-37.5 17.5zM415 602q-5 11 -13.5 22.5t-22 20.5t-31.5 15t-41 6q-48 0 -78 -23.5t-30 -65.5 q0 -23 8.5 -40t22 -29.5t31 -21.5t36.5 -17l87 -41q42 -20 72.5 -53.5t30.5 -88.5q0 -50 -26 -83.5t-63 -47.5q35 -21 53 -51.5t18 -73.5q0 -42 -15.5 -72.5t-42 -51t-60.5 -30t-70 -9.5q-67 0 -120.5 28t-77.5 87l66 32q17 -47 53.5 -67t78.5 -20q18 0 38 4.5t37.5 15.5 t29 30t11.5 48q0 36 -21.5 58.5t-53.5 37.5l-127 61q-20 9 -37 21t-30 27.5t-20.5 36.5t-7.5 49q0 50 29.5 84t74.5 48q-11 7 -24.5 17t-25 24t-19.5 33.5t-8 45.5q0 40 15 70t40.5 49.5t58 29t67.5 9.5q67 0 109 -27.5t57 -66.5z" unicode="§" horiz-adv-x="580"/>
<glyph glyph-name="dieresis" d="M165 647q0 20 14 35.5t37 15.5t37 -15.5t14 -35.5t-14 -35.5t-37 -15.5t-37 15.5t-14 35.5zM-27 647q0 20 14 35.5t37 15.5t37 -15.5t14 -35.5t-14 -35.5t-37 -15.5t-37 15.5t-14 35.5z" unicode="¨" horiz-adv-x="240"/>
<glyph glyph-name="copyright" d="M80 353q0 -66 25.5 -124t69 -101.5t102 -68.5t124.5 -25t124 25t101.5 68.5t68.5 101.5t25 124t-25 124.5t-68.5 102t-101.5 69t-124 25.5t-124.5 -25.5t-102 -69t-69 -102t-25.5 -124.5zM20 353q0 79 30 147.5t81.5 119.5t121 80.5t148.5 29.5q78 0 147 -29.5 t120.5 -80.5t81.5 -119.5t30 -147.5q0 -78 -30 -146.5t-81.5 -119.5t-120.5 -80t-147 -29q-79 0 -148.5 29t-121 80t-81.5 119.5t-30 146.5zM580 224q-24 -37 -67 -64t-103 -27q-49 0 -90.5 17t-71.5 47t-47 71.5t-17 90.5t17 90t47 71t71.5 47t90.5 17q48 0 92.5 -21 t69.5 -58l-52 -40q-14 22 -43.5 40.5t-64.5 18.5q-37 0 -66.5 -13.5t-50 -36.5t-31.5 -52.5t-11 -62.5t10.5 -63t31 -53t49.5 -36.5t66 -13.5q32 0 63 15t55 50z" unicode="©" horiz-adv-x="800"/>
<glyph glyph-name="ordfeminine" d="M229 566q-21 0 -44 -1.5t-42 -7.5t-31.5 -16.5t-12.5 -28.5q0 -25 18.5 -34.5t40.5 -9.5q41 0 63.5 23.5t22.5 59.5v15h-15zM244 614q0 31 -20.5 46t-52.5 15q-24 0 -46.5 -9t-36.5 -23l-32 35q22 20 53.5 31t66.5 11q63 0 93 -31.5t30 -78.5v-123q0 -14 1 -29.5t3 -26.5 h-52q-5 22 -5 41h-2q-33 -48 -98 -48q-18 0 -36.5 4.5t-34 14.5t-25.5 27t-10 41q0 32 18 51t47 28.5t65.5 12.5t73.5 3v8z" unicode="ª" horiz-adv-x="360"/>
<glyph glyph-name="guillemotleft" d="M306 240l115 -176l-47 -33l-140 209l140 209l47 -33zM124 240l115 -176l-47 -33l-140 209l140 209l47 -33z" unicode="«" horiz-adv-x="482"/>
<glyph glyph-name="logicalnot" d="M588 130h-60v218h-450v60h510v-278z" unicode="¬" horiz-adv-x="666"/>
<glyph glyph-name="uni00AD" d="M272 214h-224v57h224v-57z" unicode="­" horiz-adv-x="320"/>
<glyph glyph-name="registered" d="M294 510q20 0 38 7.5t18 30.5q0 21 -16.5 28t-34.5 7h-42v-73h37zM211 622h90q18 0 35 -4t30.5 -13t21.5 -23t8 -35q0 -28 -16 -45.5t-43 -23.5l69 -112h-56l-60 107h-33v-107h-46v256zM108 493q0 -39 15 -74t41 -61.5t61 -41.5t75 -15t75 15t61 41.5t41 61.5t15 74 q0 40 -15 75t-41 61t-61 41t-75 15t-75 -15t-61 -41t-41 -61t-15 -75zM72 493q0 47 18 88.5t49 72t72.5 48.5t88.5 18t88.5 -18t72.5 -48.5t49 -72t18 -88.5t-18 -88t-49 -71.5t-72.5 -48t-88.5 -17.5t-88.5 17.5t-72.5 48t-49 71.5t-18 88z" unicode="®" horiz-adv-x="600"/>
<glyph glyph-name="macron" d="M255 600h-270v54h270v-54z" unicode="¯" horiz-adv-x="240"/>
<glyph glyph-name="degree" d="M301 571q0 21 -8 39.5t-21.5 32t-32 21.5t-39.5 8t-39.5 -8t-32 -21.5t-21.5 -32t-8 -39.5t8 -39.5t21.5 -32t32 -21.5t39.5 -8t39.5 8t32 21.5t21.5 32t8 39.5zM349 571q0 -32 -11 -59.5t-31 -47.5t-47.5 -31t-59.5 -11t-59.5 11t-47.5 31t-31 47.5t-11 59.5t11 59.5 t31 47.5t47.5 31t59.5 11t59.5 -11t47.5 -31t31 -47.5t11 -59.5z" unicode="°" horiz-adv-x="400"/>
<glyph glyph-name="plusminus" d="M78 108h510v-60h-510v60zM78 407h225v156h60v-156h225v-60h-225v-151h-60v151h-225v60z" unicode="±" horiz-adv-x="666"/>
<glyph glyph-name="twosuperior" d="M319 290h-276v57l167 169q16 17 29.5 37.5t13.5 48.5q0 29 -19 45.5t-48 16.5q-28 0 -48 -19t-27 -51l-60 9q10 51 47 83.5t88 32.5q26 0 50 -7.5t42 -22t28.5 -36.5t10.5 -51q0 -22 -6.5 -40.5t-16.5 -34t-22.5 -29t-25.5 -26.5l-128 -128h201v-54z" unicode="²" horiz-adv-x="370"/>
<glyph glyph-name="threesuperior" d="M137 535h27q35 0 59.5 16t24.5 54q0 28 -20 45t-49 17q-23 0 -42.5 -13t-32.5 -37l-50 26q23 40 56 58.5t71 18.5q26 0 49 -7t40.5 -21.5t27.5 -36t10 -49.5q0 -32 -15.5 -55.5t-41.5 -37.5q32 -12 50.5 -38t18.5 -64q0 -31 -11.5 -55t-30.5 -40t-44.5 -24t-53.5 -8 q-48 0 -84.5 23t-56.5 73l57 19q10 -29 32.5 -45t51.5 -16q31 0 55.5 18t24.5 55q0 20 -8.5 34t-22 22.5t-30.5 12.5t-35 4h-27v51z" unicode="³" horiz-adv-x="370"/>
<glyph glyph-name="acute" d="M118 564h-59l100 144h91z" unicode="´" horiz-adv-x="240"/>
<glyph glyph-name="mu" d="M72 468h66v-259q0 -86 27.5 -123.5t99.5 -37.5q30 0 56 12t45 35t30 56.5t11 76.5v240h66v-365q0 -26 1.5 -51.5t3.5 -51.5h-71v76h-2q-11 -18 -28 -34t-38 -28t-44.5 -19t-46.5 -7q-69 0 -110 29v-245h-66v696z" unicode="µ" horiz-adv-x="556"/>
<glyph glyph-name="paragraph" d="M513 -126h-66v780h-124v-780h-66v442q-46 0 -84.5 14.5t-66 39.5t-43 59t-15.5 73q0 98 61 152t167 54h237v-834z" unicode="¶" horiz-adv-x="600"/>
<glyph glyph-name="periodcentered" d="M184 314q0 -21 -15 -37.5t-39 -16.5t-39 16.5t-15 37.5t15 37.5t39 16.5t39 -16.5t15 -37.5z" unicode="·" horiz-adv-x="260"/>
<glyph glyph-name="cedilla" d="M109 -75q13 4 35 4q30 0 56 -18t26 -54q0 -25 -11 -42t-28 -27t-38 -14t-41 -4t-46.5 5t-47.5 15l16 36q17 -8 35 -11t37 -3q8 0 19 2t21 7.5t17 14t7 20.5q0 20 -14.5 29.5t-39.5 9.5q-22 0 -43 -8l-18 15l62 98h43z" unicode="¸" horiz-adv-x="240"/>
<glyph glyph-name="onesuperior" d="M232 286h-61v346l-64 -57l-38 41l112 92h51v-422z" unicode="¹" horiz-adv-x="370"/>
<glyph glyph-name="ordmasculine" d="M274 572q0 20 -6 38.5t-18 32.5t-29.5 22.5t-40.5 8.5t-40.5 -8.5t-29.5 -22.5t-18 -32.5t-6 -38.5t6 -38.5t18 -32.5t29.5 -22.5t40.5 -8.5t40.5 8.5t29.5 22.5t18 32.5t6 38.5zM332 572q0 -32 -11.5 -59.5t-31.5 -47t-48 -30.5t-61 -11t-61 11t-48 30.5t-31.5 47 t-11.5 59.5q0 33 11.5 60t31.5 46.5t48 30.5t61 11t61 -11t48 -30.5t31.5 -46.5t11.5 -60z" unicode="º" horiz-adv-x="360"/>
<glyph glyph-name="guillemotright" d="M176 240l-115 176l47 33l140 -209l-140 -209l-47 33zM358 240l-115 176l47 33l140 -209l-140 -209l-47 33z" unicode="»" horiz-adv-x="482"/>
<glyph glyph-name="onequarter" d="M217 -31l-52 27l451 743l51 -27zM232 286h-61v346l-64 -57l-38 41l112 92h51v-422zM665 340l-122 -188h125v188h-3zM723 152h60v-54h-60v-98h-55v98h-188v52l175 272h68v-270z" unicode="¼" horiz-adv-x="840"/>
<glyph glyph-name="onehalf" d="M232 286h-61v346l-64 -57l-38 41l112 92h51v-422zM217 -31l-52 27l451 743l51 -27zM786 0h-276v57l167 169q16 17 29.5 37.5t13.5 48.5q0 29 -19 45.5t-48 16.5q-28 0 -48 -19t-27 -51l-60 9q10 51 47 83.5t88 32.5q26 0 50 -7.5t42 -22t28.5 -36.5t10.5 -51 q0 -22 -6.5 -40.5t-16.5 -34t-22.5 -29t-25.5 -26.5l-128 -128h201v-54z" unicode="½" horiz-adv-x="840"/>
<glyph glyph-name="threequarters" d="M217 -31l-52 27l451 743l51 -27zM137 535h27q35 0 59.5 16t24.5 54q0 28 -20 45t-49 17q-23 0 -42.5 -13t-32.5 -37l-50 26q23 40 56 58.5t71 18.5q26 0 49 -7t40.5 -21.5t27.5 -36t10 -49.5q0 -32 -15.5 -55.5t-41.5 -37.5q32 -12 50.5 -38t18.5 -64q0 -31 -11.5 -55 t-30.5 -40t-44.5 -24t-53.5 -8q-48 0 -84.5 23t-56.5 73l57 19q10 -29 32.5 -45t51.5 -16q31 0 55.5 18t24.5 55q0 20 -8.5 34t-22 22.5t-30.5 12.5t-35 4h-27v51zM665 340l-122 -188h125v188h-3zM723 152h60v-54h-60v-98h-55v98h-188v52l175 272h68v-270z" unicode="¾" horiz-adv-x="840"/>
<glyph glyph-name="questiondown" d="M188 431q0 21 15 37.5t39 16.5t39 -16.5t15 -37.5t-15 -37.5t-39 -16.5t-39 16.5t-15 37.5zM214 287h70v-60q0 -29 -6.5 -51t-18 -40t-26 -33t-29.5 -28l-28 -25q-25 -20 -41.5 -46t-16.5 -65q0 -28 10 -50t27 -37t39.5 -23t48.5 -8q54 0 87.5 33t41.5 84l68 -12 q-15 -78 -68.5 -122.5t-131.5 -44.5q-40 0 -75.5 11.5t-61.5 34t-41.5 55.5t-15.5 75q0 32 7 56t19.5 43t29.5 34.5t36 31.5q21 17 35.5 31t23.5 29.5t13 34.5t4 46v46z" unicode="¿" horiz-adv-x="482"/>
<glyph glyph-name="Agrave" d="M192 908h91l100 -144h-59zM193 252h312l-156 376zM89 0h-79l306 708h70l304 -708h-80l-78 186h-366z" unicode="À" horiz-adv-x="700"/>
<glyph glyph-name="Aacute" d="M379 764h-59l100 144h91zM193 252h312l-156 376zM89 0h-79l306 708h70l304 -708h-80l-78 186h-366z" unicode="Á" horiz-adv-x="700"/>
<glyph glyph-name="Acircumflex" d="M498 764h-66l-83 108l-83 -108h-66l109 144h80zM193 252h312l-156 376zM89 0h-79l306 708h70l304 -708h-80l-78 186h-366z" unicode="Â" horiz-adv-x="700"/>
<glyph glyph-name="Atilde" d="M188 776q3 19 9.5 38t17.5 33.5t26.5 23.5t38.5 9q18 0 36.5 -7t36.5 -16q18 -8 35 -15.5t32 -7.5q23 0 33.5 15.5t15.5 34.5h43q-3 -20 -9.5 -38.5t-17.5 -33t-27 -23.5t-38 -9q-18 0 -37 7t-36 16t-34 16t-33 7q-23 0 -33.5 -15.5t-15.5 -34.5h-43zM193 252h312 l-156 376zM89 0h-79l306 708h70l304 -708h-80l-78 186h-366z" unicode="Ã" horiz-adv-x="700"/>
<glyph glyph-name="Adieresis" d="M396 847q0 20 14 35.5t37 15.5t37 -15.5t14 -35.5t-14 -35.5t-37 -15.5t-37 15.5t-14 35.5zM204 847q0 20 14 35.5t37 15.5t37 -15.5t14 -35.5t-14 -35.5t-37 -15.5t-37 15.5t-14 35.5zM193 252h312l-156 376zM89 0h-79l306 708h70l304 -708h-80l-78 186h-366z" unicode="Ä" horiz-adv-x="700"/>
<glyph glyph-name="Aring" d="M410 850q0 25 -17.5 42t-42.5 17t-42.5 -17t-17.5 -42t17.5 -42t42.5 -17t42.5 17t17.5 42zM446 850q0 -20 -7.5 -37.5t-21 -30.5t-31 -20t-36.5 -7q-20 0 -37 7t-30.5 20t-21 30.5t-7.5 37.5t7.5 37.5t21 30t30.5 20t37 7.5q19 0 36.5 -7.5t31 -20t21 -30t7.5 -37.5z M193 252h312l-156 376zM89 0h-79l306 708h70l304 -708h-80l-78 186h-366z" unicode="Å" horiz-adv-x="700"/>
<glyph glyph-name="AE" d="M519 261v383h-14l-247 -383h261zM591 64h345v-64h-417v198h-298l-128 -198h-82l461 708h452v-64h-333v-244h309v-63h-309v-273z" unicode="Æ" horiz-adv-x="990"/>
<glyph glyph-name="Ccedilla" d="M690 114q-18 -27 -43.5 -51t-59 -42t-74 -28.5t-88.5 -10.5l-35 -57q13 4 35 4q30 0 56 -18t26 -54q0 -25 -11 -42t-28 -27t-38 -14t-41 -4t-46.5 5t-47.5 15l16 36q17 -8 35 -11t37 -3q8 0 19 2t21 7.5t17 14t7 20.5q0 20 -14.5 29.5t-39.5 9.5q-22 0 -43 -8l-18 15 l52 82q-72 7 -132.5 37.5t-104 79t-67.5 113.5t-24 140q0 81 28 149t77.5 117.5t117 77.5t146.5 28q39 0 76.5 -8t70.5 -22.5t60 -35t45 -46.5l-60 -44q-11 17 -29.5 34t-43.5 30t-54.5 21t-63.5 8q-69 0 -123.5 -25t-92.5 -67.5t-58 -98.5t-20 -118t20.5 -118t58.5 -98.5 t92.5 -67.5t122.5 -25q61 0 116 25t92 80z" unicode="Ç" horiz-adv-x="720"/>
<glyph glyph-name="Egrave" d="M184 908h91l100 -144h-59zM166 64h379v-64h-451v708h439v-64h-367v-244h343v-63h-343v-273z" unicode="È" horiz-adv-x="592"/>
<glyph glyph-name="Eacute" d="M324 764h-59l100 144h91zM166 64h379v-64h-451v708h439v-64h-367v-244h343v-63h-343v-273z" unicode="É" horiz-adv-x="592"/>
<glyph glyph-name="Ecircumflex" d="M465 764h-66l-83 108l-83 -108h-66l109 144h80zM166 64h379v-64h-451v708h439v-64h-367v-244h343v-63h-343v-273z" unicode="Ê" horiz-adv-x="592"/>
<glyph glyph-name="Edieresis" d="M361 847q0 20 14 35.5t37 15.5t37 -15.5t14 -35.5t-14 -35.5t-37 -15.5t-37 15.5t-14 35.5zM169 847q0 20 14 35.5t37 15.5t37 -15.5t14 -35.5t-14 -35.5t-37 -15.5t-37 15.5t-14 35.5zM166 64h379v-64h-451v708h439v-64h-367v-244h343v-63h-343v-273z" unicode="Ë" horiz-adv-x="592"/>
<glyph glyph-name="Igrave" d="M-26 908h91l100 -144h-59zM166 0h-72v708h72v-708z" unicode="Ì" horiz-adv-x="260"/>
<glyph glyph-name="Iacute" d="M153 764h-59l100 144h91zM166 0h-72v708h72v-708z" unicode="Í" horiz-adv-x="260"/>
<glyph glyph-name="Icircumflex" d="M279 764h-66l-83 108l-83 -108h-66l109 144h80zM166 0h-72v708h72v-708z" unicode="Î" horiz-adv-x="260"/>
<glyph glyph-name="Idieresis" d="M175 847q0 20 14 35.5t37 15.5t37 -15.5t14 -35.5t-14 -35.5t-37 -15.5t-37 15.5t-14 35.5zM-17 847q0 20 14 35.5t37 15.5t37 -15.5t14 -35.5t-14 -35.5t-37 -15.5t-37 15.5t-14 35.5zM166 0h-72v708h72v-708z" unicode="Ï" horiz-adv-x="260"/>
<glyph glyph-name="Eth" d="M158 66h140q81 0 140.5 24.5t99 65t58.5 92t19 106.5t-19 106.5t-58.5 92t-99 65t-140.5 24.5h-140v-241h258v-54h-258v-281zM86 347h-73v54h73v307h235q66 0 132.5 -22t120 -66.5t86.5 -111t33 -154.5q0 -89 -33 -155t-86.5 -110.5t-120 -66.5t-132.5 -22h-235v347z" unicode="Ð" horiz-adv-x="757"/>
<glyph glyph-name="Ntilde" d="M223 776q3 19 9.5 38t17.5 33.5t26.5 23.5t38.5 9q18 0 36.5 -7t36.5 -16q18 -8 35 -15.5t32 -7.5q23 0 33.5 15.5t15.5 34.5h43q-3 -20 -9.5 -38.5t-17.5 -33t-27 -23.5t-38 -9q-18 0 -37 7t-36 16t-34 16t-33 7q-23 0 -33.5 -15.5t-15.5 -34.5h-43zM596 105h2v603h72 v-708h-90l-412 609h-2v-609h-72v708h90z" unicode="Ñ" horiz-adv-x="764"/>
<glyph glyph-name="Ograve" d="M307 908h91l100 -144h-59zM718 354q0 62 -20 118t-58 98.5t-92.5 67.5t-122.5 25t-122.5 -25t-92.5 -67.5t-58 -98.5t-20 -118t20 -118t58 -98t92.5 -67t122.5 -25t122.5 25t92.5 67t58 98t20 118zM794 354q0 -81 -28 -149t-77.5 -117.5t-117 -77.5t-146.5 -28t-146.5 28 t-117 77.5t-77.5 117.5t-28 149t28 149t77.5 117.5t117 77.5t146.5 28t146.5 -28t117 -77.5t77.5 -117.5t28 -149z" unicode="Ò" horiz-adv-x="850"/>
<glyph glyph-name="Oacute" d="M426 764h-59l100 144h91zM718 354q0 62 -20 118t-58 98.5t-92.5 67.5t-122.5 25t-122.5 -25t-92.5 -67.5t-58 -98.5t-20 -118t20 -118t58 -98t92.5 -67t122.5 -25t122.5 25t92.5 67t58 98t20 118zM794 354q0 -81 -28 -149t-77.5 -117.5t-117 -77.5t-146.5 -28t-146.5 28 t-117 77.5t-77.5 117.5t-28 149t28 149t77.5 117.5t117 77.5t146.5 28t146.5 -28t117 -77.5t77.5 -117.5t28 -149z" unicode="Ó" horiz-adv-x="850"/>
<glyph glyph-name="Ocircumflex" d="M574 764h-66l-83 108l-83 -108h-66l109 144h80zM718 354q0 62 -20 118t-58 98.5t-92.5 67.5t-122.5 25t-122.5 -25t-92.5 -67.5t-58 -98.5t-20 -118t20 -118t58 -98t92.5 -67t122.5 -25t122.5 25t92.5 67t58 98t20 118zM794 354q0 -81 -28 -149t-77.5 -117.5t-117 -77.5 t-146.5 -28t-146.5 28t-117 77.5t-77.5 117.5t-28 149t28 149t77.5 117.5t117 77.5t146.5 28t146.5 -28t117 -77.5t77.5 -117.5t28 -149z" unicode="Ô" horiz-adv-x="850"/>
<glyph glyph-name="Otilde" d="M263 776q3 19 9.5 38t17.5 33.5t26.5 23.5t38.5 9q18 0 36.5 -7t36.5 -16q18 -8 35 -15.5t32 -7.5q23 0 33.5 15.5t15.5 34.5h43q-3 -20 -9.5 -38.5t-17.5 -33t-27 -23.5t-38 -9q-18 0 -37 7t-36 16t-34 16t-33 7q-23 0 -33.5 -15.5t-15.5 -34.5h-43zM718 354 q0 62 -20 118t-58 98.5t-92.5 67.5t-122.5 25t-122.5 -25t-92.5 -67.5t-58 -98.5t-20 -118t20 -118t58 -98t92.5 -67t122.5 -25t122.5 25t92.5 67t58 98t20 118zM794 354q0 -81 -28 -149t-77.5 -117.5t-117 -77.5t-146.5 -28t-146.5 28t-117 77.5t-77.5 117.5t-28 149 t28 149t77.5 117.5t117 77.5t146.5 28t146.5 -28t117 -77.5t77.5 -117.5t28 -149z" unicode="Õ" horiz-adv-x="850"/>
<glyph glyph-name="Odieresis" d="M470 847q0 20 14 35.5t37 15.5t37 -15.5t14 -35.5t-14 -35.5t-37 -15.5t-37 15.5t-14 35.5zM278 847q0 20 14 35.5t37 15.5t37 -15.5t14 -35.5t-14 -35.5t-37 -15.5t-37 15.5t-14 35.5zM718 354q0 62 -20 118t-58 98.5t-92.5 67.5t-122.5 25t-122.5 -25t-92.5 -67.5 t-58 -98.5t-20 -118t20 -118t58 -98t92.5 -67t122.5 -25t122.5 25t92.5 67t58 98t20 118zM794 354q0 -81 -28 -149t-77.5 -117.5t-117 -77.5t-146.5 -28t-146.5 28t-117 77.5t-77.5 117.5t-28 149t28 149t77.5 117.5t117 77.5t146.5 28t146.5 -28t117 -77.5t77.5 -117.5 t28 -149z" unicode="Ö" horiz-adv-x="850"/>
<glyph glyph-name="multiply" d="M333 346l158 159l43 -42l-159 -160l159 -159l-43 -43l-158 159l-159 -159l-42 43l159 159l-159 160l42 42z" unicode="×" horiz-adv-x="666"/>
<glyph glyph-name="Oslash" d="M616 595q-35 32 -83.5 50t-107.5 18q-69 0 -123.5 -25t-92 -67.5t-57.5 -98.5t-20 -118q0 -58 17.5 -111t51.5 -93zM236 113q37 -32 83.5 -49.5t105.5 -17.5q69 0 123.5 25t92 67t57.5 98t20 118q0 57 -17 110t-50 94zM698 610q46 -49 71 -114t25 -142q0 -81 -28 -149 t-77.5 -117.5t-117 -77.5t-146.5 -28q-69 0 -129 21.5t-107 59.5l-76 -81l-37 34l76 82q-46 49 -71 114t-25 142q0 81 28 149t77.5 117.5t117 77.5t146.5 28q69 0 128.5 -21t107.5 -60l76 81l37 -34z" unicode="Ø" horiz-adv-x="850"/>
<glyph glyph-name="Ugrave" d="M224 908h91l100 -144h-59zM355 -18q-80 0 -131 27.5t-81 69.5t-41.5 91.5t-11.5 93.5v444h72v-436q0 -43 10 -83.5t32.5 -72t59.5 -51t91 -19.5t91 19.5t59.5 51t32.5 72t10 83.5v436h72v-444q0 -44 -11.5 -93.5t-41.5 -91.5t-81.5 -69.5t-130.5 -27.5z" unicode="Ù" horiz-adv-x="710"/>
<glyph glyph-name="Uacute" d="M365 764h-59l100 144h91zM355 -18q-80 0 -131 27.5t-81 69.5t-41.5 91.5t-11.5 93.5v444h72v-436q0 -43 10 -83.5t32.5 -72t59.5 -51t91 -19.5t91 19.5t59.5 51t32.5 72t10 83.5v436h72v-444q0 -44 -11.5 -93.5t-41.5 -91.5t-81.5 -69.5t-130.5 -27.5z" unicode="Ú" horiz-adv-x="710"/>
<glyph glyph-name="Ucircumflex" d="M504 764h-66l-83 108l-83 -108h-66l109 144h80zM355 -18q-80 0 -131 27.5t-81 69.5t-41.5 91.5t-11.5 93.5v444h72v-436q0 -43 10 -83.5t32.5 -72t59.5 -51t91 -19.5t91 19.5t59.5 51t32.5 72t10 83.5v436h72v-444q0 -44 -11.5 -93.5t-41.5 -91.5t-81.5 -69.5 t-130.5 -27.5z" unicode="Û" horiz-adv-x="710"/>
<glyph glyph-name="Udieresis" d="M401 847q0 20 14 35.5t37 15.5t37 -15.5t14 -35.5t-14 -35.5t-37 -15.5t-37 15.5t-14 35.5zM209 847q0 20 14 35.5t37 15.5t37 -15.5t14 -35.5t-14 -35.5t-37 -15.5t-37 15.5t-14 35.5zM355 -18q-80 0 -131 27.5t-81 69.5t-41.5 91.5t-11.5 93.5v444h72v-436 q0 -43 10 -83.5t32.5 -72t59.5 -51t91 -19.5t91 19.5t59.5 51t32.5 72t10 83.5v436h72v-444q0 -44 -11.5 -93.5t-41.5 -91.5t-81.5 -69.5t-130.5 -27.5z" unicode="Ü" horiz-adv-x="710"/>
<glyph glyph-name="Yacute" d="M334 764h-59l100 144h91zM337 0h-72v305l-265 403h90l213 -343l215 343h84l-265 -403v-305z" unicode="Ý" horiz-adv-x="602"/>
<glyph glyph-name="Thorn" d="M166 237h116q85 0 129 32t44 95q0 66 -45.5 95.5t-127.5 29.5h-116v-252zM94 708h72v-155h128q54 0 98 -11.5t75.5 -35t48.5 -59t17 -83.5t-17.5 -83.5t-49 -59t-76 -35.5t-98.5 -12h-126v-174h-72v708z" unicode="Þ" horiz-adv-x="580"/>
<glyph glyph-name="germandbls" d="M156 0h-68v544q0 39 9.5 79t33.5 72t64.5 52.5t102.5 20.5q38 0 72.5 -12t61 -34.5t42.5 -55.5t16 -75q0 -117 -116 -159v-2q38 -5 69.5 -21.5t54 -43.5t35 -63t12.5 -79q0 -53 -17 -96.5t-48.5 -74.5t-75.5 -47.5t-99 -16.5q-12 0 -27.5 1.5t-27.5 3.5v57q10 -2 23.5 -3 t24.5 -1q80 0 128 47t48 131q0 87 -53 131t-140 44h-9v60h8q61 0 101 30.5t40 95.5q0 30 -10 53t-27.5 38.5t-40.5 23.5t-48 8q-44 0 -71 -16t-42 -40.5t-20.5 -54t-5.5 -55.5v-542z" unicode="ß" horiz-adv-x="597"/>
<glyph glyph-name="agrave" d="M144 708h91l100 -144h-59zM365 234q-42 0 -84.5 -3.5t-77 -14t-56.5 -30.5t-22 -53q0 -25 9.5 -42t25.5 -27.5t35.5 -15t39.5 -4.5q36 0 64 12.5t47 34t29 49.5t10 59v35h-20zM385 302q0 61 -32 91t-93 30q-42 0 -78 -15t-61 -40l-38 45q29 29 76.5 48t107.5 19 q38 0 71 -10.5t58 -31.5t39 -53t14 -75v-205q0 -27 2 -56t6 -49h-61q-3 17 -5 37t-2 39h-2q-32 -47 -72.5 -67.5t-97.5 -20.5q-27 0 -55.5 7.5t-52 24.5t-39 44t-15.5 66q0 54 27.5 85.5t73.5 47t105.5 20t123.5 4.5v15z" unicode="à" horiz-adv-x="534"/>
<glyph glyph-name="aacute" d="M274 564h-59l100 144h91zM365 234q-42 0 -84.5 -3.5t-77 -14t-56.5 -30.5t-22 -53q0 -25 9.5 -42t25.5 -27.5t35.5 -15t39.5 -4.5q36 0 64 12.5t47 34t29 49.5t10 59v35h-20zM385 302q0 61 -32 91t-93 30q-42 0 -78 -15t-61 -40l-38 45q29 29 76.5 48t107.5 19 q38 0 71 -10.5t58 -31.5t39 -53t14 -75v-205q0 -27 2 -56t6 -49h-61q-3 17 -5 37t-2 39h-2q-32 -47 -72.5 -67.5t-97.5 -20.5q-27 0 -55.5 7.5t-52 24.5t-39 44t-15.5 66q0 54 27.5 85.5t73.5 47t105.5 20t123.5 4.5v15z" unicode="á" horiz-adv-x="534"/>
<glyph glyph-name="acircumflex" d="M418 564h-66l-83 108l-83 -108h-66l109 144h80zM365 234q-42 0 -84.5 -3.5t-77 -14t-56.5 -30.5t-22 -53q0 -25 9.5 -42t25.5 -27.5t35.5 -15t39.5 -4.5q36 0 64 12.5t47 34t29 49.5t10 59v35h-20zM385 302q0 61 -32 91t-93 30q-42 0 -78 -15t-61 -40l-38 45 q29 29 76.5 48t107.5 19q38 0 71 -10.5t58 -31.5t39 -53t14 -75v-205q0 -27 2 -56t6 -49h-61q-3 17 -5 37t-2 39h-2q-32 -47 -72.5 -67.5t-97.5 -20.5q-27 0 -55.5 7.5t-52 24.5t-39 44t-15.5 66q0 54 27.5 85.5t73.5 47t105.5 20t123.5 4.5v15z" unicode="â" horiz-adv-x="534"/>
<glyph glyph-name="atilde" d="M103 576q3 19 9.5 38t17.5 33.5t26.5 23.5t38.5 9q18 0 36.5 -7t36.5 -16q18 -8 35 -15.5t32 -7.5q23 0 33.5 15.5t15.5 34.5h43q-3 -20 -9.5 -38.5t-17.5 -33t-27 -23.5t-38 -9q-18 0 -37 7t-36 16t-34 16t-33 7q-23 0 -33.5 -15.5t-15.5 -34.5h-43zM365 234 q-42 0 -84.5 -3.5t-77 -14t-56.5 -30.5t-22 -53q0 -25 9.5 -42t25.5 -27.5t35.5 -15t39.5 -4.5q36 0 64 12.5t47 34t29 49.5t10 59v35h-20zM385 302q0 61 -32 91t-93 30q-42 0 -78 -15t-61 -40l-38 45q29 29 76.5 48t107.5 19q38 0 71 -10.5t58 -31.5t39 -53t14 -75v-205 q0 -27 2 -56t6 -49h-61q-3 17 -5 37t-2 39h-2q-32 -47 -72.5 -67.5t-97.5 -20.5q-27 0 -55.5 7.5t-52 24.5t-39 44t-15.5 66q0 54 27.5 85.5t73.5 47t105.5 20t123.5 4.5v15z" unicode="ã" horiz-adv-x="534"/>
<glyph glyph-name="adieresis" d="M311 647q0 20 14 35.5t37 15.5t37 -15.5t14 -35.5t-14 -35.5t-37 -15.5t-37 15.5t-14 35.5zM119 647q0 20 14 35.5t37 15.5t37 -15.5t14 -35.5t-14 -35.5t-37 -15.5t-37 15.5t-14 35.5zM365 234q-42 0 -84.5 -3.5t-77 -14t-56.5 -30.5t-22 -53q0 -25 9.5 -42t25.5 -27.5 t35.5 -15t39.5 -4.5q36 0 64 12.5t47 34t29 49.5t10 59v35h-20zM385 302q0 61 -32 91t-93 30q-42 0 -78 -15t-61 -40l-38 45q29 29 76.5 48t107.5 19q38 0 71 -10.5t58 -31.5t39 -53t14 -75v-205q0 -27 2 -56t6 -49h-61q-3 17 -5 37t-2 39h-2q-32 -47 -72.5 -67.5 t-97.5 -20.5q-27 0 -55.5 7.5t-52 24.5t-39 44t-15.5 66q0 54 27.5 85.5t73.5 47t105.5 20t123.5 4.5v15z" unicode="ä" horiz-adv-x="534"/>
<glyph glyph-name="aring" d="M325 650q0 25 -17.5 42t-42.5 17t-42.5 -17t-17.5 -42t17.5 -42t42.5 -17t42.5 17t17.5 42zM361 650q0 -20 -7.5 -37.5t-21 -30.5t-31 -20t-36.5 -7q-20 0 -37 7t-30.5 20t-21 30.5t-7.5 37.5t7.5 37.5t21 30t30.5 20t37 7.5q19 0 36.5 -7.5t31 -20t21 -30t7.5 -37.5z M365 234q-42 0 -84.5 -3.5t-77 -14t-56.5 -30.5t-22 -53q0 -25 9.5 -42t25.5 -27.5t35.5 -15t39.5 -4.5q36 0 64 12.5t47 34t29 49.5t10 59v35h-20zM385 302q0 61 -32 91t-93 30q-42 0 -78 -15t-61 -40l-38 45q29 29 76.5 48t107.5 19q38 0 71 -10.5t58 -31.5t39 -53t14 -75 v-205q0 -27 2 -56t6 -49h-61q-3 17 -5 37t-2 39h-2q-32 -47 -72.5 -67.5t-97.5 -20.5q-27 0 -55.5 7.5t-52 24.5t-39 44t-15.5 66q0 54 27.5 85.5t73.5 47t105.5 20t123.5 4.5v15z" unicode="å" horiz-adv-x="534"/>
<glyph glyph-name="ae" d="M360 216q-45 0 -87.5 -2.5t-75 -11.5t-52 -27t-19.5 -49q0 -24 9 -40t24.5 -25.5t35.5 -13.5t42 -4q72 0 107.5 38t35.5 101v34h-20zM745 270q0 67 -38 110t-106 43q-31 0 -58.5 -12.5t-48.5 -34t-34 -49t-14 -57.5h299zM814 248v-17t-1 -15h-370q1 -35 13.5 -66.5 t34.5 -54.5t51.5 -36.5t63.5 -13.5q51 0 87.5 24.5t55.5 56.5l49 -39q-40 -53 -88 -76t-104 -23q-66 0 -114.5 29t-71.5 80q-14 -32 -34.5 -53t-46 -33.5t-54.5 -17.5t-60 -5q-30 0 -60.5 7.5t-54.5 23.5t-39 42t-15 64q0 50 28 79t73.5 43.5t104 18.5t118.5 4v15 q0 61 -29.5 99.5t-90.5 38.5q-42 0 -79.5 -15t-64.5 -40l-39 44q30 29 81.5 48.5t111.5 19.5q56 0 96.5 -25.5t57.5 -72.5q28 45 74.5 71.5t102.5 26.5q52 0 92 -18.5t67 -50t40.5 -73.5t13.5 -90z" unicode="æ" horiz-adv-x="870"/>
<glyph glyph-name="ccedilla" d="M427 361q-17 27 -49.5 44.5t-70.5 17.5q-41 0 -74 -14.5t-56.5 -40t-36 -60t-12.5 -74.5t12.5 -74t35.5 -59.5t56 -40t74 -14.5q45 0 76 17t51 44l51 -38q-29 -36 -71 -57.5t-101 -23.5l-39 -63q13 4 35 4q30 0 56 -18t26 -54q0 -25 -11 -42t-28 -27t-38 -14t-41 -4 t-46.5 5t-47.5 15l16 36q17 -8 35 -11t37 -3q8 0 19 2t21 7.5t17 14t7 20.5q0 20 -14.5 29.5t-39.5 9.5q-22 0 -43 -8l-18 15l55 88q-49 6 -88.5 26.5t-67.5 52.5t-43 74t-15 91q0 53 18 98t50.5 78t78.5 51.5t103 18.5q47 0 95.5 -20.5t78.5 -60.5z" unicode="ç" horiz-adv-x="500"/>
<glyph glyph-name="egrave" d="M150 708h91l100 -144h-59zM516 248v-15t-1 -17h-388q1 -35 14 -66t36 -54t54 -36.5t67 -13.5q53 0 91.5 24.5t58.5 56.5l51 -40q-42 -53 -92.5 -76t-108.5 -23q-52 0 -96.5 18.5t-76.5 51.5t-50.5 78t-18.5 98t18 98t50 78t75 51.5t93 18.5q55 0 97 -18.5t70 -50 t42.5 -73.5t14.5 -90zM447 270q-3 66 -42.5 109.5t-112.5 43.5q-34 0 -63 -12.5t-51 -34t-35 -49t-15 -57.5h319z" unicode="è"/>
<glyph glyph-name="eacute" d="M310 564h-59l100 144h91zM516 248v-15t-1 -17h-388q1 -35 14 -66t36 -54t54 -36.5t67 -13.5q53 0 91.5 24.5t58.5 56.5l51 -40q-42 -53 -92.5 -76t-108.5 -23q-52 0 -96.5 18.5t-76.5 51.5t-50.5 78t-18.5 98t18 98t50 78t75 51.5t93 18.5q55 0 97 -18.5t70 -50 t42.5 -73.5t14.5 -90zM447 270q-3 66 -42.5 109.5t-112.5 43.5q-34 0 -63 -12.5t-51 -34t-35 -49t-15 -57.5h319z" unicode="é"/>
<glyph glyph-name="ecircumflex" d="M448 564h-66l-83 108l-83 -108h-66l109 144h80zM516 248v-15t-1 -17h-388q1 -35 14 -66t36 -54t54 -36.5t67 -13.5q53 0 91.5 24.5t58.5 56.5l51 -40q-42 -53 -92.5 -76t-108.5 -23q-52 0 -96.5 18.5t-76.5 51.5t-50.5 78t-18.5 98t18 98t50 78t75 51.5t93 18.5 q55 0 97 -18.5t70 -50t42.5 -73.5t14.5 -90zM447 270q-3 66 -42.5 109.5t-112.5 43.5q-34 0 -63 -12.5t-51 -34t-35 -49t-15 -57.5h319z" unicode="ê"/>
<glyph glyph-name="edieresis" d="M344 647q0 20 14 35.5t37 15.5t37 -15.5t14 -35.5t-14 -35.5t-37 -15.5t-37 15.5t-14 35.5zM152 647q0 20 14 35.5t37 15.5t37 -15.5t14 -35.5t-14 -35.5t-37 -15.5t-37 15.5t-14 35.5zM516 248v-15t-1 -17h-388q1 -35 14 -66t36 -54t54 -36.5t67 -13.5q53 0 91.5 24.5 t58.5 56.5l51 -40q-42 -53 -92.5 -76t-108.5 -23q-52 0 -96.5 18.5t-76.5 51.5t-50.5 78t-18.5 98t18 98t50 78t75 51.5t93 18.5q55 0 97 -18.5t70 -50t42.5 -73.5t14.5 -90zM447 270q-3 66 -42.5 109.5t-112.5 43.5q-34 0 -63 -12.5t-51 -34t-35 -49t-15 -57.5h319z" unicode="ë"/>
<glyph glyph-name="igrave" d="M-33 708h91l100 -144h-59zM159 0h-68v468h68v-468z" unicode="ì" horiz-adv-x="250"/>
<glyph glyph-name="iacute" d="M150 564h-59l100 144h91zM159 0h-68v468h68v-468z" unicode="í" horiz-adv-x="250"/>
<glyph glyph-name="icircumflex" d="M276 564h-66l-83 108l-83 -108h-66l109 144h80zM159 0h-68v468h68v-468z" unicode="î" horiz-adv-x="250"/>
<glyph glyph-name="idieresis" d="M171 647q0 20 14 35.5t37 15.5t37 -15.5t14 -35.5t-14 -35.5t-37 -15.5t-37 15.5t-14 35.5zM-21 647q0 20 14 35.5t37 15.5t37 -15.5t14 -35.5t-14 -35.5t-37 -15.5t-37 15.5t-14 35.5zM159 0h-68v468h68v-468z" unicode="ï" horiz-adv-x="250"/>
<glyph glyph-name="eth" d="M352 660q41 -38 76 -84t61 -98.5t41 -109.5t15 -116q0 -45 -13 -92t-42.5 -85t-77 -62.5t-116.5 -24.5q-54 0 -99.5 18.5t-78.5 51.5t-51.5 78t-18.5 98t18.5 98t51.5 78t78.5 51.5t99.5 18.5q44 0 79 -14t71 -44l2 2q-27 57 -67.5 110.5t-88.5 94.5l-112 -57l-36 36 l110 56q-25 24 -51.5 43t-48.5 34l59 37q26 -20 51.5 -40.5t48.5 -41.5l102 53l40 -35zM120 234q0 -39 12.5 -73t35 -59t55 -39.5t73.5 -14.5t73.5 14.5t55.5 39.5t35.5 59t12.5 73t-12.5 73t-35.5 59t-55.5 39.5t-73.5 14.5t-73.5 -14.5t-55 -39.5t-35 -59t-12.5 -73z" unicode="ð" horiz-adv-x="611"/>
<glyph glyph-name="ntilde" d="M131 576q3 19 9.5 38t17.5 33.5t26.5 23.5t38.5 9q18 0 36.5 -7t36.5 -16q18 -8 35 -15.5t32 -7.5q23 0 33.5 15.5t15.5 34.5h43q-3 -20 -9.5 -38.5t-17.5 -33t-27 -23.5t-38 -9q-18 0 -37 7t-36 16t-34 16t-33 7q-23 0 -33.5 -15.5t-15.5 -34.5h-43zM151 468 q2 -19 3 -42t1 -38h2q20 41 65 66.5t95 25.5q89 0 133.5 -53t44.5 -140v-287h-68v259q0 37 -6 67t-20.5 51.5t-39 33.5t-61.5 12q-27 0 -52.5 -11t-45.5 -33.5t-32 -57t-12 -81.5v-240h-68v365q0 19 -1 49t-3 54h65z" unicode="ñ" horiz-adv-x="581"/>
<glyph glyph-name="ograve" d="M153 708h91l100 -144h-59zM483 234q0 39 -12.5 73.5t-35.5 60t-56 40.5t-74 15t-73.5 -15t-55.5 -40.5t-35.5 -60t-12.5 -73.5t12.5 -73.5t35.5 -60t55.5 -40t73.5 -14.5t74 14.5t56 40t35.5 60t12.5 73.5zM555 234q0 -53 -18.5 -98t-51.5 -78t-79 -51.5t-101 -18.5 q-54 0 -100 18.5t-79 51.5t-51.5 78t-18.5 98t18.5 98t51.5 78t79 51.5t100 18.5q55 0 101 -18.5t79 -51.5t51.5 -78t18.5 -98z" unicode="ò" horiz-adv-x="611"/>
<glyph glyph-name="oacute" d="M323 564h-59l100 144h91zM483 234q0 39 -12.5 73.5t-35.5 60t-56 40.5t-74 15t-73.5 -15t-55.5 -40.5t-35.5 -60t-12.5 -73.5t12.5 -73.5t35.5 -60t55.5 -40t73.5 -14.5t74 14.5t56 40t35.5 60t12.5 73.5zM555 234q0 -53 -18.5 -98t-51.5 -78t-79 -51.5t-101 -18.5 q-54 0 -100 18.5t-79 51.5t-51.5 78t-18.5 98t18.5 98t51.5 78t79 51.5t100 18.5q55 0 101 -18.5t79 -51.5t51.5 -78t18.5 -98z" unicode="ó" horiz-adv-x="611"/>
<glyph glyph-name="ocircumflex" d="M454 564h-66l-83 108l-83 -108h-66l109 144h80zM483 234q0 39 -12.5 73.5t-35.5 60t-56 40.5t-74 15t-73.5 -15t-55.5 -40.5t-35.5 -60t-12.5 -73.5t12.5 -73.5t35.5 -60t55.5 -40t73.5 -14.5t74 14.5t56 40t35.5 60t12.5 73.5zM555 234q0 -53 -18.5 -98t-51.5 -78 t-79 -51.5t-101 -18.5q-54 0 -100 18.5t-79 51.5t-51.5 78t-18.5 98t18.5 98t51.5 78t79 51.5t100 18.5q55 0 101 -18.5t79 -51.5t51.5 -78t18.5 -98z" unicode="ô" horiz-adv-x="611"/>
<glyph glyph-name="otilde" d="M143 576q3 19 9.5 38t17.5 33.5t26.5 23.5t38.5 9q18 0 36.5 -7t36.5 -16q18 -8 35 -15.5t32 -7.5q23 0 33.5 15.5t15.5 34.5h43q-3 -20 -9.5 -38.5t-17.5 -33t-27 -23.5t-38 -9q-18 0 -37 7t-36 16t-34 16t-33 7q-23 0 -33.5 -15.5t-15.5 -34.5h-43zM483 234 q0 39 -12.5 73.5t-35.5 60t-56 40.5t-74 15t-73.5 -15t-55.5 -40.5t-35.5 -60t-12.5 -73.5t12.5 -73.5t35.5 -60t55.5 -40t73.5 -14.5t74 14.5t56 40t35.5 60t12.5 73.5zM555 234q0 -53 -18.5 -98t-51.5 -78t-79 -51.5t-101 -18.5q-54 0 -100 18.5t-79 51.5t-51.5 78 t-18.5 98t18.5 98t51.5 78t79 51.5t100 18.5q55 0 101 -18.5t79 -51.5t51.5 -78t18.5 -98z" unicode="õ" horiz-adv-x="611"/>
<glyph glyph-name="odieresis" d="M350 647q0 20 14 35.5t37 15.5t37 -15.5t14 -35.5t-14 -35.5t-37 -15.5t-37 15.5t-14 35.5zM158 647q0 20 14 35.5t37 15.5t37 -15.5t14 -35.5t-14 -35.5t-37 -15.5t-37 15.5t-14 35.5zM483 234q0 39 -12.5 73.5t-35.5 60t-56 40.5t-74 15t-73.5 -15t-55.5 -40.5 t-35.5 -60t-12.5 -73.5t12.5 -73.5t35.5 -60t55.5 -40t73.5 -14.5t74 14.5t56 40t35.5 60t12.5 73.5zM555 234q0 -53 -18.5 -98t-51.5 -78t-79 -51.5t-101 -18.5q-54 0 -100 18.5t-79 51.5t-51.5 78t-18.5 98t18.5 98t51.5 78t79 51.5t100 18.5q55 0 101 -18.5t79 -51.5 t51.5 -78t18.5 -98z" unicode="ö" horiz-adv-x="611"/>
<glyph glyph-name="divide" d="M387 141q0 -21 -15 -37.5t-39 -16.5t-39 16.5t-15 37.5t15 37.5t39 16.5t39 -16.5t15 -37.5zM387 465q0 -21 -15 -37.5t-39 -16.5t-39 16.5t-15 37.5t15 37.5t39 16.5t39 -16.5t15 -37.5zM588 273h-510v60h510v-60z" unicode="÷" horiz-adv-x="666"/>
<glyph glyph-name="oslash" d="M495 397q27 -31 43.5 -72.5t16.5 -90.5q0 -53 -18.5 -98t-52 -78t-79.5 -51.5t-101 -18.5q-48 0 -87.5 14t-69.5 38l-67 -68l-32 31l66 68q-28 32 -43 73.5t-15 89.5q0 53 18.5 98t51.5 78t78.5 51.5t99.5 18.5q47 0 87 -13.5t72 -38.5l66 68l32 -31zM421 385 q-20 20 -50.5 30t-65.5 10q-42 0 -75 -15t-56.5 -41t-36 -60.5t-12.5 -74.5q0 -34 8.5 -65t25.5 -53zM188 82q23 -18 51.5 -28.5t63.5 -10.5q42 0 75.5 15t57.5 40.5t37 60.5t13 75q0 32 -9 63.5t-27 53.5z" unicode="ø" horiz-adv-x="611"/>
<glyph glyph-name="ugrave" d="M145 708h91l100 -144h-59zM430 0q-2 19 -3 42t-1 38h-2q-20 -41 -65 -66.5t-95 -25.5q-89 0 -133.5 53t-44.5 140v287h68v-259q0 -37 6 -67t20.5 -51.5t39 -33.5t61.5 -12q27 0 52.5 11t45.5 33.5t32 57t12 81.5v240h68v-365q0 -19 1 -49t3 -54h-65z" unicode="ù" horiz-adv-x="581"/>
<glyph glyph-name="uacute" d="M300 564h-59l100 144h91zM430 0q-2 19 -3 42t-1 38h-2q-20 -41 -65 -66.5t-95 -25.5q-89 0 -133.5 53t-44.5 140v287h68v-259q0 -37 6 -67t20.5 -51.5t39 -33.5t61.5 -12q27 0 52.5 11t45.5 33.5t32 57t12 81.5v240h68v-365q0 -19 1 -49t3 -54h-65z" unicode="ú" horiz-adv-x="581"/>
<glyph glyph-name="ucircumflex" d="M438 564h-66l-83 108l-83 -108h-66l109 144h80zM430 0q-2 19 -3 42t-1 38h-2q-20 -41 -65 -66.5t-95 -25.5q-89 0 -133.5 53t-44.5 140v287h68v-259q0 -37 6 -67t20.5 -51.5t39 -33.5t61.5 -12q27 0 52.5 11t45.5 33.5t32 57t12 81.5v240h68v-365q0 -19 1 -49t3 -54h-65z " unicode="û" horiz-adv-x="581"/>
<glyph glyph-name="udieresis" d="M334 647q0 20 14 35.5t37 15.5t37 -15.5t14 -35.5t-14 -35.5t-37 -15.5t-37 15.5t-14 35.5zM142 647q0 20 14 35.5t37 15.5t37 -15.5t14 -35.5t-14 -35.5t-37 -15.5t-37 15.5t-14 35.5zM430 0q-2 19 -3 42t-1 38h-2q-20 -41 -65 -66.5t-95 -25.5q-89 0 -133.5 53 t-44.5 140v287h68v-259q0 -37 6 -67t20.5 -51.5t39 -33.5t61.5 -12q27 0 52.5 11t45.5 33.5t32 57t12 81.5v240h68v-365q0 -19 1 -49t3 -54h-65z" unicode="ü" horiz-adv-x="581"/>
<glyph glyph-name="yacute" d="M267 564h-59l100 144h91zM251 73h2l145 395h74l-233 -589q-21 -54 -53.5 -86.5t-93.5 -32.5q-31 0 -61 6l7 62q24 -8 50 -8q35 0 55 21.5t35 61.5l38 98l-200 467h76z" unicode="ý" horiz-adv-x="488"/>
<glyph glyph-name="thorn" d="M505 234q0 39 -12.5 73t-35.5 59t-55.5 39.5t-73.5 14.5t-73.5 -14.5t-55 -39.5t-35 -59t-12.5 -73t12.5 -73t35 -59t55 -39.5t73.5 -14.5t73.5 14.5t55.5 39.5t35.5 59t12.5 73zM334 -12q-52 0 -98.5 22.5t-75.5 68.5h-2v-319h-66v996h66v-369h2q30 46 76.5 69.5 t97.5 23.5q52 0 96.5 -18.5t77 -51.5t51 -78t18.5 -98t-18.5 -98t-51 -78t-77 -51.5t-96.5 -18.5z" unicode="þ" horiz-adv-x="633"/>
<glyph glyph-name="ydieresis" d="M297 647q0 20 14 35.5t37 15.5t37 -15.5t14 -35.5t-14 -35.5t-37 -15.5t-37 15.5t-14 35.5zM105 647q0 20 14 35.5t37 15.5t37 -15.5t14 -35.5t-14 -35.5t-37 -15.5t-37 15.5t-14 35.5zM251 73h2l145 395h74l-233 -589q-21 -54 -53.5 -86.5t-93.5 -32.5q-31 0 -61 6l7 62 q24 -8 50 -8q35 0 55 21.5t35 61.5l38 98l-200 467h76z" unicode="ÿ" horiz-adv-x="488"/>
<glyph glyph-name="Amacron" d="M486 800h-270v54h270v-54zM193 252h312l-156 376zM89 0h-79l306 708h70l304 -708h-80l-78 186h-366z" unicode="Ā" horiz-adv-x="700"/>
<glyph glyph-name="amacron" d="M405 600h-270v54h270v-54zM365 234q-42 0 -84.5 -3.5t-77 -14t-56.5 -30.5t-22 -53q0 -25 9.5 -42t25.5 -27.5t35.5 -15t39.5 -4.5q36 0 64 12.5t47 34t29 49.5t10 59v35h-20zM385 302q0 61 -32 91t-93 30q-42 0 -78 -15t-61 -40l-38 45q29 29 76.5 48t107.5 19 q38 0 71 -10.5t58 -31.5t39 -53t14 -75v-205q0 -27 2 -56t6 -49h-61q-3 17 -5 37t-2 39h-2q-32 -47 -72.5 -67.5t-97.5 -20.5q-27 0 -55.5 7.5t-52 24.5t-39 44t-15.5 66q0 54 27.5 85.5t73.5 47t105.5 20t123.5 4.5v15z" unicode="ā" horiz-adv-x="534"/>
<glyph glyph-name="Abreve" d="M498 908q-4 -63 -44.5 -97.5t-102.5 -34.5t-102.5 34.5t-44.5 97.5h44q7 -39 36 -58.5t67 -19.5t67 19.5t36 58.5h44zM193 252h312l-156 376zM89 0h-79l306 708h70l304 -708h-80l-78 186h-366z" unicode="Ă" horiz-adv-x="700"/>
<glyph glyph-name="abreve" d="M420 708q-4 -63 -44.5 -97.5t-102.5 -34.5t-102.5 34.5t-44.5 97.5h44q7 -39 36 -58.5t67 -19.5t67 19.5t36 58.5h44zM365 234q-42 0 -84.5 -3.5t-77 -14t-56.5 -30.5t-22 -53q0 -25 9.5 -42t25.5 -27.5t35.5 -15t39.5 -4.5q36 0 64 12.5t47 34t29 49.5t10 59v35h-20z M385 302q0 61 -32 91t-93 30q-42 0 -78 -15t-61 -40l-38 45q29 29 76.5 48t107.5 19q38 0 71 -10.5t58 -31.5t39 -53t14 -75v-205q0 -27 2 -56t6 -49h-61q-3 17 -5 37t-2 39h-2q-32 -47 -72.5 -67.5t-97.5 -20.5q-27 0 -55.5 7.5t-52 24.5t-39 44t-15.5 66q0 54 27.5 85.5 t73.5 47t105.5 20t123.5 4.5v15z" unicode="ă" horiz-adv-x="534"/>
<glyph glyph-name="Aogonek" d="M193 252h312l-156 376zM701 -187q-17 -17 -41 -26.5t-49 -9.5q-18 0 -34 6t-28.5 17.5t-20 27t-7.5 34.5q0 21 8 40.5t21 37t29 33t31 27.5l-78 186h-366l-77 -186h-79l306 708h70l304 -708h-32q-37 -37 -57 -64.5t-20 -56.5q0 -21 15 -34.5t35 -13.5q14 0 27.5 5.5 t23.5 16.5z" unicode="Ą" horiz-adv-x="700"/>
<glyph glyph-name="aogonek" d="M365 234q-42 0 -84.5 -3.5t-77 -14t-56.5 -30.5t-22 -53q0 -25 9.5 -42t25.5 -27.5t35.5 -15t39.5 -4.5q36 0 64 12.5t47 34t29 49.5t10 59v35h-20zM489 -187q-17 -17 -41 -26.5t-49 -9.5q-18 0 -34 6t-28.5 17.5t-20 27t-7.5 34.5q0 21 8 40.5t21 37t29 33t31 27.5h-2 q-3 17 -5 37t-2 39h-2q-32 -47 -72.5 -67.5t-97.5 -20.5q-27 0 -55.5 7.5t-52 24.5t-39 44t-15.5 66q0 54 27.5 85.5t73.5 47t105.5 20t123.5 4.5v15q0 61 -32 91t-93 30q-42 0 -78 -15t-61 -40l-38 45q29 29 76.5 48t107.5 19q38 0 71 -10.5t58 -31.5t39 -53t14 -75v-205 q0 -27 2 -56t6 -49h-11q-37 -37 -57 -64.5t-20 -56.5q0 -21 15 -34.5t35 -13.5q14 0 27.5 5.5t23.5 16.5z" unicode="ą" horiz-adv-x="534"/>
<glyph glyph-name="Cacute" d="M428 764h-59l100 144h91zM690 114q-18 -27 -43.5 -51t-59 -42t-74 -28.5t-88.5 -10.5q-80 0 -148 28t-117 77.5t-76.5 117.5t-27.5 149t28 149t77.5 117.5t117 77.5t146.5 28q39 0 76.5 -8t70.5 -22.5t60 -35t45 -46.5l-60 -44q-11 17 -29.5 34t-43.5 30t-54.5 21 t-63.5 8q-69 0 -123.5 -25t-92.5 -67.5t-58 -98.5t-20 -118t20.5 -118t58.5 -98.5t92.5 -67.5t122.5 -25q61 0 116 25t92 80z" unicode="Ć" horiz-adv-x="720"/>
<glyph glyph-name="cacute" d="M309 564h-59l100 144h91zM427 361q-17 27 -49.5 44.5t-70.5 17.5q-41 0 -74 -14.5t-56.5 -40t-36 -60t-12.5 -74.5t12.5 -74t35.5 -59.5t56 -40t74 -14.5q45 0 76 17t51 44l51 -38q-30 -37 -73.5 -59t-104.5 -22q-57 0 -103 18.5t-78.5 51.5t-50.5 78t-18 98t18 98 t50.5 78t78.5 51.5t103 18.5q47 0 95.5 -20.5t78.5 -60.5z" unicode="ć" horiz-adv-x="500"/>
<glyph glyph-name="Ccircumflex" d="M573 764h-66l-83 108l-83 -108h-66l109 144h80zM690 114q-18 -27 -43.5 -51t-59 -42t-74 -28.5t-88.5 -10.5q-80 0 -148 28t-117 77.5t-76.5 117.5t-27.5 149t28 149t77.5 117.5t117 77.5t146.5 28q39 0 76.5 -8t70.5 -22.5t60 -35t45 -46.5l-60 -44q-11 17 -29.5 34 t-43.5 30t-54.5 21t-63.5 8q-69 0 -123.5 -25t-92.5 -67.5t-58 -98.5t-20 -118t20.5 -118t58.5 -98.5t92.5 -67.5t122.5 -25q61 0 116 25t92 80z" unicode="Ĉ" horiz-adv-x="720"/>
<glyph glyph-name="ccircumflex" d="M452 564h-66l-83 108l-83 -108h-66l109 144h80zM427 361q-17 27 -49.5 44.5t-70.5 17.5q-41 0 -74 -14.5t-56.5 -40t-36 -60t-12.5 -74.5t12.5 -74t35.5 -59.5t56 -40t74 -14.5q45 0 76 17t51 44l51 -38q-30 -37 -73.5 -59t-104.5 -22q-57 0 -103 18.5t-78.5 51.5 t-50.5 78t-18 98t18 98t50.5 78t78.5 51.5t103 18.5q47 0 95.5 -20.5t78.5 -60.5z" unicode="ĉ" horiz-adv-x="500"/>
<glyph glyph-name="Cdotaccent" d="M463 848q0 -21 -15 -34.5t-33 -13.5t-33 13.5t-15 34.5t15 34.5t33 13.5t33 -13.5t15 -34.5zM690 114q-18 -27 -43.5 -51t-59 -42t-74 -28.5t-88.5 -10.5q-80 0 -148 28t-117 77.5t-76.5 117.5t-27.5 149t28 149t77.5 117.5t117 77.5t146.5 28q39 0 76.5 -8t70.5 -22.5 t60 -35t45 -46.5l-60 -44q-11 17 -29.5 34t-43.5 30t-54.5 21t-63.5 8q-69 0 -123.5 -25t-92.5 -67.5t-58 -98.5t-20 -118t20.5 -118t58.5 -98.5t92.5 -67.5t122.5 -25q61 0 116 25t92 80z" unicode="Ċ" horiz-adv-x="720"/>
<glyph glyph-name="cdotaccent" d="M343 648q0 -21 -15 -34.5t-33 -13.5t-33 13.5t-15 34.5t15 34.5t33 13.5t33 -13.5t15 -34.5zM427 361q-17 27 -49.5 44.5t-70.5 17.5q-41 0 -74 -14.5t-56.5 -40t-36 -60t-12.5 -74.5t12.5 -74t35.5 -59.5t56 -40t74 -14.5q45 0 76 17t51 44l51 -38q-30 -37 -73.5 -59 t-104.5 -22q-57 0 -103 18.5t-78.5 51.5t-50.5 78t-18 98t18 98t50.5 78t78.5 51.5t103 18.5q47 0 95.5 -20.5t78.5 -60.5z" unicode="ċ" horiz-adv-x="500"/>
<glyph glyph-name="Ccaron" d="M463 764h-80l-109 144h66l83 -108l83 108h66zM690 114q-18 -27 -43.5 -51t-59 -42t-74 -28.5t-88.5 -10.5q-80 0 -148 28t-117 77.5t-76.5 117.5t-27.5 149t28 149t77.5 117.5t117 77.5t146.5 28q39 0 76.5 -8t70.5 -22.5t60 -35t45 -46.5l-60 -44q-11 17 -29.5 34 t-43.5 30t-54.5 21t-63.5 8q-69 0 -123.5 -25t-92.5 -67.5t-58 -98.5t-20 -118t20.5 -118t58.5 -98.5t92.5 -67.5t122.5 -25q61 0 116 25t92 80z" unicode="Č" horiz-adv-x="720"/>
<glyph glyph-name="ccaron" d="M344 564h-80l-109 144h66l83 -108l83 108h66zM427 361q-17 27 -49.5 44.5t-70.5 17.5q-41 0 -74 -14.5t-56.5 -40t-36 -60t-12.5 -74.5t12.5 -74t35.5 -59.5t56 -40t74 -14.5q45 0 76 17t51 44l51 -38q-30 -37 -73.5 -59t-104.5 -22q-57 0 -103 18.5t-78.5 51.5t-50.5 78 t-18 98t18 98t50.5 78t78.5 51.5t103 18.5q47 0 95.5 -20.5t78.5 -60.5z" unicode="č" horiz-adv-x="500"/>
<glyph glyph-name="Dcaron" d="M387 764h-80l-109 144h66l83 -108l83 108h66zM166 64h143q80 0 139.5 25t98.5 65.5t58.5 92.5t19.5 107t-19.5 107t-58.5 92.5t-98.5 65.5t-139.5 25h-143v-580zM94 708h235q66 0 132.5 -22t120 -66.5t86.5 -111t33 -154.5q0 -89 -33 -155t-86.5 -110.5t-120 -66.5 t-132.5 -22h-235v708z" unicode="Ď" horiz-adv-x="757"/>
<glyph glyph-name="dcaron" d="M658 523h-57l62 185h71zM128 234q0 -39 12 -73.5t34.5 -60t55.5 -40t75 -14.5q39 0 72 14.5t57 39.5t37.5 59.5t13.5 74.5t-13.5 74.5t-37.5 60t-57 40t-72 14.5q-42 0 -75 -15t-55.5 -40.5t-34.5 -60t-12 -73.5zM475 79q-30 -45 -78 -68t-99 -23q-55 0 -99.5 19t-76 52 t-49 78t-17.5 97t17.5 97t49 78t76 52t99.5 19q51 0 99 -23.5t78 -69.5h2v369h68v-756h-68v79h-2z" unicode="ď" horiz-adv-x="637"/>
<glyph glyph-name="Dcroat" d="M158 66h140q81 0 140.5 24.5t99 65t58.5 92t19 106.5t-19 106.5t-58.5 92t-99 65t-140.5 24.5h-140v-241h258v-54h-258v-281zM86 347h-73v54h73v307h235q66 0 132.5 -22t120 -66.5t86.5 -111t33 -154.5q0 -89 -33 -155t-86.5 -110.5t-120 -66.5t-132.5 -22h-235v347z" unicode="Đ" horiz-adv-x="757"/>
<glyph glyph-name="dcroat" d="M128 234q0 -39 12 -73.5t34.5 -60t55.5 -40t75 -14.5q39 0 72 14.5t57 39.5t37.5 59.5t13.5 74.5t-13.5 74.5t-37.5 60t-57 40t-72 14.5q-42 0 -75 -15t-55.5 -40.5t-34.5 -60t-12 -73.5zM477 620v136h68v-136h56v-50h-56v-570h-68v79h-2q-30 -45 -78 -68t-99 -23 q-55 0 -99.5 19t-76 52t-49 78t-17.5 97t17.5 97t49 78t76 52t99.5 19q51 0 99 -23.5t78 -69.5h2v183h-156v50h156z" unicode="đ" horiz-adv-x="637"/>
<glyph glyph-name="Emacron" d="M452 800h-270v54h270v-54zM166 64h379v-64h-451v708h439v-64h-367v-244h343v-63h-343v-273z" unicode="Ē" horiz-adv-x="592"/>
<glyph glyph-name="emacron" d="M431 600h-270v54h270v-54zM516 248v-15t-1 -17h-388q1 -35 14 -66t36 -54t54 -36.5t67 -13.5q53 0 91.5 24.5t58.5 56.5l51 -40q-42 -53 -92.5 -76t-108.5 -23q-52 0 -96.5 18.5t-76.5 51.5t-50.5 78t-18.5 98t18 98t50 78t75 51.5t93 18.5q55 0 97 -18.5t70 -50 t42.5 -73.5t14.5 -90zM447 270q-3 66 -42.5 109.5t-112.5 43.5q-34 0 -63 -12.5t-51 -34t-35 -49t-15 -57.5h319z" unicode="ē"/>
<glyph glyph-name="Ebreve" d="M463 908q-4 -63 -44.5 -97.5t-102.5 -34.5t-102.5 34.5t-44.5 97.5h44q7 -39 36 -58.5t67 -19.5t67 19.5t36 58.5h44zM166 64h379v-64h-451v708h439v-64h-367v-244h343v-63h-343v-273z" unicode="Ĕ" horiz-adv-x="592"/>
<glyph glyph-name="ebreve" d="M441 708q-4 -63 -44.5 -97.5t-102.5 -34.5t-102.5 34.5t-44.5 97.5h44q7 -39 36 -58.5t67 -19.5t67 19.5t36 58.5h44zM516 248v-15t-1 -17h-388q1 -35 14 -66t36 -54t54 -36.5t67 -13.5q53 0 91.5 24.5t58.5 56.5l51 -40q-42 -53 -92.5 -76t-108.5 -23q-52 0 -96.5 18.5 t-76.5 51.5t-50.5 78t-18.5 98t18 98t50 78t75 51.5t93 18.5q55 0 97 -18.5t70 -50t42.5 -73.5t14.5 -90zM447 270q-3 66 -42.5 109.5t-112.5 43.5q-34 0 -63 -12.5t-51 -34t-35 -49t-15 -57.5h319z" unicode="ĕ"/>
<glyph glyph-name="Edotaccent" d="M369 848q0 -21 -15 -34.5t-33 -13.5t-33 13.5t-15 34.5t15 34.5t33 13.5t33 -13.5t15 -34.5zM166 64h379v-64h-451v708h439v-64h-367v-244h343v-63h-343v-273z" unicode="Ė" horiz-adv-x="592"/>
<glyph glyph-name="edotaccent" d="M342 648q0 -21 -15 -34.5t-33 -13.5t-33 13.5t-15 34.5t15 34.5t33 13.5t33 -13.5t15 -34.5zM516 248v-15t-1 -17h-388q1 -35 14 -66t36 -54t54 -36.5t67 -13.5q53 0 91.5 24.5t58.5 56.5l51 -40q-42 -53 -92.5 -76t-108.5 -23q-52 0 -96.5 18.5t-76.5 51.5t-50.5 78 t-18.5 98t18 98t50 78t75 51.5t93 18.5q55 0 97 -18.5t70 -50t42.5 -73.5t14.5 -90zM447 270q-3 66 -42.5 109.5t-112.5 43.5q-34 0 -63 -12.5t-51 -34t-35 -49t-15 -57.5h319z" unicode="ė"/>
<glyph glyph-name="Eogonek" d="M572 -187q-17 -17 -41 -26.5t-49 -9.5q-18 0 -34 6t-28.5 17.5t-20 27t-7.5 34.5q0 21 8 40.5t21 37t29 33t31 27.5h-387v708h439v-64h-367v-244h343v-63h-343v-273h379v-64h-16q-37 -37 -57 -64.5t-20 -56.5q0 -21 15 -34.5t35 -13.5q14 0 27.5 5.5t23.5 16.5z" unicode="Ę" horiz-adv-x="592"/>
<glyph glyph-name="eogonek" d="M447 270q-3 66 -42.5 109.5t-112.5 43.5q-34 0 -63 -12.5t-51 -34t-35 -49t-15 -57.5h319zM399 -187q-17 -17 -41 -26.5t-49 -9.5q-18 0 -34 6t-28.5 17.5t-20 27t-7.5 34.5q0 38 23 70t51 56q-51 1 -94.5 19.5t-75 51.5t-49.5 77.5t-18 97.5t18 98t50 78t75 51.5 t93 18.5q55 0 97 -18.5t70 -50t42.5 -73.5t14.5 -90v-15t-1 -17h-388q1 -35 14 -66t36 -54t54 -36.5t67 -13.5q53 0 91.5 24.5t58.5 56.5l51 -40q-32 -42 -70 -64t-81 -30q-33 -34 -51 -60t-18 -54q0 -21 15 -34.5t35 -13.5q14 0 27.5 5.5t23.5 16.5z" unicode="ę"/>
<glyph glyph-name="Ecaron" d="M357 764h-80l-109 144h66l83 -108l83 108h66zM166 64h379v-64h-451v708h439v-64h-367v-244h343v-63h-343v-273z" unicode="Ě" horiz-adv-x="592"/>
<glyph glyph-name="ecaron" d="M334 564h-80l-109 144h66l83 -108l83 108h66zM516 248v-15t-1 -17h-388q1 -35 14 -66t36 -54t54 -36.5t67 -13.5q53 0 91.5 24.5t58.5 56.5l51 -40q-42 -53 -92.5 -76t-108.5 -23q-52 0 -96.5 18.5t-76.5 51.5t-50.5 78t-18.5 98t18 98t50 78t75 51.5t93 18.5 q55 0 97 -18.5t70 -50t42.5 -73.5t14.5 -90zM447 270q-3 66 -42.5 109.5t-112.5 43.5q-34 0 -63 -12.5t-51 -34t-35 -49t-15 -57.5h319z" unicode="ě"/>
<glyph glyph-name="Gcircumflex" d="M579 764h-66l-83 108l-83 -108h-66l109 144h80zM631 581q-37 39 -88 60.5t-117 21.5q-68 0 -122.5 -25t-92.5 -67.5t-58.5 -98.5t-20.5 -118t20.5 -118t58.5 -98t92.5 -67t122.5 -25q60 0 110 13t81 33v215h-165v63h237v-319q-58 -35 -125 -52t-139 -17q-80 0 -148 28 t-117 77.5t-76.5 117.5t-27.5 149t28 149t77.5 117.5t117 77.5t146.5 28q85 0 148 -25t108 -70z" unicode="Ĝ" horiz-adv-x="779"/>
<glyph glyph-name="gcircumflex" d="M457 564h-66l-83 108l-83 -108h-66l109 144h80zM128 240q0 -37 12 -70t34.5 -58t55.5 -39.5t75 -14.5q39 0 72 13t57 37t37.5 57.5t13.5 74.5q0 37 -13.5 70t-37.5 58t-57 40t-72 15q-42 0 -75 -15t-55.5 -40t-34.5 -58t-12 -70zM115 -94q28 -36 76.5 -61t102.5 -25 q50 0 85 14.5t56.5 39.5t31.5 58.5t10 71.5v88h-2q-27 -44 -76.5 -68t-100.5 -24q-55 0 -99.5 18t-76 49.5t-49 75.5t-17.5 95q0 50 17.5 94t49 77t76 52t99.5 19q51 0 100 -24t77 -69h2v81h68v-464q0 -38 -10.5 -81t-39 -79t-77.5 -60t-127 -24q-65 0 -124 25t-101 69z" unicode="ĝ" horiz-adv-x="632"/>
<glyph glyph-name="Gbreve" d="M573 908q-4 -63 -44.5 -97.5t-102.5 -34.5t-102.5 34.5t-44.5 97.5h44q7 -39 36 -58.5t67 -19.5t67 19.5t36 58.5h44zM631 581q-37 39 -88 60.5t-117 21.5q-68 0 -122.5 -25t-92.5 -67.5t-58.5 -98.5t-20.5 -118t20.5 -118t58.5 -98t92.5 -67t122.5 -25q60 0 110 13 t81 33v215h-165v63h237v-319q-58 -35 -125 -52t-139 -17q-80 0 -148 28t-117 77.5t-76.5 117.5t-27.5 149t28 149t77.5 117.5t117 77.5t146.5 28q85 0 148 -25t108 -70z" unicode="Ğ" horiz-adv-x="779"/>
<glyph glyph-name="gbreve" d="M457 708q-4 -63 -44.5 -97.5t-102.5 -34.5t-102.5 34.5t-44.5 97.5h44q7 -39 36 -58.5t67 -19.5t67 19.5t36 58.5h44zM128 240q0 -37 12 -70t34.5 -58t55.5 -39.5t75 -14.5q39 0 72 13t57 37t37.5 57.5t13.5 74.5q0 37 -13.5 70t-37.5 58t-57 40t-72 15q-42 0 -75 -15 t-55.5 -40t-34.5 -58t-12 -70zM115 -94q28 -36 76.5 -61t102.5 -25q50 0 85 14.5t56.5 39.5t31.5 58.5t10 71.5v88h-2q-27 -44 -76.5 -68t-100.5 -24q-55 0 -99.5 18t-76 49.5t-49 75.5t-17.5 95q0 50 17.5 94t49 77t76 52t99.5 19q51 0 100 -24t77 -69h2v81h68v-464 q0 -38 -10.5 -81t-39 -79t-77.5 -60t-127 -24q-65 0 -124 25t-101 69z" unicode="ğ" horiz-adv-x="632"/>
<glyph glyph-name="Gdotaccent" d="M473 848q0 -21 -15 -34.5t-33 -13.5t-33 13.5t-15 34.5t15 34.5t33 13.5t33 -13.5t15 -34.5zM631 581q-37 39 -88 60.5t-117 21.5q-68 0 -122.5 -25t-92.5 -67.5t-58.5 -98.5t-20.5 -118t20.5 -118t58.5 -98t92.5 -67t122.5 -25q60 0 110 13t81 33v215h-165v63h237v-319 q-58 -35 -125 -52t-139 -17q-80 0 -148 28t-117 77.5t-76.5 117.5t-27.5 149t28 149t77.5 117.5t117 77.5t146.5 28q85 0 148 -25t108 -70z" unicode="Ġ" horiz-adv-x="779"/>
<glyph glyph-name="gdotaccent" d="M355 648q0 -21 -15 -34.5t-33 -13.5t-33 13.5t-15 34.5t15 34.5t33 13.5t33 -13.5t15 -34.5zM128 240q0 -37 12 -70t34.5 -58t55.5 -39.5t75 -14.5q39 0 72 13t57 37t37.5 57.5t13.5 74.5q0 37 -13.5 70t-37.5 58t-57 40t-72 15q-42 0 -75 -15t-55.5 -40t-34.5 -58 t-12 -70zM115 -94q28 -36 76.5 -61t102.5 -25q50 0 85 14.5t56.5 39.5t31.5 58.5t10 71.5v88h-2q-27 -44 -76.5 -68t-100.5 -24q-55 0 -99.5 18t-76 49.5t-49 75.5t-17.5 95q0 50 17.5 94t49 77t76 52t99.5 19q51 0 100 -24t77 -69h2v81h68v-464q0 -38 -10.5 -81t-39 -79 t-77.5 -60t-127 -24q-65 0 -124 25t-101 69z" unicode="ġ" horiz-adv-x="632"/>
<glyph glyph-name="Gcommaaccent" d="M400 -230h-57l62 185h71zM631 581q-37 39 -88 60.5t-117 21.5q-68 0 -122.5 -25t-92.5 -67.5t-58.5 -98.5t-20.5 -118t20.5 -118t58.5 -98t92.5 -67t122.5 -25q60 0 110 13t81 33v215h-165v63h237v-319q-58 -35 -125 -52t-139 -17q-80 0 -148 28t-117 77.5t-76.5 117.5 t-27.5 149t28 149t77.5 117.5t117 77.5t146.5 28q85 0 148 -25t108 -70z" unicode="Ģ" horiz-adv-x="783"/>
<glyph glyph-name="gcommaaccent" d="M357 749h57l-62 -185h-71zM128 240q0 -37 12 -70t34.5 -58t55.5 -39.5t75 -14.5q39 0 72 13t57 37t37.5 57.5t13.5 74.5q0 37 -13.5 70t-37.5 58t-57 40t-72 15q-42 0 -75 -15t-55.5 -40t-34.5 -58t-12 -70zM115 -94q28 -36 76.5 -61t102.5 -25q50 0 85 14.5t56.5 39.5 t31.5 58.5t10 71.5v88h-2q-27 -44 -76.5 -68t-100.5 -24q-55 0 -99.5 18t-76 49.5t-49 75.5t-17.5 95q0 50 17.5 94t49 77t76 52t99.5 19q51 0 100 -24t77 -69h2v81h68v-464q0 -38 -10.5 -81t-39 -79t-77.5 -60t-127 -24q-65 0 -124 25t-101 69z" unicode="ģ" horiz-adv-x="632"/>
<glyph glyph-name="Hcircumflex" d="M507 764h-66l-83 108l-83 -108h-66l109 144h80zM94 708h72v-307h386v307h72v-708h-72v335h-386v-335h-72v708z" unicode="Ĥ" horiz-adv-x="718"/>
<glyph glyph-name="hcircumflex" d="M276 796h-66l-83 108l-83 -108h-66l109 144h80zM162 391q19 41 63 65t94 24q89 0 133.5 -53t44.5 -140v-287h-68v259q0 37 -6 67t-20.5 51.5t-39 33.5t-61.5 12q-27 0 -52.5 -11t-45.5 -33.5t-32 -57t-12 -81.5v-240h-68v756h68v-365h2z" unicode="ĥ" horiz-adv-x="583"/>
<glyph glyph-name="Hbar" d="M552 401v99h-386v-99h386zM94 708h72v-158h386v158h72v-708h-72v335h-386v-335h-72v708z" unicode="Ħ" horiz-adv-x="718"/>
<glyph glyph-name="hbar" d="M92 620v136h68v-136h158v-50h-158v-179h2q19 41 63 65t94 24q89 0 133.5 -53t44.5 -140v-287h-68v259q0 37 -6 67t-20.5 51.5t-39 33.5t-61.5 12q-27 0 -52.5 -11t-45.5 -33.5t-32 -57t-12 -81.5v-240h-68v570h-54v50h54z" unicode="ħ" horiz-adv-x="583"/>
<glyph glyph-name="Itilde" d="M-31 776q3 19 9.5 38t17.5 33.5t26.5 23.5t38.5 9q18 0 36.5 -7t36.5 -16q18 -8 35 -15.5t32 -7.5q23 0 33.5 15.5t15.5 34.5h43q-3 -20 -9.5 -38.5t-17.5 -33t-27 -23.5t-38 -9q-18 0 -37 7t-36 16t-34 16t-33 7q-23 0 -33.5 -15.5t-15.5 -34.5h-43zM166 0h-72v708h72 v-708z" unicode="Ĩ" horiz-adv-x="260"/>
<glyph glyph-name="itilde" d="M-35 576q3 19 9.5 38t17.5 33.5t26.5 23.5t38.5 9q18 0 36.5 -7t36.5 -16q18 -8 35 -15.5t32 -7.5q23 0 33.5 15.5t15.5 34.5h43q-3 -20 -9.5 -38.5t-17.5 -33t-27 -23.5t-38 -9q-18 0 -37 7t-36 16t-34 16t-33 7q-23 0 -33.5 -15.5t-15.5 -34.5h-43zM159 0h-68v468h68 v-468z" unicode="ĩ" horiz-adv-x="250"/>
<glyph glyph-name="Imacron" d="M266 800h-270v54h270v-54zM166 0h-72v708h72v-708z" unicode="Ī" horiz-adv-x="260"/>
<glyph glyph-name="imacron" d="M261 600h-270v54h270v-54zM159 0h-68v468h68v-468z" unicode="ī" horiz-adv-x="250"/>
<glyph glyph-name="Ibreve" d="M277 915q-4 -63 -44.5 -97.5t-102.5 -34.5t-102.5 34.5t-44.5 97.5h44q7 -39 36 -58.5t67 -19.5t67 19.5t36 58.5h44zM166 0h-72v708h72v-708z" unicode="Ĭ" horiz-adv-x="260"/>
<glyph glyph-name="ibreve" d="M272 675q-4 -63 -44.5 -97.5t-102.5 -34.5t-102.5 34.5t-44.5 97.5h44q7 -39 36 -58.5t67 -19.5t67 19.5t36 58.5h44zM159 0h-68v468h68v-468z" unicode="ĭ" horiz-adv-x="250"/>
<glyph glyph-name="Iogonek" d="M203 -187q-17 -17 -41 -26.5t-49 -9.5q-18 0 -34 6t-28.5 17.5t-20 27t-7.5 34.5q0 21 8 40.5t21 37t29 33t31 27.5h-18v708h72v-708h-6q-37 -37 -57 -64.5t-20 -56.5q0 -21 15 -34.5t35 -13.5q14 0 27.5 5.5t23.5 16.5z" unicode="Į" horiz-adv-x="260"/>
<glyph glyph-name="iogonek" d="M173 648q0 -21 -15 -34.5t-33 -13.5t-33 13.5t-15 34.5t15 34.5t33 13.5t33 -13.5t15 -34.5zM198 -187q-17 -17 -41 -26.5t-49 -9.5q-18 0 -34 6t-28.5 17.5t-20 27t-7.5 34.5q0 21 8 40.5t21 37t29 33t31 27.5h-16v468h68v-468h-4q-37 -37 -57 -64.5t-20 -56.5 q0 -21 15 -34.5t35 -13.5q14 0 27.5 5.5t23.5 16.5z" unicode="į" horiz-adv-x="250"/>
<glyph glyph-name="Idotaccent" d="M179 848q0 -21 -15 -34.5t-33 -13.5t-33 13.5t-15 34.5t15 34.5t33 13.5t33 -13.5t15 -34.5zM166 0h-72v708h72v-708z" unicode="İ" horiz-adv-x="260"/>
<glyph glyph-name="dotlessi" d="M159 0h-68v468h68v-468z" unicode="ı" horiz-adv-x="250"/>
<glyph glyph-name="Jcircumflex" d="M516 764h-66l-83 108l-83 -108h-66l109 144h80zM92 144q8 -42 37.5 -70.5t77.5 -28.5q37 0 61 13.5t38.5 36.5t20 52.5t5.5 61.5v499h72v-504q0 -35 -7.5 -74t-28.5 -72t-58 -54.5t-95 -21.5q-77 0 -127 40.5t-63 103.5z" unicode="Ĵ" horiz-adv-x="492"/>
<glyph glyph-name="jcircumflex" d="M275 564h-66l-83 108l-83 -108h-66l109 144h80zM-17 -176q10 -3 21.5 -4.5t21.5 -1.5q21 0 34 7.5t20 20.5t9.5 31.5t2.5 40.5v550h68v-561q0 -28 -6 -54.5t-21 -47t-40.5 -33t-65.5 -12.5q-11 0 -26 1.5t-28 5.5z" unicode="ĵ" horiz-adv-x="251"/>
<glyph glyph-name="Kcommaaccent" d="M312 -230h-57l62 185h71zM166 390h1l337 318h103l-357 -321l377 -387h-106l-354 377h-1v-377h-72v708h72v-318z" unicode="Ķ" horiz-adv-x="628"/>
<glyph glyph-name="kcommaaccent" d="M253 -230h-57l62 185h71zM160 257h3l216 211h98l-236 -214l260 -254h-100l-238 246h-3v-246h-68v756h68v-499z" unicode="ķ" horiz-adv-x="510"/>
<glyph glyph-name="Lacute" d="M159 764h-59l100 144h91zM166 64h330v-64h-402v708h72v-644z" unicode="Ĺ" horiz-adv-x="510"/>
<glyph glyph-name="lacute" d="M153 792h-59l100 144h91zM160 0h-68v756h68v-756z" unicode="ĺ" horiz-adv-x="252"/>
<glyph glyph-name="Lcommaaccent" d="M271 -230h-57l62 185h71zM166 64h330v-64h-402v708h72v-644z" unicode="Ļ" horiz-adv-x="510"/>
<glyph glyph-name="lcommaaccent" d="M103 -230h-57l62 185h71zM160 0h-68v756h68v-756z" unicode="ļ" horiz-adv-x="252"/>
<glyph glyph-name="Lcaron" d="M300 523h-57l62 185h71zM166 64h330v-64h-402v708h72v-644z" unicode="Ľ" horiz-adv-x="510"/>
<glyph glyph-name="lcaron" d="M274 523h-57l62 185h71zM160 0h-68v756h68v-756z" unicode="ľ" horiz-adv-x="252"/>
<glyph glyph-name="Ldot" d="M424 328q0 -21 -15 -34.5t-33 -13.5t-33 13.5t-15 34.5t15 34.5t33 13.5t33 -13.5t15 -34.5zM166 64h330v-64h-402v708h72v-644z" unicode="Ŀ" horiz-adv-x="510"/>
<glyph glyph-name="ldot" d="M328 328q0 -21 -15 -34.5t-33 -13.5t-33 13.5t-15 34.5t15 34.5t33 13.5t33 -13.5t15 -34.5zM160 0h-68v756h68v-756z" unicode="ŀ" horiz-adv-x="312"/>
<glyph glyph-name="Lslash" d="M166 362l216 186v-70l-216 -186v-228h330v-64h-402v242l-82 -70v70l82 70v396h72v-346z" unicode="Ł" horiz-adv-x="510"/>
<glyph glyph-name="lslash" d="M158 458l81 84v-73l-81 -83v-386h-66v331l-81 -83v73l81 82v353h66v-298z" unicode="ł" horiz-adv-x="252"/>
<glyph glyph-name="Nacute" d="M403 764h-59l100 144h91zM596 105h2v603h72v-708h-90l-412 609h-2v-609h-72v708h90z" unicode="Ń" horiz-adv-x="764"/>
<glyph glyph-name="nacute" d="M307 564h-59l100 144h91zM151 468q2 -19 3 -42t1 -38h2q20 41 65 66.5t95 25.5q89 0 133.5 -53t44.5 -140v-287h-68v259q0 37 -6 67t-20.5 51.5t-39 33.5t-61.5 12q-27 0 -52.5 -11t-45.5 -33.5t-32 -57t-12 -81.5v-240h-68v365q0 19 -1 49t-3 54h65z" unicode="ń" horiz-adv-x="581"/>
<glyph glyph-name="Ncommaaccent" d="M349 -230h-57l62 185h71zM596 105h2v603h72v-708h-90l-412 609h-2v-609h-72v708h90z" unicode="Ņ" horiz-adv-x="764"/>
<glyph glyph-name="ncommaaccent" d="M266 -230h-57l62 185h71zM151 468q2 -19 3 -42t1 -38h2q20 41 65 66.5t95 25.5q89 0 133.5 -53t44.5 -140v-287h-68v259q0 37 -6 67t-20.5 51.5t-39 33.5t-61.5 12q-27 0 -52.5 -11t-45.5 -33.5t-32 -57t-12 -81.5v-240h-68v365q0 19 -1 49t-3 54h65z" unicode="ņ" horiz-adv-x="581"/>
<glyph glyph-name="Ncaron" d="M423 764h-80l-109 144h66l83 -108l83 108h66zM596 105h2v603h72v-708h-90l-412 609h-2v-609h-72v708h90z" unicode="Ň" horiz-adv-x="764"/>
<glyph glyph-name="ncaron" d="M333 564h-80l-109 144h66l83 -108l83 108h66zM151 468q2 -19 3 -42t1 -38h2q20 41 65 66.5t95 25.5q89 0 133.5 -53t44.5 -140v-287h-68v259q0 37 -6 67t-20.5 51.5t-39 33.5t-61.5 12q-27 0 -52.5 -11t-45.5 -33.5t-32 -57t-12 -81.5v-240h-68v365q0 19 -1 49t-3 54h65z " unicode="ň" horiz-adv-x="581"/>
<glyph glyph-name="Omacron" d="M564 800h-270v54h270v-54zM718 354q0 62 -20 118t-58 98.5t-92.5 67.5t-122.5 25t-122.5 -25t-92.5 -67.5t-58 -98.5t-20 -118t20 -118t58 -98t92.5 -67t122.5 -25t122.5 25t92.5 67t58 98t20 118zM794 354q0 -81 -28 -149t-77.5 -117.5t-117 -77.5t-146.5 -28t-146.5 28 t-117 77.5t-77.5 117.5t-28 149t28 149t77.5 117.5t117 77.5t146.5 28t146.5 -28t117 -77.5t77.5 -117.5t28 -149z" unicode="Ō" horiz-adv-x="850"/>
<glyph glyph-name="omacron" d="M442 600h-270v54h270v-54zM483 234q0 39 -12.5 73.5t-35.5 60t-56 40.5t-74 15t-73.5 -15t-55.5 -40.5t-35.5 -60t-12.5 -73.5t12.5 -73.5t35.5 -60t55.5 -40t73.5 -14.5t74 14.5t56 40t35.5 60t12.5 73.5zM555 234q0 -53 -18.5 -98t-51.5 -78t-79 -51.5t-101 -18.5 q-54 0 -100 18.5t-79 51.5t-51.5 78t-18.5 98t18.5 98t51.5 78t79 51.5t100 18.5q55 0 101 -18.5t79 -51.5t51.5 -78t18.5 -98z" unicode="ō" horiz-adv-x="611"/>
<glyph glyph-name="Obreve" d="M575 908q-4 -63 -44.5 -97.5t-102.5 -34.5t-102.5 34.5t-44.5 97.5h44q7 -39 36 -58.5t67 -19.5t67 19.5t36 58.5h44zM718 354q0 62 -20 118t-58 98.5t-92.5 67.5t-122.5 25t-122.5 -25t-92.5 -67.5t-58 -98.5t-20 -118t20 -118t58 -98t92.5 -67t122.5 -25t122.5 25 t92.5 67t58 98t20 118zM794 354q0 -81 -28 -149t-77.5 -117.5t-117 -77.5t-146.5 -28t-146.5 28t-117 77.5t-77.5 117.5t-28 149t28 149t77.5 117.5t117 77.5t146.5 28t146.5 -28t117 -77.5t77.5 -117.5t28 -149z" unicode="Ŏ" horiz-adv-x="850"/>
<glyph glyph-name="obreve" d="M454 708q-4 -63 -44.5 -97.5t-102.5 -34.5t-102.5 34.5t-44.5 97.5h44q7 -39 36 -58.5t67 -19.5t67 19.5t36 58.5h44zM483 234q0 39 -12.5 73.5t-35.5 60t-56 40.5t-74 15t-73.5 -15t-55.5 -40.5t-35.5 -60t-12.5 -73.5t12.5 -73.5t35.5 -60t55.5 -40t73.5 -14.5t74 14.5 t56 40t35.5 60t12.5 73.5zM555 234q0 -53 -18.5 -98t-51.5 -78t-79 -51.5t-101 -18.5q-54 0 -100 18.5t-79 51.5t-51.5 78t-18.5 98t18.5 98t51.5 78t79 51.5t100 18.5q55 0 101 -18.5t79 -51.5t51.5 -78t18.5 -98z" unicode="ŏ" horiz-adv-x="611"/>
<glyph glyph-name="Ohungarumlaut" d="M539 764h-59l100 144h91zM368 764h-59l101 144h91zM718 354q0 62 -20 118t-58 98.5t-92.5 67.5t-122.5 25t-122.5 -25t-92.5 -67.5t-58 -98.5t-20 -118t20 -118t58 -98t92.5 -67t122.5 -25t122.5 25t92.5 67t58 98t20 118zM794 354q0 -81 -28 -149t-77.5 -117.5 t-117 -77.5t-146.5 -28t-146.5 28t-117 77.5t-77.5 117.5t-28 149t28 149t77.5 117.5t117 77.5t146.5 28t146.5 -28t117 -77.5t77.5 -117.5t28 -149z" unicode="Ő" horiz-adv-x="850"/>
<glyph glyph-name="ohungarumlaut" d="M426 564h-59l100 144h91zM255 564h-59l101 144h91zM483 234q0 39 -12.5 73.5t-35.5 60t-56 40.5t-74 15t-73.5 -15t-55.5 -40.5t-35.5 -60t-12.5 -73.5t12.5 -73.5t35.5 -60t55.5 -40t73.5 -14.5t74 14.5t56 40t35.5 60t12.5 73.5zM555 234q0 -53 -18.5 -98t-51.5 -78 t-79 -51.5t-101 -18.5q-54 0 -100 18.5t-79 51.5t-51.5 78t-18.5 98t18.5 98t51.5 78t79 51.5t100 18.5q55 0 101 -18.5t79 -51.5t51.5 -78t18.5 -98z" unicode="ő" horiz-adv-x="611"/>
<glyph glyph-name="OE" d="M463 644q-80 0 -139.5 -25t-98.5 -65.5t-58.5 -92.5t-19.5 -107t19.5 -107t58.5 -92.5t98.5 -65.5t139.5 -25h65v580h-65zM933 708v-64h-333v-244h309v-63h-309v-273h345v-64h-502q-66 0 -132.5 22t-120 66.5t-86.5 110.5t-33 155q0 88 33 154.5t86.5 111t120 66.5 t132.5 22h490z" unicode="Œ" horiz-adv-x="992"/>
<glyph glyph-name="oe" d="M869 270q-3 66 -42.5 109.5t-112.5 43.5q-34 0 -63 -12.5t-51 -34t-35 -49t-15 -57.5h319zM483 234q0 39 -12.5 73.5t-36 60t-56.5 40.5t-74 15t-73.5 -15t-56 -40.5t-36 -60t-12.5 -73.5t12.5 -73.5t36 -60t56 -40t73.5 -14.5t74 14.5t56.5 40t36 60t12.5 73.5zM713 480 q55 0 97.5 -18.5t70.5 -50t42.5 -73.5t14.5 -90v-15t-1 -17h-390q1 -35 14.5 -66t36.5 -54t54.5 -36.5t67.5 -13.5q53 0 91.5 24.5t58.5 56.5l51 -40q-42 -53 -92.5 -76t-109.5 -23q-69 0 -121 30.5t-83 83.5q-32 -53 -85.5 -83.5t-125.5 -30.5q-54 0 -99.5 18.5t-78.5 51.5 t-51.5 78t-18.5 98t18.5 98t51.5 78t78.5 51.5t99.5 18.5q72 0 125 -30.5t85 -83.5q31 53 82 83.5t117 30.5z" unicode="œ" horiz-adv-x="994"/>
<glyph glyph-name="Racute" d="M290 764h-59l100 144h91zM166 393h125q87 0 134 31.5t47 94.5q0 35 -13 59t-36 39t-56 22t-73 7h-128v-253zM166 0h-72v708h208q52 0 96.5 -10t77 -32.5t50.5 -58.5t18 -88q0 -39 -14 -71t-38 -55.5t-57 -37.5t-72 -18l207 -337h-88l-196 331h-120v-331z" unicode="Ŕ" horiz-adv-x="599"/>
<glyph glyph-name="racute" d="M175 564h-59l100 144h91zM90 365q0 19 -1 49t-3 54h65q2 -19 3 -42t1 -38h2q20 41 60 66.5t90 25.5q13 0 23.5 -1t21.5 -4l-9 -64q-6 2 -20 4t-28 2q-27 0 -52 -10t-43.5 -31.5t-30 -55t-11.5 -80.5v-240h-68v365z" unicode="ŕ" horiz-adv-x="360"/>
<glyph glyph-name="Rcommaaccent" d="M290 -230h-57l62 185h71zM166 393h125q87 0 134 31.5t47 94.5q0 35 -13 59t-36 39t-56 22t-73 7h-128v-253zM166 0h-72v708h208q52 0 96.5 -10t77 -32.5t50.5 -58.5t18 -88q0 -39 -14 -71t-38 -55.5t-57 -37.5t-72 -18l207 -337h-88l-196 331h-120v-331z" unicode="Ŗ" horiz-adv-x="599"/>
<glyph glyph-name="rcommaaccent" d="M100 -230h-57l62 185h71zM90 365q0 19 -1 49t-3 54h65q2 -19 3 -42t1 -38h2q20 41 60 66.5t90 25.5q13 0 23.5 -1t21.5 -4l-9 -64q-6 2 -20 4t-28 2q-27 0 -52 -10t-43.5 -31.5t-30 -55t-11.5 -80.5v-240h-68v365z" unicode="ŗ" horiz-adv-x="360"/>
<glyph glyph-name="Rcaron" d="M328 764h-80l-109 144h66l83 -108l83 108h66zM166 393h125q87 0 134 31.5t47 94.5q0 35 -13 59t-36 39t-56 22t-73 7h-128v-253zM166 0h-72v708h208q52 0 96.5 -10t77 -32.5t50.5 -58.5t18 -88q0 -39 -14 -71t-38 -55.5t-57 -37.5t-72 -18l207 -337h-88l-196 331h-120 v-331z" unicode="Ř" horiz-adv-x="599"/>
<glyph glyph-name="rcaron" d="M255 564h-80l-109 144h66l83 -108l83 108h66zM90 365q0 19 -1 49t-3 54h65q2 -19 3 -42t1 -38h2q20 41 60 66.5t90 25.5q13 0 23.5 -1t21.5 -4l-9 -64q-6 2 -20 4t-28 2q-27 0 -52 -10t-43.5 -31.5t-30 -55t-11.5 -80.5v-240h-68v365z" unicode="ř" horiz-adv-x="360"/>
<glyph glyph-name="Sacute" d="M302 764h-59l100 144h91zM437 594q-23 32 -59 51.5t-87 19.5q-26 0 -53 -8t-49 -24.5t-35.5 -41.5t-13.5 -59t13 -56t34.5 -37.5t49 -25.5t57.5 -20q37 -12 74.5 -26t67.5 -36.5t49 -57t19 -87.5t-20.5 -91.5t-53 -63.5t-74 -37t-83.5 -12q-32 0 -64 6.5t-61 19.5t-54 33 t-44 46l62 46q23 -38 64.5 -63.5t97.5 -25.5q27 0 55 8.5t50.5 26t37 43t14.5 59.5q0 37 -14.5 61.5t-38.5 41t-55 27.5t-65 22q-35 11 -69 25t-61 36.5t-43.5 55.5t-16.5 81q0 51 20.5 88t53.5 61t73 35t79 11q72 0 123 -25.5t77 -60.5z" unicode="Ś" horiz-adv-x="564"/>
<glyph glyph-name="sacute" d="M248 564h-59l100 144h91zM339 357q-15 29 -45.5 47.5t-69.5 18.5q-18 0 -36 -4t-32 -13t-22.5 -23t-8.5 -33q0 -33 27 -50.5t85 -29.5q83 -17 122.5 -49.5t39.5 -87.5q0 -40 -15.5 -67.5t-40.5 -45t-56.5 -25t-63.5 -7.5q-53 0 -103 22t-82 69l54 40q18 -31 53 -52 t77 -21q22 0 42 4t35 14t24 25.5t9 38.5q0 37 -35.5 55.5t-102.5 34.5q-21 5 -44.5 12.5t-43.5 22t-33 36.5t-13 55q0 36 14 61.5t37.5 42t53.5 24.5t62 8q49 0 95 -22t69 -62z" unicode="ś" horiz-adv-x="444"/>
<glyph glyph-name="Scircumflex" d="M442 764h-66l-83 108l-83 -108h-66l109 144h80zM437 594q-23 32 -59 51.5t-87 19.5q-26 0 -53 -8t-49 -24.5t-35.5 -41.5t-13.5 -59t13 -56t34.5 -37.5t49 -25.5t57.5 -20q37 -12 74.5 -26t67.5 -36.5t49 -57t19 -87.5t-20.5 -91.5t-53 -63.5t-74 -37t-83.5 -12 q-32 0 -64 6.5t-61 19.5t-54 33t-44 46l62 46q23 -38 64.5 -63.5t97.5 -25.5q27 0 55 8.5t50.5 26t37 43t14.5 59.5q0 37 -14.5 61.5t-38.5 41t-55 27.5t-65 22q-35 11 -69 25t-61 36.5t-43.5 55.5t-16.5 81q0 51 20.5 88t53.5 61t73 35t79 11q72 0 123 -25.5t77 -60.5z" unicode="Ŝ" horiz-adv-x="564"/>
<glyph glyph-name="scircumflex" d="M379 564h-66l-83 108l-83 -108h-66l109 144h80zM339 357q-15 29 -45.5 47.5t-69.5 18.5q-18 0 -36 -4t-32 -13t-22.5 -23t-8.5 -33q0 -33 27 -50.5t85 -29.5q83 -17 122.5 -49.5t39.5 -87.5q0 -40 -15.5 -67.5t-40.5 -45t-56.5 -25t-63.5 -7.5q-53 0 -103 22t-82 69 l54 40q18 -31 53 -52t77 -21q22 0 42 4t35 14t24 25.5t9 38.5q0 37 -35.5 55.5t-102.5 34.5q-21 5 -44.5 12.5t-43.5 22t-33 36.5t-13 55q0 36 14 61.5t37.5 42t53.5 24.5t62 8q49 0 95 -22t69 -62z" unicode="ŝ" horiz-adv-x="444"/>
<glyph glyph-name="Scedilla" d="M437 594q-23 32 -59 51.5t-87 19.5q-26 0 -53 -8t-49 -24.5t-35.5 -41.5t-13.5 -59t13 -56t34.5 -37.5t49 -25.5t57.5 -20q37 -12 74.5 -26t67.5 -36.5t49 -57t19 -87.5q0 -49 -17.5 -85.5t-46 -61.5t-65.5 -39t-76 -17l-36 -58q13 4 35 4q30 0 56 -18t26 -54 q0 -25 -11 -42t-28 -27t-38 -14t-41 -4t-46.5 5t-47.5 15l16 36q17 -8 35 -11t37 -3q8 0 19 2t21 7.5t17 14t7 20.5q0 20 -14.5 29.5t-39.5 9.5q-22 0 -43 -8l-18 15l51 81q-60 3 -115.5 28.5t-90.5 75.5l62 46q23 -38 64.5 -63.5t97.5 -25.5q27 0 55 8.5t50.5 26t37 43 t14.5 59.5q0 37 -14.5 61.5t-38.5 41t-55 27.5t-65 22q-35 11 -69 25t-61 36.5t-43.5 55.5t-16.5 81q0 51 20.5 88t53.5 61t73 35t79 11q72 0 123 -25.5t77 -60.5z" unicode="Ş" horiz-adv-x="564"/>
<glyph glyph-name="scedilla" d="M339 357q-15 29 -45.5 47.5t-69.5 18.5q-18 0 -36 -4t-32 -13t-22.5 -23t-8.5 -33q0 -33 27 -50.5t85 -29.5q83 -17 122.5 -49.5t39.5 -87.5q0 -36 -12.5 -61.5t-33 -42.5t-47 -26.5t-55.5 -12.5l-40 -65q13 4 35 4q30 0 56 -18t26 -54q0 -25 -11 -42t-28 -27t-38 -14 t-41 -4t-46.5 5t-47.5 15l16 36q17 -8 35 -11t37 -3q8 0 19 2t21 7.5t17 14t7 20.5q0 20 -14.5 29.5t-39.5 9.5q-22 0 -43 -8l-18 15l54 87q-49 3 -94 24t-75 66l54 40q18 -31 53 -52t77 -21q22 0 42 4t35 14t24 25.5t9 38.5q0 37 -35.5 55.5t-102.5 34.5q-21 5 -44.5 12.5 t-43.5 22t-33 36.5t-13 55q0 36 14 61.5t37.5 42t53.5 24.5t62 8q49 0 95 -22t69 -62z" unicode="ş" horiz-adv-x="444"/>
<glyph glyph-name="Scaron" d="M326 764h-80l-109 144h66l83 -108l83 108h66zM437 594q-23 32 -59 51.5t-87 19.5q-26 0 -53 -8t-49 -24.5t-35.5 -41.5t-13.5 -59t13 -56t34.5 -37.5t49 -25.5t57.5 -20q37 -12 74.5 -26t67.5 -36.5t49 -57t19 -87.5t-20.5 -91.5t-53 -63.5t-74 -37t-83.5 -12 q-32 0 -64 6.5t-61 19.5t-54 33t-44 46l62 46q23 -38 64.5 -63.5t97.5 -25.5q27 0 55 8.5t50.5 26t37 43t14.5 59.5q0 37 -14.5 61.5t-38.5 41t-55 27.5t-65 22q-35 11 -69 25t-61 36.5t-43.5 55.5t-16.5 81q0 51 20.5 88t53.5 61t73 35t79 11q72 0 123 -25.5t77 -60.5z" unicode="Š" horiz-adv-x="564"/>
<glyph glyph-name="scaron" d="M270 564h-80l-109 144h66l83 -108l83 108h66zM339 357q-15 29 -45.5 47.5t-69.5 18.5q-18 0 -36 -4t-32 -13t-22.5 -23t-8.5 -33q0 -33 27 -50.5t85 -29.5q83 -17 122.5 -49.5t39.5 -87.5q0 -40 -15.5 -67.5t-40.5 -45t-56.5 -25t-63.5 -7.5q-53 0 -103 22t-82 69l54 40 q18 -31 53 -52t77 -21q22 0 42 4t35 14t24 25.5t9 38.5q0 37 -35.5 55.5t-102.5 34.5q-21 5 -44.5 12.5t-43.5 22t-33 36.5t-13 55q0 36 14 61.5t37.5 42t53.5 24.5t62 8q49 0 95 -22t69 -62z" unicode="š" horiz-adv-x="444"/>
<glyph glyph-name="Tcommaaccent" d="M321 0h-10l-47 -75q13 4 35 4q30 0 56 -18t26 -54q0 -25 -11 -42t-28 -27t-38 -14t-41 -4t-46.5 5t-47.5 15l16 36q17 -8 35 -11t37 -3q8 0 19 2t21 7.5t17 14t7 20.5q0 20 -14.5 29.5t-39.5 9.5q-22 0 -43 -8l-18 15l62 98h-19v644h-237v64h546v-64h-237v-644z" unicode="Ţ" horiz-adv-x="570"/>
<glyph glyph-name="tcommaaccent" d="M301 411h-132v-273q0 -26 5 -43t14.5 -26.5t22.5 -13t28 -3.5q14 0 29.5 4t29.5 11l3 -59q-25 -10 -58 -13l-43 -70q13 4 35 4q30 0 56 -18t26 -54q0 -25 -11 -42t-28 -27t-38 -14t-41 -4t-46.5 5t-47.5 15l16 36q17 -8 35 -11t37 -3q8 0 19 2t21 7.5t17 14t7 20.5 q0 20 -14.5 29.5t-39.5 9.5q-22 0 -43 -8l-18 15l59 93q-18 2 -35.5 9t-32 21.5t-23.5 37t-9 56.5v292h-97v57h97v132h68v-132h132v-57z" unicode="ţ" horiz-adv-x="317"/>
<glyph glyph-name="Tcaron" d="M325 764h-80l-109 144h66l83 -108l83 108h66zM321 0h-72v644h-237v64h546v-64h-237v-644z" unicode="Ť" horiz-adv-x="570"/>
<glyph glyph-name="tcaron" d="M282 546h-57l62 185h71zM301 411h-132v-273q0 -26 5 -43t14.5 -26.5t22.5 -13t28 -3.5q14 0 29.5 4t29.5 11l3 -59q-18 -7 -37.5 -10.5t-42.5 -3.5q-19 0 -40 5t-39 19t-29.5 38t-11.5 63v292h-97v57h97v132h68v-132h132v-57z" unicode="ť" horiz-adv-x="317"/>
<glyph glyph-name="Tbar" d="M249 543v101h-237v64h546v-64h-237v-101h166v-50h-166v-493h-72v493h-176v50h176z" unicode="Ŧ" horiz-adv-x="570"/>
<glyph glyph-name="tbar" d="M101 314v97h-97v57h97v132h68v-132h132v-57h-132v-97h123v-50h-123v-126q0 -26 5 -43t14.5 -26.5t22.5 -13t28 -3.5q14 0 29.5 4t29.5 11l3 -59q-18 -7 -37.5 -10.5t-42.5 -3.5q-19 0 -40 5t-39 19t-29.5 38t-11.5 63v145h-89v50h89z" unicode="ŧ" horiz-adv-x="317"/>
<glyph glyph-name="Utilde" d="M193 776q3 19 9.5 38t17.5 33.5t26.5 23.5t38.5 9q18 0 36.5 -7t36.5 -16q18 -8 35 -15.5t32 -7.5q23 0 33.5 15.5t15.5 34.5h43q-3 -20 -9.5 -38.5t-17.5 -33t-27 -23.5t-38 -9q-18 0 -37 7t-36 16t-34 16t-33 7q-23 0 -33.5 -15.5t-15.5 -34.5h-43zM355 -18 q-80 0 -131 27.5t-81 69.5t-41.5 91.5t-11.5 93.5v444h72v-436q0 -43 10 -83.5t32.5 -72t59.5 -51t91 -19.5t91 19.5t59.5 51t32.5 72t10 83.5v436h72v-444q0 -44 -11.5 -93.5t-41.5 -91.5t-81.5 -69.5t-130.5 -27.5z" unicode="Ũ" horiz-adv-x="710"/>
<glyph glyph-name="utilde" d="M129 576q3 19 9.5 38t17.5 33.5t26.5 23.5t38.5 9q18 0 36.5 -7t36.5 -16q18 -8 35 -15.5t32 -7.5q23 0 33.5 15.5t15.5 34.5h43q-3 -20 -9.5 -38.5t-17.5 -33t-27 -23.5t-38 -9q-18 0 -37 7t-36 16t-34 16t-33 7q-23 0 -33.5 -15.5t-15.5 -34.5h-43zM430 0q-2 19 -3 42 t-1 38h-2q-20 -41 -65 -66.5t-95 -25.5q-89 0 -133.5 53t-44.5 140v287h68v-259q0 -37 6 -67t20.5 -51.5t39 -33.5t61.5 -12q27 0 52.5 11t45.5 33.5t32 57t12 81.5v240h68v-365q0 -19 1 -49t3 -54h-65z" unicode="ũ" horiz-adv-x="581"/>
<glyph glyph-name="Umacron" d="M491 800h-270v54h270v-54zM355 -18q-80 0 -131 27.5t-81 69.5t-41.5 91.5t-11.5 93.5v444h72v-436q0 -43 10 -83.5t32.5 -72t59.5 -51t91 -19.5t91 19.5t59.5 51t32.5 72t10 83.5v436h72v-444q0 -44 -11.5 -93.5t-41.5 -91.5t-81.5 -69.5t-130.5 -27.5z" unicode="Ū" horiz-adv-x="710"/>
<glyph glyph-name="umacron" d="M425 600h-270v54h270v-54zM430 0q-2 19 -3 42t-1 38h-2q-20 -41 -65 -66.5t-95 -25.5q-89 0 -133.5 53t-44.5 140v287h68v-259q0 -37 6 -67t20.5 -51.5t39 -33.5t61.5 -12q27 0 52.5 11t45.5 33.5t32 57t12 81.5v240h68v-365q0 -19 1 -49t3 -54h-65z" unicode="ū" horiz-adv-x="581"/>
<glyph glyph-name="Ubreve" d="M502 908q-4 -63 -44.5 -97.5t-102.5 -34.5t-102.5 34.5t-44.5 97.5h44q7 -39 36 -58.5t67 -19.5t67 19.5t36 58.5h44zM355 -18q-80 0 -131 27.5t-81 69.5t-41.5 91.5t-11.5 93.5v444h72v-436q0 -43 10 -83.5t32.5 -72t59.5 -51t91 -19.5t91 19.5t59.5 51t32.5 72t10 83.5 v436h72v-444q0 -44 -11.5 -93.5t-41.5 -91.5t-81.5 -69.5t-130.5 -27.5z" unicode="Ŭ" horiz-adv-x="710"/>
<glyph glyph-name="ubreve" d="M439 708q-4 -63 -44.5 -97.5t-102.5 -34.5t-102.5 34.5t-44.5 97.5h44q7 -39 36 -58.5t67 -19.5t67 19.5t36 58.5h44zM430 0q-2 19 -3 42t-1 38h-2q-20 -41 -65 -66.5t-95 -25.5q-89 0 -133.5 53t-44.5 140v287h68v-259q0 -37 6 -67t20.5 -51.5t39 -33.5t61.5 -12 q27 0 52.5 11t45.5 33.5t32 57t12 81.5v240h68v-365q0 -19 1 -49t3 -54h-65z" unicode="ŭ" horiz-adv-x="581"/>
<glyph glyph-name="Uring" d="M417 850q0 25 -17.5 42t-42.5 17t-42.5 -17t-17.5 -42t17.5 -42t42.5 -17t42.5 17t17.5 42zM453 850q0 -20 -7.5 -37.5t-21 -30.5t-31 -20t-36.5 -7q-20 0 -37 7t-30.5 20t-21 30.5t-7.5 37.5t7.5 37.5t21 30t30.5 20t37 7.5q19 0 36.5 -7.5t31 -20t21 -30t7.5 -37.5z M355 -18q-80 0 -131 27.5t-81 69.5t-41.5 91.5t-11.5 93.5v444h72v-436q0 -43 10 -83.5t32.5 -72t59.5 -51t91 -19.5t91 19.5t59.5 51t32.5 72t10 83.5v436h72v-444q0 -44 -11.5 -93.5t-41.5 -91.5t-81.5 -69.5t-130.5 -27.5z" unicode="Ů" horiz-adv-x="710"/>
<glyph glyph-name="uring" d="M350 650q0 25 -17.5 42t-42.5 17t-42.5 -17t-17.5 -42t17.5 -42t42.5 -17t42.5 17t17.5 42zM386 650q0 -20 -7.5 -37.5t-21 -30.5t-31 -20t-36.5 -7q-20 0 -37 7t-30.5 20t-21 30.5t-7.5 37.5t7.5 37.5t21 30t30.5 20t37 7.5q19 0 36.5 -7.5t31 -20t21 -30t7.5 -37.5z M430 0q-2 19 -3 42t-1 38h-2q-20 -41 -65 -66.5t-95 -25.5q-89 0 -133.5 53t-44.5 140v287h68v-259q0 -37 6 -67t20.5 -51.5t39 -33.5t61.5 -12q27 0 52.5 11t45.5 33.5t32 57t12 81.5v240h68v-365q0 -19 1 -49t3 -54h-65z" unicode="ů" horiz-adv-x="581"/>
<glyph glyph-name="Uhungarumlaut" d="M463 764h-59l100 144h91zM292 764h-59l101 144h91zM355 -18q-80 0 -131 27.5t-81 69.5t-41.5 91.5t-11.5 93.5v444h72v-436q0 -43 10 -83.5t32.5 -72t59.5 -51t91 -19.5t91 19.5t59.5 51t32.5 72t10 83.5v436h72v-444q0 -44 -11.5 -93.5t-41.5 -91.5t-81.5 -69.5 t-130.5 -27.5z" unicode="Ű" horiz-adv-x="710"/>
<glyph glyph-name="uhungarumlaut" d="M400 564h-59l100 144h91zM229 564h-59l101 144h91zM430 0q-2 19 -3 42t-1 38h-2q-20 -41 -65 -66.5t-95 -25.5q-89 0 -133.5 53t-44.5 140v287h68v-259q0 -37 6 -67t20.5 -51.5t39 -33.5t61.5 -12q27 0 52.5 11t45.5 33.5t32 57t12 81.5v240h68v-365q0 -19 1 -49t3 -54 h-65z" unicode="ű" horiz-adv-x="581"/>
<glyph glyph-name="Uogonek" d="M355 -18q-80 0 -131 27.5t-81 69.5t-41.5 91.5t-11.5 93.5v444h72v-436q0 -43 10 -83.5t32.5 -72t59.5 -51t91 -19.5t91 19.5t59.5 51t32.5 72t10 83.5v436h72v-444q0 -40 -9 -84t-32.5 -83.5t-63 -69.5t-99.5 -40q-31 -32 -47.5 -56.5t-16.5 -51.5q0 -21 15 -34.5 t35 -13.5q14 0 27.5 5.5t23.5 16.5l19 -40q-17 -17 -41 -26.5t-49 -9.5q-18 0 -34 6t-28.5 17.5t-20 27t-7.5 34.5q0 35 21 66t47 54h-5z" unicode="Ų" horiz-adv-x="710"/>
<glyph glyph-name="uogonek" d="M522 -187q-17 -17 -41 -26.5t-49 -9.5q-18 0 -34 6t-28.5 17.5t-20 27t-7.5 34.5q0 21 8 40.5t21 37t29 33t31 27.5h-1q-2 19 -3 42t-1 38h-2q-20 -41 -65 -66.5t-95 -25.5q-89 0 -133.5 53t-44.5 140v287h68v-259q0 -37 6 -67t20.5 -51.5t39 -33.5t61.5 -12 q27 0 52.5 11t45.5 33.5t32 57t12 81.5v240h68v-365q0 -19 1 -49t3 -54h-16q-37 -37 -57 -64.5t-20 -56.5q0 -21 15 -34.5t35 -13.5q14 0 27.5 5.5t23.5 16.5z" unicode="ų" horiz-adv-x="581"/>
<glyph glyph-name="Wcircumflex" d="M635 764h-66l-83 108l-83 -108h-66l109 144h80zM265 99h2l177 609h86l177 -609h2l173 609h76l-209 -708h-84l-178 608h-2l-178 -608h-84l-209 708h76z" unicode="Ŵ" horiz-adv-x="972"/>
<glyph glyph-name="wcircumflex" d="M521 564h-66l-83 108l-83 -108h-66l109 144h80zM99 468l113 -380h2l126 380h66l128 -380h2l112 380h72l-148 -468h-74l-125 379h-2l-123 -379h-74l-148 468h73z" unicode="ŵ" horiz-adv-x="746"/>
<glyph glyph-name="Ycircumflex" d="M452 764h-66l-83 108l-83 -108h-66l109 144h80zM337 0h-72v305l-265 403h90l213 -343l215 343h84l-265 -403v-305z" unicode="Ŷ" horiz-adv-x="602"/>
<glyph glyph-name="ycircumflex" d="M401 564h-66l-83 108l-83 -108h-66l109 144h80zM251 73h2l145 395h74l-233 -589q-21 -54 -53.5 -86.5t-93.5 -32.5q-31 0 -61 6l7 62q24 -8 50 -8q35 0 55 21.5t35 61.5l38 98l-200 467h76z" unicode="ŷ" horiz-adv-x="488"/>
<glyph glyph-name="Ydieresis" d="M348 847q0 20 14 35.5t37 15.5t37 -15.5t14 -35.5t-14 -35.5t-37 -15.5t-37 15.5t-14 35.5zM156 847q0 20 14 35.5t37 15.5t37 -15.5t14 -35.5t-14 -35.5t-37 -15.5t-37 15.5t-14 35.5zM337 0h-72v305l-265 403h90l213 -343l215 343h84l-265 -403v-305z" unicode="Ÿ" horiz-adv-x="602"/>
<glyph glyph-name="Zacute" d="M299 764h-59l100 144h91zM535 648l-413 -584h419v-64h-510v60l414 584h-403v64h493v-60z" unicode="Ź"/>
<glyph glyph-name="zacute" d="M241 564h-59l100 144h91zM401 420l-280 -361h290v-59h-380v48l279 363h-265v57h356v-48z" unicode="ź" horiz-adv-x="442"/>
<glyph glyph-name="Zdotaccent" d="M333 848q0 -21 -15 -34.5t-33 -13.5t-33 13.5t-15 34.5t15 34.5t33 13.5t33 -13.5t15 -34.5zM535 648l-413 -584h419v-64h-510v60l414 584h-403v64h493v-60z" unicode="Ż"/>
<glyph glyph-name="zdotaccent" d="M270 648q0 -21 -15 -34.5t-33 -13.5t-33 13.5t-15 34.5t15 34.5t33 13.5t33 -13.5t15 -34.5zM401 420l-280 -361h290v-59h-380v48l279 363h-265v57h356v-48z" unicode="ż" horiz-adv-x="442"/>
<glyph glyph-name="Zcaron" d="M327 764h-80l-109 144h66l83 -108l83 108h66zM535 648l-413 -584h419v-64h-510v60l414 584h-403v64h493v-60z" unicode="Ž"/>
<glyph glyph-name="zcaron" d="M265 564h-80l-109 144h66l83 -108l83 108h66zM401 420l-280 -361h290v-59h-380v48l279 363h-265v57h356v-48z" unicode="ž" horiz-adv-x="442"/>
<glyph glyph-name="florin" d="M442 365h-119l-67 -352q-5 -27 -15 -54t-27.5 -49t-45 -35.5t-67.5 -13.5q-22 0 -41 3.5t-37 14.5l27 55q24 -13 53 -13q23 0 38 9.5t24.5 24.5t15 34t8.5 38l63 338h-108v54h119l27 144q6 31 16 59t28 50t44 35t64 13q26 0 50.5 -7.5t44.5 -21.5l-34 -48q-13 9 -27.5 13 t-29.5 4q-25 0 -41 -12t-26 -30t-15 -38t-8 -36l-22 -125h108v-54z" unicode="ƒ" horiz-adv-x="580"/>
<glyph glyph-name="Ohorn" d="M718 354q0 62 -20 118t-58 98.5t-92.5 67.5t-122.5 25t-122.5 -25t-92.5 -67.5t-58 -98.5t-20 -118t20 -118t58 -98t92.5 -67t122.5 -25t122.5 25t92.5 67t58 98t20 118zM798 808q14 -30 14 -73q0 -56 -32 -86t-89 -31q53 -54 78 -122t25 -142q0 -81 -28 -149 t-77.5 -117.5t-117 -77.5t-146.5 -28t-146.5 28t-117 77.5t-77.5 117.5t-28 149t28 149t77.5 117.5t117 77.5t146.5 28q52 0 88.5 -9.5t64.5 -21t51 -21t50 -9.5q39 0 57 17.5t18 52.5q0 14 -4.5 30t-10.5 27z" unicode="Ơ" horiz-adv-x="850"/>
<glyph glyph-name="ohorn" d="M483 234q0 39 -12.5 73.5t-35.5 60t-56 40.5t-74 15t-73.5 -15t-55.5 -40.5t-35.5 -60t-12.5 -73.5t12.5 -73.5t35.5 -60t55.5 -40t73.5 -14.5t74 14.5t56 40t35.5 60t12.5 73.5zM612 582q14 -30 14 -73q0 -57 -33.5 -87t-91.5 -30q29 -35 41.5 -76t12.5 -82 q0 -53 -18.5 -98t-51.5 -78t-79 -51.5t-101 -18.5q-54 0 -100 18.5t-79 51.5t-51.5 78t-18.5 98t18.5 98t51.5 78t79 51.5t100 18.5q34 0 60 -6.5t47 -14t40.5 -14t40.5 -6.5q39 0 57 17.5t18 52.5q0 14 -4.5 30t-10.5 27z" unicode="ơ" horiz-adv-x="611"/>
<glyph glyph-name="Uhorn" d="M355 -18q-80 0 -131 27.5t-81 69.5t-41.5 91.5t-11.5 93.5v444h72v-436q0 -43 10 -83.5t32.5 -72t59.5 -51t91 -19.5t91 19.5t59.5 51t32.5 72t10 83.5v436h63q39 0 57 17.5t18 52.5q0 14 -4.5 30t-10.5 27l59 16q14 -30 14 -73q0 -57 -33 -87t-91 -30v-397 q0 -44 -11.5 -93.5t-41.5 -91.5t-81.5 -69.5t-130.5 -27.5z" unicode="Ư" horiz-adv-x="710"/>
<glyph glyph-name="uhorn" d="M430 0q-2 19 -3 42t-1 38h-2q-20 -41 -65 -66.5t-95 -25.5q-89 0 -133.5 53t-44.5 140v287h68v-259q0 -37 6 -67t20.5 -51.5t39 -33.5t61.5 -12q27 0 52.5 11t45.5 33.5t32 57t12 81.5v240h59q39 0 57 17.5t18 52.5q0 14 -4.5 30t-10.5 27l59 16q14 -30 14 -73 q0 -57 -33 -87t-91 -30v-318q0 -19 1 -49t3 -54h-65z" unicode="ư" horiz-adv-x="591"/>
<glyph glyph-name="clickdental" d="M141 750v-1000h-60v1000h60z" unicode="ǀ" horiz-adv-x="222"/>
<glyph glyph-name="clicklateral" d="M363 750v-1000h-60v1000h60zM141 750v-1000h-60v1000h60z" unicode="ǁ" horiz-adv-x="444"/>
<glyph glyph-name="clickretroflex" d="M218 48q0 -21 -15 -37.5t-39 -16.5t-39 16.5t-15 37.5t15 37.5t39 16.5t39 -16.5t15 -37.5zM200 192h-72v516h72v-516z" unicode="ǃ" horiz-adv-x="328"/>
<glyph glyph-name="DZcaron" d="M1093 783h-80l-109 144h66l83 -108l83 108h66zM1292 648l-413 -584h419v-64h-510v60l414 584h-403v64h493v-60zM166 64h143q80 0 139.5 25t98.5 65.5t58.5 92.5t19.5 107t-19.5 107t-58.5 92.5t-98.5 65.5t-139.5 25h-143v-580zM94 708h235q66 0 132.5 -22t120 -66.5 t86.5 -111t33 -154.5q0 -89 -33 -155t-86.5 -110.5t-120 -66.5t-132.5 -22h-235v708z" unicode="Ǆ" horiz-adv-x="1569"/>
<glyph glyph-name="Dzcaron" d="M1028 543h-80l-109 144h66l83 -108l83 108h66zM1158 420l-280 -361h290v-59h-380v48l279 363h-265v57h356v-48zM166 64h143q80 0 139.5 25t98.5 65.5t58.5 92.5t19.5 107t-19.5 107t-58.5 92.5t-98.5 65.5t-139.5 25h-143v-580zM94 708h235q66 0 132.5 -22t120 -66.5 t86.5 -111t33 -154.5q0 -89 -33 -155t-86.5 -110.5t-120 -66.5t-132.5 -22h-235v708z" unicode="ǅ" horiz-adv-x="1439"/>
<glyph glyph-name="dzcaron" d="M908 543h-80l-109 144h66l83 -108l83 108h66zM1038 420l-280 -361h290v-59h-380v48l279 363h-265v57h356v-48zM128 234q0 -39 12 -73.5t34.5 -60t55.5 -40t75 -14.5q39 0 72 14.5t57 39.5t37.5 59.5t13.5 74.5t-13.5 74.5t-37.5 60t-57 40t-72 14.5q-42 0 -75 -15 t-55.5 -40.5t-34.5 -60t-12 -73.5zM475 79q-30 -45 -78 -68t-99 -23q-55 0 -99.5 19t-76 52t-49 78t-17.5 97t17.5 97t49 78t76 52t99.5 19q51 0 99 -23.5t78 -69.5h2v369h68v-756h-68v79h-2z" unicode="ǆ" horiz-adv-x="1319"/>
<glyph glyph-name="LJ" d="M602 144q8 -42 37.5 -70.5t77.5 -28.5q37 0 61 13.5t38.5 36.5t20 52.5t5.5 61.5v499h72v-504q0 -35 -7.5 -74t-28.5 -72t-58 -54.5t-95 -21.5q-77 0 -127 40.5t-63 103.5zM166 64h330v-64h-402v708h72v-644z" unicode="Ǉ" horiz-adv-x="1002"/>
<glyph glyph-name="Lj" d="M684 648q0 -21 -15 -34.5t-33 -13.5t-33 13.5t-15 34.5t15 34.5t33 13.5t33 -13.5t15 -34.5zM493 -176q10 -3 21.5 -4.5t21.5 -1.5q21 0 34 7.5t20 20.5t9.5 31.5t2.5 40.5v550h68v-561q0 -28 -6 -54.5t-21 -47t-40.5 -33t-65.5 -12.5q-11 0 -26 1.5t-28 5.5zM166 64h330 v-64h-402v708h72v-644z" unicode="ǈ" horiz-adv-x="761"/>
<glyph glyph-name="lj" d="M426 648q0 -21 -15 -34.5t-33 -13.5t-33 13.5t-15 34.5t15 34.5t33 13.5t33 -13.5t15 -34.5zM235 -176q10 -3 21.5 -4.5t21.5 -1.5q21 0 34 7.5t20 20.5t9.5 31.5t2.5 40.5v550h68v-561q0 -28 -6 -54.5t-21 -47t-40.5 -33t-65.5 -12.5q-11 0 -26 1.5t-28 5.5zM160 0h-68 v756h68v-756z" unicode="ǉ" horiz-adv-x="503"/>
<glyph glyph-name="NJ" d="M856 144q8 -42 37.5 -70.5t77.5 -28.5q37 0 61 13.5t38.5 36.5t20 52.5t5.5 61.5v499h72v-504q0 -35 -7.5 -74t-28.5 -72t-58 -54.5t-95 -21.5q-77 0 -127 40.5t-63 103.5zM596 105h2v603h72v-708h-90l-412 609h-2v-609h-72v708h90z" unicode="Ǌ" horiz-adv-x="1256"/>
<glyph glyph-name="Nj" d="M938 648q0 -21 -15 -34.5t-33 -13.5t-33 13.5t-15 34.5t15 34.5t33 13.5t33 -13.5t15 -34.5zM747 -176q10 -3 21.5 -4.5t21.5 -1.5q21 0 34 7.5t20 20.5t9.5 31.5t2.5 40.5v550h68v-561q0 -28 -6 -54.5t-21 -47t-40.5 -33t-65.5 -12.5q-11 0 -26 1.5t-28 5.5zM596 105h2 v603h72v-708h-90l-412 609h-2v-609h-72v708h90z" unicode="ǋ" horiz-adv-x="1015"/>
<glyph glyph-name="nj" d="M755 648q0 -21 -15 -34.5t-33 -13.5t-33 13.5t-15 34.5t15 34.5t33 13.5t33 -13.5t15 -34.5zM564 -176q10 -3 21.5 -4.5t21.5 -1.5q21 0 34 7.5t20 20.5t9.5 31.5t2.5 40.5v550h68v-561q0 -28 -6 -54.5t-21 -47t-40.5 -33t-65.5 -12.5q-11 0 -26 1.5t-28 5.5zM151 468 q2 -19 3 -42t1 -38h2q20 41 65 66.5t95 25.5q89 0 133.5 -53t44.5 -140v-287h-68v259q0 37 -6 67t-20.5 51.5t-39 33.5t-61.5 12q-27 0 -52.5 -11t-45.5 -33.5t-32 -57t-12 -81.5v-240h-68v365q0 19 -1 49t-3 54h65z" unicode="ǌ" horiz-adv-x="832"/>
<glyph glyph-name="Acaron" d="M390 783h-80l-109 144h66l83 -108l83 108h66zM193 252h312l-156 376zM89 0h-79l306 708h70l304 -708h-80l-78 186h-366z" unicode="Ǎ" horiz-adv-x="700"/>
<glyph glyph-name="acaron" d="M296 555h-80l-109 144h66l83 -108l83 108h66zM365 234q-42 0 -84.5 -3.5t-77 -14t-56.5 -30.5t-22 -53q0 -25 9.5 -42t25.5 -27.5t35.5 -15t39.5 -4.5q36 0 64 12.5t47 34t29 49.5t10 59v35h-20zM385 302q0 61 -32 91t-93 30q-42 0 -78 -15t-61 -40l-38 45q29 29 76.5 48 t107.5 19q38 0 71 -10.5t58 -31.5t39 -53t14 -75v-205q0 -27 2 -56t6 -49h-61q-3 17 -5 37t-2 39h-2q-32 -47 -72.5 -67.5t-97.5 -20.5q-27 0 -55.5 7.5t-52 24.5t-39 44t-15.5 66q0 54 27.5 85.5t73.5 47t105.5 20t123.5 4.5v15z" unicode="ǎ" horiz-adv-x="534"/>
<glyph glyph-name="Icaron" d="M170 783h-80l-109 144h66l83 -108l83 108h66zM166 0h-72v708h72v-708z" unicode="Ǐ" horiz-adv-x="260"/>
<glyph glyph-name="icaron" d="M165 543h-80l-109 144h66l83 -108l83 108h66zM159 0h-68v468h68v-468z" unicode="ǐ" horiz-adv-x="250"/>
<glyph glyph-name="Ocaron" d="M465 801h-80l-109 144h66l83 -108l83 108h66zM718 354q0 62 -20 118t-58 98.5t-92.5 67.5t-122.5 25t-122.5 -25t-92.5 -67.5t-58 -98.5t-20 -118t20 -118t58 -98t92.5 -67t122.5 -25t122.5 25t92.5 67t58 98t20 118zM794 354q0 -81 -28 -149t-77.5 -117.5t-117 -77.5 t-146.5 -28t-146.5 28t-117 77.5t-77.5 117.5t-28 149t28 149t77.5 117.5t117 77.5t146.5 28t146.5 -28t117 -77.5t77.5 -117.5t28 -149z" unicode="Ǒ" horiz-adv-x="850"/>
<glyph glyph-name="ocaron" d="M345 555h-80l-109 144h66l83 -108l83 108h66zM483 234q0 39 -12.5 73.5t-35.5 60t-56 40.5t-74 15t-73.5 -15t-55.5 -40.5t-35.5 -60t-12.5 -73.5t12.5 -73.5t35.5 -60t55.5 -40t73.5 -14.5t74 14.5t56 40t35.5 60t12.5 73.5zM555 234q0 -53 -18.5 -98t-51.5 -78 t-79 -51.5t-101 -18.5q-54 0 -100 18.5t-79 51.5t-51.5 78t-18.5 98t18.5 98t51.5 78t79 51.5t100 18.5q55 0 101 -18.5t79 -51.5t51.5 -78t18.5 -98z" unicode="ǒ" horiz-adv-x="611"/>
<glyph glyph-name="Ucaron" d="M395 783h-80l-109 144h66l83 -108l83 108h66zM355 -18q-80 0 -131 27.5t-81 69.5t-41.5 91.5t-11.5 93.5v444h72v-436q0 -43 10 -83.5t32.5 -72t59.5 -51t91 -19.5t91 19.5t59.5 51t32.5 72t10 83.5v436h72v-444q0 -44 -11.5 -93.5t-41.5 -91.5t-81.5 -69.5t-130.5 -27.5 z" unicode="Ǔ" horiz-adv-x="710"/>
<glyph glyph-name="ucaron" d="M330 543h-80l-109 144h66l83 -108l83 108h66zM430 0q-2 19 -3 42t-1 38h-2q-20 -41 -65 -66.5t-95 -25.5q-89 0 -133.5 53t-44.5 140v287h68v-259q0 -37 6 -67t20.5 -51.5t39 -33.5t61.5 -12q27 0 52.5 11t45.5 33.5t32 57t12 81.5v240h68v-365q0 -19 1 -49t3 -54h-65z " unicode="ǔ" horiz-adv-x="581"/>
<glyph glyph-name="Udieresismacron" d="M490 960h-270v54h270v-54zM400 834q0 20 14 35.5t37 15.5t37 -15.5t14 -35.5t-14 -35.5t-37 -15.5t-37 15.5t-14 35.5zM208 834q0 20 14 35.5t37 15.5t37 -15.5t14 -35.5t-14 -35.5t-37 -15.5t-37 15.5t-14 35.5zM355 -18q-80 0 -131 27.5t-81 69.5t-41.5 91.5 t-11.5 93.5v444h72v-436q0 -43 10 -83.5t32.5 -72t59.5 -51t91 -19.5t91 19.5t59.5 51t32.5 72t10 83.5v436h72v-444q0 -44 -11.5 -93.5t-41.5 -91.5t-81.5 -69.5t-130.5 -27.5z" unicode="Ǖ" horiz-adv-x="710"/>
<glyph glyph-name="udieresismacron" d="M425 720h-270v54h270v-54zM335 594q0 20 14 35.5t37 15.5t37 -15.5t14 -35.5t-14 -35.5t-37 -15.5t-37 15.5t-14 35.5zM143 594q0 20 14 35.5t37 15.5t37 -15.5t14 -35.5t-14 -35.5t-37 -15.5t-37 15.5t-14 35.5zM430 0q-2 19 -3 42t-1 38h-2q-20 -41 -65 -66.5 t-95 -25.5q-89 0 -133.5 53t-44.5 140v287h68v-259q0 -37 6 -67t20.5 -51.5t39 -33.5t61.5 -12q27 0 52.5 11t45.5 33.5t32 57t12 81.5v240h68v-365q0 -19 1 -49t3 -54h-65z" unicode="ǖ" horiz-adv-x="581"/>
<glyph glyph-name="Udieresisacute" d="M379 960h-59l100 144h91zM400 834q0 20 14 35.5t37 15.5t37 -15.5t14 -35.5t-14 -35.5t-37 -15.5t-37 15.5t-14 35.5zM208 834q0 20 14 35.5t37 15.5t37 -15.5t14 -35.5t-14 -35.5t-37 -15.5t-37 15.5t-14 35.5zM355 -18q-80 0 -131 27.5t-81 69.5t-41.5 91.5t-11.5 93.5 v444h72v-436q0 -43 10 -83.5t32.5 -72t59.5 -51t91 -19.5t91 19.5t59.5 51t32.5 72t10 83.5v436h72v-444q0 -44 -11.5 -93.5t-41.5 -91.5t-81.5 -69.5t-130.5 -27.5z" unicode="Ǘ" horiz-adv-x="710"/>
<glyph glyph-name="udieresisacute" d="M314 720h-59l100 144h91zM335 594q0 20 14 35.5t37 15.5t37 -15.5t14 -35.5t-14 -35.5t-37 -15.5t-37 15.5t-14 35.5zM143 594q0 20 14 35.5t37 15.5t37 -15.5t14 -35.5t-14 -35.5t-37 -15.5t-37 15.5t-14 35.5zM430 0q-2 19 -3 42t-1 38h-2q-20 -41 -65 -66.5t-95 -25.5 q-89 0 -133.5 53t-44.5 140v287h68v-259q0 -37 6 -67t20.5 -51.5t39 -33.5t61.5 -12q27 0 52.5 11t45.5 33.5t32 57t12 81.5v240h68v-365q0 -19 1 -49t3 -54h-65z" unicode="ǘ" horiz-adv-x="581"/>
<glyph glyph-name="Udieresiscaron" d="M395 960h-80l-109 144h66l83 -108l83 108h66zM400 834q0 20 14 35.5t37 15.5t37 -15.5t14 -35.5t-14 -35.5t-37 -15.5t-37 15.5t-14 35.5zM208 834q0 20 14 35.5t37 15.5t37 -15.5t14 -35.5t-14 -35.5t-37 -15.5t-37 15.5t-14 35.5zM355 -18q-80 0 -131 27.5t-81 69.5 t-41.5 91.5t-11.5 93.5v444h72v-436q0 -43 10 -83.5t32.5 -72t59.5 -51t91 -19.5t91 19.5t59.5 51t32.5 72t10 83.5v436h72v-444q0 -44 -11.5 -93.5t-41.5 -91.5t-81.5 -69.5t-130.5 -27.5z" unicode="Ǚ" horiz-adv-x="710"/>
<glyph glyph-name="udieresiscaron" d="M330 720h-80l-109 144h66l83 -108l83 108h66zM335 594q0 20 14 35.5t37 15.5t37 -15.5t14 -35.5t-14 -35.5t-37 -15.5t-37 15.5t-14 35.5zM143 594q0 20 14 35.5t37 15.5t37 -15.5t14 -35.5t-14 -35.5t-37 -15.5t-37 15.5t-14 35.5zM430 0q-2 19 -3 42t-1 38h-2 q-20 -41 -65 -66.5t-95 -25.5q-89 0 -133.5 53t-44.5 140v287h68v-259q0 -37 6 -67t20.5 -51.5t39 -33.5t61.5 -12q27 0 52.5 11t45.5 33.5t32 57t12 81.5v240h68v-365q0 -19 1 -49t3 -54h-65z" unicode="ǚ" horiz-adv-x="581"/>
<glyph glyph-name="Udieresisgrave" d="M192 1104h91l100 -144h-59zM400 834q0 20 14 35.5t37 15.5t37 -15.5t14 -35.5t-14 -35.5t-37 -15.5t-37 15.5t-14 35.5zM208 834q0 20 14 35.5t37 15.5t37 -15.5t14 -35.5t-14 -35.5t-37 -15.5t-37 15.5t-14 35.5zM355 -18q-80 0 -131 27.5t-81 69.5t-41.5 91.5 t-11.5 93.5v444h72v-436q0 -43 10 -83.5t32.5 -72t59.5 -51t91 -19.5t91 19.5t59.5 51t32.5 72t10 83.5v436h72v-444q0 -44 -11.5 -93.5t-41.5 -91.5t-81.5 -69.5t-130.5 -27.5z" unicode="Ǜ" horiz-adv-x="710"/>
<glyph glyph-name="udieresisgrave" d="M145 864h91l100 -144h-59zM335 594q0 20 14 35.5t37 15.5t37 -15.5t14 -35.5t-14 -35.5t-37 -15.5t-37 15.5t-14 35.5zM143 594q0 20 14 35.5t37 15.5t37 -15.5t14 -35.5t-14 -35.5t-37 -15.5t-37 15.5t-14 35.5zM430 0q-2 19 -3 42t-1 38h-2q-20 -41 -65 -66.5 t-95 -25.5q-89 0 -133.5 53t-44.5 140v287h68v-259q0 -37 6 -67t20.5 -51.5t39 -33.5t61.5 -12q27 0 52.5 11t45.5 33.5t32 57t12 81.5v240h68v-365q0 -19 1 -49t3 -54h-65z" unicode="ǜ" horiz-adv-x="581"/>
<glyph glyph-name="Adieresismacron" d="M485 960h-270v54h270v-54zM395 834q0 20 14 35.5t37 15.5t37 -15.5t14 -35.5t-14 -35.5t-37 -15.5t-37 15.5t-14 35.5zM203 834q0 20 14 35.5t37 15.5t37 -15.5t14 -35.5t-14 -35.5t-37 -15.5t-37 15.5t-14 35.5zM193 252h312l-156 376zM89 0h-79l306 708h70l304 -708 h-80l-78 186h-366z" unicode="Ǟ" horiz-adv-x="700"/>
<glyph glyph-name="adieresismacron" d="M391 732h-270v54h270v-54zM301 606q0 20 14 35.5t37 15.5t37 -15.5t14 -35.5t-14 -35.5t-37 -15.5t-37 15.5t-14 35.5zM109 606q0 20 14 35.5t37 15.5t37 -15.5t14 -35.5t-14 -35.5t-37 -15.5t-37 15.5t-14 35.5zM365 234q-42 0 -84.5 -3.5t-77 -14t-56.5 -30.5t-22 -53 q0 -25 9.5 -42t25.5 -27.5t35.5 -15t39.5 -4.5q36 0 64 12.5t47 34t29 49.5t10 59v35h-20zM385 302q0 61 -32 91t-93 30q-42 0 -78 -15t-61 -40l-38 45q29 29 76.5 48t107.5 19q38 0 71 -10.5t58 -31.5t39 -53t14 -75v-205q0 -27 2 -56t6 -49h-61q-3 17 -5 37t-2 39h-2 q-32 -47 -72.5 -67.5t-97.5 -20.5q-27 0 -55.5 7.5t-52 24.5t-39 44t-15.5 66q0 54 27.5 85.5t73.5 47t105.5 20t123.5 4.5v15z" unicode="ǟ" horiz-adv-x="534"/>
<glyph glyph-name="Adotmacron" d="M485 954h-270v54h270v-54zM398 831q0 -21 -15 -34.5t-33 -13.5t-33 13.5t-15 34.5t15 34.5t33 13.5t33 -13.5t15 -34.5zM193 252h312l-156 376zM89 0h-79l306 708h70l304 -708h-80l-78 186h-366z" unicode="Ǡ" horiz-adv-x="700"/>
<glyph glyph-name="adotmacron" d="M391 726h-270v54h270v-54zM304 603q0 -21 -15 -34.5t-33 -13.5t-33 13.5t-15 34.5t15 34.5t33 13.5t33 -13.5t15 -34.5zM365 234q-42 0 -84.5 -3.5t-77 -14t-56.5 -30.5t-22 -53q0 -25 9.5 -42t25.5 -27.5t35.5 -15t39.5 -4.5q36 0 64 12.5t47 34t29 49.5t10 59v35h-20z M385 302q0 61 -32 91t-93 30q-42 0 -78 -15t-61 -40l-38 45q29 29 76.5 48t107.5 19q38 0 71 -10.5t58 -31.5t39 -53t14 -75v-205q0 -27 2 -56t6 -49h-61q-3 17 -5 37t-2 39h-2q-32 -47 -72.5 -67.5t-97.5 -20.5q-27 0 -55.5 7.5t-52 24.5t-39 44t-15.5 66q0 54 27.5 85.5 t73.5 47t105.5 20t123.5 4.5v15z" unicode="ǡ" horiz-adv-x="534"/>
<glyph glyph-name="AEmacron" d="M868 783h-270v54h270v-54zM519 261v383h-14l-247 -383h261zM591 64h345v-64h-417v198h-298l-128 -198h-82l461 708h452v-64h-333v-244h309v-63h-309v-273z" unicode="Ǣ" horiz-adv-x="990"/>
<glyph glyph-name="aemacron" d="M570 555h-270v54h270v-54zM360 216q-45 0 -87.5 -2.5t-75 -11.5t-52 -27t-19.5 -49q0 -24 9 -40t24.5 -25.5t35.5 -13.5t42 -4q72 0 107.5 38t35.5 101v34h-20zM745 270q0 67 -38 110t-106 43q-31 0 -58.5 -12.5t-48.5 -34t-34 -49t-14 -57.5h299zM814 248v-17t-1 -15 h-370q1 -35 13.5 -66.5t34.5 -54.5t51.5 -36.5t63.5 -13.5q51 0 87.5 24.5t55.5 56.5l49 -39q-40 -53 -88 -76t-104 -23q-66 0 -114.5 29t-71.5 80q-14 -32 -34.5 -53t-46 -33.5t-54.5 -17.5t-60 -5q-30 0 -60.5 7.5t-54.5 23.5t-39 42t-15 64q0 50 28 79t73.5 43.5 t104 18.5t118.5 4v15q0 61 -29.5 99.5t-90.5 38.5q-42 0 -79.5 -15t-64.5 -40l-39 44q30 29 81.5 48.5t111.5 19.5q56 0 96.5 -25.5t57.5 -72.5q28 45 74.5 71.5t102.5 26.5q52 0 92 -18.5t67 -50t40.5 -73.5t13.5 -90z" unicode="ǣ" horiz-adv-x="870"/>
<glyph glyph-name="Gcaron" d="M472 801h-80l-109 144h66l83 -108l83 108h66zM631 581q-37 39 -88 60.5t-117 21.5q-68 0 -122.5 -25t-92.5 -67.5t-58.5 -98.5t-20.5 -118t20.5 -118t58.5 -98t92.5 -67t122.5 -25q60 0 110 13t81 33v215h-165v63h237v-319q-58 -35 -125 -52t-139 -17q-80 0 -148 28 t-117 77.5t-76.5 117.5t-27.5 149t28 149t77.5 117.5t117 77.5t146.5 28q85 0 148 -25t108 -70z" unicode="Ǧ" horiz-adv-x="779"/>
<glyph glyph-name="gcaron" d="M340 555h-80l-109 144h66l83 -108l83 108h66zM128 240q0 -37 12 -70t34.5 -58t55.5 -39.5t75 -14.5q39 0 72 13t57 37t37.5 57.5t13.5 74.5q0 37 -13.5 70t-37.5 58t-57 40t-72 15q-42 0 -75 -15t-55.5 -40t-34.5 -58t-12 -70zM115 -94q28 -36 76.5 -61t102.5 -25 q50 0 85 14.5t56.5 39.5t31.5 58.5t10 71.5v88h-2q-27 -44 -76.5 -68t-100.5 -24q-55 0 -99.5 18t-76 49.5t-49 75.5t-17.5 95q0 50 17.5 94t49 77t76 52t99.5 19q51 0 100 -24t77 -69h2v81h68v-464q0 -38 -10.5 -81t-39 -79t-77.5 -60t-127 -24q-65 0 -124 25t-101 69z" unicode="ǧ" horiz-adv-x="632"/>
<glyph glyph-name="Kcaron" d="M360 783h-80l-109 144h66l83 -108l83 108h66zM166 390h1l337 318h103l-357 -321l377 -387h-106l-354 377h-1v-377h-72v708h72v-318z" unicode="Ǩ" horiz-adv-x="628"/>
<glyph glyph-name="kcaron" d="M171 831h-80l-109 144h66l83 -108l83 108h66zM160 257h3l216 211h98l-236 -214l260 -254h-100l-238 246h-3v-246h-68v756h68v-499z" unicode="ǩ" horiz-adv-x="510"/>
<glyph glyph-name="Oogonek" d="M718 354q0 62 -20 118t-58 98.5t-92.5 67.5t-122.5 25t-122.5 -25t-92.5 -67.5t-58 -98.5t-20 -118t20 -118t58 -98t92.5 -67t122.5 -25t122.5 25t92.5 67t58 98t20 118zM794 354q0 -75 -24.5 -139.5t-68 -113t-103 -79.5t-130.5 -38q-35 -35 -54 -64.5t-19 -58.5 q0 -21 15 -34.5t35 -13.5q14 0 27.5 5.5t23.5 16.5l19 -40q-17 -17 -41 -26.5t-49 -9.5q-18 0 -34 6t-28.5 17.5t-20 27t-7.5 34.5q0 20 7 39.5t19 37.5t26.5 33.5t29.5 28.5q-78 1 -144 29.5t-114 78t-75.5 116.5t-27.5 147q0 81 28 149t77.5 117.5t117 77.5t146.5 28 t146.5 -28t117 -77.5t77.5 -117.5t28 -149z" unicode="Ǫ" horiz-adv-x="850"/>
<glyph glyph-name="oogonek" d="M483 234q0 39 -12.5 73.5t-35.5 60t-56 40.5t-74 15t-73.5 -15t-55.5 -40.5t-35.5 -60t-12.5 -73.5t12.5 -73.5t35.5 -60t55.5 -40t73.5 -14.5t74 14.5t56 40t35.5 60t12.5 73.5zM555 234q0 -47 -15 -88.5t-42 -73t-65 -52.5t-84 -28q-35 -36 -54.5 -66t-19.5 -59 q0 -21 15 -34.5t35 -13.5q14 0 27.5 5.5t23.5 16.5l19 -40q-17 -17 -41 -26.5t-49 -9.5q-18 0 -34 6t-28.5 17.5t-20 27t-7.5 34.5q0 20 7.5 39.5t19 37t26 33.5t29.5 28q-53 1 -97 20.5t-76 52t-50 77t-18 96.5q0 53 18.5 98t51.5 78t79 51.5t100 18.5q55 0 101 -18.5 t79 -51.5t51.5 -78t18.5 -98z" unicode="ǫ" horiz-adv-x="611"/>
<glyph glyph-name="Oogonekmacron" d="M560 801h-270v54h270v-54zM718 354q0 62 -20 118t-58 98.5t-92.5 67.5t-122.5 25t-122.5 -25t-92.5 -67.5t-58 -98.5t-20 -118t20 -118t58 -98t92.5 -67t122.5 -25t122.5 25t92.5 67t58 98t20 118zM794 354q0 -75 -24.5 -139.5t-68 -113t-103 -79.5t-130.5 -38 q-35 -35 -54 -64.5t-19 -58.5q0 -21 15 -34.5t35 -13.5q14 0 27.5 5.5t23.5 16.5l19 -40q-17 -17 -41 -26.5t-49 -9.5q-18 0 -34 6t-28.5 17.5t-20 27t-7.5 34.5q0 20 7 39.5t19 37.5t26.5 33.5t29.5 28.5q-78 1 -144 29.5t-114 78t-75.5 116.5t-27.5 147q0 81 28 149 t77.5 117.5t117 77.5t146.5 28t146.5 -28t117 -77.5t77.5 -117.5t28 -149z" unicode="Ǭ" horiz-adv-x="850"/>
<glyph glyph-name="oogonekmacron" d="M440 555h-270v54h270v-54zM483 234q0 39 -12.5 73.5t-35.5 60t-56 40.5t-74 15t-73.5 -15t-55.5 -40.5t-35.5 -60t-12.5 -73.5t12.5 -73.5t35.5 -60t55.5 -40t73.5 -14.5t74 14.5t56 40t35.5 60t12.5 73.5zM555 234q0 -47 -15 -88.5t-42 -73t-65 -52.5t-84 -28 q-35 -36 -54.5 -66t-19.5 -59q0 -21 15 -34.5t35 -13.5q14 0 27.5 5.5t23.5 16.5l19 -40q-17 -17 -41 -26.5t-49 -9.5q-18 0 -34 6t-28.5 17.5t-20 27t-7.5 34.5q0 20 7.5 39.5t19 37t26 33.5t29.5 28q-53 1 -97 20.5t-76 52t-50 77t-18 96.5q0 53 18.5 98t51.5 78t79 51.5 t100 18.5q55 0 101 -18.5t79 -51.5t51.5 -78t18.5 -98z" unicode="ǭ" horiz-adv-x="611"/>
<glyph glyph-name="DZ" d="M1292 648l-413 -584h419v-64h-510v60l414 584h-403v64h493v-60zM166 64h143q80 0 139.5 25t98.5 65.5t58.5 92.5t19.5 107t-19.5 107t-58.5 92.5t-98.5 65.5t-139.5 25h-143v-580zM94 708h235q66 0 132.5 -22t120 -66.5t86.5 -111t33 -154.5q0 -89 -33 -155t-86.5 -110.5 t-120 -66.5t-132.5 -22h-235v708z" unicode="Ǳ" horiz-adv-x="1329"/>
<glyph glyph-name="Dz" d="M1158 420l-280 -361h290v-59h-380v48l279 363h-265v57h356v-48zM166 64h143q80 0 139.5 25t98.5 65.5t58.5 92.5t19.5 107t-19.5 107t-58.5 92.5t-98.5 65.5t-139.5 25h-143v-580zM94 708h235q66 0 132.5 -22t120 -66.5t86.5 -111t33 -154.5q0 -89 -33 -155t-86.5 -110.5 t-120 -66.5t-132.5 -22h-235v708z" unicode="ǲ" horiz-adv-x="1199"/>
<glyph glyph-name="dz" d="M1038 420l-280 -361h290v-59h-380v48l279 363h-265v57h356v-48zM128 234q0 -39 12 -73.5t34.5 -60t55.5 -40t75 -14.5q39 0 72 14.5t57 39.5t37.5 59.5t13.5 74.5t-13.5 74.5t-37.5 60t-57 40t-72 14.5q-42 0 -75 -15t-55.5 -40.5t-34.5 -60t-12 -73.5zM475 79 q-30 -45 -78 -68t-99 -23q-55 0 -99.5 19t-76 52t-49 78t-17.5 97t17.5 97t49 78t76 52t99.5 19q51 0 99 -23.5t78 -69.5h2v369h68v-756h-68v79h-2z" unicode="ǳ" horiz-adv-x="1079"/>
<glyph glyph-name="Gacute" d="M436 801h-59l100 144h91zM631 581q-37 39 -88 60.5t-117 21.5q-68 0 -122.5 -25t-92.5 -67.5t-58.5 -98.5t-20.5 -118t20.5 -118t58.5 -98t92.5 -67t122.5 -25q60 0 110 13t81 33v215h-165v63h237v-319q-58 -35 -125 -52t-139 -17q-80 0 -148 28t-117 77.5t-76.5 117.5 t-27.5 149t28 149t77.5 117.5t117 77.5t146.5 28q85 0 148 -25t108 -70z" unicode="Ǵ" horiz-adv-x="779"/>
<glyph glyph-name="gacute" d="M294 555h-59l100 144h91zM128 240q0 -37 12 -70t34.5 -58t55.5 -39.5t75 -14.5q39 0 72 13t57 37t37.5 57.5t13.5 74.5q0 37 -13.5 70t-37.5 58t-57 40t-72 15q-42 0 -75 -15t-55.5 -40t-34.5 -58t-12 -70zM115 -94q28 -36 76.5 -61t102.5 -25q50 0 85 14.5t56.5 39.5 t31.5 58.5t10 71.5v88h-2q-27 -44 -76.5 -68t-100.5 -24q-55 0 -99.5 18t-76 49.5t-49 75.5t-17.5 95q0 50 17.5 94t49 77t76 52t99.5 19q51 0 100 -24t77 -69h2v81h68v-464q0 -38 -10.5 -81t-39 -79t-77.5 -60t-127 -24q-65 0 -124 25t-101 69z" unicode="ǵ" horiz-adv-x="632"/>
<glyph glyph-name="Ngrave" d="M257 927h91l100 -144h-59zM596 105h2v603h72v-708h-90l-412 609h-2v-609h-72v708h90z" unicode="Ǹ" horiz-adv-x="764"/>
<glyph glyph-name="ngrave" d="M185 699h91l100 -144h-59zM151 468q2 -19 3 -42t1 -38h2q20 41 65 66.5t95 25.5q89 0 133.5 -53t44.5 -140v-287h-68v259q0 37 -6 67t-20.5 51.5t-39 33.5t-61.5 12q-27 0 -52.5 -11t-45.5 -33.5t-32 -57t-12 -81.5v-240h-68v365q0 19 -1 49t-3 54h65z" unicode="ǹ" horiz-adv-x="581"/>
<glyph glyph-name="Aringacute" d="M314 1048h-59l100 144h91zM410 878q0 25 -17.5 42t-42.5 17t-42.5 -17t-17.5 -42t17.5 -42t42.5 -17t42.5 17t17.5 42zM446 878q0 -20 -7.5 -37.5t-21 -30.5t-31 -20t-36.5 -7q-20 0 -37 7t-30.5 20t-21 30.5t-7.5 37.5t7.5 37.5t21 30t30.5 20t37 7.5q19 0 36.5 -7.5 t31 -20t21 -30t7.5 -37.5zM193 252h312l-156 376zM89 0h-79l306 708h70l304 -708h-80l-78 186h-366z" unicode="Ǻ" horiz-adv-x="700"/>
<glyph glyph-name="aringacute" d="M220 820h-59l100 144h91zM316 650q0 25 -17.5 42t-42.5 17t-42.5 -17t-17.5 -42t17.5 -42t42.5 -17t42.5 17t17.5 42zM352 650q0 -20 -7.5 -37.5t-21 -30.5t-31 -20t-36.5 -7q-20 0 -37 7t-30.5 20t-21 30.5t-7.5 37.5t7.5 37.5t21 30t30.5 20t37 7.5q19 0 36.5 -7.5 t31 -20t21 -30t7.5 -37.5zM365 234q-42 0 -84.5 -3.5t-77 -14t-56.5 -30.5t-22 -53q0 -25 9.5 -42t25.5 -27.5t35.5 -15t39.5 -4.5q36 0 64 12.5t47 34t29 49.5t10 59v35h-20zM385 302q0 61 -32 91t-93 30q-42 0 -78 -15t-61 -40l-38 45q29 29 76.5 48t107.5 19 q38 0 71 -10.5t58 -31.5t39 -53t14 -75v-205q0 -27 2 -56t6 -49h-61q-3 17 -5 37t-2 39h-2q-32 -47 -72.5 -67.5t-97.5 -20.5q-27 0 -55.5 7.5t-52 24.5t-39 44t-15.5 66q0 54 27.5 85.5t73.5 47t105.5 20t123.5 4.5v15z" unicode="ǻ" horiz-adv-x="534"/>
<glyph glyph-name="AEacute" d="M727 783h-59l100 144h91zM519 261v383h-14l-247 -383h261zM591 64h345v-64h-417v198h-298l-128 -198h-82l461 708h452v-64h-333v-244h309v-63h-309v-273z" unicode="Ǽ" horiz-adv-x="990"/>
<glyph glyph-name="aeacute" d="M479 555h-59l100 144h91zM360 216q-45 0 -87.5 -2.5t-75 -11.5t-52 -27t-19.5 -49q0 -24 9 -40t24.5 -25.5t35.5 -13.5t42 -4q72 0 107.5 38t35.5 101v34h-20zM745 270q0 67 -38 110t-106 43q-31 0 -58.5 -12.5t-48.5 -34t-34 -49t-14 -57.5h299zM814 248v-17t-1 -15 h-370q1 -35 13.5 -66.5t34.5 -54.5t51.5 -36.5t63.5 -13.5q51 0 87.5 24.5t55.5 56.5l49 -39q-40 -53 -88 -76t-104 -23q-66 0 -114.5 29t-71.5 80q-14 -32 -34.5 -53t-46 -33.5t-54.5 -17.5t-60 -5q-30 0 -60.5 7.5t-54.5 23.5t-39 42t-15 64q0 50 28 79t73.5 43.5 t104 18.5t118.5 4v15q0 61 -29.5 99.5t-90.5 38.5q-42 0 -79.5 -15t-64.5 -40l-39 44q30 29 81.5 48.5t111.5 19.5q56 0 96.5 -25.5t57.5 -72.5q28 45 74.5 71.5t102.5 26.5q52 0 92 -18.5t67 -50t40.5 -73.5t13.5 -90z" unicode="ǽ" horiz-adv-x="870"/>
<glyph glyph-name="Oslashacute" d="M419 801h-59l100 144h91zM616 595q-35 32 -83.5 50t-107.5 18q-69 0 -123.5 -25t-92 -67.5t-57.5 -98.5t-20 -118q0 -58 17.5 -111t51.5 -93zM236 113q37 -32 83.5 -49.5t105.5 -17.5q69 0 123.5 25t92 67t57.5 98t20 118q0 57 -17 110t-50 94zM698 610q46 -49 71 -114 t25 -142q0 -81 -28 -149t-77.5 -117.5t-117 -77.5t-146.5 -28q-69 0 -129 21.5t-107 59.5l-76 -81l-37 34l76 82q-46 49 -71 114t-25 142q0 81 28 149t77.5 117.5t117 77.5t146.5 28q69 0 128.5 -21t107.5 -60l76 81l37 -34z" unicode="Ǿ" horiz-adv-x="850"/>
<glyph glyph-name="oslashacute" d="M308 571h-59l100 144h91zM495 397q27 -31 43.5 -72.5t16.5 -90.5q0 -53 -18.5 -98t-52 -78t-79.5 -51.5t-101 -18.5q-48 0 -87.5 14t-69.5 38l-67 -68l-32 31l66 68q-28 32 -43 73.5t-15 89.5q0 53 18.5 98t51.5 78t78.5 51.5t99.5 18.5q47 0 87 -13.5t72 -38.5l66 68 l32 -31zM421 385q-20 20 -50.5 30t-65.5 10q-42 0 -75 -15t-56.5 -41t-36 -60.5t-12.5 -74.5q0 -34 8.5 -65t25.5 -53zM188 82q23 -18 51.5 -28.5t63.5 -10.5q42 0 75.5 15t57.5 40.5t37 60.5t13 75q0 32 -9 63.5t-27 53.5z" unicode="ǿ" horiz-adv-x="611"/>
<glyph glyph-name="Adblgrave" d="M108 927h91l100 -144h-59zM262 927h91l100 -144h-59zM193 252h312l-156 376zM89 0h-79l306 708h70l304 -708h-80l-78 186h-366z" unicode="Ȁ" horiz-adv-x="700"/>
<glyph glyph-name="adblgrave" d="M24 699h91l100 -144h-59zM178 699h91l100 -144h-59zM365 234q-42 0 -84.5 -3.5t-77 -14t-56.5 -30.5t-22 -53q0 -25 9.5 -42t25.5 -27.5t35.5 -15t39.5 -4.5q36 0 64 12.5t47 34t29 49.5t10 59v35h-20zM385 302q0 61 -32 91t-93 30q-42 0 -78 -15t-61 -40l-38 45 q29 29 76.5 48t107.5 19q38 0 71 -10.5t58 -31.5t39 -53t14 -75v-205q0 -27 2 -56t6 -49h-61q-3 17 -5 37t-2 39h-2q-32 -47 -72.5 -67.5t-97.5 -20.5q-27 0 -55.5 7.5t-52 24.5t-39 44t-15.5 66q0 54 27.5 85.5t73.5 47t105.5 20t123.5 4.5v15z" unicode="ȁ" horiz-adv-x="534"/>
<glyph glyph-name="Ainvertedbreve" d="M453 783q-7 39 -36 58.5t-67 19.5t-67 -19.5t-36 -58.5h-44q4 63 44.5 97.5t102.5 34.5t102.5 -34.5t44.5 -97.5h-44zM193 252h312l-156 376zM89 0h-79l306 708h70l304 -708h-80l-78 186h-366z" unicode="Ȃ" horiz-adv-x="700"/>
<glyph glyph-name="ainvertedbreve" d="M359 555q-7 39 -36 58.5t-67 19.5t-67 -19.5t-36 -58.5h-44q4 63 44.5 97.5t102.5 34.5t102.5 -34.5t44.5 -97.5h-44zM365 234q-42 0 -84.5 -3.5t-77 -14t-56.5 -30.5t-22 -53q0 -25 9.5 -42t25.5 -27.5t35.5 -15t39.5 -4.5q36 0 64 12.5t47 34t29 49.5t10 59v35h-20z M385 302q0 61 -32 91t-93 30q-42 0 -78 -15t-61 -40l-38 45q29 29 76.5 48t107.5 19q38 0 71 -10.5t58 -31.5t39 -53t14 -75v-205q0 -27 2 -56t6 -49h-61q-3 17 -5 37t-2 39h-2q-32 -47 -72.5 -67.5t-97.5 -20.5q-27 0 -55.5 7.5t-52 24.5t-39 44t-15.5 66q0 54 27.5 85.5 t73.5 47t105.5 20t123.5 4.5v15z" unicode="ȃ" horiz-adv-x="534"/>
<glyph glyph-name="Edblgrave" d="M87 927h91l100 -144h-59zM241 927h91l100 -144h-59zM166 64h379v-64h-451v708h439v-64h-367v-244h343v-63h-343v-273z" unicode="Ȅ" horiz-adv-x="592"/>
<glyph glyph-name="edblgrave" d="M74 699h91l100 -144h-59zM228 699h91l100 -144h-59zM516 248v-15t-1 -17h-388q1 -35 14 -66t36 -54t54 -36.5t67 -13.5q53 0 91.5 24.5t58.5 56.5l51 -40q-42 -53 -92.5 -76t-108.5 -23q-52 0 -96.5 18.5t-76.5 51.5t-50.5 78t-18.5 98t18 98t50 78t75 51.5t93 18.5 q55 0 97 -18.5t70 -50t42.5 -73.5t14.5 -90zM447 270q-3 66 -42.5 109.5t-112.5 43.5q-34 0 -63 -12.5t-51 -34t-35 -49t-15 -57.5h319z" unicode="ȅ"/>
<glyph glyph-name="Einvertedbreve" d="M422 783q-7 39 -36 58.5t-67 19.5t-67 -19.5t-36 -58.5h-44q4 63 44.5 97.5t102.5 34.5t102.5 -34.5t44.5 -97.5h-44zM166 64h379v-64h-451v708h439v-64h-367v-244h343v-63h-343v-273z" unicode="Ȇ" horiz-adv-x="592"/>
<glyph glyph-name="einvertedbreve" d="M389 555q-7 39 -36 58.5t-67 19.5t-67 -19.5t-36 -58.5h-44q4 63 44.5 97.5t102.5 34.5t102.5 -34.5t44.5 -97.5h-44zM516 248v-15t-1 -17h-388q1 -35 14 -66t36 -54t54 -36.5t67 -13.5q53 0 91.5 24.5t58.5 56.5l51 -40q-42 -53 -92.5 -76t-108.5 -23q-52 0 -96.5 18.5 t-76.5 51.5t-50.5 78t-18.5 98t18 98t50 78t75 51.5t93 18.5q55 0 97 -18.5t70 -50t42.5 -73.5t14.5 -90zM447 270q-3 66 -42.5 109.5t-112.5 43.5q-34 0 -63 -12.5t-51 -34t-35 -49t-15 -57.5h319z" unicode="ȇ"/>
<glyph glyph-name="Idblgrave" d="M-92 927h91l100 -144h-59zM62 927h91l100 -144h-59zM166 0h-72v708h72v-708z" unicode="Ȉ" horiz-adv-x="260"/>
<glyph glyph-name="idblgrave" d="M-87 687h91l100 -144h-59zM67 687h91l100 -144h-59zM159 0h-68v468h68v-468z" unicode="ȉ" horiz-adv-x="250"/>
<glyph glyph-name="Iinvertedbreve" d="M233 783q-7 39 -36 58.5t-67 19.5t-67 -19.5t-36 -58.5h-44q4 63 44.5 97.5t102.5 34.5t102.5 -34.5t44.5 -97.5h-44zM166 0h-72v708h72v-708z" unicode="Ȋ" horiz-adv-x="260"/>
<glyph glyph-name="iinvertedbreve" d="M228 543q-7 39 -36 58.5t-67 19.5t-67 -19.5t-36 -58.5h-44q4 63 44.5 97.5t102.5 34.5t102.5 -34.5t44.5 -97.5h-44zM159 0h-68v468h68v-468z" unicode="ȋ" horiz-adv-x="250"/>
<glyph glyph-name="Odblgrave" d="M223 945h91l100 -144h-59zM377 945h91l100 -144h-59zM718 354q0 62 -20 118t-58 98.5t-92.5 67.5t-122.5 25t-122.5 -25t-92.5 -67.5t-58 -98.5t-20 -118t20 -118t58 -98t92.5 -67t122.5 -25t122.5 25t92.5 67t58 98t20 118zM794 354q0 -81 -28 -149t-77.5 -117.5 t-117 -77.5t-146.5 -28t-146.5 28t-117 77.5t-77.5 117.5t-28 149t28 149t77.5 117.5t117 77.5t146.5 28t146.5 -28t117 -77.5t77.5 -117.5t28 -149z" unicode="Ȍ" horiz-adv-x="850"/>
<glyph glyph-name="odblgrave" d="M103 699h91l100 -144h-59zM257 699h91l100 -144h-59zM483 234q0 39 -12.5 73.5t-35.5 60t-56 40.5t-74 15t-73.5 -15t-55.5 -40.5t-35.5 -60t-12.5 -73.5t12.5 -73.5t35.5 -60t55.5 -40t73.5 -14.5t74 14.5t56 40t35.5 60t12.5 73.5zM555 234q0 -53 -18.5 -98t-51.5 -78 t-79 -51.5t-101 -18.5q-54 0 -100 18.5t-79 51.5t-51.5 78t-18.5 98t18.5 98t51.5 78t79 51.5t100 18.5q55 0 101 -18.5t79 -51.5t51.5 -78t18.5 -98z" unicode="ȍ" horiz-adv-x="611"/>
<glyph glyph-name="Oinvertedbreve" d="M528 801q-7 39 -36 58.5t-67 19.5t-67 -19.5t-36 -58.5h-44q4 63 44.5 97.5t102.5 34.5t102.5 -34.5t44.5 -97.5h-44zM718 354q0 62 -20 118t-58 98.5t-92.5 67.5t-122.5 25t-122.5 -25t-92.5 -67.5t-58 -98.5t-20 -118t20 -118t58 -98t92.5 -67t122.5 -25t122.5 25 t92.5 67t58 98t20 118zM794 354q0 -81 -28 -149t-77.5 -117.5t-117 -77.5t-146.5 -28t-146.5 28t-117 77.5t-77.5 117.5t-28 149t28 149t77.5 117.5t117 77.5t146.5 28t146.5 -28t117 -77.5t77.5 -117.5t28 -149z" unicode="Ȏ" horiz-adv-x="850"/>
<glyph glyph-name="oinvertedbreve" d="M408 555q-7 39 -36 58.5t-67 19.5t-67 -19.5t-36 -58.5h-44q4 63 44.5 97.5t102.5 34.5t102.5 -34.5t44.5 -97.5h-44zM483 234q0 39 -12.5 73.5t-35.5 60t-56 40.5t-74 15t-73.5 -15t-55.5 -40.5t-35.5 -60t-12.5 -73.5t12.5 -73.5t35.5 -60t55.5 -40t73.5 -14.5t74 14.5 t56 40t35.5 60t12.5 73.5zM555 234q0 -53 -18.5 -98t-51.5 -78t-79 -51.5t-101 -18.5q-54 0 -100 18.5t-79 51.5t-51.5 78t-18.5 98t18.5 98t51.5 78t79 51.5t100 18.5q55 0 101 -18.5t79 -51.5t51.5 -78t18.5 -98z" unicode="ȏ" horiz-adv-x="611"/>
<glyph glyph-name="Rdblgrave" d="M60 927h91l100 -144h-59zM214 927h91l100 -144h-59zM166 393h125q87 0 134 31.5t47 94.5q0 35 -13 59t-36 39t-56 22t-73 7h-128v-253zM166 0h-72v708h208q52 0 96.5 -10t77 -32.5t50.5 -58.5t18 -88q0 -39 -14 -71t-38 -55.5t-57 -37.5t-72 -18l207 -337h-88l-196 331 h-120v-331z" unicode="Ȑ" horiz-adv-x="599"/>
<glyph glyph-name="rdblgrave" d="M-3 699h91l100 -144h-59zM151 699h91l100 -144h-59zM90 365q0 19 -1 49t-3 54h65q2 -19 3 -42t1 -38h2q20 41 60 66.5t90 25.5q13 0 23.5 -1t21.5 -4l-9 -64q-6 2 -20 4t-28 2q-27 0 -52 -10t-43.5 -31.5t-30 -55t-11.5 -80.5v-240h-68v365z" unicode="ȑ" horiz-adv-x="360"/>
<glyph glyph-name="Rinvertedbreve" d="M395 783q-7 39 -36 58.5t-67 19.5t-67 -19.5t-36 -58.5h-44q4 63 44.5 97.5t102.5 34.5t102.5 -34.5t44.5 -97.5h-44zM166 393h125q87 0 134 31.5t47 94.5q0 35 -13 59t-36 39t-56 22t-73 7h-128v-253zM166 0h-72v708h208q52 0 96.5 -10t77 -32.5t50.5 -58.5t18 -88 q0 -39 -14 -71t-38 -55.5t-57 -37.5t-72 -18l207 -337h-88l-196 331h-120v-331z" unicode="Ȓ" horiz-adv-x="599"/>
<glyph glyph-name="rinvertedbreve" d="M322 555q-7 39 -36 58.5t-67 19.5t-67 -19.5t-36 -58.5h-44q4 63 44.5 97.5t102.5 34.5t102.5 -34.5t44.5 -97.5h-44zM90 365q0 19 -1 49t-3 54h65q2 -19 3 -42t1 -38h2q20 41 60 66.5t90 25.5q13 0 23.5 -1t21.5 -4l-9 -64q-6 2 -20 4t-28 2q-27 0 -52 -10t-43.5 -31.5 t-30 -55t-11.5 -80.5v-240h-68v365z" unicode="ȓ" horiz-adv-x="360"/>
<glyph glyph-name="Udblgrave" d="M123 927h91l100 -144h-59zM277 927h91l100 -144h-59zM355 -18q-80 0 -131 27.5t-81 69.5t-41.5 91.5t-11.5 93.5v444h72v-436q0 -43 10 -83.5t32.5 -72t59.5 -51t91 -19.5t91 19.5t59.5 51t32.5 72t10 83.5v436h72v-444q0 -44 -11.5 -93.5t-41.5 -91.5t-81.5 -69.5 t-130.5 -27.5z" unicode="Ȕ" horiz-adv-x="710"/>
<glyph glyph-name="udblgrave" d="M58 687h91l100 -144h-59zM212 687h91l100 -144h-59zM430 0q-2 19 -3 42t-1 38h-2q-20 -41 -65 -66.5t-95 -25.5q-89 0 -133.5 53t-44.5 140v287h68v-259q0 -37 6 -67t20.5 -51.5t39 -33.5t61.5 -12q27 0 52.5 11t45.5 33.5t32 57t12 81.5v240h68v-365q0 -19 1 -49t3 -54 h-65z" unicode="ȕ" horiz-adv-x="581"/>
<glyph glyph-name="Uinvertedbreve" d="M458 783q-7 39 -36 58.5t-67 19.5t-67 -19.5t-36 -58.5h-44q4 63 44.5 97.5t102.5 34.5t102.5 -34.5t44.5 -97.5h-44zM355 -18q-80 0 -131 27.5t-81 69.5t-41.5 91.5t-11.5 93.5v444h72v-436q0 -43 10 -83.5t32.5 -72t59.5 -51t91 -19.5t91 19.5t59.5 51t32.5 72t10 83.5 v436h72v-444q0 -44 -11.5 -93.5t-41.5 -91.5t-81.5 -69.5t-130.5 -27.5z" unicode="Ȗ" horiz-adv-x="710"/>
<glyph glyph-name="uinvertedbreve" d="M393 543q-7 39 -36 58.5t-67 19.5t-67 -19.5t-36 -58.5h-44q4 63 44.5 97.5t102.5 34.5t102.5 -34.5t44.5 -97.5h-44zM430 0q-2 19 -3 42t-1 38h-2q-20 -41 -65 -66.5t-95 -25.5q-89 0 -133.5 53t-44.5 140v287h68v-259q0 -37 6 -67t20.5 -51.5t39 -33.5t61.5 -12 q27 0 52.5 11t45.5 33.5t32 57t12 81.5v240h68v-365q0 -19 1 -49t3 -54h-65z" unicode="ȗ" horiz-adv-x="581"/>
<glyph glyph-name="Scommaaccent" d="M262 -230h-57l62 185h71zM437 594q-23 32 -59 51.5t-87 19.5q-26 0 -53 -8t-49 -24.5t-35.5 -41.5t-13.5 -59t13 -56t34.5 -37.5t49 -25.5t57.5 -20q37 -12 74.5 -26t67.5 -36.5t49 -57t19 -87.5t-20.5 -91.5t-53 -63.5t-74 -37t-83.5 -12q-32 0 -64 6.5t-61 19.5t-54 33 t-44 46l62 46q23 -38 64.5 -63.5t97.5 -25.5q27 0 55 8.5t50.5 26t37 43t14.5 59.5q0 37 -14.5 61.5t-38.5 41t-55 27.5t-65 22q-35 11 -69 25t-61 36.5t-43.5 55.5t-16.5 81q0 51 20.5 88t53.5 61t73 35t79 11q72 0 123 -25.5t77 -60.5z" unicode="Ș" horiz-adv-x="564"/>
<glyph glyph-name="scommaaccent" d="M197 -230h-57l62 185h71zM339 357q-15 29 -45.5 47.5t-69.5 18.5q-18 0 -36 -4t-32 -13t-22.5 -23t-8.5 -33q0 -33 27 -50.5t85 -29.5q83 -17 122.5 -49.5t39.5 -87.5q0 -40 -15.5 -67.5t-40.5 -45t-56.5 -25t-63.5 -7.5q-53 0 -103 22t-82 69l54 40q18 -31 53 -52 t77 -21q22 0 42 4t35 14t24 25.5t9 38.5q0 37 -35.5 55.5t-102.5 34.5q-21 5 -44.5 12.5t-43.5 22t-33 36.5t-13 55q0 36 14 61.5t37.5 42t53.5 24.5t62 8q49 0 95 -22t69 -62z" unicode="ș" horiz-adv-x="444"/>
<glyph glyph-name="uni021A" d="M262 -230h-57l62 185h71zM321 0h-72v644h-237v64h546v-64h-237v-644z" unicode="Ț" horiz-adv-x="570"/>
<glyph glyph-name="uni021B" d="M174 -230h-57l62 185h71zM301 411h-132v-273q0 -26 5 -43t14.5 -26.5t22.5 -13t28 -3.5q14 0 29.5 4t29.5 11l3 -59q-18 -7 -37.5 -10.5t-42.5 -3.5q-19 0 -40 5t-39 19t-29.5 38t-11.5 63v292h-97v57h97v132h68v-132h132v-57z" unicode="ț" horiz-adv-x="317"/>
<glyph glyph-name="Hcaron" d="M399 783h-80l-109 144h66l83 -108l83 108h66zM94 708h72v-307h386v307h72v-708h-72v335h-386v-335h-72v708z" unicode="Ȟ" horiz-adv-x="718"/>
<glyph glyph-name="hcaron" d="M167 831h-80l-109 144h66l83 -108l83 108h66zM162 391q19 41 63 65t94 24q89 0 133.5 -53t44.5 -140v-287h-68v259q0 37 -6 67t-20.5 51.5t-39 33.5t-61.5 12q-27 0 -52.5 -11t-45.5 -33.5t-32 -57t-12 -81.5v-240h-68v756h68v-365h2z" unicode="ȟ" horiz-adv-x="583"/>
<glyph glyph-name="Adotaccent" d="M403 831q0 -21 -15 -34.5t-33 -13.5t-33 13.5t-15 34.5t15 34.5t33 13.5t33 -13.5t15 -34.5zM193 252h312l-156 376zM89 0h-79l306 708h70l304 -708h-80l-78 186h-366z" unicode="Ȧ" horiz-adv-x="700"/>
<glyph glyph-name="adotaccent" d="M304 603q0 -21 -15 -34.5t-33 -13.5t-33 13.5t-15 34.5t15 34.5t33 13.5t33 -13.5t15 -34.5zM365 234q-42 0 -84.5 -3.5t-77 -14t-56.5 -30.5t-22 -53q0 -25 9.5 -42t25.5 -27.5t35.5 -15t39.5 -4.5q36 0 64 12.5t47 34t29 49.5t10 59v35h-20zM385 302q0 61 -32 91 t-93 30q-42 0 -78 -15t-61 -40l-38 45q29 29 76.5 48t107.5 19q38 0 71 -10.5t58 -31.5t39 -53t14 -75v-205q0 -27 2 -56t6 -49h-61q-3 17 -5 37t-2 39h-2q-32 -47 -72.5 -67.5t-97.5 -20.5q-27 0 -55.5 7.5t-52 24.5t-39 44t-15.5 66q0 54 27.5 85.5t73.5 47t105.5 20 t123.5 4.5v15z" unicode="ȧ" horiz-adv-x="534"/>
<glyph glyph-name="Ecedilla" d="M166 64h379v-64h-190l-47 -75q13 4 35 4q30 0 56 -18t26 -54q0 -25 -11 -42t-28 -27t-38 -14t-41 -4t-46.5 5t-47.5 15l16 36q17 -8 35 -11t37 -3q8 0 19 2t21 7.5t17 14t7 20.5q0 20 -14.5 29.5t-39.5 9.5q-22 0 -43 -8l-18 15l62 98h-218v708h439v-64h-367v-244h343 v-63h-343v-273z" unicode="Ȩ" horiz-adv-x="592"/>
<glyph glyph-name="ecedilla" d="M447 270q-3 66 -42.5 109.5t-112.5 43.5q-34 0 -63 -12.5t-51 -34t-35 -49t-15 -57.5h319zM516 248v-15t-1 -17h-388q1 -35 14 -66t36 -54t54 -36.5t67 -13.5q53 0 91.5 24.5t58.5 56.5l51 -40q-38 -48 -83 -71t-96 -27l-45 -76q13 4 35 4q30 0 56 -18t26 -54 q0 -25 -11 -42t-28 -27t-38 -14t-41 -4t-46.5 5t-47.5 15l16 36q17 -8 35 -11t37 -3q8 0 19 2t21 7.5t17 14t7 20.5q0 20 -14.5 29.5t-39.5 9.5q-22 0 -43 -8l-18 15l60 99q-48 4 -88.5 24t-70 52t-46 75.5t-16.5 93.5q0 53 18 98t50 78t75 51.5t93 18.5q55 0 97 -18.5 t70 -50t42.5 -73.5t14.5 -90z" unicode="ȩ"/>
<glyph glyph-name="Odieresismacron" d="M560 978h-270v54h270v-54zM470 852q0 20 14 35.5t37 15.5t37 -15.5t14 -35.5t-14 -35.5t-37 -15.5t-37 15.5t-14 35.5zM278 852q0 20 14 35.5t37 15.5t37 -15.5t14 -35.5t-14 -35.5t-37 -15.5t-37 15.5t-14 35.5zM718 354q0 62 -20 118t-58 98.5t-92.5 67.5t-122.5 25 t-122.5 -25t-92.5 -67.5t-58 -98.5t-20 -118t20 -118t58 -98t92.5 -67t122.5 -25t122.5 25t92.5 67t58 98t20 118zM794 354q0 -81 -28 -149t-77.5 -117.5t-117 -77.5t-146.5 -28t-146.5 28t-117 77.5t-77.5 117.5t-28 149t28 149t77.5 117.5t117 77.5t146.5 28t146.5 -28 t117 -77.5t77.5 -117.5t28 -149z" unicode="Ȫ" horiz-adv-x="850"/>
<glyph glyph-name="odieresismacron" d="M440 732h-270v54h270v-54zM350 606q0 20 14 35.5t37 15.5t37 -15.5t14 -35.5t-14 -35.5t-37 -15.5t-37 15.5t-14 35.5zM158 606q0 20 14 35.5t37 15.5t37 -15.5t14 -35.5t-14 -35.5t-37 -15.5t-37 15.5t-14 35.5zM483 234q0 39 -12.5 73.5t-35.5 60t-56 40.5t-74 15 t-73.5 -15t-55.5 -40.5t-35.5 -60t-12.5 -73.5t12.5 -73.5t35.5 -60t55.5 -40t73.5 -14.5t74 14.5t56 40t35.5 60t12.5 73.5zM555 234q0 -53 -18.5 -98t-51.5 -78t-79 -51.5t-101 -18.5q-54 0 -100 18.5t-79 51.5t-51.5 78t-18.5 98t18.5 98t51.5 78t79 51.5t100 18.5 q55 0 101 -18.5t79 -51.5t51.5 -78t18.5 -98z" unicode="ȫ" horiz-adv-x="611"/>
<glyph glyph-name="Otildemacron" d="M560 984h-270v54h270v-54zM263 801q3 19 9.5 38t17.5 33.5t26.5 23.5t38.5 9q18 0 36.5 -7t36.5 -16q18 -8 35 -15.5t32 -7.5q23 0 33.5 15.5t15.5 34.5h43q-3 -20 -9.5 -38.5t-17.5 -33t-27 -23.5t-38 -9q-18 0 -37 7t-36 16t-34 16t-33 7q-23 0 -33.5 -15.5 t-15.5 -34.5h-43zM718 354q0 62 -20 118t-58 98.5t-92.5 67.5t-122.5 25t-122.5 -25t-92.5 -67.5t-58 -98.5t-20 -118t20 -118t58 -98t92.5 -67t122.5 -25t122.5 25t92.5 67t58 98t20 118zM794 354q0 -81 -28 -149t-77.5 -117.5t-117 -77.5t-146.5 -28t-146.5 28t-117 77.5 t-77.5 117.5t-28 149t28 149t77.5 117.5t117 77.5t146.5 28t146.5 -28t117 -77.5t77.5 -117.5t28 -149z" unicode="Ȭ" horiz-adv-x="850"/>
<glyph glyph-name="otildemacron" d="M440 738h-270v54h270v-54zM143 555q3 19 9.5 38t17.5 33.5t26.5 23.5t38.5 9q18 0 36.5 -7t36.5 -16q18 -8 35 -15.5t32 -7.5q23 0 33.5 15.5t15.5 34.5h43q-3 -20 -9.5 -38.5t-17.5 -33t-27 -23.5t-38 -9q-18 0 -37 7t-36 16t-34 16t-33 7q-23 0 -33.5 -15.5 t-15.5 -34.5h-43zM483 234q0 39 -12.5 73.5t-35.5 60t-56 40.5t-74 15t-73.5 -15t-55.5 -40.5t-35.5 -60t-12.5 -73.5t12.5 -73.5t35.5 -60t55.5 -40t73.5 -14.5t74 14.5t56 40t35.5 60t12.5 73.5zM555 234q0 -53 -18.5 -98t-51.5 -78t-79 -51.5t-101 -18.5q-54 0 -100 18.5 t-79 51.5t-51.5 78t-18.5 98t18.5 98t51.5 78t79 51.5t100 18.5q55 0 101 -18.5t79 -51.5t51.5 -78t18.5 -98z" unicode="ȭ" horiz-adv-x="611"/>
<glyph glyph-name="Odotaccent" d="M473 849q0 -21 -15 -34.5t-33 -13.5t-33 13.5t-15 34.5t15 34.5t33 13.5t33 -13.5t15 -34.5zM718 354q0 62 -20 118t-58 98.5t-92.5 67.5t-122.5 25t-122.5 -25t-92.5 -67.5t-58 -98.5t-20 -118t20 -118t58 -98t92.5 -67t122.5 -25t122.5 25t92.5 67t58 98t20 118z M794 354q0 -81 -28 -149t-77.5 -117.5t-117 -77.5t-146.5 -28t-146.5 28t-117 77.5t-77.5 117.5t-28 149t28 149t77.5 117.5t117 77.5t146.5 28t146.5 -28t117 -77.5t77.5 -117.5t28 -149z" unicode="Ȯ" horiz-adv-x="850"/>
<glyph glyph-name="odotaccent" d="M353 603q0 -21 -15 -34.5t-33 -13.5t-33 13.5t-15 34.5t15 34.5t33 13.5t33 -13.5t15 -34.5zM483 234q0 39 -12.5 73.5t-35.5 60t-56 40.5t-74 15t-73.5 -15t-55.5 -40.5t-35.5 -60t-12.5 -73.5t12.5 -73.5t35.5 -60t55.5 -40t73.5 -14.5t74 14.5t56 40t35.5 60 t12.5 73.5zM555 234q0 -53 -18.5 -98t-51.5 -78t-79 -51.5t-101 -18.5q-54 0 -100 18.5t-79 51.5t-51.5 78t-18.5 98t18.5 98t51.5 78t79 51.5t100 18.5q55 0 101 -18.5t79 -51.5t51.5 -78t18.5 -98z" unicode="ȯ" horiz-adv-x="611"/>
<glyph glyph-name="Odotaccentmacron" d="M560 972h-270v54h270v-54zM473 849q0 -21 -15 -34.5t-33 -13.5t-33 13.5t-15 34.5t15 34.5t33 13.5t33 -13.5t15 -34.5zM718 354q0 62 -20 118t-58 98.5t-92.5 67.5t-122.5 25t-122.5 -25t-92.5 -67.5t-58 -98.5t-20 -118t20 -118t58 -98t92.5 -67t122.5 -25t122.5 25 t92.5 67t58 98t20 118zM794 354q0 -81 -28 -149t-77.5 -117.5t-117 -77.5t-146.5 -28t-146.5 28t-117 77.5t-77.5 117.5t-28 149t28 149t77.5 117.5t117 77.5t146.5 28t146.5 -28t117 -77.5t77.5 -117.5t28 -149z" unicode="Ȱ" horiz-adv-x="850"/>
<glyph glyph-name="odotaccentmacron" d="M440 726h-270v54h270v-54zM353 603q0 -21 -15 -34.5t-33 -13.5t-33 13.5t-15 34.5t15 34.5t33 13.5t33 -13.5t15 -34.5zM483 234q0 39 -12.5 73.5t-35.5 60t-56 40.5t-74 15t-73.5 -15t-55.5 -40.5t-35.5 -60t-12.5 -73.5t12.5 -73.5t35.5 -60t55.5 -40t73.5 -14.5 t74 14.5t56 40t35.5 60t12.5 73.5zM555 234q0 -53 -18.5 -98t-51.5 -78t-79 -51.5t-101 -18.5q-54 0 -100 18.5t-79 51.5t-51.5 78t-18.5 98t18.5 98t51.5 78t79 51.5t100 18.5q55 0 101 -18.5t79 -51.5t51.5 -78t18.5 -98z" unicode="ȱ" horiz-adv-x="611"/>
<glyph glyph-name="Ymacron" d="M436 783h-270v54h270v-54zM337 0h-72v305l-265 403h90l213 -343l215 343h84l-265 -403v-305z" unicode="Ȳ" horiz-adv-x="602"/>
<glyph glyph-name="ymacron" d="M376 543h-270v54h270v-54zM251 73h2l145 395h74l-233 -589q-21 -54 -53.5 -86.5t-93.5 -32.5q-31 0 -61 6l7 62q24 -8 50 -8q35 0 55 21.5t35 61.5l38 98l-200 467h76z" unicode="ȳ" horiz-adv-x="488"/>
<glyph glyph-name="dotlessj" d="M-17 -176q10 -3 21.5 -4.5t21.5 -1.5q21 0 34 7.5t20 20.5t9.5 31.5t2.5 40.5v550h68v-561q0 -28 -6 -54.5t-21 -47t-40.5 -33t-65.5 -12.5q-11 0 -26 1.5t-28 5.5z" unicode="ȷ" horiz-adv-x="251"/>
<glyph glyph-name="commaturnedmod" d="M123 708h57l-67 -235h-71z" unicode="ʻ" horiz-adv-x="222"/>
<glyph glyph-name="afii57929" d="M99 473h-57l67 235h71z" unicode="ʼ" horiz-adv-x="222"/>
<glyph glyph-name="circumflex" d="M269 564h-66l-83 108l-83 -108h-66l109 144h80z" unicode="ˆ" horiz-adv-x="240"/>
<glyph glyph-name="caron" d="M160 564h-80l-109 144h66l83 -108l83 108h66z" unicode="ˇ" horiz-adv-x="240"/>
<glyph glyph-name="uni02C9" d="M255 800h-270v54h270v-54z" unicode="ˉ" horiz-adv-x="240"/>
<glyph glyph-name="breve" d="M267 708q-4 -63 -44.5 -97.5t-102.5 -34.5t-102.5 34.5t-44.5 97.5h44q7 -39 36 -58.5t67 -19.5t67 19.5t36 58.5h44z" unicode="˘" horiz-adv-x="240"/>
<glyph glyph-name="dotaccent" d="M168 648q0 -21 -15 -34.5t-33 -13.5t-33 13.5t-15 34.5t15 34.5t33 13.5t33 -13.5t15 -34.5z" unicode="˙" horiz-adv-x="240"/>
<glyph glyph-name="ring" d="M180 650q0 25 -17.5 42t-42.5 17t-42.5 -17t-17.5 -42t17.5 -42t42.5 -17t42.5 17t17.5 42zM216 650q0 -20 -7.5 -37.5t-21 -30.5t-31 -20t-36.5 -7q-20 0 -37 7t-30.5 20t-21 30.5t-7.5 37.5t7.5 37.5t21 30t30.5 20t37 7.5q19 0 36.5 -7.5t31 -20t21 -30t7.5 -37.5z " unicode="˚" horiz-adv-x="240"/>
<glyph glyph-name="ogonek" d="M210 -187q-17 -17 -41 -26.5t-49 -9.5q-18 0 -34 6t-28.5 17.5t-20 27t-7.5 34.5q0 21 8 40.5t21 37t29 33t31 27.5h48q-37 -37 -57 -64.5t-20 -56.5q0 -21 15 -34.5t35 -13.5q14 0 27.5 5.5t23.5 16.5z" unicode="˛" horiz-adv-x="240"/>
<glyph glyph-name="tilde" d="M-42 576q3 19 9.5 38t17.5 33.5t26.5 23.5t38.5 9q18 0 36.5 -7t36.5 -16q18 -8 35 -15.5t32 -7.5q23 0 33.5 15.5t15.5 34.5h43q-3 -20 -9.5 -38.5t-17.5 -33t-27 -23.5t-38 -9q-18 0 -37 7t-36 16t-34 16t-33 7q-23 0 -33.5 -15.5t-15.5 -34.5h-43z" unicode="˜" horiz-adv-x="240"/>
<glyph glyph-name="hungarumlaut" d="M169 564h-59l100 144h91zM-2 564h-59l101 144h91z" unicode="˝" horiz-adv-x="240"/>
<glyph glyph-name="uni02EE" d="M99 473h-57l67 235h71zM264 473h-57l67 235h71z" unicode="ˮ" horiz-adv-x="387"/>
<glyph glyph-name="gravecmb" d="M-240 708h91l100 -144h-59z" unicode="̀" horiz-adv-x="0"/>
<glyph glyph-name="acutecmb" d="M-181 564h-59l100 144h91z" unicode="́" horiz-adv-x="0"/>
<glyph glyph-name="circumflexcmb" d="M58 564h-66l-83 108l-83 -108h-66l109 144h80z" unicode="̂" horiz-adv-x="0"/>
<glyph glyph-name="tildecmb" d="M-240 576q3 19 9.5 38t17.5 33.5t26.5 23.5t38.5 9q18 0 36.5 -7t36.5 -16q18 -8 35 -15.5t32 -7.5q23 0 33.5 15.5t15.5 34.5h43q-3 -20 -9.5 -38.5t-17.5 -33t-27 -23.5t-38 -9q-18 0 -37 7t-36 16t-34 16t-33 7q-23 0 -33.5 -15.5t-15.5 -34.5h-43z" unicode="̃" horiz-adv-x="0"/>
<glyph glyph-name="macroncmb" d="M30 600h-270v54h270v-54z" unicode="̄" horiz-adv-x="0"/>
<glyph glyph-name="brevecmb" d="M54 708q-4 -63 -44.5 -97.5t-102.5 -34.5t-102.5 34.5t-44.5 97.5h44q7 -39 36 -58.5t67 -19.5t67 19.5t36 58.5h44z" unicode="̆" horiz-adv-x="0"/>
<glyph glyph-name="dotaccentcmb" d="M-144 648q0 -21 -15 -34.5t-33 -13.5t-33 13.5t-15 34.5t15 34.5t33 13.5t33 -13.5t15 -34.5z" unicode="̇" horiz-adv-x="0"/>
<glyph glyph-name="dieresiscmb" d="M-48 647q0 20 14 35.5t37 15.5t37 -15.5t14 -35.5t-14 -35.5t-37 -15.5t-37 15.5t-14 35.5zM-240 647q0 20 14 35.5t37 15.5t37 -15.5t14 -35.5t-14 -35.5t-37 -15.5t-37 15.5t-14 35.5z" unicode="̈" horiz-adv-x="0"/>
<glyph glyph-name="hookabovecomb" d="M92 555q0 22 9 37t35 28q18 9 25.5 20t7.5 24q0 18 -11.5 29t-33.5 11t-35 -11.5t-17 -40.5l-53 7q8 44 36 65t71 21q45 0 70 -22.5t25 -56.5q0 -52 -49 -74q-18 -8 -24.5 -17t-6.5 -20h-49z" unicode="̉" horiz-adv-x="240"/>
<glyph glyph-name="ringcmb" d="M-84 650q0 25 -17.5 42t-42.5 17t-42.5 -17t-17.5 -42t17.5 -42t42.5 -17t42.5 17t17.5 42zM-48 650q0 -20 -7.5 -37.5t-21 -30.5t-31 -20t-36.5 -7q-20 0 -37 7t-30.5 20t-21 30.5t-7.5 37.5t7.5 37.5t21 30t30.5 20t37 7.5q19 0 36.5 -7.5t31 -20t21 -30t7.5 -37.5z " unicode="̊" horiz-adv-x="0"/>
<glyph glyph-name="hungarumlautcmb" d="M-10 564h-59l100 144h91zM-181 564h-59l101 144h91z" unicode="̋" horiz-adv-x="0"/>
<glyph glyph-name="caroncmb" d="M-51 564h-80l-109 144h66l83 -108l83 108h66z" unicode="̌" horiz-adv-x="0"/>
<glyph glyph-name="doublegravecmb" d="M-394 708h91l100 -144h-59zM-240 708h91l100 -144h-59z" unicode="̏" horiz-adv-x="0"/>
<glyph glyph-name="invertedbrevecmb" d="M-44 576q-7 39 -36 58.5t-67 19.5t-67 -19.5t-36 -58.5h-44q4 63 44.5 97.5t102.5 34.5t102.5 -34.5t44.5 -97.5h-44z" unicode="̑" horiz-adv-x="0"/>
<glyph glyph-name="horncmb" d="M-169 468q39 0 57 18t18 52q0 14 -4 30t-11 27l59 16q14 -30 14 -73q0 -57 -33 -87t-91 -30q-18 -1 -34 3t-29 9q-15 5 -27 13l2 22h79z" unicode="̛" horiz-adv-x="0"/>
<glyph glyph-name="dotbelowcmb" d="M-152 -124q0 -21 -15 -37.5t-39 -16.5t-39 16.5t-15 37.5t15 37.5t39 16.5t39 -16.5t15 -37.5z" unicode="̣" horiz-adv-x="0"/>
<glyph glyph-name="dieresisbelowcmb" d="M-48 -121q0 20 14 35.5t37 15.5t37 -15.5t14 -35.5t-14 -35.5t-37 -15.5t-37 15.5t-14 35.5zM-240 -121q0 20 14 35.5t37 15.5t37 -15.5t14 -35.5t-14 -35.5t-37 -15.5t-37 15.5t-14 35.5z" unicode="̤" horiz-adv-x="0"/>
<glyph glyph-name="ringbelowcmb" d="M-84 -165q0 25 -17.5 42t-42.5 17t-42.5 -17t-17.5 -42t17.5 -42t42.5 -17t42.5 17t17.5 42zM-48 -165q0 -20 -7.5 -37.5t-21 -30.5t-31 -20t-36.5 -7q-20 0 -37 7t-30.5 20t-21 30.5t-7.5 37.5t7.5 37.5t21 30t30.5 20t37 7.5q19 0 36.5 -7.5t31 -20t21 -30t7.5 -37.5z " unicode="̥" horiz-adv-x="0"/>
<glyph glyph-name="commabelowcmb" d="M-203 -305h-57l67 235h71z" unicode="̦" horiz-adv-x="0"/>
<glyph glyph-name="cedillacmb" d="M-145 -75q13 4 35 4q30 0 56 -18t26 -54q0 -25 -11 -42t-28 -27t-38 -14t-41 -4t-46.5 5t-47.5 15l16 36q17 -8 35 -11t37 -3q8 0 19 2t21 7.5t17 14t7 20.5q0 20 -14.5 29.5t-39.5 9.5q-22 0 -43 -8l-18 15l62 98h43z" unicode="̧" horiz-adv-x="0"/>
<glyph glyph-name="ogonekcmb" d="M-60 -187q-17 -17 -41 -26.5t-49 -9.5q-18 0 -34 6t-28.5 17.5t-20 27t-7.5 34.5q0 21 8 40.5t21 37t29 33t31 27.5h48q-37 -37 -57 -64.5t-20 -56.5q0 -21 15 -34.5t35 -13.5q14 0 27.5 5.5t23.5 16.5z" unicode="̨" horiz-adv-x="0"/>
<glyph glyph-name="circumflexbelowcmb" d="M58 -214h-66l-83 108l-83 -108h-66l109 144h80z" unicode="̭" horiz-adv-x="0"/>
<glyph glyph-name="brevebelowcmb" d="M54 -70q-4 -63 -44.5 -97.5t-102.5 -34.5t-102.5 34.5t-44.5 97.5h44q7 -39 36 -58.5t67 -19.5t67 19.5t36 58.5h44z" unicode="̮" horiz-adv-x="0"/>
<glyph glyph-name="tildebelowcmb" d="M-240 -178q3 19 9.5 38t17.5 33.5t26.5 23.5t38.5 9q18 0 36.5 -7t36.5 -16q18 -8 35 -15.5t32 -7.5q23 0 33.5 15.5t15.5 34.5h43q-3 -20 -9.5 -38.5t-17.5 -33t-27 -23.5t-38 -9q-18 0 -37 7t-36 16t-34 16t-33 7q-23 0 -33.5 -15.5t-15.5 -34.5h-43z" unicode="̰" horiz-adv-x="0"/>
<glyph glyph-name="macronbelowcmb" d="M30 -124h-270v54h270v-54z" unicode="̱" horiz-adv-x="0"/>
<glyph glyph-name="gravetonecmb" d="M-240 708h91l100 -144h-59z" unicode="̀" horiz-adv-x="0"/>
<glyph glyph-name="acutetonecmb" d="M-181 564h-59l100 144h91z" unicode="́" horiz-adv-x="0"/>
<glyph glyph-name="dialytikatonoscmb" d="M-129 773h-59l100 144h91zM-48 647q0 20 14 35.5t37 15.5t37 -15.5t14 -35.5t-14 -35.5t-37 -15.5t-37 15.5t-14 35.5zM-240 647q0 20 14 35.5t37 15.5t37 -15.5t14 -35.5t-14 -35.5t-37 -15.5t-37 15.5t-14 35.5z" unicode="̈́" horiz-adv-x="0"/>
<glyph glyph-name="combininggraphemejoiner" unicode="͏" horiz-adv-x="0"/>
<glyph glyph-name="uni037E" d="M118 -140h-60l67 235h74zM204 420q0 -21 -15 -37.5t-39 -16.5t-39 16.5t-15 37.5t15 37.5t39 16.5t39 -16.5t15 -37.5z" unicode=";" horiz-adv-x="300"/>
<glyph glyph-name="u0384" d="M96 708h67l-10 -173h-46z" unicode="΄" horiz-adv-x="260"/>
<glyph glyph-name="u0385" d="M93 735h67l-10 -203h-46zM213 571q0 17 12.5 31t32.5 14t32.5 -14t12.5 -31t-12.5 -31t-32.5 -14t-32.5 14t-12.5 31zM-48 571q0 17 12.5 31t32.5 14t32.5 -14t12.5 -31t-12.5 -31t-32.5 -14t-32.5 14t-12.5 31z" unicode="΅" horiz-adv-x="240"/>
<glyph glyph-name="u0386" d="M193 252h312l-156 376zM89 0h-79l306 708h70l304 -708h-80l-78 186h-366zM76 748h67l-10 -173h-46z" unicode="Ά" horiz-adv-x="700"/>
<glyph glyph-name="anoteleia" d="M184 314q0 -21 -15 -37.5t-39 -16.5t-39 16.5t-15 37.5t15 37.5t39 16.5t39 -16.5t15 -37.5z" unicode="·" horiz-adv-x="260"/>
<glyph glyph-name="u0388" d="M222 64h379v-64h-451v708h439v-64h-367v-244h343v-63h-343v-273zM0 748h67l-10 -173h-46z" unicode="Έ" horiz-adv-x="648"/>
<glyph glyph-name="u0389" d="M128 708h72v-307h386v307h72v-708h-72v335h-386v-335h-72v708zM0 748h67l-10 -173h-46z" unicode="Ή" horiz-adv-x="752"/>
<glyph glyph-name="u038A" d="M209 0h-72v708h72v-708zM0 748h67l-10 -173h-46z" unicode="Ί" horiz-adv-x="304"/>
<glyph glyph-name="u038C" d="M738 354q0 62 -20 118t-58 98.5t-92.5 67.5t-122.5 25t-122.5 -25t-92.5 -67.5t-58 -98.5t-20 -118t20 -118t58 -98t92.5 -67t122.5 -25t122.5 25t92.5 67t58 98t20 118zM814 354q0 -81 -28 -149t-77.5 -117.5t-117 -77.5t-146.5 -28t-146.5 28t-117 77.5t-77.5 117.5 t-28 149t28 149t77.5 117.5t117 77.5t146.5 28t146.5 -28t117 -77.5t77.5 -117.5t28 -149zM0 748h67l-10 -173h-46z" unicode="Ό" horiz-adv-x="870"/>
<glyph glyph-name="u038E" d="M452 0h-72v305l-265 403h90l213 -343l215 343h84l-265 -403v-305zM0 748h67l-10 -173h-46z" unicode="Ύ" horiz-adv-x="717"/>
<glyph glyph-name="u038F" d="M485 0v190q96 16 150 76t54 149q0 59 -19.5 104t-54 75.5t-82 46t-103.5 15.5t-103 -15.5t-81 -46t-53.5 -75.5t-19.5 -104q0 -94 54.5 -152.5t150.5 -72.5v-190h-266v66h201v76q-51 11 -91.5 36t-68 61t-42 81t-14.5 96q0 72 27 128.5t72.5 95t106.5 59t129 20.5 t128.5 -20.5t106 -59t72 -94.5t26.5 -128q0 -48 -15 -92.5t-43 -81.5t-68 -63.5t-90 -37.5v-76h201v-66h-265zM0 748h67l-10 -173h-46z" unicode="Ώ" horiz-adv-x="809"/>
<glyph glyph-name="u0390" d="M159 0h-68v468h68v-468zM93 735h67l-10 -203h-46zM213 571q0 17 12.5 31t32.5 14t32.5 -14t12.5 -31t-12.5 -31t-32.5 -14t-32.5 14t-12.5 31zM-48 571q0 17 12.5 31t32.5 14t32.5 -14t12.5 -31t-12.5 -31t-32.5 -14t-32.5 14t-12.5 31z" unicode="ΐ" horiz-adv-x="250"/>
<glyph glyph-name="u0391" d="M193 252h312l-156 376zM89 0h-79l306 708h70l304 -708h-80l-78 186h-366z" unicode="Α" horiz-adv-x="700"/>
<glyph glyph-name="u0392" d="M166 62h134q39 0 74.5 7.5t62 24t42.5 43t16 63.5q0 70 -47.5 104.5t-134.5 34.5h-147v-277zM166 398h145q26 0 52.5 6t48.5 20.5t35.5 38.5t13.5 59q0 34 -13.5 57.5t-36.5 38.5t-54 21.5t-66 6.5h-125v-248zM94 708h211q40 0 81 -8.5t73.5 -29t53 -55.5t20.5 -88 q0 -56 -34 -97.5t-91 -54.5v-2q69 -8 114.5 -53.5t45.5 -123.5q0 -44 -18.5 -80.5t-52.5 -62t-83 -39.5t-110 -14h-210v708z" unicode="Β" horiz-adv-x="636"/>
<glyph glyph-name="u0393" d="M166 0h-72v708h402v-64h-330v-644z" unicode="Γ" horiz-adv-x="508"/>
<glyph glyph-name="u0394" d="M337 631l-226 -569h455zM31 0v52l270 656h74l276 -656v-52h-620z" unicode="Δ" horiz-adv-x="682"/>
<glyph glyph-name="u0395" d="M166 64h379v-64h-451v708h439v-64h-367v-244h343v-63h-343v-273z" unicode="Ε" horiz-adv-x="592"/>
<glyph glyph-name="u0396" d="M535 648l-413 -584h419v-64h-510v60l414 584h-403v64h493v-60z" unicode="Ζ"/>
<glyph glyph-name="u0397" d="M94 708h72v-307h386v307h72v-708h-72v335h-386v-335h-72v708z" unicode="Η" horiz-adv-x="718"/>
<glyph glyph-name="u0398" d="M718 354q0 62 -20 118t-58 98.5t-92.5 67.5t-122.5 25t-122.5 -25t-92.5 -67.5t-58 -98.5t-20 -118t20 -118t58 -98t92.5 -67t122.5 -25t122.5 25t92.5 67t58 98t20 118zM794 354q0 -81 -28 -149t-77.5 -117.5t-117 -77.5t-146.5 -28t-146.5 28t-117 77.5t-77.5 117.5 t-28 149t28 149t77.5 117.5t117 77.5t146.5 28t146.5 -28t117 -77.5t77.5 -117.5t28 -149zM634 392v-66h-417v66h417z" unicode="Θ" horiz-adv-x="850"/>
<glyph glyph-name="u0399" d="M166 0h-72v708h72v-708z" unicode="Ι" horiz-adv-x="260"/>
<glyph glyph-name="u039A" d="M166 390h1l337 318h103l-357 -321l377 -387h-106l-354 377h-1v-377h-72v708h72v-318z" unicode="Κ" horiz-adv-x="628"/>
<glyph glyph-name="u039B" d="M89 0h-79l306 708h70l304 -708h-80l-261 618z" unicode="Λ" horiz-adv-x="700"/>
<glyph glyph-name="u039C" d="M444 122h1l237 586h110v-708h-72v615h-2l-256 -615h-38l-256 615h-2v-615h-72v708h110z" unicode="Μ" horiz-adv-x="886"/>
<glyph glyph-name="u039D" d="M596 105h2v603h72v-708h-90l-412 609h-2v-609h-72v708h90z" unicode="Ν" horiz-adv-x="764"/>
<glyph glyph-name="u039E" d="M541 66v-66h-494v66h494zM505 402v-66h-437v66h437zM529 708v-66h-482v66h482z" unicode="Ξ" horiz-adv-x="588"/>
<glyph glyph-name="u039F" d="M718 354q0 62 -20 118t-58 98.5t-92.5 67.5t-122.5 25t-122.5 -25t-92.5 -67.5t-58 -98.5t-20 -118t20 -118t58 -98t92.5 -67t122.5 -25t122.5 25t92.5 67t58 98t20 118zM794 354q0 -81 -28 -149t-77.5 -117.5t-117 -77.5t-146.5 -28t-146.5 28t-117 77.5t-77.5 117.5 t-28 149t28 149t77.5 117.5t117 77.5t146.5 28t146.5 -28t117 -77.5t77.5 -117.5t28 -149z" unicode="Ο" horiz-adv-x="850"/>
<glyph glyph-name="u03A0" d="M604 708v-708h-72v642h-366v-642h-72v708h510z" unicode="Π" horiz-adv-x="698"/>
<glyph glyph-name="u03A1" d="M166 390h122q85 0 129 33t44 96q0 66 -45.5 96.5t-127.5 30.5h-122v-256zM94 708h200q54 0 98 -11.5t75.5 -35t48.5 -59t17 -83.5t-17.5 -83.5t-49 -59t-76 -35.5t-98.5 -12h-126v-329h-72v708z" unicode="Ρ" horiz-adv-x="580"/>
<glyph glyph-name="u03A3" d="M54 0v45l324 309v6l-324 302v46h492v-64h-377l311 -286v-5l-304 -289h382v-64h-504z" unicode="Σ" horiz-adv-x="605"/>
<glyph glyph-name="u03A4" d="M321 0h-72v644h-237v64h546v-64h-237v-644z" unicode="Τ" horiz-adv-x="570"/>
<glyph glyph-name="u03A5" d="M337 0h-72v305l-265 403h90l213 -343l215 343h84l-265 -403v-305z" unicode="Υ" horiz-adv-x="602"/>
<glyph glyph-name="u03A6" d="M712 354q0 51 -17.5 95.5t-50.5 78.5t-80.5 55.5t-107.5 27.5v-513q60 5 107.5 26.5t80.5 55.5t50.5 78.5t17.5 95.5zM126 354q0 -51 17.5 -96t51 -79t81.5 -55.5t108 -26.5v514q-60 -5 -108 -26.5t-81.5 -56t-51 -79t-17.5 -95.5zM456 674q72 -5 133 -30t105 -66.5 t69 -98t25 -125.5t-25 -126t-69 -98.5t-105 -66.5t-133 -30v-84h-72v84q-72 5 -133.5 30t-106 66.5t-69.5 98.5t-25 126t25 126t69.5 98.5t106 66t133.5 29.5v78h72v-78z" unicode="Φ" horiz-adv-x="838"/>
<glyph glyph-name="u03A7" d="M326 422l193 286h86l-235 -337l260 -371h-90l-216 319l-215 -319h-90l260 372l-237 336h90z" unicode="Χ" horiz-adv-x="649"/>
<glyph glyph-name="u03A8" d="M459 218h25q40 0 77.5 11t66.5 35t46 61.5t17 90.5v292h72v-296q0 -64 -22.5 -112t-61.5 -80t-90.5 -48t-109.5 -16h-20v-156h-72v156h-30q-58 0 -108 16t-86.5 48t-57.5 80t-21 112v296h72v-292q0 -53 17 -90.5t45 -61.5t65 -35t78 -11h26v490h72v-490z" unicode="Ψ" horiz-adv-x="847"/>
<glyph glyph-name="u03A9" d="M432 0v190q96 16 150 76t54 149q0 59 -19.5 104t-54 75.5t-82 46t-103.5 15.5t-103 -15.5t-81 -46t-53.5 -75.5t-19.5 -104q0 -94 54.5 -152.5t150.5 -72.5v-190h-266v66h201v76q-51 11 -91.5 36t-68 61t-42 81t-14.5 96q0 72 27 128.5t72.5 95t106.5 59t129 20.5 t128.5 -20.5t106 -59t72 -94.5t26.5 -128q0 -48 -15 -92.5t-43 -81.5t-68 -63.5t-90 -37.5v-76h201v-66h-265z" unicode="Ω" horiz-adv-x="756"/>
<glyph glyph-name="u03AA" d="M175 847q0 20 14 35.5t37 15.5t37 -15.5t14 -35.5t-14 -35.5t-37 -15.5t-37 15.5t-14 35.5zM-17 847q0 20 14 35.5t37 15.5t37 -15.5t14 -35.5t-14 -35.5t-37 -15.5t-37 15.5t-14 35.5zM166 0h-72v708h72v-708z" unicode="Ϊ" horiz-adv-x="260"/>
<glyph glyph-name="u03AB" d="M348 847q0 20 14 35.5t37 15.5t37 -15.5t14 -35.5t-14 -35.5t-37 -15.5t-37 15.5t-14 35.5zM156 847q0 20 14 35.5t37 15.5t37 -15.5t14 -35.5t-14 -35.5t-37 -15.5t-37 15.5t-14 35.5zM337 0h-72v305l-265 403h90l213 -343l215 343h84l-265 -403v-305z" unicode="Ϋ" horiz-adv-x="602"/>
<glyph glyph-name="u03AC" d="M127 234q0 -39 12 -73.5t34.5 -60t55.5 -40t75 -14.5q39 0 72 14.5t57 39.5t37.5 59.5t13.5 74.5t-13.5 74.5t-37.5 60t-57 40t-72 14.5q-42 0 -75 -15t-55.5 -40.5t-34.5 -60t-12 -73.5zM474 79q-30 -45 -78 -68t-99 -23q-55 0 -99.5 19t-76 52t-49 78t-17.5 97t17.5 97 t49 78t76 52t99.5 19q51 0 99 -23.5t78 -69.5h2v81h68v-468h-68v79h-2zM296 735h67l-10 -173h-46z" unicode="ά" horiz-adv-x="630"/>
<glyph glyph-name="u03AD" d="M276 735l-10 -173h-46l-11 173h67zM393 360q-10 18 -28 33q-16 13 -42 23.5t-64 10.5q-24 0 -48.5 -5t-44 -15t-31.5 -26t-12 -37t11 -36t30.5 -24.5t45.5 -14.5t56 -5h103v-56h-127q-71 0 -103 -23.5t-32 -58.5q0 -20 12.5 -35t32.5 -25t46.5 -15t54.5 -5 q45 0 77.5 10.5t52.5 23.5q24 15 39 34l42 -38q-19 -25 -50 -44q-26 -17 -67 -30.5t-100 -13.5q-45 0 -83.5 9.5t-67.5 27.5t-45.5 42.5t-16.5 54.5q0 31 13 52.5t32 35t41.5 20t40.5 8.5v2q-19 2 -38.5 9.5t-35.5 21t-26 33t-10 43.5q0 31 16.5 56t45 43t66 28t78.5 10 q55 0 91.5 -14.5t58.5 -31.5q26 -20 39 -46z" unicode="έ" horiz-adv-x="474"/>
<glyph glyph-name="u03AE" d="M151 468q2 -19 3 -42t1 -38h2q10 20 27.5 37t40 29t48 19t50.5 7q89 0 136.5 -53t47.5 -140v-527h-68v499q0 37 -6 67t-21 51.5t-41 33.5t-65 12q-31 0 -58 -11t-47 -33.5t-31.5 -57t-11.5 -81.5v-240h-68v365q0 19 -1 49t-3 54h65zM268 735h67l-10 -173h-46z" unicode="ή" horiz-adv-x="597"/>
<glyph glyph-name="u03AF" d="M82 735h67l-10 -173h-46zM149 0h-68v468h68v-468z" unicode="ί" horiz-adv-x="239"/>
<glyph glyph-name="u03B0" d="M255 735h67l-10 -203h-46zM375 571q0 17 12.5 31t32.5 14t32.5 -14t12.5 -31t-12.5 -31t-32.5 -14t-32.5 14t-12.5 31zM114 571q0 17 12.5 31t32.5 14t32.5 -14t12.5 -31t-12.5 -31t-32.5 -14t-32.5 14t-12.5 31zM289 -11q-54 0 -92.5 18t-63 47.5t-36 67t-11.5 77.5v269 h68v-264q0 -29 7 -56.5t23 -50t42 -36t64 -13.5q37 0 63 13.5t42.5 36t23.5 50t7 56.5v264h68v-269q0 -40 -12 -77.5t-37 -67t-63.5 -47.5t-92.5 -18z" unicode="ΰ" horiz-adv-x="580"/>
<glyph glyph-name="u03B1" d="M127 234q0 -39 12 -73.5t34.5 -60t55.5 -40t75 -14.5q39 0 72 14.5t57 39.5t37.5 59.5t13.5 74.5t-13.5 74.5t-37.5 60t-57 40t-72 14.5q-42 0 -75 -15t-55.5 -40.5t-34.5 -60t-12 -73.5zM474 79q-30 -45 -78 -68t-99 -23q-55 0 -99.5 19t-76 52t-49 78t-17.5 97t17.5 97 t49 78t76 52t99.5 19q51 0 99 -23.5t78 -69.5h2v81h68v-468h-68v79h-2z" unicode="α" horiz-adv-x="630"/>
<glyph glyph-name="u03B2" d="M162 529v-318q0 -41 14 -72t38 -51.5t55 -31t64 -10.5q34 0 64.5 11t53.5 31.5t36 50.5t13 69q0 79 -52.5 121t-136.5 42h-69v54h59q55 0 91 35t36 98q0 32 -10.5 58.5t-28.5 45.5t-42.5 29.5t-53.5 10.5q-57 0 -94 -42.5t-37 -130.5zM162 85v-325h-68v776 q0 54 15.5 95.5t42 70t62.5 43t78 14.5q40 0 76.5 -13t64.5 -37.5t45 -59.5t17 -79q0 -36 -10.5 -65t-28 -50t-38.5 -34t-42 -16v-3q23 0 56 -11t63.5 -34.5t52 -60.5t21.5 -90q0 -48 -18.5 -88t-50.5 -69t-74 -45t-89 -16q-49 0 -82 15t-54 33q-25 21 -39 49z" unicode="β" horiz-adv-x="629"/>
<glyph glyph-name="u03B3" d="M303 -240h-68v287l-222 421h82l175 -357l168 357h77l-212 -421v-287z" unicode="γ" horiz-adv-x="528"/>
<glyph glyph-name="u03B4" d="M481 231q0 39 -12 72.5t-35 58t-56 38.5t-75 14t-74.5 -14t-55 -38.5t-34 -58t-11.5 -72.5q0 -40 11.5 -73.5t34 -58t55 -38.5t74.5 -14t75 14t56 38.5t35 58t12 73.5zM88 625q0 30 17 54t48.5 41.5t75.5 26.5t98 9q47 0 83.5 -6t62.5 -13q30 -9 52 -19l-22 -62 q-23 10 -52 18q-25 7 -60 13t-77 6q-29 0 -56.5 -3.5t-49 -11t-35 -20.5t-13.5 -32q0 -14 7 -25t23.5 -22t43.5 -23t68 -27q39 -15 83 -38t81.5 -58.5t62 -85t24.5 -116.5q0 -53 -18.5 -98t-51.5 -77t-79 -50t-101 -18q-54 0 -99 18t-78 50.5t-51.5 77t-18.5 97.5t18.5 96.5 t51.5 74t77.5 47.5t95.5 17l16 -1l2 3q-4 2 -16 6q-11 4 -30.5 10.5t-51.5 19.5q-15 6 -37.5 14.5t-43.5 22.5t-35.5 34.5t-14.5 49.5z" unicode="δ" horiz-adv-x="609"/>
<glyph glyph-name="u03B5" d="M393 360q-10 18 -28 33q-16 13 -42 23.5t-64 10.5q-24 0 -48.5 -5t-44 -15t-31.5 -26t-12 -37t11 -36t30.5 -24.5t45.5 -14.5t56 -5h103v-56h-127q-71 0 -103 -23.5t-32 -58.5q0 -20 12.5 -35t32.5 -25t46.5 -15t54.5 -5q45 0 77.5 10.5t52.5 23.5q24 15 39 34l42 -38 q-19 -25 -50 -44q-26 -17 -67 -30.5t-100 -13.5q-45 0 -83.5 9.5t-67.5 27.5t-45.5 42.5t-16.5 54.5q0 31 13 52.5t32 35t41.5 20t40.5 8.5v2q-19 2 -38.5 9.5t-35.5 21t-26 33t-10 43.5q0 31 16.5 56t45 43t66 28t78.5 10q55 0 91.5 -14.5t58.5 -31.5q26 -20 39 -46z" unicode="ε" horiz-adv-x="484"/>
<glyph glyph-name="u03B6" d="M297 2q-42 6 -85.5 22t-78 45.5t-56.5 75t-22 112.5q0 81 30.5 148t77.5 121t103.5 97t108.5 76h-287v55h387v-54q-78 -52 -142 -103t-110 -104.5t-71 -111.5t-25 -124q0 -89 58.5 -136.5t167.5 -66.5q71 -12 102 -46.5t32 -87.5q0 -37 -20.5 -66t-49 -49.5t-58.5 -33 t-47 -15.5l-39 52q21 4 46 12.5t46 21.5t35.5 30.5t14.5 39.5q0 24 -10 40t-26.5 26t-37.5 15.5t-44 8.5z" unicode="ζ" horiz-adv-x="508"/>
<glyph glyph-name="u03B7" d="M151 468q2 -19 3 -42t1 -38h2q10 20 27.5 37t40 29t48 19t50.5 7q89 0 136.5 -53t47.5 -140v-527h-68v499q0 37 -6 67t-21 51.5t-41 33.5t-65 12q-31 0 -58 -11t-47 -33.5t-31.5 -57t-11.5 -81.5v-240h-68v365q0 19 -1 49t-3 54h65z" unicode="η" horiz-adv-x="593"/>
<glyph glyph-name="u03B8" d="M135 338q1 -65 11.5 -119.5t31 -95t52.5 -63t77 -22.5q47 0 79.5 24t52.5 65t29.5 95.5t11.5 114.5zM307 707q-45 0 -77 -23.5t-52.5 -64t-31 -96.5t-11.5 -120h345q-1 62 -11 117t-30.5 96.5t-53 66t-78.5 24.5zM307 762q66 0 112.5 -29.5t75.5 -82t42 -124t13 -155.5 t-13 -155t-42 -123t-75.5 -81.5t-112.5 -29.5t-112 29.5t-74.5 81.5t-41.5 123.5t-13 154.5t13 154.5t41.5 124t74.5 82.5t112 30z" unicode="θ" horiz-adv-x="604"/>
<glyph glyph-name="u03B9" d="M145 0h-68v468h68v-468z" unicode="ι" horiz-adv-x="222"/>
<glyph glyph-name="u03BA" d="M154 257h3l216 211h98l-236 -214l260 -254h-100l-238 246h-3v-246h-68v468h68v-211z" unicode="κ" horiz-adv-x="530"/>
<glyph glyph-name="u03BB" d="M107 0h-73l198 492l-29 77q-11 30 -20 52.5t-20.5 37t-28 21.5t-43.5 7q-22 0 -35.5 -3.5t-24.5 -7.5l-15 56q20 5 37 9t47 4q43 0 69 -10.5t42.5 -30t28 -47.5t25.5 -64l235 -593h-73l-158 420h-2z" unicode="λ" horiz-adv-x="516"/>
<glyph glyph-name="u03BC" d="M86 468h68v-259q0 -86 27.5 -123.5t99.5 -37.5q30 0 56 12t45 35t30 56.5t11 76.5v240h68v-365q0 -26 1.5 -51.5t3.5 -51.5h-73v76h-2q-22 -35 -59.5 -61.5t-82.5 -26.5q-54 0 -82.5 22.5t-40.5 58.5h-2v-309h-68v708z" unicode="μ" horiz-adv-x="582"/>
<glyph glyph-name="u03BD" d="M282 0h-75l-191 468h76l152 -396h2l153 396h73z" unicode="ν" horiz-adv-x="488"/>
<glyph glyph-name="u03BE" d="M55 185q0 45 18 77t46 54t63 34t69 17q-27 4 -59 13.5t-59 28.5t-45.5 49.5t-18.5 75.5q0 35 12.5 62t34 46.5t51 32t64.5 19.5v3h-163v57h377v-43q-70 -9 -126.5 -21t-96.5 -31.5t-61.5 -49t-21.5 -74.5q0 -35 15.5 -60.5t43 -41.5t65 -23.5t81.5 -7.5h89v-67h-121 q-37 0 -70.5 -8.5t-59 -26t-40.5 -43t-15 -58.5t13 -56t40 -39.5t69 -28t100 -21.5q72 -12 103.5 -46.5t31.5 -87.5q0 -37 -21 -66t-49.5 -49.5t-58 -33t-46.5 -15.5l-39 52q21 4 46 12.5t46 21.5t35.5 30.5t14.5 39.5q0 24 -10 40t-26.5 26t-37.5 15.5t-44 8.5 q-47 7 -90.5 19t-76.5 33t-52.5 53t-19.5 78z" unicode="ξ" horiz-adv-x="504"/>
<glyph glyph-name="u03BF" d="M483 234q0 39 -12.5 73.5t-35.5 60t-56 40.5t-74 15t-73.5 -15t-55.5 -40.5t-35.5 -60t-12.5 -73.5t12.5 -73.5t35.5 -60t55.5 -40t73.5 -14.5t74 14.5t56 40t35.5 60t12.5 73.5zM555 234q0 -53 -18.5 -98t-51.5 -78t-79 -51.5t-101 -18.5q-54 0 -100 18.5t-79 51.5 t-51.5 78t-18.5 98t18.5 98t51.5 78t79 51.5t100 18.5q55 0 101 -18.5t79 -51.5t51.5 -78t18.5 -98z" unicode="ο" horiz-adv-x="611"/>
<glyph glyph-name="u03C0" d="M154 0h-68v468h395v-468h-68v411h-259v-411z" unicode="π" horiz-adv-x="567"/>
<glyph glyph-name="u03C1" d="M507 234q0 40 -12 75t-34.5 60t-55.5 39.5t-75 14.5q-39 0 -71.5 -14.5t-56 -40t-36 -60t-12.5 -74.5q0 -42 13 -77t36.5 -59.5t56 -38t70.5 -13.5q42 0 75 14.5t55.5 40t34.5 60t12 73.5zM158 -240h-68v474q0 61 20.5 107t55 77t78 46.5t90.5 15.5q55 0 100 -19t77 -52 t50 -78t18 -97t-18 -97t-50 -78t-77 -52t-100 -19q-51 0 -97.5 23.5t-75.5 67.5h-3v-319z" unicode="ρ" horiz-adv-x="635"/>
<glyph glyph-name="u03C2" d="M327 54q22 -5 46 -12.5t43.5 -22.5t32.5 -39t13 -60q0 -37 -21 -66t-49.5 -49.5t-58 -33t-46.5 -15.5l-39 52q21 4 46 12.5t46 21.5t35.5 30.5t14.5 39.5q0 24 -9.5 39t-23.5 24t-31.5 13.5t-33.5 7.5q-14 3 -37 8t-49.5 15t-53 26.5t-48 42.5t-35 62t-13.5 85 q0 55 18.5 100.5t51 77.5t77 49.5t97.5 17.5q57 0 103.5 -20.5t76.5 -60.5l-53 -38q-16 25 -46.5 43.5t-78.5 18.5q-38 0 -70 -13t-55 -37.5t-36 -59t-13 -77.5q0 -51 17 -83t44.5 -51.5t63.5 -30t74 -17.5z" unicode="ς" horiz-adv-x="508"/>
<glyph glyph-name="u03C3" d="M483 234q0 39 -12.5 73.5t-35.5 60t-56 40.5t-74 15t-73.5 -15t-55.5 -40.5t-35.5 -60t-12.5 -73.5t12.5 -73.5t35.5 -60t55.5 -40t73.5 -14.5t74 14.5t56 40t35.5 60t12.5 73.5zM487 411v-3q32 -33 50 -77.5t18 -96.5q0 -53 -18.5 -98t-51.5 -78t-79 -51.5t-101 -18.5 q-54 0 -100 18.5t-79 51.5t-51.5 78t-18.5 98t18.5 98t51.5 78t79 51.5t100 18.5q26 0 44 -2l36 -4t38.5 -4t50.5 -2h151v-57h-138z" unicode="σ" horiz-adv-x="635"/>
<glyph glyph-name="u03C4" d="M10 468h461v-57h-197v-411h-68v411h-196v57z" unicode="τ" horiz-adv-x="481"/>
<glyph glyph-name="u03C5" d="M289 -11q-54 0 -92.5 18t-63 47.5t-36 67t-11.5 77.5v269h68v-264q0 -29 7 -56.5t23 -50t42 -36t64 -13.5q37 0 63 13.5t42.5 36t23.5 50t7 56.5v264h68v-269q0 -40 -12 -77.5t-37 -67t-63.5 -47.5t-92.5 -18z" unicode="υ" horiz-adv-x="580"/>
<glyph glyph-name="u03C6" d="M671 248q0 53 -21.5 86t-52.5 51.5t-64.5 25t-58.5 6.5h-36v-371q47 0 89.5 12t74.5 37t50.5 63t18.5 90zM56 244q0 51 18.5 90.5t47 68t63 46.5t67.5 27l24 -53q-24 -7 -50 -21t-48 -35.5t-36 -51.5t-14 -70q0 -51 18 -88.5t50 -61.5t76.5 -36t97.5 -13v428h110 q54 0 102 -16.5t84 -47t56.5 -72.5t20.5 -93q0 -64 -26.5 -112t-70 -80t-98 -48.5t-110.5 -16.5v-228h-68v228q-66 1 -123.5 17.5t-99.5 48.5t-66.5 79.5t-24.5 110.5z" unicode="φ" horiz-adv-x="799"/>
<glyph glyph-name="u03C7" d="M113 468l160 -285l159 285h71l-194 -336l214 -371h-74l-178 319l-177 -319h-74l214 372l-195 335h74z" unicode="χ" horiz-adv-x="543"/>
<glyph glyph-name="u03C8" d="M426 46q47 1 87 14.5t69.5 40t46.5 66t17 91.5v210h68v-214q0 -63 -21.5 -112.5t-59.5 -83.5t-91 -52t-116 -18v-228h-68v228q-63 0 -116 18t-91.5 52t-59.5 83.5t-21 112.5v214h68v-210q0 -52 16.5 -91t46 -66t70 -40.5t87.5 -14.5v422h68v-422z" unicode="ψ" horiz-adv-x="784"/>
<glyph glyph-name="u03C9" d="M289 423q-86 -25 -129.5 -73t-43.5 -132q0 -35 7.5 -66t23 -54t38.5 -37t54 -14q56 0 93 44t37 125v85h68v-85q0 -81 37 -124t93 -43q31 0 54 13.5t38.5 36.5t23 53.5t7.5 65.5q0 85 -43 132.5t-130 72.5l27 51q39 -9 77.5 -27.5t69 -49t50 -75.5t19.5 -108 q0 -47 -13.5 -88t-38.5 -71t-61.5 -47t-81.5 -17q-70 0 -113 41.5t-47 114.5h-4q-5 -74 -47.5 -116t-112.5 -42q-45 0 -81.5 17.5t-61.5 48t-38.5 71.5t-13.5 88q0 63 19.5 108t50 75.5t69 49t77.5 27.5z" unicode="ω" horiz-adv-x="806"/>
<glyph glyph-name="u03CA" d="M171 647q0 20 14 35.5t37 15.5t37 -15.5t14 -35.5t-14 -35.5t-37 -15.5t-37 15.5t-14 35.5zM-21 647q0 20 14 35.5t37 15.5t37 -15.5t14 -35.5t-14 -35.5t-37 -15.5t-37 15.5t-14 35.5zM159 0h-68v468h68v-468z" unicode="ϊ" horiz-adv-x="250"/>
<glyph glyph-name="u03CB" d="M289 -11q-54 0 -92.5 18t-63 47.5t-36 67t-11.5 77.5v269h68v-264q0 -29 7 -56.5t23 -50t42 -36t64 -13.5q37 0 63 13.5t42.5 36t23.5 50t7 56.5v264h68v-269q0 -40 -12 -77.5t-37 -67t-63.5 -47.5t-92.5 -18zM331 647q0 20 14 35.5t37 15.5t37 -15.5t14 -35.5t-14 -35.5 t-37 -15.5t-37 15.5t-14 35.5zM139 647q0 20 14 35.5t37 15.5t37 -15.5t14 -35.5t-14 -35.5t-37 -15.5t-37 15.5t-14 35.5z" unicode="ϋ" horiz-adv-x="580"/>
<glyph glyph-name="u03CC" d="M274 718h67l-10 -173h-46zM483 234q0 39 -12.5 73.5t-35.5 60t-56 40.5t-74 15t-73.5 -15t-55.5 -40.5t-35.5 -60t-12.5 -73.5t12.5 -73.5t35.5 -60t55.5 -40t73.5 -14.5t74 14.5t56 40t35.5 60t12.5 73.5zM555 234q0 -53 -18.5 -98t-51.5 -78t-79 -51.5t-101 -18.5 q-54 0 -100 18.5t-79 51.5t-51.5 78t-18.5 98t18.5 98t51.5 78t79 51.5t100 18.5q55 0 101 -18.5t79 -51.5t51.5 -78t18.5 -98z" unicode="ό" horiz-adv-x="611"/>
<glyph glyph-name="u03CD" d="M289 -11q-54 0 -92.5 18t-63 47.5t-36 67t-11.5 77.5v269h68v-264q0 -29 7 -56.5t23 -50t42 -36t64 -13.5q37 0 63 13.5t42.5 36t23.5 50t7 56.5v264h68v-269q0 -40 -12 -77.5t-37 -67t-63.5 -47.5t-92.5 -18zM258 708h67l-10 -173h-46z" unicode="ύ" horiz-adv-x="580"/>
<glyph glyph-name="u03CE" d="M433 708l-10 -173h-46l-11 173h67zM289 423q-86 -25 -129.5 -73t-43.5 -132q0 -35 7.5 -66t23 -54t38.5 -37t54 -14q56 0 93 44t37 125v85h68v-85q0 -81 37 -124t93 -43q31 0 54 13.5t38.5 36.5t23 53.5t7.5 65.5q0 85 -43 132.5t-130 72.5l27 51q39 -9 77.5 -27.5 t69 -49t50 -75.5t19.5 -108q0 -47 -13.5 -88t-38.5 -71t-61.5 -47t-81.5 -17q-70 0 -113 41.5t-47 114.5h-4q-5 -74 -47.5 -116t-112.5 -42q-45 0 -81.5 17.5t-61.5 48t-38.5 71.5t-13.5 88q0 63 19.5 108t50 75.5t69 49t77.5 27.5z" unicode="ώ" horiz-adv-x="806"/>
<glyph glyph-name="u0401" d="M361 847q0 20 14 35.5t37 15.5t37 -15.5t14 -35.5t-14 -35.5t-37 -15.5t-37 15.5t-14 35.5zM169 847q0 20 14 35.5t37 15.5t37 -15.5t14 -35.5t-14 -35.5t-37 -15.5t-37 15.5t-14 35.5zM166 64h379v-64h-451v708h439v-64h-367v-244h343v-63h-343v-273z" unicode="Ё" horiz-adv-x="592"/>
<glyph glyph-name="u0402" d="M12 642v66h535v-66h-257v-190h136q65 0 112 -18t78 -48.5t45.5 -71t14.5 -86.5q0 -48 -15.5 -90t-46.5 -72.5t-77.5 -48.5t-107.5 -18l-37 1v68h59q27 0 54 9.5t48.5 29t35 49t13.5 70.5q0 72 -42.5 115.5t-126.5 43.5h-143v-385h-72v642h-206z" unicode="Ђ" horiz-adv-x="731"/>
<glyph glyph-name="u0403" d="M442 908l-132 -144h-59l100 144h91zM166 0h-72v708h402v-64h-330v-644z" unicode="Ѓ" horiz-adv-x="516"/>
<glyph glyph-name="u0404" d="M690 114q-18 -27 -43.5 -51t-59 -42t-74 -28.5t-88.5 -10.5q-80 0 -148 28t-117 77.5t-76.5 117.5t-27.5 149t28 149t77.5 117.5t117 77.5t146.5 28q39 0 76.5 -8t70.5 -22.5t60 -35t45 -46.5l-60 -44q-11 17 -29.5 34t-43.5 30t-54.5 21t-63.5 8q-63 0 -114 -21 t-88.5 -57.5t-60.5 -85.5t-29 -104h424v-63h-425q3 -59 25 -111t59.5 -91t90.5 -62t118 -23q61 0 116 25t92 80z" unicode="Є" horiz-adv-x="735"/>
<glyph glyph-name="u0405" d="M437 594q-23 32 -59 51.5t-87 19.5q-26 0 -53 -8t-49 -24.5t-35.5 -41.5t-13.5 -59t13 -56t34.5 -37.5t49 -25.5t57.5 -20q37 -12 74.5 -26t67.5 -36.5t49 -57t19 -87.5t-20.5 -91.5t-53 -63.5t-74 -37t-83.5 -12q-32 0 -64 6.5t-61 19.5t-54 33t-44 46l62 46 q23 -38 64.5 -63.5t97.5 -25.5q27 0 55 8.5t50.5 26t37 43t14.5 59.5q0 37 -14.5 61.5t-38.5 41t-55 27.5t-65 22q-35 11 -69 25t-61 36.5t-43.5 55.5t-16.5 81q0 51 20.5 88t53.5 61t73 35t79 11q72 0 123 -25.5t77 -60.5z" unicode="Ѕ" horiz-adv-x="564"/>
<glyph glyph-name="u0406" d="M166 0h-72v708h72v-708z" unicode="І" horiz-adv-x="260"/>
<glyph glyph-name="u0407" d="M175 847q0 20 14 35.5t37 15.5t37 -15.5t14 -35.5t-14 -35.5t-37 -15.5t-37 15.5t-14 35.5zM-17 847q0 20 14 35.5t37 15.5t37 -15.5t14 -35.5t-14 -35.5t-37 -15.5t-37 15.5t-14 35.5zM166 0h-72v708h72v-708z" unicode="Ї" horiz-adv-x="260"/>
<glyph glyph-name="u0408" d="M92 144q8 -42 37.5 -70.5t77.5 -28.5q37 0 61 13.5t38.5 36.5t20 52.5t5.5 61.5v499h72v-504q0 -35 -7.5 -74t-28.5 -72t-58 -54.5t-95 -21.5q-77 0 -127 40.5t-63 103.5z" unicode="Ј" horiz-adv-x="492"/>
<glyph glyph-name="u0409" d="M532 336l112 -274q84 0 136.5 31.5t52.5 95.5q0 41 -16 69.5t-42.5 45.5t-62 24.5t-74.5 7.5h-106zM99 0h-74l285 708h71l126 -309h135q125 0 194.5 -53.5t69.5 -157.5q0 -38 -16.5 -72t-49 -60t-80.5 -41t-110 -15h-60l-246 618z" unicode="Љ" horiz-adv-x="940"/>
<glyph glyph-name="u040A" d="M575 338v-274h119q88 0 130.5 37.5t42.5 100.5q0 66 -44 101t-129 35h-119zM166 708v-307h337v307h72v-307h125q54 0 98 -13.5t75.5 -39.5t48.5 -64.5t17 -87.5q0 -46 -17.5 -82t-49 -61.5t-76 -39t-98.5 -13.5h-195v335h-337v-335h-72v708h72z" unicode="Њ" horiz-adv-x="989"/>
<glyph glyph-name="u040B" d="M290 384v-384h-72v642h-206v66h535v-66h-257v-192h163q54 0 94 -16t66.5 -45.5t39.5 -70.5t13 -91v-227h-72v191q0 45 -7 81t-24.5 61t-46.5 38t-73 13h-153z" unicode="Ћ" horiz-adv-x="731"/>
<glyph glyph-name="u040C" d="M350 764h-59l100 144h91zM94 0v708h72v-301q28 0 53.5 -2t50.5 -5l269 308h79l-272 -325q125 -38 193.5 -134.5t91.5 -248.5h-79q-16 91 -45.5 156.5t-76 107t-108.5 59.5t-139 18h-17v-341h-72z" unicode="Ќ" horiz-adv-x="691"/>
<glyph glyph-name="u040E" d="M27 708h80l229 -465l221 465h83l-271 -554q-18 -36 -38 -66t-44 -53t-53 -35t-66 -12q-30 0 -52 6t-38 13l33 62q11 -7 27 -12t43 -5q36 0 63 29t53 82zM207 906q13 -36 45 -60t81 -25q49 1 81 25t45 60l51 -24q-8 -23 -24 -44t-37 -37q-22 -16 -51 -25t-65 -9t-65 9 t-51 25q-21 16 -37 37t-24 44z" unicode="Ў" horiz-adv-x="649"/>
<glyph glyph-name="u040F" d="M532 66v642h72v-708h-211v-139h-72v139h-227v708h72v-642h366z" unicode="Џ" horiz-adv-x="698"/>
<glyph glyph-name="u0410" d="M193 252h312l-156 376zM89 0h-79l306 708h70l304 -708h-80l-78 186h-366z" unicode="А" horiz-adv-x="700"/>
<glyph glyph-name="u0411" d="M304 66q85 0 130.5 36.5t45.5 99.5q0 66 -47 99.5t-129 33.5h-138v-269h138zM94 0v708h402v-66h-330v-241h144q54 0 98 -13.5t75.5 -39t48.5 -63t17 -84.5q0 -48 -17.5 -85t-49 -63t-76 -39.5t-98.5 -13.5h-214z" unicode="Б" horiz-adv-x="609"/>
<glyph glyph-name="u0412" d="M166 62h134q39 0 74.5 7.5t62 24t42.5 43t16 63.5q0 70 -47.5 104.5t-134.5 34.5h-147v-277zM166 398h145q26 0 52.5 6t48.5 20.5t35.5 38.5t13.5 59q0 34 -13.5 57.5t-36.5 38.5t-54 21.5t-66 6.5h-125v-248zM94 708h211q40 0 81 -8.5t73.5 -29t53 -55.5t20.5 -88 q0 -56 -34 -97.5t-91 -54.5v-2q69 -8 114.5 -53.5t45.5 -123.5q0 -44 -18.5 -80.5t-52.5 -62t-83 -39.5t-110 -14h-210v708z" unicode="В" horiz-adv-x="636"/>
<glyph glyph-name="u0413" d="M166 0h-72v708h402v-64h-330v-644z" unicode="Г" horiz-adv-x="516"/>
<glyph glyph-name="u0414" d="M160 66h404l-202 562zM72 0v-139h-72v205h88l241 642h70l239 -642h88v-205h-72v139h-582z" unicode="Д" horiz-adv-x="726"/>
<glyph glyph-name="u0415" d="M166 64h379v-64h-451v708h439v-64h-367v-244h343v-63h-343v-273z" unicode="Е" horiz-adv-x="592"/>
<glyph glyph-name="u0416" d="M454 341h-13q-59 0 -109.5 -17t-90.5 -58t-65.5 -107t-36.5 -159h-79q32 299 228 378l-226 330h79l212 -311q23 5 48.5 7.5t52.5 2.5v301h72v-301q27 0 52.5 -2.5t48.5 -7.5l212 311h79l-227 -330q100 -40 156 -134t73 -244h-79q-11 93 -36.5 159t-65.5 107t-90.5 58 t-109.5 17h-13v-341h-72v341z" unicode="Ж" horiz-adv-x="980"/>
<glyph glyph-name="u0417" d="M228 402h31q34 0 67 7t58.5 22.5t41.5 40.5t16 60q0 66 -42 99.5t-110 33.5q-52 0 -89.5 -26t-58.5 -67l-56 42q33 57 86.5 84.5t123.5 27.5q48 0 88.5 -12.5t69.5 -36.5t45 -59.5t16 -81.5q0 -31 -12.5 -57.5t-33 -47.5t-46 -35.5t-51.5 -21.5v-2q30 -4 62.5 -14.5 t59 -30.5t44 -52t17.5 -79q0 -49 -20 -88.5t-55 -67.5t-82.5 -43t-101.5 -15q-48 0 -86 10.5t-67 30t-50.5 47t-37.5 60.5l62 37q12 -28 27.5 -50.5t37.5 -38.5t51.5 -25t68.5 -9q87 0 134 41.5t47 110.5q0 42 -18 70t-48.5 44.5t-71 23t-86.5 6.5h-31v62z" unicode="З" horiz-adv-x="623"/>
<glyph glyph-name="u0418" d="M168 105l412 603h90v-708h-72v609h-2l-412 -609h-90v708h72v-603h2z" unicode="И" horiz-adv-x="764"/>
<glyph glyph-name="u0419" d="M256 906q13 -36 45.5 -60.5t80.5 -24.5t80.5 24.5t45.5 60.5l51 -24q-8 -23 -23.5 -44t-37.5 -37t-51 -25t-65 -9t-65 9t-51 25t-37.5 37t-23.5 44zM580 708h90v-708h-72v609h-2l-412 -609h-90v708h72v-603h2z" unicode="Й" horiz-adv-x="764"/>
<glyph glyph-name="u041A" d="M94 0v708h72v-301q28 0 53.5 -2t50.5 -5l269 308h79l-272 -325q125 -38 193.5 -134.5t91.5 -248.5h-79q-16 91 -45.5 156.5t-76 107t-108.5 59.5t-139 18h-17v-341h-72z" unicode="К" horiz-adv-x="691"/>
<glyph glyph-name="u041B" d="M89 0h-79l306 708h70l304 -708h-80l-261 618z" unicode="Л" horiz-adv-x="680"/>
<glyph glyph-name="u041C" d="M444 122h1l237 586h110v-708h-72v615h-2l-256 -615h-38l-256 615h-2v-615h-72v708h110z" unicode="М" horiz-adv-x="886"/>
<glyph glyph-name="u041D" d="M94 708h72v-307h386v307h72v-708h-72v335h-386v-335h-72v708z" unicode="Н" horiz-adv-x="718"/>
<glyph glyph-name="u041E" d="M718 354q0 62 -20 118t-58 98.5t-92.5 67.5t-122.5 25t-122.5 -25t-92.5 -67.5t-58 -98.5t-20 -118t20 -118t58 -98t92.5 -67t122.5 -25t122.5 25t92.5 67t58 98t20 118zM794 354q0 -81 -28 -149t-77.5 -117.5t-117 -77.5t-146.5 -28t-146.5 28t-117 77.5t-77.5 117.5 t-28 149t28 149t77.5 117.5t117 77.5t146.5 28t146.5 -28t117 -77.5t77.5 -117.5t28 -149z" unicode="О" horiz-adv-x="850"/>
<glyph glyph-name="u041F" d="M604 708v-708h-72v642h-366v-642h-72v708h510z" unicode="П" horiz-adv-x="698"/>
<glyph glyph-name="u0420" d="M166 390h122q85 0 129 33t44 96q0 66 -45.5 96.5t-127.5 30.5h-122v-256zM94 708h200q54 0 98 -11.5t75.5 -35t48.5 -59t17 -83.5t-17.5 -83.5t-49 -59t-76 -35.5t-98.5 -12h-126v-329h-72v708z" unicode="Р" horiz-adv-x="580"/>
<glyph glyph-name="u0421" d="M690 114q-18 -27 -43.5 -51t-59 -42t-74 -28.5t-88.5 -10.5q-80 0 -148 28t-117 77.5t-76.5 117.5t-27.5 149t28 149t77.5 117.5t117 77.5t146.5 28q39 0 76.5 -8t70.5 -22.5t60 -35t45 -46.5l-60 -44q-11 17 -29.5 34t-43.5 30t-54.5 21t-63.5 8q-69 0 -123.5 -25 t-92.5 -67.5t-58 -98.5t-20 -118t20.5 -118t58.5 -98.5t92.5 -67.5t122.5 -25q61 0 116 25t92 80z" unicode="С" horiz-adv-x="720"/>
<glyph glyph-name="u0422" d="M321 0h-72v644h-237v64h546v-64h-237v-644z" unicode="Т" horiz-adv-x="570"/>
<glyph glyph-name="u0423" d="M107 708l229 -465l221 465h83l-271 -554q-18 -36 -38 -66.5t-44 -52.5t-53 -34.5t-66 -12.5q-29 0 -51.5 5.5t-38.5 13.5l33 62q11 -7 27.5 -12t42.5 -5q36 0 63 29t53 82l-270 545h80z" unicode="У" horiz-adv-x="649"/>
<glyph glyph-name="u0424" d="M712 354q0 51 -17.5 95.5t-50.5 78.5t-80.5 55.5t-107.5 27.5v-513q60 5 107.5 26.5t80.5 55.5t50.5 78.5t17.5 95.5zM126 354q0 -51 17.5 -96t51 -79t81.5 -55.5t108 -26.5v514q-60 -5 -108 -26.5t-81.5 -56t-51 -79t-17.5 -95.5zM456 674q72 -5 133 -30t105 -66.5 t69 -98t25 -125.5t-25 -126t-69 -98.5t-105 -66.5t-133 -30v-84h-72v84q-72 5 -133.5 30t-106 66.5t-69.5 98.5t-25 126t25 126t69.5 98.5t106 66t133.5 29.5v78h72v-78z" unicode="Ф" horiz-adv-x="838"/>
<glyph glyph-name="u0425" d="M326 422l193 286h86l-235 -337l260 -371h-90l-216 319l-215 -319h-90l260 372l-237 336h90z" unicode="Х" horiz-adv-x="649"/>
<glyph glyph-name="u0426" d="M94 0v708h72v-642h366v642h72v-642h87v-205h-72v139h-525z" unicode="Ц" horiz-adv-x="721"/>
<glyph glyph-name="u0427" d="M457 708h72v-708h-71v320h-175q-54 0 -94 16t-66.5 45.5t-39.5 70.5t-13 91v165h72v-129q0 -45 7 -81t24.5 -61t46.5 -38t73 -13h164v322z" unicode="Ч" horiz-adv-x="623"/>
<glyph glyph-name="u0428" d="M462 66v642h72v-642h289v642h72v-708h-801v708h72v-642h296z" unicode="Ш" horiz-adv-x="989"/>
<glyph glyph-name="u0429" d="M94 0v708h72v-642h296v642h72v-642h285v642h72v-642h87v-205h-72v139h-812z" unicode="Щ" horiz-adv-x="1008"/>
<glyph glyph-name="u042A" d="M277 64h119q84 0 128.5 42t44.5 105q0 66 -45.5 105.5t-127.5 39.5h-119v-292zM277 708v-289h125q54 0 98 -15t75.5 -42t48.5 -65.5t17 -86.5t-21 -86.5t-58.5 -66t-89.5 -42.5t-114 -15h-153v642h-193v66h265z" unicode="Ъ" horiz-adv-x="691"/>
<glyph glyph-name="u042B" d="M674 708v-708h-72v708h72zM166 64h118q85 0 129 34.5t44 112.5q0 66 -45.5 105.5t-127.5 39.5h-118v-292zM166 708v-289h124q54 0 98 -16t75.5 -45t48.5 -69t17 -88t-17.5 -85t-49 -63t-76 -39.5t-98.5 -13.5h-194v708h72z" unicode="Ы" horiz-adv-x="768"/>
<glyph glyph-name="u042C" d="M94 708h72v-289h125q54 0 98 -15t75.5 -42t48.5 -65.5t17 -86.5t-17.5 -86.5t-49 -66t-76 -42.5t-98.5 -15h-195v708zM166 356v-292h119q84 0 128.5 42t44.5 105q0 66 -45.5 105.5t-127.5 39.5h-119z" unicode="Ь" horiz-adv-x="580"/>
<glyph glyph-name="u042D" d="M45 114l56 36q18 -27 43.5 -47t54.5 -33t60.5 -19t61.5 -6q65 0 116 23t86.5 62t55.5 91t23 111h-425v63h424q-6 58 -27.5 107t-58 85t-87.5 56t-115 20q-44 0 -79 -10.5t-61.5 -26.5t-44.5 -35t-27 -35l-50 43q18 26 45 49t61.5 40.5t75.5 27.5t87 10q84 0 151 -28 t113 -77.5t70.5 -117.5t24.5 -149t-25.5 -149t-72.5 -117.5t-113 -77.5t-146 -28q-48 0 -90.5 10.5t-78 28.5t-63 42t-45.5 51z" unicode="Э" horiz-adv-x="735"/>
<glyph glyph-name="u042E" d="M369 354q0 -62 20 -118t58 -98t92.5 -67t122.5 -25t122.5 25t92.5 67t58 98t20 118t-20 118t-58 98.5t-92.5 67.5t-122.5 25t-122.5 -25t-92.5 -67.5t-58 -98.5t-20 -118zM166 708v-320h128q5 73 34.5 135t78.5 107t114 70.5t141 25.5q79 0 146.5 -28t117 -77.5 t77.5 -117.5t28 -149t-28 -149t-77.5 -117.5t-117 -77.5t-146.5 -28q-76 0 -141 25.5t-114 71t-79 107.5t-34 136h-128v-322h-72v708h72z" unicode="Ю" horiz-adv-x="1087"/>
<glyph glyph-name="u042F" d="M474 642h-131q-94 0 -143.5 -28.5t-49.5 -93.5q0 -60 50.5 -92t141.5 -32h132v246zM232 356q-72 12 -114.5 52.5t-43.5 111.5q0 47 18.5 82.5t52.5 59t82.5 35t108.5 11.5h210v-708h-72v330h-81q-59 0 -106.5 -16.5t-82 -55t-56 -102t-28.5 -156.5h-79q4 63 19.5 120 t40.5 103t58 80t73 51v2z" unicode="Я" horiz-adv-x="640"/>
<glyph glyph-name="u0430" d="M365 234q-42 0 -84.5 -3.5t-77 -14t-56.5 -30.5t-22 -53q0 -25 9.5 -42t25.5 -27.5t35.5 -15t39.5 -4.5q36 0 64 12.5t47 34t29 49.5t10 59v35h-20zM385 302q0 61 -32 91t-93 30q-42 0 -78 -15t-61 -40l-38 45q29 29 76.5 48t107.5 19q38 0 71 -10.5t58 -31.5t39 -53 t14 -75v-205q0 -27 2 -56t6 -49h-61q-3 17 -5 37t-2 39h-2q-32 -47 -72.5 -67.5t-97.5 -20.5q-27 0 -55.5 7.5t-52 24.5t-39 44t-15.5 66q0 54 27.5 85.5t73.5 47t105.5 20t123.5 4.5v15z" unicode="а" horiz-adv-x="534"/>
<glyph glyph-name="u0431" d="M311 460q51 0 94 -17t73.5 -48t47.5 -74.5t17 -96.5q0 -54 -19 -98t-51 -74.5t-75 -47t-91 -16.5q-56 0 -100.5 18t-75.5 51.5t-48 81t-17 106.5q0 29 1.5 56t3.5 53q16 177 93.5 265t234.5 88h135v-58h-137q-73 0 -120.5 -20t-77.5 -57t-45.5 -89t-23.5 -115 q26 42 74 67t107 25zM471 224q0 39 -12 71.5t-33.5 56.5t-51.5 37t-67 13q-34 0 -65 -10.5t-55 -31.5t-38 -52.5t-14 -73.5t12.5 -76.5t35 -59t54.5 -38.5t71 -14t69.5 14t51.5 38.5t31.5 57t10.5 68.5z" unicode="б" horiz-adv-x="599"/>
<glyph glyph-name="u0432" d="M284 261q50 0 78.5 15.5t28.5 61.5q0 26 -11 41t-31 22.5t-48 9.5t-62 2h-85v-152h130zM154 55h87q37 0 68 1.5t54 9t36 23.5t13 45q0 48 -35.5 63t-95.5 15h-127v-157zM300 0h-214v468h202q89 0 132 -34.5t43 -91.5q0 -26 -8 -43.5t-22.5 -29t-33.5 -18.5t-40 -13 q26 -2 49 -9t40.5 -20.5t27.5 -34t10 -49.5q0 -57 -47 -91t-139 -34z" unicode="в" horiz-adv-x="541"/>
<glyph glyph-name="u0433" d="M154 0h-68v468h290v-57h-222v-411z" unicode="г" horiz-adv-x="388"/>
<glyph glyph-name="u0434" d="M144 59h254l-123 327zM67 -139h-67v198h75l172 409h60l159 -409h78v-198h-66v139h-411v-139z" unicode="д" horiz-adv-x="544"/>
<glyph glyph-name="u0435" d="M516 248v-15t-1 -17h-388q1 -35 14 -66t36 -54t54 -36.5t67 -13.5q53 0 91.5 24.5t58.5 56.5l51 -40q-42 -53 -92.5 -76t-108.5 -23q-52 0 -96.5 18.5t-76.5 51.5t-50.5 78t-18.5 98t18 98t50 78t75 51.5t93 18.5q55 0 97 -18.5t70 -50t42.5 -73.5t14.5 -90zM447 270 q-3 66 -42.5 109.5t-112.5 43.5q-34 0 -63 -12.5t-51 -34t-35 -49t-15 -57.5h319z" unicode="е"/>
<glyph glyph-name="u0436" d="M374 218q-49 -1 -89 -12t-71 -36t-53 -66.5t-35 -103.5h-76q26 109 72 170t124 87l-171 211h76l157 -197q15 2 31.5 3.5t34.5 1.5v192h68v-192q17 0 33.5 -1.5t32.5 -3.5l157 197h76l-172 -211q78 -26 124 -87.5t73 -169.5h-76q-14 62 -36 103.5t-53 66.5t-70.5 36 t-88.5 12v-218h-68v218z" unicode="ж" horiz-adv-x="816"/>
<glyph glyph-name="u0437" d="M104 360l-53 32q12 26 35 46q20 17 53 31.5t84 14.5q45 0 77 -12t52 -31.5t29.5 -43t9.5 -45.5q0 -23 -9 -43t-25 -35t-38 -24t-47 -10v-3q27 0 52 -6t43.5 -19t29.5 -33t11 -48q0 -63 -51 -103t-139 -40q-54 0 -88.5 14.5t-54.5 31.5q-24 20 -35 47l55 34q8 -21 26 -37 q14 -14 39.5 -25t64.5 -11q54 0 85 24t31 64q0 33 -25.5 56.5t-86.5 23.5h-60v52h50q45 0 76 20.5t31 62.5q0 17 -6 33t-18.5 28t-32.5 19.5t-47 7.5q-36 0 -59 -11.5t-36 -25.5q-16 -16 -23 -36z" unicode="з" horiz-adv-x="463"/>
<glyph glyph-name="u0438" d="M443 381l-287 -381h-70v468h70v-367l287 367h70v-468h-70v381z" unicode="и" horiz-adv-x="599"/>
<glyph glyph-name="u0439" d="M200 703q14 -41 38 -65t66 -23q44 0 67 25t37 63l49 -22q-7 -20 -19 -41q-12 -20 -30 -38t-44 -30t-60 -11q-33 0 -58 10q-26 11 -44 27t-30 38t-21 45zM443 0v381l-287 -381h-70v468h70v-367l287 367h70v-468h-70z" unicode="й" horiz-adv-x="599"/>
<glyph glyph-name="u043A" d="M154 276q40 0 75 -6l168 198h76l-182 -212q83 -26 129 -88.5t73 -167.5h-76q-14 62 -35.5 103.5t-54 67t-75.5 36t-98 11.5v-218h-68v468h68v-192z" unicode="к" horiz-adv-x="543"/>
<glyph glyph-name="u043B" d="M408 0l-155 386l-162 -386h-71l205 468h60l192 -468h-69z" unicode="л" horiz-adv-x="497"/>
<glyph glyph-name="u043C" d="M144 468l205 -241l202 241h58v-468h-68v369l-179 -224h-28l-180 219v-364h-68v468h58z" unicode="м" horiz-adv-x="695"/>
<glyph glyph-name="u043D" d="M154 0h-68v468h68v-189h267v189h68v-468h-68v222h-267v-222z" unicode="н" horiz-adv-x="575"/>
<glyph glyph-name="u043E" d="M483 234q0 39 -12.5 73.5t-35.5 60t-56 40.5t-74 15t-73.5 -15t-55.5 -40.5t-35.5 -60t-12.5 -73.5t12.5 -73.5t35.5 -60t55.5 -40t73.5 -14.5t74 14.5t56 40t35.5 60t12.5 73.5zM555 234q0 -53 -18.5 -98t-51.5 -78t-79 -51.5t-101 -18.5q-54 0 -100 18.5t-79 51.5 t-51.5 78t-18.5 98t18.5 98t51.5 78t79 51.5t100 18.5q55 0 101 -18.5t79 -51.5t51.5 -78t18.5 -98z" unicode="о" horiz-adv-x="611"/>
<glyph glyph-name="u043F" d="M154 0h-68v468h395v-468h-68v411h-259v-411z" unicode="п" horiz-adv-x="567"/>
<glyph glyph-name="u0440" d="M507 234q0 39 -12 73.5t-34.5 60t-55.5 40.5t-75 15q-39 0 -72 -14.5t-57 -40t-37.5 -60t-13.5 -74.5t13.5 -74.5t37.5 -59.5t57 -39.5t72 -14.5q42 0 75 14.5t55.5 40t34.5 60t12 73.5zM158 -240h-68v708h68v-81h3q29 46 77.5 69.5t98.5 23.5q55 0 99.5 -19t76 -52 t49 -78t17.5 -97t-17.5 -97t-49 -78t-76 -52t-99.5 -19q-50 0 -98.5 23.5t-77.5 67.5h-3v-319z" unicode="р" horiz-adv-x="635"/>
<glyph glyph-name="u0441" d="M427 361q-17 27 -49.5 44.5t-70.5 17.5q-41 0 -74 -14.5t-56.5 -40t-36 -60t-12.5 -74.5t12.5 -74t35.5 -59.5t56 -40t74 -14.5q45 0 76 17t51 44l51 -38q-30 -37 -73.5 -59t-104.5 -22q-57 0 -103 18.5t-78.5 51.5t-50.5 78t-18 98t18 98t50.5 78t78.5 51.5t103 18.5 q47 0 95.5 -20.5t78.5 -60.5z" unicode="с" horiz-adv-x="500"/>
<glyph glyph-name="u0442" d="M10 468h411v-57h-177v-411h-68v411h-166v57z" unicode="т" horiz-adv-x="431"/>
<glyph glyph-name="u0443" d="M251 73h2l145 395h74l-233 -589q-21 -54 -53.5 -86.5t-93.5 -32.5q-31 0 -61 6l7 62q24 -8 50 -8q35 0 55 21.5t35 61.5l38 98l-200 467h76z" unicode="у" horiz-adv-x="488"/>
<glyph glyph-name="u0444" d="M128 234q0 -39 12.5 -73.5t35 -59.5t55 -40t71.5 -15v377q-40 -1 -72.5 -16t-55 -40.5t-34.5 -59.5t-12 -73zM539 234q0 39 -12.5 73t-35 59.5t-55 40.5t-72.5 16v-377q40 0 72.5 15t55.5 40t35 59.5t12 73.5zM364 480q54 0 99.5 -19t78 -52t51 -78t18.5 -97 q0 -53 -18 -98t-51 -77.5t-78.5 -51.5t-99.5 -19v-233h-62v233q-53 0 -98 19t-78 52t-51.5 77.5t-18.5 97.5q0 52 18 97t51 78t78 51.5t99 19.5v276h62v-276z" unicode="ф" horiz-adv-x="667"/>
<glyph glyph-name="u0445" d="M200 242l-173 226h87l128 -178l128 178h82l-170 -223l186 -245h-88l-139 195l-143 -195h-82z" unicode="х" horiz-adv-x="484"/>
<glyph glyph-name="u0446" d="M86 0v468h68v-407h251v407h68v-407h78v-200h-68v139h-397z" unicode="ц" horiz-adv-x="571"/>
<glyph glyph-name="u0447" d="M50 468h68v-68q0 -46 3 -78t16.5 -52.5t42.5 -29.5t80 -9h102v237h68v-468h-68v174h-103q-65 0 -106 12t-64 36t-31 59.5t-8 81.5v105z" unicode="ч" horiz-adv-x="516"/>
<glyph glyph-name="u0448" d="M86 0v468h68v-411h210v411h68v-411h211v411h68v-468h-625z" unicode="ш" horiz-adv-x="797"/>
<glyph glyph-name="u0449" d="M86 0v468h68v-411h210v411h68v-411h211v411h68v-411h78v-196h-68v139h-635z" unicode="щ" horiz-adv-x="809"/>
<glyph glyph-name="u044A" d="M218 55h84q28 0 52 4.5t40.5 16t26 30.5t9.5 48t-10 48t-27.5 30t-41.5 15.5t-52 4.5h-81v-197zM218 468v-162h96q52 0 88 -11.5t58 -32t32 -48.5t10 -60t-11.5 -60t-34.5 -49t-57.5 -33t-80.5 -12h-168v411h-140v57h208z" unicode="ъ" horiz-adv-x="552"/>
<glyph glyph-name="u044B" d="M567 468v-468h-68v468h68zM154 55h84q28 0 52 4.5t40.5 16t26 30.5t9.5 48t-10 48t-27.5 30t-41.5 15.5t-52 4.5h-81v-197zM154 468v-162h96q52 0 88 -11.5t58 -32t32 -48.5t10 -60t-11.5 -60t-34.5 -49t-57.5 -33t-80.5 -12h-168v468h68z" unicode="ы" horiz-adv-x="653"/>
<glyph glyph-name="u044C" d="M154 55h104q28 0 52 4.5t41.5 16t27 30.5t9.5 48t-10 48t-28 30t-42.5 15.5t-52.5 4.5h-101v-197zM154 468v-162h116q52 0 88.5 -11.5t59 -32t32.5 -48.5t10 -60t-12 -60t-35.5 -49t-58 -33t-80.5 -12h-188v468h68z" unicode="ь" horiz-adv-x="510"/>
<glyph glyph-name="u044D" d="M96 341l-49 42q28 40 76.5 68.5t125.5 28.5q55 0 99 -18.5t74.5 -51.5t46.5 -78t16 -98t-18.5 -98t-50.5 -78t-76.5 -51.5t-96.5 -18.5q-58 0 -108.5 23t-92.5 76l51 40q20 -32 58.5 -56.5t91.5 -24.5q36 0 67.5 13.5t55 36.5t37.5 54t15 66h-265v54h264 q-2 30 -14.5 57.5t-34.5 49t-52 34t-68 12.5q-57 0 -95 -24.5t-57 -57.5z" unicode="э" horiz-adv-x="541"/>
<glyph glyph-name="u044E" d="M679 234q0 39 -12.5 73.5t-35.5 60t-56 40.5t-74 15t-73.5 -15t-55.5 -40.5t-35.5 -60t-12.5 -73.5t12.5 -73.5t35.5 -60t55.5 -40t73.5 -14.5t74 14.5t56 40t35.5 60t12.5 73.5zM751 234q0 -53 -18.5 -98t-51.5 -78t-79 -51.5t-101 -18.5q-53 0 -98 17.5t-78 49t-52 74 t-21 93.5h-98v-222h-68v468h68v-189h102q7 44 28 81t53 63.5t74 41.5t90 15q55 0 101 -18.5t79 -51.5t51.5 -78t18.5 -98z" unicode="ю" horiz-adv-x="807"/>
<glyph glyph-name="u044F" d="M154 334q0 -24 11 -39t29.5 -22.5t42.5 -10t49 -2.5h99v149h-100q-27 0 -51 -2t-41.5 -9.5t-28 -22.5t-10.5 -41zM304 201q-78 0 -119 -53.5t-49 -147.5h-76q3 39 13 75t27.5 65.5t42 51t56.5 32.5v3q-51 5 -84 30.5t-33 76.5q0 64 49.5 99t144.5 35h177v-468h-68v201 h-81z" unicode="я" horiz-adv-x="539"/>
<glyph glyph-name="u0451" d="M344 647q0 20 14 35.5t37 15.5t37 -15.5t14 -35.5t-14 -35.5t-37 -15.5t-37 15.5t-14 35.5zM152 647q0 20 14 35.5t37 15.5t37 -15.5t14 -35.5t-14 -35.5t-37 -15.5t-37 15.5t-14 35.5zM516 248v-15t-1 -17h-388q1 -35 14 -66t36 -54t54 -36.5t67 -13.5q53 0 91.5 24.5 t58.5 56.5l51 -40q-42 -53 -92.5 -76t-108.5 -23q-52 0 -96.5 18.5t-76.5 51.5t-50.5 78t-18.5 98t18 98t50 78t75 51.5t93 18.5q55 0 97 -18.5t70 -50t42.5 -73.5t14.5 -90zM447 270q-3 66 -42.5 109.5t-112.5 43.5q-34 0 -63 -12.5t-51 -34t-35 -49t-15 -57.5h319z" unicode="ё"/>
<glyph glyph-name="u0452" d="M265 -133q9 -7 24 -11t27 -4q64 0 90 42.5t26 127.5v237q0 37 -6 67t-20.5 51.5t-39 33.5t-61.5 12q-27 0 -52.5 -11t-45.5 -33.5t-32 -57t-12 -81.5v-240h-68v575h-105v51h105v130h68v-130h188v-51h-188v-184h2q19 41 63 65t94 24q89 0 133.5 -53t44.5 -140v-293 q0 -44 -12 -81.5t-35 -64.5t-57 -42.5t-77 -15.5q-17 0 -42.5 5t-47.5 19z" unicode="ђ" horiz-adv-x="586"/>
<glyph glyph-name="u0453" d="M242 534h-59l100 144h91zM154 0h-68v468h290v-57h-222v-411z" unicode="ѓ" horiz-adv-x="388"/>
<glyph glyph-name="u0454" d="M502 383l-49 -42q-19 33 -57 57.5t-95 24.5q-38 0 -68 -12.5t-52 -34t-34.5 -49t-14.5 -57.5h264v-54h-265q1 -35 15 -66t37.5 -54t55 -36.5t67.5 -13.5q60 0 95 24.5t55 56.5l51 -40q-42 -53 -93.5 -76t-114.5 -23q-50 0 -92.5 18.5t-74.5 51.5t-50 78t-18 98t16 98 t46.5 78t74 51.5t99.5 18.5q77 0 125.5 -28.5t76.5 -68.5z" unicode="є" horiz-adv-x="564"/>
<glyph glyph-name="u0455" d="M339 357q-15 29 -45.5 47.5t-69.5 18.5q-18 0 -36 -4t-32 -13t-22.5 -23t-8.5 -33q0 -33 27 -50.5t85 -29.5q83 -17 122.5 -49.5t39.5 -87.5q0 -40 -15.5 -67.5t-40.5 -45t-56.5 -25t-63.5 -7.5q-53 0 -103 22t-82 69l54 40q18 -31 53 -52t77 -21q22 0 42 4t35 14 t24 25.5t9 38.5q0 37 -35.5 55.5t-102.5 34.5q-21 5 -44.5 12.5t-43.5 22t-33 36.5t-13 55q0 36 14 61.5t37.5 42t53.5 24.5t62 8q49 0 95 -22t69 -62z" unicode="ѕ" horiz-adv-x="444"/>
<glyph glyph-name="u0456" d="M173 648q0 -21 -15 -34.5t-33 -13.5t-33 13.5t-15 34.5t15 34.5t33 13.5t33 -13.5t15 -34.5zM159 0h-68v468h68v-468z" unicode="і" horiz-adv-x="250"/>
<glyph glyph-name="u0457" d="M171 647q0 20 14 35.5t37 15.5t37 -15.5t14 -35.5t-14 -35.5t-37 -15.5t-37 15.5t-14 35.5zM-21 647q0 20 14 35.5t37 15.5t37 -15.5t14 -35.5t-14 -35.5t-37 -15.5t-37 15.5t-14 35.5zM159 0h-68v468h68v-468z" unicode="ї" horiz-adv-x="250"/>
<glyph glyph-name="u0458" d="M174 648q0 -21 -15 -34.5t-33 -13.5t-33 13.5t-15 34.5t15 34.5t33 13.5t33 -13.5t15 -34.5zM-17 -176q10 -3 21.5 -4.5t21.5 -1.5q21 0 34 7.5t20 20.5t9.5 31.5t2.5 40.5v550h68v-561q0 -28 -6 -54.5t-21 -47t-40.5 -33t-65.5 -12.5q-11 0 -26 1.5t-28 5.5z" unicode="ј" horiz-adv-x="251"/>
<glyph glyph-name="u0459" d="M359 252l76 -197h40q28 0 52 4.5t40.5 16t26 30.5t9.5 48q0 58 -33.5 78t-97.5 20h-113zM388 0l-145 386l-152 -386h-71l195 468h60l63 -162h149q52 0 88.5 -11.5t59 -32t32.5 -48.5t10 -60t-12 -60t-35.5 -49t-58 -33t-80.5 -12h-103z" unicode="љ" horiz-adv-x="707"/>
<glyph glyph-name="u045A" d="M489 55h84q28 0 52 3.5t41.5 13t27 25.5t9.5 41t-10 42t-28 27t-42.5 14t-52.5 4h-81v-170zM154 468v-189h267v189h68v-189h96q52 0 88.5 -11.5t59 -30.5t32.5 -45t10 -54q0 -29 -12 -54t-35.5 -43.5t-58 -29.5t-80.5 -11h-168v222h-267v-222h-68v468h68z" unicode="њ" horiz-adv-x="825"/>
<glyph glyph-name="u045B" d="M165 391q19 41 63 65t94 24q89 0 133.5 -53t44.5 -140v-287h-68v259q0 37 -6 67t-20.5 51.5t-39 33.5t-61.5 12q-27 0 -52.5 -11t-45.5 -33.5t-32 -57t-12 -81.5v-240h-68v575h-105v51h105v130h68v-130h188v-51h-188v-184h2z" unicode="ћ" horiz-adv-x="586"/>
<glyph glyph-name="u045C" d="M278 534h-59l100 144h91zM154 276q40 0 75 -6l168 198h76l-182 -212q83 -26 129 -88.5t73 -167.5h-76q-14 62 -35.5 103.5t-54 67t-75.5 36t-98 11.5v-218h-68v468h68v-192z" unicode="ќ" horiz-adv-x="543"/>
<glyph glyph-name="u045E" d="M92 468l159 -395h2l145 395h74l-233 -589q-21 -55 -53 -87t-94 -32q-31 0 -61 6l7 62q24 -8 50 -8q35 0 55 22t35 61l38 98l-200 467h76zM131 701q11 -32 40 -54t73 -22t73 22t40 54l46 -22q-7 -21 -21 -39t-34 -33t-46 -23t-58 -8t-58 8t-47 23q-19 15 -33 33t-21 39z " unicode="ў" horiz-adv-x="488"/>
<glyph glyph-name="u045F" d="M320 0v-139h-66v139h-168v468h68v-409h251v409h68v-468h-153z" unicode="џ" horiz-adv-x="559"/>
<glyph glyph-name="u0490" d="M166 0h-72v708h338v159h66v-223h-332v-644z" unicode="Ґ" horiz-adv-x="528"/>
<glyph glyph-name="u0491" d="M154 0h-68v468h234v166h66v-223h-232v-411z" unicode="ґ" horiz-adv-x="406"/>
<glyph glyph-name="palochkacyrillic" d="M166 0h-72v708h72v-708z" unicode="Ӏ" horiz-adv-x="260"/>
<glyph glyph-name="Aiecyrillic" d="M519 261v383h-14l-247 -383h261zM591 64h345v-64h-417v198h-298l-128 -198h-82l461 708h452v-64h-333v-244h309v-63h-309v-273z" unicode="Ӕ" horiz-adv-x="990"/>
<glyph glyph-name="aiecyrillic" d="M360 216q-45 0 -87.5 -2.5t-75 -11.5t-52 -27t-19.5 -49q0 -24 9 -40t24.5 -25.5t35.5 -13.5t42 -4q72 0 107.5 38t35.5 101v34h-20zM745 270q0 67 -38 110t-106 43q-31 0 -58.5 -12.5t-48.5 -34t-34 -49t-14 -57.5h299zM814 248v-17t-1 -15h-370q1 -35 13.5 -66.5 t34.5 -54.5t51.5 -36.5t63.5 -13.5q51 0 87.5 24.5t55.5 56.5l49 -39q-40 -53 -88 -76t-104 -23q-66 0 -114.5 29t-71.5 80q-14 -32 -34.5 -53t-46 -33.5t-54.5 -17.5t-60 -5q-30 0 -60.5 7.5t-54.5 23.5t-39 42t-15 64q0 50 28 79t73.5 43.5t104 18.5t118.5 4v15 q0 61 -29.5 99.5t-90.5 38.5q-42 0 -79.5 -15t-64.5 -40l-39 44q30 29 81.5 48.5t111.5 19.5q56 0 96.5 -25.5t57.5 -72.5q28 45 74.5 71.5t102.5 26.5q52 0 92 -18.5t67 -50t40.5 -73.5t13.5 -90z" unicode="ӕ" horiz-adv-x="870"/>
<glyph glyph-name="Aringbelow" d="M410 -170q0 25 -17.5 42t-42.5 17t-42.5 -17t-17.5 -42t17.5 -42t42.5 -17t42.5 17t17.5 42zM446 -170q0 -20 -7.5 -37.5t-21 -30.5t-31 -20t-36.5 -7q-20 0 -37 7t-30.5 20t-21 30.5t-7.5 37.5t7.5 37.5t21 30t30.5 20t37 7.5q19 0 36.5 -7.5t31 -20t21 -30t7.5 -37.5z M193 252h312l-156 376zM89 0h-79l306 708h70l304 -708h-80l-78 186h-366z" unicode="Ḁ" horiz-adv-x="700"/>
<glyph glyph-name="aringbelow" d="M316 -182q0 25 -17.5 42t-42.5 17t-42.5 -17t-17.5 -42t17.5 -42t42.5 -17t42.5 17t17.5 42zM352 -182q0 -20 -7.5 -37.5t-21 -30.5t-31 -20t-36.5 -7q-20 0 -37 7t-30.5 20t-21 30.5t-7.5 37.5t7.5 37.5t21 30t30.5 20t37 7.5q19 0 36.5 -7.5t31 -20t21 -30t7.5 -37.5z M365 234q-42 0 -84.5 -3.5t-77 -14t-56.5 -30.5t-22 -53q0 -25 9.5 -42t25.5 -27.5t35.5 -15t39.5 -4.5q36 0 64 12.5t47 34t29 49.5t10 59v35h-20zM385 302q0 61 -32 91t-93 30q-42 0 -78 -15t-61 -40l-38 45q29 29 76.5 48t107.5 19q38 0 71 -10.5t58 -31.5t39 -53t14 -75 v-205q0 -27 2 -56t6 -49h-61q-3 17 -5 37t-2 39h-2q-32 -47 -72.5 -67.5t-97.5 -20.5q-27 0 -55.5 7.5t-52 24.5t-39 44t-15.5 66q0 54 27.5 85.5t73.5 47t105.5 20t123.5 4.5v15z" unicode="ḁ" horiz-adv-x="534"/>
<glyph glyph-name="uni1E02" d="M348 848q0 -21 -15 -34.5t-33 -13.5t-33 13.5t-15 34.5t15 34.5t33 13.5t33 -13.5t15 -34.5zM166 62h134q39 0 74.5 7.5t62 24t42.5 43t16 63.5q0 70 -47.5 104.5t-134.5 34.5h-147v-277zM166 398h145q26 0 52.5 6t48.5 20.5t35.5 38.5t13.5 59q0 34 -13.5 57.5 t-36.5 38.5t-54 21.5t-66 6.5h-125v-248zM94 708h211q40 0 81 -8.5t73.5 -29t53 -55.5t20.5 -88q0 -56 -34 -97.5t-91 -54.5v-2q69 -8 114.5 -53.5t45.5 -123.5q0 -44 -18.5 -80.5t-52.5 -62t-83 -39.5t-110 -14h-210v708z" unicode="Ḃ" horiz-adv-x="636"/>
<glyph glyph-name="uni1E03" d="M174 848q0 -21 -15 -34.5t-33 -13.5t-33 13.5t-15 34.5t15 34.5t33 13.5t33 -13.5t15 -34.5zM509 234q0 39 -12 73.5t-34.5 60t-55.5 40.5t-75 15q-39 0 -72 -14.5t-57 -40t-37.5 -60t-13.5 -74.5t13.5 -74.5t37.5 -59.5t57 -39.5t72 -14.5q42 0 75 14.5t55.5 40t34.5 60 t12 73.5zM160 79v-79h-68v756h68v-369h2q30 46 78 69.5t99 23.5q55 0 99.5 -19t76 -52t49 -78t17.5 -97t-17.5 -97t-49 -78t-76 -52t-99.5 -19q-51 0 -99 23t-78 68h-2z" unicode="ḃ" horiz-adv-x="637"/>
<glyph glyph-name="Bdotbelow" d="M339 -123q0 -21 -15 -34.5t-33 -13.5t-33 13.5t-15 34.5t15 34.5t33 13.5t33 -13.5t15 -34.5zM166 62h134q39 0 74.5 7.5t62 24t42.5 43t16 63.5q0 70 -47.5 104.5t-134.5 34.5h-147v-277zM166 398h145q26 0 52.5 6t48.5 20.5t35.5 38.5t13.5 59q0 34 -13.5 57.5 t-36.5 38.5t-54 21.5t-66 6.5h-125v-248zM94 708h211q40 0 81 -8.5t73.5 -29t53 -55.5t20.5 -88q0 -56 -34 -97.5t-91 -54.5v-2q69 -8 114.5 -53.5t45.5 -123.5q0 -44 -18.5 -80.5t-52.5 -62t-83 -39.5t-110 -14h-210v708z" unicode="Ḅ" horiz-adv-x="636"/>
<glyph glyph-name="bdotbelow" d="M384 -135q0 -21 -15 -34.5t-33 -13.5t-33 13.5t-15 34.5t15 34.5t33 13.5t33 -13.5t15 -34.5zM509 234q0 39 -12 73.5t-34.5 60t-55.5 40.5t-75 15q-39 0 -72 -14.5t-57 -40t-37.5 -60t-13.5 -74.5t13.5 -74.5t37.5 -59.5t57 -39.5t72 -14.5q42 0 75 14.5t55.5 40 t34.5 60t12 73.5zM160 79v-79h-68v756h68v-369h2q30 46 78 69.5t99 23.5q55 0 99.5 -19t76 -52t49 -78t17.5 -97t-17.5 -97t-49 -78t-76 -52t-99.5 -19q-51 0 -99 23t-78 68h-2z" unicode="ḅ" horiz-adv-x="637"/>
<glyph glyph-name="Blinebelow" d="M416 -129h-270v54h270v-54zM166 62h134q39 0 74.5 7.5t62 24t42.5 43t16 63.5q0 70 -47.5 104.5t-134.5 34.5h-147v-277zM166 398h145q26 0 52.5 6t48.5 20.5t35.5 38.5t13.5 59q0 34 -13.5 57.5t-36.5 38.5t-54 21.5t-66 6.5h-125v-248zM94 708h211q40 0 81 -8.5 t73.5 -29t53 -55.5t20.5 -88q0 -56 -34 -97.5t-91 -54.5v-2q69 -8 114.5 -53.5t45.5 -123.5q0 -44 -18.5 -80.5t-52.5 -62t-83 -39.5t-110 -14h-210v708z" unicode="Ḇ" horiz-adv-x="636"/>
<glyph glyph-name="blinebelow" d="M471 -141h-270v54h270v-54zM509 234q0 39 -12 73.5t-34.5 60t-55.5 40.5t-75 15q-39 0 -72 -14.5t-57 -40t-37.5 -60t-13.5 -74.5t13.5 -74.5t37.5 -59.5t57 -39.5t72 -14.5q42 0 75 14.5t55.5 40t34.5 60t12 73.5zM160 79v-79h-68v756h68v-369h2q30 46 78 69.5t99 23.5 q55 0 99.5 -19t76 -52t49 -78t17.5 -97t-17.5 -97t-49 -78t-76 -52t-99.5 -19q-51 0 -99 23t-78 68h-2z" unicode="ḇ" horiz-adv-x="637"/>
<glyph glyph-name="Ccedillaacute" d="M417 801h-59l100 144h91zM690 114q-18 -27 -43.5 -51t-59 -42t-74 -28.5t-88.5 -10.5l-35 -57q13 4 35 4q30 0 56 -18t26 -54q0 -25 -11 -42t-28 -27t-38 -14t-41 -4t-46.5 5t-47.5 15l16 36q17 -8 35 -11t37 -3q8 0 19 2t21 7.5t17 14t7 20.5q0 20 -14.5 29.5t-39.5 9.5 q-22 0 -43 -8l-18 15l52 82q-72 7 -132.5 37.5t-104 79t-67.5 113.5t-24 140q0 81 28 149t77.5 117.5t117 77.5t146.5 28q39 0 76.5 -8t70.5 -22.5t60 -35t45 -46.5l-60 -44q-11 17 -29.5 34t-43.5 30t-54.5 21t-63.5 8q-69 0 -123.5 -25t-92.5 -67.5t-58 -98.5t-20 -118 t20.5 -118t58.5 -98.5t92.5 -67.5t122.5 -25q61 0 116 25t92 80z" unicode="Ḉ" horiz-adv-x="720"/>
<glyph glyph-name="ccedillaacute" d="M294 555h-59l100 144h91zM427 361q-17 27 -49.5 44.5t-70.5 17.5q-41 0 -74 -14.5t-56.5 -40t-36 -60t-12.5 -74.5t12.5 -74t35.5 -59.5t56 -40t74 -14.5q45 0 76 17t51 44l51 -38q-29 -36 -71 -57.5t-101 -23.5l-39 -63q13 4 35 4q30 0 56 -18t26 -54q0 -25 -11 -42 t-28 -27t-38 -14t-41 -4t-46.5 5t-47.5 15l16 36q17 -8 35 -11t37 -3q8 0 19 2t21 7.5t17 14t7 20.5q0 20 -14.5 29.5t-39.5 9.5q-22 0 -43 -8l-18 15l55 88q-49 6 -88.5 26.5t-67.5 52.5t-43 74t-15 91q0 53 18 98t50.5 78t78.5 51.5t103 18.5q47 0 95.5 -20.5t78.5 -60.5z " unicode="ḉ" horiz-adv-x="500"/>
<glyph glyph-name="uni1E0A" d="M395 848q0 -21 -15 -34.5t-33 -13.5t-33 13.5t-15 34.5t15 34.5t33 13.5t33 -13.5t15 -34.5zM166 64h143q80 0 139.5 25t98.5 65.5t58.5 92.5t19.5 107t-19.5 107t-58.5 92.5t-98.5 65.5t-139.5 25h-143v-580zM94 708h235q66 0 132.5 -22t120 -66.5t86.5 -111t33 -154.5 q0 -89 -33 -155t-86.5 -110.5t-120 -66.5t-132.5 -22h-235v708z" unicode="Ḋ" horiz-adv-x="757"/>
</font>
</defs>
</svg>
